<svg width="311" height="237" viewBox="0 0 311 237" fill="none" xmlns="http://www.w3.org/2000/svg">
<g clip-path="url(#clip0_537_4141)">
<path d="M151.721 178.27L118.522 185.803L89.6379 145.896L102.091 105.14L134.297 86.6708L125.452 73.5835L109.001 9.6845L145.079 1.9335L146.436 43.1089L146.091 67.3329L153.567 82.4669L164.728 66.5148L167.205 45.0538C167.205 45.0538 172.996 0 174.503 0C176.01 0 209.393 7.751 209.393 7.751L183.345 75.0754L173.239 87.4946L200.463 107.382L209.396 149.596L186.008 185.803L151.721 178.27Z" fill="#FFFF00"/>
<path d="M119.984 18.4065L139.367 13.8035L140.56 66.2657L152.139 87.9277L168.754 68.7597L179.084 9.93079L197.299 13.0787L178.677 71.6415L153.57 97.9038L132.106 72.6833L119.984 18.4065Z" fill="#FCD939"/>
<path d="M134.583 22.766L125.936 23.9776L134.583 70.1015L152.733 93.3177L173.81 73.5863L191.251 16.7107L183.345 14.9867L168.48 72.0321L154.534 86.8491L140.56 66.2656L134.583 22.766Z" fill="#F6C341"/>
<path d="M151.249 160.186L84.5765 152.376L5.30459 169.381L0 117.805L82.0374 122.213L150.061 150.533L217.746 128.075L311 120.387L306.798 169.987L222.855 156.181L151.249 160.186Z" fill="#FFFF00"/>
<path d="M151.427 159.849L85.767 148.854L11.5083 159.459L9.91357 127.991L82.5916 128.695L150.239 150.196L220.624 132.469L303.719 127.968L300.244 162.641L223.22 151.459L151.427 159.849Z" fill="#FCD939"/>
<path d="M18.5378 138.003V151.631L82.6482 140.829L150.27 157.964L219.349 144.628L285.402 151.903L287.042 138.003H219.309L151.424 153.576C151.424 153.576 86.2958 132.064 82.6482 132.814C79.0034 133.565 18.5378 138.003 18.5378 138.003Z" fill="#F6C341"/>
<path d="M151.721 178.27L93.2829 191.53L24.8859 224.224L5.30469 183.139L87.4947 165.333L152.083 168.099L219.773 166.525L307.794 185.656L296.042 237L215.599 192.306L151.721 178.27Z" fill="#FFFF00"/>
<path d="M152.295 174.222L91.3289 187.482L29.113 217.452L18.043 183.453L88.9848 171.657L151.941 170.046L219.176 171.657L296.042 187.785L290.316 225.3L216.507 187.957L152.295 174.222Z" fill="#FCD939"/>
<path d="M32.4297 192.439L37.6919 208.784L87.5708 183.139L151.463 171.852L217.231 183.139L283.759 217.339L285.684 195.539L218.138 176.15L151.449 171.346L86.6632 175.909L32.4297 192.439Z" fill="#F6C341"/>
<path d="M150.48 145.896L84.4777 116.432L5.30469 102.147L28.132 58.4241L86.3128 96.5789L151.345 131.872L212.95 99.2881L285.467 61.64L305.775 104.525L218.031 119.702L150.48 145.896Z" fill="#FFFF00"/>
<path d="M149.843 143.442L82.8517 113.527L18.043 97.7961L30.0122 71.3215L83.8018 100.149L150.508 133.366L215.52 104.61L282.45 72.9833L294.097 100.551L217.697 118.725L149.843 143.442Z" fill="#FCD939"/>
<path d="M35.2348 80.5305L27.5833 95.1012L79.7752 111.387L150.106 141.522L211.856 115.999L282.45 97.9575L275.324 84.5532L210.162 110.453L150.273 136.676L80.1372 105.21L35.2348 80.5305Z" fill="#F6C341"/>
<path d="M150.859 125.276L100.674 92.777L49.3899 36.4138L80.3522 20.9147L115.355 83.8371L150.859 114.037L186.792 85.4422L239.77 20.9147L275.324 39.5448L198.015 98.1586L150.859 125.276Z" fill="#FFFF00"/>
<path d="M150.799 123.269L103.228 91.0558L58.885 41.6821L79.5661 31.873L112.115 85.4421L150.799 116.942L186.956 90.6935L235.752 34.7492L254.968 47.7601L190.827 98.9993L150.799 123.269Z" fill="#FCD939"/>
<path d="M79.8433 42.8513L70.0457 45.7672L105.244 87.1662L150.508 121.148C150.508 121.148 188.884 96.126 189.337 96.194C189.789 96.2619 244.037 50.6703 244.037 50.6703L234.42 42.8485L185.978 93.1423L150.796 116.939L108.145 84.2561L79.8405 42.8513H79.8433Z" fill="#F6C341"/>
<g clip-path="url(#clip1_537_4141)">
<path d="M230.943 74.5537L124.154 125.465L108.783 113.955L82.9552 121.905L71.0822 148.559L83.9715 171.536L110.172 179.596L131.128 164.198L133.335 139.729L172.316 121.582L180.3 149.25L196.157 156.646L201.993 141.408L187.241 114.921L204.283 106.819L214.153 133.622L229.373 139.092L233.223 124.838L219.518 99.8362L239.624 90.3357L242.419 80.0005L230.942 74.555L230.943 74.5537ZM113.442 149.807L103.518 157.818L94.249 153.951L92.8997 142.796L100.772 135.017L111.686 138.069L113.442 149.807Z" fill="#FEBE14" stroke="#B96E29" stroke-width="3.60656" stroke-miterlimit="10"/>
<path d="M96.9791 174.665L110.057 178.59L130.307 163.704L132.526 139.136L178.994 117.568L195.663 155.506L201.05 141.48L186.062 114.485L211.082 102.625L228.803 137.944L232.263 124.956L218.354 99.4502L238.892 89.7055L241.408 80.4784L121.385 137.092L122.109 150.039L114.247 162.305L96.9791 174.665Z" fill="#F99F1E"/>
<path d="M81.3878 152.496L80.0564 142.128L86.7322 126.947L100.842 121.606L109.099 123.868L94.2988 129.834L85.6488 140.409L81.3878 152.496Z" fill="#FFE298"/>
<path d="M125.606 128.64L230.354 78.558L233.14 79.8293L125.951 130.627L125.606 128.64Z" fill="#FFE298"/>
</g>
</g>
<defs>
<clipPath id="clip0_537_4141">
<rect width="311" height="237" fill="white"/>
</clipPath>
<clipPath id="clip1_537_4141">
<rect width="182.807" height="107.553" fill="white" transform="translate(58 140.82) rotate(-38.9096)"/>
</clipPath>
</defs>
</svg>
