<svg width="311" height="237" viewBox="0 0 311 237" fill="none" xmlns="http://www.w3.org/2000/svg">
<g clip-path="url(#clip0_685_2377)">
<path d="M151.721 178.27L118.522 185.803L89.638 145.896L102.091 105.14L134.297 86.6708L125.452 73.5835L109.001 9.6845L145.079 1.9335L146.436 43.1089L146.091 67.3329L153.567 82.4669L164.728 66.5148L167.205 45.0538C167.205 45.0538 172.996 0 174.503 0C176.01 0 209.393 7.751 209.393 7.751L183.345 75.0754L173.239 87.4946L200.463 107.382L209.396 149.596L186.008 185.803L151.721 178.27Z" fill="#FFFF00"/>
<path d="M119.984 18.4065L139.367 13.8035L140.56 66.2657L152.139 87.9277L168.754 68.7597L179.084 9.93079L197.299 13.0787L178.676 71.6415L153.57 97.9038L132.106 72.6833L119.984 18.4065Z" fill="#FCD939"/>
<path d="M134.583 22.766L125.936 23.9776L134.583 70.1015L152.733 93.3177L173.81 73.5863L191.251 16.7107L183.345 14.9867L168.48 72.0321L154.534 86.8491L140.56 66.2656L134.583 22.766Z" fill="#F6C341"/>
<path d="M151.249 160.186L84.5765 152.376L5.30459 169.381L0 117.805L82.0374 122.213L150.061 150.533L217.746 128.075L311 120.387L306.798 169.987L222.855 156.181L151.249 160.186Z" fill="#FFFF00"/>
<path d="M151.427 159.849L85.767 148.854L11.5084 159.459L9.9136 127.991L82.5916 128.695L150.239 150.196L220.624 132.469L303.719 127.968L300.244 162.641L223.22 151.459L151.427 159.849Z" fill="#FCD939"/>
<path d="M18.5378 138.003V151.631L82.6482 140.829L150.27 157.964L219.349 144.628L285.402 151.903L287.042 138.003H219.309L151.424 153.576C151.424 153.576 86.2958 132.064 82.6482 132.814C79.0034 133.565 18.5378 138.003 18.5378 138.003Z" fill="#F6C341"/>
<path d="M151.721 178.27L93.2827 191.53L24.8857 224.224L5.30457 183.139L87.4946 165.333L152.083 168.099L219.773 166.525L307.793 185.656L296.042 237L215.599 192.306L151.721 178.27Z" fill="#FFFF00"/>
<path d="M152.295 174.222L91.3289 187.482L29.1131 217.452L18.043 183.453L88.9849 171.657L151.942 170.046L219.176 171.657L296.042 187.785L290.316 225.3L216.507 187.957L152.295 174.222Z" fill="#FCD939"/>
<path d="M32.4297 192.439L37.6919 208.784L87.5709 183.139L151.463 171.852L217.231 183.139L283.759 217.339L285.684 195.539L218.138 176.15L151.449 171.346L86.6632 175.909L32.4297 192.439Z" fill="#F6C341"/>
<path d="M150.48 145.896L84.4776 116.432L5.30457 102.147L28.1318 58.4241L86.3127 96.5789L151.345 131.872L212.95 99.2881L285.467 61.64L305.775 104.525L218.031 119.702L150.48 145.896Z" fill="#FFFF00"/>
<path d="M149.843 143.442L82.8518 113.527L18.043 97.7961L30.0123 71.3215L83.8018 100.149L150.508 133.366L215.52 104.61L282.45 72.9833L294.097 100.551L217.698 118.725L149.843 143.442Z" fill="#FCD939"/>
<path d="M35.2348 80.5305L27.5833 95.1012L79.7753 111.387L150.106 141.522L211.856 115.999L282.45 97.9575L275.324 84.5532L210.162 110.453L150.273 136.676L80.1372 105.21L35.2348 80.5305Z" fill="#F6C341"/>
<path d="M150.859 125.276L100.674 92.777L49.3899 36.4138L80.3522 20.9147L115.355 83.8371L150.859 114.037L186.792 85.4422L239.77 20.9147L275.324 39.5448L198.015 98.1586L150.859 125.276Z" fill="#FFFF00"/>
<path d="M150.799 123.269L103.227 91.0558L58.8849 41.6821L79.566 31.873L112.115 85.4421L150.799 116.942L186.956 90.6935L235.752 34.7492L254.968 47.7601L190.827 98.9993L150.799 123.269Z" fill="#FCD939"/>
<path d="M79.8432 42.8513L70.0455 45.7672L105.244 87.1662L150.508 121.148C150.508 121.148 188.884 96.126 189.337 96.194C189.789 96.2619 244.037 50.6703 244.037 50.6703L234.42 42.8485L185.977 93.1423L150.796 116.939L108.145 84.2561L79.8404 42.8513H79.8432Z" fill="#F6C341"/>
</g>
<g clip-path="url(#clip1_685_2377)">
<path fill-rule="evenodd" clip-rule="evenodd" d="M223.555 194.907C220.827 197.552 211.346 202.735 208.314 203.562C206.471 204.075 204.967 203.993 204.209 204.017C190.366 204.529 168.314 202.77 154.623 202.502C148.746 202.386 143.51 202.63 133.026 203.108C120.874 203.667 110.25 204.529 101.539 205.391C99.0318 203.574 95.6149 200.767 92.2564 196.736C83.9999 186.812 81.8308 176.398 81.0378 172.356C78.0524 157.119 82.134 144.469 85.3526 134.474C88.6529 124.259 95.9298 107.088 97.7374 97.3618C98.5304 93.0868 98.9152 88.7884 98.9152 88.7884C99.2184 85.3172 99.2884 82.3351 99.265 80.0403C96.2213 79.9937 93.1776 79.9355 90.1339 79.8889C89.0494 78.6308 87.6267 76.7088 86.4838 74.1112C84.9561 70.6515 83.9999 53.5281 85.5742 47.0631C86.1456 44.7101 87.6383 38.5246 91.0552 35.065C98.3321 27.6798 110.46 36.5677 135.626 36.8938C147.265 37.0453 158.215 37.185 171.369 33.5507C175.474 32.4208 184.162 29.7066 194.343 31.7218C199.497 32.7469 202.448 34.4593 204.384 35.9736C209.118 39.6662 210.902 44.4771 211.987 47.5174C212.523 49.0317 214.494 54.9026 213.351 66.3532C213.142 68.4034 212.314 75.9633 208.792 86.1093C205.258 96.3018 202.11 100.134 197.561 113.297C196.524 116.302 195.801 118.656 195.474 119.774C195.148 120.845 193.037 127.963 191.731 134.847C189.69 145.634 189.643 156.013 189.771 161.627C193.34 161.697 196.932 161.755 200.57 161.779C206.786 161.825 212.897 161.802 218.902 161.709C220.337 162.012 226.832 163.561 229.631 169.211C231.019 172.018 230.867 174.581 230.692 177.423C230.552 179.787 230.004 188.652 223.567 194.896L223.555 194.907Z" fill="#412E16"/>
<path fill-rule="evenodd" clip-rule="evenodd" d="M203.451 200.383C199.019 200.651 192.675 200.895 185.049 200.697C172.512 200.371 169.434 199.462 155.801 198.927C149.492 198.682 143.148 198.95 136.827 199.148C130.134 199.358 124.956 199.719 119.86 200.057C113.003 200.499 107.195 200.988 102.799 201.384C100.49 199.591 98.6704 197.808 97.2826 196.282C94.7404 193.498 92.8978 190.773 91.9999 189.188C91.86 188.944 91.0203 187.453 90.9503 187.348C89.9591 185.601 89.2361 184.319 89.2127 184.284C88.3381 182.723 85.8309 177.074 84.653 171.96C82.4839 162.56 84.2798 152.728 85.1078 148.407C86.3673 141.802 87.6734 139.157 92.5713 125.261C95.58 116.711 97.889 109.721 99.3584 105.202C98.4371 109.116 101.399 97.3972 101.877 93.4017C102.286 90.0818 102.017 89.5926 102.682 82.4636C102.81 81.0425 102.939 79.8777 103.02 79.1205C116.28 78.2119 127.207 78.2585 134.997 78.5031C141.807 78.7128 147.696 79.1554 159.183 80.0174C171.183 80.926 181.119 81.7997 188.081 82.452C188.687 82.1724 189.573 81.6948 190.518 80.9377C192.314 79.4699 193.55 77.5246 195.532 71.5139C196.675 68.0776 197.235 66.3652 197.76 63.8375C198.809 58.6655 199.754 54.0643 197.515 52.2238C196.804 51.6414 195.719 51.3735 193.562 50.8609C192.454 50.593 191.416 50.4299 189.772 50.2552C187.894 50.0572 185.62 49.9057 180.104 49.8591C179.031 49.8591 177.69 49.8358 176.139 49.8475C176.489 48.9971 176.687 48.2866 177.049 47.6809C178.296 45.5725 179.579 43.499 180.885 41.4488C182.728 38.5716 185.177 36.4399 188.337 35.0421C193.118 32.9337 202.576 37.4534 206.903 44.9201C208.99 48.5196 209.118 52.748 209.363 61.1933C209.363 61.1933 209.655 71.1062 207.054 80.7629C206.739 81.9395 206.366 83.0111 206.366 83.0111C205.946 84.1527 205.457 85.1312 204.419 87.4842C203.999 88.4394 202.856 91.0836 200.687 96.4187C194.518 111.643 191.439 119.25 189.282 128.802C187.194 138.039 186.623 145.774 186.086 152.961C185.83 156.444 185.76 159.589 185.632 165.879C185.562 169.292 185.538 172.309 186.086 176.212C186.32 177.831 186.506 179.205 186.996 180.918C188.314 185.531 190.623 188.652 192.011 190.493C195.801 195.502 200.255 198.589 203.416 200.371L203.451 200.383ZM124.758 146.1C123.055 144.26 121.586 142.617 120.046 141.021C117.761 138.668 116.07 138.785 114.075 141.394C112.863 142.978 111.766 144.656 110.495 146.193C108.968 148.045 108.583 149.35 109.912 151.237C111.125 152.961 111.731 154.72 111.685 156.782C111.638 158.319 112.385 159.286 113.889 159.682C114.962 159.962 116.023 160.451 117.096 160.509C124.513 160.929 131.93 161.348 139.358 161.581C142.46 161.674 145.574 161.348 148.676 161.138C150.017 161.057 151.381 160.871 152.093 159.484C153.235 157.248 152.104 155.396 151.008 153.59C150.005 151.959 148.466 151.342 146.705 152.087C144.722 152.915 143.288 152.437 142.064 150.806C140.932 149.28 139.44 148.779 137.655 149.467C135.941 150.119 134.682 149.467 133.457 148.325C132.163 147.114 130.763 146.019 129.434 144.842C128.454 143.98 127.498 143.864 126.46 144.702C125.947 145.122 125.422 145.541 124.758 146.088V146.112V146.1ZM134.099 97.7699C132.233 98.0029 130.332 98.1194 128.489 98.4921C124.373 99.3308 121.854 102.313 121.434 106.669C121.073 110.42 123.207 114.509 126.658 115.802C132.629 118.05 138.81 119.401 145.201 117.829C150.238 116.582 155.265 115.161 160.221 113.647C161.644 113.204 163.055 112.296 164.162 111.259C167.533 108.102 166.903 104.736 162.576 103.117C160.314 102.266 157.888 101.859 155.521 101.323C152.827 100.694 149.947 100.542 147.451 99.4706C143.09 97.5719 138.67 97.3389 134.099 97.7816V97.7699ZM160.687 182.164C159.183 180.964 157.667 179.695 156.081 178.553C155.614 178.215 154.53 177.971 154.367 178.18C153.958 178.681 153.679 179.543 153.807 180.161C153.958 180.86 154.565 181.5 155.09 182.048C155.918 182.91 156.816 183.667 157.76 184.529C157.061 185.193 156.349 185.647 155.976 186.288C155.579 186.975 155.078 188.07 155.358 188.571C155.976 189.678 157.072 189.2 157.958 188.629C159.043 187.895 160.104 187.092 161.294 186.241C162.157 186.929 162.926 187.523 163.708 188.14C164.536 188.781 165.41 189.363 166.343 188.42C167.416 187.336 166.751 186.428 165.912 185.577C165.445 185.123 165.037 184.634 164.326 183.877C165.795 182.828 167.09 181.838 168.454 180.976C169.387 180.382 170.133 179.683 169.585 178.576C168.944 177.272 167.789 177.435 166.751 178.099C164.897 179.299 163.09 180.568 160.676 182.199V182.176L160.687 182.164ZM89.1544 164.773C90.7754 165.285 92.618 165.355 93.5159 166.31C94.5188 167.37 94.6704 169.223 95.2418 170.888C93.0961 171.878 91.3468 172.671 89.6092 173.474C90.892 176.876 91.79 177.365 94.7171 176.491C96.0815 176.084 97.5042 175.792 98.8803 175.361C101.527 174.523 102.414 172.228 101.143 169.164C99.7316 169.444 98.2622 169.735 96.7462 170.05C95.755 166.73 94.8337 163.596 93.8541 160.346C91.3119 160.94 90.204 162.56 89.1661 164.796H89.1544V164.773ZM127.976 175.198C129.107 175.361 130.32 175.198 130.612 175.629C131.743 177.272 133.247 177.109 134.763 176.783C136.291 176.456 138.612 176.841 138.822 174.756C139.02 172.799 136.606 172.624 135.346 171.657C135.113 171.482 134.693 171.319 134.413 171.389C132.174 172.042 130.25 171.249 127.86 169.595C127.906 171.809 127.93 173.381 127.976 175.175V175.198ZM130.425 125.505C127.883 125.657 126.367 127.136 126.449 129.384C126.53 131.632 128.361 133.217 130.635 133.042C132.781 132.856 134.483 131.178 134.448 129.245C134.39 126.845 132.804 125.366 130.425 125.505ZM153.049 140.264C155.638 139.356 155.813 139.123 155.964 136.595C153.352 136.828 152.419 138.004 153.049 140.264ZM173.165 142.198C173.515 142.198 173.865 142.209 174.215 142.221C175.288 141.219 175.556 139.985 174.763 138.598C174.6 138.307 174.005 138.063 173.655 138.121C173.317 138.167 172.78 138.622 172.792 138.89C172.815 139.996 173.025 141.091 173.165 142.198ZM162.833 119.343C163.603 120.811 164.885 120.741 166.157 120.496C166.483 120.438 166.985 119.844 166.926 119.623C166.81 119.192 166.413 118.563 166.052 118.504C164.932 118.306 163.696 118.062 162.845 119.355L162.833 119.343ZM112.699 124.154C111.102 125.144 110.145 126.216 109.854 127.381C112.641 127.672 113.154 127.148 112.699 124.154ZM164.186 130.584C163.311 130.526 162.763 130.363 162.285 130.468C161.2 130.724 160.081 131.062 159.953 132.448C159.929 132.716 160.314 133.275 160.396 133.24C161.317 133.019 162.285 132.821 163.078 132.366C163.521 132.098 163.719 131.376 164.186 130.584ZM161.189 169.898C160.477 171.249 159.836 171.925 159.941 172.426C160.093 173.137 160.804 173.719 161.294 174.36C161.702 173.824 162.425 173.288 162.425 172.752C162.425 172.053 161.853 171.343 161.177 169.91L161.189 169.898ZM163.183 157.399C162.425 156.852 162.052 156.363 161.62 156.316C160.629 156.188 159.509 157.877 159.871 159.007C159.999 159.38 160.932 159.904 161.002 159.845C161.725 159.147 162.355 158.354 163.171 157.399H163.183ZM148.699 141.254C147.44 141.021 146.518 140.707 145.609 140.73C145.142 140.73 144.338 141.359 144.326 141.709C144.326 142.186 144.851 143.002 145.294 143.106C146.542 143.386 147.859 143.433 148.699 141.266V141.254ZM168.804 131.691C169.014 133.951 170.203 134.114 171.218 134.3C171.591 134.37 172.291 133.927 172.442 133.566C172.571 133.228 172.256 132.366 171.952 132.273C171.031 131.97 170.04 131.9 168.792 131.702L168.804 131.691ZM170.052 149.536C171.661 149.816 172.769 149.315 173.235 147.743C173.317 147.463 172.967 146.776 172.71 146.694C171.206 146.252 170.646 147.498 170.005 148.453C169.865 148.651 170.028 149.047 170.063 149.536H170.052ZM115.487 176.002C116.186 173.276 115.848 172.752 113.166 172.449C113.667 173.87 113.597 175.49 115.487 176.002ZM179.556 109.151C177.865 110.281 177.585 111.574 178.005 113.204C180.477 112.447 180.78 111.737 179.556 109.151ZM113.504 116.454C113.294 117.013 112.886 117.596 112.921 118.167C112.933 118.714 113.399 119.227 113.656 119.751C114.169 119.32 114.985 118.97 115.16 118.423C115.51 117.316 114.997 116.524 113.516 116.443H113.504V116.454ZM114.717 183.282C112.781 182.351 111.65 182.77 110.402 184.133C112.175 185.403 113.329 185.041 114.717 183.282ZM156.489 121.37C154.623 120.194 153.457 120.24 152.477 122.057C153.935 123.374 155.02 122.989 156.489 121.37ZM107.032 166.578C108.641 164.167 108.443 163.748 105.283 162.397C105.912 163.899 106.355 164.959 107.032 166.578ZM105.457 149.269C104.338 150.527 104.793 151.622 105.726 152.612C105.866 152.751 106.647 152.612 106.799 152.379C107.557 151.26 106.985 150.352 106.146 149.571C106.076 149.501 105.947 149.49 105.457 149.269ZM111.067 109.057C110.74 110.805 110.53 112.191 112.315 112.82C112.548 112.901 113.236 112.459 113.259 112.226C113.352 110.863 112.863 109.756 111.067 109.057ZM179.894 105.807C179.311 102.825 179.194 102.721 176.839 103.058C176.909 104.829 177.993 105.458 179.894 105.807ZM114.53 180.277C115.895 181.058 116.583 180.557 116.874 179.648C117.224 178.542 117.003 177.575 115.253 177.016C114.973 178.25 114.752 179.299 114.53 180.289V180.277ZM150.425 92.3417C151.253 93.3318 152.058 94.1705 153.422 93.4599C153.609 93.3668 153.784 92.8076 153.679 92.6329C152.967 91.5496 152.046 90.9788 150.752 91.736C150.682 91.7825 150.658 91.9223 150.425 92.3184V92.3417ZM119.731 94.0191C119.603 93.7861 119.475 93.5531 119.358 93.3318C116.723 93.1804 116.664 93.2386 116.769 96.0809C117.912 95.2888 118.833 94.6598 119.743 94.0191H119.731ZM160.921 166.45C161.853 165.227 161.632 164.26 160.442 163.678C160.104 163.515 158.985 164.039 158.95 164.33C158.763 165.67 159.638 166.241 160.921 166.45ZM108.629 167.638C109.038 168.256 109.189 168.757 109.504 168.908C110.134 169.199 110.845 169.327 111.533 169.444C111.615 169.456 111.965 168.745 111.883 168.663C111.382 168.151 110.845 167.603 110.227 167.312C109.889 167.161 109.318 167.475 108.618 167.65H108.629V167.638ZM113.143 104.654C113.971 103.14 114.857 102.208 113.831 100.834C112.443 101.765 112.221 103.035 113.143 104.654ZM164.337 154.627C165.865 155.174 166.996 155.174 167.731 153.963C167.883 153.707 167.498 152.74 167.241 152.682C165.947 152.414 164.955 152.915 164.337 154.627ZM123.696 89.5926C126.11 91.6195 126.46 91.5729 127.685 89.2897C126.414 89.3829 125.352 89.4761 123.696 89.5926ZM106.169 155.174C104.618 156.467 104.466 157.551 105.726 158.914C107.382 157.947 107.265 156.863 106.169 155.174ZM107.102 132.471C107.627 131.504 108.035 130.84 108.315 130.118C108.338 130.037 107.452 129.431 107.405 129.489C106.857 130.048 106.367 130.677 105.971 131.33C105.924 131.411 106.484 131.854 107.102 132.471ZM147.673 125.482C146.308 124.725 145.48 125.179 145.072 126.402C144.979 126.705 145.154 127.392 145.399 127.509C146.553 128.056 147.125 127.218 147.638 126.367C147.731 126.216 147.661 125.96 147.684 125.494L147.673 125.482ZM136.606 89.0801C135.626 88.0666 134.623 87.1464 133.352 88.9286C134.344 90.2799 135.451 89.9654 136.606 89.0801ZM175.264 97.5603C174.261 97.0011 173.678 96.5235 173.025 96.4187C172.699 96.3605 172.256 96.9895 171.871 97.3156C172.431 97.7466 172.932 98.3058 173.562 98.5387C173.853 98.6552 174.39 98.0961 175.264 97.5719V97.5603ZM142.46 133.403C142.017 134.323 141.515 134.871 141.55 135.372C141.597 135.884 142.145 136.35 142.483 136.839C142.857 136.315 143.475 135.803 143.556 135.232C143.615 134.789 142.996 134.253 142.448 133.403H142.46ZM171.976 118.609C172.232 118.842 172.396 119.122 172.536 119.11C173.317 119.017 174.098 118.901 174.856 118.668C174.973 118.644 174.856 117.91 174.845 117.514C174.075 117.642 173.294 117.724 172.524 117.887C172.372 117.91 172.267 118.213 171.976 118.609ZM103.697 146.019C103.976 146.088 104.256 146.158 104.525 146.24C104.828 145.774 105.423 145.273 105.376 144.842C105.283 143.898 104.909 142.92 103.277 143.141C103.428 144.178 103.557 145.098 103.685 146.03H103.697V146.019ZM107.032 180.895C106.729 182.397 107.44 183.154 109.143 183.201C109.096 181.78 108.245 181.232 107.032 180.895ZM105.224 176.107C104.793 176.876 104.326 177.365 104.28 177.889C104.256 178.134 105.213 178.809 105.364 178.716C105.842 178.425 106.285 177.889 106.425 177.365C106.484 177.132 105.796 176.678 105.224 176.107ZM120.676 134.288C119.906 133.706 119.475 133.1 118.997 133.077C118.565 133.054 118.087 133.636 117.632 133.951C118.029 134.393 118.355 135.104 118.845 135.22C119.265 135.313 119.836 134.743 120.688 134.3H120.676V134.288ZM162.46 94.3918C163.463 95.5683 164.174 96.1624 165.41 95.0325C164.757 93.7628 164.011 93.3435 162.46 94.3918ZM105.446 136.688C104.968 136.222 104.501 135.698 104.455 135.744C103.988 136.094 103.533 136.502 103.23 136.991C103.16 137.119 103.662 137.585 103.918 137.911C104.361 137.562 104.828 137.201 105.469 136.7H105.457L105.446 136.688ZM143.405 91.7709C143.755 91.1302 144.128 90.6643 144.034 90.5128C143.778 90.1168 143.37 89.779 142.927 89.581C142.787 89.5227 142.134 90.1983 142.169 90.2682C142.437 90.7342 142.81 91.1069 143.381 91.7709H143.393H143.405Z" fill="#E1DBCF"/>
<path fill-rule="evenodd" clip-rule="evenodd" d="M182.005 35.7411C180.384 37.0108 171.987 43.8252 171.358 54.8215C170.973 61.6825 173.783 67.0293 175.159 69.557C178.098 74.9736 181.958 78.3168 184.291 80.0408C181.737 79.7379 177.877 79.2953 173.189 78.8293C160.046 77.5014 141.749 75.6958 119.347 75.6376C112.28 75.6259 102.554 75.7774 90.9037 76.5229C89.306 72.9235 86.4839 65.2121 87.4052 55.2875C88.1865 46.8771 94.9969 35.4731 94.9969 35.4731C95.8715 35.5314 100.011 36.1371 101.201 36.3817C101.539 36.4516 113.959 38.9328 120.594 39.6783C126.892 40.3889 131.358 40.3306 140.198 40.2258C144.956 40.1675 150.413 40.0976 157.48 39.4919C163.918 38.9328 172.279 37.8844 182.017 35.7527L182.005 35.7411Z" fill="#E1DBCF"/>
<path fill-rule="evenodd" clip-rule="evenodd" d="M189.818 176.503C190.448 176.387 191.066 176.27 191.684 176.154C198.623 175.455 205.573 174.756 212.512 174.08C215.112 173.486 215.346 173.137 216.279 170.632C216.908 169.129 217.538 167.615 218.179 166.112C218.541 165.763 218.902 165.413 219.264 165.076C223.52 165.355 226.203 167.196 227.52 171.704C228.348 184.68 223.066 198.344 208.267 198.344C199.672 195.024 190.226 186.288 189.807 176.515L189.818 176.503Z" fill="#A9A49B"/>
<path fill-rule="evenodd" clip-rule="evenodd" d="M188.92 78.9342C187.474 78.41 185.095 77.3383 182.775 75.1833C180.384 72.9701 179.124 70.5938 178.506 69.1843C180.489 69.3241 182.46 69.4639 184.442 69.6036C184.734 68.8931 185.025 68.1825 185.34 67.4719C185.947 65.6548 186.786 62.9406 187.614 59.5625C188.605 55.5205 188.745 53.8897 190.168 53.1208C191.964 52.154 194.938 53.0742 196.011 54.8215C197.328 56.9882 193.737 66.5983 192.909 69.3241C192.151 71.8285 189.387 78.2702 188.932 78.9342H188.92Z" fill="#A9A49B"/>
<path fill-rule="evenodd" clip-rule="evenodd" d="M189.667 173.94C189.387 170.271 189.154 167.231 188.932 164.272C198.191 164.132 207.217 163.992 216.325 163.853C215.346 166.241 214.366 168.617 213.2 171.471C205.76 172.251 197.888 173.078 189.667 173.94Z" fill="#C6BEB3"/>
<path fill-rule="evenodd" clip-rule="evenodd" d="M185.9 52.2703C184.862 57.0696 183.836 61.8688 182.763 66.8311C180.874 66.668 179.148 66.505 177.305 66.3535C175.486 61.9271 174.716 57.4307 174.763 52.8178C177.212 51.8859 182.693 51.6879 185.923 52.2703H185.911H185.9Z" fill="#C6BEB3"/>
<path fill-rule="evenodd" clip-rule="evenodd" d="M124.746 146.1C125.411 145.553 125.935 145.133 126.449 144.714C127.486 143.864 128.443 143.992 129.422 144.854C130.752 146.03 132.163 147.125 133.446 148.337C134.67 149.478 135.929 150.131 137.644 149.478C139.416 148.791 140.909 149.303 142.052 150.818C143.265 152.449 144.711 152.926 146.693 152.099C148.454 151.365 150.005 151.971 150.996 153.602C152.104 155.419 153.235 157.271 152.081 159.496C151.37 160.894 150.005 161.069 148.664 161.15C145.562 161.36 142.448 161.698 139.346 161.593C131.918 161.36 124.501 160.94 117.084 160.521C116 160.451 114.95 159.974 113.877 159.694C112.373 159.298 111.627 158.331 111.673 156.794C111.72 154.732 111.113 152.973 109.901 151.249C108.559 149.35 108.968 148.057 110.484 146.205C111.755 144.667 112.839 142.978 114.064 141.406C116.058 138.796 117.749 138.668 120.035 141.033C121.574 142.606 123.032 144.271 124.734 146.112V146.088L124.746 146.1ZM113.854 157.469C115.335 157.842 116.594 158.389 117.877 158.471C125.166 158.879 132.454 159.228 139.743 159.473C142.728 159.566 145.714 159.403 148.711 159.251C149.364 159.205 150.343 158.832 150.577 158.331C151.288 156.828 148.757 153.637 147.206 154.173C144.326 155.163 142.332 154.242 140.466 152.134C139.999 151.622 138.822 151.272 138.157 151.47C135.556 152.297 133.679 151.342 131.871 149.583C130.553 148.313 129.049 147.242 127.393 145.879C126.414 147.347 125.679 148.441 124.571 150.107C122.297 146.776 120.396 143.386 116.956 141.056C114.705 143.176 113.201 145.751 111.487 148.127C111.195 148.535 111.218 149.618 111.557 149.967C113.422 152.006 113.621 154.522 113.866 157.469H113.854Z" fill="#412E16"/>
<path fill-rule="evenodd" clip-rule="evenodd" d="M134.099 97.77C138.682 97.3041 143.09 97.5603 147.451 99.4591C149.935 100.531 152.827 100.705 155.521 101.311C157.9 101.859 160.314 102.278 162.576 103.105C166.891 104.724 167.533 108.079 164.162 111.247C163.055 112.284 161.667 113.181 160.221 113.635C155.253 115.173 150.238 116.583 145.201 117.817C138.81 119.39 132.629 118.039 126.658 115.79C123.207 114.497 121.073 110.409 121.434 106.658C121.854 102.301 124.361 99.3193 128.489 98.4806C130.332 98.1078 132.233 97.9913 134.099 97.7584V97.77ZM134.169 99.8901C132.303 100.123 130.402 100.24 128.559 100.647C125.166 101.416 122.985 104.27 123.3 107.718C123.556 110.665 124.431 113.309 127.825 114.311C133.189 115.895 138.53 117.375 144.163 116.012C149.34 114.754 154.518 113.507 159.614 111.993C161.095 111.55 162.565 110.42 163.591 109.221C165.13 107.427 164.699 105.947 162.402 105.12C160.221 104.351 157.9 103.979 155.638 103.478C152.722 102.849 149.609 102.697 146.88 101.567C142.705 99.8668 138.542 99.3892 134.157 99.8784L134.169 99.8901Z" fill="#412E16"/>
<path fill-rule="evenodd" clip-rule="evenodd" d="M160.687 182.164C163.101 180.533 164.909 179.252 166.763 178.064C167.801 177.4 168.955 177.225 169.597 178.541C170.145 179.648 169.399 180.359 168.466 180.941C167.101 181.815 165.795 182.805 164.337 183.842C165.037 184.599 165.469 185.088 165.923 185.542C166.763 186.393 167.428 187.313 166.355 188.385C165.422 189.328 164.536 188.746 163.719 188.105C162.95 187.511 162.168 186.894 161.305 186.206C160.116 187.068 159.055 187.872 157.97 188.594C157.107 189.177 155.988 189.643 155.37 188.536C155.09 188.035 155.579 186.928 155.988 186.253C156.361 185.612 157.06 185.17 157.772 184.494C156.839 183.632 155.918 182.863 155.101 182.013C154.588 181.454 153.982 180.813 153.819 180.126C153.679 179.508 153.97 178.646 154.378 178.145C154.542 177.936 155.638 178.192 156.093 178.518C157.679 179.66 159.195 180.929 160.699 182.129V182.153L160.687 182.164Z" fill="#DE2519"/>
<path fill-rule="evenodd" clip-rule="evenodd" d="M89.1544 164.796C90.2156 162.583 91.3002 160.952 93.8424 160.346C94.822 163.608 95.7433 166.741 96.7345 170.05C98.2622 169.747 99.7199 169.456 101.131 169.176C102.402 172.228 101.527 174.534 98.8686 175.373C97.5042 175.804 96.0931 176.095 94.7054 176.503C91.7783 177.377 90.892 176.899 89.5976 173.486C91.3235 172.694 93.0844 171.878 95.2302 170.912C94.6587 169.246 94.5071 167.382 93.5042 166.334C92.5946 165.39 90.7637 165.32 89.1428 164.796H89.1544ZM99.3701 171.902C96.513 172.368 94.1573 173.323 92.5596 174.674C96.8628 174.336 98.5071 173.672 99.3701 171.902Z" fill="#412E16"/>
<path fill-rule="evenodd" clip-rule="evenodd" d="M135.498 173.87C134.425 173.731 133.329 173.591 131.696 173.393C132.862 174.616 134.122 174.779 135.498 173.87Z" fill="#412E16"/>
<path fill-rule="evenodd" clip-rule="evenodd" d="M130.437 125.517C132.816 125.377 134.402 126.857 134.46 129.256C134.507 131.167 132.804 132.867 130.647 133.054C128.373 133.24 126.53 131.644 126.46 129.396C126.379 127.148 127.895 125.668 130.437 125.517ZM131.346 127.823C130.145 128.161 128.583 128.091 128.746 129.932C128.793 130.328 129.877 130.922 130.472 130.91C131.696 130.887 131.941 129.932 131.323 127.812H131.335L131.346 127.823Z" fill="#412E16"/>
<path fill-rule="evenodd" clip-rule="evenodd" d="M153.049 140.276C152.419 138.016 153.352 136.839 155.964 136.606C155.824 139.134 155.626 139.379 153.049 140.276Z" fill="#412E16"/>
<path fill-rule="evenodd" clip-rule="evenodd" d="M173.165 142.209C173.025 141.103 172.815 140.008 172.792 138.901C172.792 138.633 173.329 138.179 173.655 138.132C174.005 138.086 174.588 138.319 174.763 138.61C175.556 140.008 175.299 141.231 174.215 142.233C173.865 142.233 173.515 142.221 173.165 142.209Z" fill="#412E16"/>
<path fill-rule="evenodd" clip-rule="evenodd" d="M162.845 119.355C163.696 118.039 164.944 118.306 166.052 118.504C166.413 118.574 166.821 119.192 166.926 119.623C166.985 119.844 166.483 120.45 166.157 120.496C164.886 120.729 163.603 120.823 162.833 119.343L162.845 119.355Z" fill="#412E16"/>
<path fill-rule="evenodd" clip-rule="evenodd" d="M112.723 124.166C113.154 127.148 112.653 127.684 109.877 127.392C110.18 126.227 111.137 125.156 112.723 124.166Z" fill="#412E16"/>
<path fill-rule="evenodd" clip-rule="evenodd" d="M164.186 130.596C163.719 131.388 163.533 132.11 163.078 132.378C162.273 132.832 161.305 133.03 160.396 133.252C160.314 133.263 159.929 132.727 159.953 132.46C160.081 131.073 161.2 130.736 162.285 130.479C162.763 130.363 163.323 130.537 164.186 130.596Z" fill="#412E16"/>
<path fill-rule="evenodd" clip-rule="evenodd" d="M161.189 169.898C161.853 171.331 162.437 172.041 162.437 172.74C162.437 173.276 161.702 173.812 161.305 174.348C160.827 173.707 160.104 173.125 159.953 172.414C159.836 171.913 160.501 171.238 161.2 169.886L161.189 169.898Z" fill="#412E16"/>
<path fill-rule="evenodd" clip-rule="evenodd" d="M163.183 157.411C162.378 158.354 161.748 159.158 161.014 159.845C160.944 159.915 160.011 159.391 159.883 159.007C159.521 157.877 160.641 156.188 161.632 156.316C162.063 156.374 162.437 156.863 163.195 157.399H163.183V157.411Z" fill="#412E16"/>
<path fill-rule="evenodd" clip-rule="evenodd" d="M148.699 141.266C147.859 143.432 146.53 143.386 145.294 143.106C144.862 143.013 144.314 142.186 144.326 141.708C144.326 141.359 145.131 140.742 145.609 140.73C146.518 140.707 147.44 141.021 148.699 141.254V141.266Z" fill="#412E16"/>
<path fill-rule="evenodd" clip-rule="evenodd" d="M168.804 131.702C170.028 131.9 171.043 131.97 171.964 132.273C172.256 132.366 172.582 133.24 172.454 133.566C172.302 133.927 171.603 134.37 171.229 134.3C170.215 134.114 169.025 133.951 168.815 131.691L168.804 131.702Z" fill="#412E16"/>
<path fill-rule="evenodd" clip-rule="evenodd" d="M170.04 149.548C169.993 149.059 169.842 148.651 169.982 148.465C170.635 147.521 171.183 146.263 172.687 146.706C172.955 146.787 173.305 147.463 173.212 147.754C172.745 149.327 171.638 149.828 170.028 149.548H170.04Z" fill="#412E16"/>
<path fill-rule="evenodd" clip-rule="evenodd" d="M115.475 176.014C113.586 175.501 113.656 173.894 113.154 172.461C115.836 172.764 116.175 173.288 115.475 176.014Z" fill="#412E16"/>
<path fill-rule="evenodd" clip-rule="evenodd" d="M179.556 109.162C180.769 111.76 180.477 112.482 178.005 113.216C177.585 111.585 177.865 110.292 179.556 109.162Z" fill="#412E16"/>
<path fill-rule="evenodd" clip-rule="evenodd" d="M113.492 116.466C114.962 116.547 115.487 117.363 115.137 118.446C114.973 118.994 114.157 119.343 113.632 119.774C113.364 119.25 112.921 118.714 112.898 118.19C112.886 117.619 113.294 117.037 113.481 116.478H113.492V116.466Z" fill="#412E16"/>
<path fill-rule="evenodd" clip-rule="evenodd" d="M114.705 183.282C113.317 185.041 112.163 185.402 110.39 184.133C111.65 182.77 112.769 182.351 114.705 183.282Z" fill="#412E16"/>
<path fill-rule="evenodd" clip-rule="evenodd" d="M156.477 121.37C154.996 122.989 153.923 123.362 152.466 122.057C153.457 120.24 154.6 120.205 156.477 121.37Z" fill="#412E16"/>
<path fill-rule="evenodd" clip-rule="evenodd" d="M107.02 166.578C106.355 164.959 105.901 163.899 105.271 162.396C108.408 163.748 108.618 164.167 107.02 166.578Z" fill="#412E16"/>
<path fill-rule="evenodd" clip-rule="evenodd" d="M105.446 149.269C105.936 149.478 106.064 149.502 106.134 149.571C106.974 150.364 107.557 151.26 106.787 152.379C106.635 152.612 105.854 152.763 105.714 152.612C104.781 151.622 104.326 150.527 105.446 149.269Z" fill="#412E16"/>
<path fill-rule="evenodd" clip-rule="evenodd" d="M111.055 109.046C112.851 109.745 113.341 110.84 113.247 112.214C113.236 112.447 112.536 112.878 112.303 112.808C110.519 112.191 110.74 110.781 111.055 109.046Z" fill="#412E16"/>
<path fill-rule="evenodd" clip-rule="evenodd" d="M179.882 105.784C177.982 105.435 176.897 104.806 176.827 103.035C179.183 102.697 179.299 102.802 179.882 105.784Z" fill="#412E16"/>
<path fill-rule="evenodd" clip-rule="evenodd" d="M114.53 180.254C114.752 179.264 114.973 178.215 115.253 176.981C117.003 177.54 117.224 178.518 116.874 179.613C116.583 180.522 115.906 181.023 114.53 180.242V180.254Z" fill="#412E16"/>
<path fill-rule="evenodd" clip-rule="evenodd" d="M150.425 92.3416C150.647 91.9339 150.658 91.7941 150.752 91.7592C152.046 90.9903 152.967 91.5611 153.679 92.6561C153.795 92.8192 153.609 93.3783 153.422 93.4832C152.069 94.1937 151.241 93.355 150.425 92.3649V92.3416Z" fill="#412E16"/>
<path fill-rule="evenodd" clip-rule="evenodd" d="M119.731 94.0191C118.822 94.6481 117.912 95.2772 116.758 96.0809C116.641 93.2387 116.699 93.1804 119.347 93.3318C119.475 93.5532 119.603 93.7978 119.72 94.0191H119.731Z" fill="#412E16"/>
<path fill-rule="evenodd" clip-rule="evenodd" d="M160.921 166.45C159.626 166.24 158.775 165.67 158.95 164.33C158.996 164.027 160.104 163.503 160.442 163.678C161.632 164.26 161.853 165.227 160.921 166.45Z" fill="#412E16"/>
<path fill-rule="evenodd" clip-rule="evenodd" d="M108.629 167.65C109.329 167.487 109.889 167.161 110.239 167.312C110.869 167.603 111.393 168.151 111.895 168.663C111.976 168.745 111.615 169.456 111.545 169.444C110.845 169.327 110.134 169.211 109.516 168.92C109.189 168.768 109.038 168.267 108.641 167.65H108.629Z" fill="#412E16"/>
<path fill-rule="evenodd" clip-rule="evenodd" d="M113.143 104.678C112.198 103.058 112.431 101.789 113.831 100.857C114.868 102.243 113.971 103.163 113.143 104.678Z" fill="#412E16"/>
<path fill-rule="evenodd" clip-rule="evenodd" d="M164.326 154.639C164.944 152.938 165.912 152.437 167.229 152.705C167.498 152.763 167.871 153.742 167.719 153.986C166.985 155.198 165.853 155.186 164.326 154.662V154.639Z" fill="#412E16"/>
<path fill-rule="evenodd" clip-rule="evenodd" d="M123.696 89.616C125.352 89.4878 126.414 89.4063 127.685 89.3131C126.46 91.5962 126.11 91.6428 123.696 89.616Z" fill="#412E16"/>
<path fill-rule="evenodd" clip-rule="evenodd" d="M106.157 155.186C107.242 156.875 107.37 157.958 105.714 158.925C104.455 157.562 104.595 156.479 106.157 155.186Z" fill="#412E16"/>
<path fill-rule="evenodd" clip-rule="evenodd" d="M107.09 132.483C106.472 131.865 105.912 131.423 105.959 131.341C106.367 130.677 106.857 130.06 107.393 129.501C107.44 129.454 108.338 130.048 108.303 130.13C108.011 130.852 107.603 131.528 107.09 132.483Z" fill="#412E16"/>
<path fill-rule="evenodd" clip-rule="evenodd" d="M147.673 125.505C147.661 125.983 147.719 126.227 147.626 126.379C147.125 127.229 146.553 128.08 145.387 127.52C145.154 127.404 144.967 126.728 145.061 126.414C145.469 125.167 146.285 124.736 147.661 125.494L147.673 125.505Z" fill="#412E16"/>
<path fill-rule="evenodd" clip-rule="evenodd" d="M136.606 89.0916C135.463 89.9652 134.355 90.2914 133.352 88.9402C134.623 87.1579 135.626 88.0782 136.606 89.0916Z" fill="#412E16"/>
<path fill-rule="evenodd" clip-rule="evenodd" d="M175.264 97.5718C174.401 98.0844 173.865 98.6435 173.562 98.5387C172.932 98.3174 172.431 97.7466 171.871 97.3156C172.267 96.9894 172.699 96.372 173.025 96.4186C173.667 96.5351 174.25 97.0127 175.264 97.5602V97.5718Z" fill="#412E16"/>
<path fill-rule="evenodd" clip-rule="evenodd" d="M142.46 133.403C143.008 134.253 143.638 134.789 143.568 135.232C143.498 135.803 142.88 136.304 142.495 136.839C142.157 136.35 141.585 135.873 141.562 135.372C141.515 134.871 142.029 134.323 142.472 133.403H142.46Z" fill="#412E16"/>
<path fill-rule="evenodd" clip-rule="evenodd" d="M171.976 118.621C172.267 118.213 172.372 117.922 172.524 117.899C173.294 117.736 174.063 117.631 174.845 117.526C174.845 117.934 174.973 118.656 174.856 118.679C174.122 118.912 173.317 119.04 172.536 119.122C172.396 119.134 172.232 118.854 171.976 118.621Z" fill="#412E16"/>
<path fill-rule="evenodd" clip-rule="evenodd" d="M103.697 146.019C103.568 145.087 103.428 144.166 103.288 143.13C104.921 142.908 105.283 143.887 105.388 144.83C105.434 145.261 104.828 145.751 104.536 146.228C104.256 146.158 103.976 146.088 103.708 146.007H103.697V146.019Z" fill="#412E16"/>
<path fill-rule="evenodd" clip-rule="evenodd" d="M107.02 180.895C108.233 181.232 109.073 181.768 109.131 183.201C107.428 183.166 106.729 182.397 107.02 180.895Z" fill="#412E16"/>
<path fill-rule="evenodd" clip-rule="evenodd" d="M105.224 176.107C105.796 176.678 106.495 177.12 106.425 177.365C106.285 177.901 105.842 178.425 105.364 178.716C105.213 178.809 104.256 178.157 104.28 177.889C104.338 177.353 104.793 176.876 105.224 176.107Z" fill="#412E16"/>
<path fill-rule="evenodd" clip-rule="evenodd" d="M120.676 134.288C119.825 134.754 119.253 135.302 118.833 135.209C118.355 135.092 118.029 134.382 117.621 133.939C118.087 133.613 118.554 133.03 118.985 133.065C119.463 133.089 119.895 133.694 120.664 134.277H120.676V134.288Z" fill="#412E16"/>
<path fill-rule="evenodd" clip-rule="evenodd" d="M162.437 94.4035C163.999 93.3551 164.746 93.7628 165.387 95.0442C164.162 96.1741 163.428 95.5684 162.437 94.4035Z" fill="#412E16"/>
<path fill-rule="evenodd" clip-rule="evenodd" d="M105.434 136.711C104.793 137.212 104.35 137.573 103.883 137.923C103.65 137.597 103.125 137.131 103.195 137.003C103.487 136.513 103.953 136.106 104.42 135.756C104.466 135.71 104.933 136.245 105.411 136.7H105.423L105.434 136.711Z" fill="#412E16"/>
<path fill-rule="evenodd" clip-rule="evenodd" d="M143.393 91.7825C142.822 91.1185 142.425 90.7341 142.18 90.2798C142.134 90.2099 142.798 89.546 142.938 89.5925C143.37 89.7789 143.79 90.1167 144.046 90.5244C144.139 90.6759 143.755 91.1418 143.416 91.7825H143.405H143.393Z" fill="#412E16"/>
<path fill-rule="evenodd" clip-rule="evenodd" d="M113.854 157.469C113.621 154.522 113.434 152.006 111.545 149.967C111.207 149.618 111.183 148.535 111.475 148.127C113.189 145.739 114.705 143.165 116.944 141.056C120.384 143.386 122.274 146.764 124.559 150.107C125.667 148.453 126.402 147.347 127.381 145.879C129.061 147.242 130.565 148.325 131.86 149.583C133.655 151.342 135.545 152.274 138.145 151.47C138.798 151.26 139.976 151.622 140.454 152.146C142.32 154.254 144.326 155.174 147.195 154.184C148.746 153.637 151.276 156.829 150.565 158.343C150.332 158.844 149.352 159.216 148.699 159.263C145.725 159.426 142.728 159.601 139.731 159.484C132.443 159.24 125.154 158.89 117.866 158.483C116.583 158.413 115.323 157.865 113.842 157.481H113.854V157.469Z" fill="#C6BEB3"/>
<path fill-rule="evenodd" clip-rule="evenodd" d="M134.157 99.89C138.542 99.4007 142.705 99.8783 146.88 101.579C149.597 102.697 152.699 102.849 155.638 103.489C157.9 103.979 160.233 104.351 162.402 105.132C164.687 105.936 165.119 107.415 163.591 109.232C162.553 110.432 161.095 111.574 159.614 112.005C154.518 113.519 149.34 114.765 144.163 116.023C138.53 117.386 133.189 115.907 127.825 114.323C124.431 113.321 123.556 110.665 123.3 107.73C122.997 104.27 125.189 101.428 128.559 100.659C130.39 100.239 132.303 100.146 134.169 99.9016L134.157 99.89ZM140.186 102.732C137.201 104.922 137.329 105.691 141.189 110.514C142.169 107.823 141.201 105.411 140.186 102.732ZM134.437 110.444C135.02 108.032 137.177 105.54 134.425 103.047C131.253 105.679 133.586 108.056 134.437 110.444ZM145.644 103.909C143.008 105.889 142.973 107.671 145.48 111.247C146.215 108.755 146.88 106.53 145.644 103.909Z" fill="#C6BEB3"/>
<path fill-rule="evenodd" clip-rule="evenodd" d="M99.3701 171.902C98.5071 173.672 96.8745 174.348 92.5597 174.674C94.169 173.323 96.513 172.356 99.3701 171.902Z" fill="white"/>
<path fill-rule="evenodd" clip-rule="evenodd" d="M135.498 173.87C134.134 174.779 132.862 174.628 131.696 173.393C133.329 173.602 134.413 173.731 135.498 173.87Z" fill="white"/>
<path fill-rule="evenodd" clip-rule="evenodd" d="M131.346 127.823C131.941 129.943 131.708 130.887 130.495 130.922C129.9 130.922 128.793 130.339 128.769 129.943C128.606 128.091 130.169 128.173 131.37 127.835H131.358L131.346 127.823Z" fill="white"/>
<path fill-rule="evenodd" clip-rule="evenodd" d="M140.198 102.732C141.236 105.423 142.18 107.823 141.201 110.514C137.317 105.691 137.189 104.911 140.198 102.732Z" fill="#412E16"/>
<path fill-rule="evenodd" clip-rule="evenodd" d="M134.437 110.455C133.574 108.067 131.253 105.703 134.425 103.058C137.189 105.54 135.043 108.032 134.437 110.455Z" fill="#412E16"/>
<path fill-rule="evenodd" clip-rule="evenodd" d="M145.655 103.909C146.88 106.53 146.227 108.743 145.492 111.247C142.997 107.683 143.02 105.889 145.655 103.909Z" fill="#412E16"/>
</g>
<defs>
<clipPath id="clip0_685_2377">
<rect width="311" height="237" fill="white"/>
</clipPath>
<clipPath id="clip1_685_2377">
<rect width="150.797" height="174.392" fill="white" transform="translate(80 31)"/>
</clipPath>
</defs>
</svg>
