<svg width="110" height="96" viewBox="0 0 110 96" fill="none" xmlns="http://www.w3.org/2000/svg">
<g clip-path="url(#clip0_219_3861)">
<path d="M25.2461 13.7392L29.3909 24.3442L53.6682 29.9357L79.8393 19.8361L88.0702 8.59788L90.8159 7.51733L92.256 14.0558L83.4367 33.523L48.7741 51.7151L31.5657 49.3332L18.3411 30.0984L16.0873 14.172L25.2461 13.7392Z" fill="#EDB266" stroke="#EDB266" stroke-width="5" stroke-miterlimit="10"/>
<path d="M92.455 13.6172L83.4366 33.523L40.5489 56.0315L16.014 50.4022L7.61915 40.5582L1.17078 44.9501L12.1239 65.6954L37.4228 78.9698L67.8089 67.017L95.7216 40.6657L96.9042 14.8546L92.455 13.6172Z" fill="#EDB266" stroke="#EDB266" stroke-width="5" stroke-miterlimit="10"/>
<path d="M96.8837 15.2729L95.7217 40.6657L67.809 67.017L40.3294 75.58L26.8209 72.3907L18.3763 64.7949L10.8741 71.0952L25.3545 90.4753L61.8465 95.0821L97.3433 81.8658L109.098 59.0233V38.827L102.346 13.8205L100.127 13.6637L96.8837 15.2729Z" fill="#EDB266" stroke="#EDB266" stroke-width="5" stroke-miterlimit="10"/>
<path d="M88.1786 7.84557L90.8832 10.6893L91.6648 13.9193L97.6419 15.4152L100.136 13.9077L102.791 14.1952L102.41 10.0996L89.1094 5.15292L88.1786 7.84557Z" fill="#EDB266" stroke="#EDB266" stroke-width="4.63" stroke-miterlimit="10"/>
<path d="M89.9202 4.59813L92.3848 8.8477L97.5921 11.247L102.062 9.14688L101.213 4.45L95.9646 1.05441L89.9202 4.59813Z" fill="#EDB266" stroke="#EDB266" stroke-width="5" stroke-miterlimit="10"/>
</g>
<defs>
<clipPath id="clip0_219_3861">
<rect width="110" height="96" fill="white"/>
</clipPath>
</defs>
</svg>
