<svg width="65" height="71" viewBox="0 0 65 71" fill="none" xmlns="http://www.w3.org/2000/svg">
<path d="M7.74658 15.0158L19.5735 27.9969L27.0206 8.55554L7.74658 15.0158Z" fill="#EDB266"/>
<path d="M45.853 19.1908L27.0205 8.55545L46.583 2L45.853 19.1908Z" fill="#EDB266"/>
<path d="M46.5825 2L63.7012 13.2095L45.8525 19.1908L46.5825 2Z" fill="#EDB266"/>
<path d="M7.74695 15.0159L1.57812 34.0273L19.5739 27.9969L7.74695 15.0159Z" fill="#EDB266"/>
<path d="M27.0203 8.55554L45.8528 19.1908L19.5732 27.9969L27.0203 8.55554Z" fill="#EDB266"/>
<path d="M19.5732 27.9968L47.8552 68.7809L45.8528 19.1908L19.5732 27.9968Z" fill="#EDB266"/>
<path d="M45.8525 19.1906L63.7012 13.2094L47.855 68.7807L45.8525 19.1906Z" fill="#EDB266"/>
<path d="M19.5739 27.9968L1.57812 34.0272L47.8559 68.7809L19.5739 27.9968Z" fill="#EDB266"/>
<path d="M1.57812 34.0271L47.8559 68.7808L63.7021 13.2095L46.5834 2L7.74695 15.0157L1.57812 34.0271Z" stroke="#EDB266" stroke-width="2.21183" stroke-miterlimit="10"/>
</svg>
