<svg width="51" height="164" viewBox="0 0 51 164" fill="none" xmlns="http://www.w3.org/2000/svg">
<path d="M1.39019 155.141L2.93428 64.1265L9.56973 52.8255L16.758 49.6074L19.7356 22.4577L16.4793 21.7875L16.9595 13.532L25.6679 10.9708L33.9185 12.3227L34.0897 20.3639L31.6936 21.4366L33.0613 49.0465L40.6539 51.479L48.2246 57.8234L49.8522 155.628L38.9475 162.525L14.3887 162.602L1.39019 155.141Z" fill="#EDB266"/>
<path d="M49.8516 155.629L38.5766 150.784L26.4189 148.542L11.6314 150.198L1.38965 155.138L14.3881 162.599C14.3881 162.599 38.5111 162.516 38.9469 162.519C39.3828 162.521 49.8516 155.625 49.8516 155.625L49.8516 155.629Z" fill="#EDB266"/>
<path d="M16.4794 21.7873L19.7357 22.4575L31.6937 21.4364L34.0898 20.3637L33.9186 12.3225L25.668 10.9706L16.9596 13.5318L16.4794 21.7873Z" fill="#EDB266"/>
<path d="M27.3083 28.3663L29.9162 28.3808L31.5322 50.5581L39.9899 53.8654L46.0472 58.6794L47.4477 119.106L44.413 117.783L42.993 60.8363L37.5823 56.6761L28.8854 52.9929L27.3083 28.3663Z" fill="#EDB266"/>
<path d="M15.0058 52.2034L14.5554 54.8089L12.3735 56.5366L7.32825 64.9827L6.24105 142.564L3.40848 144.068L4.77045 65.0188L10.8644 54.5721L15.0058 52.2034Z" fill="#EDB266"/>
<path d="M44.4079 157.555L46.1575 155.825L38.3531 152.305L26.627 150.5L12.0586 151.942L5.0835 155.38L14.3989 160.866L38.0823 162.084L35.9139 160.768L14.6278 158.909L8.99235 156.271L12.914 154.553L26.8225 154.197L37.4661 155.343L44.4079 157.555Z" fill="#EDB266"/>
<path d="M17.7917 16.6921L17.8021 14.5182L25.6381 12.3898L33.0212 13.2992L25.7286 13.597L17.7917 16.6921Z" fill="#EDB266"/>
<path d="M23.8741 137.665L18.9987 115.687L16.8952 103.07L11.3545 83.4802L9.91397 68.91L18.5889 72.0024L24.4525 73.1213L28.3718 71.8391L27.5393 86.4074L29.9647 97.4925L36.6188 112.524L44.1482 126.26L40.47 123.414L32.6316 125.978L25.8482 134.416L23.8741 137.665Z" fill="#EDB266"/>
<path d="M26.9653 133.025L29.5262 137.263L31.7195 133.797L36.0463 130.815L38.6905 130.794L34.0623 125.509L32.6314 125.978L26.9653 133.025Z" fill="#EDB266"/>
<path d="M29.5263 137.262L31.484 137.92L33.6604 136.198L31.7196 133.797L29.5263 137.262Z" fill="#EDB266"/>
<path d="M13.1497 70.0629L13.4048 66.3216L24.27 66.8181L28.3719 71.8392L24.4527 73.1213L18.5891 72.0024L13.1497 70.0629Z" fill="#EDB266"/>
<path d="M24.2697 66.8177L29.4856 66.8469L32.7298 69.6892L37.9366 71.0241L32.4627 78.1638L30.0302 85.7563L28.9793 92.9892L27.5392 86.407L28.3716 71.8388L24.2697 66.8177Z" fill="#EDB266"/>
<path d="M26.9662 133.024L25.8489 134.416L23.8747 137.665L24.5321 140.905L28.6305 142.035L34.1798 139.123L39.961 133.407L38.6914 130.793L36.0472 130.814L31.7204 133.796L31.4794 137.925L29.5271 137.262L26.9662 133.024Z" fill="#EDB266"/>
<path d="M20.4445 12.2459L30.2286 11.2145L31.1561 1.22343L18.0095 1.91547L20.4445 12.2459Z" fill="#EDB266"/>
<path d="M20.4451 12.2456L21.3075 20.0366L30.1782 20.342L30.2292 11.2141L20.4451 12.2456Z" fill="#EDB266"/>
<path d="M20.447 12.2454L21.3095 20.0365L30.1801 20.3418L30.2311 11.214" stroke="#EDB266" stroke-width="1.01885" stroke-miterlimit="10"/>
<path d="M20.4469 12.2456L18.0119 1.9151L31.1586 1.22306L30.231 11.2141" stroke="#EDB266" stroke-width="1.01885" stroke-miterlimit="10"/>
<path d="M24.272 66.8177L29.4879 66.8468L32.7321 69.6891L37.9389 71.024L32.465 78.1637L30.148 85.4021L29.0206 92.4706" stroke="#EDB266" stroke-width="1.01885" stroke-miterlimit="10"/>
<path d="M23.8761 137.664L24.5334 140.904L28.6319 142.035L34.1812 139.123L39.9623 133.406L38.6927 130.793" stroke="#EDB266" stroke-width="1.01885" stroke-miterlimit="10"/>
<path d="M44.1497 126.26L36.6202 112.524L29.9662 97.4925L27.5408 86.4074L28.3732 71.8391L24.454 73.1213L18.5904 72.0024L13.151 70.0628L9.91544 68.91L11.356 83.4802L16.8967 103.07L19.0002 115.687L23.8755 137.665L25.8497 134.416L26.967 133.025L32.633 125.978L34.064 125.508L40.4715 123.414L44.1497 126.26Z" stroke="#EDB266" stroke-width="1.01885" stroke-miterlimit="10"/>
<path d="M16.9616 13.5317L20.4467 12.2453L30.2308 11.2139L33.9205 12.3224L34.0917 20.3636L31.6956 21.4363L19.7377 22.4574L16.4814 21.7872L16.9616 13.5317Z" stroke="#EDB266" stroke-width="1.27357" stroke-miterlimit="10"/>
<path d="M31.6954 21.4366L33.0631 49.0465L40.6557 51.479L48.2264 57.8234L49.854 155.628L38.9493 162.525L14.3905 162.602L1.39201 155.141L2.93609 64.1265L9.57154 52.8255L16.7598 49.6074L19.7374 22.4577" stroke="#EDB266" stroke-width="1.27357" stroke-miterlimit="10"/>
<path d="M1.39209 155.141L11.6339 150.2L26.4214 148.545L38.5809 150.785L49.8541 155.628" stroke="#EDB266" stroke-width="1.27357" stroke-miterlimit="10"/>
<path d="M13.1517 70.0624L13.4067 66.3211L24.2719 66.8176L28.3739 71.8387" stroke="#EDB266" stroke-width="1.01885" stroke-miterlimit="10"/>
<path d="M18.5906 72.0022L18.3879 69.6091L22.3004 69.1969L22.729 70.5033" stroke="#EDB266" stroke-width="1.01885" stroke-miterlimit="10"/>
<path d="M26.9671 133.024L29.528 137.262L31.7213 133.797L36.0481 130.815L38.6922 130.794L34.0641 125.508" stroke="#EDB266" stroke-width="1.01885" stroke-miterlimit="10"/>
<path d="M29.5282 137.262L31.486 137.92L31.7215 133.797" stroke="#EDB266" stroke-width="1.01885" stroke-miterlimit="10"/>
</svg>
