<svg width="170" height="39" viewBox="0 0 170 39" fill="none" xmlns="http://www.w3.org/2000/svg">
<path d="M157.957 27.0349C158.866 27.8449 159.77 28.6531 160.681 29.4591C161.926 29.0365 163.169 28.6081 164.414 28.1855L166.118 24.6481L167.226 21.397L167.162 17.4778L165.498 14.2508C165.076 13.7054 164.349 12.9105 163.246 12.2201C162.11 11.5151 161.041 11.2184 160.36 11.0834C159.516 11.4024 158.672 11.7215 157.828 12.0406" fill="#EDB266"/>
<path d="M157.957 27.0349C158.866 27.8449 159.77 28.6531 160.681 29.4591C161.926 29.0365 163.169 28.6081 164.414 28.1855L166.118 24.6481L167.226 21.397L167.162 17.4778L165.498 14.2508C165.076 13.7054 164.349 12.9105 163.246 12.2201C162.11 11.5151 161.041 11.2184 160.36 11.0834C159.516 11.4024 158.672 11.7215 157.828 12.0406" stroke="#EDB266" stroke-width="1.63388" stroke-miterlimit="10"/>
<path d="M160.903 23.2429C162.488 23.3865 164.073 23.5301 165.662 23.6755C165.999 22.9129 166.338 22.1462 166.675 21.3836C166.676 20.0764 166.678 18.7691 166.674 17.4641C166.092 16.5553 165.515 15.6443 164.933 14.7355C163.954 14.7218 162.973 14.7122 161.994 14.6985" fill="#EDB266"/>
<path d="M129.83 11.8829C138.498 12.0228 147.161 12.165 155.829 12.3049C156.138 12.3094 158.225 12.3419 158.961 12.3565L163.317 14.4566L165.197 17.9897L164.861 21.9887L163.078 25.6889L160.858 26.9863C160.294 26.9969 159.727 27.0058 159.164 27.0164C149.464 27.1925 139.762 27.3727 130.066 27.5506" fill="#EDB266"/>
<path d="M129.83 11.8829C138.498 12.0228 147.161 12.165 155.829 12.3049C156.138 12.3094 158.225 12.3419 158.961 12.3565L163.317 14.4566L165.197 17.9897L164.861 21.9887L163.078 25.6889L160.858 26.9863C160.294 26.9969 159.727 27.0058 159.164 27.0164C149.464 27.1925 139.762 27.3727 130.066 27.5506" stroke="#EDB266" stroke-width="1.63388" stroke-miterlimit="10"/>
<path d="M120.035 28.8605C121.224 29.9189 122.408 30.9756 123.597 32.034C125.223 31.4791 126.849 30.9242 128.48 30.3671L130.713 25.7421L132.164 21.4892L132.08 16.3642L129.905 12.1449C129.354 11.4344 128.407 10.3888 126.957 9.48795C125.469 8.56481 124.072 8.17739 123.182 8.00056C122.079 8.41991 120.972 8.83744 119.869 9.2568" fill="#EDB266"/>
<path d="M120.035 28.8605C121.224 29.9189 122.408 30.9756 123.597 32.034C125.223 31.4791 126.849 30.9242 128.48 30.3671L130.713 25.7421L132.164 21.4892L132.08 16.3642L129.905 12.1449C129.354 11.4344 128.407 10.3888 126.957 9.48795C125.469 8.56481 124.072 8.17739 123.182 8.00056C122.079 8.41991 120.972 8.83744 119.869 9.2568" stroke="#EDB266" stroke-width="1.63388" stroke-miterlimit="10"/>
<path d="M123.3 26.1193C123.989 26.4516 124.678 26.7839 125.361 27.1184C126.719 26.9701 128.078 26.8218 129.438 26.6695C129.876 25.759 130.314 24.8486 130.756 23.9399C131.029 23.1145 131.298 22.2872 131.571 21.4617C131.573 19.7042 131.572 17.9449 131.574 16.1874C130.882 15.1029 130.191 14.0184 129.497 12.938C128.793 12.9716 128.084 13.0033 127.38 13.0369" fill="#EDB266"/>
<path d="M83.2488 9.03831C94.586 9.2231 105.919 9.40604 117.256 9.59083C117.66 9.5998 120.388 9.64247 121.351 9.65867L127.048 12.4068L129.507 17.0266L129.068 22.2575L126.735 27.0935L123.832 28.7929C123.093 28.806 122.354 28.8191 121.615 28.8322C108.928 29.066 96.2426 29.2957 83.5552 29.5294" fill="#EDB266"/>
<path d="M83.2488 9.03831C94.586 9.2231 105.919 9.40604 117.256 9.59083C117.66 9.5998 120.388 9.64247 121.351 9.65867L127.048 12.4068L129.507 17.0266L129.068 22.2575L126.735 27.0935L123.832 28.7929C123.093 28.806 122.354 28.8191 121.615 28.8322C108.928 29.066 96.2426 29.2957 83.5552 29.5294" stroke="#EDB266" stroke-width="1.63388" stroke-miterlimit="10"/>
<path d="M73.2689 5.12951C74.9914 4.8317 76.7139 4.5339 78.4382 4.23208L83.1344 9.61138L84.7877 15.1392L85.3303 19.8426L84.463 25.6835L82.562 29.8679C81.0927 31.5209 79.6193 33.1721 78.1482 34.8292C76.6763 34.8532 75.2043 34.8773 73.7265 34.9036C72.9258 34.5398 72.1252 34.1761 71.3286 33.8142" fill="#EDB266"/>
<path d="M73.2689 5.12951C74.9914 4.8317 76.7139 4.5339 78.4382 4.23208L83.1344 9.61138L84.7877 15.1392L85.3303 19.8426L84.463 25.6835L82.562 29.8679C81.0927 31.5209 79.6193 33.1721 78.1482 34.8292C76.6763 34.8532 75.2043 34.8773 73.7265 34.9036C72.9258 34.5398 72.1252 34.1761 71.3286 33.8142" stroke="#EDB266" stroke-width="1.63388" stroke-miterlimit="10"/>
<path d="M83.899 25.7613C84.2049 24.4469 84.4598 22.9883 84.6049 21.3974C84.6542 20.8723 84.6881 20.3596 84.7048 19.8634C84.7048 19.8634 84.5274 18.2132 84.2519 15.6464C83.8238 14.11 83.3975 12.5695 82.9694 11.0331C78.4624 10.9428 73.9496 10.8546 69.4426 10.7643C68.2025 12.0516 66.9624 13.3388 65.7184 14.6242C65.7094 18.3408 65.6964 22.0555 65.6874 25.772C66.6594 28.3548 67.6292 30.9319 68.6012 33.5147C70.1319 31.0321 71.6604 28.5436 73.1911 26.061C76.7598 25.9625 80.3303 25.8599 83.899 25.7613Z" fill="#EDB266"/>
<path d="M16.0281 3.89023C16.0281 3.89023 75.8168 5.41971 75.7306 6.27194C75.6444 7.12416 78.6495 9.6763 78.6495 9.6763L81.7715 15.2512L80.9942 23.5117L77.2689 31.7118L74.5915 33.6735L11.9798 36.4134" fill="#EDB266"/>
<path d="M16.0281 3.89023C16.0281 3.89023 75.8168 5.41971 75.7306 6.27194C75.6444 7.12416 78.6495 9.6763 78.6495 9.6763L81.7715 15.2512L80.9942 23.5117L77.2689 31.7118L74.5915 33.6735L11.9798 36.4134" stroke="#EDB266" stroke-width="1.63388" stroke-miterlimit="10"/>
<path d="M126.608 12.8318C124.804 11.9103 123 10.9888 121.195 10.0673C108.614 9.81141 96.0342 9.5515 83.4529 9.2956C83.8597 10.3767 84.2665 11.4577 84.6756 12.5446C98.6545 12.641 112.629 12.7355 126.608 12.8318Z" fill="#EDB266"/>
<path d="M158.435 12.9169C159.891 13.5056 161.35 14.0961 162.806 14.6847C152.588 14.8047 142.365 14.9228 132.147 15.0428C131.663 14.1304 131.184 13.2198 130.701 12.3074C139.947 12.5112 149.193 12.715 158.435 12.9169Z" fill="#EDB266"/>
<path d="M33.949 26.3911C34.3648 23.4456 34.7767 20.4983 35.1908 17.5568C34.2372 14.7837 33.2877 12.0125 32.336 9.23536C30.0233 7.06078 27.7165 4.884 25.4038 2.70942C23.9001 2.83535 22.3906 2.96346 20.887 3.08939C19.1318 4.39939 17.3784 5.70537 15.6232 7.01536C14.7211 9.23611 13.8132 11.4591 12.9111 13.6798C12.8989 17.8842 12.8867 22.0885 12.8727 26.2969C13.9722 29.2187 15.0718 32.1405 16.1692 35.0564C17.8107 35.8022 19.4563 36.5498 21.0979 37.2955L29.1852 36.8663C29.9628 35.2188 30.7404 33.5712 31.518 31.9237C32.3316 30.0794 33.1412 28.2332 33.949 26.3911Z" fill="#EDB266" stroke="#EDB266" stroke-width="1.63388" stroke-miterlimit="10"/>
<path d="M33.5774 25.4132C33.9431 22.8131 34.3107 20.209 34.6725 17.6072C33.83 15.1558 32.9916 12.7063 32.1491 10.255C27.67 10.2742 23.1891 10.2974 18.714 10.3185C17.4739 11.6057 16.2338 12.893 14.9898 14.1784C14.9808 17.8949 14.9678 21.6096 14.9588 25.3261C15.9308 27.909 16.9006 30.486 17.8726 33.0689C19.2589 32.1969 20.6475 31.3307 22.0338 30.4587C28.1585 30.3538 31.4321 30.2956 31.4321 30.2956C31.4361 30.2974 32.1855 28.5838 33.5774 25.4132Z" fill="#EDB266"/>
<path d="M29.7378 26.2364C29.6085 23.3048 29.4775 20.3774 29.3483 17.4458C28.9705 14.9973 28.5968 12.5506 28.219 10.102C26.0476 8.0546 23.8743 6.01117 21.7028 3.96373C18.393 4.05879 15.085 4.14982 11.7792 4.2467C11.1729 7.59009 10.5665 10.9335 9.95829 14.2809C9.94843 18.2344 9.93677 22.1919 9.92289 26.1436C10.9565 28.8901 11.99 31.6365 13.0236 34.383C12.6776 35.0591 12.3299 35.7392 11.9799 36.4135C16.4081 36.3033 20.8363 36.1931 25.2605 36.0811C25.9924 34.534 26.7222 32.981 27.4542 31.4338C28.2167 29.702 28.9752 27.9682 29.7378 26.2364Z" fill="#EDB266" stroke="#EDB266" stroke-width="1.63388" stroke-miterlimit="10"/>
<path d="M24.0588 26.1611C23.9296 23.2296 23.7985 20.3021 23.6693 17.3705C23.2916 14.922 22.9178 12.4753 22.5401 10.0267C20.3686 7.9793 18.1953 5.93589 16.0239 3.88845C14.6069 4.00529 13.192 4.12798 11.775 4.24482C10.1236 5.476 8.47399 6.70316 6.82659 7.93616C5.97482 10.0248 5.12709 12.1152 4.27533 14.2038C4.26547 18.1573 4.25377 22.1148 4.23989 26.0665C5.27348 28.813 6.30705 31.5594 7.34063 34.3059C8.88564 35.0078 10.4306 35.7097 11.9757 36.4116L19.5815 36.0058C20.3135 34.4587 21.0433 32.9057 21.7753 31.3586C22.5378 29.6267 23.3003 27.8948 24.0588 26.1611Z" fill="#EDB266" stroke="#EDB266" stroke-width="0.544627" stroke-miterlimit="10"/>
<path d="M10.7773 31.4102C10.0481 28.5065 9.31673 25.597 8.58756 22.6932C9.06151 18.8828 9.53548 15.0723 10.0094 11.2618C12.0136 8.80535 14.0197 6.34489 16.0239 3.88845C14.6069 4.00529 13.192 4.12798 11.775 4.24482C10.1236 5.476 8.47399 6.70316 6.82659 7.93616C5.97482 10.0248 5.12709 12.1152 4.27533 14.2038C4.26547 18.1573 4.25377 22.1148 4.23989 26.0665C5.27348 28.813 6.30705 31.5594 7.34063 34.3059C8.88564 35.0078 10.4306 35.7097 11.9757 36.4116L19.5815 36.0058C16.6508 34.4758 13.712 32.9421 10.7773 31.4102Z" fill="#EDB266" stroke="#EDB266" stroke-width="1.63388" stroke-miterlimit="10"/>
<path d="M6.07779 7.94948C5.29887 10.1342 4.52178 12.3148 3.74285 14.4995C3.91115 18.563 4.07726 22.6206 4.24556 26.6841C5.27187 29.0834 6.29816 31.4826 7.32265 33.8858C9.09939 34.911 10.878 35.9321 12.6547 36.9573L20.4426 36.1934C21.2797 35.1736 22.3185 33.6884 23.1572 31.7246C24.1484 29.4039 24.4763 27.3146 24.5897 25.8789C24.5778 22.9135 24.57 19.9499 24.5581 16.9845C23.8073 14.4489 23.0547 11.9172 22.3039 9.38158C21.6697 8.35226 20.6081 6.89621 18.9375 5.54136C17.6115 4.4642 16.3206 3.79057 15.336 3.37232C13.888 3.55744 12.4399 3.74255 10.9901 3.93168C9.35486 5.27678 7.7134 6.61423 6.07779 7.94948ZM6.98639 13.1293C7.32139 12.0606 7.71541 11.1399 8.0953 10.3678C8.28793 9.92243 8.59963 9.33251 9.09484 8.73392C9.78326 7.91305 10.5297 7.42376 11.0333 7.14869C12.3655 7.09022 13.6996 7.02775 15.0359 6.97111C16.6781 8.46324 18.3204 9.95538 19.9667 11.4493C20.3579 13.4195 20.7491 15.3897 21.1403 17.3599C21.3214 18.3288 21.4681 19.5339 21.4573 20.9145C21.4451 22.3623 21.2693 23.6147 21.0542 24.6118C20.605 26.7331 20.5497 27.8271 20.1067 28.7595C19.7644 29.4808 19.0997 30.6128 17.7505 31.7342C16.0685 31.9003 14.3843 32.0604 12.7022 32.2264C11.4426 31.7511 10.1852 31.2816 8.92558 30.8062C8.15839 29.0867 7.38534 27.3693 6.61815 25.6498C6.44381 24.1318 6.31759 22.4757 6.27389 20.7022C6.22875 18.9425 6.26305 17.2964 6.3556 15.7785C6.48211 14.9979 6.68127 14.1001 6.98639 13.1293Z" fill="#EDB266" stroke="#EDB266" stroke-width="1.63388" stroke-miterlimit="10"/>
<path d="M34.7875 24.606C35.1042 22.2743 35.423 19.9485 35.7397 17.6168C35.0805 15.6702 34.4272 13.7214 33.768 11.7748C48.9466 11.9656 64.1274 12.1622 79.3061 12.353C79.9575 13.4192 80.6129 14.4872 81.2662 15.5494C80.9191 18.2258 80.5721 20.9022 80.2251 23.5786C56.2095 24.1209 43.3029 24.41 43.3029 24.41C43.3029 24.41 37.0107 26.0375 35.2642 30.0741C34.4244 32.0082 34.9434 33.024 33.8243 33.8527C32.8013 34.6087 30.8751 34.7994 30.8751 34.7994C31.468 33.5476 32.0521 32.2192 32.6153 30.8085C33.4919 28.644 34.2055 26.5604 34.7875 24.606Z" fill="#EDB266"/>
<path d="M85.0894 24.9023C85.3385 23.0826 85.5876 21.2628 85.8368 19.443C85.6216 17.6836 85.4024 15.9223 85.1854 14.1669C99.2239 14.111 113.258 14.0532 127.297 13.9973C127.863 15.0587 128.429 16.1202 128.994 17.1856C128.727 20.2086 128.554 22.15 128.554 22.15C128.495 22.2687 128.373 22.5041 128.224 22.7998C127.156 24.8726 126.089 26.6887 126.089 26.6887C126.089 26.6887 125.244 27.1914 123.676 28.1214C124.204 27.3537 124.258 26.3803 123.807 25.6523C123.344 24.909 122.55 24.7227 122.387 24.6872C115.734 24.7265 109.083 24.7617 102.43 24.801C96.6482 24.8342 90.8668 24.8674 85.0894 24.9023Z" fill="#EDB266"/>
<path d="M132.238 23.325C132.433 22.7255 132.629 22.122 132.824 21.5225C132.73 19.5809 132.633 17.6375 132.539 15.696C142.842 15.8079 153.14 15.918 163.442 16.03C163.866 16.7313 164.29 17.4326 164.71 18.1321C164.571 19.3673 164.431 20.6066 164.292 21.8418C163.134 23.9949 162.521 25.1309 162.521 25.1309C162.521 25.1309 161.883 25.6794 160.894 26.533C161.308 25.2048 161.077 24.4846 160.816 24.0755C160.223 23.1473 150.327 23.2536 151.353 23.2695C151.353 23.2695 144.796 23.2894 132.238 23.325Z" fill="#EDB266"/>
<path d="M39.011 13.7399C37.4864 13.7837 36.3601 12.7585 36.323 11.7291C36.2884 10.7687 37.2077 10.0915 37.306 10.0247C43.9684 9.92188 71.3061 9.55662 74.9082 10.8055C75.4451 10.9912 76.8927 11.4696 76.9773 12.3946C77.0349 13.0263 76.6677 13.6637 76.0651 14.0391C63.7131 13.9407 51.3611 13.8423 39.011 13.7399Z" fill="#EDB266"/>
<path d="M85.4449 16.2563C85.3713 15.7239 85.2688 15.159 85.1355 14.5655C84.9497 13.7351 84.7253 12.9791 84.4939 12.3023C98.6183 12.6342 112.737 12.9684 126.861 13.3003C127.458 14.3803 128.056 15.4564 128.653 16.5365C114.247 16.4399 99.8428 16.3492 85.4449 16.2563Z" fill="#EDB266"/>
<path d="M132.623 17.468C132.601 16.9929 132.579 16.5179 132.561 16.0446C132.355 15.6217 132.153 15.2005 131.949 14.7736C142.316 14.9246 152.685 15.0815 163.052 15.2326C163.464 16.0252 163.876 16.8178 164.285 17.6045C153.733 17.5629 143.178 17.5155 132.623 17.468Z" fill="#EDB266"/>
<path d="M29.17 26.2014C27.7973 26.3384 26.4205 26.4735 25.0477 26.6104C25.2545 17.8001 25.2688 17.3415 25.2688 17.3415C25.2688 17.3415 24.6111 15.071 23.371 10.7919C24.8495 10.732 26.3239 10.6704 27.8042 10.6065C28.1108 12.7417 28.4173 14.8769 28.7198 17.0103C28.7198 17.0103 28.8685 19.9845 29.17 26.2014Z" fill="#EDB266"/>
<path d="M31.7087 5.01608C37.9822 4.56215 44.5209 4.68895 50.8137 4.89779C57.1077 5.18951 63.6269 5.58359 69.8513 6.54132C63.5759 6.99926 57.039 6.86845 50.7462 6.65962C44.4523 6.36789 37.933 5.9738 31.7087 5.01608Z" fill="#EDB266"/>
<path d="M34.5384 26.7265C39.3469 26.6341 44.1535 26.5456 48.9579 26.4514C43.595 27.8712 38.2361 29.2929 32.8749 30.7088C33.4276 29.3854 33.9839 28.0539 34.5384 26.7265Z" fill="#EDB266"/>
<path d="M32.36 31.5212C35.4537 31.4636 38.5493 31.4021 41.6471 31.3463C38.0594 32.502 34.4694 33.6519 30.8816 34.8075C31.3716 33.7076 31.8638 32.6135 32.36 31.5212Z" fill="#EDB266"/>
<path d="M77.8463 29.0288C71.4842 28.5559 65.1181 28.0812 58.7559 27.6083C65.4151 27.4701 75.7396 26.9671 76.3355 24.9609C76.5793 24.1464 76.2765 23.6697 76.2765 23.6697C75.6566 22.705 73.6785 23.3518 73.5235 22.9131C73.3061 22.2912 76.6095 19.272 78.8406 20.6005C80.1634 21.3855 80.3063 23.2186 80.32 23.4768C79.4947 25.3255 78.6694 27.1742 77.8463 29.0288Z" fill="#EDB266"/>
<path d="M76.7606 31.3016C72.8548 31.0097 68.9433 30.7199 65.0375 30.428C69.4515 29.5798 73.8677 28.7375 78.2817 27.8893C77.7734 29.0294 77.267 30.1655 76.7606 31.3016Z" fill="#EDB266"/>
<path d="M12.7184 17.2838C12.1095 20.3548 13.4806 22.7217 12.5776 23.2029C12.1669 23.4232 11.5498 23.1041 11.2318 22.8531C10.0456 21.9169 10.3731 19.8179 11.0785 15.6474C11.5592 12.7944 11.934 12.0442 12.6284 11.7444C13.2566 11.4727 14.1868 11.5513 14.558 12.0591C15.2221 12.9906 13.2937 14.372 12.7184 17.2838Z" fill="#EDB266"/>
</svg>
