<svg width="116" height="89" viewBox="0 0 116 89" fill="none" xmlns="http://www.w3.org/2000/svg">
<g clip-path="url(#clip0_537_5104)">
<path d="M7.44434 76.7097L1.06641 41.9806L10.3161 10.0712L26.1017 3.82297L97.3828 0.940796L110.846 14.8782L114.126 38.3362L111.576 78.1508L45.3986 87.4425L7.44434 76.7097Z" fill="#EDB266" stroke="#EDB266" stroke-width="2.65448" stroke-miterlimit="10"/>
<path d="M11.832 48.8868L15.1803 69.793L35.9895 75.7993V51.704L11.832 48.8868Z" fill="#EDB266" stroke="#EDB266" stroke-width="1.89606" stroke-miterlimit="10"/>
<path d="M11.3008 37.73L35.6964 38.7913L36.1237 28.9196L33.3115 19.7762L25.6595 14.4905L16.2105 17.0137L11.6193 29.0808L11.3008 37.73Z" fill="#EDB266" stroke="#EDB266" stroke-width="1.89606" stroke-miterlimit="10"/>
<path d="M45.4672 86.5162L44.7473 43.7127L43.9498 23.9979L26.3774 4.73832L97.1847 1.44775L110.414 15.1433L113.628 38.3464L110.725 77.3806L45.4672 86.5162Z" fill="#EDB266"/>
<path d="M51.0981 52.4948V75.7993L105.118 69.2676L106.79 45.6458L51.0981 52.4948Z" fill="#EDB266" stroke="#EDB266" stroke-width="1.89606" stroke-miterlimit="10"/>
<path d="M39.7256 10.1646L51.0987 23.1396V38.7913L105.61 33.2974L103.603 17.7342L93.2764 7.37866L39.7256 10.1646Z" fill="#EDB266" stroke="#EDB266" stroke-width="1.89606" stroke-miterlimit="10"/>
<path d="M40.4556 10.4873L51.8105 22.9473L102.989 18.0387L93.1467 7.71179L40.4556 10.4873Z" fill="#EDB266"/>
<path d="M1.06641 41.9805L44.7771 45.6456L113.627 38.3466" stroke="#EDB266" stroke-width="1.89606" stroke-miterlimit="10"/>
<path d="M65.1851 32.4831V42.0947L69.2842 46.483L95.0316 43.0051L97.2379 37.2902L96.1218 28.7998L90.0624 26.2375L68.5333 28.4798L65.1851 32.4831Z" fill="#EDB266" stroke="#EDB266" stroke-width="1.89606" stroke-miterlimit="10"/>
<path d="M68.1558 32.0828V38.7914L70.6002 41.6944L91.3706 39.4469L94.5324 40.5082L96.8862 37.2228L95.822 29.0133L89.9697 26.9011L71.8354 28.7896L68.1558 32.0828Z" fill="#EDB266"/>
<path d="M80.0549 35.5267L80.4148 39.6913L85.397 39.093L84.5606 35.0065L87.9089 34.4056L85.9952 30.7612L78.1024 31.1618L77.1055 35.2276L80.0549 35.5267Z" fill="#EDB266"/>
<path d="M89.9697 26.9011L92.7716 30.4076L93.7038 35.9352L91.3706 39.4469L94.8121 42.6855L96.8863 37.2228L95.822 29.0133L89.9697 26.9011Z" fill="#EDB266"/>
<path d="M77.1051 35.2275L78.1021 31.1618C78.1021 31.1618 82.1598 30.9563 82.1003 30.9589C82.0821 30.9589 81.2095 33.7578 81.2095 33.7578L83.8016 39.2829L80.4119 39.6913L80.052 35.5267L77.1025 35.2275H77.1051Z" fill="#EDB266"/>
</g>
<defs>
<clipPath id="clip0_537_5104">
<rect width="114.901" height="88.3564" fill="white" transform="translate(0.137207 0.0145264)"/>
</clipPath>
</defs>
</svg>
