<svg width="132" height="95" viewBox="0 0 132 95" fill="none" xmlns="http://www.w3.org/2000/svg">
<path d="M74.935 18.9164L64.2022 6.08935L40.9041 1.63916L18.3914 6.87468L3.7319 21.2724L0.760742 42.4762L8.44387 61.5859L22.8154 71.7952L40.1188 77.5542L57.6578 76.2296L74.935 18.9164Z" fill="#EDB266"/>
<path d="M21.5324 10.8013L14.2026 29.1257L19.4067 45.094L28.3385 53.7326L44.0451 60.5388L57.6575 59.7194L74.9347 18.0133L64.2019 6.08935L40.9038 1.63916L21.5324 10.8013Z" fill="#EDB266"/>
<path d="M61.3221 10.5395L44.5684 9.49243L34.0974 18.9164L33.0503 31.2198L44.5684 43.7851H56.6101L72.0549 25.4608L61.3221 10.5395Z" fill="#EDB266"/>
<path d="M9.22949 32.5287V41.1673L18.9152 42.4762L22.8418 36.1935L18.0513 29.78L9.22949 32.5287Z" fill="#EDB266"/>
<path d="M11.0615 16.5604V25.199L19.4384 26.5079L23.365 20.2253L19.8834 13.8118L11.0615 16.5604Z" fill="#EDB266"/>
<path d="M25.9824 22.8429V31.4815L33.8357 33.5757L39.5948 27.8166L34.8043 20.0942L25.9824 22.8429Z" fill="#EDB266"/>
<path d="M51.1126 71.2716L49.8037 42.4762L74.9342 18.9163L103.206 16.2986L119.96 30.958L130.169 45.094L131.216 67.6067L122.577 84.3604L102.159 93.5225L77.0284 90.9048L51.1126 71.2716Z" fill="#EDB266"/>
<path d="M52.6841 44.0468L75.7204 22.0576L101.113 18.9163L115.571 33.3375L117.343 58.1827L103.267 77.8395L77.8146 85.9309L53.7312 69.7008L52.6841 44.0468Z" fill="#EDB266"/>
<path d="M58.2918 67.0935C58.2918 66.4233 57.3965 45.1776 57.3965 45.1776L77.0742 26.3926L98.765 23.7094L111.116 36.0285L112.631 57.2533L100.605 74.0437L78.8621 80.9572L58.2891 67.0935H58.2918Z" fill="#EDB266"/>
<path d="M67.6051 63.4182L67.0815 48.497L81.741 34.6229L94.8298 33.8375L102.16 42.4761V56.0885L94.568 66.2978L79.9086 71.7951L67.6051 63.4182Z" fill="#EDB266"/>
<path d="M67.0815 48.4969L79.9086 55.0413L91.1649 52.9471L102.16 42.4761V56.0884L94.568 66.2977L79.9086 71.795L67.6051 63.4182L67.0815 48.4969Z" fill="#EDB266"/>
<path d="M130.169 45.0941L127.813 58.9682L121.269 74.6748L104.254 85.9312L77.0288 90.9049L102.159 93.5227L122.578 84.3605L131.216 67.6069L130.169 45.0941Z" fill="#EDB266"/>
<path d="M51.1126 71.2716L77.0284 90.9048L102.159 93.5225L122.577 84.3604L131.216 67.6067L130.169 45.094L119.96 30.958L103.206 16.2986L74.9342 18.9163L49.8037 42.4762L51.1126 71.2716Z" stroke="#EDB266" stroke-width="1.30888" stroke-miterlimit="10"/>
<path d="M75.7204 22.0576L101.113 18.9163L115.571 33.3375L117.343 58.1827L103.267 77.8395L77.8146 85.9309L53.7312 69.7008L52.6841 44.0468L75.7204 22.0576Z" stroke="#EDB266" stroke-width="1.30888" stroke-miterlimit="10"/>
<path d="M94.8298 33.8375L102.16 42.4761V56.0885L94.568 66.2978L79.9086 71.7951L67.6051 63.4182L67.0815 48.497L81.741 34.6229L94.8298 33.8375Z" stroke="#EDB266" stroke-width="1.0471" stroke-miterlimit="10"/>
<path d="M74.935 18.0133L64.2022 6.08935L40.9041 1.63916L18.3914 6.87468L3.7319 21.2724L0.760742 42.4762L8.44387 61.5859L22.8154 71.7952L40.1188 77.5542L57.6578 76.2296L51.1134 71.2716L49.8045 42.4762L74.935 18.0133Z" stroke="#EDB266" stroke-width="1.30888" stroke-miterlimit="10"/>
<path d="M25.9824 22.8429V31.4815L33.8357 33.5757L39.5948 27.8166L34.8043 20.0942L25.9824 22.8429Z" stroke="#EDB266" stroke-width="1.0471" stroke-miterlimit="10"/>
<path d="M18.0513 29.78L22.8418 36.1935L18.9152 42.4762L9.22949 41.1673V32.5287L18.0513 29.78Z" stroke="#EDB266" stroke-width="1.0471" stroke-miterlimit="10"/>
<path d="M11.0615 25.199L19.4384 26.5079L23.365 20.2253L19.8834 13.8118L11.0615 16.5604V25.199Z" stroke="#EDB266" stroke-width="1.0471" stroke-miterlimit="10"/>
</svg>
