<svg width="140" height="158" viewBox="0 0 140 158" fill="none" xmlns="http://www.w3.org/2000/svg">
<path d="M23.3423 11.6682C24.5783 23.1161 33.9314 109.632 33.9314 109.632L30.632 115.982L32.345 121.922C33.508 123.699 34.671 125.482 35.8341 127.259C36.0141 128.938 36.1991 130.618 36.3791 132.297C36.7392 135.617 37.2697 140.528 37.9558 146.904C38.4035 147.902 38.8463 148.896 39.2941 149.895H41.4352H43.5764L27.7317 10.0327L26.593 9.35703H25.1866L23.6197 9.84179L23.0552 10.5322L23.3423 11.6682L25.1915 11.9913C26.082 11.7318 26.9774 11.4723 27.8679 11.2128" fill="#EDB266"/>
<path d="M23.3423 11.6682C24.5783 23.1161 33.9314 109.632 33.9314 109.632L30.632 115.982L32.345 121.922C33.508 123.699 34.671 125.482 35.8341 127.259C36.0141 128.938 36.1991 130.618 36.3791 132.297C36.7392 135.617 37.2697 140.528 37.9558 146.904C38.4035 147.903 38.8463 148.896 39.2941 149.895H41.4352H43.5764L27.7317 10.0327L26.593 9.35703H25.1866L23.6197 9.84179L23.0552 10.5322L23.3423 11.6682ZM23.3423 11.6682L25.1915 11.9913C26.082 11.7318 26.9774 11.4723 27.8679 11.2128" stroke="#EDB266" stroke-width="3" stroke-miterlimit="10"/>
<path d="M31.3718 25.7848L29.8529 35.8777L32.2549 46.5721L33.2843 64.5109L31.9117 73.8253L32.2549 82.9608L39.6299 89.5025L48.91 85.365L60.8422 80.919L72.7744 80.6644L86.2297 82.9608L94.8626 87.304L102.225 89.5025L112.128 87.8181L126.854 81.6878L134.469 78.6226L126.601 66.3569L122.79 54.3508L120.508 40.8121L120.255 29.9223L121.014 23.0575L120.761 18.587L105.783 20.3742L99.6899 21.6522H89.023L78.3609 18.587L66.4287 15.0077L53.4795 13.7297L39.6299 17.3091L30.929 23.0575L30.8706 27.528" fill="#EDB266"/>
<path d="M31.3718 25.7848L29.8529 35.8777L32.2549 46.5721L33.2843 64.5109L31.9117 73.8253L32.2549 82.9608L39.6299 89.5025L48.91 85.365L60.8422 80.919L72.7744 80.6644L86.2297 82.9608L94.8626 87.304L102.225 89.5025L112.128 87.8181L126.854 81.6878L134.469 78.6226L126.601 66.3569L122.79 54.3508L120.508 40.8121L120.255 29.9223L121.014 23.0575L120.761 18.587L105.783 20.3742L99.6899 21.6522H89.023L78.3609 18.587L66.4287 15.0077L53.4795 13.7297L39.6299 17.3091L30.929 23.0575L30.8706 27.528" stroke="#EDB266" stroke-width="3" stroke-miterlimit="10"/>
<path d="M32.2771 22.416C31.8975 22.5433 30.3987 21.6472 30.3987 21.6472H27.4546L24.4715 22.0389L23.0603 24.0759V27.141L25.328 29.9222L28.5982 29.0605L30.7783 29.3298L32.282 29.9271L33.2212 27.2782V24.213L32.2771 22.416Z" fill="#EDB266" stroke="#EDB266" stroke-width="3" stroke-miterlimit="10"/>
<path d="M30.6177 87.4802L27.9656 86.2854L24.5591 85.3649L18.3011 86.5498L13.0552 89.0421L11.0746 88.528L14.1306 93.5175L18.8072 94.7514L22.6369 94.629L28.1067 93.1307L30.8707 91.98" fill="#EDB266"/>
<path d="M30.6177 87.4802L27.9656 86.2854L24.5591 85.3649L18.3011 86.5498L13.0552 89.0421L11.0746 88.528L14.1306 93.5175L18.8072 94.7514L22.6369 94.629L28.1067 93.1307L30.8707 91.98" stroke="#EDB266" stroke-width="3" stroke-miterlimit="10"/>
<path d="M38.6909 86.1336C38.3113 86.261 36.8125 85.3649 36.8125 85.3649H33.8684L30.8853 85.7566L29.4741 87.7935V90.8587L31.7418 93.6399L35.012 92.7782L37.1921 93.0475L38.6958 93.6448L39.635 90.9958V87.9306L38.6909 86.1336Z" fill="#EDB266" stroke="#EDB266" stroke-width="3" stroke-miterlimit="10"/>
<path d="M33.7076 24.2033L40.1166 21.6474L45.7761 20.3694L49.966 22.2839C47.6691 23.1359 45.3673 23.9879 43.0704 24.8399C43.3235 26.534 43.5765 28.2233 43.8344 29.9175C42.5984 29.9175 41.3575 29.9175 40.1214 29.9175L33.7125 27.2685V24.2033H33.7076Z" fill="#EDB266"/>
</svg>
