<svg width="133" height="152" viewBox="0 0 133 152" fill="none" xmlns="http://www.w3.org/2000/svg">
<g clip-path="url(#clip0_350_2867)">
<path d="M98.8121 24.5927L40.5211 85.564L27.3614 81.7832L12.1585 93.6216L10.9924 114.393L25.401 126.446L44.9058 125.185L54.9754 109.616L50.252 92.7474L71.6406 70.7825L83.9671 87.203L96.4091 88.1182L96.441 76.4836L79.9024 62.5639L89.2108 52.849L102.575 68.2155L114.105 68.0084L113.062 57.5324L97.5974 44.3374L108.594 32.9146L107.841 25.3178L98.8114 24.5939L98.8121 24.5927ZM39.5433 104.501L34.9563 112.353L27.7994 112.122L24.076 105.029L27.354 97.8502L35.4008 97.1214L39.5433 104.501Z" fill="#EDB266" stroke="#EDB266" stroke-width="2.08197" stroke-miterlimit="10"/>
<path d="M34.8636 125.238L44.5744 124.543L54.3035 109.494L49.563 92.5568L75.0751 66.416L95.791 87.4834L95.8309 76.7706L79.0063 62.5719L92.6804 48.3321L113.434 67.3874L112.452 57.8547L96.7241 44.3747L107.946 32.6798L107.288 25.8923L41.6188 94.0151L45.3795 102.461L43.2447 112.628L34.8636 125.238Z" fill="#EDB266"/>
<path d="M18.8586 114.409L15.3462 107.835L15.9528 96.0261L24.0053 88.8932L30.0814 88.3106L21.727 96.0341L18.6386 105.273L18.8586 114.409Z" fill="#EDB266"/>
<path d="M42.2923 87.3127L99.4328 27.411L101.612 27.5529L43.0254 88.5495L42.2923 87.3127Z" fill="#EDB266"/>
</g>
<defs>
<clipPath id="clip0_350_2867">
<rect width="130.344" height="76.6869" fill="white" transform="translate(0.313232 112.547) rotate(-59.7076)"/>
</clipPath>
</defs>
</svg>
