<svg width="93" height="156" viewBox="0 0 93 156" fill="none" xmlns="http://www.w3.org/2000/svg">
<path d="M44.9932 111.277L41.9237 103.372L41.6324 114.203L38.1259 130.601L32.8644 144.07L25.5564 154.609H23.8013L22.0462 152.267L21.755 149.046L24.3839 146.995L29.3504 140.848L34.317 127.38L37.5322 113.911L38.1185 105.714L35.4896 111.277L26.7215 121.233L17.076 124.012C17.076 124.012 10.063 115.082 9.47675 113.324C8.89421 111.569 13.8608 109.519 13.8608 109.519L25.8402 105.126L12.1057 106.885L1 101.909V94.8825L2.64585 86.3897L8.01293 84.9268L17.0722 86.6852L8.01293 82.2929L1 67.9449L4.50646 55.0635L9.76802 59.3623L18.241 64.7237L5.96656 50.5814L4.50646 40.6145L8.59921 27.9389L12.6919 27.2655L15.6159 33.4648L19.7086 38.4932C19.7086 36.862 17.0797 27.2692 17.0797 27.2692V19.4012L22.6325 12.9324L26.7253 9.74858L28.1854 12.9324L31.1093 26.4162L33.1556 6.86775C33.1556 6.86775 43.9663 0.0136399 44.8438 1.12107C45.7214 2.22851 54.4894 1.12107 54.4894 1.12107L57.7046 5.04572L56.8516 26.5535C57.2245 23.7651 59.6795 14.1927 59.161 12.9287C58.5784 11.4995 65.5914 8.25204 65.5914 8.25204L73.4818 14.7133C73.4818 14.7133 73.1868 24.3136 72.8956 25.1928C72.6852 25.8276 69.6809 29.8588 68.0272 32.0504C69.8485 30.2258 74.6507 26.4162 74.6507 26.4162L82.0557 26.9063C82.0557 26.9063 86.1447 34.8566 85.9505 36.0015C85.7563 37.1463 85.9505 42.4665 85.5621 43.8957C85.1738 45.3249 77.7688 56.1336 77.3804 56.908C76.992 57.6862 62.7683 71.9444 62.7683 71.9444L75.4423 66.6691L82.0669 58.513L86.9363 59.3548L90.637 62.4676C90.637 62.4676 92 70.9679 92 71.5516C92 72.1352 87.1305 76.2357 87.1305 76.2357L79.5313 82.8728L70.9575 88.3389H77.5783L83.0341 90.2919L87.1268 97.1236L84.4008 101.419L76.9958 103.372L59.7547 108.348L73.1009 109.616L75.2444 111.763L73.2951 115.276L60.3373 124.012H54.6388L48.9403 117.865L44.9932 111.277Z" fill="#EDB266"/>
<path d="M59.7547 108.348L73.1009 109.616L75.2444 111.763L73.2951 115.276L60.3373 124.012H54.6388L48.9403 117.865L44.9932 111.277L41.9237 103.372L41.6324 114.203L38.1259 130.601L32.8644 144.07L25.5564 154.609H23.8013L22.0462 152.267L21.755 149.046L24.3839 146.995L29.3504 140.848L34.317 127.38L37.5322 113.911L38.1185 105.714L35.4896 111.277L26.7215 121.233L17.076 124.012C17.076 124.012 10.063 115.082 9.47675 113.324C8.89421 111.569 13.8608 109.519 13.8608 109.519L25.8402 105.126M59.7547 108.348L58.5859 115.082L55.957 110.398L59.7547 108.348ZM59.7547 108.348L76.9958 103.372L84.4008 101.419L87.1268 97.1236L83.0341 90.2919L77.5783 88.3389H70.9575M70.9575 88.3389L65.6922 98.1C63.769 98.4966 61.8459 98.8895 59.9265 99.286C56.1736 101.381 52.2265 101.078 50.4004 98.9793C50.0419 98.5677 49.3212 97.5762 49.2316 95.758C53.6156 94.7179 57.9996 93.674 62.3836 92.634L70.9575 88.3389ZM70.9575 88.3389L79.5313 82.8728L87.1305 76.2357C87.1305 76.2357 92 72.1352 92 71.5516C92 70.9679 90.637 62.4676 90.637 62.4676L86.9363 59.3548L82.0669 58.513L75.4423 66.6691L62.7683 71.9444M62.7683 71.9444L61.2111 78.9744C60.4904 79.8349 59.344 81.0695 57.727 82.2929C56.5507 83.1796 52.9061 85.937 51.5655 84.9268C51.3527 84.7659 50.5946 84.0588 51.4684 80.9498L62.7683 71.9444ZM62.7683 71.9444C62.7683 71.9444 76.992 57.6862 77.3804 56.908C77.7688 56.1336 85.1738 45.3249 85.5621 43.8957C85.9505 42.4665 85.7563 37.1463 85.9505 36.0015C86.1447 34.8566 82.0557 26.9063 82.0557 26.9063L74.6507 26.4162C74.6507 26.4162 67.1475 32.3686 67.3417 32.956C67.5359 33.5434 62.182 52.2314 61.9841 53.2078C61.7899 54.1843 54.777 62.4714 54.777 62.4714L50.1017 66.4783C49.62 65.311 48.9889 63.3768 48.9329 60.915C48.8768 58.3709 49.4594 56.3543 49.9075 55.1571C52.2115 53.2714 54.5193 51.3821 56.8233 49.4964L66.9544 33.4648C66.9544 33.4648 72.6043 26.072 72.8956 25.1928C73.1868 24.3136 73.4818 14.7133 73.4818 14.7133L65.5914 8.25204C65.5914 8.25204 58.5784 11.4995 59.161 12.9287C59.7473 14.3579 56.5321 26.4087 56.8233 27.2655M56.8233 27.2655C57.1146 28.1222 53.0256 36.8395 53.0256 36.8395L48.059 45.0256L47.1815 40.6145L50.3967 31.7401L56.8233 27.2655ZM56.8233 27.2655L57.7046 5.04572L54.4894 1.12107C54.4894 1.12107 45.7214 2.22851 44.8439 1.12107C43.9663 0.0136399 33.1556 6.86775 33.1556 6.86775L31.1093 26.4162M31.1093 26.4162L35.4933 32.956L36.9534 40.6183L38.4135 48.2805L34.907 43.8994L33.7382 36.0052L31.1093 26.4162ZM31.1093 26.4162L28.1854 12.9324L26.7253 9.74858L22.6325 12.9324L17.0797 19.4012V27.2692C17.0797 27.2692 19.7086 36.862 19.7086 38.4932M19.7086 38.4932C19.7086 40.1282 26.4303 49.4964 26.4303 49.4964L33.7382 53.2041C34.1415 53.4099 36.1393 54.4724 36.9534 56.908C37.8645 59.6392 36.5688 61.9214 36.3671 62.2581C34.2236 60.4735 32.0802 58.6926 29.9367 56.908L19.7086 38.4932ZM19.7086 38.4932L15.6159 33.4648L12.6919 27.2655L8.59921 27.9389L4.50646 40.6145L5.96656 50.5814L18.241 64.7237L9.76802 59.3623L4.50646 55.0635L1 67.9449L8.01293 82.2929L17.0722 86.6852M17.0722 86.6852C17.0722 86.6852 27.5916 87.2726 28.7604 86.9771C30.0674 86.6478 32.5022 85.3459 34.6045 86.3897C34.8622 86.5169 35.919 87.0444 36.3596 88.1481C37.1662 90.1722 35.4821 93.1241 35.4821 93.1241L28.7604 93.7115L17.0722 86.6852ZM17.0722 86.6852L8.01293 84.9268L2.64585 86.3897L1 94.8825V101.909L12.1057 106.885L25.8402 105.126M25.8402 105.126L34.022 100.442L36.0684 102.201L33.4395 105.13L25.8402 105.126Z" stroke="#EDB266" stroke-width="1.28299" stroke-miterlimit="10"/>
<path d="M41.7816 103.506L41.4941 114.206L37.9876 130.605L32.7261 144.073L25.4219 154.613H23.6668L21.9154 152.271L21.6204 149.049L24.253 147.003L29.2196 140.852L34.1899 127.383L37.4013 113.914L37.9876 105.717C38.4096 105.003 38.7681 104.262 39.0593 103.506H41.7816Z" fill="#EDB266" stroke="#EDB266" stroke-width="1.28299" stroke-miterlimit="10"/>
</svg>
