<svg width="97" height="113" viewBox="0 0 97 113" fill="none" xmlns="http://www.w3.org/2000/svg">
<path fill-rule="evenodd" clip-rule="evenodd" d="M95.0658 106.83C93.8004 108.014 92.535 109.189 91.2697 110.373C89.0281 110.436 86.7776 110.508 84.5361 110.572C83.1713 111.141 81.8065 111.701 80.4417 112.271C75.8321 112.108 71.2225 111.936 66.622 111.774C56.8424 111.575 47.0629 111.376 37.2743 111.177C28.9409 111.593 20.6075 112.009 12.2741 112.424C10.8461 110.816 9.32762 109.144 7.93571 107.237C6.3088 105.005 4.67285 102.782 3.04594 100.549C2.23248 97.4043 1.41903 94.2594 0.596534 91.1144C0.397689 89.5148 0.198845 87.9242 0 86.3246C0.162691 83.1977 0.33442 80.0707 0.497111 76.9438C1.46422 73.4825 2.42229 70.0212 3.3894 66.569C4.53727 63.4421 5.68515 60.3151 6.83302 57.1882C7.60129 55.3898 8.36051 53.4739 9.07454 51.4495C10.2043 48.2955 11.0991 45.2861 11.8222 42.4664C12.0843 38.987 12.3555 35.5167 12.6176 32.0373H6.12803C4.944 30.1124 3.76901 28.1784 2.58498 26.2534C2.34998 22.1415 2.11498 18.0385 1.88902 13.9265C2.36806 11.8118 2.85613 9.70609 3.33517 7.59136C4.81746 5.59411 6.29976 3.59686 7.77302 1.59961C14.9766 2.61179 22.1802 3.63301 29.3838 4.64519C36.723 4.34696 44.0531 4.04872 51.3923 3.75049C56.5532 2.89195 61.7232 2.04244 66.8841 1.18389C69.2702 0.786248 71.6564 0.397643 74.0425 0L80.6405 3.79568C81.8065 5.7387 82.9724 7.69077 84.1293 9.63379C84.5813 11.866 85.0241 14.0892 85.4761 16.3214C85.2591 20.8582 85.0422 25.4039 84.8253 29.9407C83.6955 33.0043 82.5657 36.0589 81.4359 39.1226C79.6373 43.3611 77.8386 47.6087 76.049 51.8472C74.8198 56.7183 73.5906 61.5984 72.3523 66.4696C71.6744 72.1089 70.9875 77.7481 70.3096 83.3874C71.4033 83.6405 72.506 83.8845 73.5996 84.1375C79.0046 84.1737 84.4095 84.2008 89.8145 84.237C91.6312 84.6707 93.4389 85.1045 95.2556 85.5383L97 90.4275C96.765 93.1929 96.53 95.9493 96.304 98.7148C95.8883 101.426 95.4725 104.137 95.0567 106.848L95.0658 106.83Z" fill="#EDB266"/>
</svg>
