<svg width="120" height="57" viewBox="0 0 120 57" fill="none" xmlns="http://www.w3.org/2000/svg">
<g clip-path="url(#clip0_219_3844)">
<path d="M0.732422 21.0973L1.24666 43.1649L14.2403 51.5221H56.4133L77.2687 42.8683L78.3906 22.5721L0.732422 21.0973Z" fill="#EDB266" stroke="#EDB266" stroke-width="5.51" stroke-miterlimit="10"/>
<path d="M15.9415 40.954L1.01811 33.3432L0.732422 20.6994L21.6449 8.58356L62.392 9.4029L78.3387 22.0857L77.8504 32.3678L55.6965 40.954H15.9415Z" fill="#EDB266" stroke="#EDB266" stroke-width="5.51" stroke-miterlimit="10"/>
<path d="M119.208 29.9202V38.3113L115.169 48.0835L100.83 56.2795L78.3906 55.533L58.3845 36.4879L56.26 16.8914L65.119 6.63275L75.1077 9.38469L119.208 29.9202Z" fill="#EDB266" stroke="#EDB266" stroke-width="5.51" stroke-miterlimit="10"/>
<path d="M82.5227 47.389C83.359 47.6361 100.095 47.6673 100.095 47.6673L113.691 42.1088L119.21 29.9202L112.99 17.4194L101.742 7.06452L84.0421 0.736099L68.0928 3.21753L59.0416 13.8091L63.0698 30.2843L82.5227 47.389Z" fill="#EDB266" stroke="#EDB266" stroke-width="5.51" stroke-miterlimit="10"/>
</g>
<defs>
<clipPath id="clip0_219_3844">
<rect width="120" height="57" fill="white"/>
</clipPath>
</defs>
</svg>
