<svg width="150" height="80" viewBox="0 0 150 80" fill="none" xmlns="http://www.w3.org/2000/svg">
<g clip-path="url(#clip0_537_5118)">
<path d="M89.5989 24.8157H67.1212C59.0175 24.8157 52.4482 31.385 52.4482 39.4886V55.0982C52.4482 63.2018 59.0175 69.7711 67.1212 69.7711H89.5989C97.7026 69.7711 104.272 63.2018 104.272 55.0982V39.4886C104.272 31.385 97.7026 24.8157 89.5989 24.8157Z" fill="#EDB266"/>
<path d="M84.4784 52.0449C84.3785 51.4892 84.5471 51.3768 85.0778 51.433C85.6273 53.737 85.4649 56.9151 84.3598 57.5207C84.3598 57.5207 84.6283 56.553 84.2661 55.8224C84.3286 55.7787 84.4097 55.6788 84.4534 55.454C84.7906 53.8931 84.6782 53.1438 84.4722 52.0449H84.4784Z" fill="#EDB266"/>
<path d="M76.6434 51.7639C76.1376 52.7566 76.2063 54.0304 76.3124 54.8608C76.3437 55.1105 76.3749 55.3166 76.3936 55.4727C76.4498 55.9722 76.5435 56.1595 76.6184 56.2219C76.4498 56.9462 76.6184 57.6518 76.6184 57.6518C75.0075 57.1023 75.1011 53.4871 76.1064 51.0958C76.7932 50.9334 76.9992 51.0271 76.6371 51.7701L76.6434 51.7639Z" fill="#EDB266"/>
<path d="M80.6265 51.7576C80.589 51.333 80.3143 51.1832 80.102 52.0011C79.8959 52.8003 78.7408 52.4944 79.0218 51.7576C79.2841 51.0333 79.2903 48.055 80.0958 47.9176C81.0011 47.7678 81.1135 48.7231 81.5631 50.2154C82.0251 51.7076 81.9689 52.3008 81.5631 52.4756C81.1572 52.6505 80.6639 52.2009 80.6265 51.7638V51.7576Z" fill="#EDB266"/>
<path d="M78.2042 46.9311C78.223 47.8739 77.942 48.3235 76.4497 49.3974C74.9512 50.4838 73.4464 50.3839 72.5598 49.1164C71.6607 47.849 72.2164 46.3879 73.7399 45.3764C76.0563 43.8467 78.1855 44.9955 78.2042 46.9311Z" fill="#EDB266"/>
<path d="M82.3064 44.9144C80.5394 43.1224 79.0846 41.7613 78.6413 41.4054C75.3633 38.8204 72.3038 37.2657 70.4307 37.6091C70.5805 37.2095 70.7491 36.7974 70.9364 36.4166C73.2029 35.5487 76.8993 37.8651 80.4333 41.0058C81.1388 41.6176 82.1316 42.5854 83.2679 43.7468C85.984 42.0922 90.8354 47.1559 88.5627 49.8345C88.8124 50.1717 89.1122 50.6587 89.3557 51.0021C89.0809 51.4267 88.6751 51.7076 88.0819 51.7514C87.8447 51.4079 87.6074 51.0583 87.3389 50.7086C84.267 52.0011 81.5509 47.2183 82.3064 44.9144Z" fill="#EDB266"/>
<path fill-rule="evenodd" clip-rule="evenodd" d="M123.634 38.6582C121.024 37.4656 118.507 36.3105 116.197 35.4301C107.369 32.0772 91.6466 26.464 74.2076 26.9822C56.7687 27.488 42.3267 32.7952 33.8726 38.9891C31.0754 41.0308 28.5404 44.1465 25.9492 47.3183C20.7169 53.737 15.2723 60.4116 7.01172 59.0817C15.7156 67.9666 28.2719 77.0139 34.01 77.5197H34.0724C40.9281 78.1253 61.9385 79.9735 90.4228 75.8526C118.52 71.8003 119.413 71.1198 126.537 65.7126C126.656 65.619 126.781 65.5253 126.905 65.4316C132.675 61.061 140.823 51.2894 145.287 44.671C139.043 45.695 130.976 42.0049 123.634 38.6457V38.6582ZM79.7459 32.9825C88.9805 32.9638 91.2158 38.5895 90.3604 45.9385H90.3729L92.4146 44.4399C92.4645 44.4025 92.527 44.365 92.6019 44.3151C93.1638 43.9467 94.3439 43.1725 94.0692 41.905C93.7757 40.4751 94.1691 39.5136 95.9798 39.2701C97.7905 39.0453 98.5398 40.0318 98.6646 42.2109C99.9633 41.9674 101.424 42.8228 101.281 44.9395C101.081 47.9427 98.3774 47.6555 97.3971 47.1747C96.4918 46.7377 96.036 47.1747 94.6186 48.5047C94.5 48.6171 94.3751 48.7357 94.2378 48.8606C92.1149 50.8399 86.8763 54.3301 86.8763 54.3301C87.0074 54.8921 87.176 55.4166 87.3321 55.8911C87.5506 56.5779 87.7442 57.1711 87.7629 57.6706C89.2115 58.8756 92.2085 61.1234 93.3636 61.5293C94.5187 61.9351 95.6301 61.6541 96.6104 61.2545C97.5907 60.8487 98.8332 62.6094 98.6709 63.9456C98.5647 64.9072 97.4783 65.7001 96.3794 65.7501C96.3794 65.7501 96.4044 68.0103 94.4438 68.5161C92.989 68.8907 92.5956 67.9479 92.1836 66.9489C92.0399 66.5992 91.8963 66.2496 91.6965 65.9374C90.941 64.7323 86.8139 61.498 85.5464 60.8424C84.7597 61.7977 84.0104 62.7093 83.7294 63.0965C83.18 63.8207 81.7439 64.4014 80.9572 63.4773C80.4702 63.8582 79.5835 64.364 78.7968 63.7396C78.4909 63.4961 78.0351 63.1589 77.5231 62.778C76.8987 62.3097 76.1807 61.779 75.55 61.2795C75.55 61.2795 72.3095 63.6896 69.6434 65.825H69.6559C70.043 66.3807 70.8797 70.358 67.3082 70.1395C63.7492 69.9085 64.3986 66.9926 64.3986 66.9926C62.5192 67.7793 60.3214 65.5877 61.7824 63.1776C63.231 60.7675 65.5037 61.0672 67.0023 61.9975C70.1866 59.6374 73.7269 57.4021 73.7269 57.4021C73.8705 56.0784 73.8018 54.2989 73.7269 52.7754C72.4156 51.8076 65.2478 46.694 64.1239 47.3558C62.9875 47.9989 61.5264 48.7107 60.4025 47.9177C59.2787 47.1123 58.1298 46.2319 58.9852 44.7709C59.8406 43.3098 61.8074 42.8353 61.8074 42.8353C61.4265 41.3805 61.8012 40.2379 63.5557 39.8133C65.3164 39.3887 65.9471 42.1984 65.9471 42.1984C66.3092 42.9851 67.4705 43.7406 68.8504 44.6335C69.1002 44.7958 69.3499 44.9582 69.6059 45.1268C69.581 43.0164 69.7558 40.806 70.4176 38.8455C70.5675 38.4459 70.7361 38.0338 70.9234 37.6529C72.2658 34.9431 74.857 32.9888 79.7272 32.9763H79.7459V32.9825Z" fill="#EDB266" stroke="#EDB266" stroke-width="1.87314" stroke-miterlimit="10"/>
<path d="M37.7688 20.7447C37.9249 25.2277 18.4692 30.9408 15.2974 32.8015C22.0095 23.1485 27.3042 12.2219 30.1452 5.8407C30.9131 10.817 34.3722 8.06974 37.7751 20.7447H37.7688Z" fill="#EDB266" stroke="#EDB266" stroke-width="1.87314" stroke-linejoin="round"/>
<path d="M36.9385 1.47009C42.8701 3.63045 48.8018 5.78457 54.7334 7.94493C48.6894 9.44969 42.4705 12.4217 37.4131 15.0566C35.6585 11.0356 33.9103 7.02084 32.1558 2.99983C33.7479 2.48783 35.3463 1.98209 36.9385 1.47009Z" fill="#EDB266" stroke="#EDB266" stroke-width="1.87314" stroke-linejoin="round"/>
<path d="M144.401 39.476H124.29L103.598 16.2803L127.206 26.4827C131.002 28.6867 137.395 33.738 137.395 33.738L144.401 39.4698V39.476Z" fill="#EDB266" stroke="#EDB266" stroke-width="1.87314" stroke-miterlimit="10"/>
<path d="M0.936967 48.3424C0.874528 48.3549 7.43053 40.9372 7.43053 40.9372C7.43053 40.9372 13.9179 37.2908 17.6579 35.3053C28.416 29.5797 45.6801 26.4828 38.8806 15.9308C38.2999 15.0379 37.7505 14.145 37.2323 13.2709L48.546 6.07178L58.7484 4.52332H81.3261L102.667 11.0169C102.667 11.0169 115.911 25.7335 121.049 32.1584V33.8567C109.804 28.9928 96.7296 21.9373 84.91 21.2442C58.992 19.7208 30.0831 30.1667 23.8268 40.625C17.9389 50.4528 5.89455 57.2835 5.89455 57.2835L1.91725 54.1991" fill="#EDB266"/>
<path d="M0.936967 48.3424C0.874528 48.3549 7.43053 40.9372 7.43053 40.9372C7.43053 40.9372 13.9179 37.2908 17.6579 35.3053C28.416 29.5797 45.6801 26.4828 38.8806 15.9308C38.2999 15.0379 37.7505 14.145 37.2323 13.2709L48.546 6.07178L58.7484 4.52332H81.3261L102.667 11.0169C102.667 11.0169 115.911 25.7335 121.049 32.1584V33.8567C109.804 28.9928 96.7296 21.9373 84.91 21.2442C58.9919 19.7208 30.0831 30.1667 23.8268 40.625C17.9389 50.4528 5.89455 57.2835 5.89455 57.2835L1.91725 54.1991" stroke="#EDB266" stroke-width="1.87314" stroke-miterlimit="10"/>
<path d="M3.39648 55.1418C8.10432 61.1484 25.0188 37.5967 25.0188 37.5967L35.1463 30.8159L47.0282 25.184L79.3462 19.0651L100.881 23.0174L121.991 34.0128L147.828 39.4698C147.828 39.4698 146.48 43.2723 145.169 45.2454L128.941 41.7426L114.805 38.0587C108.68 35.7298 89.6111 28.6243 89.6111 28.6243L71.4728 28.6556L53.6342 32.2895L31.7871 42.4169L22.8522 51.8201C22.8522 51.8201 12.4438 60.6489 7.66725 59.8871C7.66725 59.8871 4.66398 56.6903 3.40273 55.1418" fill="#EDB266"/>
<path d="M3.39648 55.1418C8.10432 61.1484 25.0188 37.5967 25.0188 37.5967L35.1463 30.8159L47.0282 25.184L79.3462 19.0651L100.881 23.0174L121.991 34.0128L147.828 39.4698C147.828 39.4698 146.48 43.2723 145.169 45.2454L128.941 41.7426L114.805 38.0587C108.68 35.7298 89.6111 28.6243 89.6111 28.6243L71.4728 28.6556L53.6342 32.2895L31.7871 42.4169L22.8522 51.8201C22.8522 51.8201 12.4438 60.6489 7.66725 59.8871C7.66725 59.8871 4.66398 56.6903 3.40273 55.1418" stroke="#EDB266" stroke-width="1.87314" stroke-miterlimit="10"/>
<path d="M15.7723 32.0584L37.7255 22.3867L30.2954 5.46597L32.1561 3.03088L37.1012 12.5777L39.8859 16.2865L41.4344 20.6759L37.7255 26.1829L16.3904 36.6975L7.42432 41.0245C7.42432 41.0245 11.5515 33.9378 15.7723 32.0584Z" fill="#EDB266" stroke="#EDB266" stroke-width="1.87314" stroke-linejoin="round"/>
</g>
<defs>
<clipPath id="clip0_537_5118">
<rect width="149.071" height="78.8594" fill="white" transform="translate(0 0.533325)"/>
</clipPath>
</defs>
</svg>
