<svg width="96" height="147" viewBox="0 0 96 147" fill="none" xmlns="http://www.w3.org/2000/svg">
<g clip-path="url(#clip0_537_4034)">
<path d="M58.114 25.3249L59.9614 21.7759L47.3809 0L35.0998 22.014L36.9932 25.5266V30.5434L47.5478 37.9916V38.1233L47.6399 38.056L47.7349 38.1233L47.732 37.986L58.1831 30.3418L58.114 25.3249Z" fill="#EDB266"/>
<path d="M59.2745 90.5101C59.2745 90.5101 58.7169 38.8631 59.0876 37.6267C59.4584 36.3903 62.4334 32.6783 62.4334 32.6783L59.2745 28.501H35.6763L32.5174 32.6783C32.5174 32.6783 35.4894 36.3903 35.8631 37.6267C36.1742 38.6642 35.8631 90.5101 35.8631 90.5101L33.8283 95.2659L18.3979 99.5611L7.51749 106.301L1.3849 115.352L3.56098 126.907L11.6718 135.38L28.0913 144.624L47.4782 146.67L63.5021 145.394L79.9216 139.039L87.2412 131.914L93.7694 118.233L89.4173 109.575L82.889 103.413C82.889 103.413 61.6889 95.2659 61.6947 95.2659L59.2745 90.5101Z" fill="#EDB266"/>
</g>
<defs>
<clipPath id="clip0_537_4034">
<rect width="95.061" height="146.703" fill="white"/>
</clipPath>
</defs>
</svg>
