<svg width="155" height="88" viewBox="0 0 155 88" fill="none" xmlns="http://www.w3.org/2000/svg">
<path d="M147.316 17.4246C148.479 17.7863 149.637 18.148 150.799 18.5052C151.758 17.6055 152.712 16.7013 153.671 15.8015L153.76 11.8759L153.424 8.45764L151.745 4.91584L148.894 2.66638C148.284 2.3444 147.294 1.92098 146.004 1.74896C144.678 1.57694 143.582 1.74895 142.906 1.90774C142.27 2.54729 141.633 3.18685 140.997 3.8264" fill="#EDB266"/>
<path d="M147.316 17.4246C148.479 17.7863 149.637 18.148 150.799 18.5052C151.758 17.6055 152.712 16.7013 153.671 15.8015L153.76 11.8759L153.424 8.45764L151.745 4.91584L148.894 2.66638C148.284 2.3444 147.294 1.92098 146.004 1.74896C144.678 1.57694 143.582 1.74895 142.906 1.90774C142.27 2.54729 141.633 3.18685 140.997 3.8264" stroke="#EDB266" stroke-width="1.63388" stroke-miterlimit="10"/>
<path d="M148.43 12.7536C149.933 12.2288 151.435 11.7039 152.942 11.179C152.933 10.3454 152.925 9.50736 152.916 8.67374C152.377 7.48285 151.837 6.29195 151.294 5.10547C150.388 4.51885 149.486 3.92781 148.58 3.34119C147.683 3.73374 146.786 4.13071 145.889 4.52326" fill="#EDB266"/>
<path d="M115.441 15.2631C123.392 11.8051 131.337 8.35149 139.287 4.89349C139.57 4.76999 141.484 3.93637 142.16 3.64526L146.994 3.75553L150.167 6.19465L151.515 9.97463L151.422 14.081L149.938 16.1805C149.429 16.4231 148.917 16.6657 148.408 16.9083C139.65 21.0808 130.891 25.2577 122.136 29.4303" fill="#EDB266"/>
<path d="M115.441 15.2631C123.392 11.8051 131.337 8.35149 139.287 4.89349C139.57 4.77 141.484 3.93637 142.16 3.64526L146.994 3.75553L150.167 6.19465L151.515 9.97463L151.422 14.081L149.938 16.1805C149.429 16.4231 148.917 16.6657 148.408 16.9083C139.65 21.0808 130.891 25.2577 122.136 29.4303" stroke="#EDB266" stroke-width="1.63388" stroke-miterlimit="10"/>
<path d="M113.546 34.7718C115.066 35.2438 116.582 35.7157 118.102 36.1877C119.352 35.01 120.603 33.8324 121.858 32.6503L121.977 27.5162L121.54 23.0438L119.344 18.4125L115.618 15.4706C114.823 15.0516 113.528 14.4914 111.835 14.2709C110.099 14.0459 108.667 14.2709 107.783 14.4782C106.952 15.3162 106.117 16.1542 105.286 16.9923" fill="#EDB266"/>
<path d="M113.546 34.7718C115.066 35.2438 116.582 35.7157 118.102 36.1877C119.352 35.01 120.603 33.8324 121.858 32.6503L121.977 27.5162L121.54 23.0438L119.344 18.4125L115.618 15.4706C114.823 15.0516 113.528 14.4914 111.835 14.2709C110.099 14.0459 108.667 14.2709 107.783 14.4782C106.952 15.3162 106.117 16.1542 105.286 16.9923" stroke="#EDB266" stroke-width="1.63388" stroke-miterlimit="10"/>
<path d="M115.384 30.9256C116.149 30.9433 116.914 30.9609 117.674 30.983C118.849 30.2861 120.025 29.5892 121.2 28.8879C121.222 27.8778 121.244 26.8678 121.271 25.8577C121.178 24.9932 121.081 24.1287 120.988 23.2642C120.263 21.6631 119.534 20.062 118.809 18.461C117.731 17.7596 116.653 17.0583 115.574 16.3615C114.947 16.6834 114.315 17.0054 113.688 17.3274" fill="#EDB266"/>
<path d="M71.855 31.9399C82.2533 27.4189 92.6472 22.8979 103.046 18.377C103.417 18.2182 105.918 17.1287 106.802 16.745L113.126 16.8905L117.275 20.0795L119.039 25.0239L118.915 30.3917L116.975 33.1396C116.307 33.4572 115.64 33.7747 114.973 34.0923C103.518 39.5528 92.0639 45.0088 80.6094 50.4693" fill="#EDB266"/>
<path d="M71.855 31.9399C82.2533 27.4189 92.6472 22.8979 103.046 18.377C103.417 18.2182 105.918 17.1287 106.802 16.745L113.126 16.8905L117.275 20.0795L119.039 25.0239L118.915 30.3917L116.975 33.1396C116.307 33.4572 115.64 33.7747 114.973 34.0923C103.518 39.5528 92.0639 45.0088 80.6094 50.4693" stroke="#EDB266" stroke-width="1.63388" stroke-miterlimit="10"/>
<path d="M61.1519 32.509C62.5969 31.5254 64.042 30.5418 65.4871 29.5538L71.9877 32.509L75.7794 36.858L78.2187 40.9158L79.845 46.5924V51.1884C79.1909 53.3011 78.5325 55.4138 77.8785 57.531C76.5483 58.1617 75.2181 58.7924 73.8835 59.4276C73.0041 59.4276 72.1247 59.4276 71.2497 59.4276" fill="#EDB266"/>
<path d="M61.1519 32.509C62.5969 31.5254 64.042 30.5418 65.4871 29.5538L71.9877 32.509L75.7794 36.858L78.2187 40.9158L79.845 46.5924V51.1884C79.1909 53.3011 78.5325 55.4138 77.8785 57.531C76.5483 58.1617 75.2181 58.7924 73.8835 59.4276C73.0041 59.4276 72.1247 59.4276 71.2497 59.4276" stroke="#EDB266" stroke-width="1.63388" stroke-miterlimit="10"/>
<path d="M79.3631 46.8966C79.098 45.5734 78.7268 44.14 78.2009 42.6315C78.0285 42.1331 77.8474 41.6523 77.6573 41.1936C77.6573 41.1936 76.8133 39.7645 75.5008 37.5415C74.4755 36.3198 73.4503 35.0936 72.425 33.8718C68.2842 35.6538 64.1391 37.4401 59.9983 39.222C59.4017 40.9069 58.8051 42.5918 58.2041 44.2767C59.7331 47.6641 61.2578 51.0515 62.7868 54.439C64.7401 56.3885 66.6889 58.3336 68.6422 60.2832C69.009 57.3897 69.3714 54.4919 69.7381 51.5985C72.9465 50.0327 76.1548 48.4625 79.3631 46.8966Z" fill="#EDB266"/>
<path d="M8.52393 55.0565C8.52393 55.0565 63.5913 31.7195 63.8653 32.5311C64.1393 33.3426 67.9309 34.4233 67.9309 34.4233L73.0793 38.2076L75.7882 46.0499V55.0565L74.162 57.95L18.2903 86.3417" fill="#EDB266"/>
<path d="M8.52393 55.0565C8.52393 55.0565 63.5913 31.7195 63.8653 32.5311C64.1393 33.3426 67.9309 34.4233 67.9309 34.4233L73.0793 38.2076L75.7882 46.0499V55.0565L74.162 57.95L18.2903 86.3417" stroke="#EDB266" stroke-width="1.63388" stroke-miterlimit="10"/>
<path d="M112.901 17.4598C110.877 17.3671 108.853 17.2745 106.829 17.1819C95.2681 22.1528 83.7075 27.1192 72.147 32.0901C72.9645 32.9061 73.7821 33.722 74.604 34.5424C87.371 28.8482 100.134 23.154 112.901 17.4598Z" fill="#EDB266"/>
<path d="M141.913 4.37316C143.482 4.307 145.055 4.24084 146.624 4.17468C137.37 8.51041 128.112 12.8461 118.858 17.1819C118.04 16.5511 117.227 15.9204 116.41 15.2897C124.912 11.6508 133.415 8.012 141.913 4.37316Z" fill="#EDB266"/>
<path d="M34.147 68.1301C33.3074 65.2764 32.4633 62.4226 31.6237 59.5733C29.6085 57.4429 27.5978 55.3126 25.5827 53.1778C22.5776 52.1545 19.577 51.1268 16.572 50.1035C15.255 50.8401 13.9337 51.5811 12.6168 52.3177C11.5606 54.2363 10.5044 56.1506 9.44824 58.0693C9.54546 60.4643 9.63828 62.8637 9.7355 65.2587C11.4634 69.0916 13.1913 72.9245 14.9192 76.7618C17.1288 78.9672 19.3384 81.1725 21.5435 83.3735C23.3466 83.3735 25.154 83.3735 26.957 83.3735L34.1426 79.6376C34.1691 77.816 34.1956 75.9944 34.2222 74.1727C34.2001 72.157 34.1736 70.1414 34.147 68.1301Z" fill="#EDB266" stroke="#EDB266" stroke-width="1.63388" stroke-miterlimit="10"/>
<path d="M33.404 67.3935C32.6616 64.875 31.9192 62.3521 31.1723 59.8336C29.3914 57.9502 27.6149 56.0668 25.8339 54.1835C21.7639 56.0536 17.6938 57.9282 13.6282 59.7983C13.0316 61.4832 12.435 63.1681 11.834 64.853C13.363 68.2404 14.8876 71.6278 16.4167 75.0152C18.3699 76.9648 20.3188 78.9099 22.2721 80.8594C23.1736 79.4921 24.0795 78.1292 24.981 76.7619C30.5139 74.1331 33.4703 72.7261 33.4703 72.7261C33.4747 72.7261 33.4482 70.8559 33.404 67.3935Z" fill="#EDB266"/>
<path d="M30.2489 69.7311C28.9187 67.1156 27.5885 64.5044 26.2584 61.8889C24.9017 59.8159 23.5494 57.7428 22.1927 55.6698C19.3689 54.7038 16.545 53.7423 13.7211 52.7764C10.747 54.2319 7.77291 55.683 4.80322 57.1386C5.63403 60.4333 6.46484 63.7282 7.29565 67.0274C8.9219 70.6309 10.5482 74.2389 12.17 77.8424C14.247 79.9154 16.324 81.9885 18.401 84.0615C18.3657 84.8202 18.3303 85.5832 18.2906 86.3418C22.2767 84.41 26.2628 82.4781 30.2444 80.5462C30.271 78.8348 30.293 77.1191 30.3196 75.4077C30.2975 73.5155 30.271 71.6233 30.2489 69.7311Z" fill="#EDB266" stroke="#EDB266" stroke-width="1.63388" stroke-miterlimit="10"/>
<path d="M25.047 72.0114C23.7169 69.3959 22.3867 66.7847 21.0565 64.1692C19.6998 62.0961 18.3476 60.0231 16.9909 57.9501C14.167 56.9841 11.3432 56.0226 8.51932 55.0566C7.27753 55.7491 6.04014 56.446 4.79835 57.1385C3.80403 58.9425 2.80972 60.742 1.81982 62.546C1.90821 64.7999 2.00103 67.0538 2.08941 69.3076C3.71567 72.9112 5.34192 76.5192 6.96376 80.1227C9.04077 82.1957 11.1178 84.2688 13.1948 86.3418C14.8918 86.3418 16.5887 86.3418 18.2857 86.3418L25.0426 82.8265C25.0691 81.1151 25.0912 79.3993 25.1178 77.688C25.0957 75.7958 25.0735 73.9036 25.047 72.0114Z" fill="#EDB266" stroke="#EDB266" stroke-width="0.544627" stroke-miterlimit="10"/>
<path d="M15.126 82.2839C13.2611 79.9419 11.3918 77.5954 9.52687 75.2533C8.38231 71.588 7.23776 67.9227 6.09319 64.2574C6.9019 61.1919 7.71061 58.1221 8.51932 55.0566C7.27753 55.7491 6.04014 56.446 4.79835 57.1385C3.80403 58.9425 2.80972 60.742 1.81982 62.546C1.90821 64.7999 2.00103 67.0538 2.08941 69.3076C3.71567 72.9112 5.34192 76.5192 6.96376 80.1227C9.04077 82.1957 11.1178 84.2688 13.1948 86.3418C14.8918 86.3418 16.5887 86.3418 18.2857 86.3418L25.0426 82.8265C21.7415 82.6456 18.4315 82.4648 15.126 82.2839Z" fill="#EDB266" stroke="#EDB266" stroke-width="1.63388" stroke-miterlimit="10"/>
<path d="M1.14355 62.868C1.338 65.1792 1.53245 67.486 1.72689 69.7972C3.56085 73.4272 5.39039 77.0528 7.22435 80.6828C9.15111 82.4427 11.0779 84.2026 13.0046 85.9669C15.0463 86.1654 17.088 86.3594 19.1296 86.5579L25.9042 82.6412C26.2445 81.3665 26.5759 79.5846 26.5273 77.4498C26.4699 74.9269 25.9042 72.8891 25.4137 71.535C24.1763 68.8401 22.9433 66.1451 21.706 63.4502C19.9737 61.4522 18.2413 59.4585 16.509 57.4605C15.5059 56.7856 13.9371 55.8991 11.8556 55.3566C10.2029 54.9243 8.74895 54.8449 7.67951 54.8714C6.43772 55.6388 5.19594 56.4063 3.95415 57.1782C3.0217 59.0792 2.08042 60.9758 1.14355 62.868ZM4.11323 67.2081C3.97624 66.0966 3.95414 65.0954 3.98066 64.2353C3.97182 63.7501 4.01161 63.0841 4.21489 62.3343C4.50214 61.3022 4.97938 60.548 5.32408 60.0892C6.51284 59.485 7.70161 58.8763 8.89478 58.272C11.0072 58.9513 13.1195 59.6305 15.2363 60.3098C16.4074 61.9417 17.5785 63.5737 18.7495 65.2057C19.3152 66.0128 19.9472 67.0494 20.5084 68.3108C21.0961 69.634 21.4541 70.847 21.6706 71.8438C22.1391 73.9609 22.5412 74.9798 22.5235 76.0119C22.5103 76.8102 22.3733 78.1158 21.6088 79.6949C20.146 80.5417 18.6789 81.3842 17.2161 82.231C15.8727 82.3192 14.5337 82.4118 13.1902 82.5001C11.7805 81.2518 10.3664 80.008 8.95666 78.7598C8.17005 77.4498 7.37016 75.9943 6.59681 74.3976C5.82787 72.8141 5.17825 71.3013 4.63469 69.881C4.42699 69.118 4.23697 68.2182 4.11323 67.2081Z" fill="#EDB266" stroke="#EDB266" stroke-width="1.63388" stroke-miterlimit="10"/>
<path d="M34.172 66.1581C33.4958 63.9043 32.8241 61.6548 32.148 59.4009C30.7427 57.9013 29.3418 56.3972 27.9365 54.8976C41.8348 48.7932 55.7376 42.6932 69.6359 36.5887C70.67 37.29 71.7085 37.9914 72.7426 38.6882C73.5336 41.2685 74.3246 43.8488 75.1157 46.429C53.475 56.8559 41.8437 62.4575 41.8437 62.4575C41.8437 62.4575 36.7881 66.5419 36.8677 70.9393C36.903 73.0477 37.7957 73.7578 37.1196 74.9751C36.5009 76.0866 34.826 77.057 34.826 77.057C34.8481 75.672 34.8304 74.2209 34.7597 72.7036C34.6625 70.3704 34.4504 68.1782 34.172 66.1581Z" fill="#EDB266"/>
<path d="M80.0921 45.6222C79.5663 43.8623 79.0404 42.1024 78.5145 40.3426C77.5909 38.8297 76.6629 37.3168 75.7393 35.8083C88.4974 29.9509 101.251 24.0935 114.009 18.2361C114.964 18.9683 115.918 19.7004 116.873 20.437C117.881 23.2996 118.526 25.1388 118.526 25.1388C118.521 25.2712 118.508 25.5358 118.495 25.8666C118.38 28.1955 118.159 30.2906 118.159 30.2906C118.159 30.2906 117.598 31.0977 116.555 32.5929C116.718 31.6755 116.365 30.7669 115.653 30.2906C114.924 29.8054 114.124 29.9642 113.961 29.9994C107.92 32.787 101.879 35.5702 95.8377 38.3577C90.5877 40.7792 85.3377 43.2007 80.0921 45.6222Z" fill="#EDB266"/>
<path d="M122.366 24.6847C122.295 24.0584 122.225 23.4277 122.154 22.8014C121.266 21.0724 120.373 19.3434 119.485 17.6144C128.911 13.4551 138.333 9.29577 147.759 5.13647C148.435 5.5996 149.111 6.06272 149.783 6.52585C150.167 7.70791 150.552 8.8944 150.936 10.0765C150.773 12.5156 150.684 13.8035 150.684 13.8035C150.684 13.8035 150.331 14.5666 149.783 15.7531C149.61 14.3725 149.102 13.8123 148.696 13.5477C147.772 12.9478 138.806 17.138 139.747 16.7278C139.747 16.7278 133.785 19.458 122.366 24.6847Z" fill="#EDB266"/>
<path d="M33.5224 54.5183C32.1525 55.1888 30.703 54.7212 30.2434 53.7994C29.8147 52.9393 30.3715 51.9425 30.4334 51.841C36.4567 48.9917 61.1953 37.3519 64.9914 36.999C65.557 36.9461 67.0728 36.7829 67.5324 37.59C67.8462 38.1414 67.7755 38.8735 67.3822 39.4646C56.0956 44.484 44.809 49.5034 33.5224 54.5183Z" fill="#EDB266"/>
<path d="M76.8396 37.6033C76.5524 37.149 76.2254 36.6771 75.8586 36.1919C75.346 35.5127 74.8289 34.9172 74.3384 34.3968C87.3352 28.8569 100.328 23.3215 113.324 17.7816C114.314 18.5182 115.304 19.2504 116.294 19.987C103.138 25.8576 89.9867 31.7327 76.8396 37.6033Z" fill="#EDB266"/>
<path d="M120.294 19.193C120.077 18.7696 119.861 18.3462 119.649 17.9227C119.286 17.6228 118.928 17.3229 118.566 17.0186C128.067 12.8681 137.573 8.72201 147.074 4.57153C147.777 5.12287 148.479 5.67421 149.178 6.22114C139.553 10.548 129.923 14.8705 120.294 19.193Z" fill="#EDB266"/>
<path d="M29.7173 69.934C28.5242 70.6265 27.3266 71.319 26.1334 72.0115C22.6776 63.9046 22.5008 63.4812 22.5008 63.4812C22.5008 63.4812 20.9629 61.686 18.064 58.303C19.3853 57.637 20.7022 56.971 22.0236 56.3005C23.1858 58.1177 24.348 59.935 25.5059 61.7522C25.5059 61.7522 26.8714 64.3986 29.7173 69.934Z" fill="#EDB266"/>
<path d="M23.2661 49.596C28.7901 46.5879 34.7958 43.9988 40.6114 41.5861C46.4624 39.2485 52.5609 36.9108 58.624 35.2083C53.1 38.2208 47.0943 40.8054 41.2787 43.2181C35.4277 45.5558 29.3292 47.8934 23.2661 49.596Z" fill="#EDB266"/>
<path d="M34.8223 68.1919C39.1619 66.1188 43.5015 64.0502 47.8368 61.9772C43.5413 65.4881 39.2503 68.999 34.9549 72.5055C34.9107 71.0721 34.8665 69.6298 34.8223 68.1919Z" fill="#EDB266"/>
<path d="M34.8223 73.458C37.6152 72.126 40.4081 70.7896 43.2055 69.4575C40.417 71.9937 37.624 74.5254 34.8355 77.0616C34.8267 75.8575 34.8223 74.6577 34.8223 73.458Z" fill="#EDB266"/>
<path d="M75.2042 52.375C69.2162 54.576 63.2238 56.7769 57.2358 58.9778C63.2415 56.0976 72.4334 51.3694 72.1461 49.2963C72.0312 48.4539 71.5584 48.1451 71.5584 48.1451C70.595 47.5232 69.0615 48.9302 68.7389 48.595C68.2838 48.1187 70.0426 44.0035 72.6234 44.2902C74.1525 44.4578 75.0407 46.0677 75.16 46.2971C75.1733 48.3216 75.1865 50.3461 75.2042 52.375Z" fill="#EDB266"/>
<path d="M75.1558 54.8933C71.479 56.243 67.7979 57.5971 64.1211 58.9468C67.789 56.3489 71.4613 53.7554 75.1293 51.1575C75.1381 52.4057 75.1469 53.6495 75.1558 54.8933Z" fill="#EDB266"/>
<path d="M11.0508 68.6196C11.7667 71.6674 13.994 73.2552 13.3709 74.0668C13.088 74.4373 12.3942 74.402 12.0009 74.305C10.5337 73.9433 9.96368 71.8967 8.88098 67.808C8.13855 65.0116 8.16948 64.1736 8.67768 63.6134C9.13728 63.1062 10.0167 62.793 10.5647 63.1018C11.5546 63.6752 10.3702 65.7305 11.0508 68.6196Z" fill="#EDB266"/>
</svg>
