<svg width="138" height="119" viewBox="0 0 138 119" fill="none" xmlns="http://www.w3.org/2000/svg">
<path d="M41.0244 26.759C41.2096 26.9092 41.4757 27.1256 41.8115 27.3987C42.5075 27.9647 43.5037 28.7766 44.7031 29.759C47.1026 31.7244 50.3149 34.3713 53.5684 37.1008C56.8242 39.8323 60.1124 42.6384 62.667 44.9241C63.9458 46.0682 65.0277 47.0711 65.8262 47.8625C66.0397 48.0742 66.2284 48.268 66.3936 48.4417C62.8567 51.6505 52.4147 59.9143 37.4238 59.7083L36.6191 59.6887C33.6599 59.5887 29.6439 58.8125 26.2949 58.0344C24.636 57.649 23.1679 57.2694 22.1152 56.9866C21.5895 56.8453 21.1681 56.7282 20.8789 56.6467C20.7844 56.6201 20.7039 56.597 20.6387 56.5784L11.8574 50.8967L4.92188 44.4749C4.85055 44.3407 4.75054 44.1517 4.62989 43.925C4.38176 43.459 4.0476 42.8319 3.70509 42.1917C3.13178 41.12 2.48886 39.9288 2.21583 39.4485L1.63087 37.7512C2.02737 37.151 2.42382 36.5507 2.82032 35.9504C3.41196 35.4385 4.94344 34.0674 6.36231 32.7903C7.17595 32.058 7.96869 31.3435 8.55762 30.8118C8.85198 30.546 9.09558 30.3258 9.26563 30.1721C9.28252 30.1569 9.29807 30.1411 9.31348 30.1272L17.1982 27.3303L30.1807 24.9934L41.0244 26.759Z" fill="#EDB266" stroke="#EDB266" stroke-width="2.95033"/>
<mask id="path-2-inside-1_300_5446" fill="white">
<path d="M91.65 88.3985C91.6427 88.4058 88.4149 98.2502 88.4149 98.2502L83.83 107.06L74.2189 115.604C74.2189 115.604 69.7145 117.704 67.1829 118.807C66.2715 117.868 62.2051 114.002 62.2051 114.002L57.6666 105.191L54.4628 93.7116L55.2637 80.8968L56.5986 71.2857C56.5986 71.2857 67.1116 59.0364 74.3906 54.2997C77.8818 52.0289 82.6094 52.9605 84.9804 56.3886C90.3853 64.2109 92.3732 79.028 92.3732 79.028C92.3732 79.028 91.65 88.3985 91.6427 88.4058"/>
</mask>
<path d="M91.65 88.3985C91.6427 88.4058 88.4149 98.2502 88.4149 98.2502L83.83 107.06L74.2189 115.604C74.2189 115.604 69.7145 117.704 67.1829 118.807C66.2715 117.868 62.2051 114.002 62.2051 114.002L57.6666 105.191L54.4628 93.7116L55.2637 80.8968L56.5986 71.2857C56.5986 71.2857 67.1116 59.0364 74.3906 54.2997C77.8818 52.0289 82.6094 52.9605 84.9804 56.3886C90.3853 64.2109 92.3732 79.028 92.3732 79.028C92.3732 79.028 91.65 88.3985 91.6427 88.4058" fill="#EDB266"/>
<path d="M55.9313 93.8515L58.0671 71.4256L55.1301 71.1459L52.9943 93.5717L55.9313 93.8515ZM90.9283 78.7305L86.9701 97.9526L89.8598 98.5477L93.8181 79.3255L90.9283 78.7305ZM67.1829 118.807L65.0655 120.862L66.4883 122.328L68.3613 121.512L67.1829 118.807ZM55.2637 80.8968L52.3415 80.4909L52.3261 80.6014L52.3191 80.7128L55.2637 80.8968ZM74.3906 54.2997L72.7819 51.8265L72.7815 51.8269L74.3906 54.2997ZM84.9804 56.3886L87.4077 54.7115L87.4069 54.7103L84.9804 56.3886ZM62.2051 114.002L59.5824 115.353L59.8108 115.796L60.1722 116.14L62.2051 114.002ZM57.6666 105.191L54.8248 105.985L54.9058 106.275L55.0438 106.543L57.6666 105.191ZM54.4628 93.7116L51.5182 93.5276L51.4871 94.0248L51.6211 94.5047L54.4628 93.7116ZM56.5986 71.2857L54.3598 69.3643L53.7955 70.0217L53.6763 70.8799L56.5986 71.2857ZM92.3732 79.028L95.3148 79.255L95.3388 78.9444L95.2973 78.6357L92.3732 79.028ZM88.4149 98.2502L91.0321 99.6121L91.1433 99.3984L91.2184 99.1694L88.4149 98.2502ZM83.83 107.06L85.7901 109.265L86.1963 108.904L86.4472 108.422L83.83 107.06ZM74.2189 115.604L75.4659 118.277L75.8567 118.095L76.179 117.809L74.2189 115.604ZM75.9993 56.7729C78.151 55.3733 81.0906 55.9512 82.554 58.0669L87.4069 54.7103C84.1281 49.9699 77.6125 48.6845 72.7819 51.8265L75.9993 56.7729ZM69.3002 116.753C68.7981 116.235 67.5058 114.989 66.3942 113.923C65.8264 113.378 65.2876 112.864 64.8909 112.485C64.6925 112.296 64.5295 112.141 64.416 112.033C64.3593 111.979 64.3149 111.937 64.2846 111.908C64.2695 111.893 64.2579 111.882 64.2501 111.875C64.2462 111.871 64.2432 111.868 64.2412 111.866C64.2402 111.866 64.2394 111.865 64.2389 111.864C64.2386 111.864 64.2385 111.864 64.2383 111.864C64.2382 111.864 64.2382 111.864 64.2382 111.864C64.2381 111.864 64.2381 111.864 62.2051 114.002C60.1722 116.14 60.1722 116.14 60.1722 116.14C60.1722 116.14 60.1723 116.14 60.1723 116.14C60.1724 116.14 60.1726 116.14 60.1728 116.14C60.1733 116.141 60.174 116.142 60.175 116.142C60.1769 116.144 60.1797 116.147 60.1835 116.151C60.1912 116.158 60.2025 116.169 60.2174 116.183C60.2472 116.211 60.2911 116.253 60.3473 116.306C60.4597 116.413 60.6215 116.568 60.8186 116.756C61.2128 117.131 61.7476 117.642 62.3103 118.182C63.4597 119.284 64.6563 120.44 65.0655 120.862L69.3002 116.753ZM64.8279 112.651L60.2893 103.84L55.0438 106.543L59.5824 115.353L64.8279 112.651ZM60.5083 104.398L57.3046 92.9185L51.6211 94.5047L54.8248 105.985L60.5083 104.398ZM57.4074 93.8956L58.2083 81.0809L52.3191 80.7128L51.5182 93.5276L57.4074 93.8956ZM58.186 81.3027L59.5209 71.6916L53.6763 70.8799L52.3415 80.4909L58.186 81.3027ZM56.5986 71.2857C58.8374 73.2072 58.8373 73.2073 58.8373 73.2074C58.8373 73.2074 58.8373 73.2074 58.8374 73.2073C58.8375 73.2072 58.8378 73.2068 58.8382 73.2063C58.8391 73.2053 58.8406 73.2035 58.8428 73.201C58.8471 73.196 58.8539 73.1881 58.8632 73.1773C58.8817 73.1559 58.91 73.1231 58.9477 73.0796C59.0232 72.9925 59.1361 72.8627 59.2833 72.6948C59.5776 72.359 60.0083 71.8715 60.5487 71.2706C61.6304 70.0678 63.1468 68.4162 64.8846 66.6212C68.4186 62.9711 72.6657 58.9422 75.9998 56.7726L72.7815 51.8269C68.8365 54.394 64.1876 58.8581 60.6453 62.5168C58.8451 64.3762 57.2782 66.0829 56.1613 67.3249C55.6024 67.9464 55.1549 68.4529 54.8458 68.8055C54.6913 68.9818 54.5713 69.1197 54.4892 69.2145C54.4481 69.2618 54.4165 69.2984 54.3948 69.3236C54.384 69.3361 54.3756 69.3459 54.3697 69.3527C54.3668 69.3561 54.3645 69.3588 54.3628 69.3607C54.362 69.3617 54.3613 69.3624 54.3608 69.363C54.3606 69.3633 54.3603 69.3636 54.3602 69.3638C54.36 69.364 54.3598 69.3643 56.5986 71.2857ZM82.5532 58.0657C84.938 61.5172 86.6852 66.7404 87.8417 71.3584C88.4081 73.6198 88.8121 75.6488 89.0741 77.111C89.2049 77.841 89.2998 78.4268 89.3614 78.8262C89.3923 79.0259 89.4148 79.1788 89.4293 79.2796C89.4365 79.33 89.4417 79.3674 89.445 79.391C89.4467 79.4029 89.4478 79.4113 89.4485 79.4162C89.4488 79.4187 89.4491 79.4202 89.4491 79.4209C89.4492 79.4213 89.4492 79.4214 89.4492 79.4213C89.4492 79.4212 89.4492 79.421 89.4492 79.421C89.4491 79.4207 89.4491 79.4203 92.3732 79.028C95.2973 78.6357 95.2973 78.6352 95.2972 78.6347C95.2972 78.6344 95.2971 78.6339 95.297 78.6334C95.2969 78.6324 95.2967 78.6311 95.2965 78.6297C95.2961 78.6268 95.2956 78.6229 95.295 78.6182C95.2937 78.6088 95.2919 78.5959 95.2896 78.5795C95.2851 78.5466 95.2785 78.4998 95.2699 78.4398C95.2526 78.3197 95.2271 78.1466 95.193 77.9259C95.1249 77.4845 95.0222 76.8516 94.8822 76.0702C94.6026 74.5097 94.1718 72.3456 93.5656 69.9249C92.377 65.1788 90.4278 59.0823 87.4077 54.7115L82.5532 58.0657ZM92.3732 79.028C89.4316 78.801 89.4316 78.801 89.4316 78.8011C89.4316 78.8011 89.4316 78.8013 89.4316 78.8014C89.4316 78.8017 89.4315 78.8021 89.4315 78.8027C89.4314 78.8038 89.4313 78.8055 89.4311 78.8077C89.4307 78.8122 89.4302 78.819 89.4295 78.8278C89.4282 78.8455 89.4261 78.8718 89.4235 78.9061C89.4182 78.9747 89.4104 79.0754 89.4005 79.2035C89.3807 79.4597 89.3525 79.8257 89.3185 80.2649C89.2506 81.1433 89.16 82.3146 89.0692 83.4861C88.9783 84.6577 88.8873 85.8288 88.8186 86.7073C88.7842 87.1467 88.7555 87.5117 88.7352 87.7664C88.725 87.8942 88.7171 87.9919 88.7118 88.0566C88.709 88.0899 88.7074 88.1097 88.7065 88.1192C88.706 88.1256 88.7065 88.1194 88.7077 88.1074C88.708 88.1045 88.7102 88.0813 88.7139 88.0508C88.7151 88.0407 88.7205 87.9957 88.7297 87.9383C88.7354 87.9038 88.7539 87.8067 88.7675 87.7445C88.8045 87.6002 89.137 86.8484 89.5559 86.3202L93.7295 90.4914C94.1485 89.9632 94.481 89.2112 94.5181 89.0667C94.5317 89.0044 94.5502 88.9071 94.556 88.8722C94.5653 88.8142 94.5708 88.7684 94.5722 88.757C94.5761 88.7241 94.5788 88.6975 94.5795 88.6899C94.5816 88.6687 94.5834 88.6488 94.5844 88.6373C94.5867 88.6109 94.5895 88.5777 94.5925 88.5419C94.5985 88.4686 94.6069 88.3642 94.6172 88.2351C94.6379 87.976 94.6668 87.6077 94.7013 87.1676C94.7702 86.287 94.8613 85.1142 94.9522 83.9422C95.0431 82.7701 95.1337 81.5984 95.2016 80.7196C95.2356 80.2803 95.2639 79.9141 95.2837 79.6578C95.2936 79.5297 95.3014 79.429 95.3067 79.3603C95.3093 79.326 95.3113 79.2997 95.3127 79.2819C95.3134 79.2731 95.3139 79.2663 95.3143 79.2618C95.3144 79.2596 95.3146 79.2579 95.3147 79.2567C95.3147 79.2562 95.3147 79.2557 95.3148 79.2555C95.3148 79.2553 95.3148 79.2552 95.3148 79.2551C95.3148 79.2551 95.3148 79.255 92.3732 79.028ZM89.5632 86.3129C89.2646 86.6623 88.9827 87.1376 88.9441 87.2227C88.9284 87.2594 88.9052 87.3166 88.8971 87.3372C88.8839 87.3716 88.8741 87.399 88.8715 87.406C88.8644 87.4261 88.8586 87.4428 88.8567 87.4483C88.8517 87.4631 88.8466 87.478 88.843 87.489C88.8349 87.5129 88.8243 87.5448 88.8121 87.5818C88.7872 87.6568 88.7515 87.765 88.7069 87.9003C88.6175 88.1715 88.4905 88.5576 88.3386 89.0198C88.0347 89.9444 87.6304 91.1761 87.2264 92.4072C86.8225 93.6384 86.4187 94.8693 86.1159 95.7924C85.9646 96.254 85.8384 96.6386 85.7502 96.9078C85.706 97.0425 85.6713 97.1482 85.6477 97.2203C85.6359 97.2564 85.6268 97.284 85.6207 97.3027C85.6176 97.312 85.6153 97.3191 85.6138 97.3238C85.613 97.3262 85.6124 97.3279 85.612 97.3291C85.6118 97.3297 85.6117 97.3302 85.6116 97.3305C85.6115 97.3306 85.6115 97.3308 85.6115 97.3308C85.6114 97.3309 85.6114 97.3309 88.4149 98.2502C91.2184 99.1694 91.2184 99.1693 91.2184 99.1693C91.2184 99.1692 91.2185 99.1691 91.2185 99.1689C91.2186 99.1686 91.2188 99.1682 91.219 99.1676C91.2194 99.1664 91.2199 99.1646 91.2207 99.1623C91.2223 99.1575 91.2246 99.1505 91.2276 99.1412C91.2337 99.1225 91.2428 99.0949 91.2546 99.0589C91.2783 98.9868 91.3129 98.881 91.3571 98.7465C91.4453 98.4773 91.5714 98.0928 91.7228 97.6313C92.0255 96.7083 92.4291 95.4777 92.833 94.2469C93.2369 93.016 93.6409 91.7853 93.9443 90.862C94.0961 90.4002 94.2224 90.0161 94.3109 89.7475C94.3553 89.613 94.3897 89.5089 94.4129 89.4389C94.4246 89.4034 94.4326 89.3796 94.4372 89.3658C94.4398 89.3579 94.4396 89.3586 94.4379 89.3636C94.4377 89.3643 94.4332 89.3773 94.4269 89.3949C94.4249 89.4007 94.4154 89.4271 94.4024 89.4609C94.3945 89.4811 94.3713 89.5382 94.3558 89.5746C94.3172 89.6595 94.0354 90.1347 93.7368 90.4841L89.5632 86.3129ZM85.7978 96.8882L81.2129 105.698L86.4472 108.422L91.0321 99.6121L85.7978 96.8882ZM81.8699 104.855L72.2588 113.398L76.179 117.809L85.7901 109.265L81.8699 104.855ZM74.2189 115.604C72.9719 112.93 72.9719 112.93 72.9719 112.93C72.9719 112.93 72.9719 112.93 72.9718 112.93C72.9717 112.93 72.9715 112.93 72.9713 112.93C72.9708 112.93 72.97 112.931 72.969 112.931C72.9669 112.932 72.9637 112.933 72.9595 112.935C72.9512 112.939 72.9386 112.945 72.922 112.953C72.8888 112.968 72.8396 112.991 72.7761 113.021C72.6489 113.08 72.4641 113.166 72.2343 113.272C71.7747 113.486 71.1357 113.781 70.4181 114.111C68.9766 114.774 67.2409 115.564 66.0044 116.102L68.3613 121.512C69.6565 120.948 71.4388 120.136 72.8824 119.472C73.6074 119.139 74.2527 118.841 74.7168 118.626C74.9489 118.518 75.1358 118.431 75.2648 118.371C75.3294 118.341 75.3794 118.318 75.4135 118.302C75.4305 118.294 75.4435 118.288 75.4523 118.284C75.4567 118.282 75.4601 118.28 75.4623 118.279C75.4635 118.278 75.4644 118.278 75.4649 118.278C75.4652 118.278 75.4655 118.278 75.4656 118.277C75.4657 118.277 75.4658 118.277 75.4658 118.277C75.4659 118.277 75.4659 118.277 74.2189 115.604Z" fill="#EDB266" mask="url(#path-2-inside-1_300_5446)"/>
<mask id="path-4-inside-2_300_5446" fill="white">
<path d="M54.6526 83.595C54.643 83.5915 44.3584 84.8401 44.3584 84.8401L34.4355 84.4213L22.6242 79.3368C22.6242 79.3368 18.8125 76.1472 16.7405 74.3217C17.2049 73.0981 18.9834 67.7764 18.9834 67.7764L25.0397 59.9317L34.0798 52.1646L46.0262 47.4589L55.2972 44.5946C55.2972 44.5946 70.8475 48.9253 78.2228 53.5108C81.7592 55.7105 82.919 60.3873 80.8189 63.9878C76.0245 72.1984 63.4465 80.2787 63.4465 80.2787C63.4465 80.2787 54.6526 83.595 54.643 83.5915"/>
</mask>
<path d="M54.6526 83.595C54.643 83.5915 44.3584 84.8401 44.3584 84.8401L34.4355 84.4213L22.6242 79.3368C22.6242 79.3368 18.8125 76.1472 16.7405 74.3217C17.2049 73.0981 18.9834 67.7764 18.9834 67.7764L25.0397 59.9317L34.0798 52.1646L46.0262 47.4589L55.2972 44.5946C55.2972 44.5946 70.8475 48.9253 78.2228 53.5108C81.7592 55.7105 82.919 60.3873 80.8189 63.9878C76.0245 72.1984 63.4465 80.2787 63.4465 80.2787C63.4465 80.2787 54.6526 83.595 54.643 83.5915" fill="#EDB266"/>
<path d="M34.5755 53.554L55.7929 45.984L54.8015 43.2052L33.5841 50.7752L34.5755 53.554ZM63.1036 78.8439L44.0156 83.4054L44.7013 86.2749L63.7893 81.7135L63.1036 78.8439ZM16.7405 74.3217L13.9822 73.2747L13.2571 75.1847L14.7901 76.5353L16.7405 74.3217ZM46.0262 47.4589L45.1553 44.64L45.0487 44.673L44.9449 44.7139L46.0262 47.4589ZM78.2228 53.5108L79.781 51.0055L79.7806 51.0052L78.2228 53.5108ZM80.8189 63.9878L83.3667 65.4755L83.3674 65.4743L80.8189 63.9878ZM18.9834 67.7764L16.6481 65.9735L16.3433 66.3682L16.1852 66.8412L18.9834 67.7764ZM25.0397 59.9317L23.117 57.6939L22.8885 57.8903L22.7043 58.1288L25.0397 59.9317ZM34.0798 52.1646L32.9985 49.4195L32.535 49.6021L32.1571 49.9268L34.0798 52.1646ZM55.2972 44.5946L56.0887 41.7525L55.2541 41.52L54.4263 41.7758L55.2972 44.5946ZM63.4465 80.2787L64.4875 83.0392L64.779 82.9293L65.0411 82.761L63.4465 80.2787ZM44.3584 84.8401L44.234 87.7878L44.4748 87.798L44.714 87.769L44.3584 84.8401ZM34.4355 84.4213L33.269 87.1312L33.7681 87.3461L34.3111 87.369L34.4355 84.4213ZM22.6242 79.3368L20.7309 81.5995L21.0616 81.8762L21.4576 82.0467L22.6242 79.3368ZM76.6645 56.016C78.8441 57.3717 79.5665 60.2792 78.2704 62.5013L83.3674 65.4743C86.2714 60.4954 84.6743 54.0492 79.781 51.0055L76.6645 56.016ZM19.4988 75.3686C19.7546 74.6946 20.336 72.9958 20.8304 71.5372C21.0828 70.7922 21.3205 70.0861 21.4951 69.5664C21.5824 69.3065 21.6539 69.0931 21.7037 68.9445C21.7286 68.8702 21.748 68.8121 21.7613 68.7725C21.7679 68.7527 21.7729 68.7376 21.7764 68.7273C21.7781 68.7222 21.7794 68.7183 21.7803 68.7157C21.7807 68.7144 21.781 68.7134 21.7813 68.7127C21.7814 68.7123 21.7815 68.7121 21.7815 68.7119C21.7816 68.7118 21.7816 68.7117 21.7816 68.7117C21.7816 68.7116 21.7816 68.7116 18.9834 67.7764C16.1852 66.8412 16.1852 66.8413 16.1852 66.8413C16.1852 66.8413 16.1852 66.8414 16.1852 66.8414C16.1851 66.8416 16.185 66.8418 16.1849 66.8421C16.1847 66.8427 16.1844 66.8437 16.184 66.8449C16.1832 66.8474 16.1819 66.8512 16.1803 66.8561C16.1769 66.8661 16.172 66.881 16.1654 66.9004C16.1524 66.9394 16.1332 66.9969 16.1085 67.0705C16.0592 67.2177 15.9882 67.4296 15.9015 67.6877C15.728 68.2041 15.4921 68.9049 15.2419 69.6433C14.7308 71.1514 14.1907 72.7252 13.9822 73.2747L19.4988 75.3686ZM21.3188 69.5794L27.3751 61.7347L22.7043 58.1288L16.6481 65.9735L21.3188 69.5794ZM26.9624 62.1695L36.0025 54.4024L32.1571 49.9268L23.117 57.6939L26.9624 62.1695ZM35.1611 54.9096L47.1075 50.204L44.9449 44.7139L32.9985 49.4195L35.1611 54.9096ZM46.8971 50.2778L56.1681 47.4135L54.4263 41.7758L45.1553 44.64L46.8971 50.2778ZM55.2972 44.5946C54.5056 47.4368 54.5055 47.4368 54.5054 47.4367C54.5055 47.4368 54.5054 47.4367 54.5055 47.4368C54.5057 47.4368 54.5061 47.4369 54.5068 47.4371C54.5081 47.4375 54.5104 47.4381 54.5136 47.439C54.5199 47.4408 54.53 47.4436 54.5436 47.4474C54.5709 47.4551 54.6126 47.4669 54.668 47.4826C54.7788 47.5141 54.9443 47.5613 55.1587 47.6235C55.5876 47.7477 56.2117 47.9312 56.985 48.166C58.5328 48.636 60.6715 49.3094 63.0338 50.1228C67.8376 51.7767 73.2868 53.916 76.665 56.0163L79.7806 51.0052C75.7835 48.5201 69.7698 46.2013 64.9547 44.5435C62.5076 43.701 60.2976 43.0052 58.6993 42.5199C57.8995 42.277 57.2512 42.0864 56.8008 41.9559C56.5756 41.8906 56.3998 41.8404 56.2792 41.8062C56.2189 41.789 56.1724 41.7759 56.1404 41.7669C56.1244 41.7624 56.112 41.759 56.1034 41.7566C56.0991 41.7553 56.0957 41.7544 56.0932 41.7537C56.092 41.7534 56.091 41.7531 56.0902 41.7529C56.0899 41.7528 56.0895 41.7527 56.0893 41.7526C56.089 41.7525 56.0887 41.7525 55.2972 44.5946ZM78.2711 62.5001C76.1557 66.1229 72.1653 69.9191 68.4727 72.9238C66.6644 74.3952 64.9979 75.621 63.7846 76.478C63.1788 76.9059 62.6885 77.2401 62.3528 77.4653C62.185 77.5778 62.0561 77.663 61.9709 77.7189C61.9283 77.7468 61.8967 77.7674 61.8766 77.7804C61.8666 77.7869 61.8595 77.7915 61.8553 77.7942C61.8533 77.7955 61.8519 77.7964 61.8513 77.7968C61.851 77.797 61.8509 77.797 61.851 77.797C61.8511 77.7969 61.8513 77.7968 61.8513 77.7968C61.8515 77.7966 61.8519 77.7964 63.4465 80.2787C65.0411 82.761 65.0415 82.7607 65.0419 82.7604C65.0422 82.7603 65.0427 82.76 65.0431 82.7597C65.0439 82.7591 65.045 82.7585 65.0462 82.7577C65.0487 82.7561 65.0519 82.754 65.0559 82.7514C65.0639 82.7463 65.0749 82.7392 65.0888 82.7301C65.1166 82.7121 65.1562 82.6863 65.2069 82.653C65.3083 82.5865 65.4543 82.4901 65.6398 82.3656C66.0107 82.1168 66.5405 81.7556 67.1888 81.2977C68.4837 80.3831 70.2614 79.0757 72.1969 77.5007C75.9919 74.4126 80.6877 70.0634 83.3667 65.4755L78.2711 62.5001ZM63.4465 80.2787C62.4054 77.5181 62.4054 77.5182 62.4053 77.5182C62.4053 77.5182 62.4052 77.5182 62.405 77.5183C62.4048 77.5184 62.4044 77.5185 62.4038 77.5187C62.4028 77.5191 62.4012 77.5197 62.3991 77.5205C62.3948 77.5221 62.3885 77.5245 62.3802 77.5276C62.3636 77.5339 62.3389 77.5432 62.3067 77.5554C62.2423 77.5796 62.1479 77.6153 62.0277 77.6606C61.7873 77.7512 61.4438 77.8807 61.0316 78.0361C60.2071 78.3469 59.1078 78.7613 58.0083 79.1755C56.9086 79.5898 55.8093 80.0037 54.9845 80.3137C54.5719 80.4688 54.2292 80.5975 53.9898 80.687C53.8697 80.732 53.7779 80.7663 53.717 80.7889C53.6858 80.8005 53.6671 80.8073 53.6582 80.8106C53.6521 80.8128 53.658 80.8106 53.6693 80.8066C53.6721 80.8057 53.694 80.7979 53.7232 80.7883C53.7329 80.7851 53.7759 80.7709 53.8318 80.7549C53.8655 80.7455 53.9612 80.7211 54.0233 80.707C54.1697 80.6794 54.9916 80.6619 55.6476 80.8175L53.6383 86.3655C54.2944 86.5212 55.1163 86.5036 55.2629 86.476C55.3252 86.4619 55.4212 86.4374 55.4552 86.4279C55.5117 86.4117 55.5555 86.3973 55.5664 86.3937C55.5979 86.3834 55.6231 86.3744 55.6303 86.3719C55.6504 86.3648 55.6691 86.358 55.68 86.3541C55.7049 86.345 55.7362 86.3334 55.7698 86.3209C55.8388 86.2953 55.9369 86.2587 56.0582 86.2133C56.3016 86.1222 56.6475 85.9924 57.0607 85.837C57.8875 85.5262 58.9885 85.1117 60.0884 84.6973C61.1886 84.2829 62.2883 83.8684 63.113 83.5575C63.5254 83.402 63.869 83.2725 64.1095 83.1818C64.2298 83.1364 64.3243 83.1008 64.3887 83.0765C64.4209 83.0644 64.4456 83.0551 64.4623 83.0488C64.4706 83.0456 64.4769 83.0433 64.4812 83.0417C64.4833 83.0409 64.4849 83.0403 64.4859 83.0399C64.4865 83.0397 64.4869 83.0395 64.4871 83.0394C64.4873 83.0393 64.4874 83.0393 64.4874 83.0393C64.4875 83.0393 64.4875 83.0392 63.4465 80.2787ZM55.6573 80.821C55.2143 80.6986 54.6642 80.6447 54.5708 80.6458C54.531 80.6472 54.4693 80.6504 54.4472 80.6518C54.4104 80.6544 54.3815 80.6571 54.374 80.6578C54.3528 80.6598 54.3353 80.6617 54.3294 80.6623C54.3139 80.664 54.2983 80.6658 54.2868 80.6671C54.2617 80.67 54.2284 80.6739 54.1897 80.6784C54.1111 80.6877 53.998 80.7012 53.8565 80.7181C53.573 80.7521 53.1694 80.8007 52.6865 80.859C51.7203 80.9757 50.4333 81.1315 49.147 81.2874C47.8606 81.4432 46.5746 81.5992 45.6102 81.7162C45.128 81.7748 44.7262 81.8235 44.4449 81.8577C44.3043 81.8747 44.1938 81.8881 44.1184 81.8973C44.0807 81.9019 44.0519 81.9054 44.0324 81.9077C44.0227 81.9089 44.0153 81.9098 44.0103 81.9104C44.0079 81.9107 44.006 81.9109 44.0047 81.9111C44.0041 81.9112 44.0037 81.9112 44.0033 81.9113C44.0032 81.9113 44.0031 81.9113 44.003 81.9113C44.0029 81.9113 44.0029 81.9113 44.3584 84.8401C44.714 87.769 44.7141 87.769 44.7141 87.769C44.7142 87.7689 44.7143 87.7689 44.7145 87.7689C44.7148 87.7689 44.7153 87.7688 44.7159 87.7687C44.7171 87.7686 44.719 87.7684 44.7215 87.7681C44.7264 87.7675 44.7338 87.7666 44.7435 87.7654C44.763 87.763 44.7918 87.7595 44.8295 87.755C44.9048 87.7458 45.0153 87.7324 45.1559 87.7153C45.4371 87.6812 45.8388 87.6324 46.3209 87.574C47.2852 87.457 48.5709 87.301 49.8568 87.1452C51.1429 86.9893 52.4289 86.8337 53.3937 86.7172C53.8763 86.6589 54.2778 86.6106 54.5585 86.5769C54.6992 86.56 54.8081 86.5471 54.8812 86.5384C54.9184 86.5341 54.9433 86.5311 54.9578 86.5295C54.966 86.5285 54.9654 86.5286 54.9601 86.5292C54.9593 86.5293 54.9457 86.5308 54.9271 86.5325C54.9209 86.5331 54.893 86.5357 54.8569 86.5383C54.8352 86.5397 54.7738 86.5429 54.7341 86.5442C54.6409 86.5453 54.091 86.4914 53.648 86.3691L55.6573 80.821ZM44.4829 81.8924L34.5599 81.4736L34.3111 87.369L44.234 87.7878L44.4829 81.8924ZM35.6021 81.7114L23.7908 76.6269L21.4576 82.0467L33.269 87.1312L35.6021 81.7114ZM22.6242 79.3368C24.5175 77.0741 24.5175 77.0741 24.5175 77.0741C24.5175 77.0741 24.5175 77.0741 24.5174 77.074C24.5173 77.0739 24.5172 77.0738 24.517 77.0736C24.5166 77.0733 24.5159 77.0727 24.515 77.072C24.5133 77.0705 24.5106 77.0683 24.5071 77.0653C24.5 77.0594 24.4893 77.0505 24.4753 77.0387C24.4472 77.0152 24.4057 76.9804 24.3519 76.9353C24.2444 76.8452 24.0884 76.7143 23.8945 76.5513C23.5066 76.2253 22.968 75.7718 22.3652 75.2617C21.1541 74.2368 19.7028 72.9996 18.6909 72.108L14.7901 76.5353C15.8501 77.4693 17.3407 78.7397 18.5535 79.766C19.1626 80.2814 19.7064 80.7394 20.098 81.0685C20.2939 81.2331 20.4518 81.3656 20.5608 81.457C20.6154 81.5027 20.6577 81.5382 20.6865 81.5623C20.7009 81.5744 20.7119 81.5836 20.7194 81.5898C20.7231 81.593 20.7259 81.5953 20.7278 81.5969C20.7288 81.5977 20.7295 81.5984 20.73 81.5988C20.7303 81.599 20.7305 81.5992 20.7306 81.5993C20.7307 81.5993 20.7308 81.5994 20.7308 81.5994C20.7308 81.5994 20.7309 81.5995 22.6242 79.3368Z" fill="#EDB266" mask="url(#path-4-inside-2_300_5446)"/>
<mask id="path-6-inside-3_300_5446" fill="white">
<path d="M47.491 47.1143C47.492 47.104 43.7247 37.4532 43.7247 37.4532L41.6624 27.7379L43.6495 15.0332C43.6495 15.0332 45.7908 10.5479 47.0437 8.08699C48.3442 8.2325 53.9411 8.63157 53.9411 8.63157L63.0455 12.5464L72.817 19.3707L80.3461 29.7713L85.4262 38.0385C85.4262 38.0385 85.0993 54.1773 82.4922 62.4613C81.2412 66.4337 76.9998 68.7202 72.9901 67.5817C63.845 64.9801 52.8903 54.8069 52.8903 54.8069C52.8903 54.8069 47.491 47.1143 47.492 47.104"/>
</mask>
<path d="M47.491 47.1143C47.492 47.104 43.7247 37.4532 43.7247 37.4532L41.6624 27.7379L43.6495 15.0332C43.6495 15.0332 45.7908 10.5479 47.0437 8.08699C48.3442 8.2325 53.9411 8.63157 53.9411 8.63157L63.0455 12.5464L72.817 19.3707L80.3461 29.7713L85.4262 38.0385C85.4262 38.0385 85.0993 54.1773 82.4922 62.4613C81.2412 66.4337 76.9998 68.7202 72.9901 67.5817C63.845 64.9801 52.8903 54.8069 52.8903 54.8069C52.8903 54.8069 47.491 47.1143 47.492 47.104" fill="#EDB266"/>
<path d="M71.5946 20.1963L84.2038 38.8642L86.6486 37.2128L74.0395 18.545L71.5946 20.1963ZM54.1947 54.118L45.0291 36.7643L42.4203 38.1422L51.5859 55.4959L54.1947 54.118ZM47.0437 8.08699L47.3717 5.15495L45.3413 4.92778L44.4144 6.74844L47.0437 8.08699ZM80.3461 29.7713L82.8598 28.2267L82.8014 28.1316L82.736 28.0413L80.3461 29.7713ZM82.4922 62.4613L85.3063 63.3475L85.3064 63.347L82.4922 62.4613ZM72.9901 67.5817L72.1828 70.4194L72.1842 70.4198L72.9901 67.5817ZM53.9411 8.63157L55.1065 5.92118L54.6484 5.72418L54.1509 5.68871L53.9411 8.63157ZM63.0455 12.5464L64.7348 10.1276L64.4878 9.95507L64.211 9.83605L63.0455 12.5464ZM72.817 19.3707L75.2069 17.6406L74.9148 17.2371L74.5063 16.9518L72.817 19.3707ZM85.4262 38.0385L88.3759 38.0983L88.3935 37.2321L87.9399 36.4939L85.4262 38.0385ZM52.8903 54.8069L50.4754 56.5019L50.6544 56.7569L50.8827 56.9688L52.8903 54.8069ZM43.7247 37.4532L40.8387 38.0658L40.8887 38.3016L40.9764 38.5261L43.7247 37.4532ZM41.6624 27.7379L38.7475 27.282L38.6636 27.8189L38.7764 28.3505L41.6624 27.7379ZM43.6495 15.0332L40.987 13.7621L40.8012 14.1512L40.7346 14.5773L43.6495 15.0332ZM79.6781 61.5751C78.9071 64.0234 76.2707 65.4462 73.796 64.7435L72.1842 70.4198C77.7288 71.9943 83.5753 68.844 85.3063 63.3475L79.6781 61.5751ZM46.7156 11.019C47.4321 11.0992 49.2222 11.2398 50.7579 11.3558C51.5422 11.415 52.2853 11.4697 52.832 11.5095C53.1054 11.5294 53.33 11.5456 53.4863 11.5569C53.5644 11.5625 53.6255 11.5669 53.6672 11.5699C53.688 11.5713 53.7039 11.5725 53.7147 11.5733C53.7201 11.5736 53.7242 11.5739 53.727 11.5741C53.7283 11.5742 53.7294 11.5743 53.7301 11.5744C53.7305 11.5744 53.7307 11.5744 53.7309 11.5744C53.731 11.5744 53.7311 11.5744 53.7311 11.5744C53.7312 11.5744 53.7312 11.5744 53.9411 8.63157C54.1509 5.68871 54.1509 5.68871 54.1509 5.68871C54.1508 5.6887 54.1508 5.6887 54.1507 5.68869C54.1506 5.68868 54.1503 5.68867 54.15 5.68864C54.1494 5.6886 54.1484 5.68853 54.1471 5.68843C54.1444 5.68825 54.1405 5.68796 54.1353 5.68759C54.1248 5.68684 54.1091 5.68572 54.0886 5.68425C54.0477 5.68132 53.9872 5.67699 53.9098 5.67141C53.755 5.66027 53.5321 5.64417 53.2605 5.6244C52.7172 5.58484 51.9797 5.53061 51.2023 5.47189C49.6144 5.35197 47.9557 5.2203 47.3717 5.15495L46.7156 11.019ZM52.7756 11.342L61.8801 15.2568L64.211 9.83605L55.1065 5.92118L52.7756 11.342ZM61.3563 14.9653L71.1278 21.7895L74.5063 16.9518L64.7348 10.1276L61.3563 14.9653ZM70.4272 21.1007L77.9562 31.5013L82.736 28.0413L75.2069 17.6406L70.4272 21.1007ZM77.8324 31.3159L82.9125 39.5832L87.9399 36.4939L82.8598 28.2267L77.8324 31.3159ZM85.4262 38.0385C82.4765 37.9788 82.4765 37.9786 82.4765 37.9785C82.4765 37.9786 82.4765 37.9785 82.4765 37.9786C82.4765 37.9788 82.4765 37.9793 82.4765 37.98C82.4764 37.9813 82.4764 37.9837 82.4763 37.987C82.4762 37.9936 82.4759 38.004 82.4756 38.0182C82.475 38.0466 82.474 38.0899 82.4725 38.1474C82.4696 38.2626 82.465 38.4346 82.4581 38.6577C82.4444 39.104 82.4219 39.7542 82.3868 40.5615C82.3166 42.1777 82.1962 44.4166 81.996 46.907C81.5889 51.9712 80.8721 57.7813 79.6779 61.5756L85.3064 63.347C86.7194 58.8574 87.4696 52.456 87.8777 47.3799C88.0851 44.8001 88.2094 42.4865 88.2819 40.8178C88.3182 39.9827 88.3416 39.3073 88.356 38.8386C88.3632 38.6043 88.3681 38.4215 88.3713 38.2962C88.3729 38.2335 88.374 38.1852 88.3748 38.152C88.3751 38.1354 88.3754 38.1225 88.3756 38.1135C88.3757 38.1091 88.3758 38.1055 88.3758 38.103C88.3759 38.1017 88.3759 38.1007 88.3759 38.0999C88.3759 38.0995 88.3759 38.0991 88.3759 38.0989C88.3759 38.0986 88.3759 38.0983 85.4262 38.0385ZM73.7974 64.7439C69.7623 63.596 65.0929 60.6752 61.2642 57.8459C59.3893 56.4605 57.7875 55.1512 56.6556 54.1891C56.0906 53.7089 55.6449 53.317 55.3433 53.0479C55.1926 52.9134 55.078 52.8097 55.0027 52.7411C54.9651 52.7068 54.9373 52.6813 54.9197 52.6651C54.9109 52.657 54.9046 52.6512 54.901 52.6479C54.8992 52.6462 54.898 52.6451 54.8975 52.6446C54.8973 52.6444 54.8972 52.6443 54.8973 52.6444C54.8973 52.6444 54.8975 52.6446 54.8975 52.6446C54.8977 52.6448 54.898 52.645 52.8903 54.8069C50.8827 56.9688 50.883 56.9692 50.8834 56.9695C50.8836 56.9697 50.884 56.9701 50.8844 56.9704C50.8851 56.9711 50.886 56.972 50.8871 56.973C50.8893 56.975 50.8921 56.9776 50.8956 56.9808C50.9025 56.9872 50.9122 56.9961 50.9244 57.0073C50.9488 57.0298 50.9836 57.0617 51.0284 57.1026C51.1181 57.1843 51.2478 57.3017 51.4145 57.4504C51.7477 57.7478 52.2293 58.1711 52.8341 58.6851C54.0421 59.7119 55.7505 61.1085 57.7574 62.5915C61.6923 65.4992 67.0728 68.9657 72.1828 70.4194L73.7974 64.7439ZM52.8903 54.8069C55.3052 53.112 55.3052 53.112 55.3051 53.1119C55.3051 53.1119 55.305 53.1118 55.305 53.1117C55.3048 53.1114 55.3045 53.1111 55.3042 53.1106C55.3036 53.1097 55.3026 53.1083 55.3013 53.1064C55.2987 53.1027 55.2948 53.0972 55.2897 53.09C55.2795 53.0754 55.2644 53.0538 55.2446 53.0257C55.2051 52.9693 55.1471 52.8867 55.0733 52.7816C54.9257 52.5712 54.7148 52.2708 54.4618 51.9101C53.9557 51.1889 53.281 50.2272 52.6063 49.2652C51.9315 48.3031 51.2572 47.3413 50.7518 46.6196C50.4989 46.2585 50.2891 45.9586 50.1428 45.749C50.0694 45.6439 50.0134 45.5635 49.9763 45.5101C49.9573 45.4827 49.946 45.4663 49.9406 45.4585C49.937 45.4532 49.9405 45.4583 49.9472 45.4683C49.9489 45.4708 49.9618 45.4901 49.9784 45.5159C49.9839 45.5246 50.0083 45.5627 50.0377 45.6128C50.0552 45.6431 50.1027 45.7298 50.1318 45.7864C50.1949 45.9214 50.4163 46.7131 50.4287 47.3871L44.5553 46.8209C44.5677 47.495 44.7891 48.2868 44.8524 48.4219C44.8815 48.4787 44.9291 48.5656 44.9468 48.5961C44.9765 48.6468 45.0014 48.6857 45.0076 48.6954C45.0254 48.7233 45.0403 48.7455 45.0445 48.7518C45.0564 48.7695 45.0677 48.786 45.0742 48.7955C45.0892 48.8174 45.1082 48.8448 45.1286 48.8743C45.1706 48.9348 45.2305 49.0207 45.3046 49.1269C45.4534 49.34 45.6652 49.6427 45.9184 50.0043C46.4251 50.7278 47.1004 51.6911 47.7753 52.6534C48.4504 53.6159 49.1254 54.578 49.6316 55.2995C49.8847 55.6602 50.0957 55.9608 50.2434 56.1712C50.3172 56.2764 50.3752 56.3591 50.4148 56.4154C50.4345 56.4436 50.4497 56.4652 50.4599 56.4798C50.465 56.4871 50.4689 56.4926 50.4715 56.4963C50.4728 56.4981 50.4738 56.4995 50.4745 56.5005C50.4748 56.5009 50.475 56.5013 50.4752 56.5015C50.4753 56.5016 50.4753 56.5017 50.4754 56.5018C50.4754 56.5019 50.4754 56.5019 52.8903 54.8069ZM50.4278 47.3974C50.4361 46.9378 50.3515 46.3917 50.3272 46.3015C50.316 46.2633 50.2975 46.2043 50.2906 46.1833C50.279 46.1483 50.2692 46.1209 50.2666 46.1139C50.2594 46.0938 50.2532 46.0773 50.2512 46.0718C50.2457 46.0572 50.2401 46.0425 50.236 46.0317C50.2269 46.0081 50.2149 45.9768 50.2008 45.9404C50.1723 45.8666 50.1311 45.7605 50.0795 45.6277C49.9761 45.3615 49.8286 44.9827 49.652 44.5294C49.2987 43.6226 48.8277 42.4147 48.3568 41.2077C47.8859 40.0005 47.415 38.7937 47.0618 37.8887C46.8852 37.4362 46.738 37.0591 46.635 36.7952C46.5835 36.6632 46.543 36.5595 46.5154 36.4888C46.5016 36.4534 46.491 36.4263 46.4839 36.4081C46.4803 36.3989 46.4776 36.392 46.4758 36.3874C46.4749 36.3851 46.4742 36.3833 46.4738 36.3821C46.4735 36.3815 46.4734 36.3811 46.4733 36.3808C46.4732 36.3807 46.4732 36.3806 46.4731 36.3805C46.4731 36.3804 46.4731 36.3804 43.7247 37.4532C40.9764 38.5261 40.9764 38.5261 40.9764 38.5262C40.9764 38.5263 40.9765 38.5264 40.9765 38.5265C40.9767 38.5268 40.9768 38.5272 40.9771 38.5278C40.9775 38.529 40.9782 38.5307 40.9791 38.5331C40.9809 38.5377 40.9836 38.5446 40.9872 38.5537C40.9943 38.572 41.0049 38.5991 41.0187 38.6344C41.0462 38.7051 41.0867 38.8088 41.1382 38.9407C41.2412 39.2046 41.3883 39.5816 41.5649 40.034C41.9181 40.9388 42.3889 42.1453 42.8597 43.3521C43.3305 44.559 43.8011 45.7658 44.1539 46.6714C44.3303 47.1243 44.477 47.5012 44.5795 47.7648C44.6308 47.8968 44.6704 47.999 44.697 48.0677C44.7105 48.1026 44.7195 48.1261 44.7247 48.1396C44.7276 48.1474 44.7274 48.1468 44.7255 48.1418C44.7252 48.1411 44.7204 48.1282 44.7141 48.1107C44.712 48.1049 44.7025 48.0785 44.6911 48.0442C44.6843 48.0235 44.666 47.9647 44.6548 47.9267C44.6305 47.8367 44.546 47.2907 44.5543 46.8311L50.4278 47.3974ZM46.6108 36.8406L44.5485 27.1253L38.7764 28.3505L40.8387 38.0658L46.6108 36.8406ZM44.5773 28.1938L46.5644 15.4891L40.7346 14.5773L38.7475 27.282L44.5773 28.1938ZM43.6495 15.0332C46.312 16.3043 46.312 16.3043 46.312 16.3042C46.312 16.3042 46.312 16.3042 46.312 16.3041C46.3121 16.304 46.3122 16.3038 46.3123 16.3036C46.3125 16.3031 46.3129 16.3023 46.3134 16.3013C46.3144 16.2992 46.3159 16.2961 46.3179 16.2919C46.3219 16.2836 46.3278 16.271 46.3357 16.2545C46.3515 16.2215 46.3749 16.1726 46.4052 16.1093C46.4657 15.9828 46.5538 15.7991 46.6634 15.5707C46.8826 15.114 47.188 14.4795 47.5321 13.7688C48.2236 12.3408 49.061 10.6274 49.6729 9.42553L44.4144 6.74844C43.7735 8.00746 42.9138 9.76717 42.2214 11.1971C41.8736 11.9153 41.5653 12.5559 41.3439 13.0171C41.2332 13.2477 41.1442 13.4336 41.0827 13.562C41.052 13.6262 41.0281 13.676 41.012 13.7099C41.0039 13.7268 40.9977 13.7398 40.9935 13.7486C40.9914 13.7529 40.9898 13.7563 40.9887 13.7585C40.9882 13.7597 40.9878 13.7605 40.9875 13.7611C40.9873 13.7614 40.9872 13.7617 40.9871 13.7618C40.9871 13.7619 40.9871 13.762 40.9871 13.762C40.987 13.7621 40.987 13.7621 43.6495 15.0332Z" fill="#EDB266" mask="url(#path-6-inside-3_300_5446)"/>
<mask id="path-8-inside-4_300_5446" fill="white">
<path d="M84.0456 25.5353C84.0558 25.5342 92.7261 19.8634 92.7261 19.8634L101.81 15.8481L114.652 15.181C114.652 15.181 119.482 16.3545 122.147 17.0748C122.272 18.3775 123.032 23.9368 123.032 23.9368L121.073 33.6516L116.403 44.6173L107.772 54.1236L100.726 60.7946C100.726 60.7946 84.8644 63.7923 76.2214 62.9438C72.0767 62.5361 68.9671 58.8553 69.2571 54.6972C69.9232 45.2126 77.6271 32.4006 77.6271 32.4006C77.6271 32.4006 84.0456 25.5353 84.0558 25.5342"/>
</mask>
<path d="M84.0456 25.5353C84.0558 25.5342 92.7261 19.8634 92.7261 19.8634L101.81 15.8481L114.652 15.181C114.652 15.181 119.482 16.3545 122.147 17.0748C122.272 18.3775 123.032 23.9368 123.032 23.9368L121.073 33.6516L116.403 44.6173L107.772 54.1236L100.726 60.7946C100.726 60.7946 84.8644 63.7923 76.2214 62.9438C72.0767 62.5361 68.9671 58.8553 69.2571 54.6972C69.9232 45.2126 77.6271 32.4006 77.6271 32.4006C77.6271 32.4006 84.0456 25.5353 84.0558 25.5342" fill="#EDB266"/>
<path d="M115.344 43.5907L99.6664 59.768L101.785 61.8212L117.462 45.6439L115.344 43.5907ZM78.5695 33.5356L93.6685 20.9984L91.7837 18.7285L76.6848 31.2657L78.5695 33.5356ZM122.147 17.0748L125.084 16.7931L124.889 14.7594L122.917 14.2265L122.147 17.0748ZM107.772 54.1236L109.8 56.266L109.881 56.1893L109.956 56.1067L107.772 54.1236ZM76.2214 62.9438L75.9326 65.88L75.9332 65.88L76.2214 62.9438ZM69.2571 54.6972L66.314 54.4905L66.3139 54.4919L69.2571 54.6972ZM123.032 23.9368L125.924 24.5202L126.023 24.0313L125.956 23.5372L123.032 23.9368ZM121.073 33.6516L123.787 34.8076L123.905 34.5304L123.965 34.235L121.073 33.6516ZM116.403 44.6173L118.587 46.6004L118.922 46.2316L119.117 45.7732L116.403 44.6173ZM100.726 60.7946L101.274 63.6936L102.125 63.5328L102.754 62.9371L100.726 60.7946ZM77.6271 32.4006L75.472 30.3858L75.2592 30.6133L75.0987 30.8803L77.6271 32.4006ZM92.7261 19.8634L91.5333 17.165L91.3129 17.2624L91.1112 17.3943L92.7261 19.8634ZM101.81 15.8481L101.657 12.9017L101.114 12.9299L100.617 13.1496L101.81 15.8481ZM114.652 15.181L115.348 12.3141L114.929 12.2123L114.499 12.2346L114.652 15.181ZM76.5102 60.0076C73.9557 59.7563 72.0213 57.4688 72.2003 54.9025L66.3139 54.4919C65.9129 60.2418 70.1977 65.3158 75.9326 65.88L76.5102 60.0076ZM119.211 17.3565C119.279 18.0742 119.51 19.8549 119.712 21.3816C119.815 22.1614 119.914 22.8998 119.988 23.443C120.025 23.7147 120.055 23.9378 120.076 24.0931C120.087 24.1707 120.095 24.2314 120.101 24.2728C120.103 24.2934 120.106 24.3093 120.107 24.32C120.108 24.3254 120.108 24.3294 120.109 24.3322C120.109 24.3336 120.109 24.3346 120.109 24.3353C120.109 24.3357 120.109 24.3359 120.109 24.3361C120.109 24.3362 120.109 24.3363 120.109 24.3363C120.109 24.3364 120.109 24.3364 123.032 23.9368C125.956 23.5372 125.956 23.5372 125.955 23.5372C125.955 23.5371 125.955 23.5371 125.955 23.537C125.955 23.5369 125.955 23.5366 125.955 23.5363C125.955 23.5357 125.955 23.5347 125.955 23.5334C125.955 23.5308 125.954 23.5269 125.953 23.5217C125.952 23.5113 125.95 23.4957 125.947 23.4754C125.942 23.4347 125.933 23.3746 125.923 23.2977C125.902 23.1439 125.872 22.9225 125.835 22.6526C125.762 22.1128 125.664 21.3799 125.562 20.607C125.353 19.0284 125.14 17.3781 125.084 16.7931L119.211 17.3565ZM120.14 23.3534L118.181 33.0682L123.965 34.235L125.924 24.5202L120.14 23.3534ZM118.358 32.4957L113.688 43.4613L119.117 45.7732L123.787 34.8076L118.358 32.4957ZM114.219 42.6341L105.588 52.1404L109.956 56.1067L118.587 46.6004L114.219 42.6341ZM105.744 51.9811L98.6974 58.6522L102.754 62.9371L109.8 56.266L105.744 51.9811ZM100.726 60.7946C100.178 57.8956 100.178 57.8956 100.178 57.8956C100.178 57.8956 100.178 57.8956 100.178 57.8956C100.178 57.8956 100.177 57.8957 100.177 57.8958C100.175 57.8961 100.173 57.8965 100.17 57.8971C100.163 57.8984 100.153 57.9003 100.139 57.9029C100.111 57.9081 100.069 57.916 100.012 57.9264C99.8987 57.9472 99.7294 57.9781 99.5096 58.0172C99.07 58.0956 98.4291 58.2072 97.6318 58.3388C96.0358 58.6023 93.8199 58.9447 91.3415 59.2608C86.3018 59.9033 80.4685 60.3962 76.5097 60.0076L75.9332 65.88C80.6174 66.3399 87.0362 65.7581 92.0879 65.114C94.6552 64.7867 96.9449 64.4328 98.5929 64.1607C99.4176 64.0245 100.083 63.9086 100.545 63.8263C100.776 63.7852 100.956 63.7525 101.079 63.7298C101.141 63.7184 101.188 63.7096 101.221 63.7035C101.237 63.7005 101.25 63.6981 101.259 63.6965C101.263 63.6956 101.267 63.695 101.269 63.6945C101.27 63.6943 101.271 63.6941 101.272 63.6939C101.272 63.6939 101.273 63.6938 101.273 63.6938C101.273 63.6937 101.274 63.6936 100.726 60.7946ZM72.2002 54.9039C72.4941 50.719 74.3927 45.549 76.3745 41.2204C77.3449 39.1007 78.297 37.264 79.0058 35.9585C79.3596 35.3068 79.6515 34.7901 79.8529 34.4396C79.9535 34.2645 80.0315 34.131 80.0831 34.0433C80.109 33.9994 80.1282 33.9669 80.1404 33.9464C80.1466 33.9361 80.1509 33.9288 80.1535 33.9246C80.1547 33.9224 80.1555 33.9211 80.1559 33.9205C80.1561 33.9202 80.1561 33.9201 80.1561 33.9202C80.1561 33.9202 80.1559 33.9204 80.1559 33.9204C80.1558 33.9207 80.1556 33.921 77.6271 32.4006C75.0987 30.8803 75.0985 30.8807 75.0982 30.8811C75.0981 30.8814 75.0978 30.8819 75.0975 30.8823C75.097 30.8832 75.0963 30.8842 75.0956 30.8855C75.0941 30.888 75.0921 30.8913 75.0897 30.8954C75.0848 30.9035 75.0781 30.9147 75.0696 30.929C75.0526 30.9575 75.0285 30.9982 74.9978 31.0504C74.9363 31.1549 74.8481 31.306 74.7368 31.4997C74.5142 31.887 74.199 32.4453 73.8202 33.1429C73.0637 34.5361 72.0482 36.4951 71.0094 38.764C68.9727 43.2126 66.6862 49.1908 66.314 54.4905L72.2002 54.9039ZM77.6271 32.4006C79.7823 34.4155 79.7823 34.4155 79.7824 34.4154C79.7824 34.4154 79.7825 34.4153 79.7826 34.4152C79.7828 34.415 79.7831 34.4147 79.7835 34.4143C79.7843 34.4134 79.7854 34.4122 79.787 34.4106C79.79 34.4073 79.7946 34.4023 79.8007 34.3959C79.8128 34.3829 79.8308 34.3636 79.8543 34.3385C79.9013 34.2882 79.9703 34.2145 80.058 34.1206C80.2335 33.933 80.4842 33.6648 80.7851 33.3431C81.3869 32.6995 82.1894 31.8415 82.9921 30.9835C83.7949 30.1254 84.5976 29.2677 85.2001 28.6247C85.5014 28.3031 85.7518 28.036 85.9268 27.8498C86.0146 27.7563 86.0818 27.685 86.1264 27.6378C86.1493 27.6135 86.163 27.5991 86.1696 27.5922C86.174 27.5876 86.1697 27.5921 86.1613 27.6007C86.1593 27.6028 86.1431 27.6195 86.1211 27.641C86.1138 27.6482 86.0815 27.6799 86.0385 27.719C86.0124 27.7423 85.9374 27.8066 85.888 27.8467C85.7689 27.9362 85.0396 28.3157 84.3825 28.4664L83.7292 22.602C83.072 22.7527 82.3427 23.1322 82.2235 23.2218C82.1739 23.262 82.0986 23.3264 82.0724 23.35C82.0289 23.3895 81.9959 23.4219 81.9877 23.4299C81.9641 23.4531 81.9454 23.4723 81.9401 23.4777C81.9252 23.4929 81.9114 23.5073 81.9034 23.5157C81.8851 23.5349 81.8622 23.5591 81.8375 23.5852C81.787 23.6387 81.7152 23.7149 81.6265 23.8093C81.4486 23.9987 81.1958 24.2682 80.894 24.5904C80.2901 25.2349 79.4863 26.0938 78.6832 26.9522C77.8801 27.8107 77.0773 28.669 76.4753 29.3128C76.1743 29.6347 75.9235 29.9029 75.7479 30.0907C75.6601 30.1845 75.5911 30.2583 75.5441 30.3086C75.5206 30.3338 75.5026 30.353 75.4904 30.366C75.4843 30.3725 75.4797 30.3775 75.4767 30.3808C75.4751 30.3824 75.4739 30.3837 75.4732 30.3845C75.4728 30.3849 75.4725 30.3852 75.4723 30.3854C75.4722 30.3855 75.4721 30.3856 75.4721 30.3857C75.472 30.3857 75.472 30.3858 77.6271 32.4006ZM84.3722 28.4675C84.8237 28.3812 85.3408 28.1862 85.4241 28.1438C85.4592 28.125 85.5131 28.0948 85.5323 28.0837C85.5641 28.0652 85.5888 28.0499 85.5952 28.046C85.6134 28.0348 85.6283 28.0254 85.6332 28.0222C85.6464 28.0139 85.6597 28.0053 85.6694 27.9991C85.6906 27.9854 85.7187 27.9671 85.7514 27.9459C85.8178 27.9028 85.9132 27.8407 86.0326 27.7629C86.2718 27.607 86.6122 27.3848 87.0195 27.1188C87.8344 26.5866 88.9195 25.8774 90.004 25.1684C91.0886 24.4594 92.1729 23.7504 92.9859 23.2187C93.3925 22.9529 93.7312 22.7314 93.9684 22.5763C94.0869 22.4987 94.1801 22.4378 94.2436 22.3963C94.2754 22.3755 94.2997 22.3596 94.3161 22.3488C94.3243 22.3435 94.3305 22.3394 94.3347 22.3367C94.3368 22.3353 94.3384 22.3343 94.3394 22.3336C94.34 22.3332 94.3403 22.333 94.3406 22.3328C94.3407 22.3327 94.3408 22.3327 94.3409 22.3326C94.341 22.3326 94.341 22.3326 92.7261 19.8634C91.1112 17.3943 91.1112 17.3943 91.1111 17.3944C91.111 17.3944 91.1109 17.3945 91.1108 17.3946C91.1105 17.3948 91.1101 17.395 91.1096 17.3954C91.1086 17.396 91.107 17.3971 91.1049 17.3984C91.1008 17.4012 91.0945 17.4052 91.0863 17.4106C91.0699 17.4213 91.0456 17.4372 91.0139 17.458C90.9504 17.4995 90.8572 17.5604 90.7387 17.6379C90.5016 17.793 90.1629 18.0145 89.7565 18.2803C88.9436 18.8119 87.8596 19.5207 86.7753 20.2295C85.691 20.9383 84.6067 21.647 83.793 22.1784C83.386 22.4442 83.0474 22.6652 82.8105 22.8196C82.6918 22.897 82.5999 22.9568 82.5381 22.9969C82.5068 23.0173 82.4857 23.0309 82.4735 23.0388C82.4665 23.0433 82.467 23.0429 82.4715 23.0401C82.4722 23.0397 82.4837 23.0323 82.4996 23.0225C82.5049 23.0193 82.5288 23.0045 82.56 22.9863C82.5788 22.9754 82.6326 22.9454 82.6675 22.9266C82.7506 22.8844 83.2676 22.6894 83.719 22.6031L84.3722 28.4675ZM93.9189 22.5619L103.003 18.5465L100.617 13.1496L91.5333 17.165L93.9189 22.5619ZM101.963 18.7944L114.805 18.1274L114.499 12.2346L101.657 12.9017L101.963 18.7944ZM114.652 15.181C113.955 18.0479 113.955 18.0479 113.955 18.0479C113.955 18.0479 113.955 18.0479 113.955 18.0479C113.955 18.048 113.956 18.048 113.956 18.0481C113.956 18.0482 113.957 18.0484 113.958 18.0487C113.961 18.0492 113.964 18.05 113.969 18.0511C113.978 18.0533 113.991 18.0566 114.009 18.0609C114.044 18.0696 114.097 18.0824 114.165 18.0991C114.301 18.1323 114.499 18.1807 114.745 18.241C115.237 18.3617 115.921 18.5301 116.687 18.7208C118.227 19.1039 120.076 19.5712 121.378 19.923L122.917 14.2265C121.553 13.8581 119.654 13.3785 118.112 12.9948C117.338 12.8021 116.648 12.6321 116.151 12.5102C115.902 12.4493 115.702 12.4003 115.564 12.3666C115.495 12.3497 115.441 12.3366 115.405 12.3278C115.386 12.3233 115.373 12.3199 115.363 12.3176C115.358 12.3165 115.355 12.3156 115.352 12.315C115.351 12.3147 115.35 12.3145 115.35 12.3143C115.349 12.3143 115.349 12.3142 115.349 12.3142C115.349 12.3141 115.349 12.3141 115.349 12.3141C115.349 12.3141 115.348 12.3141 114.652 15.181Z" fill="#EDB266" mask="url(#path-8-inside-4_300_5446)"/>
<mask id="path-10-inside-5_300_5446" fill="white">
<path d="M108.262 55.9009C108.267 55.9097 116.963 61.5411 116.963 61.5411L124.313 68.221L130.123 79.6928C130.123 79.6928 131.006 84.584 131.427 87.3132C130.286 87.9549 125.511 90.901 125.511 90.901L115.834 93.043L103.917 93.2135L91.7302 89.1714L82.7772 85.4299C82.7772 85.4299 73.6135 72.141 70.8895 63.8947C69.584 59.9399 71.6903 55.6062 75.6097 54.1876C84.5516 50.9561 99.3858 52.8121 99.3858 52.8121C99.3858 52.8121 108.262 55.9009 108.267 55.9097"/>
</mask>
<path d="M108.262 55.9009C108.267 55.9097 116.963 61.5411 116.963 61.5411L124.313 68.221L130.123 79.6928C130.123 79.6928 131.006 84.584 131.427 87.3132C130.286 87.9549 125.511 90.901 125.511 90.901L115.834 93.043L103.917 93.2135L91.7302 89.1714L82.7772 85.4299C82.7772 85.4299 73.6135 72.141 70.8895 63.8947C69.584 59.9399 71.6903 55.6062 75.6097 54.1876C84.5516 50.9561 99.3858 52.8121 99.3858 52.8121C99.3858 52.8121 108.262 55.9009 108.267 55.9097" fill="#EDB266"/>
<path d="M104.427 91.8292L83.2869 84.0456L82.2675 86.8142L103.407 94.5979L104.427 91.8292ZM98.7297 54.1334L116.307 62.8623L117.619 60.2199L100.042 51.4909L98.7297 54.1334ZM131.427 87.3132L132.873 89.8844L134.654 88.8826L134.342 86.8634L131.427 87.3132ZM91.7302 89.1714L90.5925 91.8936L90.6955 91.9366L90.8014 91.9717L91.7302 89.1714ZM70.8895 63.8947L68.0879 64.8196L68.0881 64.8201L70.8895 63.8947ZM75.6097 54.1876L74.6069 51.4129L74.6056 51.4134L75.6097 54.1876ZM125.511 90.901L126.148 93.7816L126.635 93.6738L127.06 93.412L125.511 90.901ZM115.834 93.043L115.877 95.993L116.178 95.9887L116.472 95.9236L115.834 93.043ZM103.917 93.2135L102.988 96.0139L103.461 96.1707L103.959 96.1636L103.917 93.2135ZM82.7772 85.4299L80.3483 87.1048L80.8402 87.818L81.6396 88.1521L82.7772 85.4299ZM99.3858 52.8121L100.355 50.0257L100.061 49.9233L99.7521 49.8846L99.3858 52.8121ZM116.963 61.5411L118.947 59.3578L118.769 59.1957L118.567 59.0647L116.963 61.5411ZM124.313 68.221L126.945 66.888L126.699 66.4032L126.297 66.0376L124.313 68.221ZM130.123 79.6928L133.026 79.1688L132.95 78.7445L132.755 78.3598L130.123 79.6928ZM73.6911 62.9699C72.8865 60.5324 74.1948 57.8373 76.6138 56.9618L74.6056 51.4134C69.1858 53.375 66.2815 59.3475 68.0879 64.8196L73.6911 62.9699ZM129.98 84.742C129.351 85.0955 127.817 86.0272 126.502 86.8303C125.831 87.2405 125.196 87.6303 124.729 87.9174C124.496 88.061 124.304 88.179 124.171 88.2612C124.104 88.3023 124.052 88.3344 124.016 88.3563C123.999 88.3673 123.985 88.3757 123.976 88.3813C123.971 88.3842 123.968 88.3863 123.965 88.3878C123.964 88.3885 123.963 88.3891 123.963 88.3894C123.962 88.3896 123.962 88.3898 123.962 88.3899C123.962 88.3899 123.962 88.39 123.962 88.39C123.962 88.39 123.962 88.39 125.511 90.901C127.06 93.412 127.06 93.412 127.06 93.4119C127.06 93.4119 127.06 93.4119 127.06 93.4118C127.06 93.4118 127.06 93.4116 127.06 93.4115C127.061 93.4111 127.062 93.4106 127.063 93.4099C127.065 93.4086 127.069 93.4065 127.073 93.4037C127.082 93.3982 127.095 93.39 127.113 93.3792C127.148 93.3576 127.199 93.3258 127.265 93.2851C127.398 93.2037 127.588 93.0866 127.82 92.9439C128.284 92.6586 128.914 92.2718 129.579 91.8652C130.938 91.0348 132.361 90.1726 132.873 89.8844L129.98 84.742ZM124.873 88.0204L115.197 90.1624L116.472 95.9236L126.148 93.7816L124.873 88.0204ZM115.792 90.093L103.875 90.2635L103.959 96.1636L115.877 95.993L115.792 90.093ZM104.846 90.4132L92.659 86.3711L90.8014 91.9717L102.988 96.0139L104.846 90.4132ZM92.8678 86.4492L83.9148 82.7077L81.6396 88.1521L90.5925 91.8936L92.8678 86.4492ZM82.7772 85.4299C85.206 83.755 85.2061 83.7552 85.2062 83.7552C85.2061 83.7552 85.2062 83.7552 85.2061 83.7551C85.206 83.755 85.2057 83.7546 85.2053 83.7541C85.2046 83.7529 85.2032 83.751 85.2014 83.7483C85.1976 83.7428 85.1917 83.7342 85.1837 83.7225C85.1676 83.6991 85.1432 83.6634 85.1107 83.6158C85.0458 83.5207 84.949 83.3784 84.8242 83.1933C84.5746 82.8231 84.213 82.2823 83.7698 81.6065C82.8826 80.2539 81.6722 78.3665 80.3797 76.2284C77.7514 71.8805 74.9387 66.7464 73.691 62.9693L68.0881 64.8201C69.5644 69.2893 72.6955 74.9228 75.33 79.2809C76.6689 81.4958 77.9197 83.4461 78.8358 84.8428C79.2942 85.5417 79.6698 86.1035 79.932 86.4923C80.063 86.6867 80.1658 86.8379 80.2365 86.9415C80.2718 86.9932 80.2991 87.0331 80.3179 87.0605C80.3273 87.0742 80.3346 87.0848 80.3397 87.0922C80.3422 87.0959 80.3442 87.0988 80.3457 87.1009C80.3464 87.1019 80.347 87.1028 80.3474 87.1034C80.3476 87.1038 80.3479 87.1041 80.348 87.1042C80.3482 87.1045 80.3483 87.1048 82.7772 85.4299ZM76.6124 56.9623C80.5579 55.5365 86.0539 55.1789 90.8142 55.2381C93.1453 55.2672 95.2102 55.3939 96.6909 55.5134C97.4301 55.5731 98.0207 55.6307 98.4227 55.6729C98.6236 55.694 98.7772 55.7112 98.8784 55.7229C98.929 55.7288 98.9664 55.7332 98.9902 55.7361C99.002 55.7375 99.0105 55.7385 99.0154 55.7391C99.0178 55.7394 99.0194 55.7396 99.0201 55.7397C99.0204 55.7398 99.0206 55.7398 99.0205 55.7398C99.0204 55.7398 99.0202 55.7397 99.0201 55.7397C99.0198 55.7397 99.0195 55.7397 99.3858 52.8121C99.7521 49.8846 99.7516 49.8846 99.7511 49.8845C99.7508 49.8845 99.7502 49.8844 99.7497 49.8843C99.7487 49.8842 99.7475 49.8841 99.7461 49.8839C99.7431 49.8835 99.7393 49.8831 99.7346 49.8825C99.7252 49.8813 99.7122 49.8797 99.6957 49.8778C99.6628 49.8738 99.6159 49.8682 99.5556 49.8613C99.4352 49.8473 99.2613 49.8278 99.0391 49.8045C98.5949 49.7579 97.9568 49.6957 97.1656 49.6318C95.5854 49.5043 93.3829 49.369 90.8877 49.3379C85.9954 49.277 79.6034 49.6072 74.6069 51.4129L76.6124 56.9623ZM99.3858 52.8121C98.4162 55.5986 98.4162 55.5986 98.4163 55.5986C98.4163 55.5987 98.4164 55.5987 98.4166 55.5987C98.4168 55.5988 98.4172 55.599 98.4178 55.5992C98.4189 55.5995 98.4205 55.6001 98.4226 55.6008C98.4269 55.6023 98.4332 55.6045 98.4416 55.6075C98.4584 55.6133 98.4833 55.622 98.5158 55.6333C98.5808 55.6559 98.6761 55.6891 98.7974 55.7313C99.0401 55.8157 99.3868 55.9364 99.8029 56.0812C100.635 56.3709 101.744 56.7572 102.854 57.1437C103.964 57.5303 105.073 57.917 105.905 58.2074C106.321 58.3527 106.666 58.4735 106.908 58.5581C107.029 58.6006 107.121 58.6331 107.182 58.6548C107.214 58.6659 107.233 58.6726 107.241 58.6758C107.248 58.678 107.242 58.6759 107.23 58.6717C107.228 58.6707 107.206 58.6626 107.177 58.6513C107.168 58.6475 107.126 58.6308 107.072 58.6073C107.041 58.5929 106.951 58.5504 106.895 58.5214C106.765 58.4487 106.122 57.9356 105.719 57.3957L110.816 54.4238C110.412 53.8839 109.77 53.3707 109.64 53.298C109.583 53.2689 109.493 53.2262 109.461 53.2117C109.407 53.1879 109.365 53.1709 109.354 53.1667C109.323 53.1545 109.298 53.1451 109.291 53.1425C109.271 53.1351 109.252 53.1283 109.241 53.1244C109.216 53.1154 109.185 53.1042 109.151 53.0922C109.082 53.0677 108.983 53.0329 108.861 52.9901C108.615 52.904 108.267 52.7821 107.85 52.6366C107.016 52.3454 105.905 51.9582 104.795 51.5715C103.685 51.1848 102.575 50.7983 101.743 50.5086C101.327 50.3637 100.98 50.243 100.737 50.1585C100.616 50.1162 100.52 50.083 100.455 50.0604C100.423 50.0491 100.398 50.0404 100.381 50.0346C100.372 50.0316 100.366 50.0294 100.362 50.0279C100.36 50.0272 100.358 50.0266 100.357 50.0263C100.356 50.0261 100.356 50.0259 100.356 50.0258C100.356 50.0258 100.356 50.0258 100.355 50.0257C100.355 50.0257 100.355 50.0257 99.3858 52.8121ZM105.713 57.3868C105.975 57.7647 106.363 58.1585 106.435 58.2175C106.467 58.242 106.516 58.2791 106.534 58.2921C106.564 58.3137 106.588 58.3301 106.594 58.3344C106.612 58.3465 106.626 58.3562 106.631 58.3595C106.644 58.3682 106.657 58.3768 106.667 58.3832C106.688 58.397 106.716 58.4154 106.749 58.4367C106.815 58.4799 106.91 58.542 107.03 58.6197C107.269 58.7752 107.61 58.9965 108.018 59.2612C108.835 59.7908 109.923 60.4958 111.01 61.2004C112.098 61.905 113.185 62.6092 114 63.1374C114.408 63.4014 114.748 63.6215 114.986 63.7755C115.105 63.8525 115.198 63.913 115.262 63.9543C115.294 63.9749 115.318 63.9907 115.335 64.0014C115.343 64.0067 115.349 64.0107 115.353 64.0134C115.355 64.0148 115.357 64.0158 115.358 64.0165C115.358 64.0168 115.359 64.0171 115.359 64.0173C115.359 64.0174 115.359 64.0174 115.359 64.0175C115.359 64.0175 115.359 64.0175 116.963 61.5411C118.567 59.0647 118.567 59.0647 118.567 59.0646C118.567 59.0646 118.567 59.0645 118.566 59.0644C118.566 59.0643 118.566 59.064 118.565 59.0637C118.564 59.063 118.563 59.062 118.561 59.0606C118.556 59.0579 118.55 59.0539 118.542 59.0486C118.526 59.0379 118.501 59.0221 118.469 59.0015C118.406 58.9602 118.312 58.8998 118.193 58.8228C117.956 58.6688 117.616 58.4488 117.208 58.1848C116.393 57.6568 115.306 56.9526 114.219 56.2483C113.132 55.5438 112.045 54.8394 111.229 54.3106C110.821 54.0461 110.482 53.826 110.245 53.6719C110.126 53.5947 110.034 53.5349 109.973 53.4946C109.941 53.4742 109.92 53.4604 109.908 53.4525C109.901 53.4479 109.902 53.4482 109.906 53.4512C109.907 53.4516 109.918 53.4592 109.934 53.4698C109.939 53.4733 109.962 53.4892 109.991 53.5103C110.009 53.5231 110.058 53.5601 110.089 53.5844C110.162 53.6433 110.549 54.0371 110.811 54.4149L105.713 57.3868ZM114.979 63.7245L122.329 70.4043L126.297 66.0376L118.947 59.3578L114.979 63.7245ZM121.681 69.554L127.491 81.0258L132.755 78.3598L126.945 66.888L121.681 69.554ZM130.123 79.6928C127.22 80.2168 127.22 80.2168 127.22 80.2168C127.22 80.2168 127.22 80.2168 127.22 80.2169C127.22 80.217 127.22 80.2172 127.22 80.2175C127.22 80.218 127.22 80.2189 127.22 80.22C127.221 80.2222 127.221 80.2257 127.222 80.2302C127.224 80.2393 127.226 80.253 127.229 80.271C127.236 80.307 127.245 80.3604 127.258 80.4294C127.283 80.5675 127.318 80.768 127.363 81.0174C127.452 81.5161 127.575 82.2095 127.711 82.9874C127.984 84.5502 128.305 86.43 128.511 87.763L134.342 86.8634C134.127 85.4672 133.797 83.5367 133.523 81.9717C133.386 81.1857 133.262 80.4856 133.172 79.982C133.127 79.7302 133.091 79.5273 133.066 79.3872C133.053 79.3171 133.043 79.2628 133.037 79.2258C133.033 79.2073 133.031 79.1932 133.029 79.1836C133.028 79.1788 133.028 79.1752 133.027 79.1727C133.027 79.1715 133.027 79.1706 133.027 79.1699C133.027 79.1696 133.027 79.1693 133.026 79.1692C133.026 79.1691 133.026 79.169 133.026 79.1689C133.026 79.1689 133.026 79.1688 130.123 79.6928Z" fill="#EDB266" mask="url(#path-10-inside-5_300_5446)"/>
<path d="M92.8307 39.1305C90.707 39.196 88.5832 39.2687 86.4594 39.3342C84.5174 40.2586 82.5755 41.1902 80.6335 42.1146C80.2771 42.7478 79.928 43.381 79.5716 44.0069C80.0008 47.0347 79.6662 49.3783 78.6043 49.7713C78.3061 49.8805 77.5861 50.0261 77.5715 49.6621C77.5133 48.1628 77.2515 46.6635 76.7642 45.2224C76.6333 44.8221 76.5242 44.4436 75.9059 43.1626C75.215 41.7434 74.1022 39.5599 72.4148 36.6995C69.6291 35.9498 66.8435 35.1929 64.0578 34.4432C62.8141 35.0764 61.5704 35.7024 60.334 36.3356C59.4975 38.2279 58.6611 40.1276 57.8247 42.0199C58.3484 44.298 58.8793 46.5834 59.403 48.8615C59.8903 49.3928 60.3849 49.9242 60.8722 50.4555C63.8906 50.9722 65.9998 52.0203 66.0507 53.1557C66.0653 53.476 65.9198 53.8763 65.6289 54.1092C64.7997 54.7861 63.3814 53.6143 61.0104 53.5051C60.0939 53.4614 59.3593 53.5924 58.9302 53.687C56.8864 54.3275 54.8354 54.968 52.7916 55.6085C50.8569 57.8284 48.9223 60.0483 46.9876 62.2681C47.2058 63.6437 47.4167 65.0193 47.6276 66.3949C49.315 67.574 51.0024 68.7531 52.6898 69.9322C54.8718 70.3398 57.061 70.7473 59.243 71.1476C59.7375 71.0021 60.4576 70.7328 61.214 70.2379C63.7015 68.6002 64.276 65.9801 65.3816 66.1475C65.8543 66.2202 66.1089 66.7516 66.1525 66.8389C66.6398 67.836 65.898 69.4372 64.2179 70.8274C64.036 71.5771 63.8542 72.334 63.6724 73.0837C63.4469 74.5757 63.1923 77.5889 64.407 81.0607C65.447 84.0375 67.1053 86.0317 68.1236 87.0871C69.5055 87.3127 70.8801 87.5383 72.262 87.764C73.7312 86.4248 75.2077 85.0856 76.6769 83.7464C77.9061 81.8904 79.1425 80.0344 80.3717 78.1785C80.2844 77.4579 80.2044 76.7447 80.1171 76.0241C77.9788 73.8333 76.8805 71.7445 77.5133 70.791C77.6879 70.5217 78.037 70.2888 78.4079 70.267C79.4625 70.2087 79.9208 71.9628 81.7391 73.4403C82.4664 74.0298 83.1573 74.3719 83.5792 74.5539C85.7539 75.3181 87.9286 76.0823 90.1105 76.8538C92.8307 76.1187 95.5437 75.3836 98.2638 74.6485C98.9039 73.4039 99.5512 72.1593 100.191 70.9147C99.3694 68.8113 98.5548 66.7079 97.7329 64.6045C96.351 63.1488 94.9691 61.6931 93.5871 60.2375C92.8744 60.0992 92.1689 59.9536 91.4561 59.8153C88.7068 61.1546 86.3794 61.5694 85.6739 60.6742C85.4702 60.4194 85.3611 60.0119 85.463 59.6552C85.7393 58.6508 87.4776 58.7527 89.3978 57.5445C90.2196 57.0278 90.7942 56.4455 91.1288 56.0598C92.8962 53.8472 94.6636 51.6273 96.431 49.4147C96.2055 46.9765 95.98 44.5309 95.7473 42.0927C94.7654 41.1029 93.7835 40.1203 92.8016 39.1305" fill="#EDB266"/>
<path opacity="0.2" d="M5.70939 34.0079C8.13865 32.8653 10.5606 31.7226 12.9899 30.5799C14.9537 29.9321 16.9174 29.2843 18.8739 28.6293C20.8377 28.2435 22.8015 27.8578 24.7652 27.472L31.7257 26.504C34.1841 27.5084 36.6497 28.5128 39.108 29.51C40.5336 30.6527 41.9664 31.7881 43.392 32.9308C38.6426 32.0719 33.8931 31.2131 29.151 30.3615C25.9362 30.7182 22.7287 31.0748 19.514 31.4314C14.91 32.2903 10.3061 33.1491 5.70211 34.0007L5.70939 34.0079Z" fill="#EDB266"/>
<path opacity="0.8" d="M62.8116 80.4797C61.1533 81.3459 59.4878 82.212 57.8295 83.0781C57.9459 84.7885 58.0695 86.4989 58.1859 88.2093C58.2513 89.5921 58.3168 90.975 58.3822 92.3652C58.5059 94.4104 58.6223 96.4556 58.7459 98.5008C59.1823 100.364 59.626 102.22 60.0624 104.083C60.8115 106.019 61.5534 107.948 62.3025 109.884C64.3099 111.099 66.3173 112.322 68.3175 113.538C68.3466 112.366 68.3829 111.201 68.412 110.03C67.2847 109.091 66.1573 108.159 65.03 107.22C64.3172 104.891 63.6117 102.562 62.8989 100.233C62.3753 98.9811 61.8588 97.4527 61.5243 95.6695C60.8479 92.1104 61.1679 89.0536 61.5752 86.9792C61.9898 84.8103 62.4043 82.6414 62.8189 80.4797H62.8116Z" fill="#EDB266"/>
<path opacity="0.8" d="M49.6028 54.1185C48.1155 52.9836 46.6252 51.8421 45.1379 50.7072C43.638 51.5375 42.1412 52.3744 40.6413 53.2047C39.4165 53.85 38.1917 54.4954 36.9604 55.1439C35.1603 56.1226 33.3572 57.0948 31.5572 58.0736C30.0545 59.2585 28.5615 60.447 27.0588 61.6319C25.6228 63.131 24.1902 64.6204 22.7542 66.1194C22.504 68.4528 22.2473 70.7892 21.9941 73.1159C23.0678 72.6457 24.138 72.1851 25.2116 71.7148C25.5843 70.2958 25.9503 68.8798 26.3229 67.4608C28.1304 65.8281 29.9409 64.202 31.7483 62.5693C32.6603 61.5645 33.8258 60.449 35.2991 59.3902C38.2361 57.2691 41.1405 56.2634 43.1919 55.7532C45.3321 55.2095 47.4723 54.6658 49.6059 54.1251L49.6028 54.1185Z" fill="#EDB266"/>
<path opacity="0.8" d="M74.7851 34.8921C75.5144 33.1693 76.2494 31.4418 76.9787 29.719C75.8015 28.4728 74.6186 27.2312 73.4414 25.9849C72.5116 24.9591 71.5819 23.9334 70.6476 22.9019C69.2519 21.4019 67.8618 19.8973 66.466 18.3972C64.9446 17.2365 63.4222 16.086 61.9007 14.9252C60.0916 13.9071 58.2927 12.89 56.4836 11.872C54.1614 12.21 51.8345 12.5425 49.5179 12.8759C50.2404 13.7989 50.9527 14.7209 51.6753 15.6439C53.1424 15.6518 54.6049 15.6542 56.072 15.6622C58.1029 17.0067 60.1282 18.356 62.1591 19.7005C63.3592 20.3339 64.7296 21.1853 66.1215 22.349C68.9064 24.6661 70.6028 27.2291 71.6072 29.0892C72.6662 31.0269 73.7251 32.9646 74.7794 34.8968L74.7851 34.8921Z" fill="#EDB266"/>
<path opacity="0.8" d="M101.618 49.7341C103.454 50.0937 105.295 50.4579 107.131 50.8175C108.109 49.4092 109.081 47.9964 110.058 46.5881C110.871 45.4673 111.684 44.3466 112.501 43.2202C113.682 41.5459 114.869 39.8762 116.05 38.2019C116.873 36.4744 117.686 34.748 118.51 33.0204C119.134 31.0406 119.76 29.0711 120.384 27.0913C119.576 24.8882 118.772 22.6793 117.97 20.4807C117.215 21.3776 116.459 22.2642 115.704 23.1611C115.998 24.5985 116.296 26.0302 116.59 27.4676C115.692 29.7315 114.788 31.991 113.889 34.2549C113.516 35.5596 112.965 37.0757 112.112 38.6771C110.417 41.8788 108.257 44.0659 106.643 45.4312C104.965 46.8659 103.286 48.3006 101.612 49.7295L101.618 49.7341Z" fill="#EDB266"/>
<path opacity="0.8" d="M93.2513 81.7668C93.6659 83.5911 94.0787 85.4225 94.4934 87.2468C96.1769 87.5704 97.8623 87.887 99.5458 88.2106C100.9 88.4999 102.254 88.7893 103.614 89.0805C105.624 89.4824 107.631 89.8914 109.64 90.2933C111.553 90.3465 113.461 90.3907 115.373 90.4439C117.437 90.2132 119.491 89.9877 121.554 89.757C123.241 88.1258 124.935 86.4966 126.62 84.8725C125.495 84.5456 124.378 84.2135 123.252 83.8865C122.057 84.7372 120.869 85.5897 119.673 86.4404C117.24 86.5357 114.808 86.624 112.374 86.7193C111.03 86.9065 109.42 87.0161 107.611 86.8849C103.997 86.6314 101.123 85.5424 99.2207 84.6197C97.2292 83.6657 95.2376 82.7118 93.2532 81.7597L93.2513 81.7668Z" fill="#EDB266"/>
<path opacity="0.2" d="M63.6214 39.56L63.8323 36.9398L71.2219 39.9458L75.5058 48.1193L74.4585 51.0379L71.7965 46.9256L69.3745 41.5324L63.6214 39.56Z" fill="#EDB266"/>
<path opacity="0.2" d="M52.0279 63.5784L49.6059 62.5667L54.7553 56.4675L63.8541 54.9318L66.2979 56.8387L61.5631 58.0833L55.6863 58.7238L52.0279 63.5784Z" fill="#EDB266"/>
<path opacity="0.2" d="M70.9965 82.8583L69.0691 84.6415L65.6507 77.4287L68.0218 68.5056L70.7711 67.0645L69.9419 71.8972L68.0872 77.5088L70.9965 82.8583Z" fill="#EDB266"/>
<path opacity="0.2" d="M95.8343 70.2233L96.9181 72.6178L89.0048 73.5858L81.2879 68.5201L80.786 65.4633L85.1063 67.7705L89.8485 71.3004L95.8343 70.2233Z" fill="#EDB266"/>
<path opacity="0.2" d="M91.7325 43.2864L94.3145 42.7915L93.3836 50.7176L86.6486 57.0351L83.5647 56.7949L86.8158 53.1412L91.3616 49.3565L91.7325 43.2864Z" fill="#EDB266"/>
</svg>
