<svg width="188" height="166" viewBox="0 0 188 166" fill="none" xmlns="http://www.w3.org/2000/svg">
<g clip-path="url(#clip0_313_1661)">
<path d="M42.9695 24.233L50.0236 42.4149L91.3418 52.0014L135.883 34.686L149.892 15.4185L154.564 13.5659L157.015 24.7758L142.006 58.1516L83.0124 89.3412L53.725 85.2576L31.2177 52.2802L27.3818 24.975L42.9695 24.233Z" fill="#FEBE14" stroke="#D59E29" stroke-width="3.48972" stroke-miterlimit="10"/>
<path d="M157.354 24.0237L142.006 58.1515L69.0138 96.7413L27.2573 87.0901L12.9698 70.213L1.99512 77.7427L20.6366 113.31L63.6934 136.068L115.408 115.576L162.914 70.3972L164.926 26.1452L157.354 24.0237Z" fill="#FEBE14" stroke="#D59E29" stroke-width="3.48972" stroke-miterlimit="10"/>
<path d="M164.891 26.8624L162.913 70.3973L115.408 115.576L68.6395 130.257L45.649 124.789L31.2769 111.766L18.5088 122.568L43.1532 155.794L105.26 163.692L165.673 141.033L185.679 101.871V67.245L174.187 24.3724L170.411 24.1035L164.891 26.8624Z" fill="#FEBE14" stroke="#D59E29" stroke-width="3.48972" stroke-miterlimit="10"/>
<path d="M150.076 14.1284L154.679 19.0038L156.009 24.5416L166.182 27.1063L170.426 24.5217L174.945 25.0147L174.297 17.9929L151.66 9.51201L150.076 14.1284Z" fill="#725220" stroke="#725120" stroke-width="2.6187" stroke-miterlimit="10"/>
<path d="M2.4082 77.459L12.4961 70.5368L14.4091 77.5437L8.30154 82.3444L2.4082 77.459Z" fill="#A99031" stroke="#725120" stroke-width="2.6187" stroke-miterlimit="10"/>
<path d="M18.8877 122.249L30.6495 112.299L32.672 119.953L27.2868 125.092L18.8877 122.249Z" fill="#A99031" stroke="#725120" stroke-width="2.6187" stroke-miterlimit="10"/>
<path d="M153.04 8.56081L157.235 15.8465L166.097 19.96L173.704 16.3595L172.259 8.30683L163.327 2.48524L153.04 8.56081Z" fill="#A99031" stroke="#725120" stroke-width="3.48972" stroke-miterlimit="10"/>
<path d="M39.8408 31.8569L50.0433 52.2897L97.7928 64.6998L136.595 36.06L91.4362 53.2459L49.1765 43.3955L42.4263 26.0254L39.8408 31.8569Z" fill="#FFE298"/>
<path d="M15.7191 77.9769L26.1309 96.2684L75.4745 112.299L143.191 59.2622L69.1478 97.9516L26.624 88.1311L14.6182 73.9431L15.7191 77.9769Z" fill="#FFE298"/>
<path d="M33.9671 120.312L45.6193 136.711L90.9676 147.094L131.793 119.824L164.418 71.0547L116.006 116.592L68.6147 131.442L45.0912 125.844L32.3779 114.306L33.9671 120.312Z" fill="#FFE298"/>
<path d="M28.0537 24.94L41.9377 24.2826L39.0035 30.9159L32.9109 32.8034L28.0537 24.94Z" fill="#A99031" stroke="#725120" stroke-width="2.6187" stroke-miterlimit="10"/>
</g>
<defs>
<clipPath id="clip0_313_1661">
<rect width="187.212" height="164.588" fill="white" transform="translate(0.00195312 0.677734)"/>
</clipPath>
</defs>
</svg>
