<svg width="173" height="133" viewBox="0 0 173 133" fill="none" xmlns="http://www.w3.org/2000/svg">
<g clip-path="url(#clip0_313_1738)">
<path d="M11.5771 115.141L2.06445 63.3422L15.8604 15.7492L39.4046 6.43006L145.72 2.13129L165.8 22.919L170.694 57.9067L166.889 117.29L68.186 131.149L11.5771 115.141Z" fill="#C08C45" stroke="#684A1D" stroke-width="3.95916" stroke-miterlimit="10"/>
<path d="M18.1201 73.6431L23.114 104.825L54.151 113.783V77.8448L18.1201 73.6431Z" fill="#845B24" stroke="#684A1D" stroke-width="2.82797" stroke-miterlimit="10"/>
<path d="M17.3281 57.0028L53.7143 58.5858L54.3516 43.8621L50.1572 30.2248L38.7442 22.3411L24.6509 26.1045L17.8032 44.1026L17.3281 57.0028Z" fill="#845B24" stroke="#684A1D" stroke-width="2.82797" stroke-miterlimit="10"/>
<path d="M68.2864 129.767L67.2127 65.9258L66.0231 36.5212L39.814 7.79548L145.423 2.88759L165.155 23.3145L169.948 57.9219L165.619 116.142L68.2864 129.767Z" fill="#E5B784"/>
<path d="M76.687 79.0243V113.783L157.257 104.041L159.752 68.8089L76.687 79.0243Z" fill="#A4742A" stroke="#684A1D" stroke-width="2.82797" stroke-miterlimit="10"/>
<path d="M59.7241 15.8886L76.6871 35.2408V58.5853L157.991 50.3913L154.998 27.1787L139.595 11.7334L59.7241 15.8886Z" fill="#A4742A" stroke="#684A1D" stroke-width="2.82797" stroke-miterlimit="10"/>
<path d="M60.8135 16.37L77.7494 34.954L154.083 27.6329L139.402 12.2303L60.8135 16.37Z" fill="#CB964D"/>
<path d="M2.06445 63.3422L67.2591 68.8088L169.948 57.9222" stroke="#684A1D" stroke-width="2.82797" stroke-miterlimit="10"/>
<path d="M97.6978 49.1771V63.5128L103.812 70.0579L142.214 64.8707L145.505 56.3469L143.84 43.6834L134.802 39.8618L102.692 43.2062L97.6978 49.1771Z" fill="#D59E29" stroke="#694A1E" stroke-width="2.82797" stroke-miterlimit="10"/>
<path d="M102.127 48.5798V58.5857L105.773 62.9155L136.752 59.5634L141.468 61.1463L144.979 56.2462L143.392 44.0017L134.663 40.8513L107.616 43.668L102.127 48.5798Z" fill="#FEBE14"/>
<path d="M119.875 53.7165L120.412 59.928L127.842 59.0356L126.595 52.9405L131.589 52.0443L128.735 46.6088L116.963 47.2062L115.476 53.2703L119.875 53.7165Z" fill="#684A1D"/>
<path d="M134.663 40.8513L138.842 46.0812L140.232 54.3257L136.753 59.5634L141.885 64.3937L144.979 56.2462L143.392 44.0017L134.663 40.8513Z" fill="#FFE298"/>
<path d="M115.476 53.2701L116.962 47.2061C116.962 47.2061 123.015 46.8996 122.926 46.9034C122.899 46.9034 121.597 51.0781 121.597 51.0781L125.463 59.3187L120.408 59.9278L119.871 53.7163L115.472 53.2701H115.476Z" fill="#332515"/>
</g>
<defs>
<clipPath id="clip0_313_1738">
<rect width="171.375" height="131.784" fill="white" transform="translate(0.678223 0.75)"/>
</clipPath>
</defs>
</svg>
