<svg width="207" height="147" viewBox="0 0 207 147" fill="none" xmlns="http://www.w3.org/2000/svg">
<path d="M117.421 28.8847L100.72 8.92485L64.4662 2L29.4346 10.1469L6.62336 32.5508L2 65.5457L13.9556 95.2818L36.3188 111.168L63.2442 120.13L90.5363 118.069L117.421 28.8847Z" fill="#442000"/>
<path d="M34.3226 16.257L22.917 44.7711L31.015 69.6191L44.9136 83.0615L69.3542 93.6524L90.5361 92.3774L117.421 27.4794L100.72 8.92482L64.4661 1.99997L34.3226 16.257Z" fill="#583400"/>
<path d="M96.2393 15.8496L70.1692 14.2202L53.8755 28.8846L52.2461 48.0298L70.1692 67.5823H88.9071L112.94 39.0682L96.2393 15.8496Z" fill="#704600"/>
<path d="M15.1777 50.0665V63.5089L30.2495 65.5456L36.3596 55.7694L28.9052 45.7894L15.1777 50.0665Z" fill="#2A1000"/>
<path d="M18.0293 25.2185V38.6609L31.0643 40.6976L37.1745 30.9214L31.7568 20.9414L18.0293 25.2185Z" fill="#2A1000"/>
<path d="M41.2471 34.9949V48.4373L53.4674 51.6961L62.429 42.7345L54.9746 30.7178L41.2471 34.9949Z" fill="#2A1000"/>
<path d="M80.3522 110.354L78.3154 65.5457L117.42 28.8847L161.414 24.8113L187.484 47.6226L203.37 69.6191L204.999 104.651L191.557 130.721L159.784 144.978L120.679 140.904L80.3522 110.354Z" fill="#6C3D00"/>
<path d="M82.7969 67.9896L118.643 33.7727L158.156 28.8846L180.653 51.3252L183.411 89.9862L161.508 120.574L121.902 133.165L84.4263 107.909L82.7969 67.9896Z" fill="#E8E8E8"/>
<path d="M91.522 103.852C91.522 102.81 90.1289 69.7495 90.1289 69.7495L120.749 40.5185L154.502 36.3432L173.72 55.5128L176.079 88.5403L157.365 114.667L123.531 125.425L91.518 103.852H91.522Z" fill="white"/>
<path d="M106.015 98.1333L105.2 74.9146L128.011 53.3254L148.379 52.1034L159.784 65.5457V86.7276L147.971 102.614L125.16 111.168L106.015 98.1333Z" fill="#D4D4D4"/>
<path d="M105.2 74.9145L125.16 85.0981L142.676 81.8394L159.784 65.5456V86.7275L147.971 102.614L125.16 111.168L106.015 98.1331L105.2 74.9145Z" fill="#BDBDBD"/>
<path d="M203.371 69.6191L199.704 91.2083L189.521 115.649L163.043 133.165L120.68 140.904L159.785 144.978L191.558 130.721L205 104.651L203.371 69.6191Z" fill="#543200"/>
<path d="M80.3522 110.354L120.679 140.904L159.784 144.978L191.557 130.721L204.999 104.651L203.37 69.6191L187.484 47.6226L161.414 24.8113L117.42 28.8847L78.3154 65.5457L80.3522 110.354Z" stroke="#401000" stroke-width="2.03672" stroke-miterlimit="10"/>
<path d="M118.643 33.7727L158.156 28.8846L180.653 51.3252L183.411 89.9862L161.508 120.574L121.902 133.165L84.4263 107.909L82.7969 67.9896L118.643 33.7727Z" stroke="#401000" stroke-width="2.03672" stroke-miterlimit="10"/>
<path d="M148.379 52.1033L159.784 65.5457V86.7276L147.971 102.614L125.16 111.168L106.015 98.1332L105.2 74.9146L128.011 53.3254L148.379 52.1033Z" stroke="#9E9E9E" stroke-width="1.62938" stroke-miterlimit="10"/>
<path d="M117.421 27.4794L100.72 8.92485L64.4662 2L29.4346 10.1469L6.62336 32.5508L2 65.5457L13.9556 95.2818L36.3188 111.168L63.2442 120.13L90.5363 118.069L80.3527 110.354L78.3159 65.5457L117.421 27.4794Z" stroke="#300E00" stroke-width="2.03672" stroke-miterlimit="10"/>
<path d="M41.2471 34.9949V48.4373L53.4674 51.6961L62.429 42.7345L54.9746 30.7178L41.2471 34.9949Z" stroke="black" stroke-width="1.62938" stroke-miterlimit="10"/>
<path d="M28.9052 45.7894L36.3596 55.7694L30.2495 65.5456L15.1777 63.5089V50.0665L28.9052 45.7894Z" stroke="black" stroke-width="1.62938" stroke-miterlimit="10"/>
<path d="M18.0293 38.6609L31.0643 40.6976L37.1745 30.9214L31.7568 20.9414L18.0293 25.2185V38.6609Z" stroke="black" stroke-width="1.62938" stroke-miterlimit="10"/>
</svg>
