<svg width="164" height="198" viewBox="0 0 164 198" fill="none" xmlns="http://www.w3.org/2000/svg">
<g clip-path="url(#clip0_319_1465)">
<path d="M1.20557 107.555L9.80943 77.6981L36.7433 48.7415L97.289 44.5989L138.327 63.5246L162.836 97.4344V136.99L140.537 186.383L100.725 196.455L37.824 189.084L12.9129 160.335L1.20557 107.555Z" fill="#A4742A" stroke="#684A1D" stroke-width="2.33454" stroke-miterlimit="10"/>
<path d="M16.1128 110.624L30.4456 78.1831L61.6676 60.338L109.141 62.0976L137.807 89.5025L150.124 113.257L140.89 157.89L115.175 179.511L76.5131 180.522L39.9986 162.878L25.9151 137.018L16.1128 110.624Z" fill="#C08C45" stroke="#684A1D" stroke-width="2.33454" stroke-miterlimit="10"/>
<path d="M78.8618 70.7292L83.8911 70.2997L87.431 75.9456L88.2485 68.8935L94.7256 67.9583L94.1091 89.4541L89.2322 89.5718L83.8288 81.4667L83.7803 89.6203L77.4209 89.7727L78.8618 70.7292Z" fill="#F3E4D3" stroke="#684A1D" stroke-width="1.96739" stroke-miterlimit="10"/>
<path d="M92.1559 149.238L84.9514 151.053L82.1458 155.507L85.4363 160.779L89.3572 163.148L89.856 165.94L86.8495 167.27L80.9265 164.464L79.2432 171.599L88.2419 174.142L98.5984 169.777V161.326L90.9297 157.647L92.1213 155.632L98.5984 156.511L99.4713 151.877L92.1559 149.238Z" fill="#F3E4D3" stroke="#684A1D" stroke-width="1.96739" stroke-miterlimit="10"/>
<path d="M29.3169 112.779L33.5357 128.996H39.8604L43.2895 120.884L45.9289 128.996H52.122L58.3221 110.534H50.6742L48.8245 117.524L45.5202 111.649L40.6917 111.816L37.7545 120.032L35.51 112.384L29.3169 112.779Z" fill="#F3E4D3" stroke="#684A1D" stroke-width="1.96739" stroke-miterlimit="10"/>
<path d="M116.692 104.424L117.808 129.681L134.593 128.4V123.447L124.52 123.606L124.042 119.45L132.993 118.494V112.896L124.202 114.178L124.042 110.818L132.833 109.737L132.674 106.184L116.692 104.424Z" fill="#F3E4D3" stroke="#684A1D" stroke-width="1.96739" stroke-miterlimit="10"/>
<path d="M58.3223 87.0363L70.0088 115.224L85.2215 104.105L58.3223 87.0363Z" fill="#EE3534" stroke="#684A1D" stroke-width="1.52403" stroke-miterlimit="10"/>
<path d="M114.282 150.242L100.316 123.107L86.0732 135.438L114.282 150.242Z" fill="#173F6B" stroke="#684A1D" stroke-width="1.52403" stroke-miterlimit="10"/>
<path d="M70.6388 46.4206L75.4048 20.7406L64.7366 8.10495L62.6307 8.98473L60.4277 31.5682L62.4644 46.9817L70.6388 46.4206Z" fill="#20170D" stroke="#684A1D" stroke-width="2.33454" stroke-miterlimit="10"/>
<path d="M62.6309 8.98486L69.9739 24.7309L70.639 46.4207L97.2888 44.5988L105.207 48.2495L116.693 16.9237L103.523 1.21228L66.0253 4.07331L62.6309 8.58307V8.98486Z" fill="#A4742A" stroke="#684A1D" stroke-width="2.33454" stroke-miterlimit="10"/>
<path d="M77.9962 9.42843C78.1555 9.48385 92.0589 19.5148 92.0589 19.5148L98.8685 32.3929L107.556 38.4336L115.356 17.1525L105.65 5.57678C105.013 5.68069 77.9893 9.43536 77.9893 9.43536L77.9962 9.42843Z" fill="#C59049"/>
<path d="M113.097 53.3064C113.256 53.3618 139.379 77.6979 139.379 77.6979L152.334 98.8889L161.658 125.691V97.8013L137.537 64.4319L113.097 53.2995V53.3064Z" fill="#C59049"/>
<path d="M76.022 118.605L80.7811 110.735H89.8214L94.3727 117.018L93.6176 124.867L84.6051 128.795L77.9547 125.719L76.022 118.605Z" fill="#20170D"/>
<path d="M83.8706 104.147L78.294 108.227C78.294 108.227 59.6453 88.7819 59.964 88.9967C60.2827 89.2115 83.8706 104.147 83.8706 104.147Z" fill="#F18686"/>
<path d="M112.508 148.455L96.0142 127.846C96.0142 127.846 99.7688 124.112 100.087 124.326C100.406 124.541 112.515 148.455 112.515 148.455H112.508Z" fill="#4A78AB"/>
<path d="M93.8873 122.068L94.3722 117.011L89.8209 110.728H83.8772L82.1245 114.718L83.5862 119.976L87.9643 123.357L93.8804 122.055L93.8873 122.068Z" fill="#434343"/>
</g>
<defs>
<clipPath id="clip0_319_1465">
<rect width="164" height="197.64" fill="white"/>
</clipPath>
</defs>
</svg>
