<svg width="253" height="201" viewBox="0 0 253 201" fill="none" xmlns="http://www.w3.org/2000/svg">
<g clip-path="url(#clip0_328_1558)">
<path d="M219.604 141.241L102.692 59.9883L105.555 37.0563L81.8391 14.802L46.8982 18.2898L30.5697 45.4674L37.7731 77.6611L66.367 90.3801L93.2591 78.0927L135.478 108.013L111.321 132.861L113.049 153.847L132.458 150.858L151.343 119.64L169.976 132.62L147.849 158.923L151.209 178.095L168.405 173.617L186.362 144.379L208.285 159.727L220.756 156.485L219.601 141.24L219.604 141.241ZM70.8597 63.3102L56.5673 57.7151L55.0808 45.7208L65.9348 37.6572L78.762 41.2458L82.0816 54.4729L70.8597 63.3102Z" fill="#FEBE14" stroke="#B96E29" stroke-width="3.60656" stroke-miterlimit="10"/>
<path d="M35.058 60.93L38.7559 76.9407L66.3935 89.2278L93.3964 76.8937L143.657 112.598L113.946 152.65L131.819 149.915L151.095 118.147L178.415 137.224L152.069 176.814L167.708 172.684L186.072 142.932L208.507 158.587L219.653 155.713L88.8872 64.0286L75.7871 72.5083L58.2767 71.6072L35.058 60.93Z" fill="#F99F1E"/>
<path d="M48.9299 31.4102L58.9729 23.8343L78.8219 21.7574L92.8216 33.3192L95.3821 43.2985L80.3185 31.3878L64.1057 28.6542L48.9299 31.4102Z" fill="#FFE298"/>
<path d="M100.24 63.399L215.067 143.013L215.4 146.684L98.3693 64.9447L100.24 63.399Z" fill="#FFE298"/>
</g>
<defs>
<clipPath id="clip0_328_1558">
<rect width="220" height="129.435" fill="white" transform="translate(47.1836) rotate(21.3788)"/>
</clipPath>
</defs>
</svg>
