<svg width="147" height="170" viewBox="0 0 147 170" fill="none" xmlns="http://www.w3.org/2000/svg">
<g clip-path="url(#clip0_336_1692)">
<path fill-rule="evenodd" clip-rule="evenodd" d="M139.941 159.78C137.281 162.358 128.039 167.411 125.083 168.217C123.287 168.717 121.82 168.637 121.081 168.66C107.587 169.16 86.0905 167.445 72.7444 167.184C67.0149 167.07 61.9107 167.309 51.6908 167.774C39.8453 168.319 29.4891 169.16 20.9971 170C18.553 168.229 15.2222 165.492 11.9482 161.563C3.89963 151.888 1.78518 141.737 1.01215 137.796C-1.89807 122.944 2.08074 110.612 5.21832 100.869C8.43547 90.9104 15.5291 74.1727 17.2912 64.691C18.0642 60.5236 18.4393 56.3335 18.4393 56.3335C18.7349 52.9496 18.8031 50.0427 18.7804 47.8057C15.8133 47.7603 12.8463 47.7035 9.87921 47.6581C8.82199 46.4317 7.43509 44.5581 6.32102 42.0258C4.83181 38.6533 3.89963 21.961 5.43431 15.6589C5.99135 13.3651 7.44645 7.33544 10.7773 3.96292C17.8709 -3.23633 29.6937 5.42775 54.2259 5.7457C65.5712 5.89332 76.2458 6.02958 89.0689 2.48673C93.0705 1.38527 101.54 -1.26051 111.464 0.70395C116.489 1.70322 119.365 3.37244 121.252 4.84863C125.867 8.44826 127.607 13.138 128.664 16.1017C129.187 17.5779 131.108 23.301 129.994 34.4632C129.789 36.4618 128.982 43.8313 125.549 53.7218C122.104 63.6577 119.035 67.3936 114.602 80.225C113.59 83.1547 112.885 85.4485 112.567 86.5386C112.248 87.5833 110.191 94.5213 108.917 101.232C106.928 111.747 106.883 121.865 107.008 127.338C110.486 127.406 113.988 127.463 117.534 127.486C123.594 127.531 129.55 127.508 135.405 127.418C136.803 127.713 143.135 129.223 145.864 134.73C147.216 137.467 147.069 139.965 146.898 142.736C146.762 145.041 146.227 153.682 139.952 159.769L139.941 159.78Z" fill="black"/>
<path fill-rule="evenodd" clip-rule="evenodd" d="M120.342 165.117C116.022 165.378 109.838 165.617 102.404 165.424C90.1829 165.106 87.1818 164.22 73.8925 163.698C67.7424 163.459 61.5582 163.721 55.3968 163.914C48.8715 164.118 43.8241 164.47 38.8563 164.799C32.1719 165.231 26.5106 165.708 22.2248 166.094C19.974 164.345 18.2006 162.608 16.8478 161.12C14.3695 158.406 12.5734 155.749 11.698 154.205C11.5616 153.966 10.7431 152.513 10.6749 152.411C9.70864 150.707 9.00382 149.458 8.98109 149.424C8.12849 147.903 5.68436 142.395 4.53619 137.41C2.42173 128.247 4.17241 118.663 4.97954 114.45C6.20729 108.011 7.48051 105.434 12.2551 91.887C15.188 83.5522 17.4389 76.739 18.8713 72.3332C17.9732 76.1486 20.8607 64.7251 21.3268 60.8303C21.7246 57.594 21.4632 57.1171 22.1112 50.1677C22.2362 48.7823 22.3613 47.6468 22.4408 46.9087C35.3663 46.023 46.0181 46.0684 53.612 46.3069C60.2509 46.5113 65.9918 46.9428 77.1893 47.7831C88.887 48.6688 98.5725 49.5204 105.359 50.1563C105.95 49.8838 106.814 49.4182 107.735 48.6801C109.486 47.2493 110.691 45.353 112.623 39.4937C113.737 36.1439 114.283 34.4747 114.795 32.0106C115.818 26.9688 116.739 22.4835 114.556 20.6893C113.863 20.1216 112.805 19.8604 110.702 19.3608C109.622 19.0996 108.61 18.9406 107.008 18.7703C105.177 18.5772 102.961 18.4296 97.5835 18.3842C96.5377 18.3842 95.2303 18.3615 93.7184 18.3729C94.0594 17.5439 94.2527 16.8512 94.6051 16.2608C95.8215 14.2055 97.072 12.1842 98.3452 10.1857C100.141 7.38094 102.529 5.30292 105.609 3.94028C110.27 1.88498 119.49 6.29083 123.707 13.5696C125.742 17.0784 125.867 21.2003 126.106 29.4329C126.106 29.4329 126.39 39.0963 123.855 48.5098C123.548 49.6567 123.184 50.7014 123.184 50.7014C122.775 51.8142 122.298 52.768 121.286 55.0618C120.877 55.9929 119.763 58.5706 117.648 63.7713C111.634 78.6126 108.633 86.0277 106.53 95.339C104.495 104.344 103.938 111.884 103.415 118.89C103.165 122.285 103.097 125.351 102.972 131.483C102.904 134.81 102.881 137.751 103.415 141.555C103.643 143.133 103.825 144.473 104.302 146.143C105.587 150.639 107.837 153.682 109.19 155.477C112.885 160.359 117.227 163.368 120.308 165.106L120.342 165.117ZM43.6308 112.202C41.9711 110.407 40.5387 108.806 39.0382 107.251C36.81 104.957 35.1617 105.07 33.2177 107.614C32.0355 109.158 30.9669 110.794 29.7277 112.292C28.2385 114.098 27.8634 115.37 29.1593 117.209C30.3416 118.89 30.9328 120.605 30.8873 122.614C30.8418 124.113 31.5694 125.056 33.0358 125.442C34.0817 125.714 35.1162 126.191 36.162 126.248C43.3921 126.657 50.6222 127.066 57.8636 127.293C60.8875 127.384 63.9228 127.066 66.9467 126.861C68.254 126.782 69.5841 126.6 70.2775 125.249C71.3916 123.069 70.2889 121.263 69.2203 119.503C68.2426 117.913 66.7421 117.311 65.0255 118.038C63.0929 118.844 61.6946 118.379 60.501 116.789C59.3983 115.302 57.9432 114.813 56.2039 115.483C54.5328 116.119 53.305 115.483 52.1114 114.37C50.8495 113.189 49.4854 112.122 48.1894 110.975C47.2345 110.135 46.3023 110.021 45.2906 110.839C44.7904 111.248 44.2788 111.657 43.6308 112.19V112.213V112.202ZM52.7366 65.0885C50.9178 65.3156 49.0648 65.4292 47.2686 65.7925C43.2557 66.6101 40.8002 69.5171 40.391 73.7639C40.0385 77.4203 42.1189 81.4061 45.4838 82.6665C51.3043 84.8581 57.3293 86.1753 63.559 84.6423C68.47 83.4273 73.3696 82.0419 78.201 80.5658C79.5879 80.1343 80.9634 79.2486 82.0434 78.2379C85.3288 75.1606 84.7149 71.879 80.4974 70.3006C78.292 69.4716 75.9274 69.0742 73.6197 68.5519C70.9937 67.9387 68.1858 67.7911 65.753 66.7464C61.5014 64.8955 57.1929 64.6684 52.7366 65.0999V65.0885ZM78.6557 147.358C77.1893 146.188 75.7114 144.95 74.1654 143.837C73.7106 143.508 72.6534 143.27 72.4943 143.474C72.0964 143.962 71.8236 144.803 71.9486 145.404C72.0964 146.086 72.6875 146.71 73.1991 147.244C74.0062 148.084 74.8816 148.822 75.8024 149.663C75.1203 150.31 74.4268 150.753 74.0631 151.377C73.6766 152.047 73.1877 153.115 73.4606 153.603C74.0631 154.682 75.1317 154.216 75.9956 153.66C77.0528 152.944 78.0873 152.161 79.2469 151.332C80.0881 152.002 80.8384 152.581 81.6001 153.183C82.4072 153.807 83.2598 154.375 84.1692 153.455C85.2151 152.399 84.5671 151.514 83.7486 150.685C83.2939 150.242 82.896 149.765 82.2026 149.027C83.6349 148.005 84.8968 147.04 86.2268 146.199C87.1363 145.62 87.8638 144.939 87.3296 143.86C86.7043 142.588 85.5789 142.747 84.5671 143.395C82.7596 144.564 80.9976 145.802 78.6444 147.392V147.369L78.6557 147.358ZM8.92425 130.404C10.5044 130.904 12.3006 130.972 13.1759 131.903C14.1535 132.936 14.3013 134.742 14.8584 136.366C12.7666 137.331 11.0614 138.103 9.3676 138.887C10.6181 142.202 11.4934 142.679 14.3468 141.828C15.6769 141.43 17.0638 141.146 18.4052 140.726C20.9857 139.908 21.8497 137.671 20.6106 134.685C19.235 134.958 17.8027 135.241 16.3248 135.548C15.3586 132.312 14.4605 129.257 13.5056 126.089C11.0273 126.668 9.94737 128.247 8.93562 130.427H8.92425V130.404ZM46.7684 140.567C47.8711 140.726 49.0534 140.567 49.3376 140.987C50.4403 142.588 51.9068 142.429 53.3846 142.111C54.8738 141.793 57.1361 142.168 57.3407 140.136C57.5339 138.228 55.1808 138.058 53.953 137.115C53.7257 136.945 53.3164 136.786 53.0436 136.854C50.8609 137.49 48.9852 136.718 46.6547 135.105C46.7002 137.263 46.7229 138.796 46.7684 140.544V140.567ZM49.1557 92.1254C46.6775 92.2731 45.1996 93.7152 45.2792 95.9068C45.3588 98.0983 47.1436 99.6426 49.3603 99.4723C51.452 99.2906 53.1118 97.6555 53.0777 95.7705C53.0208 93.4313 51.4748 91.9892 49.1557 92.1254ZM71.2097 106.513C73.7334 105.627 73.9039 105.4 74.0517 102.936C71.5053 103.163 70.5958 104.31 71.2097 106.513ZM90.8195 108.398C91.1606 108.398 91.5016 108.409 91.8427 108.42C92.8885 107.444 93.15 106.24 92.377 104.889C92.2178 104.605 91.638 104.366 91.297 104.423C90.9673 104.469 90.4444 104.911 90.4558 105.173C90.4785 106.251 90.6831 107.319 90.8195 108.398ZM80.7475 86.1185C81.4977 87.5493 82.7482 87.4811 83.9873 87.2427C84.3056 87.1859 84.7945 86.6068 84.7376 86.391C84.624 85.9709 84.2374 85.3577 83.885 85.3009C82.7937 85.1079 81.5887 84.8694 80.7588 86.1299L80.7475 86.1185ZM31.8763 90.8082C30.3189 91.7734 29.3867 92.8181 29.1025 93.9536C31.8195 94.2375 32.3197 93.7265 31.8763 90.8082ZM82.0662 97.0763C81.2136 97.0196 80.6792 96.8606 80.2132 96.9628C79.1559 97.2126 78.0646 97.5419 77.9396 98.8932C77.9168 99.1544 78.292 99.6994 78.3715 99.6654C79.2696 99.4496 80.2132 99.2566 80.9862 98.8137C81.4182 98.5525 81.6114 97.8485 82.0662 97.0763ZM79.1446 135.4C78.4511 136.718 77.8259 137.376 77.9282 137.865C78.076 138.557 78.7694 139.125 79.2469 139.75C79.6448 139.227 80.3496 138.705 80.3496 138.182C80.3496 137.501 79.7925 136.809 79.1332 135.412L79.1446 135.4ZM81.0885 123.216C80.3496 122.683 79.9858 122.206 79.5652 122.16C78.5989 122.035 77.5076 123.682 77.86 124.783C77.985 125.147 78.8945 125.658 78.9627 125.601C79.6675 124.92 80.2814 124.147 81.0771 123.216H81.0885ZM66.9694 107.478C65.7417 107.251 64.8436 106.944 63.9569 106.967C63.5022 106.967 62.7178 107.58 62.7064 107.921C62.7064 108.386 63.218 109.181 63.6499 109.283C64.8663 109.556 66.1509 109.601 66.9694 107.489V107.478ZM86.5679 98.1551C86.7725 100.358 87.9321 100.517 88.9211 100.699C89.2849 100.767 89.9669 100.335 90.1147 99.9833C90.2398 99.654 89.9328 98.8137 89.6373 98.7229C88.7392 98.4276 87.7729 98.3595 86.5565 98.1665L86.5679 98.1551ZM87.7843 115.551C89.3531 115.824 90.433 115.336 90.8877 113.803C90.9673 113.53 90.6263 112.86 90.3762 112.781C88.9097 112.349 88.364 113.564 87.7388 114.495C87.6024 114.688 87.7615 115.074 87.7956 115.551H87.7843ZM34.5933 141.351C35.2753 138.693 34.9457 138.182 32.331 137.887C32.8198 139.273 32.7516 140.851 34.5933 141.351ZM97.0492 76.1826C95.4009 77.2841 95.128 78.5445 95.5373 80.1343C97.9473 79.3962 98.2429 78.7035 97.0492 76.1826ZM32.6607 83.3024C32.4561 83.8474 32.0582 84.4152 32.0923 84.9716C32.1037 85.5053 32.5584 86.0049 32.8085 86.5159C33.3087 86.0958 34.1044 85.7551 34.275 85.2214C34.616 84.1427 34.1158 83.3705 32.6721 83.291H32.6607V83.3024ZM33.843 148.448C31.9559 147.539 30.8532 147.948 29.6368 149.277C31.3647 150.514 32.4902 150.162 33.843 148.448ZM74.5632 88.0943C72.7444 86.9474 71.6076 86.9929 70.6527 88.7643C72.0737 90.0474 73.1309 89.6727 74.5632 88.0943ZM26.3514 132.164C27.9202 129.814 27.727 129.405 24.6462 128.088C25.2601 129.552 25.6921 130.586 26.3514 132.164ZM24.8168 115.29C23.7254 116.517 24.1688 117.584 25.0782 118.549C25.2146 118.685 25.9763 118.549 26.1241 118.322C26.863 117.232 26.306 116.346 25.4875 115.585C25.4193 115.517 25.2942 115.506 24.8168 115.29ZM30.2848 76.0918C29.9665 77.7951 29.7618 79.1463 31.5012 79.7595C31.7285 79.839 32.3992 79.4075 32.422 79.1804C32.5129 77.8519 32.0355 76.7731 30.2848 76.0918ZM97.3789 72.9237C96.8105 70.0167 96.6968 69.9145 94.4005 70.2438C94.4687 71.9698 95.5259 72.583 97.3789 72.9237ZM33.6611 145.518C34.9911 146.279 35.6619 145.791 35.9461 144.905C36.2871 143.826 36.0711 142.884 34.3659 142.339C34.0931 143.542 33.8771 144.564 33.6611 145.529V145.518ZM68.6519 59.7969C69.459 60.7621 70.2434 61.5797 71.5735 60.887C71.7553 60.7962 71.9259 60.2512 71.8236 60.0808C71.1301 59.0248 70.232 58.4684 68.9702 59.2065C68.902 59.2519 68.8792 59.3881 68.6519 59.7742V59.7969ZM38.7312 61.4321C38.6062 61.205 38.4811 60.9779 38.3674 60.7621C35.7983 60.6145 35.7414 60.6713 35.8437 63.442C36.9578 62.6698 37.8559 62.0566 38.7426 61.4321H38.7312ZM78.8831 132.039C79.7925 130.847 79.5766 129.904 78.417 129.337C78.0873 129.178 76.996 129.689 76.9619 129.973C76.78 131.278 77.6326 131.835 78.8831 132.039ZM27.9089 133.198C28.3067 133.799 28.4545 134.288 28.7615 134.435C29.3753 134.719 30.0688 134.844 30.7395 134.958C30.8191 134.969 31.1601 134.276 31.0805 134.197C30.5917 133.697 30.0688 133.163 29.4663 132.88C29.1366 132.732 28.5796 133.039 27.8975 133.209H27.9089V133.198ZM32.3083 71.7995C33.1154 70.3233 33.9794 69.4149 32.979 68.0749C31.6262 68.9834 31.4102 70.2211 32.3083 71.7995ZM82.2139 120.514C83.7031 121.047 84.8058 121.047 85.522 119.866C85.6698 119.617 85.2947 118.674 85.0446 118.617C83.7827 118.356 82.8164 118.844 82.2139 120.514ZM42.5964 57.1171C44.9495 59.0929 45.2906 59.0475 46.4842 56.8219C45.2451 56.9127 44.2106 57.0035 42.5964 57.1171ZM25.5102 121.047C23.9983 122.308 23.8505 123.364 25.0782 124.692C26.6925 123.75 26.5788 122.694 25.5102 121.047ZM26.4196 98.9159C26.9312 97.9734 27.3291 97.3262 27.6019 96.6221C27.6247 96.5426 26.7607 95.9522 26.7152 96.009C26.1809 96.554 25.7035 97.1672 25.3169 97.8031C25.2715 97.8826 25.8171 98.3141 26.4196 98.9159ZM65.969 92.1027C64.639 91.3646 63.8318 91.8075 63.434 92.9998C63.343 93.295 63.5135 93.965 63.7523 94.0786C64.8777 94.6123 65.4347 93.7947 65.9349 92.9657C66.0259 92.8181 65.9577 92.5683 65.9804 92.1141L65.969 92.1027ZM55.1808 56.6175C54.2258 55.6296 53.2482 54.7325 52.0091 56.4698C52.9754 57.7871 54.0553 57.4805 55.1808 56.6175ZM92.8658 64.8841C91.8881 64.3391 91.3197 63.8735 90.6831 63.7713C90.3648 63.7145 89.9328 64.3277 89.5577 64.6456C90.1033 65.0658 90.5922 65.6108 91.2061 65.838C91.4902 65.9515 92.0132 65.4065 92.8658 64.8955V64.8841ZM60.8875 99.8243C60.4555 100.721 59.9667 101.255 60.0008 101.743C60.0463 102.243 60.5806 102.697 60.9103 103.174C61.274 102.663 61.8765 102.164 61.9561 101.607C62.013 101.176 61.4104 100.653 60.8761 99.8243H60.8875ZM89.66 85.4031C89.9101 85.6302 90.0692 85.9027 90.2057 85.8914C90.9673 85.8005 91.729 85.687 92.4679 85.4599C92.5816 85.4372 92.4679 84.7218 92.4565 84.3357C91.7062 84.4606 90.9446 84.5401 90.1943 84.6991C90.0465 84.7218 89.9442 85.017 89.66 85.4031ZM23.1002 112.122C23.373 112.19 23.6458 112.258 23.9073 112.338C24.2029 111.884 24.7826 111.395 24.7372 110.975C24.6462 110.055 24.2825 109.102 22.6909 109.317C22.8387 110.328 22.9638 111.225 23.0888 112.133H23.1002V112.122ZM26.3514 146.12C26.0559 147.585 26.7493 148.323 28.4091 148.368C28.3636 146.983 27.5337 146.449 26.3514 146.12ZM24.5894 141.453C24.1688 142.202 23.7141 142.679 23.6686 143.19C23.6458 143.429 24.578 144.087 24.7258 143.996C25.1919 143.713 25.6239 143.19 25.7603 142.679C25.8171 142.452 25.1464 142.009 24.5894 141.453ZM39.652 100.687C38.9017 100.12 38.4811 99.5291 38.015 99.5064C37.5944 99.4837 37.1283 100.051 36.685 100.358C37.0715 100.79 37.3898 101.482 37.8673 101.596C38.2765 101.687 38.8335 101.13 39.6634 100.699H39.652V100.687ZM80.3837 61.7955C81.3613 62.9424 82.0548 63.5215 83.2598 62.42C82.6232 61.1823 81.8956 60.7735 80.3837 61.7955ZM24.8054 103.027C24.3393 102.572 23.8846 102.061 23.8391 102.107C23.3844 102.447 22.941 102.845 22.6455 103.322C22.5773 103.447 23.0661 103.901 23.3162 104.219C23.7482 103.878 24.2029 103.526 24.8281 103.038H24.8168L24.8054 103.027ZM61.8083 59.2405C62.1494 58.616 62.5131 58.1618 62.4222 58.0142C62.1721 57.6281 61.7742 57.2988 61.3422 57.1057C61.2058 57.049 60.5692 57.7076 60.6033 57.7757C60.8648 58.2299 61.2286 58.5933 61.7856 59.2405H61.797H61.8083Z" fill="#E1DBCF"/>
<path fill-rule="evenodd" clip-rule="evenodd" d="M99.4366 4.62161C97.8564 5.85934 89.6714 12.5022 89.0575 23.2216C88.6824 29.9098 91.4221 35.1219 92.7635 37.586C95.6283 42.8662 99.3911 46.1252 101.665 47.8058C99.1751 47.5105 95.4123 47.079 90.8423 46.6248C78.0306 45.3303 60.1941 43.5702 38.3561 43.5135C31.4671 43.5021 21.9862 43.6497 10.6295 44.3765C9.07208 40.8677 6.32101 33.3505 7.21909 23.6758C7.98075 15.4773 14.6197 4.36044 14.6197 4.36044C15.4723 4.41722 19.5079 5.00769 20.6675 5.24616C20.9971 5.31429 33.1041 7.73296 39.5725 8.4597C45.7112 9.15237 50.0652 9.0956 58.6822 8.9934C63.3203 8.93662 68.6406 8.86849 75.5296 8.27802C81.8047 7.73296 89.9556 6.71099 99.4479 4.63297L99.4366 4.62161Z" fill="#E1DBCF"/>
<path fill-rule="evenodd" clip-rule="evenodd" d="M107.052 141.839C107.666 141.725 108.269 141.612 108.871 141.498C115.635 140.817 122.411 140.136 129.175 139.477C131.71 138.898 131.937 138.557 132.846 136.116C133.46 134.651 134.074 133.175 134.699 131.71C135.052 131.369 135.404 131.029 135.757 130.699C139.906 130.972 142.521 132.766 143.805 137.161C144.612 149.81 139.463 163.13 125.037 163.13C116.658 159.894 107.45 151.377 107.041 141.85L107.052 141.839Z" fill="#A9A49B"/>
<path fill-rule="evenodd" clip-rule="evenodd" d="M106.177 46.727C104.767 46.216 102.448 45.1713 100.186 43.0706C97.8556 40.9131 96.6279 38.5966 96.0254 37.2226C97.958 37.3589 99.8791 37.4951 101.812 37.6314C102.096 36.9387 102.38 36.2461 102.687 35.5534C103.278 33.782 104.097 31.1362 104.904 27.8432C105.87 23.9029 106.007 22.3131 107.393 21.5637C109.144 20.6212 112.043 21.5183 113.089 23.2216C114.373 25.3336 110.872 34.7017 110.065 37.3589C109.326 39.8003 106.632 46.0797 106.188 46.727H106.177Z" fill="#A9A49B"/>
<path fill-rule="evenodd" clip-rule="evenodd" d="M106.905 139.341C106.632 135.764 106.404 132.8 106.188 129.916C115.215 129.78 124.014 129.643 132.892 129.507C131.937 131.835 130.982 134.151 129.845 136.933C122.593 137.694 114.919 138.5 106.905 139.341Z" fill="#C6BEB3"/>
<path fill-rule="evenodd" clip-rule="evenodd" d="M103.233 20.7348C102.222 25.4131 101.221 30.0915 100.175 34.9289C98.3338 34.7699 96.6513 34.6109 94.8552 34.4633C93.0818 30.1483 92.3315 25.7652 92.3769 21.2685C94.7642 20.36 100.107 20.167 103.256 20.7348H103.245H103.233Z" fill="#C6BEB3"/>
<path fill-rule="evenodd" clip-rule="evenodd" d="M43.6192 112.202C44.2672 111.668 44.7788 111.259 45.279 110.85C46.2907 110.021 47.2229 110.146 48.1778 110.987C49.4738 112.133 50.8493 113.201 52.0998 114.382C53.2934 115.495 54.5212 116.131 56.1923 115.495C57.9202 114.825 59.3753 115.324 60.4894 116.8C61.6716 118.39 63.0813 118.856 65.0139 118.05C66.7304 117.334 68.2424 117.925 69.2087 119.514C70.2886 121.286 71.3913 123.091 70.2659 125.26C69.5724 126.623 68.2424 126.793 66.9351 126.873C63.9112 127.077 60.8759 127.406 57.852 127.304C50.6106 127.077 43.3805 126.668 36.1504 126.259C35.0932 126.191 34.0701 125.726 33.0242 125.453C31.5577 125.067 30.8302 124.125 30.8757 122.626C30.9211 120.616 30.33 118.901 29.1477 117.221C27.8404 115.37 28.2383 114.109 29.7161 112.304C30.9552 110.805 32.0125 109.158 33.2061 107.625C35.15 105.082 36.7984 104.957 39.0265 107.262C40.5271 108.795 41.9481 110.419 43.6079 112.213V112.19L43.6192 112.202ZM33.0015 123.284C34.4452 123.648 35.673 124.181 36.9234 124.261C44.0285 124.658 51.1335 124.999 58.2385 125.237C61.1487 125.328 64.0589 125.169 66.9805 125.022C67.6171 124.976 68.572 124.613 68.7994 124.125C69.4929 122.66 67.026 119.548 65.514 120.071C62.7061 121.036 60.7622 120.139 58.9433 118.084C58.4886 117.584 57.3404 117.243 56.6925 117.436C54.1574 118.243 52.3271 117.311 50.5651 115.597C49.2805 114.359 47.814 113.314 46.1998 111.986C45.2448 113.417 44.5287 114.484 43.4487 116.108C41.2319 112.86 39.3789 109.556 36.0254 107.285C33.8313 109.351 32.3649 111.861 30.6938 114.177C30.4096 114.575 30.4323 115.631 30.762 115.972C32.5809 117.959 32.7741 120.411 33.0128 123.284H33.0015Z" fill="black"/>
<path fill-rule="evenodd" clip-rule="evenodd" d="M52.736 65.0885C57.2036 64.6343 61.5007 64.8841 65.7524 66.735C68.1738 67.7797 70.993 67.95 73.6191 68.5405C75.9381 69.0742 78.2913 69.483 80.4967 70.2892C84.7029 71.8676 85.3281 75.1379 82.0428 78.2266C80.9628 79.2372 79.61 80.1115 78.2004 80.5544C73.3576 82.0533 68.4693 83.4273 63.5583 84.6309C57.3287 86.1639 51.3036 84.8467 45.4832 82.6551C42.1182 81.3947 40.0379 77.409 40.3903 73.7526C40.7995 69.5057 43.2437 66.5987 47.268 65.7812C49.0641 65.4178 50.9171 65.3042 52.736 65.0771V65.0885ZM52.8042 67.1552C50.9853 67.3823 49.1323 67.4958 47.3362 67.8933C44.0281 68.6427 41.9022 71.4247 42.2092 74.7859C42.4593 77.6588 43.3119 80.2364 46.62 81.213C51.8493 82.7573 57.0558 84.1994 62.5466 82.8709C67.594 81.6445 72.6414 80.4295 77.6092 78.9533C79.053 78.5218 80.4853 77.4203 81.4857 76.2507C82.9863 74.502 82.5657 73.0599 80.3262 72.2537C78.2004 71.5042 75.9381 71.1409 73.7327 70.6526C70.8907 70.0394 67.8555 69.8918 65.1953 68.7903C61.1256 67.1324 57.0672 66.6669 52.7928 67.1438L52.8042 67.1552Z" fill="black"/>
<path fill-rule="evenodd" clip-rule="evenodd" d="M78.6552 147.358C81.0084 145.768 82.7704 144.519 84.5779 143.361C85.5897 142.713 86.7151 142.543 87.3404 143.826C87.8747 144.905 87.1471 145.598 86.2377 146.165C84.9076 147.017 83.6344 147.982 82.2134 148.993C82.8955 149.731 83.3161 150.208 83.7594 150.651C84.5779 151.48 85.2259 152.377 84.1801 153.421C83.2706 154.341 82.4066 153.773 81.6109 153.149C80.8606 152.57 80.0989 151.968 79.2577 151.298C78.0982 152.138 77.0637 152.922 76.0064 153.626C75.1652 154.193 74.0739 154.648 73.4714 153.569C73.1985 153.081 73.676 152.002 74.0739 151.343C74.4377 150.719 75.1197 150.287 75.8132 149.629C74.9038 148.788 74.0057 148.039 73.2099 147.21C72.7097 146.665 72.1186 146.04 71.9594 145.37C71.823 144.769 72.1072 143.928 72.5051 143.44C72.6642 143.236 73.7328 143.485 74.1762 143.803C75.7222 144.916 77.2001 146.154 78.6666 147.324V147.346L78.6552 147.358Z" fill="#DE2519"/>
<path fill-rule="evenodd" clip-rule="evenodd" d="M8.92348 130.427C9.95797 128.269 11.0152 126.68 13.4934 126.089C14.4483 129.269 15.3464 132.323 16.3127 135.548C17.8019 135.253 19.2229 134.969 20.5984 134.696C21.8376 137.672 20.985 139.92 18.393 140.737C17.063 141.158 15.6875 141.441 14.3347 141.839C11.4813 142.691 10.6173 142.225 9.35546 138.898C11.0379 138.126 12.7545 137.331 14.8462 136.388C14.2892 134.765 14.1414 132.948 13.1638 131.926C12.277 131.006 10.4923 130.938 8.91211 130.427H8.92348ZM18.8819 137.354C16.0967 137.808 13.8004 138.739 12.2429 140.056C16.4377 139.727 18.0406 139.08 18.8819 137.354Z" fill="black"/>
<path fill-rule="evenodd" clip-rule="evenodd" d="M54.1005 139.273C53.0546 139.136 51.9861 139 50.3945 138.807C51.5313 139.999 52.7591 140.158 54.1005 139.273Z" fill="black"/>
<path fill-rule="evenodd" clip-rule="evenodd" d="M49.1667 92.1368C51.4857 92.0005 53.0318 93.4427 53.0886 95.7819C53.1341 97.6441 51.4744 99.302 49.3713 99.4837C47.1545 99.6654 45.3584 98.1097 45.2902 95.9181C45.2106 93.7266 46.6884 92.2844 49.1667 92.1368ZM50.0534 94.3852C48.8825 94.7145 47.3591 94.6463 47.5183 96.4405C47.5638 96.8265 48.621 97.4057 49.2008 97.3943C50.3944 97.3716 50.6331 96.4405 50.0306 94.3738H50.042L50.0534 94.3852Z" fill="black"/>
<path fill-rule="evenodd" clip-rule="evenodd" d="M71.209 106.524C70.5952 104.321 71.5046 103.174 74.051 102.947C73.9146 105.411 73.7214 105.65 71.209 106.524Z" fill="black"/>
<path fill-rule="evenodd" clip-rule="evenodd" d="M90.8189 108.409C90.6824 107.33 90.4778 106.263 90.4551 105.184C90.4551 104.923 90.978 104.48 91.2963 104.435C91.6374 104.389 92.2058 104.616 92.3763 104.9C93.1493 106.263 92.8992 107.455 91.842 108.432C91.5009 108.432 91.1599 108.42 90.8189 108.409Z" fill="black"/>
<path fill-rule="evenodd" clip-rule="evenodd" d="M80.7584 86.1299C81.5883 84.8467 82.8047 85.1079 83.8846 85.3009C84.2371 85.3691 84.6349 85.9709 84.7373 86.3911C84.7941 86.6068 84.3053 87.1973 83.987 87.2427C82.7478 87.4698 81.4974 87.5606 80.7471 86.1185L80.7584 86.1299Z" fill="black"/>
<path fill-rule="evenodd" clip-rule="evenodd" d="M31.8988 90.8196C32.3194 93.7265 31.8306 94.2489 29.125 93.965C29.4206 92.8295 30.3527 91.7848 31.8988 90.8196Z" fill="black"/>
<path fill-rule="evenodd" clip-rule="evenodd" d="M82.0661 97.0877C81.6113 97.8599 81.4295 98.5639 80.9861 98.8251C80.2017 99.2679 79.2582 99.461 78.3715 99.6767C78.2919 99.6881 77.9167 99.1657 77.9395 98.9046C78.0645 97.5533 79.1558 97.224 80.2131 96.9742C80.6792 96.8606 81.2248 97.0309 82.0661 97.0877Z" fill="black"/>
<path fill-rule="evenodd" clip-rule="evenodd" d="M79.1438 135.4C79.7918 136.797 80.3602 137.49 80.3602 138.171C80.3602 138.693 79.644 139.216 79.2575 139.738C78.7914 139.114 78.0866 138.546 77.9388 137.853C77.8251 137.365 78.4731 136.706 79.1552 135.389L79.1438 135.4Z" fill="black"/>
<path fill-rule="evenodd" clip-rule="evenodd" d="M81.0886 123.228C80.3042 124.147 79.6903 124.931 78.9741 125.601C78.9059 125.669 77.9965 125.158 77.8714 124.783C77.519 123.682 78.6103 122.035 79.5766 122.16C79.9972 122.217 80.361 122.694 81.0999 123.216H81.0886V123.228Z" fill="black"/>
<path fill-rule="evenodd" clip-rule="evenodd" d="M66.9692 107.489C66.1507 109.601 64.8548 109.556 63.6498 109.283C63.2292 109.192 62.6949 108.386 62.7062 107.921C62.7062 107.58 63.4906 106.978 63.9567 106.967C64.8434 106.944 65.7415 107.251 66.9692 107.478V107.489Z" fill="black"/>
<path fill-rule="evenodd" clip-rule="evenodd" d="M86.5674 98.1664C87.761 98.3595 88.75 98.4276 89.6481 98.7229C89.9323 98.8137 90.2506 99.6653 90.1256 99.9833C89.9778 100.335 89.2957 100.767 88.9319 100.699C87.9429 100.517 86.7834 100.358 86.5788 98.1551L86.5674 98.1664Z" fill="black"/>
<path fill-rule="evenodd" clip-rule="evenodd" d="M87.7725 115.563C87.727 115.086 87.5792 114.688 87.7157 114.507C88.3523 113.587 88.8866 112.361 90.353 112.792C90.6145 112.872 90.9555 113.53 90.8646 113.814C90.4099 115.347 89.3299 115.835 87.7611 115.563H87.7725Z" fill="black"/>
<path fill-rule="evenodd" clip-rule="evenodd" d="M34.5816 141.362C32.74 140.862 32.8082 139.295 32.3193 137.899C34.934 138.194 35.2637 138.705 34.5816 141.362Z" fill="black"/>
<path fill-rule="evenodd" clip-rule="evenodd" d="M97.0489 76.194C98.2311 78.7262 97.9469 79.4302 95.5369 80.1456C95.1277 78.5559 95.4005 77.2954 97.0489 76.194Z" fill="black"/>
<path fill-rule="evenodd" clip-rule="evenodd" d="M32.6493 83.3137C34.0817 83.3932 34.5933 84.1881 34.2522 85.2441C34.0931 85.7778 33.2973 86.1185 32.7858 86.5386C32.5243 86.0276 32.0923 85.5053 32.0696 84.9943C32.0582 84.4379 32.4561 83.8701 32.638 83.3251H32.6493V83.3137Z" fill="black"/>
<path fill-rule="evenodd" clip-rule="evenodd" d="M33.8312 148.448C32.4784 150.162 31.3529 150.514 29.625 149.277C30.8527 147.948 31.9441 147.539 33.8312 148.448Z" fill="black"/>
<path fill-rule="evenodd" clip-rule="evenodd" d="M74.5512 88.0943C73.1075 89.6727 72.0616 90.0361 70.6406 88.7643C71.6069 86.9928 72.721 86.9588 74.5512 88.0943Z" fill="black"/>
<path fill-rule="evenodd" clip-rule="evenodd" d="M26.34 132.164C25.692 130.586 25.2486 129.552 24.6348 128.088C27.6928 129.405 27.8974 129.814 26.34 132.164Z" fill="black"/>
<path fill-rule="evenodd" clip-rule="evenodd" d="M24.8052 115.29C25.2827 115.495 25.4077 115.517 25.476 115.585C26.2945 116.358 26.8629 117.232 26.1126 118.322C25.9648 118.549 25.2031 118.697 25.0667 118.549C24.1573 117.584 23.7139 116.517 24.8052 115.29Z" fill="black"/>
<path fill-rule="evenodd" clip-rule="evenodd" d="M30.2726 76.0804C32.0233 76.7618 32.5008 77.8292 32.4098 79.1691C32.3984 79.3962 31.7164 79.8163 31.489 79.7482C29.7497 79.1464 29.9657 77.7724 30.2726 76.0804Z" fill="black"/>
<path fill-rule="evenodd" clip-rule="evenodd" d="M97.3671 72.9009C95.5141 72.5603 94.4569 71.9471 94.3887 70.2211C96.685 69.8918 96.7987 69.994 97.3671 72.9009Z" fill="black"/>
<path fill-rule="evenodd" clip-rule="evenodd" d="M33.6611 145.495C33.8771 144.53 34.0931 143.508 34.3659 142.304C36.0712 142.849 36.2871 143.803 35.9461 144.871C35.6619 145.756 35.0026 146.245 33.6611 145.484V145.495Z" fill="black"/>
<path fill-rule="evenodd" clip-rule="evenodd" d="M68.6514 59.797C68.8674 59.3995 68.8787 59.2633 68.9697 59.2292C70.2315 58.4798 71.1296 59.0362 71.823 60.1036C71.9367 60.2625 71.7548 60.8076 71.573 60.9098C70.2543 61.6025 69.4471 60.7849 68.6514 59.8197V59.797Z" fill="black"/>
<path fill-rule="evenodd" clip-rule="evenodd" d="M38.7305 61.4321C37.8438 62.0453 36.9571 62.6585 35.8316 63.442C35.718 60.6713 35.7748 60.6145 38.3553 60.7621C38.4804 60.9779 38.6054 61.2163 38.7191 61.4321H38.7305Z" fill="black"/>
<path fill-rule="evenodd" clip-rule="evenodd" d="M78.8828 132.039C77.621 131.835 76.7911 131.278 76.9616 129.973C77.0071 129.677 78.0871 129.166 78.4167 129.337C79.5763 129.904 79.7923 130.847 78.8828 132.039Z" fill="black"/>
<path fill-rule="evenodd" clip-rule="evenodd" d="M27.9082 133.209C28.5903 133.05 29.136 132.732 29.477 132.88C30.0909 133.163 30.6024 133.697 31.0913 134.197C31.1708 134.276 30.8184 134.969 30.7502 134.958C30.0681 134.844 29.3747 134.73 28.7722 134.447C28.4539 134.299 28.3061 133.811 27.9196 133.209H27.9082Z" fill="black"/>
<path fill-rule="evenodd" clip-rule="evenodd" d="M32.3075 71.8222C31.3867 70.2438 31.6141 69.0061 32.9782 68.0977C33.99 69.4489 33.1146 70.346 32.3075 71.8222Z" fill="black"/>
<path fill-rule="evenodd" clip-rule="evenodd" d="M82.2021 120.525C82.8047 118.867 83.7482 118.379 85.0328 118.64C85.2943 118.697 85.658 119.651 85.5102 119.889C84.7941 121.07 83.6914 121.059 82.2021 120.548V120.525Z" fill="black"/>
<path fill-rule="evenodd" clip-rule="evenodd" d="M42.5957 57.1398C44.21 57.0149 45.2445 56.9354 46.4836 56.8445C45.2899 59.0702 44.9489 59.1156 42.5957 57.1398Z" fill="black"/>
<path fill-rule="evenodd" clip-rule="evenodd" d="M25.4989 121.059C26.5561 122.705 26.6812 123.761 25.0669 124.704C23.8392 123.375 23.9756 122.319 25.4989 121.059Z" fill="black"/>
<path fill-rule="evenodd" clip-rule="evenodd" d="M26.4081 98.9273C25.8056 98.3254 25.2599 97.8939 25.3054 97.8144C25.7033 97.1672 26.1807 96.5653 26.7037 96.0203C26.7491 95.9749 27.6245 96.554 27.5904 96.6335C27.3062 97.3375 26.9083 97.9961 26.4081 98.9273Z" fill="black"/>
<path fill-rule="evenodd" clip-rule="evenodd" d="M65.9688 92.1254C65.9574 92.591 66.0143 92.8295 65.9233 92.9771C65.4345 93.806 64.8775 94.635 63.7407 94.0899C63.5133 93.9764 63.3314 93.3178 63.4224 93.0112C63.8202 91.7961 64.616 91.376 65.9574 92.1141L65.9688 92.1254Z" fill="black"/>
<path fill-rule="evenodd" clip-rule="evenodd" d="M55.1805 56.6288C54.0664 57.4804 52.9864 57.7984 52.0088 56.4812C53.2479 54.7438 54.2256 55.6409 55.1805 56.6288Z" fill="black"/>
<path fill-rule="evenodd" clip-rule="evenodd" d="M92.8657 64.8955C92.0245 65.3951 91.5016 65.9402 91.206 65.838C90.5921 65.6222 90.1033 65.0658 89.5576 64.6456C89.9441 64.3277 90.3647 63.7259 90.683 63.7713C91.3083 63.8848 91.8767 64.3504 92.8657 64.8841V64.8955Z" fill="black"/>
<path fill-rule="evenodd" clip-rule="evenodd" d="M60.887 99.8243C61.4213 100.653 62.0352 101.176 61.967 101.607C61.8988 102.164 61.2963 102.652 60.9211 103.174C60.5914 102.697 60.0344 102.232 60.0117 101.743C59.9662 101.255 60.4664 100.721 60.8984 99.8243H60.887Z" fill="black"/>
<path fill-rule="evenodd" clip-rule="evenodd" d="M89.6592 85.4144C89.9434 85.017 90.0457 84.7331 90.1935 84.7104C90.9438 84.5514 91.6941 84.4492 92.4557 84.347C92.4557 84.7445 92.5808 85.4485 92.4671 85.4712C91.7509 85.6983 90.9665 85.8232 90.2048 85.9027C90.0684 85.9141 89.9093 85.6416 89.6592 85.4144Z" fill="black"/>
<path fill-rule="evenodd" clip-rule="evenodd" d="M23.1 112.122C22.975 111.214 22.8386 110.317 22.7021 109.306C24.2937 109.09 24.6461 110.044 24.7484 110.964C24.7939 111.384 24.2027 111.861 23.9185 112.327C23.6457 112.258 23.3729 112.19 23.1114 112.111H23.1V112.122Z" fill="black"/>
<path fill-rule="evenodd" clip-rule="evenodd" d="M26.34 146.12C27.5223 146.449 28.3408 146.971 28.3976 148.368C26.7379 148.334 26.0558 147.585 26.34 146.12Z" fill="black"/>
<path fill-rule="evenodd" clip-rule="evenodd" d="M24.5892 141.453C25.1462 142.009 25.8283 142.441 25.7601 142.679C25.6237 143.202 25.1917 143.713 24.7256 143.996C24.5778 144.087 23.6456 143.451 23.6684 143.19C23.7252 142.668 24.1686 142.202 24.5892 141.453Z" fill="black"/>
<path fill-rule="evenodd" clip-rule="evenodd" d="M39.6513 100.687C38.8214 101.142 38.2644 101.675 37.8551 101.584C37.389 101.471 37.0707 100.778 36.6729 100.347C37.1276 100.029 37.5823 99.4609 38.0029 99.495C38.469 99.5177 38.8896 100.108 39.6399 100.676H39.6513V100.687Z" fill="black"/>
<path fill-rule="evenodd" clip-rule="evenodd" d="M80.3604 61.8068C81.8837 60.7848 82.6112 61.1823 83.2365 62.4314C82.0428 63.5328 81.3266 62.9423 80.3604 61.8068Z" fill="black"/>
<path fill-rule="evenodd" clip-rule="evenodd" d="M24.7934 103.049C24.1681 103.537 23.7361 103.889 23.2814 104.23C23.0541 103.912 22.5425 103.458 22.6107 103.333C22.8949 102.856 23.3496 102.459 23.8043 102.118C23.8498 102.073 24.3045 102.595 24.7706 103.038H24.782L24.7934 103.049Z" fill="black"/>
<path fill-rule="evenodd" clip-rule="evenodd" d="M61.7969 59.2519C61.2398 58.6046 60.8533 58.2299 60.6146 57.7871C60.5691 57.7189 61.2171 57.0717 61.3535 57.1171C61.7741 57.2988 62.1834 57.6281 62.4335 58.0255C62.5244 58.1731 62.1493 58.6273 61.8196 59.2519H61.8082H61.7969Z" fill="black"/>
<path fill-rule="evenodd" clip-rule="evenodd" d="M33.0018 123.284C32.7744 120.411 32.5925 117.959 30.7509 115.972C30.4212 115.631 30.3985 114.575 30.6827 114.177C32.3538 111.85 33.8317 109.34 36.0143 107.285C39.3679 109.556 41.2095 112.849 43.4376 116.108C44.5176 114.495 45.2338 113.417 46.1887 111.986C47.8257 113.314 49.2922 114.37 50.554 115.597C52.3047 117.311 54.1463 118.22 56.6814 117.436C57.318 117.232 58.4662 117.584 58.9323 118.095C60.7512 120.15 62.7065 121.047 65.503 120.082C67.0149 119.548 69.4818 122.66 68.7884 124.136C68.561 124.624 67.6061 124.988 66.9695 125.033C64.0706 125.192 61.149 125.362 58.2275 125.249C51.1224 125.01 44.0174 124.67 36.9124 124.272C35.6619 124.204 34.4342 123.67 32.9904 123.296H33.0018V123.284Z" fill="#C6BEB3"/>
<path fill-rule="evenodd" clip-rule="evenodd" d="M52.7935 67.1552C57.0679 66.6783 61.1262 67.1438 65.196 68.8017C67.8447 69.8918 70.8686 70.0394 73.7334 70.664C75.9388 71.1409 78.2124 71.5042 80.3269 72.2651C82.555 73.0486 82.9756 74.4907 81.4864 76.2621C80.4746 77.4317 79.0536 78.5445 77.6099 78.9647C72.6421 80.4409 67.5947 81.6559 62.5473 82.8822C57.0565 84.2108 51.8499 82.7687 46.6206 81.2244C43.3125 80.2478 42.4599 77.6588 42.2098 74.7973C41.9143 71.4248 44.0515 68.6541 47.3368 67.9046C49.1216 67.4958 50.986 67.405 52.8048 67.1665L52.7935 67.1552ZM58.6708 69.9259C55.7605 72.0607 55.8856 72.8101 59.6484 77.5112C60.6033 74.8881 59.6598 72.5376 58.6708 69.9259ZM53.0663 77.4431C53.6347 75.0925 55.7378 72.6625 53.0549 70.2325C49.9628 72.7987 52.2364 75.1152 53.0663 77.4431ZM63.991 71.0727C61.4218 73.0031 61.3877 74.7405 63.8318 78.2266C64.548 75.7965 65.196 73.6277 63.991 71.0727Z" fill="#C6BEB3"/>
<path fill-rule="evenodd" clip-rule="evenodd" d="M18.8821 137.354C18.0409 139.08 16.4493 139.738 12.2432 140.056C13.812 138.739 16.0969 137.796 18.8821 137.354Z" fill="white"/>
<path fill-rule="evenodd" clip-rule="evenodd" d="M54.1005 139.273C52.7704 140.158 51.5313 140.011 50.3945 138.807C51.9861 139.011 53.0433 139.136 54.1005 139.273Z" fill="white"/>
<path fill-rule="evenodd" clip-rule="evenodd" d="M50.0531 94.3851C50.6329 96.4518 50.4056 97.3716 49.2233 97.4056C48.6435 97.4056 47.5635 96.8379 47.5408 96.4518C47.3817 94.6463 48.905 94.7258 50.0759 94.3965H50.0645L50.0531 94.3851Z" fill="white"/>
<path fill-rule="evenodd" clip-rule="evenodd" d="M58.6814 69.9258C59.6932 72.5489 60.614 74.8881 59.6591 77.5112C55.8735 72.8101 55.7485 72.0493 58.6814 69.9258Z" fill="black"/>
<path fill-rule="evenodd" clip-rule="evenodd" d="M53.0662 77.4544C52.2249 75.1265 49.9627 72.8214 53.0548 70.2438C55.749 72.6625 53.6573 75.0925 53.0662 77.4544Z" fill="black"/>
<path fill-rule="evenodd" clip-rule="evenodd" d="M64.0018 71.0728C65.1955 73.6277 64.5589 75.7852 63.8427 78.2266C61.4099 74.7519 61.4326 73.0032 64.0018 71.0728Z" fill="black"/>
</g>
<defs>
<clipPath id="clip0_336_1692">
<rect width="147" height="170" fill="white"/>
</clipPath>
</defs>
</svg>
