<svg width="213" height="101" viewBox="0 0 213 101" fill="none" xmlns="http://www.w3.org/2000/svg">
<g clip-path="url(#clip0_318_1550)">
<path d="M1.29785 37.2629L2.20919 76.2396L25.2366 91.0006H99.9754L136.935 75.7159L138.924 39.8678L1.29785 37.2629Z" fill="#CD8129" stroke="#B96E29" stroke-width="3.11643" stroke-miterlimit="10"/>
<path d="M28.2513 72.3349L1.80415 58.8924L1.29785 36.5603L38.3589 15.1608L110.571 16.608L138.831 39.009L137.966 57.1696L98.705 72.3349H28.2513Z" fill="#F99F1E" stroke="#B96E29" stroke-width="3.11643" stroke-miterlimit="10"/>
<path d="M40.4534 57.1695L25.4945 49.9934L23.3589 34.4836L41.2634 24.1422L100.487 24.9646L117.935 28.865L107.759 52.5845L85.1273 57.1695H40.4534Z" fill="#FDC06E" stroke="#B96E29" stroke-width="3.11643" stroke-miterlimit="10"/>
<path d="M27.8737 73.5476L25.6782 89.7006H99.7036L98.935 73.5981L27.8737 73.5476Z" fill="#FDC06E"/>
<path d="M98.9351 73.5984L99.7037 89.7009L135.748 74.8572L136.594 59.0442L98.9351 73.5984Z" fill="#A76127"/>
<path d="M46.5379 34.4419L42.7959 40.7818L43.6796 47.2458L48.9727 50.333L58.4819 48.7067L62.1457 44.9763L63.4299 37.1295L69.6389 36.0361L72.9206 40.6532L71.9495 44.0988L70.1084 46.5153L71.6733 50.0252L79.7189 50.6822L84.8555 48.9134L83.8383 41.0988L73.9839 32.3378L69.5469 30.7666L61.2758 31.2214L54.5052 44.1907L50.2707 42.5965L51.1176 36.3623L56.3187 31.8278L51.1498 31.3684L46.5379 34.4419Z" fill="#A76127"/>
<path d="M86.7517 36.5786L40.5083 36.8037L42.7958 34.0978H84.6069L86.7517 36.5786Z" fill="#A76127"/>
<path d="M91.0599 42.8727L37.4844 42.5097L39.7719 38.3383H87.4836L91.0599 42.8727Z" fill="#A76127"/>
<path d="M211.26 52.8463V67.667L204.102 84.9272L178.691 99.4033L138.923 98.0848L103.469 64.4465L99.7036 29.8343L115.403 11.715L133.105 16.5756L211.26 52.8463Z" fill="#CD8129" stroke="#B96E29" stroke-width="3.11643" stroke-miterlimit="10"/>
<path d="M146.246 83.7004C147.728 84.1369 177.388 84.192 177.388 84.192L201.484 74.3743L211.264 52.8462L200.241 30.7668L180.306 12.4775L148.939 1.29999L120.674 5.68279L104.633 24.3901L111.772 53.4894L146.246 83.7004Z" fill="#F99F1E" stroke="#B96E29" stroke-width="3.11643" stroke-miterlimit="10"/>
<path d="M110.607 54.2479L104.67 63.9599L139.462 96.8861L145.62 84.8908L110.607 54.2479Z" fill="#FDC06E"/>
<path d="M177.618 85.4372L178.442 98.2135L203.108 84.0498L210.159 67.5431L209.994 58.6993L202.418 75.3531" fill="#A76127"/>
<path d="M147.931 66.8585L127.702 45.7898L125.147 26.6966L133.106 16.5757L155.484 13.0933L177.618 22.3092L196.374 45.3534L192.632 62.4711L175.487 70.6624L147.931 66.8585Z" fill="#FDC06E" stroke="#B96E29" stroke-width="3.11643" stroke-miterlimit="10"/>
<path d="M153.537 24.6248L146.403 26.467L142.445 31.6538L144.001 37.5802L151.876 43.1391L157.109 43.0932L163.576 38.4485L168.745 42.0595L163.976 46.0288L160.846 47.7792L157.836 48.1881L157.302 52.7684L161.675 57.9185L166.213 58.1849L171.377 54.0548L176.62 44.4393L173.651 38.1315L168.202 34.5113L152.262 37.1392L150.403 33.0228L155.415 29.2143L163.668 29.7748L158.978 25.709L153.537 24.6248Z" fill="#A76127"/>
<path d="M178.949 53.9076L146.725 22.0335L150.26 21.7395L180.196 51.6336L178.949 53.9076Z" fill="#A76127"/>
<path d="M175.101 58.6992L141.423 23.9353L145.998 22.603L177.619 55.0698L175.101 58.6992Z" fill="#A76127"/>
</g>
<defs>
<clipPath id="clip0_318_1550">
<rect width="212.664" height="100.676" fill="white"/>
</clipPath>
</defs>
</svg>
