<svg width="245" height="153" viewBox="0 0 245 153" fill="none" xmlns="http://www.w3.org/2000/svg">
<g clip-path="url(#clip0_319_1498)">
<path d="M137.288 89.9579C137.128 89.0645 137.392 88.8832 138.25 88.9798C139.135 92.6741 138.869 97.7564 137.101 98.7322C137.101 98.7322 137.533 97.1799 136.953 96.0109C137.051 95.9372 137.181 95.7809 137.253 95.4205C137.793 92.9247 137.61 91.7232 137.288 89.9579Z" fill="#302D2D"/>
<path d="M124.737 89.5113C123.93 91.099 124.041 93.14 124.206 94.4697C124.26 94.8692 124.301 95.2017 124.332 95.4457C124.419 96.2417 124.573 96.5461 124.689 96.6493C124.42 97.8103 124.7 98.938 124.7 98.938C122.12 98.0593 122.267 92.2635 123.884 88.4351C124.987 88.1735 125.315 88.3276 124.737 89.5113Z" fill="#302D2D"/>
<path d="M131.122 89.4992C131.063 88.816 130.617 88.5801 130.284 89.8847C129.955 91.168 128.106 90.6733 128.552 89.4932C128.974 88.3316 128.978 83.5619 130.271 83.3482C131.72 83.1123 131.901 84.6403 132.617 87.0263C133.355 89.4153 133.268 90.3617 132.619 90.6425C131.971 90.9233 131.177 90.2039 131.122 89.4992Z" fill="#302D2D"/>
<path d="M127.243 81.7759C127.274 83.2832 126.826 84.0056 124.433 85.7229C122.036 87.4616 119.619 87.3023 118.199 85.2767C116.758 83.2482 117.647 80.9094 120.093 79.2864C123.807 76.8365 127.213 78.6786 127.243 81.7759Z" fill="#302D2D"/>
<path d="M133.809 78.5428C130.981 75.6695 128.646 73.4957 127.941 72.9193C122.697 68.7759 117.79 66.291 114.796 66.8363C115.037 66.1943 115.302 65.5339 115.605 64.9221C119.239 63.5284 125.152 67.2414 130.819 72.2708C131.946 73.2541 133.541 74.8028 135.353 76.6648C139.704 74.0195 147.473 82.1271 143.832 86.4168C144.237 86.952 144.717 87.737 145.098 88.2906C144.656 88.9702 144.005 89.4249 143.059 89.4905C142.678 88.9369 142.297 88.3833 141.873 87.8239C136.948 89.889 132.603 82.2319 133.809 78.5428Z" fill="#302D2D"/>
<path fill-rule="evenodd" clip-rule="evenodd" d="M200.003 66.5216C195.822 64.6099 191.79 62.7658 188.088 61.3525C173.952 55.9822 148.769 46.9968 120.838 47.8265C92.9107 48.6348 69.7804 57.1407 56.2359 67.0563C51.754 70.3311 47.6927 75.3128 43.5477 80.3972C35.1692 90.6746 26.4483 101.372 13.2186 99.2407C27.1565 113.471 47.2661 127.964 56.4555 128.775L56.5591 128.784C67.5369 129.748 101.188 132.706 146.808 126.102C191.803 119.609 193.239 118.52 204.651 109.867C204.846 109.72 205.043 109.571 205.243 109.419C214.486 102.417 227.537 86.7697 234.685 76.1676C224.688 77.8094 211.762 71.8986 200.003 66.5216ZM129.707 57.4363C144.501 57.4081 148.072 66.4177 146.709 78.1884L146.731 78.1913L150.003 75.7892C150.079 75.7335 150.181 75.6667 150.3 75.5884C151.198 74.9974 153.086 73.7547 152.654 71.7331C152.185 69.4466 152.812 67.8995 155.719 67.5163C158.622 67.1545 159.82 68.7356 160.013 72.2258C162.093 71.8374 164.431 73.2055 164.203 76.5939C163.887 81.4079 159.552 80.9404 157.979 80.1789C156.529 79.4766 155.795 80.1702 153.529 82.3088C153.339 82.4888 153.137 82.679 152.924 82.8795C149.524 86.0481 141.128 91.6423 141.128 91.6423C141.343 92.5468 141.611 93.3818 141.856 94.1458C142.209 95.246 142.515 96.199 142.546 97.0003C144.871 98.9331 149.667 102.535 151.516 103.183C153.366 103.83 155.149 103.379 156.717 102.746C158.289 102.091 160.274 104.914 160.022 107.057C159.852 108.602 158.11 109.865 156.355 109.949C156.355 109.949 156.4 113.571 153.261 114.38C150.929 114.98 150.306 113.473 149.642 111.866C149.412 111.31 149.177 110.742 148.865 110.245C147.65 108.313 141.046 103.132 139.012 102.089C137.756 103.615 136.551 105.082 136.096 105.695C135.217 106.859 132.911 107.782 131.656 106.302C130.875 106.913 129.457 107.719 128.201 106.718C127.706 106.327 126.978 105.785 126.157 105.174C125.153 104.426 124.011 103.576 122.994 102.776C122.994 102.776 117.8 106.634 113.538 110.054L113.56 110.057C114.177 110.948 115.52 117.32 109.796 116.965C104.097 116.593 105.134 111.922 105.134 111.922C102.128 113.185 98.6047 109.671 100.945 105.811C103.264 101.949 106.901 102.429 109.31 103.916C114.406 100.132 120.083 96.5587 120.083 96.5587C120.311 94.4337 120.205 91.5857 120.083 89.151C117.989 87.5987 106.504 79.4156 104.702 80.474C102.882 81.5081 100.547 82.6453 98.7406 81.3723C96.937 80.0779 95.1054 78.6707 96.4735 76.3327C97.8416 73.9947 100.996 73.2319 100.996 73.2319C100.381 70.9034 100.983 69.0695 103.799 68.3908C106.616 67.712 107.629 72.2083 107.629 72.2083C108.212 73.4713 110.073 74.6755 112.282 76.1047C112.677 76.3604 113.083 76.6233 113.495 76.895C113.461 73.5139 113.731 69.9788 114.796 66.8366C115.037 66.1946 115.302 65.5342 115.604 64.9224C117.75 60.5788 121.907 57.4493 129.707 57.4363Z" fill="#302D2D"/>
<path d="M62.9013 39.1275C63.1539 46.3071 44.7585 49.2014 26.9086 58.4359C37.6572 42.972 46.1347 25.4741 50.6854 15.2542C51.9197 23.2227 57.4532 18.8209 62.9013 39.1275Z" fill="#352E2F"/>
<path d="M61.1517 6.9611L89.6471 17.3348C79.9697 19.7463 70.0082 24.5067 61.911 28.7263L53.4911 9.41012L54.3778 6.48394L61.1517 6.9611Z" fill="#403B3B"/>
<path d="M237.241 69.8352L203.067 69.8352L167.901 32.6888L208.019 49.0332C214.469 52.5584 225.334 60.651 225.334 60.651L237.241 69.8352Z" fill="#403B3B"/>
<path d="M195.853 60.8481C177.846 53.0595 156.899 41.7552 137.971 40.6436C96.464 38.1994 50.159 54.9329 40.1374 71.6801C30.7118 87.4226 11.4193 98.3645 11.4193 98.3645L5.05081 93.4197C4.59 92.8127 3.49106 84.0276 3.49106 84.0276C3.39591 84.0502 13.8884 72.1671 13.8884 72.1671C13.8884 72.1671 24.2736 66.3251 30.2659 63.152C47.4971 53.9863 75.1491 49.0191 64.2579 32.1256C63.323 30.6923 62.4522 29.2679 61.6212 27.8706L79.7413 16.344L96.0855 13.8675L132.241 13.8674L166.416 24.2685C166.416 24.2685 187.622 47.8418 195.852 58.1292L195.853 60.8481Z" fill="#1C1B1B"/>
<path d="M7.42986 94.9227C14.9227 104.539 41.8383 66.8246 41.8383 66.8246L57.949 55.9671L76.8574 46.946L128.279 37.1463L162.542 43.479L196.133 61.0914L237.242 69.8352C237.242 69.8352 235.099 75.9294 233.008 79.0825L207.186 73.4746L184.691 67.571C174.946 63.8382 144.6 52.4586 144.6 52.4586L115.736 52.5079L87.3506 58.329L52.5882 74.545L38.3752 89.6082C38.3752 89.6082 21.8154 103.751 14.2112 102.524C14.2112 102.524 9.43291 97.3991 7.42986 94.9227Z" fill="#4F6165"/>
<path d="M27.2409 57.948L59.4343 41.6036L50.5192 15.3535L53.9863 10.4009L61.4155 26.7453L65.8731 32.6887L68.3495 39.7162L62.4063 48.5378L28.2314 65.3773L13.8684 72.3115C13.8684 72.3115 27.2437 57.9483 27.2409 57.948Z" fill="#4F6165"/>
</g>
<defs>
<clipPath id="clip0_319_1498">
<rect width="230.346" height="122.154" fill="white" transform="translate(16.6953) rotate(7.85545)"/>
</clipPath>
</defs>
</svg>
