<svg width="133" height="211" viewBox="0 0 133 211" fill="none" xmlns="http://www.w3.org/2000/svg">
<g clip-path="url(#clip0_313_1792)">
<path d="M81.0198 36.2694L83.5953 31.1867L66.0563 0L48.9346 31.5276L51.5742 36.5583V43.7432L66.289 54.4102V54.5987L66.4174 54.5024L66.5498 54.5987L66.5458 54.4021L81.1161 43.4543L81.0198 36.2694Z" fill="#71AEAF"/>
<path d="M82.6374 129.626C82.6374 129.626 81.86 55.6587 82.3769 53.888C82.8939 52.1173 87.0414 46.8011 87.0414 46.8011L82.6374 40.8185H49.7379L45.334 46.8011C45.334 46.8011 49.4775 52.1173 49.9984 53.888C50.4322 55.3738 49.9984 129.626 49.9984 129.626L47.1616 136.437L25.6493 142.588L10.4804 152.241L1.93066 165.204L4.96445 181.751L16.2722 193.887L39.1634 207.125L66.1917 210.055L88.5313 208.228L111.423 199.127L121.627 188.922L127.5 181.5L130.729 169.329L126 157L115.56 148.104C115.56 148.104 86.0035 136.437 86.0115 136.437L82.6374 129.626Z" fill="#71AEAF"/>
<path d="M81.5611 141.072L77.4991 129.281L76.6719 117.49C76.6719 117.49 76.2887 70.9523 76.6719 66.1916H55.987C56.3702 70.9523 55.987 117.49 55.987 117.49L54.6079 129.281L51.425 141.072L26.7523 150.034L12.9624 158.308L9.37695 164.927V174.856L22.3395 192.783L43.0244 203.29L64.5366 207.125L89.0827 203.29L106.734 194.438L120.524 181.2L126.591 167.134L115.559 155.274L81.5647 141.072H81.5611Z" fill="#BACAD3"/>
<path d="M123.558 168.789C123.558 168.789 121.204 163.696 119.987 161.618C113.025 162.837 99.3544 166.544 99.3544 166.544L62.3896 162.592L40.6296 166.897L24.5505 166.185L14.3416 162.592C14.3416 162.592 11.7793 165.3 10.5089 165.653C10.4911 165.89 10.5088 172.926 10.5088 172.926L24.5505 191.404L43.576 201.333L65.0883 205.194L87.428 201.333L100.942 196.369L110.319 188.922L119.987 178.717L123.558 168.789Z" fill="#F4AE34"/>
<path opacity="0.4" d="M85.2221 200.506L100.391 194.99L110.044 187.267L121.352 171.547C121.352 171.547 121.202 163.696 119.982 161.618C113 162.837 106.477 166.253 99.2919 166.545C96.6905 166.649 94.1069 166.512 91.5305 166.235C91.0868 169.864 89.2762 176.559 89.2762 176.559L79.9818 189.749L70.6047 197.748L67.8467 203.539L85.2221 200.506Z" fill="#F2892A"/>
<path opacity="0.3" d="M41.3426 150.616C37.2169 151.532 29.148 156.289 29.148 156.289L25.1619 159.549L19.3242 172.387L31.4652 175.51L33.0839 168.582L36.8981 161.644L43.7458 156.451L48.4231 153.44C48.4231 153.44 43.1226 150.219 41.3426 150.616Z" fill="white"/>
<path opacity="0.3" d="M60.087 122.633C60.087 122.633 58.0371 122.701 57.6159 123.56L56.0312 131.499L60.5123 132.02L60.087 122.633Z" fill="white"/>
<path opacity="0.3" d="M67.5163 42.9531C63.2398 42.1869 58.494 42.3233 54.2015 42.3233C52.4164 42.3233 49.548 41.9221 48.1881 43.4185C47.8752 43.7635 47.6706 44.0684 47.5502 44.3452C47.0207 44.9108 47.0247 45.681 48.1439 46.7241C50.0094 48.4692 54.9397 47.3218 57.1381 47.1894C60.0626 47.0129 63.0232 47.3138 65.9557 47.1413C68.5834 46.9889 71.5319 43.6672 67.5122 42.9491L67.5163 42.9531Z" fill="white"/>
<path opacity="0.3" d="M70.0527 199.126L98.0163 187.937L106.734 180.648L109.872 173.236L111.082 160.515L113.984 174.583L111.082 184.233L103.183 190.992L70.0527 199.126Z" fill="#4C7271"/>
<path opacity="0.3" d="M52.6494 31.3674H62.8912L66.0042 2.43932L52.6494 31.3674Z" fill="white"/>
<path d="M48.9346 31.5277L83.5953 31.1868L81.0198 36.2695L51.5742 36.5584L48.9346 31.5277Z" fill="#4C7271"/>
<path opacity="0.3" d="M67.4316 6.37074L73.6537 31.3674L79.4907 31.1869L67.4316 6.37074Z" fill="#4C7271"/>
<path opacity="0.3" d="M79.4908 36.4581H65.0488V40.9111H79.4908V36.4581Z" fill="#4C7271"/>
<path d="M53.9453 53.9693L55.5018 65.4868H77.1568L78.5849 53.9693H53.9453Z" fill="#7FBFBE"/>
<path opacity="0.3" d="M60.6886 64.231C60.8972 61.6916 57.658 60.4041 55.4355 59.2969L56.5646 64.7886C56.5646 64.7886 57.6879 71.1792 57.8403 72.4028L57.5755 89.7131L57.8403 104.252L60.9515 106.734L61.7789 86.0493L60.6886 64.231Z" fill="#D9D9D9"/>
<path opacity="0.3" d="M66.2648 53.9693L65.4424 65.4868H74.7815L76.6831 53.9693H66.2648Z" fill="#4C7271"/>
</g>
<defs>
<clipPath id="clip0_313_1792">
<rect width="132.529" height="210.103" fill="white"/>
</clipPath>
</defs>
</svg>
