<svg width="174" height="135" viewBox="0 0 174 135" fill="none" xmlns="http://www.w3.org/2000/svg">
<path d="M97.2104 123.38L121.667 116.817L148.653 104.165L162.142 93.3929L167.626 84.0217C168.443 80.3157 169.268 76.6096 170.085 72.8957C163.721 63.0523 163.242 62.3127 163.242 62.3127C163.242 62.3127 161.671 55.6875 158.764 43.4049C155.307 42.1302 151.843 40.8555 148.386 39.5809C146.265 34.4743 144.144 29.3755 142.015 24.2689C132.43 20.2875 127.386 18.1866 127.386 18.1866C127.386 18.1866 123.325 15.1022 115.83 9.40551C106.3 8.67375 101.201 8.28031 101.201 8.28031C101.201 8.28031 96.3226 6.55714 86.573 3.1029C81.5372 6.40764 76.5091 9.7045 71.4733 13.0092C62.6036 12.1044 58.2669 11.6559 58.2669 11.6559C58.2669 11.6559 54.1659 15.4956 46.4747 22.6874C42.3108 23.7417 38.1392 24.7882 33.9754 25.8426C28.3739 34.0651 24.7757 39.3527 24.7757 39.3527C24.7757 39.3527 21.5232 41.8391 15.3403 46.5602C12.8577 58.8349 11.5693 65.2477 11.5693 65.2477C11.5693 65.2477 9.16535 68.7255 4.72656 75.154C7.44483 82.4873 10.163 89.8128 12.8813 97.1462L22.1595 106.517L47.0325 114.921L72.3296 121.035L87.0836 123.38H97.2104Z" fill="#E2CFC3" stroke="#C8A298" stroke-width="2.67819" stroke-miterlimit="10"/>
<path d="M74.2383 94.896L58.2822 103.056L47.4563 112.301L43.4653 121.546C43.6067 125.221 43.7481 128.888 43.8817 132.562C48.9411 132.153 54.0006 131.736 59.06 131.327C63.1688 131.516 67.2776 131.697 71.3864 131.885L89.0552 128.62L99.3154 121.003L95.3244 105.778L74.2383 94.896Z" fill="#E2C8B7" stroke="#C8A298" stroke-width="2.67819" stroke-miterlimit="10"/>
<path d="M100.18 95.4309L116.136 103.59L126.962 112.836L130.953 122.081C130.811 125.756 130.67 129.422 130.536 133.097C125.477 132.688 120.417 132.271 115.358 131.862C111.249 132.05 107.14 132.231 103.032 132.42L85.3628 129.155L75.1025 121.538L79.0935 106.313L100.18 95.4309Z" fill="#E2C8B7" stroke="#C8A298" stroke-width="2.67819" stroke-miterlimit="10"/>
<path d="M121.078 124.591C122.814 120.893 124.55 117.195 126.278 113.497C127.512 116.251 128.745 118.997 129.971 121.751C129.869 125.355 129.759 128.958 129.657 132.554C126.42 132.326 123.183 132.106 119.946 131.877C118.438 131.618 116.929 131.358 115.421 131.099C111.202 131.327 106.983 131.555 102.765 131.783C103.315 131.122 103.865 130.461 104.414 129.8C107.29 129.352 110.173 128.911 113.048 128.463C115.735 127.18 118.406 125.882 121.078 124.591Z" fill="#F7EFEB"/>
<path d="M53.2463 123.427C51.5101 119.728 49.7739 116.03 48.0455 112.332C46.812 115.086 45.5786 117.832 44.353 120.586C44.4552 124.19 44.5652 127.794 44.6673 131.389C47.9041 131.161 51.1408 130.941 54.3776 130.713C55.886 130.453 57.3944 130.193 58.9028 129.934C63.1216 130.162 67.3404 130.39 71.5592 130.618C71.0093 129.957 70.4594 129.296 69.9094 128.636C67.0341 128.187 64.1508 127.746 61.2754 127.298C58.5964 126.015 55.9174 124.725 53.2463 123.427Z" fill="#F7EFEB"/>
<path d="M88.9213 128.258L114.297 118.194L144.481 101.238L167.193 86.1542C168.277 84.5018 169.401 82.4403 170.383 79.9224C171.357 77.4202 171.985 74.9889 172.394 72.8251C171.286 71.2986 170.171 69.7722 169.063 68.2535C167.201 68.3086 165.331 68.3716 163.454 68.4503C161.002 68.5447 158.583 68.6548 156.187 68.7807C148.118 74.1391 140.05 79.4896 131.989 84.848L106.048 107.627L86.4937 124.93L88.9213 128.258Z" fill="#EDDBCE" stroke="#C8A298" stroke-width="2.67819" stroke-miterlimit="10"/>
<path d="M85.3627 129.155C76.9408 126.204 68.5189 123.261 60.097 120.311L29.9133 103.354L7.20084 88.2705C6.11667 86.6181 4.99323 84.5566 4.0112 82.0387C3.03702 79.5365 2.40853 77.1052 2 74.9414C3.10773 73.4149 4.22331 71.8885 5.33104 70.3699C7.19298 70.4249 9.06278 70.4879 10.9404 70.5666C13.3916 70.661 15.8113 70.7711 18.2075 70.897C26.2758 76.2554 34.3442 81.6059 42.4126 86.9643L68.3539 109.743L87.9081 127.046C87.0518 127.754 86.2112 128.454 85.3627 129.155Z" fill="#EDDBCE" stroke="#C8A298" stroke-width="2.67819" stroke-miterlimit="10"/>
<path d="M91.6791 127.306L114.682 108.705L140.734 81.5747L159.73 58.835C160.39 56.8128 160.987 54.3736 161.325 51.5095C161.655 48.669 161.655 46.0252 161.498 43.7119C159.974 42.5552 158.457 41.3986 156.933 40.2419C155.071 40.9186 153.194 41.611 151.316 42.3192C148.865 43.2398 146.453 44.1604 144.065 45.0889C137.316 53.1697 130.568 61.2427 123.827 69.3236L103.589 100.876L88.3716 124.788L91.6791 127.306Z" fill="#EDDBCE" stroke="#C8A298" stroke-width="2.67819" stroke-miterlimit="10"/>
<path d="M82.7156 129.422L59.7125 110.821L33.6611 83.691L14.6647 60.9513C14.0048 58.9291 13.4077 56.4899 13.0699 53.6258C12.7399 50.7853 12.7399 48.1415 12.897 45.8282C14.4211 44.6716 15.9374 43.5149 17.4615 42.3582C19.3234 43.0349 21.2011 43.7274 23.0788 44.4355C25.5299 45.3561 27.9418 46.2767 30.3301 47.2052C37.0786 55.2861 43.8271 63.3591 50.5678 71.4399L70.8055 102.992L86.0231 126.904L82.7156 129.422Z" fill="#EDDBCE" stroke="#C8A298" stroke-width="2.67819" stroke-miterlimit="10"/>
<path d="M92.4725 127.306L111.265 101.899L131.22 66.8685L145.125 38.2746C145.337 36.0085 145.4 33.3333 145.109 30.2882C144.819 27.2746 144.237 24.5443 143.578 22.2073C141.81 21.4284 140.05 20.6415 138.282 19.8625C136.578 21.0664 134.865 22.286 133.16 23.5213C130.929 25.1265 128.729 26.7395 126.561 28.3368C121.619 38.495 116.686 48.6531 111.744 58.8112L98.5297 96.8235L88.6309 125.606L92.4725 127.306Z" fill="#EDDBCE" stroke="#C8A298" stroke-width="2.67819" stroke-miterlimit="10"/>
<path d="M81.3166 129.423L62.5244 104.015L42.5696 68.9852L28.664 40.3914C28.4519 38.1253 28.3891 35.45 28.6797 32.4049C28.9704 29.3913 29.5517 26.661 30.2117 24.3241C31.9793 23.5451 33.7392 22.7583 35.5068 21.9793C37.2116 23.1832 38.9243 24.4028 40.6291 25.6381C42.8602 27.2433 45.06 28.8563 47.2283 30.4536C52.1699 40.6117 57.1036 50.7698 62.0452 60.928L75.2595 98.9403L85.1583 127.723L81.3166 129.423Z" fill="#EDDBCE" stroke="#C8A298" stroke-width="2.67819" stroke-miterlimit="10"/>
<path d="M92.5121 126.936L105.098 96.6821L116.639 56.3722L123.717 24.033C123.411 21.6804 122.861 18.9422 121.879 15.9207C120.905 12.9228 119.718 10.2869 118.54 8.06015C116.639 7.68246 114.73 7.29693 112.828 6.91924C111.438 8.548 110.039 10.1846 108.649 11.8449C106.834 14.0087 105.043 16.1568 103.291 18.297C100.777 29.7849 98.2628 41.2728 95.741 52.7606L91.475 94.5183L88.3561 126.102C88.1754 126.968 88.3561 127.849 88.9139 128.25C89.7467 128.856 91.5222 128.518 92.5121 126.936Z" fill="#EDDBCE" stroke="#C8A298" stroke-width="2.67819" stroke-miterlimit="10"/>
<path d="M82.7156 129.423C78.2375 119.217 73.7673 109.012 69.2893 98.7989L57.7484 58.489L50.6699 26.1498C50.9763 23.7971 51.5262 21.0589 52.5083 18.0375C53.4824 15.0396 54.6687 12.4037 55.8472 10.1769C57.7484 9.79921 59.6575 9.41368 61.5587 9.03599C62.9492 10.6648 64.3477 12.3014 65.7382 13.9616C67.553 16.1254 69.3442 18.2735 71.0962 20.4137C73.6102 31.9016 76.1242 43.3895 78.646 54.8774L82.912 96.6351L86.0309 128.219C85.9209 128.4 85.481 129.077 84.5696 129.399C83.6897 129.714 82.9355 129.494 82.7156 129.423Z" fill="#EDDBCE" stroke="#C8A298" stroke-width="2.67819" stroke-miterlimit="10"/>
<path d="M89.299 125.913L95.1362 93.0704L97.7916 50.3528V16.5108C96.9902 14.2132 95.8589 11.5772 94.2563 8.74461C92.6614 5.93559 90.9331 3.52787 89.299 1.52929C87.3506 1.52929 85.4101 1.52929 83.4618 1.52929C82.4483 3.44131 81.4349 5.3612 80.4293 7.3047C79.1173 9.83046 77.8288 12.3483 76.564 14.8426C76.564 26.8656 76.564 38.8806 76.564 50.9036L81.3406 93.6212L85.0566 125.913C84.9309 127.235 85.8815 128.313 86.9028 128.423C88.0655 128.549 89.3932 127.448 89.299 125.913Z" fill="#EDDBCE" stroke="#C8A298" stroke-width="2.67819" stroke-miterlimit="10"/>
<path d="M88.7334 129.596L103.338 123.82L120.701 114.079L133.758 105.408C134.378 104.456 135.022 103.268 135.588 101.812C136.146 100.372 136.507 98.9718 136.735 97.7207C136.091 96.8394 135.447 95.9582 134.81 95.0769C133.742 95.1084 132.658 95.1399 131.581 95.1792C130.175 95.2343 128.777 95.2893 127.394 95.3602C122.759 98.4367 118.116 101.521 113.481 104.598L98.5694 117.706L87.335 127.66L88.7334 129.596Z" fill="#F7EFEB"/>
<path d="M84.868 131.059C80.0599 129.32 75.2519 127.574 70.4439 125.835L53.1287 116.031L40.0716 107.36C39.4353 106.423 38.7753 105.267 38.1783 103.85C37.589 102.442 37.2041 101.088 36.9448 99.8767C37.5576 99.0427 38.1626 98.2086 38.7753 97.3667C39.8281 97.4218 40.8887 97.4768 41.9571 97.5398C43.3477 97.6263 44.7147 97.7129 46.0738 97.8152C50.709 100.892 55.352 103.976 59.9872 107.053L74.977 120.051L86.2743 129.918C85.8029 130.296 85.3394 130.674 84.868 131.059Z" fill="#F7EFEB"/>
<path d="M91.9304 129.918L104.65 118.839L119.396 103.063L130.316 89.9859C130.764 88.8765 131.212 87.5467 131.542 86.0124C131.872 84.4859 132.021 83.0775 132.076 81.8579C131.369 81.3228 130.67 80.7878 129.963 80.2448C128.98 80.7012 127.991 81.1654 127.001 81.6375C125.704 82.2512 124.432 82.865 123.167 83.4866C119.286 88.129 115.405 92.7792 111.532 97.4216L99.4724 115.244L90.3984 128.746L91.9304 129.918Z" fill="#F7EFEB"/>
<path d="M81.977 131.484L69.1163 120.508L54.2994 104.779L43.3792 91.7015C42.9471 90.5764 42.5308 89.223 42.2401 87.6572C41.9494 86.0992 41.8473 84.6593 41.8315 83.4082C42.5857 82.8338 43.3399 82.2595 44.0941 81.6851C45.1076 82.1257 46.1132 82.5663 47.1345 83.0227C48.4622 83.6128 49.7664 84.2029 51.0626 84.8009C54.9436 89.4433 58.8246 94.0935 62.6978 98.7359L74.6314 116.652L83.6111 130.225L81.977 131.484Z" fill="#F7EFEB"/>
<path d="M92.8967 129.454L103.471 114.74L114.839 94.5498L122.837 78.1048C122.994 76.8144 123.073 75.2958 122.97 73.5726C122.868 71.8652 122.601 70.3308 122.287 69.0089C121.352 68.5919 120.409 68.1828 119.474 67.7658C118.532 68.4739 117.589 69.1978 116.646 69.9217C115.413 70.8738 114.203 71.818 113.001 72.7622C110.165 78.6006 107.321 84.4468 104.485 90.2852L96.6912 112.057L90.854 128.541L92.8967 129.454Z" fill="#F7EFEB"/>
<path d="M79.9416 129.595L69.3042 114.905L57.9048 94.7305L49.9072 78.2856C49.7579 76.9951 49.695 75.4686 49.8129 73.7376C49.9386 72.0223 50.2214 70.4801 50.5514 69.1503C51.5098 68.7254 52.4683 68.3005 53.4268 67.8756C54.3774 68.5838 55.328 69.2998 56.2864 70.0159C57.5356 70.9601 58.7611 71.8964 59.971 72.8328C62.8071 78.6711 65.6511 84.5173 68.4872 90.3557L76.2256 112.151L82.0235 128.651L79.9416 129.595Z" fill="#F7EFEB"/>
<path d="M92.5434 128.518L100.235 111.215L107.077 88.082L111.147 69.4811C110.911 68.1198 110.503 66.5226 109.819 64.76C109.136 63.0132 108.319 61.471 107.517 60.1649C106.268 59.9131 105.027 59.6691 103.778 59.4173C102.898 60.3379 102.018 61.2665 101.138 62.2028C99.9911 63.4224 98.8677 64.642 97.76 65.8537C96.3144 72.4632 94.8689 79.0648 93.4233 85.6742L91.3414 109.759L89.833 127.983C89.7309 128.478 89.8644 128.99 90.2337 129.234C90.7758 129.58 91.9228 129.415 92.5434 128.518Z" fill="#F7EFEB"/>
<path d="M82.1496 129.494C79.3606 123.663 76.5795 117.84 73.7905 112.01L66.9006 88.8847L66.0443 84.9741L62.8311 70.2837C63.0825 68.9146 63.5146 67.3174 64.2295 65.547C64.9444 63.7923 65.7929 62.2422 66.6335 60.9282C67.9219 60.6685 69.2025 60.4167 70.4909 60.1571C71.3944 61.0698 72.29 61.9983 73.1935 62.9268C74.364 64.1464 75.5189 65.3581 76.6502 66.562C78.0958 73.1714 79.5413 79.773 80.9868 86.3825L82.9745 110.483L84.4043 128.722C84.3258 128.833 84.0194 129.234 83.3987 129.431C82.8016 129.643 82.2989 129.533 82.1496 129.494Z" fill="#F7EFEB"/>
<path d="M90.3906 128.754C91.3098 122.026 92.2368 115.306 93.156 108.579L95.1436 84.0138V64.5552C94.5465 63.2333 93.6981 61.7147 92.4961 60.0859C91.3019 58.4729 90.0057 57.0881 88.7879 55.9393C87.3345 55.9393 85.8811 55.9393 84.4198 55.9393C83.6578 57.0408 82.9036 58.1424 82.1494 59.2598C81.1674 60.7154 80.2011 62.1553 79.2583 63.5952C79.2583 70.5037 79.2583 77.4201 79.2583 84.3285L82.8329 108.894C83.3514 115.511 83.8778 122.121 84.3963 128.738C86.3996 128.738 88.3951 128.746 90.3906 128.754Z" fill="#F7EFEB"/>
<path d="M64.52 81.0003C66.6805 86.0675 68.841 91.1348 71.0093 96.1942C72.8634 101.222 74.7095 106.25 76.5636 111.278L82.6837 126.023C83.43 127.337 84.1763 128.651 84.9227 129.965" fill="#F7EFEB"/>
<path d="M64.52 81.0003C66.6805 86.0675 68.841 91.1348 71.0093 96.1942C72.8634 101.222 74.7095 106.25 76.5636 111.278L82.6837 126.023C83.43 127.337 84.1763 128.651 84.9227 129.965" stroke="#E5CCC1" stroke-width="2.67819" stroke-miterlimit="10"/>
<path d="M79.2666 75.0441C79.6987 80.5992 80.1858 86.225 80.7279 91.9296C81.2386 97.3116 81.7963 102.615 82.3777 107.84L84.6639 123.553C84.8996 125.418 85.1274 127.29 85.3631 129.155" fill="#F7EFEB"/>
<path d="M79.2666 75.0441C79.6987 80.5992 80.1858 86.225 80.7279 91.9296C81.2386 97.3116 81.7963 102.615 82.3777 107.84L84.6639 123.553C84.8996 125.418 85.1274 127.29 85.3631 129.155" stroke="#E5CCC1" stroke-width="2.67819" stroke-miterlimit="10"/>
<path d="M96.6051 69.5438C94.7117 79.7177 93.5097 87.9796 92.7398 93.7786C91.6164 102.3 91.7106 103.488 90.6579 109.641C90.0372 113.3 89.1416 117.927 88.356 124.78C88.1439 126.606 88.0025 128.108 87.9082 129.108" fill="#F7EFEB"/>
<path d="M96.6051 69.5438C94.7117 79.7177 93.5097 87.9796 92.7398 93.7786C91.6164 102.3 91.7106 103.488 90.6579 109.641C90.0372 113.3 89.1416 117.927 88.356 124.78C88.1439 126.606 88.0025 128.108 87.9082 129.108" stroke="#E5CCC1" stroke-width="2.67819" stroke-miterlimit="10"/>
<path d="M53.3169 86.7285C57.0879 91.4967 60.8667 96.2729 64.6377 101.041C67.7802 105.495 70.9306 109.948 74.0731 114.402C76.5871 118.108 79.1089 121.806 81.623 125.512C83.1706 126.983 84.7262 128.455 86.2739 129.918" stroke="#E5CCC1" stroke-width="2.67819" stroke-miterlimit="10"/>
<path d="M48.2573 98.7359C51.9419 101.962 55.7051 105.212 59.5546 108.477C63.1842 111.554 66.7902 114.559 70.3727 117.502L81.4735 126.047C82.7698 127.086 84.0583 128.124 85.3545 129.155" fill="#F7EFEB"/>
<path d="M48.2573 98.7359C51.9419 101.962 55.7051 105.212 59.5546 108.477C63.1842 111.554 66.7902 114.559 70.3727 117.502L81.4735 126.047C82.7698 127.086 84.0583 128.124 85.3545 129.155" stroke="#E5CCC1" stroke-width="2.67819" stroke-miterlimit="10"/>
<path d="M109.073 80.0247C106.912 85.092 104.752 90.1592 102.583 95.2186C100.729 100.247 98.8752 105.274 97.029 110.302L90.9089 125.048C90.1626 126.362 89.4163 127.676 88.6699 128.99" fill="#F7EFEB"/>
<path d="M109.073 80.0247C106.912 85.092 104.752 90.1592 102.583 95.2186C100.729 100.247 98.8752 105.274 97.029 110.302L90.9089 125.048C90.1626 126.362 89.4163 127.676 88.6699 128.99" stroke="#E5CCC1" stroke-width="2.67819" stroke-miterlimit="10"/>
<path d="M120.276 85.7451C116.505 90.5133 112.726 95.2895 108.955 100.058C105.812 104.511 102.662 108.965 99.5196 113.418C97.0056 117.124 94.4838 120.822 91.9698 124.528C90.4221 126 88.8665 127.471 87.3188 128.935" stroke="#E5CCC1" stroke-width="2.67819" stroke-miterlimit="10"/>
<path d="M127.394 95.3681C123.214 99.3495 118.76 103.41 114.03 107.501C110.377 110.664 106.763 113.67 103.212 116.526L92.1115 125.071C90.8152 126.11 89.5268 127.149 88.2305 128.179" fill="#F7EFEB"/>
<path d="M127.394 95.3681C123.214 99.3495 118.76 103.41 114.03 107.501C110.377 110.664 106.763 113.67 103.212 116.526L92.1115 125.071C90.8152 126.11 89.5268 127.149 88.2305 128.179" stroke="#E5CCC1" stroke-width="2.67819" stroke-miterlimit="10"/>
<path d="M52.1154 42.9563C53.8045 44.8998 55.3286 46.9692 56.3814 49.2747C57.6619 53.083 58.4868 57.0329 58.9032 61.0222L58.8168 60.6839C59.7203 64.1538 60.3645 67.7024 60.223 71.314C57.8347 68.4814 55.9414 65.2318 54.5901 61.8012C53.5767 57.9142 52.9639 53.9328 52.8225 49.912L52.9089 50.2267C52.4218 47.8347 52.0525 45.4427 52.1154 42.9563Z" fill="#E2C8B7"/>
<path d="M34.6033 56.1677C36.2609 58.0797 37.5651 60.2593 38.7357 62.4703C40.4719 64.5475 43.1116 69.4575 44.5257 72.8173C45.5078 74.2887 48.1789 79.3402 48.8624 82.3852C45.7827 80.426 43.198 77.8609 40.8254 75.1227C39.6863 73.313 38.6728 71.4403 37.7379 69.5204C36.8109 67.632 36.041 65.657 35.3025 63.6742C34.839 61.2114 34.5011 58.6934 34.6033 56.1677Z" fill="#E2C8B7"/>
<path d="M124.872 35.804C124.574 43.8612 122.704 51.588 120.795 59.362C118.886 62.6431 116.835 65.7512 114.18 68.5208C114.376 66.5852 114.785 64.7519 115.264 62.95C115.743 61.1639 116.309 59.4014 116.953 57.6703L116.788 58.2132C117.558 50.2032 119.915 42.3033 124.872 35.804Z" fill="#E2C8B7"/>
<path d="M46.9374 39.7698C48.3437 40.9186 49.3885 42.272 50.3548 43.7434L50.4413 44.0581C51.494 46.6468 52.1147 49.3929 52.3032 52.1783L52.2168 51.84C52.7746 54.3264 53.026 56.8915 52.5624 59.433C52.0204 58.9766 51.5647 58.4967 51.1326 58.0088C49.8677 56.4745 48.6815 54.8143 48.0058 52.9573C47.2123 50.282 46.8196 47.4966 46.8981 44.6955L46.9845 45.0102C46.741 43.2634 46.6389 41.556 46.9374 39.7698Z" fill="#E2C8B7"/>
<path d="M128.195 27.9752C128.179 29.6433 127.99 31.2799 127.731 32.9165L127.81 32.5467C128.289 35.938 128.415 39.3135 128.344 42.6812C128.234 46.1984 127.935 49.7156 127.299 53.2013C126.073 55.908 124.691 58.5754 122.9 60.9674C122.782 57.9774 123.159 54.9953 123.693 52.0761L123.607 52.5403C123.198 45.7578 123.669 39.0382 125.272 32.4129L125.351 32.0431C126.215 30.6268 127.126 29.2577 128.195 27.9752Z" fill="#E2C8B7"/>
<path d="M25.5215 80.1032C27.3598 80.355 28.9939 80.9687 30.6202 81.7162L30.848 81.9208C33.1656 83.581 35.2004 85.5953 36.9052 87.8772L36.6616 87.6489C38.5 89.4902 40.1263 91.5517 41.1319 93.9988C38.4529 93.5188 35.876 92.4487 33.692 90.8593C31.5394 88.9945 29.6775 86.8149 28.1926 84.3757L28.4204 84.5803C27.2813 83.2269 26.2521 81.8106 25.5215 80.1032Z" fill="#E2C8B7"/>
<path d="M79.2662 51.7377C75.998 40.0137 75.8094 27.739 76.9643 15.7082L77.035 15.0709L77.1136 14.9293C78.8027 11.8842 80.6489 8.88632 82.8408 6.15598C82.5187 9.64955 81.7488 13.0802 80.8453 16.4479L80.9946 15.6768C82.338 27.6918 82.338 39.9587 79.2662 51.7377Z" fill="#F7EFEB"/>
<path d="M45.5318 71.3221C37.9819 62.3127 32.8832 51.6747 28.9158 40.6825L28.688 40.0215L28.7115 39.7619C29.1436 35.749 29.7407 31.7518 30.9034 27.8727C31.5005 29.8319 31.9091 31.8148 32.2704 33.8212C32.6083 35.7962 32.8832 37.779 33.0796 39.7698L32.8753 38.8491C38.7047 48.9679 43.5363 59.7398 45.5318 71.3221Z" fill="#F7EFEB"/>
<path d="M125.029 80.5518C128.934 68.0646 135.667 56.7891 143.405 46.3241L143.908 45.6711C147.75 44.2862 151.662 43.0273 155.7 42.2798C154.2 43.6174 152.621 44.8291 150.994 45.9858C149.384 47.1346 147.742 48.2283 146.084 49.2669L146.948 48.4801C141.205 60.1726 134.308 71.3378 125.029 80.5518Z" fill="#F7EFEB"/>
<path d="M81.3404 93.6214C80.9397 87.5863 80.7276 82.1099 79.722 76.3502C78.7086 70.5669 76.9802 64.9567 77.0666 58.843C77.1059 54.7435 77.7187 50.6756 79.2271 46.8594C80.0048 50.8723 80.6019 54.7042 81.3719 58.4259C82.456 64.0833 84.4515 69.7958 84.8914 75.7286C85.3078 81.866 84.2472 88.1922 81.3404 93.6214Z" fill="#F9F6F4"/>
<path d="M84.5848 63.2413C83.7363 61.4709 83.2885 59.9287 82.8642 58.4573C82.0629 55.3257 81.2223 52.4615 81.7251 49.0939C81.9843 47.3471 82.6914 45.6396 83.8855 44.121C84.9069 45.6632 85.4254 47.1582 86.0382 48.7555C87.8609 53.3664 88.4893 59.3543 84.5848 63.2413Z" fill="#F9F6F4"/>
</svg>
