<svg width="188" height="204" viewBox="0 0 188 204" fill="none" xmlns="http://www.w3.org/2000/svg">
<g clip-path="url(#clip0_354_2128)">
<path d="M-0.299805 72.3L41.5002 111.9L23.2002 194.5L85.5002 147.1L153.4 182.3L131.9 114.7L187.8 72.3L112.3 65.4L102.8 8.5L61.5002 64.4L-0.299805 72.3Z" fill="#FF2C6C" stroke="#B12C6C" stroke-width="4" stroke-miterlimit="10"/>
<path d="M64.3994 113.1L66.5994 107.2L73.4994 105.8L75.9994 110.8L73.7994 117.5L66.3994 118L64.3994 113.1Z" fill="#942C6C" stroke="#5C2C6C" stroke-width="2" stroke-miterlimit="10"/>
<path d="M55.0996 125.5L57.4996 120.7L63.4996 120.1L65.0996 124.6L62.6996 130.1L56.3996 129.9L55.0996 125.5Z" fill="#942C6C" stroke="#5C2C6C" stroke-width="2" stroke-miterlimit="10"/>
<path d="M47.7988 137.5L49.8988 133.4L54.8988 132.9L56.2988 136.7L54.2988 141.3L48.8988 141.1L47.7988 137.5Z" fill="#942C6C" stroke="#5C2C6C" stroke-width="2" stroke-miterlimit="10"/>
<path d="M42.499 146.6L44.199 143.2L48.599 142.7L49.799 146L47.999 150L43.399 149.8L42.499 146.6Z" fill="#942C6C" stroke="#5C2C6C" stroke-width="2" stroke-miterlimit="10"/>
<path d="M39.3994 154.1L40.6994 151.5L44.0994 151.1L44.9994 153.6L43.5994 156.7L40.0994 156.6L39.3994 154.1Z" fill="#942C6C" stroke="#5C2C6C" stroke-width="2" stroke-miterlimit="10"/>
<path d="M36.6992 160.4L37.6992 158.5L40.0992 158.2L40.7992 160L39.7992 162.3L37.2992 162.2L36.6992 160.4Z" fill="#942C6C" stroke="#5C2C6C" stroke-width="2" stroke-miterlimit="10"/>
<path d="M62.5992 85L68.5992 85.3L71.9992 91.4L68.0992 95.2H61.2992L58.6992 88.4L62.5992 85Z" fill="#942C6C" stroke="#5C2C6C" stroke-width="2" stroke-miterlimit="10"/>
<path d="M48.4994 80L53.5994 80.9L55.8994 86.3L52.2994 89.1L46.4994 88.5L44.8994 82.5L48.4994 80Z" fill="#942C6C" stroke="#5C2C6C" stroke-width="2" stroke-miterlimit="10"/>
<path d="M35.3998 76.7L39.6998 77.4L41.5998 82L38.5998 84.5L33.6998 84L32.2998 78.9L35.3998 76.7Z" fill="#942C6C" stroke="#5C2C6C" stroke-width="2" stroke-miterlimit="10"/>
<path d="M25.3992 74.5L29.0992 75.1L30.7992 79L28.0992 81.1L23.8992 80.7L22.6992 76.3L25.3992 74.5Z" fill="#942C6C" stroke="#5C2C6C" stroke-width="2" stroke-miterlimit="10"/>
<path d="M17.6 73.8L20.4 74.2L21.7 77.3L19.7 78.9L16.5 78.6L15.5 75.2L17.6 73.8Z" fill="#942C6C" stroke="#5C2C6C" stroke-width="2" stroke-miterlimit="10"/>
<path d="M10.9996 73.2L13.0996 73.5L13.9996 75.7L12.5996 76.9L10.1996 76.6L9.59961 74.2L10.9996 73.2Z" fill="#942C6C" stroke="#5C2C6C" stroke-width="2" stroke-miterlimit="10"/>
<path d="M101.2 112.3L98.0996 106.5L90.5996 105.8L88.5996 111.3L91.5996 118L99.5996 117.6L101.2 112.3Z" fill="#942C6C" stroke="#5C2C6C" stroke-width="2" stroke-miterlimit="10"/>
<path d="M112.499 124L109.399 119.4H102.999L101.699 124.2L104.999 129.7L111.699 128.7L112.499 124Z" fill="#942C6C" stroke="#5C2C6C" stroke-width="2" stroke-miterlimit="10"/>
<path d="M121.7 135.5L119.1 131.6H113.6L112.6 135.7L115.3 140.3L121 139.5L121.7 135.5Z" fill="#942C6C" stroke="#5C2C6C" stroke-width="2" stroke-miterlimit="10"/>
<path d="M128.499 144.4L126.199 141L121.599 141.1L120.699 144.6L122.999 148.5L127.899 147.8L128.499 144.4Z" fill="#942C6C" stroke="#5C2C6C" stroke-width="2" stroke-miterlimit="10"/>
<path d="M132.699 151.8L130.999 149.2H127.399L126.699 151.9L128.499 155L132.299 154.4L132.699 151.8Z" fill="#942C6C" stroke="#5C2C6C" stroke-width="2" stroke-miterlimit="10"/>
<path d="M136.299 158L134.999 156.1H132.399L131.899 158.1L133.199 160.2L135.999 159.9L136.299 158Z" fill="#942C6C" stroke="#5C2C6C" stroke-width="2" stroke-miterlimit="10"/>
<path d="M105.399 86.0001L99.1994 86.1001L95.3994 92.5001L99.1994 96.8001L106.199 97.1001L109.299 89.8001L105.399 86.0001Z" fill="#942C6C" stroke="#5C2C6C" stroke-width="2" stroke-miterlimit="10"/>
<path d="M120.199 81.1L114.899 81.8L112.199 87.6L115.799 90.9L121.799 90.4L123.799 84L120.199 81.1Z" fill="#942C6C" stroke="#5C2C6C" stroke-width="2" stroke-miterlimit="10"/>
<path d="M133.9 78.1L129.4 78.7L127.1 83.5L130.2 86.3L135.2 85.9L136.9 80.5L133.9 78.1Z" fill="#942C6C" stroke="#5C2C6C" stroke-width="2" stroke-miterlimit="10"/>
<path d="M144.299 76.0001L140.399 76.5001L138.499 80.7001L141.099 83.1001L145.399 82.7001L146.899 78.1001L144.299 76.0001Z" fill="#942C6C" stroke="#5C2C6C" stroke-width="2" stroke-miterlimit="10"/>
<path d="M152.399 75.5001L149.399 75.9001L147.899 79.1001L149.899 81.0001L153.199 80.7001L154.399 77.1001L152.399 75.5001Z" fill="#942C6C" stroke="#5C2C6C" stroke-width="2" stroke-miterlimit="10"/>
<path d="M159.099 75.1L156.999 75.4L155.899 77.7L157.299 79L159.699 78.9L160.599 76.3L159.099 75.1Z" fill="#942C6C" stroke="#5C2C6C" stroke-width="2" stroke-miterlimit="10"/>
<path d="M82.4992 73.2L79.6992 79L83.5992 85.6L89.0992 84.2L92.5992 77.9L87.6992 71.5L82.4992 73.2Z" fill="#942C6C" stroke="#5C2C6C" stroke-width="2" stroke-miterlimit="10"/>
<path d="M85.1988 57.3L83.2988 62.5L87.0988 67.7L91.6988 66L94.0988 60.4L89.3988 55.4L85.1988 57.3Z" fill="#942C6C" stroke="#5C2C6C" stroke-width="2" stroke-miterlimit="10"/>
<path d="M88.8988 43.2L87.2988 47.6L90.5988 52.1L94.3988 50.7L96.3988 45.8L92.3988 41.6L88.8988 43.2Z" fill="#942C6C" stroke="#5C2C6C" stroke-width="2" stroke-miterlimit="10"/>
<path d="M91.8996 32.7L90.5996 36.4L93.3996 40.3L96.6996 39L98.3996 34.9L94.9996 31.3L91.8996 32.7Z" fill="#942C6C" stroke="#5C2C6C" stroke-width="2" stroke-miterlimit="10"/>
<path d="M95.2988 25L94.2988 27.9L96.3988 30.9L98.9988 30L100.299 26.8L97.6988 24L95.2988 25Z" fill="#942C6C" stroke="#5C2C6C" stroke-width="2" stroke-miterlimit="10"/>
<path d="M98.0994 18.7L97.3994 20.7L98.8994 22.9L100.799 22.2L101.699 19.9L99.7994 17.9L98.0994 18.7Z" fill="#942C6C" stroke="#5C2C6C" stroke-width="2" stroke-miterlimit="10"/>
</g>
<defs>
<clipPath id="clip0_354_2128">
<rect width="188" height="204" fill="white"/>
</clipPath>
</defs>
</svg>
