<svg width="204" height="213" viewBox="0 0 204 213" fill="none" xmlns="http://www.w3.org/2000/svg">
<path d="M97.8925 32.0067H104.89C104.315 39.3684 104.008 43.3366 104.008 43.3366L104.89 52.4013C104.89 52.4013 104.89 57.4476 104.89 67.0031C104.978 69.7423 105.389 71.9361 105.545 73.4713C106.027 78.2449 106.283 80.7617 106.283 80.7617C106.283 80.7617 105.792 83.4841 104.89 88.4926C104.89 95.1957 104.89 101.899 104.89 108.606C102.556 108.606 100.222 108.606 97.8925 108.606C97.8925 95.3593 97.8925 88.3248 97.8925 88.3248L96.3604 79.9228C96.3604 79.9228 96.8976 75.5268 97.8925 67.3429C97.8925 57.8209 97.8925 52.7411 97.8925 52.7411L98.6648 43.3408C98.6648 43.3366 98.3962 39.3684 97.8925 32.0067Z" fill="#5B391B" stroke="#332D20" stroke-width="1.64168" stroke-miterlimit="10"/>
<path d="M104.823 185.751H97.8252C98.4003 178.389 98.7067 174.421 98.7067 174.421L97.8252 165.357C97.8252 165.357 97.8252 160.31 97.8252 150.755C97.7371 148.016 97.3257 145.822 97.1704 144.287C96.6877 139.513 96.4316 136.996 96.4316 136.996C96.4316 136.996 96.9228 134.274 97.8252 129.265C97.8252 122.562 97.8252 115.859 97.8252 109.152C100.159 109.152 102.493 109.152 104.823 109.152C104.823 122.399 104.823 129.433 104.823 129.433L106.355 137.835C106.355 137.835 105.817 142.231 104.823 150.415C104.823 159.937 104.823 165.017 104.823 165.017L104.05 174.417C104.05 174.421 104.319 178.389 104.823 185.751Z" fill="#5B391B" stroke="#332D20" stroke-width="1.64168" stroke-miterlimit="10"/>
<path d="M95.21 190.179C95.3947 189.412 95.5793 188.644 95.764 187.881C96.3181 187.205 96.868 186.53 97.4221 185.855C98.0139 185.246 98.6058 184.638 99.2019 184.026C99.7769 183.866 100.352 183.711 100.927 183.552C101.746 183.736 102.56 183.921 103.378 184.105C103.849 184.781 104.323 185.456 104.793 186.127C105.376 186.895 105.96 187.662 106.543 188.426C106.606 188.854 106.665 189.286 106.728 189.714C106.736 190.506 106.745 191.303 106.753 192.096C106.413 192.738 106.069 193.38 105.729 194.017C105.066 194.563 104.403 195.108 103.744 195.653C102.808 195.863 101.872 196.073 100.935 196.283C100.255 196.169 99.5754 196.06 98.8912 195.947C98.0937 195.431 97.2962 194.919 96.4986 194.403C96.0998 193.845 95.7011 193.283 95.2981 192.725C95.2645 191.882 95.2351 191.031 95.21 190.179Z" fill="#5B391B" stroke="#332D20" stroke-width="1.64168" stroke-miterlimit="10"/>
<path d="M106.355 80.6192C106.355 80.6192 106.048 82.2048 105.486 85.1663C102.917 85.1663 100.344 85.1663 97.7747 85.1663C97.5312 84.579 97.2878 83.8659 97.1115 83.0479C96.8638 81.9112 96.8092 80.9044 96.826 80.1032C98.1189 80.3423 98.8199 80.4724 98.8199 80.4724L102.052 76.2399C103.383 70.8036 104.239 67.3136 104.239 67.3136C104.579 71.1979 104.982 74.2223 105.272 75.8918C105.561 77.5487 105.905 78.9455 105.905 78.9455C106.077 79.6502 106.241 80.2249 106.355 80.6192Z" fill="#3F1F13"/>
<path d="M177.302 105.658V112.65C169.935 112.076 165.965 111.769 165.965 111.769L156.894 112.65C156.894 112.65 151.844 112.65 142.282 112.65C139.541 112.738 137.346 113.149 135.809 113.305C131.032 113.787 128.514 114.043 128.514 114.043C128.514 114.043 125.79 113.552 120.778 112.65C114.07 112.65 107.362 112.65 100.65 112.65C100.65 110.318 100.65 107.986 100.65 105.658C113.906 105.658 120.946 105.658 120.946 105.658L129.353 104.127C129.353 104.127 133.752 104.664 141.942 105.658C151.47 105.658 156.554 105.658 156.554 105.658L165.96 106.43C165.965 106.43 169.94 106.161 177.302 105.658Z" fill="#5B391B" stroke="#332D20" stroke-width="1.64168" stroke-miterlimit="10"/>
<path d="M182.742 115.263C181.973 115.079 181.205 114.894 180.441 114.71C179.765 114.156 179.09 113.606 178.414 113.053C177.805 112.461 177.197 111.87 176.584 111.274C176.424 110.699 176.269 110.125 176.109 109.55C176.294 108.732 176.479 107.918 176.663 107.1C177.339 106.631 178.015 106.157 178.687 105.687C179.455 105.104 180.223 104.521 180.987 103.938C181.415 103.875 181.847 103.816 182.276 103.753C183.069 103.745 183.866 103.736 184.66 103.728C185.302 104.068 185.944 104.412 186.582 104.751C187.128 105.414 187.674 106.077 188.219 106.735C188.429 107.671 188.639 108.606 188.849 109.542C188.736 110.221 188.627 110.901 188.513 111.584C187.997 112.381 187.485 113.178 186.968 113.975C186.41 114.374 185.848 114.772 185.289 115.175C184.442 115.209 183.589 115.238 182.742 115.263Z" fill="#5B391B" stroke="#332D20" stroke-width="1.64168" stroke-miterlimit="10"/>
<path d="M24.6191 112.998V106.006C31.9859 106.58 35.9568 106.887 35.9568 106.887L45.0277 106.006C45.0277 106.006 50.0774 106.006 59.6394 106.006C62.3804 105.918 64.5758 105.507 66.1121 105.351C70.8889 104.869 73.4075 104.613 73.4075 104.613C73.4075 104.613 76.1317 105.104 81.1436 106.006C87.8513 106.006 94.559 106.006 101.271 106.006C101.271 108.338 101.271 110.67 101.271 112.998C88.015 112.998 80.9757 112.998 80.9757 112.998L72.5679 114.529C72.5679 114.529 68.1689 113.992 59.9794 112.998C50.451 112.998 45.3677 112.998 45.3677 112.998L35.961 112.226C35.9568 112.226 31.9817 112.495 24.6191 112.998Z" fill="#5B391B" stroke="#332D20" stroke-width="1.64168" stroke-miterlimit="10"/>
<path d="M19.1797 103.393C19.9479 103.577 20.716 103.762 21.48 103.946C22.1558 104.5 22.8316 105.049 23.5074 105.603C24.1161 106.195 24.7247 106.79 25.3376 107.382C25.4971 107.956 25.6524 108.531 25.8119 109.106C25.6272 109.924 25.4425 110.737 25.2578 111.555C24.582 112.025 23.9062 112.499 23.2346 112.969C22.4664 113.552 21.6983 114.135 20.9343 114.718C20.5062 114.781 20.0738 114.84 19.6457 114.903C18.8523 114.911 18.0548 114.92 17.2614 114.928C16.6192 114.588 15.977 114.244 15.339 113.904C14.7933 113.242 14.2476 112.579 13.7019 111.92C13.492 110.985 13.2821 110.05 13.0723 109.114C13.1856 108.435 13.2947 107.755 13.4081 107.071C13.9244 106.274 14.4365 105.477 14.9528 104.68C15.5111 104.282 16.0735 103.883 16.6318 103.481C17.4797 103.443 18.3318 103.418 19.1797 103.393Z" fill="#5B391B" stroke="#332D20" stroke-width="1.64168" stroke-miterlimit="10"/>
<path d="M152.557 51.9066L157.506 56.8522C151.89 61.6551 148.863 64.239 148.863 64.239C148.863 64.239 143.075 71.2736 143.071 71.2736C143.071 71.2736 139.503 74.8391 132.74 81.5967C130.864 83.5976 129.605 85.4349 128.627 86.6346C125.592 90.3511 123.993 92.31 123.993 92.31C123.993 92.31 121.722 93.8872 117.541 96.79C112.798 101.53 108.054 106.27 103.311 111.01C101.662 109.361 100.012 107.713 98.3623 106.064C107.735 96.6977 112.714 91.7228 112.714 91.7228L117.575 84.6966C117.575 84.6966 121.063 81.9659 127.561 76.8861C134.298 70.1536 137.895 66.5587 137.895 66.5587L145.094 60.4554C145.085 60.4638 147.705 57.4646 152.557 51.9066Z" fill="#5B391B" stroke="#332D20" stroke-width="1.64168" stroke-miterlimit="10"/>
<path d="M163.736 54.3233C163.064 54.7344 162.389 55.1496 161.717 55.5607C160.848 55.6488 159.979 55.7327 159.11 55.8208C158.258 55.8334 157.41 55.846 156.558 55.8544C156.042 55.5607 155.521 55.2629 155.005 54.9693C154.56 54.2604 154.111 53.5557 153.666 52.8467C153.809 52.0372 153.956 51.2276 154.098 50.418C154.228 49.4616 154.359 48.5094 154.489 47.553C154.749 47.2049 155.009 46.8609 155.269 46.5128C155.824 45.9465 156.382 45.3802 156.936 44.8097C157.633 44.6 158.325 44.386 159.022 44.1763C159.878 44.2602 160.731 44.3399 161.587 44.4238C162.397 44.9397 163.207 45.4515 164.017 45.9674C164.42 46.5253 164.823 47.0874 165.226 47.6453C165.428 48.5723 165.625 49.4994 165.826 50.4264C165.713 51.1059 165.6 51.7813 165.486 52.4608C164.899 53.0817 164.315 53.7025 163.736 54.3233Z" fill="#5B391B" stroke="#332D20" stroke-width="1.64168" stroke-miterlimit="10"/>
<path d="M49.7888 164.987L44.8398 160.042C50.4562 155.239 53.4826 152.655 53.4826 152.655C53.4826 152.655 59.2711 145.62 59.2753 145.62C59.2753 145.62 62.8432 142.055 69.6055 135.297C71.4818 133.296 72.7411 131.459 73.7191 130.259C76.7539 126.543 78.3532 124.584 78.3532 124.584C78.3532 124.584 80.6241 123.007 84.8049 120.104C89.5481 115.364 94.2914 110.624 99.0346 105.884C100.684 107.532 102.334 109.181 103.984 110.829C94.6104 120.196 89.6321 125.171 89.6321 125.171L84.7713 132.197C84.7713 132.197 81.2831 134.928 74.7853 140.008C68.0482 146.74 64.4509 150.335 64.4509 150.335L57.252 156.439C57.2562 156.43 54.6412 159.429 49.7888 164.987Z" fill="#5B391B" stroke="#332D20" stroke-width="1.64168" stroke-miterlimit="10"/>
<path d="M38.6089 162.566C39.2806 162.155 39.9564 161.74 40.628 161.328C41.4969 161.24 42.3658 161.156 43.2347 161.068C44.0868 161.056 44.9347 161.043 45.7868 161.035C46.3031 161.328 46.8236 161.626 47.3399 161.92C47.7848 162.629 48.234 163.333 48.6789 164.042C48.5362 164.852 48.3893 165.662 48.2466 166.471C48.1164 167.428 47.9863 168.38 47.8562 169.336C47.5959 169.684 47.3357 170.028 47.0754 170.376C46.5214 170.943 45.9631 171.509 45.409 172.079C44.7122 172.289 44.0196 172.503 43.3228 172.713C42.4665 172.629 41.6144 172.549 40.7581 172.465C39.948 171.949 39.1378 171.438 38.3277 170.922C37.9247 170.364 37.5218 169.802 37.1188 169.244C36.9173 168.317 36.72 167.39 36.5186 166.463C36.6319 165.783 36.7452 165.108 36.8586 164.428C37.442 163.808 38.0255 163.187 38.6089 162.566Z" fill="#5B391B" stroke="#332D20" stroke-width="1.64168" stroke-miterlimit="10"/>
<path d="M157.703 160.423L152.754 165.369C147.948 159.756 145.362 156.732 145.362 156.732C145.362 156.732 138.323 150.948 138.323 150.943C138.323 150.943 134.755 147.378 127.993 140.62C125.991 138.745 124.152 137.487 122.952 136.509C119.233 133.477 117.272 131.878 117.272 131.878C117.272 131.878 115.694 129.609 112.789 125.431C108.046 120.691 103.303 115.951 98.5596 111.211C100.209 109.563 101.859 107.914 103.509 106.266C112.882 115.632 117.86 120.607 117.86 120.607L124.891 125.465C124.891 125.465 127.624 128.95 132.707 135.444C139.444 142.176 143.041 145.771 143.041 145.771L149.149 152.965C149.14 152.957 152.141 155.574 157.703 160.423Z" fill="#5B391B" stroke="#332D20" stroke-width="1.64168" stroke-miterlimit="10"/>
<path d="M155.287 171.589C154.876 170.918 154.46 170.242 154.049 169.571C153.961 168.703 153.877 167.835 153.788 166.966C153.776 166.115 153.763 165.267 153.755 164.416C154.049 163.9 154.347 163.38 154.641 162.864C155.35 162.419 156.055 161.97 156.765 161.526C157.575 161.668 158.385 161.815 159.195 161.958C160.152 162.088 161.105 162.218 162.062 162.348C162.41 162.608 162.754 162.868 163.103 163.128C163.67 163.682 164.236 164.24 164.807 164.793C165.017 165.49 165.231 166.182 165.441 166.878C165.357 167.734 165.277 168.586 165.193 169.441C164.677 170.251 164.165 171.06 163.649 171.87C163.09 172.273 162.528 172.675 161.97 173.078C161.042 173.279 160.114 173.477 159.187 173.678C158.507 173.565 157.831 173.451 157.151 173.338C156.529 172.755 155.908 172.172 155.287 171.589Z" fill="#5B391B" stroke="#332D20" stroke-width="1.64168" stroke-miterlimit="10"/>
<path d="M44.5449 57.7242L49.4938 52.7786C54.3001 58.3912 56.8858 61.4155 56.8858 61.4155C56.8858 61.4155 63.9251 67.2 63.9251 67.2042C63.9251 67.2042 67.493 70.7697 74.2553 77.5274C76.2575 79.4024 78.0961 80.6609 79.2966 81.6382C83.0156 84.671 84.9759 86.2692 84.9759 86.2692C84.9759 86.2692 86.5542 88.5385 89.4589 92.7164C94.2021 97.4565 98.9454 102.196 103.689 106.936C102.039 108.585 100.389 110.234 98.7397 111.882C89.3665 102.515 84.3882 97.5404 84.3882 97.5404L77.3573 92.6829C77.3573 92.6829 74.6247 89.1971 69.5414 82.7037C62.8043 75.9712 59.207 72.3763 59.207 72.3763L53.0996 65.1824C53.108 65.1866 50.1067 62.5733 44.5449 57.7242Z" fill="#5B391B" stroke="#332D20" stroke-width="1.64168" stroke-miterlimit="10"/>
<path d="M46.9654 46.5546C47.3768 47.2258 47.7924 47.9011 48.2037 48.5723C48.2919 49.4406 48.3758 50.3089 48.464 51.1772C48.4766 52.0287 48.4892 52.876 48.4975 53.7276C48.2037 54.2435 47.9057 54.7637 47.6119 55.2796C46.9025 55.7242 46.1973 56.1731 45.4879 56.6177C44.6778 56.4751 43.8676 56.3283 43.0575 56.1857C42.1005 56.0556 41.1476 55.9256 40.1906 55.7956C39.8422 55.5355 39.498 55.2754 39.1496 55.0153C38.5829 54.4616 38.0162 53.9037 37.4454 53.35C37.2355 52.6537 37.0214 51.9616 36.8115 51.2653C36.8955 50.4096 36.9752 49.558 37.0592 48.7023C37.5755 47.8927 38.0876 47.0832 38.6039 46.2736C39.1622 45.8709 39.7246 45.4682 40.2829 45.0655C41.2106 44.8641 42.1382 44.667 43.0659 44.4657C43.7459 44.5789 44.4217 44.6922 45.1017 44.8054C45.723 45.3885 46.3442 45.9715 46.9654 46.5546Z" fill="#5B391B" stroke="#332D20" stroke-width="1.64168" stroke-miterlimit="10"/>
<path d="M124.329 91.8527C124.329 91.8527 122.994 92.7546 120.497 94.4534C118.679 92.6371 116.861 90.8208 115.044 89.0045C115.287 88.4173 115.619 87.7419 116.072 87.0372C116.702 86.0598 117.374 85.309 117.953 84.7553C118.7 85.8375 119.103 86.4248 119.103 86.4248L124.384 85.7159C129.169 82.8131 132.246 80.9465 132.246 80.9465C129.74 83.9331 127.884 86.3535 126.906 87.7419C125.937 89.1178 125.194 90.351 125.194 90.351C124.82 90.9676 124.526 91.492 124.329 91.8527Z" fill="#3F1F13"/>
<path d="M128.388 113.975C128.388 113.975 126.801 113.669 123.838 113.107C123.838 110.54 123.838 107.968 123.838 105.401C124.426 105.158 125.139 104.915 125.958 104.738C127.095 104.491 128.103 104.436 128.904 104.453C128.665 105.745 128.535 106.446 128.535 106.446L132.77 109.676C138.21 111.005 141.703 111.861 141.703 111.861C137.816 112.201 134.789 112.604 133.119 112.893C131.461 113.182 130.063 113.526 130.063 113.526C129.362 113.694 128.783 113.858 128.388 113.975Z" fill="#3F1F13"/>
<path d="M84.9937 86.3574C84.9937 86.3574 85.8962 87.6913 87.5962 90.1871C85.7787 92.0034 83.9611 93.8197 82.1436 95.636C81.5559 95.3927 80.8801 95.0614 80.1749 94.6083C79.1969 93.9791 78.4455 93.308 77.8915 92.7291C78.9744 91.9825 79.5621 91.5798 79.5621 91.5798L78.8527 86.3028C75.948 81.5209 74.0801 78.4461 74.0801 78.4461C77.0687 80.9504 79.4907 82.8044 80.8801 83.7818C82.2569 84.7508 83.491 85.4932 83.491 85.4932C84.1081 85.8666 84.6286 86.156 84.9937 86.3574Z" fill="#3F1F13"/>
<path d="M124.53 125.045C124.53 125.045 123.195 124.143 120.698 122.445C118.88 124.261 117.063 126.077 115.245 127.893C115.489 128.481 115.82 129.156 116.274 129.861C116.903 130.838 117.575 131.589 118.154 132.143C118.901 131.06 119.304 130.473 119.304 130.473L124.585 131.182C129.37 134.085 132.447 135.952 132.447 135.952C129.941 132.965 128.085 130.545 127.107 129.156C126.138 127.78 125.395 126.547 125.395 126.547C125.021 125.93 124.727 125.41 124.53 125.045Z" fill="#3F1F13"/>
<path d="M106.363 137.437C106.363 137.437 106.057 135.851 105.494 132.89C102.925 132.89 100.352 132.89 97.7835 132.89C97.54 133.477 97.2966 134.19 97.1203 135.008C96.8726 136.145 96.818 137.151 96.8348 137.953C98.1277 137.714 98.8287 137.584 98.8287 137.584L102.061 141.816C103.391 147.252 104.248 150.742 104.248 150.742C104.588 146.858 104.991 143.834 105.28 142.164C105.57 140.507 105.914 139.11 105.914 139.11C106.086 138.41 106.246 137.835 106.363 137.437Z" fill="#3F1F13"/>
<path d="M84.9937 131.719C84.9937 131.719 85.8962 130.385 87.5962 127.889C85.7787 126.073 83.9611 124.256 82.1436 122.44C81.5559 122.683 80.8801 123.015 80.1749 123.468C79.1969 124.097 78.4455 124.768 77.8915 125.347C78.9744 126.094 79.5621 126.496 79.5621 126.496L78.8527 131.773C75.948 136.555 74.0801 139.63 74.0801 139.63C77.0687 137.126 79.4907 135.272 80.8801 134.294C82.2569 133.325 83.491 132.583 83.491 132.583C84.1081 132.205 84.6286 131.916 84.9937 131.719Z" fill="#3F1F13"/>
<path d="M72.9885 114.743C72.9885 114.743 74.5752 114.437 77.5387 113.875C77.5387 111.307 77.5387 108.736 77.5387 106.169C76.951 105.926 76.2374 105.682 75.4189 105.506C74.2814 105.259 73.2739 105.204 72.4722 105.221C72.7115 106.513 72.8416 107.213 72.8416 107.213L68.6062 110.443C63.1662 111.773 59.6738 112.629 59.6738 112.629C63.5608 112.968 66.5872 113.371 68.2578 113.661C69.9159 113.95 71.3137 114.294 71.3137 114.294C72.0147 114.462 72.5939 114.625 72.9885 114.743Z" fill="#3F1F13"/>
<path d="M152.159 83.5722L141.48 69.025L121.063 56.0046L101.398 51.7679L75.7843 57.9258L58.419 71.093L47.2913 89.793C47.2913 89.793 46.4643 94.6378 45.629 99.4785C44.7979 104.319 43.9668 109.16 43.9668 109.16L48.072 128.829L60.3709 147.479C60.3709 147.479 64.8581 150.834 69.3453 154.186C73.8325 157.542 78.3155 160.893 78.3197 160.897L101.394 166.548C101.394 166.548 106.708 165.524 112.026 164.497C117.34 163.473 122.654 162.445 122.659 162.445C122.659 162.445 127.515 159.245 132.372 156.048C137.228 152.844 142.093 149.647 142.093 149.647L155.064 128.984L158.821 109.16L152.159 83.5722ZM142.777 124.441L132.775 140.373C132.775 140.373 129.026 142.839 125.282 145.306C121.534 147.776 117.789 150.239 117.789 150.239L101.394 153.402L83.6002 149.047L69.7608 138.699L60.2743 124.32L57.1094 109.156L59.6699 94.2268L68.2497 79.8054L81.6358 69.6542L101.385 64.91L116.547 68.1734C116.547 68.1734 120.488 70.6861 124.422 73.1987C128.355 75.7071 132.292 78.2156 132.292 78.2156L140.523 89.428C140.523 89.4322 141.808 94.361 143.092 99.2898C144.377 104.223 145.661 109.152 145.661 109.152C145.661 109.152 142.777 124.437 142.777 124.441Z" fill="#5B391B" stroke="#332D20" stroke-width="1.64168" stroke-miterlimit="10"/>
<path d="M119.787 109.156C119.204 111.354 118.616 113.548 118.033 115.746C116.782 117.533 115.531 119.324 114.276 121.111C112.219 122.638 110.158 124.165 108.101 125.696L101.394 127.537C99.0347 127.004 96.6799 126.472 94.3208 125.939C92.3816 124.546 90.4423 123.154 88.503 121.757C87.164 119.794 85.8292 117.826 84.4901 115.863C83.9948 113.627 83.4953 111.392 83 109.152L84.5867 102.855C85.5731 101.006 86.5595 99.1557 87.546 97.3058C89.4601 95.7328 91.3699 94.1598 93.284 92.5826C95.9873 91.9785 98.6905 91.3745 101.398 90.7704C103.362 91.0934 105.327 91.4122 107.296 91.7352C109.596 93.2202 111.9 94.7051 114.201 96.19C115.355 97.805 116.509 99.4199 117.664 101.031C118.369 103.745 119.078 106.45 119.787 109.156Z" fill="#9598AA" stroke="#45454C" stroke-width="1.64168" stroke-miterlimit="10"/>
<path d="M115.149 109.156C114.712 110.8 114.275 112.44 113.835 114.085C112.899 115.423 111.963 116.761 111.027 118.099C109.486 119.24 107.95 120.385 106.409 121.526L101.393 122.902C99.6301 122.503 97.8672 122.105 96.1042 121.706C94.656 120.666 93.2037 119.622 91.7555 118.581C90.7565 117.113 89.7533 115.645 88.7542 114.177C88.3807 112.503 88.0113 110.834 87.6377 109.16L88.8214 104.453C89.5602 103.069 90.2948 101.685 91.0335 100.305C92.4649 99.1262 93.8921 97.9517 95.3234 96.773C97.3467 96.3199 99.3657 95.8711 101.389 95.4181C102.858 95.6572 104.327 95.9005 105.796 96.1396C107.517 97.2511 109.238 98.3627 110.959 99.4701C111.824 100.678 112.685 101.882 113.549 103.09C114.087 105.108 114.615 107.13 115.149 109.156Z" fill="#283435" stroke="#12282B" stroke-width="1.64168" stroke-miterlimit="10"/>
<path d="M107.508 26.5787C107.323 27.3464 107.139 28.114 106.954 28.8774C106.4 29.5528 105.85 30.2281 105.296 30.9035C104.704 31.5117 104.112 32.12 103.516 32.7324C102.941 32.8918 102.366 33.047 101.791 33.2064C100.973 33.0218 100.158 32.8373 99.3397 32.6527C98.8696 31.9773 98.3952 31.302 97.9251 30.6308C97.3416 29.8632 96.7582 29.0956 96.1747 28.3321C96.1118 27.9043 96.053 27.4722 95.99 27.0444C95.9816 26.2516 95.9732 25.4546 95.9648 24.6618C96.3048 24.02 96.649 23.3782 96.9891 22.7406C97.6523 22.1953 98.3155 21.65 98.9745 21.1047C99.9105 20.8949 100.847 20.6852 101.783 20.4754C102.463 20.5887 103.143 20.6978 103.827 20.811C104.624 21.327 105.422 21.8387 106.219 22.3547C106.618 22.9126 107.017 23.4747 107.42 24.0326C107.454 24.8757 107.479 25.7272 107.508 26.5787Z" fill="#5B391B" stroke="#332D20" stroke-width="1.64168" stroke-miterlimit="10"/>
<path d="M46.7453 56.4578L51.2577 62.7918L45.4902 57.5736L46.7453 56.4578Z" fill="#836130"/>
<path d="M25.3749 106.479L33.0522 107.767L25.2783 108.153L25.3749 106.479Z" fill="#836130"/>
<path d="M100.613 32.7827L99.3198 40.4506L98.9336 32.6862L100.613 32.7827Z" fill="#836130"/>
<path d="M153.753 54.2433L147.415 58.7568L152.637 52.9933L153.753 54.2433Z" fill="#836130"/>
<path d="M176.495 108.372L168.822 107.084L176.596 106.698L176.495 108.372Z" fill="#836130"/>
<path d="M45.5986 159.937L51.937 155.424L46.711 161.191L45.5986 159.937Z" fill="#836130"/>
<path d="M98.8828 185.147L98.9206 177.37L100.553 184.975L98.8828 185.147Z" fill="#836130"/>
<path d="M152.247 164.48L147.734 158.146L153.502 163.364L152.247 164.48Z" fill="#836130"/>
<path d="M104.164 38.3369L101.738 43.3999L99.79 47.0786H103.824V43.4922L104.164 38.3369Z" fill="#3F1F13"/>
<path d="M152.524 60.2916L147.227 62.1582L143.243 63.3831L146.098 66.2355L148.637 63.6935L152.524 60.2916Z" fill="#3F1F13"/>
<path d="M171.345 111.866L166.279 109.441L162.598 107.495V111.526H166.187L171.345 111.866Z" fill="#3F1F13"/>
<path d="M53.0078 57.4853L54.8715 62.779L56.1014 66.7598L58.9516 63.9074L56.412 61.3695L53.0078 57.4853Z" fill="#3F1F13"/>
<path d="M103.979 179.551L101.553 174.488L99.6055 170.805H103.639V174.396L103.979 179.551Z" fill="#3F1F13"/>
<path d="M152.843 156.846L147.546 154.979L143.566 153.754L146.417 150.902L148.956 153.439L152.843 156.846Z" fill="#3F1F13"/>
<path d="M53.4775 160.063L55.3413 154.765L56.5711 150.788L59.4213 153.637L56.8818 156.174L53.4775 160.063Z" fill="#3F1F13"/>
<path d="M30.8525 111.866L35.9148 109.441L39.6003 107.495V111.526H36.0071L30.8525 111.866Z" fill="#3F1F13"/>
<path d="M51.2906 99.7093C51.9119 104.294 52.2225 106.589 52.2225 106.589L50.7659 104.344C50.7659 104.344 49.641 99.5373 49.1793 99.6044C48.9778 99.6338 49.1163 100.586 48.7427 102.889C48.642 103.506 48.3146 105.355 48.4195 104.739C48.4195 104.739 47.5254 101.706 46.6104 98.5935C47.6388 94.1765 48.663 89.7553 49.6914 85.3382L58.2544 72.6157L69.4283 64.6541C69.0757 65.061 68.5762 65.6776 68.0515 66.4872C67.51 67.3262 67.0945 67.9638 67.2582 68.1483C67.4597 68.3748 68.2908 67.6492 70.1293 66.8857C71.716 66.2272 73.4916 65.7783 73.4916 65.7783C73.4916 65.7783 68.4923 69.5242 68.7567 69.9688C68.9036 70.2121 70.612 69.4319 72.1861 68.6517C68.7021 71.135 65.214 73.6182 61.73 76.1015L54.166 87.3349L51.2906 99.7093Z" fill="#836130"/>
<path d="M91.6721 164.253L78.135 159.811C74.2396 156.921 70.3443 154.03 66.449 151.14C64.8833 148.875 64.0605 147.688 64.0605 147.688C64.0605 147.688 66.3146 149.513 66.6211 149.37C66.6211 149.37 66.7932 149.29 64.6776 146.337C68.6317 149.529 68.8164 149.441 68.8164 149.441C69.085 149.311 67.0534 147.122 67.2969 147.008C67.4522 146.937 68.426 147.722 69.7399 148.875C73.3917 151.585 77.0478 154.295 80.6997 157.009L93.305 161.145C94.0648 161.363 94.6986 161.522 95.1519 161.631C96.1132 161.862 97.2885 162.114 97.2885 162.114C93.347 161.921 93.2714 162.323 93.2714 162.323C93.1833 162.806 98.6065 164.161 98.6065 164.161C98.6065 164.161 96.4406 164.547 94.3166 164.513C93.6912 164.496 92.7887 164.446 91.6721 164.253Z" fill="#836130"/>
<path d="M143.629 72.0372L151.785 83.7153C153.162 88.363 154.539 93.0108 155.915 97.6585C155.806 100.41 155.747 101.853 155.747 101.853C155.747 101.853 155.042 99.0428 154.711 98.9714C154.711 98.9714 154.526 98.9337 154.442 102.562C153.2 97.6333 153.002 97.5956 153.002 97.5956C152.708 97.5369 153.019 100.507 152.755 100.452C152.587 100.419 152.28 99.2022 151.923 97.4907C150.631 93.1324 149.342 88.7699 148.049 84.4116L140.46 73.5389C139.981 72.9097 139.574 72.398 139.276 72.0414C138.647 71.278 137.857 70.3719 137.857 70.3719C140.892 72.893 141.194 72.6161 141.194 72.6161C141.555 72.2805 138.034 67.9474 138.034 67.9474C138.034 67.9474 139.998 68.9415 141.673 70.2419C142.164 70.6278 142.857 71.2109 143.629 72.0372Z" fill="#3F1F13"/>
<path d="M150.773 126.958C149.199 131.3 147.188 135.465 145.064 139.555C143.541 141.988 141.962 144.383 140.313 146.732C137.064 148.842 133.752 150.847 130.318 152.651C129.198 153.247 128.056 153.817 126.885 154.346C127.808 153.456 128.761 152.609 129.731 151.787C132.623 149.312 135.658 147.026 138.76 144.828L138.428 145.159C139.91 142.835 141.45 140.553 143.045 138.309C145.165 134.79 147.969 130.44 150.773 126.958Z" fill="#3F1F13"/>
<path d="M143.852 132.625C141.35 137.197 138.421 141.505 135.386 145.734C132.603 147.885 129.769 149.974 126.881 151.979C122.596 154.66 118.234 157.227 113.646 159.375C115.221 157.919 116.866 156.577 118.524 155.251C121.84 152.613 125.324 150.222 128.674 147.638C130.365 146.371 132.082 145.146 133.812 143.934L133.568 144.173C136.809 140.159 140.15 136.228 143.852 132.625Z" fill="#3F1F13"/>
<path d="M101.977 56.659C107.349 56.508 112.689 57.1707 117.978 58.0264C121.315 60.0735 124.568 62.2715 127.645 64.7086C128.648 65.514 129.643 66.332 130.591 67.2296C129.361 66.7934 128.178 66.2774 127.007 65.7489C123.514 64.1465 120.148 62.2925 116.874 60.2958L117.327 60.4636C112.122 59.5827 106.938 58.5004 101.977 56.659Z" fill="#3F1F13"/>
<path d="M110.002 103.799L105.675 101.639H99.6636L93.7534 102.998L91.0166 106.261L91.747 110.439L95.6591 112.855C96.0873 113.187 96.5154 113.518 96.9478 113.85C96.5448 114.508 96.146 115.163 95.7431 115.821L97.3759 117.503H102.258L106.556 116.291C107.333 116.023 108.109 115.754 108.886 115.486C108.311 114.575 107.736 113.669 107.165 112.759C108.109 112.172 109.058 111.589 110.002 111.001L111.769 109.567C111.182 107.646 110.59 105.72 110.002 103.799Z" fill="#CBD1C8" stroke="#20222B" stroke-width="1.64168" stroke-miterlimit="10"/>
<path d="M98.3459 108.967C98.3878 108.816 98.6397 107.83 98.0227 106.907C97.5189 106.152 96.7634 105.93 96.5703 105.88C96.033 106.014 95.4957 106.148 94.9626 106.282L94.291 108.967L95.7812 110.494C95.9197 110.527 96.6501 110.691 97.3846 110.255C98.1066 109.819 98.3081 109.105 98.3459 108.967Z" fill="#20222B"/>
<path d="M104.298 108.061C104.256 107.91 104.004 106.924 104.621 106.002C105.125 105.247 105.881 105.024 106.074 104.974C106.611 105.108 107.148 105.242 107.681 105.377L108.353 108.061L106.863 109.588C106.724 109.622 105.994 109.785 105.259 109.349C104.537 108.913 104.336 108.2 104.298 108.061Z" fill="#20222B"/>
<path d="M102.845 110.553L101.939 109.177L100.978 108.615L100.654 110.083V111.412H101.75L102.845 110.553Z" fill="#20222B"/>
<path d="M104.239 116.643L103.693 113.606L105.406 116.173L104.239 116.643Z" fill="#20222B"/>
<path d="M99.0176 117.507L99.6472 114.529L100.277 117.507H99.0176Z" fill="#20222B"/>
<path d="M93.9424 104.206C95.6508 103.342 97.5061 102.822 99.3656 102.411C101.301 102.277 103.261 102.26 105.175 102.625C103.483 103.233 101.036 103.573 99.5881 103.648C97.7328 104.026 95.8397 104.303 93.9424 104.206Z" fill="#EEF2EB"/>
<path d="M88.5993 100.091C87.9025 101.358 87.2057 102.629 86.5131 103.896C86.1437 105.783 85.7744 107.671 85.4092 109.558C85.7828 111.375 86.1521 113.191 86.5257 115.003" stroke="#AEB5C1" stroke-width="3.28337" stroke-miterlimit="10"/>
<path d="M113.402 118.145C114.296 117.118 115.191 116.09 116.085 115.062C116.567 113.2 117.046 111.337 117.529 109.479C117.092 107.747 116.66 106.014 116.223 104.282" stroke="#767E8C" stroke-width="3.8306" stroke-miterlimit="10"/>
<path d="M97.0785 23.628L96.2012 26.6272L98.8624 30.8848L101.251 29.4125L101.188 25.9183L100.483 22.0172L97.7836 21.2286L97.0785 23.628Z" fill="#836130"/>
<path d="M37.2532 52.2048L38.7518 54.9481L43.6461 56.0723L44.2926 53.3457L41.7782 50.917L38.5209 48.6603L36.0527 50.011L37.2532 52.2048Z" fill="#836130"/>
<path d="M184.912 104.941L181.907 104.064L177.65 106.727L179.124 109.114L182.62 109.051L186.52 108.347L187.313 105.645L184.912 104.941Z" fill="#836130"/>
<path d="M88.226 98.1784C87.7559 99.0802 87.2858 99.9779 86.8156 100.88C86.6267 101.245 86.7107 101.752 87.0969 101.958C87.4579 102.151 87.97 102.067 88.1757 101.677C88.6458 100.775 89.1159 99.8772 89.586 98.9754C89.7749 98.6104 89.691 98.1029 89.3048 97.8973C88.9396 97.7044 88.4275 97.7882 88.226 98.1784Z" fill="#EEF2EB"/>
<path d="M85.7152 103.678C85.6186 103.954 85.5179 104.231 85.4214 104.512C85.3878 104.617 85.3836 104.722 85.4088 104.827C85.413 104.932 85.4465 105.028 85.5011 105.121C85.5515 105.213 85.6186 105.284 85.7026 105.343C85.7781 105.414 85.8663 105.46 85.9712 105.485C86.0426 105.494 86.1098 105.502 86.1811 105.515C86.3238 105.515 86.454 105.477 86.5799 105.406C86.6344 105.364 86.6848 105.322 86.7394 105.284C86.8359 105.188 86.9031 105.07 86.9409 104.936C87.0374 104.659 87.1382 104.382 87.2347 104.101C87.2683 103.996 87.2725 103.891 87.2473 103.787C87.2431 103.682 87.2095 103.585 87.1549 103.493C87.1046 103.401 87.0374 103.329 86.9535 103.271C86.8779 103.199 86.7898 103.153 86.6848 103.128C86.6135 103.12 86.5463 103.111 86.4749 103.099C86.3322 103.099 86.2021 103.136 86.0762 103.208C86.0216 103.25 85.9712 103.292 85.9167 103.329C85.8201 103.43 85.753 103.543 85.7152 103.678Z" fill="#EEF2EB"/>
</svg>
