<svg width="215" height="122" viewBox="0 0 215 122" fill="none" xmlns="http://www.w3.org/2000/svg">
<path d="M204.426 23.8075C206.036 24.3084 207.639 24.8093 209.249 25.304C210.577 24.058 211.899 22.8058 213.227 21.5597L213.349 16.1235L212.884 11.3897L210.558 6.48489L206.611 3.36975C205.766 2.92385 204.396 2.33748 202.609 2.09926C200.773 1.86105 199.255 2.09925 198.319 2.31915C197.437 3.20483 196.556 4.09051 195.675 4.97619" fill="#E9C04C"/>
<path d="M204.426 23.8075C206.036 24.3084 207.639 24.8093 209.249 25.304C210.577 24.058 211.899 22.8058 213.227 21.5597L213.349 16.1235L212.884 11.3897L210.558 6.48489L206.611 3.36975C205.766 2.92385 204.396 2.33748 202.609 2.09926C200.773 1.86105 199.255 2.09925 198.319 2.31915C197.437 3.20482 196.556 4.09051 195.675 4.97619" stroke="#332D20" stroke-width="2.26266" stroke-miterlimit="10"/>
<path d="M205.969 17.3392C208.049 16.6123 210.13 15.8855 212.217 15.1586C212.205 14.0042 212.193 12.8436 212.18 11.6892C211.434 10.04 210.687 8.39078 209.934 6.74769C208.68 5.93531 207.431 5.11682 206.177 4.30444C204.934 4.84807 203.692 5.3978 202.45 5.94143" fill="#FFDD7E"/>
<path d="M160.284 20.8144C171.294 16.0256 182.297 11.243 193.307 6.45419C193.699 6.28316 196.348 5.12872 197.285 4.72559L203.98 4.87829L208.374 8.25608L210.241 13.4908L210.112 19.1774L208.056 22.0849C207.352 22.4208 206.642 22.7568 205.938 23.0927C193.809 28.871 181.679 34.6554 169.556 40.4337" fill="#9598AA"/>
<path d="M160.284 20.8144C171.294 16.0256 182.297 11.243 193.307 6.45419C193.699 6.28316 196.348 5.12872 197.285 4.72559L203.98 4.87829L208.374 8.25608L210.241 13.4908L210.112 19.1774L208.056 22.0849C207.352 22.4208 206.642 22.7568 205.938 23.0927C193.809 28.871 181.679 34.6554 169.556 40.4337" stroke="#45454C" stroke-width="2.26266" stroke-miterlimit="10"/>
<path d="M157.659 47.831C159.764 48.4846 161.863 49.1382 163.968 49.7917C165.7 48.1609 167.432 46.53 169.17 44.893L169.335 37.7832L168.73 31.5895L165.688 25.176L160.529 21.1019C159.427 20.5216 157.634 19.7459 155.29 19.4404C152.885 19.1289 150.902 19.4404 149.678 19.7275C148.528 20.8881 147.371 22.0486 146.221 23.2092" fill="#E9C04C"/>
<path d="M157.659 47.831C159.764 48.4846 161.863 49.1382 163.968 49.7917C165.7 48.1609 167.432 46.53 169.17 44.893L169.335 37.7832L168.73 31.5895L165.688 25.176L160.529 21.1019C159.427 20.5216 157.634 19.7459 155.29 19.4404C152.885 19.1289 150.902 19.4404 149.678 19.7275C148.528 20.8881 147.371 22.0486 146.221 23.2092" stroke="#332D20" stroke-width="2.26266" stroke-miterlimit="10"/>
<path d="M160.205 42.5045C161.263 42.5289 162.322 42.5534 163.375 42.5839C165.002 41.6188 166.63 40.6537 168.258 39.6825C168.289 38.2838 168.319 36.885 168.356 35.4862C168.228 34.2891 168.093 33.0919 167.965 31.8947C166.961 29.6774 165.951 27.4602 164.947 25.2429C163.454 24.2717 161.961 23.3005 160.468 22.3354C159.599 22.7813 158.724 23.2272 157.854 23.6731" fill="#FFDD7E"/>
<path d="M99.9238 43.9092C114.324 37.6484 128.718 31.3875 143.118 25.1267C143.632 24.9068 147.096 23.3981 148.32 22.8667L157.077 23.0683L162.824 27.4844L165.266 34.3316L165.094 41.7652L162.408 45.5706C161.483 46.0104 160.559 46.4502 159.635 46.89C143.773 54.4518 127.91 62.0076 112.047 69.5694" fill="#9598AA"/>
<path d="M99.9238 43.9092C114.324 37.6484 128.718 31.3875 143.118 25.1267C143.632 24.9068 147.096 23.3981 148.32 22.8667L157.077 23.0683L162.824 27.4844L165.266 34.3316L165.094 41.7652L162.408 45.5706C161.483 46.0104 160.559 46.4502 159.635 46.89C143.773 54.4518 127.91 62.0076 112.047 69.5694" stroke="#45454C" stroke-width="2.26266" stroke-miterlimit="10"/>
<path d="M85.1016 44.6972C87.1028 43.3351 89.1039 41.973 91.1051 40.6047L100.107 44.6972L105.358 50.7198L108.736 56.3393L110.989 64.2004V70.5651C110.083 73.4909 109.171 76.4167 108.265 79.3486C106.423 80.2221 104.581 81.0955 102.733 81.9751C101.515 81.9751 100.297 81.9751 99.0855 81.9751" fill="#E9C04C"/>
<path d="M85.1016 44.6972C87.1028 43.3351 89.1039 41.973 91.1051 40.6047L100.107 44.6972L105.358 50.7198L108.736 56.3393L110.989 64.2004V70.5651C110.083 73.4909 109.171 76.4167 108.265 79.3486C106.423 80.2221 104.581 81.0955 102.733 81.9751C101.515 81.9751 100.297 81.9751 99.0855 81.9751" stroke="#332D20" stroke-width="2.26266" stroke-miterlimit="10"/>
<path d="M110.321 64.622C109.954 62.7896 109.44 60.8044 108.712 58.7155C108.473 58.0252 108.222 57.3595 107.959 56.7242C107.959 56.7242 106.79 54.7452 104.973 51.6667C103.553 49.9747 102.133 48.2767 100.713 46.5847C94.9789 49.0524 89.2385 51.5262 83.5042 53.9939C82.678 56.3272 81.8518 58.6605 81.0195 60.9938C83.137 65.6848 85.2483 70.3759 87.3658 75.0669C90.0708 77.7667 92.7697 80.4604 95.4746 83.1602C95.9826 79.1533 96.4844 75.1402 96.9923 71.1333C101.435 68.9649 105.878 66.7904 110.321 64.622Z" fill="#FFDD7E"/>
<path d="M12.2202 75.922C12.2202 75.922 88.4797 43.6038 88.8592 44.7277C89.2386 45.8516 94.4895 47.3481 94.4895 47.3481L101.619 52.5889L105.371 63.4492V75.922L103.118 79.9289L25.7451 119.247" fill="#5B391B"/>
<path d="M12.2202 75.922C12.2202 75.922 88.4797 43.6038 88.8592 44.7277C89.2386 45.8516 94.4895 47.3481 94.4895 47.3481L101.619 52.5889L105.371 63.4492V75.922L103.118 79.9289L25.7451 119.247" stroke="#332D20" stroke-width="2.26266" stroke-miterlimit="10"/>
<path d="M156.765 23.8563C153.963 23.728 151.16 23.5997 148.357 23.4714C132.347 30.3553 116.338 37.233 100.328 44.1169C101.46 45.2469 102.592 46.3769 103.731 47.513C121.411 39.6274 139.085 31.7418 156.765 23.8563Z" fill="#9BA4B2"/>
<path d="M196.942 5.73348C199.114 5.64186 201.293 5.55024 203.465 5.45862C190.651 11.4629 177.829 17.4672 165.014 23.4715C163.882 22.598 162.756 21.7246 161.624 20.8511C173.399 15.8119 185.173 10.7727 196.942 5.73348Z" fill="#9BA4B2"/>
<path d="M47.7034 94.0265C46.5406 90.0746 45.3717 86.1226 44.209 82.1768C41.4183 79.2265 38.6338 76.2763 35.8431 73.32C31.6816 71.9029 27.5262 70.4797 23.3647 69.0626C21.541 70.0827 19.7112 71.1088 17.8874 72.1289C16.4248 74.7859 14.9622 77.4369 13.4995 80.0939C13.6341 83.4106 13.7627 86.7334 13.8973 90.0501C16.2902 95.3581 18.683 100.666 21.0759 105.98C24.1358 109.034 27.1958 112.088 30.2496 115.136C32.7465 115.136 35.2495 115.136 37.7464 115.136L47.6973 109.963C47.734 107.44 47.7707 104.917 47.8074 102.395C47.7768 99.6032 47.7401 96.8118 47.7034 94.0265Z" fill="#E9C04C" stroke="#332D20" stroke-width="2.26266" stroke-miterlimit="10"/>
<path d="M46.6752 93.0068C45.6471 89.5191 44.619 86.0253 43.5847 82.5375C41.1184 79.9294 38.6582 77.3212 36.1919 74.713C30.5555 77.3029 24.9191 79.8988 19.2889 82.4886C18.4627 84.822 17.6365 87.1553 16.8042 89.4886C18.9217 94.1796 21.033 98.8706 23.1505 103.562C25.8555 106.261 28.5543 108.955 31.2593 111.655C32.5078 109.761 33.7623 107.874 35.0108 105.981C42.6728 102.34 46.767 100.392 46.767 100.392C46.7731 100.392 46.7364 97.8017 46.6752 93.0068Z" fill="#FFDD7E"/>
<path d="M42.3055 96.2439C40.4635 92.6218 38.6214 89.0058 36.7793 85.3837C34.9005 82.5129 33.0278 79.642 31.149 76.7712C27.2385 75.4335 23.3278 74.102 19.4173 72.7643C15.2986 74.78 11.1799 76.7895 7.06738 78.8052C8.21792 83.368 9.36846 87.9308 10.519 92.4996C12.7711 97.49 15.0232 102.486 17.2692 107.477C20.1455 110.348 23.0219 113.218 25.8982 116.089C25.8492 117.14 25.8003 118.197 25.7452 119.247C31.2653 116.572 36.7854 113.896 42.2994 111.221C42.3361 108.851 42.3667 106.475 42.4034 104.105C42.3728 101.485 42.3361 98.8643 42.3055 96.2439Z" fill="#9598AA" stroke="#45454C" stroke-width="2.26266" stroke-miterlimit="10"/>
<path d="M35.1025 99.4018C33.2604 95.7796 31.4184 92.1636 29.5763 88.5415C27.6975 85.6707 25.8248 82.7999 23.946 79.929C20.0354 78.5914 16.1248 77.2598 12.2143 75.9221C10.4946 76.8811 8.78098 77.8462 7.0613 78.8052C5.68433 81.3034 4.30737 83.7955 2.93652 86.2937C3.05892 89.415 3.18747 92.5362 3.30986 95.6575C5.56197 100.648 7.81406 105.644 10.06 110.635C12.9364 113.505 15.8127 116.376 18.689 119.247C21.0391 119.247 23.3891 119.247 25.7391 119.247L35.0964 114.379C35.1331 112.009 35.1637 109.633 35.2004 107.263C35.1698 104.643 35.1392 102.022 35.1025 99.4018Z" fill="#283435" stroke="#12282B" stroke-width="0.754221" stroke-miterlimit="10"/>
<path d="M21.3634 113.628C18.7809 110.384 16.1921 107.135 13.6096 103.891C12.0245 98.8154 10.4395 93.7395 8.85445 88.6637C9.97439 84.4185 11.0943 80.1673 12.2142 75.9221C10.4946 76.8811 8.78098 77.8462 7.0613 78.8052C5.68433 81.3034 4.30737 83.7955 2.93652 86.2937C3.05892 89.415 3.18747 92.5362 3.30986 95.6575C5.56197 100.648 7.81406 105.644 10.06 110.635C12.9364 113.505 15.8127 116.376 18.689 119.247C21.0391 119.247 23.3891 119.247 25.7391 119.247L35.0964 114.379C30.5249 114.128 25.9411 113.878 21.3634 113.628Z" fill="#51535C" stroke="#25262B" stroke-width="2.26266" stroke-miterlimit="10"/>
<path d="M2 86.7397C2.26927 89.9403 2.53855 93.1349 2.80783 96.3355C5.34757 101.363 7.88119 106.383 10.4209 111.41C13.0892 113.848 15.7574 116.285 18.4257 118.728C21.2531 119.003 24.0805 119.272 26.9078 119.546L36.2895 114.122C36.7608 112.357 37.2198 109.889 37.1525 106.933C37.0729 103.439 36.2896 100.617 35.6102 98.7421C33.8967 95.0101 32.1892 91.278 30.4757 87.5459C28.0767 84.7789 25.6777 82.0181 23.2787 79.2511C21.8895 78.3165 19.717 77.0888 16.8345 76.3375C14.5457 75.7389 12.5323 75.629 11.0513 75.6656C9.33158 76.7284 7.6119 77.7912 5.89222 78.8602C4.60093 81.4928 3.29741 84.1193 2 86.7397ZM6.11253 92.7501C5.92281 91.2108 5.89222 89.8242 5.92894 88.6332C5.9167 87.9613 5.9718 87.0389 6.25331 86.0006C6.6511 84.5713 7.31201 83.5268 7.78936 82.8915C9.4356 82.0547 11.0819 81.2118 12.7342 80.375C15.6595 81.3156 18.5848 82.2563 21.5162 83.1969C23.138 85.4569 24.7597 87.717 26.3815 89.977C27.1648 91.0947 28.04 92.5302 28.8172 94.2771C29.6312 96.1095 30.1269 97.7892 30.4267 99.1697C31.0755 102.102 31.6324 103.513 31.6079 104.942C31.5895 106.047 31.3998 107.855 30.3411 110.042C28.3154 111.215 26.2836 112.382 24.2579 113.554C22.3975 113.677 20.5432 113.805 18.6827 113.927C16.7305 112.198 14.7721 110.476 12.8199 108.747C11.7306 106.933 10.6229 104.917 9.55188 102.706C8.48703 100.513 7.58741 98.4184 6.83467 96.4516C6.54703 95.3949 6.28388 94.1488 6.11253 92.7501Z" fill="#C1C7D1" stroke="#342E20" stroke-width="2.26266" stroke-miterlimit="10"/>
<path d="M47.7401 91.2962C46.8038 88.1749 45.8735 85.0598 44.9372 81.9385C42.9911 79.8618 41.0511 77.7789 39.105 75.7021C58.3519 67.2485 77.605 58.8009 96.852 50.3473C98.284 51.3185 99.7221 52.2897 101.154 53.2548C102.25 56.828 103.345 60.4013 104.441 63.9745C74.4716 78.4141 58.3642 86.1715 58.3642 86.1715C58.3642 86.1715 51.363 91.8276 51.4732 97.9174C51.5221 100.837 52.7584 101.82 51.822 103.506C50.9652 105.046 48.6458 106.389 48.6458 106.389C48.6764 104.471 48.652 102.462 48.554 100.361C48.4194 97.1294 48.1256 94.0937 47.7401 91.2962Z" fill="#3F1F13"/>
<path d="M111.331 62.8568C110.603 60.4196 109.875 57.9825 109.147 55.5453C107.867 53.4503 106.582 51.3552 105.303 49.2662C122.971 41.1546 140.633 33.043 158.301 24.9314C159.623 25.9453 160.945 26.9593 162.267 27.9794C163.662 31.9435 164.556 34.4906 164.556 34.4906C164.55 34.6739 164.531 35.0403 164.513 35.4985C164.354 38.7236 164.048 41.6249 164.048 41.6249C164.048 41.6249 163.271 42.7427 161.826 44.8134C162.053 43.5429 161.563 42.2846 160.578 41.6249C159.568 40.953 158.46 41.1729 158.234 41.2218C149.868 45.0821 141.502 48.9363 133.136 52.7967C125.866 56.15 118.596 59.5034 111.331 62.8568Z" fill="#767E8C"/>
<path d="M169.874 33.8615C169.776 32.9942 169.678 32.1207 169.58 31.2533C168.35 28.8589 167.114 26.4646 165.884 24.0702C178.937 18.3102 191.985 12.5502 205.039 6.79028C205.975 7.43164 206.911 8.07299 207.842 8.71434C208.374 10.3513 208.906 11.9944 209.439 13.6314C209.212 17.0092 209.09 18.7927 209.09 18.7927C209.09 18.7927 208.6 19.8495 207.842 21.4925C207.603 19.5807 206.899 18.805 206.336 18.4385C205.057 17.6078 192.64 23.4105 193.943 22.8424C193.943 22.8424 185.688 26.6234 169.874 33.8615Z" fill="#767E8C"/>
<path d="M46.8403 75.1766C44.9432 76.105 42.9359 75.4576 42.2994 74.181C41.7058 72.9899 42.4769 71.6095 42.5626 71.469C50.9039 67.5231 85.1629 51.4038 90.4199 50.9151C91.2032 50.8418 93.3023 50.6158 93.9388 51.7336C94.3733 52.4971 94.2754 53.5111 93.7307 54.3296C78.1006 61.2806 62.4705 68.2317 46.8403 75.1766Z" fill="#836130"/>
<path d="M106.827 51.7522C106.429 51.123 105.976 50.4695 105.469 49.7976C104.759 48.8569 104.043 48.0323 103.363 47.3116C121.362 39.6398 139.354 31.9741 157.353 24.3022C158.723 25.3223 160.094 26.3363 161.465 27.3563C143.246 35.4862 125.034 43.6223 106.827 51.7522Z" fill="#AEB5C1"/>
<path d="M167.004 26.2566C166.704 25.6702 166.404 25.0839 166.11 24.4975C165.608 24.0821 165.113 23.6668 164.611 23.2453C177.769 17.4976 190.932 11.7559 204.09 6.00818C205.063 6.77169 206.036 7.53521 207.003 8.29262C193.674 14.2847 180.339 20.2707 167.004 26.2566Z" fill="#AEB5C1"/>
<path d="M41.5712 96.525C39.9188 97.484 38.2603 98.4429 36.608 99.4019C31.8222 88.1752 31.5775 87.5888 31.5775 87.5888C31.5775 87.5888 29.4477 85.1028 25.4331 80.4179C27.2629 79.4955 29.0867 78.5732 30.9165 77.6448C32.526 80.1613 34.1356 82.6779 35.739 85.1944C35.739 85.1944 37.63 88.8593 41.5712 96.525Z" fill="#767E8C"/>
<path d="M32.6362 68.36C40.2861 64.1943 48.6029 60.6088 56.6567 57.2677C64.7594 54.0304 73.2048 50.793 81.6012 48.4353C73.9514 52.6072 65.6345 56.1865 57.5808 59.5277C49.4781 62.765 41.0327 66.0023 32.6362 68.36Z" fill="#836130"/>
<path d="M48.6396 94.1122C54.6493 91.2414 60.6591 88.3767 66.6626 85.5059C60.7141 90.3679 54.7718 95.23 48.8233 100.086C48.7621 98.1008 48.7008 96.1035 48.6396 94.1122Z" fill="#3F1F13"/>
<path d="M48.6396 101.405C52.5074 99.5605 56.3752 97.7098 60.249 95.8651C56.3874 99.3773 52.5197 102.883 48.658 106.396C48.6458 104.728 48.6396 103.067 48.6396 101.405Z" fill="#3F1F13"/>
<path d="M104.563 72.2084C96.2706 75.2564 87.9721 78.3043 79.6797 81.3523C87.9966 77.3637 100.726 70.8158 100.328 67.945C100.169 66.7783 99.5141 66.3507 99.5141 66.3507C98.18 65.4895 96.0564 67.438 95.6097 66.9738C94.9793 66.3141 97.415 60.6152 100.989 61.0122C103.107 61.2443 104.337 63.4738 104.502 63.7914C104.52 66.5951 104.539 69.3987 104.563 72.2084Z" fill="#3F1F13"/>
<path d="M104.495 75.6962C99.4034 77.5653 94.3056 79.4405 89.2139 81.3095C94.2933 77.7119 99.3789 74.1203 104.458 70.5226C104.471 72.2512 104.483 73.9737 104.495 75.6962Z" fill="#3F1F13"/>
<path d="M15.721 94.7045C16.7124 98.9252 19.7968 101.124 18.9339 102.248C18.5423 102.761 17.5815 102.712 17.0368 102.578C15.005 102.077 14.2156 99.2428 12.7162 93.5806C11.6881 89.708 11.7309 88.5475 12.4347 87.7718C13.0711 87.0693 14.289 86.6357 15.0479 87.0632C16.4187 87.8573 14.7786 90.7037 15.721 94.7045Z" fill="#767E8C"/>
</svg>
