<svg width="164" height="141" viewBox="0 0 164 141" fill="none" xmlns="http://www.w3.org/2000/svg">
<path d="M48.8906 30.9161C48.9317 30.9494 48.9788 30.988 49.0322 31.0313C49.2524 31.2099 49.5761 31.4725 49.9883 31.8077C50.8125 32.478 51.9918 33.4393 53.4121 34.6026C56.2534 36.9298 60.0581 40.0656 63.9121 43.2989C67.7673 46.5333 71.6663 49.8607 74.6992 52.5743C76.2166 53.932 77.5096 55.1285 78.4688 56.0792C78.9488 56.555 79.3367 56.9615 79.625 57.2901C79.653 57.322 79.6788 57.3534 79.7041 57.3829C76.1341 60.7414 63.2366 71.7247 44.2812 71.4639L43.3135 71.4405C39.7273 71.3193 34.9081 70.3841 30.9395 69.462C28.9653 69.0033 27.2191 68.5523 25.9668 68.2159C25.3411 68.0478 24.8391 67.9087 24.4941 67.8116C24.3218 67.7631 24.1884 67.7251 24.0986 67.6993C24.0974 67.6989 24.096 67.6977 24.0947 67.6973L13.5361 60.8653L5.18457 53.1319C5.16803 53.1008 5.14933 53.0647 5.12793 53.0245C5.04314 52.865 4.92119 52.6361 4.77441 52.3604C4.48092 51.8092 4.08655 51.0685 3.68164 50.3116C2.95837 48.9596 2.1689 47.499 1.89355 47.0216L1.04785 44.5675C1.60956 43.7171 2.17169 42.867 2.7334 42.0167C3.33526 41.5014 5.22513 39.8089 6.99609 38.2149C7.95872 37.3485 8.89689 36.5032 9.59375 35.8741C9.94215 35.5596 10.2305 35.2991 10.4316 35.1173C10.5008 35.0548 10.559 35.001 10.6064 34.9581L20.1514 31.5714L35.7119 28.7706L48.8906 30.9161Z" fill="#80D933" stroke="#2C5B40" stroke-width="1.89582"/>
<mask id="path-2-inside-1_313_1884" fill="white">
<path d="M108.47 104.621C108.461 104.63 104.641 116.281 104.641 116.281L99.2148 126.708L87.8398 136.819C87.8398 136.819 82.5087 139.305 79.5125 140.611C78.4339 139.499 73.6212 134.923 73.6212 134.923L68.2497 124.496L64.458 110.91L65.4059 95.7429L66.9858 84.368C66.9858 84.368 79.4281 69.8706 88.043 64.2646C92.1749 61.5771 97.7701 62.6797 100.576 66.7369C106.973 75.9948 109.326 93.5311 109.326 93.5311C109.326 93.5311 108.47 104.621 108.461 104.63"/>
</mask>
<path d="M108.47 104.621C108.461 104.63 104.641 116.281 104.641 116.281L99.2148 126.708L87.8398 136.819C87.8398 136.819 82.5087 139.305 79.5125 140.611C78.4339 139.499 73.6212 134.923 73.6212 134.923L68.2497 124.496L64.458 110.91L65.4059 95.7429L66.9858 84.368C66.9858 84.368 79.4281 69.8706 88.043 64.2646C92.1749 61.5771 97.7701 62.6797 100.576 66.7369C106.973 75.9948 109.326 93.5311 109.326 93.5311C109.326 93.5311 108.47 104.621 108.461 104.63" fill="#F5F5F5"/>
<path d="M65.4016 110.999L67.9294 84.4579L66.0421 84.2781L63.5144 110.82L65.4016 110.999ZM108.397 93.3399L103.713 116.09L105.57 116.472L110.254 93.7223L108.397 93.3399ZM79.5125 140.611L78.1519 141.931L79.0662 142.873L80.2697 142.349L79.5125 140.611ZM65.4059 95.7429L63.5281 95.4821L63.5183 95.5531L63.5138 95.6247L65.4059 95.7429ZM88.043 64.2646L87.0093 62.6754L87.009 62.6756L88.043 64.2646ZM100.576 66.7369L102.136 65.6592L102.136 65.6584L100.576 66.7369ZM73.6212 134.923L71.9359 135.791L72.0826 136.076L72.3149 136.297L73.6212 134.923ZM68.2497 124.496L66.4237 125.006L66.4757 125.192L66.5644 125.364L68.2497 124.496ZM64.458 110.91L62.5659 110.791L62.5459 111.111L62.632 111.419L64.458 110.91ZM66.9858 84.368L65.5471 83.1333L65.1846 83.5557L65.108 84.1072L66.9858 84.368ZM109.326 93.5311L111.216 93.677L111.231 93.4774L111.205 93.279L109.326 93.5311ZM104.641 116.281L106.323 117.156L106.394 117.019L106.443 116.872L104.641 116.281ZM99.2148 126.708L100.474 128.125L100.735 127.893L100.897 127.583L99.2148 126.708ZM87.8398 136.819L88.6411 138.537L88.8923 138.42L89.0994 138.236L87.8398 136.819ZM89.0767 65.8539C92.3479 63.7261 96.7942 64.6014 99.0171 67.8153L102.136 65.6584C98.746 60.7579 92.0019 59.428 87.0093 62.6754L89.0767 65.8539ZM80.873 139.29C80.3039 138.704 78.8003 137.253 77.4745 135.982C76.8039 135.339 76.1673 134.731 75.6985 134.284C75.464 134.06 75.2714 133.877 75.1374 133.749C75.0703 133.685 75.018 133.635 74.9823 133.601C74.9645 133.584 74.9508 133.571 74.9416 133.563C74.937 133.558 74.9335 133.555 74.9312 133.553C74.93 133.552 74.9291 133.551 74.9285 133.55C74.9282 133.55 74.928 133.55 74.9278 133.55C74.9277 133.55 74.9277 133.549 74.9276 133.549C74.9276 133.549 74.9276 133.549 73.6212 134.923C72.3149 136.297 72.3149 136.297 72.3149 136.297C72.315 136.297 72.315 136.297 72.3151 136.297C72.3152 136.298 72.3154 136.298 72.3157 136.298C72.3163 136.299 72.3171 136.299 72.3183 136.3C72.3206 136.303 72.324 136.306 72.3285 136.31C72.3376 136.319 72.3511 136.332 72.3688 136.348C72.4041 136.382 72.4562 136.432 72.5229 136.495C72.6562 136.622 72.8481 136.805 73.0816 137.028C73.5489 137.473 74.1829 138.079 74.8503 138.719C76.2004 140.013 77.6425 141.406 78.1519 141.931L80.873 139.29ZM75.3066 134.055L69.9351 123.628L66.5644 125.364L71.9359 135.791L75.3066 134.055ZM70.0758 123.987L66.2841 110.4L62.632 111.419L66.4237 125.006L70.0758 123.987ZM66.3501 111.028L67.2981 95.8612L63.5138 95.6247L62.5659 110.791L66.3501 111.028ZM67.2837 96.0037L68.8636 84.6288L65.108 84.1072L63.5281 95.4821L67.2837 96.0037ZM66.9858 84.368C68.4244 85.6027 68.4244 85.6027 68.4244 85.6027C68.4244 85.6027 68.4245 85.6026 68.4246 85.6024C68.4249 85.6022 68.4253 85.6016 68.4259 85.6009C68.4272 85.5994 68.4292 85.5971 68.432 85.5939C68.4375 85.5875 68.446 85.5776 68.4574 85.5644C68.4802 85.538 68.5146 85.4981 68.5601 85.4456C68.6512 85.3405 68.7868 85.1847 68.9629 84.9837C69.3152 84.5817 69.8295 83.9996 70.4741 83.2829C71.7639 81.8488 73.5722 79.8791 75.6459 77.7373C79.8306 73.415 84.9659 68.5289 89.0771 65.8537L87.009 62.6756C82.5053 65.6064 77.1119 70.772 72.9218 75.0999C70.808 77.2831 68.9673 79.2882 67.6549 80.7475C66.9984 81.4775 66.4733 82.0717 66.1115 82.4845C65.9306 82.6909 65.7905 82.852 65.6951 82.962C65.6474 83.017 65.6109 83.0593 65.5861 83.088C65.5737 83.1024 65.5642 83.1135 65.5577 83.121C65.5544 83.1248 65.5519 83.1277 65.5501 83.1298C65.5493 83.1308 65.5486 83.1316 65.5481 83.1322C65.5478 83.1325 65.5476 83.1328 65.5475 83.1329C65.5473 83.1331 65.5471 83.1333 66.9858 84.368ZM99.0166 67.8146C102.011 72.1481 104.133 78.5661 105.511 84.0663C106.192 86.7858 106.677 89.2237 106.992 90.9808C107.149 91.8586 107.264 92.5647 107.339 93.0488C107.376 93.2908 107.403 93.4772 107.421 93.6018C107.43 93.664 107.437 93.7108 107.441 93.7413C107.443 93.7566 107.445 93.7677 107.446 93.7748C107.446 93.7783 107.447 93.7807 107.447 93.7822C107.447 93.7829 107.447 93.7833 107.447 93.7835C107.447 93.7836 107.447 93.7835 107.447 93.7835C107.447 93.7834 107.447 93.7832 109.326 93.5311C111.205 93.279 111.205 93.2787 111.205 93.2783C111.205 93.2781 111.205 93.2776 111.205 93.2772C111.204 93.2763 111.204 93.2751 111.204 93.2737C111.204 93.2709 111.203 93.267 111.203 93.262C111.201 93.2521 111.199 93.238 111.197 93.2198C111.192 93.1834 111.184 93.1305 111.174 93.0621C111.155 92.9252 111.125 92.7258 111.086 92.4703C111.007 91.9592 110.888 91.2229 110.724 90.312C110.398 88.4918 109.896 85.967 109.189 83.1451C107.791 77.5627 105.539 70.5835 102.136 65.6592L99.0166 67.8146ZM109.326 93.5311C107.436 93.3852 107.436 93.3853 107.436 93.3854C107.436 93.3855 107.436 93.3856 107.436 93.3858C107.436 93.3861 107.436 93.3866 107.435 93.3873C107.435 93.3886 107.435 93.3906 107.435 93.3933C107.435 93.3986 107.434 93.4066 107.433 93.417C107.432 93.438 107.429 93.4691 107.426 93.5098C107.42 93.591 107.411 93.7101 107.399 93.8617C107.375 94.1649 107.342 94.5981 107.302 95.118C107.221 96.1578 107.114 97.5442 107.007 98.9308C106.899 100.317 106.791 101.704 106.71 102.744C106.669 103.264 106.635 103.697 106.611 104C106.599 104.152 106.59 104.269 106.583 104.348C106.58 104.388 106.577 104.415 106.576 104.431C106.575 104.44 106.575 104.44 106.576 104.434C106.576 104.434 106.577 104.42 106.579 104.401C106.58 104.395 106.584 104.366 106.59 104.329C106.593 104.307 106.605 104.245 106.614 104.205C106.638 104.112 106.851 103.629 107.12 103.29L109.802 105.97C110.071 105.631 110.285 105.147 110.309 105.055C110.318 105.014 110.33 104.952 110.333 104.929C110.339 104.892 110.343 104.862 110.344 104.855C110.346 104.833 110.348 104.815 110.349 104.809C110.35 104.793 110.352 104.776 110.353 104.764C110.355 104.737 110.358 104.701 110.362 104.66C110.369 104.575 110.379 104.454 110.391 104.301C110.415 103.996 110.449 103.561 110.49 103.04C110.572 101.998 110.679 100.611 110.787 99.2239C110.894 97.8369 111.002 96.4501 111.082 95.4102C111.122 94.8902 111.156 94.457 111.179 94.1537C111.191 94.002 111.2 93.8829 111.206 93.8016C111.21 93.761 111.212 93.7298 111.214 93.7088C111.214 93.6984 111.215 93.6904 111.215 93.6851C111.216 93.6824 111.216 93.6804 111.216 93.679C111.216 93.6784 111.216 93.6779 111.216 93.6775C111.216 93.6774 111.216 93.6772 111.216 93.6771C111.216 93.6771 111.216 93.677 109.326 93.5311ZM107.129 103.281C106.937 103.506 106.756 103.811 106.731 103.866C106.721 103.889 106.706 103.926 106.701 103.94C106.692 103.962 106.686 103.98 106.684 103.985C106.679 103.998 106.675 104.01 106.674 104.015C106.669 104.027 106.665 104.04 106.661 104.053C106.652 104.078 106.64 104.114 106.626 104.157C106.597 104.244 106.555 104.371 106.502 104.531C106.397 104.852 106.247 105.308 106.067 105.855C105.707 106.949 105.229 108.406 104.751 109.863C104.273 111.32 103.795 112.777 103.437 113.87C103.258 114.416 103.108 114.871 103.004 115.19C102.952 115.349 102.911 115.474 102.883 115.559C102.869 115.602 102.858 115.635 102.851 115.657C102.847 115.668 102.844 115.676 102.842 115.682C102.841 115.685 102.841 115.687 102.84 115.688C102.84 115.689 102.84 115.689 102.84 115.69C102.84 115.69 102.84 115.69 102.84 115.69C102.84 115.69 102.84 115.69 104.641 116.281C106.443 116.872 106.443 116.872 106.443 116.872C106.443 116.871 106.443 116.871 106.443 116.871C106.443 116.871 106.443 116.87 106.443 116.87C106.444 116.868 106.444 116.866 106.445 116.863C106.447 116.858 106.45 116.849 106.454 116.838C106.461 116.816 106.471 116.784 106.485 116.741C106.513 116.656 106.554 116.53 106.607 116.371C106.711 116.053 106.86 115.597 107.04 115.051C107.398 113.959 107.876 112.502 108.354 111.045C108.832 109.589 109.31 108.132 109.669 107.039C109.849 106.492 109.998 106.037 110.103 105.718C110.156 105.559 110.197 105.435 110.225 105.35C110.239 105.308 110.249 105.278 110.256 105.259C110.259 105.248 110.26 105.245 110.26 105.246C110.26 105.246 110.259 105.248 110.258 105.25C110.258 105.252 110.256 105.256 110.254 105.263C110.253 105.266 110.247 105.283 110.238 105.304C110.233 105.317 110.219 105.354 110.209 105.377C110.184 105.432 110.003 105.737 109.811 105.962L107.129 103.281ZM102.959 115.406L97.5331 125.833L100.897 127.583L106.323 117.156L102.959 115.406ZM97.9553 125.291L86.5803 135.402L89.0994 138.236L100.474 128.125L97.9553 125.291ZM87.8398 136.819C87.0385 135.101 87.0385 135.101 87.0385 135.101C87.0385 135.101 87.0384 135.101 87.0383 135.101C87.0382 135.101 87.038 135.101 87.0377 135.101C87.0371 135.102 87.0361 135.102 87.0349 135.103C87.0324 135.104 87.0286 135.106 87.0236 135.108C87.0135 135.113 86.9985 135.12 86.9787 135.129C86.9392 135.147 86.8808 135.174 86.8053 135.21C86.6543 135.28 86.435 135.382 86.1625 135.508C85.6173 135.761 84.8593 136.112 84.008 136.503C82.3014 137.287 80.2345 138.228 78.7553 138.873L80.2697 142.349C81.7867 141.688 83.8836 140.733 85.5915 139.948C86.4476 139.555 87.2096 139.202 87.7576 138.948C88.0317 138.821 88.2523 138.718 88.4045 138.647C88.4806 138.612 88.5397 138.585 88.5797 138.566C88.5998 138.557 88.615 138.549 88.6253 138.545C88.6305 138.542 88.6344 138.54 88.6371 138.539C88.6384 138.539 88.6394 138.538 88.6401 138.538C88.6404 138.538 88.6407 138.537 88.6408 138.537C88.6409 138.537 88.641 138.537 88.641 138.537C88.6411 138.537 88.6411 138.537 87.8398 136.819Z" fill="#82E0E0" mask="url(#path-2-inside-1_313_1884)"/>
<mask id="path-4-inside-2_313_1884" fill="white">
<path d="M64.6826 98.9363C64.6711 98.9321 52.4991 100.41 52.4991 100.41L40.7551 99.9142L26.7762 93.8966C26.7762 93.8966 22.2649 90.1216 19.8126 87.961C20.3623 86.513 22.4672 80.2146 22.4672 80.2146L29.6349 70.9302L40.3341 61.7376L54.473 56.1683L65.4454 52.7784C65.4454 52.7784 83.8496 57.9038 92.5783 63.3309C96.7638 65.9342 98.1364 71.4694 95.6509 75.7306C89.9767 85.4482 75.0903 95.0113 75.0903 95.0113C75.0903 95.0113 64.6826 98.9363 64.6711 98.9321"/>
</mask>
<path d="M64.6826 98.9363C64.6711 98.9321 52.4991 100.41 52.4991 100.41L40.7551 99.9142L26.7762 93.8966C26.7762 93.8966 22.2649 90.1216 19.8126 87.961C20.3623 86.513 22.4672 80.2146 22.4672 80.2146L29.6349 70.9302L40.3341 61.7376L54.473 56.1683L65.4454 52.7784C65.4454 52.7784 83.8496 57.9038 92.5783 63.3309C96.7638 65.9342 98.1364 71.4694 95.6509 75.7306C89.9767 85.4482 75.0903 95.0113 75.0903 95.0113C75.0903 95.0113 64.6826 98.9363 64.6711 98.9321" fill="#F5F5F5"/>
<path d="M40.6527 62.6304L65.7639 53.6712L65.1268 51.8856L40.0156 60.8448L40.6527 62.6304ZM74.87 94.0894L52.2788 99.4879L52.7195 101.332L75.3106 95.9333L74.87 94.0894ZM19.8126 87.961L18.0402 87.2883L17.5743 88.5156L18.5593 89.3835L19.8126 87.961ZM54.473 56.1683L53.9134 54.357L53.8449 54.3781L53.7782 54.4044L54.473 56.1683ZM92.5783 63.3309L93.5797 61.7211L93.5794 61.7209L92.5783 63.3309ZM95.6509 75.7306L97.2881 76.6866L97.2885 76.6858L95.6509 75.7306ZM22.4672 80.2146L20.9666 79.0561L20.7707 79.3097L20.6692 79.6137L22.4672 80.2146ZM29.6349 70.9302L28.3995 69.4923L28.2526 69.6184L28.1343 69.7717L29.6349 70.9302ZM40.3341 61.7376L39.6393 59.9737L39.3415 60.091L39.0986 60.2996L40.3341 61.7376ZM65.4454 52.7784L65.954 50.9521L65.4177 50.8027L64.8858 50.9671L65.4454 52.7784ZM75.0903 95.0113L75.7592 96.7852L75.9465 96.7146L76.1149 96.6064L75.0903 95.0113ZM52.4991 100.41L52.4192 102.304L52.5739 102.311L52.7276 102.292L52.4991 100.41ZM40.7551 99.9142L40.0055 101.655L40.3263 101.794L40.6752 101.808L40.7551 99.9142ZM26.7762 93.8966L25.5595 95.3505L25.772 95.5283L26.0265 95.6379L26.7762 93.8966ZM91.577 64.9407C94.8906 67.0018 95.9822 71.3999 94.0133 74.7755L97.2885 76.6858C100.291 71.5389 98.6369 64.8667 93.5797 61.7211L91.577 64.9407ZM21.585 88.6338C21.8751 87.8697 22.552 85.893 23.1416 84.1533C23.4397 83.2734 23.7206 82.4391 23.9269 81.825C24.03 81.5179 24.1146 81.2657 24.1734 81.0902C24.2028 81.0024 24.2257 80.9338 24.2413 80.8872C24.2491 80.8638 24.2551 80.846 24.2591 80.8339C24.2612 80.8279 24.2627 80.8233 24.2637 80.8202C24.2642 80.8187 24.2646 80.8175 24.2649 80.8167C24.265 80.8163 24.2651 80.816 24.2652 80.8158C24.2652 80.8157 24.2652 80.8157 24.2653 80.8156C24.2653 80.8156 24.2653 80.8155 22.4672 80.2146C20.6692 79.6137 20.6691 79.6137 20.6691 79.6137C20.6691 79.6138 20.6691 79.6138 20.6691 79.6139C20.669 79.6141 20.6689 79.6144 20.6688 79.6148C20.6685 79.6155 20.6682 79.6166 20.6677 79.6181C20.6667 79.6211 20.6652 79.6256 20.6632 79.6315C20.6592 79.6434 20.6533 79.6611 20.6456 79.6842C20.6301 79.7305 20.6073 79.7986 20.578 79.8859C20.5195 80.0606 20.4353 80.3117 20.3326 80.6177C20.127 81.2298 19.8473 82.0606 19.5505 82.9363C18.9502 84.7078 18.2998 86.6043 18.0402 87.2883L21.585 88.6338ZM23.9679 81.3731L31.1356 72.0888L28.1343 69.7717L20.9666 79.0561L23.9679 81.3731ZM30.8704 72.3682L41.5696 63.1756L39.0986 60.2996L28.3995 69.4923L30.8704 72.3682ZM41.0289 63.5015L55.1678 57.9322L53.7782 54.4044L39.6393 59.9737L41.0289 63.5015ZM55.0326 57.9797L66.005 54.5897L64.8858 50.9671L53.9134 54.357L55.0326 57.9797ZM65.4454 52.7784C64.9368 54.6047 64.9367 54.6047 64.9367 54.6047C64.9368 54.6047 64.9369 54.6048 64.9371 54.6048C64.9374 54.6049 64.9381 54.6051 64.939 54.6054C64.9409 54.6059 64.9439 54.6067 64.9479 54.6078C64.9561 54.6101 64.9686 54.6136 64.9854 54.6184C65.019 54.6278 65.0697 54.6421 65.1365 54.6611C65.2703 54.699 65.469 54.7558 65.7256 54.8302C66.239 54.9789 66.9842 55.198 67.9066 55.4781C69.7522 56.0385 72.3026 56.8416 75.1214 57.812C80.8099 59.7705 87.4118 62.351 91.5773 64.9409L93.5794 61.7209C89.0161 58.8837 82.0515 56.1879 76.3557 54.2269C73.4824 53.2377 70.8862 52.4202 69.0082 51.85C68.0688 51.5648 67.308 51.341 66.7808 51.1883C66.5172 51.1119 66.3119 51.0533 66.1718 51.0135C66.1018 50.9936 66.0481 50.9785 66.0115 50.9682C65.9932 50.963 65.9792 50.9591 65.9695 50.9564C65.9647 50.9551 65.961 50.954 65.9584 50.9533C65.9571 50.953 65.9561 50.9527 65.9554 50.9525C65.955 50.9524 65.9547 50.9523 65.9545 50.9522C65.9542 50.9521 65.954 50.9521 65.4454 52.7784ZM94.0138 74.7747C91.3577 79.3234 86.4442 83.9658 82.0462 87.5446C79.8717 89.314 77.8692 90.7869 76.4112 91.8167C75.6827 92.3313 75.0917 92.7341 74.6849 93.007C74.4816 93.1434 74.3243 93.2473 74.2191 93.3163C74.1665 93.3507 74.127 93.3765 74.1011 93.3933C74.0882 93.4017 74.0787 93.4078 74.0728 93.4116C74.0698 93.4136 74.0677 93.4149 74.0665 93.4157C74.0659 93.4161 74.0655 93.4163 74.0654 93.4164C74.0653 93.4165 74.0654 93.4164 74.0653 93.4165C74.0654 93.4164 74.0656 93.4163 75.0903 95.0113C76.1149 96.6064 76.1152 96.6062 76.1156 96.606C76.1158 96.6059 76.1162 96.6056 76.1165 96.6054C76.1173 96.6049 76.1183 96.6042 76.1195 96.6035C76.1219 96.6019 76.1252 96.5998 76.1294 96.5971C76.1378 96.5916 76.1498 96.5839 76.1652 96.5739C76.196 96.5539 76.2407 96.5248 76.2985 96.4869C76.4142 96.411 76.5823 96.2999 76.7971 96.1559C77.2265 95.8678 77.8429 95.4476 78.5987 94.9137C80.1092 93.8468 82.183 92.3216 84.4393 90.4856C88.9031 86.8533 94.2699 81.8554 97.2881 76.6866L94.0138 74.7747ZM75.0903 95.0113C74.4213 93.2375 74.4213 93.2375 74.4212 93.2375C74.4211 93.2375 74.421 93.2376 74.4208 93.2376C74.4205 93.2377 74.42 93.2379 74.4194 93.2382C74.4182 93.2386 74.4163 93.2393 74.4138 93.2403C74.4088 93.2422 74.4013 93.245 74.3915 93.2487C74.3718 93.2561 74.3426 93.2671 74.3045 93.2815C74.2282 93.3103 74.1165 93.3524 73.9742 93.4061C73.6896 93.5134 73.283 93.6666 72.7951 93.8506C71.8193 94.2185 70.5181 94.7089 69.2167 95.1992C67.9151 95.6895 66.6135 96.1795 65.6369 96.5467C65.1484 96.7303 64.7419 96.8829 64.4575 96.9893C64.3151 97.0426 64.2047 97.0838 64.1305 97.1114C64.0928 97.1254 64.0673 97.1348 64.0524 97.1402C64.044 97.1433 64.0442 97.1431 64.0492 97.1414C64.0497 97.1412 64.0629 97.1365 64.0811 97.1306C64.087 97.1286 64.1144 97.1196 64.1502 97.1093C64.1717 97.1033 64.2332 97.0876 64.273 97.0786C64.3671 97.0609 64.8952 97.0496 65.3167 97.1496L64.0256 100.715C64.4471 100.815 64.9753 100.803 65.0696 100.786C65.1096 100.777 65.1714 100.761 65.1933 100.755C65.2298 100.744 65.2582 100.735 65.2655 100.732C65.2863 100.726 65.3034 100.72 65.3092 100.718C65.3245 100.712 65.34 100.707 65.3516 100.702C65.3768 100.693 65.4104 100.681 65.4496 100.666C65.529 100.637 65.6434 100.594 65.7867 100.54C66.0736 100.433 66.4822 100.28 66.971 100.096C67.949 99.7282 69.2515 99.2378 70.5533 98.7474C71.8552 98.257 73.1567 97.7664 74.1326 97.3985C74.6206 97.2145 75.0273 97.0612 75.3119 96.9539C75.4542 96.9002 75.5661 96.858 75.6423 96.8293C75.6804 96.8149 75.7097 96.8039 75.7294 96.7965C75.7392 96.7928 75.7467 96.7899 75.7517 96.788C75.7542 96.7871 75.7561 96.7864 75.7573 96.7859C75.758 96.7857 75.7584 96.7855 75.7588 96.7854C75.7589 96.7853 75.759 96.7853 75.7591 96.7852C75.7592 96.7852 75.7592 96.7852 75.0903 95.0113ZM65.3281 97.1538C65.0434 97.0751 64.69 97.0405 64.6299 97.0412C64.6042 97.0421 64.5645 97.0441 64.5502 97.0451C64.5264 97.0467 64.5075 97.0485 64.5024 97.049C64.488 97.0503 64.4757 97.0516 64.4706 97.0522C64.4579 97.0536 64.4437 97.0552 64.431 97.0566C64.4042 97.0597 64.3671 97.064 64.3217 97.0694C64.2301 97.0802 64.0974 97.096 63.9302 97.1161C63.5954 97.1562 63.1183 97.2136 62.5469 97.2826C61.4037 97.4206 59.8808 97.605 58.3585 97.7895C56.8361 97.974 55.3142 98.1586 54.1728 98.297C53.6022 98.3663 53.1266 98.424 52.7937 98.4644C52.6273 98.4846 52.4965 98.5005 52.4074 98.5113C52.3628 98.5167 52.3286 98.5209 52.3056 98.5237C52.2941 98.5251 52.2853 98.5261 52.2795 98.5268C52.2766 98.5272 52.2743 98.5274 52.2729 98.5276C52.2721 98.5277 52.2716 98.5278 52.2712 98.5278C52.271 98.5279 52.2709 98.5279 52.2708 98.5279C52.2707 98.5279 52.2707 98.5279 52.4991 100.41C52.7276 102.292 52.7277 102.292 52.7278 102.292C52.7279 102.292 52.728 102.292 52.7282 102.292C52.7286 102.292 52.7291 102.292 52.7298 102.292C52.7313 102.291 52.7335 102.291 52.7364 102.291C52.7423 102.29 52.751 102.289 52.7625 102.288C52.7856 102.285 52.8197 102.281 52.8643 102.275C52.9534 102.264 53.0842 102.249 53.2506 102.228C53.5834 102.188 54.0589 102.13 54.6295 102.061C55.7708 101.923 57.2925 101.738 58.8146 101.554C60.3368 101.369 61.859 101.185 63.0013 101.047C63.5725 100.978 64.0483 100.921 64.3813 100.881C64.548 100.861 64.678 100.845 64.7661 100.835C64.8104 100.83 64.8422 100.826 64.8622 100.824C64.8728 100.822 64.8765 100.822 64.8758 100.822C64.8753 100.822 64.8737 100.822 64.8713 100.823C64.8693 100.823 64.8644 100.823 64.8578 100.824C64.8542 100.824 64.8365 100.826 64.8135 100.828C64.7997 100.828 64.7602 100.831 64.7348 100.831C64.675 100.832 64.3217 100.797 64.037 100.719L65.3281 97.1538ZM52.5791 98.5158L40.8351 98.02L40.6752 101.808L52.4192 102.304L52.5791 98.5158ZM41.5047 98.1728L27.5258 92.1552L26.0265 95.6379L40.0055 101.655L41.5047 98.1728ZM26.7762 93.8966C27.9928 92.4426 27.9928 92.4426 27.9927 92.4426C27.9927 92.4426 27.9927 92.4425 27.9926 92.4425C27.9925 92.4424 27.9923 92.4422 27.992 92.442C27.9915 92.4416 27.9907 92.4409 27.9897 92.44C27.9875 92.4382 27.9843 92.4355 27.9801 92.432C27.9716 92.4249 27.9589 92.4142 27.9422 92.4002C27.9088 92.3723 27.8594 92.3309 27.7956 92.2774C27.6679 92.1704 27.4827 92.0149 27.2527 91.8216C26.7927 91.435 26.1538 90.897 25.4386 90.2918C24.0048 89.0785 22.2766 87.6053 21.0659 86.5386L18.5593 89.3835C19.8009 90.4774 21.5544 91.9719 22.9893 93.1862C23.7085 93.7948 24.3507 94.3356 24.8132 94.7243C25.0444 94.9186 25.2308 95.075 25.3595 95.1829C25.4238 95.2368 25.4737 95.2787 25.5076 95.307C25.5245 95.3212 25.5375 95.332 25.5462 95.3393C25.5505 95.343 25.5539 95.3458 25.5561 95.3476C25.5572 95.3486 25.5581 95.3493 25.5586 95.3498C25.5589 95.35 25.5591 95.3502 25.5593 95.3503C25.5594 95.3504 25.5594 95.3504 25.5595 95.3505C25.5595 95.3505 25.5595 95.3505 26.7762 93.8966Z" fill="#82E0E0" mask="url(#path-4-inside-2_313_1884)"/>
<mask id="path-6-inside-3_313_1884" fill="white">
<path d="M56.2062 55.7608C56.2074 55.7487 51.7487 44.3267 51.7487 44.3267L49.3079 32.8285L51.6597 17.7921C51.6597 17.7921 54.1939 12.4837 55.6767 9.57111C57.216 9.74333 63.84 10.2156 63.84 10.2156L74.6153 14.849L86.1801 22.9256L95.091 35.235L101.103 45.0195C101.103 45.0195 100.716 64.1201 97.6309 73.9244C96.1503 78.6258 91.1305 81.332 86.385 79.9844C75.5615 76.9054 62.5964 64.8653 62.5964 64.8653C62.5964 64.8653 56.2062 55.7608 56.2074 55.7487"/>
</mask>
<path d="M56.2062 55.7608C56.2074 55.7487 51.7487 44.3267 51.7487 44.3267L49.3079 32.8285L51.6597 17.7921C51.6597 17.7921 54.1939 12.4837 55.6767 9.57111C57.216 9.74333 63.84 10.2156 63.84 10.2156L74.6153 14.849L86.1801 22.9256L95.091 35.235L101.103 45.0195C101.103 45.0195 100.716 64.1201 97.6309 73.9244C96.1503 78.6258 91.1305 81.332 86.385 79.9844C75.5615 76.9054 62.5964 64.8653 62.5964 64.8653C62.5964 64.8653 56.2062 55.7608 56.2074 55.7487" fill="#F5F5F5"/>
<path d="M85.3946 23.4562L100.318 45.55L101.889 44.4889L86.9657 22.395L85.3946 23.4562ZM63.4346 64.4226L52.5869 43.884L50.9105 44.7694L61.7582 65.308L63.4346 64.4226ZM55.6767 9.57111L55.8875 7.68704L54.5829 7.54107L53.9872 8.71099L55.6767 9.57111ZM95.091 35.235L96.7062 34.2424L96.6687 34.1814L96.6266 34.1233L95.091 35.235ZM97.6309 73.9244L99.4392 74.4939L99.4393 74.4935L97.6309 73.9244ZM86.385 79.9844L85.8662 81.8079L85.8671 81.8082L86.385 79.9844ZM63.84 10.2156L64.5889 8.474L64.2945 8.34741L63.9748 8.32462L63.84 10.2156ZM74.6153 14.849L75.7008 13.2947L75.5421 13.1838L75.3642 13.1073L74.6153 14.849ZM86.1801 22.9256L87.7158 21.8139L87.5281 21.5546L87.2656 21.3713L86.1801 22.9256ZM101.103 45.0195L102.999 45.0579L103.01 44.5012L102.719 44.0269L101.103 45.0195ZM62.5964 64.8653L61.0446 65.9544L61.1596 66.1182L61.3063 66.2545L62.5964 64.8653ZM51.7487 44.3267L49.8942 44.7204L49.9263 44.8719L49.9827 45.0161L51.7487 44.3267ZM49.3079 32.8285L47.4349 32.5355L47.3809 32.8805L47.4534 33.2221L49.3079 32.8285ZM51.6597 17.7921L49.9488 16.9753L49.8294 17.2254L49.7866 17.4991L51.6597 17.7921ZM95.8226 73.3549C94.6504 77.077 90.662 79.2282 86.9028 78.1607L85.8671 81.8082C91.599 83.4358 97.6502 80.1746 99.4392 74.4939L95.8226 73.3549ZM55.4659 11.4552C56.2781 11.546 58.3611 11.7101 60.1928 11.8484C61.1192 11.9184 61.9971 11.9829 62.6433 12.03C62.9664 12.0535 63.2317 12.0727 63.4163 12.0859C63.5086 12.0926 63.5807 12.0978 63.6298 12.1013C63.6543 12.103 63.6731 12.1044 63.6858 12.1053C63.6922 12.1057 63.697 12.1061 63.7002 12.1063C63.7018 12.1064 63.703 12.1065 63.7039 12.1066C63.7043 12.1066 63.7046 12.1066 63.7048 12.1066C63.7049 12.1066 63.705 12.1066 63.7051 12.1067C63.7051 12.1067 63.7051 12.1067 63.84 10.2156C63.9748 8.32462 63.9748 8.32461 63.9748 8.32461C63.9747 8.32461 63.9746 8.3246 63.9746 8.32459C63.9744 8.32458 63.9741 8.32456 63.9737 8.32453C63.9729 8.32448 63.9717 8.32439 63.9702 8.32428C63.967 8.32405 63.9623 8.32372 63.9561 8.32327C63.9436 8.32238 63.925 8.32105 63.9006 8.31931C63.852 8.31582 63.7803 8.31068 63.6884 8.30407C63.5048 8.29085 63.2405 8.27177 62.9186 8.24833C62.2747 8.20144 61.4003 8.13715 60.4784 8.06751C58.6132 7.92665 56.6146 7.76839 55.8875 7.68704L55.4659 11.4552ZM63.0911 11.9573L73.8664 16.5906L75.3642 13.1073L64.5889 8.474L63.0911 11.9573ZM73.5298 16.4033L85.0946 24.4799L87.2656 21.3713L75.7008 13.2947L73.5298 16.4033ZM84.6445 24.0373L93.5553 36.3467L96.6266 34.1233L87.7158 21.8139L84.6445 24.0373ZM93.4757 36.2275L99.4881 46.012L102.719 44.0269L96.7062 34.2424L93.4757 36.2275ZM101.103 45.0195C99.2079 44.9811 99.2079 44.981 99.2079 44.981C99.2079 44.9811 99.2079 44.9812 99.2079 44.9814C99.2079 44.9818 99.2079 44.9824 99.2079 44.9834C99.2079 44.9854 99.2078 44.9885 99.2077 44.9927C99.2075 45.0011 99.2072 45.0141 99.2068 45.0316C99.206 45.0665 99.2048 45.1191 99.2031 45.1886C99.1996 45.3276 99.194 45.5341 99.1858 45.8012C99.1694 46.3355 99.1425 47.1118 99.1007 48.0748C99.0169 50.0018 98.8734 52.6718 98.6345 55.6434C98.1524 61.6402 97.295 68.6765 95.8225 73.3553L99.4393 74.4935C101.052 69.368 101.931 61.9518 102.414 55.9472C102.657 52.9182 102.804 50.2002 102.889 48.2394C102.931 47.2586 102.959 46.4661 102.976 45.9175C102.984 45.6431 102.99 45.4297 102.994 45.2841C102.995 45.2114 102.997 45.1555 102.998 45.1175C102.998 45.0985 102.998 45.084 102.998 45.074C102.999 45.069 102.999 45.0652 102.999 45.0625C102.999 45.0611 102.999 45.0601 102.999 45.0593C102.999 45.0589 102.999 45.0585 102.999 45.0584C102.999 45.0581 102.999 45.0579 101.103 45.0195ZM86.9037 78.161C81.8374 76.7197 76.1187 73.1152 71.5586 69.7455C69.3039 68.0794 67.3793 66.5062 66.0191 65.3501C65.3396 64.7726 64.8024 64.3003 64.4369 63.9741C64.2542 63.8111 64.1145 63.6847 64.0215 63.5999C63.975 63.5576 63.9402 63.5256 63.9176 63.5048C63.9062 63.4943 63.8979 63.4867 63.8927 63.4819C63.8901 63.4795 63.8883 63.4778 63.8873 63.4768C63.8867 63.4763 63.8864 63.476 63.8863 63.4759C63.8862 63.4758 63.8863 63.4759 63.8862 63.4759C63.8863 63.4759 63.8865 63.4761 62.5964 64.8653C61.3063 66.2545 61.3066 66.2547 61.3069 66.255C61.307 66.2551 61.3074 66.2554 61.3077 66.2557C61.3084 66.2563 61.3092 66.2571 61.3103 66.2581C61.3124 66.2601 61.3153 66.2627 61.3189 66.2661C61.3263 66.2729 61.3367 66.2826 61.3503 66.295C61.3773 66.3199 61.4166 66.356 61.4677 66.4026C61.57 66.4957 61.7194 66.6309 61.9123 66.8031C62.2982 67.1474 62.8584 67.6399 63.5635 68.2392C64.9726 69.4368 66.9657 71.0661 69.3052 72.7949C73.9335 76.215 80.1091 80.1701 85.8662 81.8079L86.9037 78.161ZM62.5964 64.8653C64.1481 63.7761 64.1481 63.7761 64.1481 63.776C64.148 63.776 64.148 63.7759 64.1479 63.7757C64.1477 63.7754 64.1474 63.775 64.147 63.7745C64.1462 63.7734 64.1451 63.7717 64.1435 63.7695C64.1405 63.7652 64.1359 63.7586 64.1298 63.75C64.1177 63.7328 64.0998 63.7073 64.0764 63.6739C64.0296 63.6072 63.961 63.5095 63.8736 63.385C63.6989 63.136 63.4493 62.7804 63.1498 62.3536C62.5508 61.4999 61.7522 60.3616 60.9536 59.2229C60.1549 58.0842 59.3566 56.9455 58.7581 56.0908C58.4587 55.6633 58.2098 55.3076 58.036 55.0586C57.9489 54.9339 57.8816 54.8373 57.8364 54.7722C57.8135 54.7392 57.7981 54.7168 57.7891 54.7037C57.784 54.6963 57.7842 54.6965 57.7871 54.7009C57.7875 54.7014 57.7953 54.713 57.8056 54.7291C57.809 54.7344 57.8245 54.7587 57.8433 54.7907C57.8545 54.8101 57.885 54.8657 57.9037 54.9021C57.9442 54.9888 58.0865 55.4975 58.0945 55.9306L54.3203 55.5668C54.3283 55.9999 54.4706 56.5088 54.5112 56.5956C54.53 56.6322 54.5606 56.688 54.572 56.7077C54.5912 56.7405 54.6073 56.7657 54.6114 56.7722C54.6233 56.7906 54.6334 56.8057 54.6368 56.8108C54.6458 56.8243 54.6551 56.8379 54.6621 56.8481C54.6772 56.8702 54.6976 56.8996 54.7214 56.9339C54.7697 57.0036 54.8396 57.1038 54.9271 57.2292C55.1025 57.4804 55.3527 57.838 55.6523 58.2657C56.2516 59.1216 57.0506 60.2612 57.8493 61.4001C58.6481 62.5391 59.447 63.6777 60.0461 64.5315C60.3456 64.9584 60.5953 65.3141 60.77 65.5631C60.8574 65.6876 60.926 65.7854 60.9729 65.8521C60.9963 65.8855 61.0142 65.911 61.0263 65.9283C61.0323 65.9369 61.0369 65.9434 61.04 65.9478C61.0415 65.95 61.0427 65.9516 61.0435 65.9527C61.0439 65.9533 61.0442 65.9537 61.0443 65.954C61.0444 65.9541 61.0445 65.9542 61.0446 65.9543C61.0446 65.9544 61.0446 65.9544 62.5964 64.8653ZM58.0933 55.9427C58.0986 55.6474 58.0443 55.2965 58.0287 55.2385C58.0214 55.2138 58.0096 55.1758 58.0051 55.1623C57.9976 55.1396 57.9911 55.1218 57.9894 55.1169C57.9845 55.1033 57.9802 55.0917 57.9784 55.0869C57.9739 55.0749 57.9688 55.0616 57.9642 55.0497C57.9546 55.0245 57.9412 54.9896 57.9247 54.9469C57.8914 54.861 57.8431 54.7364 57.7821 54.5794C57.66 54.2651 57.4857 53.8173 57.2767 53.2809C56.8587 52.208 56.3014 50.7788 55.7441 49.3502C55.1868 47.9216 54.6294 46.4934 54.2114 45.4223C54.0024 44.8868 53.8283 44.4406 53.7063 44.1282C53.6454 43.972 53.5975 43.8493 53.5648 43.7657C53.5485 43.7238 53.536 43.6917 53.5275 43.6701C53.5233 43.6593 53.5201 43.6511 53.518 43.6456C53.5169 43.6429 53.5161 43.6408 53.5155 43.6394C53.5153 43.6387 53.5151 43.6382 53.5149 43.6379C53.5149 43.6377 53.5148 43.6376 53.5148 43.6375C53.5147 43.6374 53.5147 43.6373 51.7487 44.3267C49.9827 45.0161 49.9827 45.0162 49.9827 45.0163C49.9827 45.0163 49.9828 45.0165 49.9829 45.0167C49.983 45.017 49.9832 45.0175 49.9835 45.0182C49.984 45.0196 49.9848 45.0217 49.9859 45.0244C49.988 45.0299 49.9912 45.0381 49.9954 45.0489C50.0039 45.0705 50.0164 45.1026 50.0327 45.1444C50.0654 45.228 50.1133 45.3507 50.1742 45.5069C50.2961 45.8192 50.4703 46.2654 50.6793 46.8009C51.0972 47.8718 51.6545 49.2998 52.2117 50.7282C52.7689 52.1567 53.326 53.5852 53.7437 54.6573C53.9526 55.1935 54.1264 55.64 54.2479 55.9527C54.3087 56.1092 54.356 56.2312 54.388 56.3139C54.4041 56.3556 54.4156 56.3855 54.4228 56.4042C54.4266 56.4142 54.4279 56.4177 54.4277 56.417C54.4275 56.4166 54.427 56.4151 54.4261 56.4128C54.4254 56.4109 54.4237 56.4062 54.4215 56.4C54.4202 56.3966 54.4142 56.3799 54.4069 56.358C54.4026 56.3448 54.3908 56.3072 54.3837 56.2828C54.3681 56.225 54.3138 55.8741 54.3191 55.5789L58.0933 55.9427ZM53.6032 43.9331L51.1624 32.4348L47.4534 33.2221L49.8942 44.7204L53.6032 43.9331ZM51.181 33.1214L53.5327 18.085L49.7866 17.4991L47.4349 32.5355L51.181 33.1214ZM51.6597 17.7921C53.3705 18.6089 53.3705 18.6089 53.3705 18.6088C53.3705 18.6088 53.3706 18.6087 53.3706 18.6087C53.3707 18.6085 53.3708 18.6083 53.3709 18.608C53.3712 18.6074 53.3717 18.6064 53.3723 18.6052C53.3735 18.6027 53.3753 18.5989 53.3776 18.5939C53.3824 18.5839 53.3896 18.569 53.399 18.5493C53.4177 18.51 53.4456 18.4519 53.4815 18.3767C53.5534 18.2265 53.6579 18.0084 53.7879 17.7376C54.048 17.1959 54.4101 16.4433 54.8184 15.6001C55.6371 13.9095 56.6341 11.8692 57.3662 10.4312L53.9872 8.71099C53.2365 10.1856 52.2251 12.2557 51.4058 13.9476C50.9952 14.7955 50.6312 15.5521 50.3697 16.0967C50.239 16.369 50.1339 16.5884 50.0614 16.7399C50.0251 16.8156 49.9971 16.8743 49.978 16.9142C49.9685 16.9341 49.9612 16.9493 49.9563 16.9596C49.9539 16.9647 49.952 16.9686 49.9507 16.9713C49.9501 16.9726 49.9496 16.9736 49.9493 16.9743C49.9491 16.9746 49.949 16.9748 49.9489 16.975C49.9489 16.9751 49.9489 16.9752 49.9488 16.9752C49.9488 16.9753 49.9488 16.9753 51.6597 17.7921Z" fill="#82E0E0" mask="url(#path-6-inside-3_313_1884)"/>
<mask id="path-8-inside-4_313_1884" fill="white">
<path d="M100.734 29.9015C100.746 29.9002 111.007 23.1887 111.007 23.1887L121.758 18.4364L136.957 17.6469C136.957 17.6469 142.673 19.0359 145.828 19.8883C145.976 21.43 146.875 28.0097 146.875 28.0097L144.556 39.5073L139.029 52.4855L128.815 63.7364L120.475 71.6317C120.475 71.6317 101.703 75.1795 91.4735 74.1753C86.5682 73.6928 82.8879 69.3365 83.2311 64.4153C84.0194 53.1901 93.1372 38.0268 93.1372 38.0268C93.1372 38.0268 100.734 29.9015 100.746 29.9002"/>
</mask>
<path d="M100.734 29.9015C100.746 29.9002 111.007 23.1887 111.007 23.1887L121.758 18.4364L136.957 17.6469C136.957 17.6469 142.673 19.0359 145.828 19.8883C145.976 21.43 146.875 28.0097 146.875 28.0097L144.556 39.5073L139.029 52.4855L128.815 63.7364L120.475 71.6317C120.475 71.6317 101.703 75.1795 91.4735 74.1753C86.5682 73.6928 82.8879 69.3365 83.2311 64.4153C84.0194 53.1901 93.1372 38.0268 93.1372 38.0268C93.1372 38.0268 100.734 29.9015 100.746 29.9002" fill="#F5F5F5"/>
<path d="M138.349 51.8258L119.794 70.9721L121.156 72.2914L139.71 53.1451L138.349 51.8258ZM93.7428 38.7561L111.613 23.918L110.402 22.4594L92.5317 37.2975L93.7428 38.7561ZM145.828 19.8883L147.715 19.7072L147.59 18.4004L146.322 18.058L145.828 19.8883ZM128.815 63.7364L130.118 65.1131L130.17 65.0638L130.218 65.0107L128.815 63.7364ZM91.4735 74.1753L91.2879 76.062L91.2883 76.0621L91.4735 74.1753ZM83.2311 64.4153L81.3399 64.2825L81.3399 64.2834L83.2311 64.4153ZM146.875 28.0097L148.734 28.3845L148.797 28.0704L148.754 27.7529L146.875 28.0097ZM144.556 39.5073L146.3 40.2501L146.376 40.072L146.414 39.8822L144.556 39.5073ZM139.029 52.4855L140.433 53.7598L140.648 53.5228L140.773 53.2282L139.029 52.4855ZM120.475 71.6317L120.827 73.4946L121.374 73.3912L121.778 73.0085L120.475 71.6317ZM93.1372 38.0268L91.7524 36.7321L91.6157 36.8783L91.5125 37.0498L93.1372 38.0268ZM111.007 23.1887L110.241 21.4547L110.099 21.5174L109.969 21.6021L111.007 23.1887ZM121.758 18.4364L121.66 16.5432L121.311 16.5613L120.992 16.7024L121.758 18.4364ZM136.957 17.6469L137.404 15.8047L137.135 15.7393L136.858 15.7537L136.957 17.6469ZM91.6591 72.2886C87.7756 71.9066 84.8504 68.4455 85.1223 64.5472L81.3399 64.2834C80.9253 70.2275 85.3608 75.479 91.2879 76.062L91.6591 72.2886ZM143.941 20.0693C144.019 20.8828 144.287 22.955 144.528 24.776C144.65 25.697 144.767 26.5694 144.854 27.2115C144.897 27.5325 144.933 27.7961 144.958 27.9795C144.97 28.0712 144.98 28.1428 144.987 28.1916C144.99 28.216 144.993 28.2346 144.994 28.2472C144.995 28.2535 144.996 28.2583 144.996 28.2615C144.997 28.2631 144.997 28.2644 144.997 28.2652C144.997 28.2656 144.997 28.2659 144.997 28.2661C144.997 28.2662 144.997 28.2663 144.997 28.2664C144.997 28.2664 144.997 28.2664 146.875 28.0097C148.754 27.7529 148.754 27.7529 148.754 27.7528C148.754 27.7528 148.754 27.7527 148.754 27.7526C148.754 27.7524 148.754 27.7521 148.754 27.7518C148.753 27.751 148.753 27.7498 148.753 27.7483C148.753 27.7451 148.752 27.7405 148.751 27.7343C148.749 27.7219 148.747 27.7034 148.744 27.6792C148.737 27.6308 148.727 27.5596 148.715 27.4684C148.69 27.2859 148.654 27.0234 148.611 26.7036C148.525 26.0637 148.408 25.1949 148.287 24.2782C148.041 22.424 147.785 20.4355 147.715 19.7072L143.941 20.0693ZM145.017 27.6348L142.698 39.1325L146.414 39.8822L148.734 28.3845L145.017 27.6348ZM142.812 38.7646L137.285 51.7427L140.773 53.2282L146.3 40.2501L142.812 38.7646ZM137.626 51.2111L127.411 62.462L130.218 65.0107L140.433 53.7598L137.626 51.2111ZM127.511 62.3597L119.172 70.255L121.778 73.0085L130.118 65.1131L127.511 62.3597ZM120.475 71.6317C120.123 69.7689 120.123 69.7689 120.123 69.7689C120.123 69.7689 120.123 69.7689 120.123 69.769C120.122 69.769 120.122 69.7692 120.121 69.7693C120.119 69.7697 120.116 69.7703 120.111 69.771C120.103 69.7726 120.09 69.775 120.073 69.7782C120.039 69.7846 119.987 69.7942 119.919 69.8068C119.782 69.8319 119.579 69.8689 119.316 69.9158C118.789 70.0096 118.024 70.1429 117.073 70.2999C115.17 70.614 112.528 71.0224 109.57 71.3995C103.603 72.1604 96.5403 72.7678 91.6587 72.2886L91.2883 76.0621C96.6359 76.5871 104.074 75.9226 110.05 75.1607C113.064 74.7764 115.754 74.3606 117.691 74.0409C118.659 73.881 119.441 73.7449 119.981 73.6486C120.251 73.6005 120.461 73.5622 120.604 73.5359C120.676 73.5227 120.731 73.5126 120.768 73.5056C120.787 73.5021 120.801 73.4994 120.811 73.4976C120.816 73.4967 120.82 73.4959 120.822 73.4954C120.824 73.4952 120.825 73.495 120.826 73.4949C120.826 73.4948 120.826 73.4947 120.827 73.4947C120.827 73.4946 120.827 73.4946 120.475 71.6317ZM85.1223 64.5481C85.4913 59.2937 87.8432 52.9562 90.2035 47.8008C91.3706 45.2517 92.5145 43.0448 93.3663 41.4761C93.7919 40.6924 94.1436 40.0695 94.3877 39.6448C94.5097 39.4325 94.6047 39.2698 94.6685 39.1614C94.7004 39.1072 94.7245 39.0665 94.7403 39.0401C94.7481 39.0268 94.7539 39.0171 94.7576 39.0111C94.7594 39.008 94.7607 39.0059 94.7614 39.0047C94.7618 39.0041 94.762 39.0037 94.7621 39.0035C94.7621 39.0034 94.7621 39.0035 94.7621 39.0035C94.762 39.0036 94.7619 39.0037 93.1372 38.0268C91.5125 37.0498 91.5123 37.0501 91.5121 37.0505C91.512 37.0507 91.5118 37.0511 91.5115 37.0514C91.5111 37.0522 91.5105 37.0532 91.5097 37.0544C91.5083 37.0569 91.5062 37.0603 91.5037 37.0646C91.4985 37.0732 91.4912 37.0854 91.4818 37.1012C91.463 37.1328 91.4358 37.1787 91.4008 37.2383C91.3306 37.3574 91.229 37.5315 91.1001 37.7557C90.8425 38.2041 90.4757 38.8536 90.0342 39.6668C89.1518 41.292 87.967 43.5775 86.756 46.2224C84.3604 51.4549 81.7593 58.3117 81.3399 64.2825L85.1223 64.5481ZM93.1372 38.0268C94.5221 39.3215 94.5221 39.3215 94.5222 39.3214C94.5222 39.3214 94.5223 39.3213 94.5224 39.3211C94.5227 39.3209 94.523 39.3205 94.5235 39.32C94.5244 39.3191 94.5258 39.3176 94.5276 39.3156C94.5312 39.3117 94.5367 39.3059 94.5439 39.2982C94.5582 39.2829 94.5796 39.26 94.6074 39.2303C94.663 39.1708 94.7446 39.0835 94.8485 38.9724C95.0562 38.7503 95.3529 38.4329 95.7091 38.0521C96.4214 37.2904 97.3712 36.2748 98.3213 35.2592C99.2716 34.2435 100.222 33.2281 100.935 32.4667C101.292 32.0859 101.589 31.7692 101.797 31.5479C101.901 31.437 101.982 31.3513 102.036 31.2937C102.064 31.2645 102.083 31.2448 102.094 31.2333C102.1 31.2268 102.1 31.227 102.096 31.2308C102.095 31.2312 102.086 31.2413 102.072 31.2546C102.068 31.259 102.047 31.2793 102.02 31.3042C102.003 31.3192 101.955 31.3605 101.923 31.3862C101.846 31.4437 101.378 31.6875 100.956 31.7843L100.536 28.016C100.114 28.1128 99.6449 28.3567 99.5682 28.4143C99.5363 28.4402 99.4879 28.4816 99.471 28.4968C99.4429 28.5223 99.4215 28.5433 99.4161 28.5487C99.4004 28.5641 99.3877 28.577 99.3834 28.5814C99.3721 28.593 99.3607 28.605 99.3522 28.6139C99.3337 28.6332 99.309 28.6592 99.2803 28.6896C99.2221 28.7512 99.1384 28.8401 99.0337 28.9516C98.8239 29.1749 98.5254 29.4932 98.1683 29.8743C97.454 30.6368 96.5029 31.6529 95.5525 32.6688C94.6021 33.6847 93.6521 34.7005 92.9396 35.4623C92.5834 35.8432 92.2866 36.1607 92.0789 36.3829C91.975 36.494 91.8934 36.5813 91.8377 36.6408C91.8099 36.6705 91.7885 36.6934 91.7742 36.7087C91.767 36.7164 91.7615 36.7223 91.7579 36.7262C91.756 36.7281 91.7547 36.7296 91.7538 36.7306C91.7533 36.7311 91.7529 36.7314 91.7527 36.7317C91.7526 36.7318 91.7525 36.7319 91.7525 36.732C91.7524 36.732 91.7524 36.7321 93.1372 38.0268ZM100.944 31.7857C101.234 31.7302 101.566 31.6049 101.619 31.5777C101.642 31.5655 101.677 31.5461 101.689 31.5389C101.71 31.5269 101.726 31.517 101.73 31.5142C101.743 31.5067 101.753 31.5001 101.757 31.4973C101.768 31.4904 101.78 31.4827 101.791 31.4758C101.814 31.4612 101.845 31.4409 101.883 31.416C101.961 31.3658 102.073 31.2929 102.214 31.2009C102.496 31.0168 102.899 30.7541 103.381 30.4394C104.345 29.8097 105.629 28.9705 106.912 28.1314C108.196 27.2924 109.479 26.4533 110.441 25.8241C110.922 25.5095 111.323 25.2473 111.604 25.0637C111.744 24.972 111.854 24.8999 111.93 24.8507C111.967 24.8261 111.996 24.8073 112.015 24.7946C112.025 24.7882 112.033 24.7834 112.037 24.7802C112.04 24.7786 112.042 24.7774 112.043 24.7765C112.044 24.7761 112.044 24.7758 112.044 24.7756C112.045 24.7755 112.045 24.7755 112.045 24.7754C112.045 24.7754 112.045 24.7753 111.007 23.1887C109.969 21.6021 109.969 21.6021 109.969 21.6022C109.969 21.6022 109.969 21.6023 109.969 21.6024C109.969 21.6026 109.968 21.6029 109.968 21.6033C109.966 21.6042 109.965 21.6054 109.962 21.607C109.957 21.6102 109.95 21.615 109.94 21.6214C109.921 21.6341 109.892 21.6529 109.854 21.6775C109.779 21.7266 109.669 21.7987 109.529 21.8905C109.248 22.074 108.847 22.3361 108.366 22.6507C107.404 23.2799 106.121 24.1188 104.838 24.9578C103.554 25.7968 102.271 26.6356 101.307 27.2648C100.826 27.5794 100.424 27.8413 100.143 28.0245C100.003 28.1161 99.893 28.1876 99.8186 28.2358C99.7811 28.2602 99.7542 28.2776 99.7374 28.2884C99.7283 28.2943 99.7253 28.2962 99.7258 28.2959C99.7262 28.2956 99.7276 28.2947 99.7296 28.2935C99.7314 28.2924 99.7356 28.2897 99.7412 28.2863C99.7443 28.2844 99.7594 28.275 99.7793 28.2634C99.7913 28.2565 99.8258 28.2372 99.8482 28.2252C99.9015 28.1981 100.234 28.0728 100.524 28.0173L100.944 31.7857ZM111.774 24.9227L122.525 20.1704L120.992 16.7024L110.241 21.4547L111.774 24.9227ZM121.857 20.3297L137.055 19.5402L136.858 15.7537L121.66 16.5432L121.857 20.3297ZM136.957 17.6469C136.509 19.4892 136.509 19.4892 136.509 19.4892C136.509 19.4892 136.509 19.4892 136.509 19.4892C136.51 19.4893 136.51 19.4893 136.51 19.4894C136.511 19.4895 136.512 19.4898 136.513 19.4901C136.516 19.4908 136.52 19.4918 136.525 19.4931C136.536 19.4957 136.552 19.4996 136.573 19.5048C136.616 19.5151 136.678 19.5303 136.759 19.5501C136.921 19.5896 137.156 19.647 137.448 19.7185C138.031 19.8617 138.842 20.0614 139.751 20.2877C141.574 20.7413 143.776 21.2976 145.334 21.7185L146.322 18.058C144.725 17.6265 142.491 17.0622 140.667 16.6082C139.753 16.3807 138.938 16.1799 138.351 16.036C138.057 15.9641 137.821 15.9063 137.658 15.8665C137.576 15.8466 137.513 15.8312 137.47 15.8207C137.449 15.8155 137.432 15.8115 137.421 15.8088C137.416 15.8075 137.412 15.8065 137.409 15.8058C137.407 15.8054 137.406 15.8052 137.406 15.805C137.405 15.8049 137.405 15.8048 137.405 15.8048C137.405 15.8048 137.405 15.8048 137.405 15.8047C137.405 15.8047 137.404 15.8047 136.957 17.6469Z" fill="#82E0E0" mask="url(#path-8-inside-4_313_1884)"/>
<mask id="path-10-inside-5_313_1884" fill="white">
<path d="M128.131 66.1599C128.137 66.1704 138.428 72.8353 138.428 72.8353L147.127 80.7411L154.003 94.3182C154.003 94.3182 155.048 100.107 155.546 103.337C154.196 104.097 148.545 107.583 148.545 107.583L137.093 110.119L122.988 110.32L108.565 105.536L97.9685 101.108C97.9685 101.108 87.1232 85.3805 83.8992 75.6208C82.3541 70.9403 84.847 65.8112 89.4856 64.1323C100.069 60.3076 117.625 62.5044 117.625 62.5044C117.625 62.5044 128.131 66.1599 128.137 66.1704"/>
</mask>
<path d="M128.131 66.1599C128.137 66.1704 138.428 72.8353 138.428 72.8353L147.127 80.7411L154.003 94.3182C154.003 94.3182 155.048 100.107 155.546 103.337C154.196 104.097 148.545 107.583 148.545 107.583L137.093 110.119L122.988 110.32L108.565 105.536L97.9685 101.108C97.9685 101.108 87.1232 85.3805 83.8992 75.6208C82.3541 70.9403 84.847 65.8112 89.4856 64.1323C100.069 60.3076 117.625 62.5044 117.625 62.5044C117.625 62.5044 128.131 66.1599 128.137 66.1704" fill="#F5F5F5"/>
<path d="M123.316 109.431L98.2961 100.219L97.641 101.998L122.661 111.21L123.316 109.431ZM117.204 63.3533L138.007 73.6843L138.85 71.9863L118.047 61.6554L117.204 63.3533ZM155.546 103.337L156.476 104.989L157.62 104.346L157.42 103.048L155.546 103.337ZM108.565 105.536L107.834 107.286L107.9 107.313L107.968 107.336L108.565 105.536ZM83.8992 75.6208L82.099 76.2151L82.0991 76.2155L83.8992 75.6208ZM89.4856 64.1323L88.8413 62.3493L88.8404 62.3496L89.4856 64.1323ZM148.545 107.583L148.954 109.434L149.267 109.365L149.54 109.197L148.545 107.583ZM137.093 110.119L137.12 112.014L137.313 112.011L137.502 111.97L137.093 110.119ZM122.988 110.32L122.391 112.12L122.695 112.221L123.015 112.216L122.988 110.32ZM97.9685 101.108L96.4078 102.184L96.7239 102.643L97.2375 102.857L97.9685 101.108ZM117.625 62.5044L118.248 60.7138L118.059 60.648L117.861 60.6232L117.625 62.5044ZM138.428 72.8353L139.704 71.4323L139.589 71.3282L139.459 71.244L138.428 72.8353ZM147.127 80.7411L148.818 79.8845L148.661 79.573L148.402 79.3381L147.127 80.7411ZM154.003 94.3182L155.869 93.9816L155.82 93.7089L155.695 93.4617L154.003 94.3182ZM85.6995 75.0265C84.4762 71.321 86.4563 67.2448 90.1308 65.9149L88.8404 62.3496C83.2376 64.3775 80.232 70.5595 82.099 76.2151L85.6995 75.0265ZM154.617 101.685C153.904 102.086 152.118 103.17 150.551 104.127C149.758 104.612 149.008 105.072 148.456 105.412C148.18 105.581 147.953 105.721 147.796 105.818C147.717 105.866 147.655 105.904 147.614 105.93C147.593 105.943 147.577 105.953 147.566 105.96C147.56 105.963 147.556 105.966 147.553 105.967C147.552 105.968 147.551 105.969 147.55 105.969C147.55 105.969 147.55 105.97 147.55 105.97C147.549 105.97 147.549 105.97 147.549 105.97C147.549 105.97 147.549 105.97 148.545 107.583C149.54 109.197 149.54 109.197 149.54 109.197C149.54 109.197 149.54 109.197 149.54 109.197C149.54 109.197 149.541 109.196 149.541 109.196C149.542 109.196 149.543 109.195 149.544 109.194C149.547 109.193 149.551 109.19 149.556 109.187C149.567 109.18 149.583 109.171 149.603 109.158C149.645 109.132 149.706 109.095 149.784 109.046C149.941 108.95 150.167 108.811 150.442 108.642C150.992 108.304 151.739 107.845 152.528 107.363C154.124 106.387 155.838 105.348 156.476 104.989L154.617 101.685ZM148.135 105.732L136.683 108.267L137.502 111.97L148.954 109.434L148.135 105.732ZM137.065 108.223L122.961 108.425L123.015 112.216L137.12 112.014L137.065 108.223ZM123.585 108.521L109.161 103.737L107.968 107.336L122.391 112.12L123.585 108.521ZM109.296 103.787L98.6995 99.359L97.2375 102.857L107.834 107.286L109.296 103.787ZM97.9685 101.108C99.5293 100.032 99.5293 100.032 99.5293 100.032C99.5292 100.032 99.5292 100.032 99.5291 100.032C99.5289 100.031 99.5285 100.031 99.5279 100.03C99.5268 100.028 99.5251 100.026 99.5227 100.022C99.5179 100.015 99.5105 100.005 99.5006 99.9904C99.4809 99.9616 99.4512 99.9182 99.412 99.8607C99.3336 99.7459 99.2175 99.575 99.0681 99.3534C98.7692 98.9103 98.3375 98.2645 97.8088 97.4585C96.751 95.8457 95.3075 93.5949 93.7653 91.0436C90.6529 85.895 87.2379 79.6836 85.6994 75.0262L82.0991 76.2155C83.7845 81.3177 87.4041 87.85 90.5204 93.0052C92.0925 95.6058 93.5619 97.8969 94.6383 99.538C95.1768 100.359 95.6175 101.018 95.9244 101.473C96.0778 101.701 96.1978 101.877 96.2799 101.998C96.3209 102.058 96.3525 102.104 96.374 102.135C96.3848 102.151 96.393 102.163 96.3986 102.171C96.4015 102.175 96.4037 102.178 96.4052 102.181C96.406 102.182 96.4066 102.183 96.407 102.183C96.4072 102.184 96.4074 102.184 96.4075 102.184C96.4077 102.184 96.4078 102.184 97.9685 101.108ZM90.13 65.9152C95.0838 64.1249 101.831 63.7092 107.5 63.7797C110.304 63.8146 112.785 63.9669 114.564 64.1106C115.453 64.1823 116.165 64.2517 116.652 64.3029C116.896 64.3285 117.083 64.3495 117.208 64.3639C117.27 64.3711 117.317 64.3767 117.348 64.3804C117.363 64.3822 117.374 64.3836 117.381 64.3845C117.385 64.3849 117.387 64.3852 117.389 64.3854C117.389 64.3855 117.39 64.3855 117.39 64.3855C117.39 64.3856 117.39 64.3855 117.39 64.3855C117.39 64.3855 117.39 64.3855 117.625 62.5044C117.861 60.6232 117.86 60.6232 117.86 60.6231C117.86 60.6231 117.859 60.623 117.859 60.623C117.858 60.6229 117.857 60.6227 117.855 60.6225C117.852 60.6222 117.848 60.6217 117.844 60.6211C117.834 60.6199 117.819 60.6181 117.801 60.6159C117.765 60.6115 117.712 60.6053 117.643 60.5973C117.506 60.5814 117.305 60.559 117.048 60.532C116.534 60.478 115.792 60.4056 114.869 60.3312C113.026 60.1824 110.456 60.0246 107.548 59.9884C101.793 59.9168 94.4705 60.3149 88.8413 62.3493L90.13 65.9152ZM117.625 62.5044C117.002 64.2949 117.002 64.2949 117.002 64.2949C117.002 64.2949 117.002 64.295 117.003 64.295C117.003 64.2951 117.003 64.2953 117.004 64.2955C117.005 64.296 117.007 64.2966 117.01 64.2975C117.015 64.2993 117.022 64.3019 117.032 64.3053C117.052 64.3123 117.082 64.3225 117.12 64.3359C117.197 64.3627 117.31 64.402 117.453 64.4519C117.741 64.5519 118.151 64.6947 118.644 64.8661C119.628 65.209 120.942 65.6662 122.255 66.1237C123.568 66.5813 124.882 67.0391 125.867 67.383C126.359 67.5551 126.769 67.6984 127.056 67.7989C127.199 67.8492 127.31 67.8883 127.385 67.9147C127.423 67.9281 127.449 67.9373 127.463 67.9426C127.472 67.9457 127.472 67.9456 127.467 67.9438C127.466 67.9436 127.453 67.9387 127.435 67.9317C127.429 67.9293 127.403 67.9187 127.369 67.9037C127.348 67.8945 127.291 67.8672 127.255 67.8486C127.171 67.8019 126.758 67.4722 126.499 67.1253L129.775 65.2156C129.515 64.8687 129.102 64.5389 129.018 64.4921C128.982 64.4734 128.924 64.446 128.904 64.4366C128.869 64.4213 128.841 64.4102 128.834 64.4074C128.814 64.3993 128.797 64.393 128.791 64.3908C128.776 64.3852 128.76 64.3795 128.749 64.3754C128.723 64.3663 128.69 64.3543 128.65 64.3403C128.57 64.3121 128.455 64.2715 128.311 64.2209C128.022 64.1195 127.61 63.9755 127.117 63.8033C126.13 63.4589 124.816 63.0008 123.502 62.5432C122.189 62.0855 120.875 61.6282 119.89 61.2853C119.397 61.1138 118.987 60.9709 118.7 60.871C118.556 60.821 118.443 60.7817 118.366 60.7549C118.328 60.7415 118.298 60.7312 118.278 60.7243C118.268 60.7209 118.261 60.7182 118.256 60.7165C118.253 60.7156 118.251 60.7149 118.25 60.7145C118.25 60.7143 118.249 60.7141 118.249 60.714C118.249 60.7139 118.248 60.7139 118.248 60.7139C118.248 60.7138 118.248 60.7138 117.625 62.5044ZM126.493 67.1148C126.661 67.3576 126.91 67.6107 126.957 67.6486C126.977 67.6644 127.009 67.6883 127.02 67.6967C127.04 67.7107 127.055 67.7214 127.06 67.7243C127.071 67.7325 127.082 67.7394 127.086 67.7422C127.097 67.7493 127.109 67.7571 127.119 67.7642C127.142 67.779 127.173 67.7995 127.211 67.8245C127.289 67.8748 127.401 67.9477 127.542 68.0394C127.825 68.2232 128.228 68.4848 128.711 68.798C129.677 69.4245 130.964 70.2588 132.251 71.0926C133.538 71.9264 134.825 72.7599 135.79 73.385C136.272 73.6975 136.674 73.9579 136.956 74.1402C137.096 74.2313 137.207 74.3029 137.282 74.3517C137.32 74.3761 137.349 74.3948 137.368 74.4075C137.378 74.4138 137.386 74.4185 137.391 74.4218C137.393 74.4234 137.395 74.4246 137.396 74.4254C137.397 74.4258 137.397 74.4261 137.397 74.4263C137.398 74.4264 137.398 74.4265 137.398 74.4265C137.398 74.4266 137.398 74.4266 138.428 72.8353C139.459 71.244 139.459 71.244 139.459 71.2439C139.459 71.2439 139.459 71.2438 139.459 71.2437C139.458 71.2435 139.458 71.2432 139.457 71.2428C139.456 71.242 139.454 71.2408 139.452 71.2392C139.447 71.236 139.439 71.2312 139.429 71.2249C139.41 71.2123 139.381 71.1936 139.343 71.1692C139.268 71.1204 139.157 71.0488 139.017 70.9576C138.735 70.7754 138.333 70.515 137.851 70.2025C136.886 69.5776 135.599 68.7442 134.313 67.9105C133.026 67.0768 131.739 66.2429 130.774 65.6168C130.291 65.3037 129.889 65.0429 129.608 64.8601C129.467 64.7686 129.357 64.6972 129.283 64.6488C129.246 64.6244 129.219 64.6068 129.202 64.5958C129.193 64.5899 129.19 64.5879 129.191 64.5883C129.191 64.5885 129.192 64.5894 129.194 64.5908C129.196 64.5919 129.2 64.5947 129.206 64.5984C129.209 64.6005 129.223 64.6105 129.242 64.624C129.253 64.6322 129.285 64.6559 129.305 64.6715C129.351 64.7093 129.6 64.9623 129.768 65.2051L126.493 67.1148ZM137.153 74.2383L145.852 82.144L148.402 79.3381L139.704 71.4323L137.153 74.2383ZM145.436 81.5976L152.312 95.1748L155.695 93.4617L148.818 79.8845L145.436 81.5976ZM154.003 94.3182C152.138 94.6549 152.138 94.6549 152.138 94.655C152.138 94.655 152.138 94.6551 152.138 94.6551C152.138 94.6553 152.138 94.6555 152.138 94.6559C152.138 94.6565 152.138 94.6576 152.138 94.6589C152.139 94.6616 152.14 94.6657 152.141 94.6712C152.143 94.6821 152.146 94.6984 152.149 94.7199C152.157 94.7627 152.169 94.8262 152.183 94.9081C152.213 95.0721 152.255 95.3101 152.308 95.6059C152.413 96.1975 152.559 97.0199 152.72 97.9427C153.044 99.793 153.427 102.031 153.673 103.626L157.42 103.048C157.168 101.413 156.779 99.1418 156.456 97.2901C156.293 96.362 156.147 95.5353 156.041 94.9406C155.988 94.6432 155.945 94.4037 155.915 94.2384C155.9 94.1558 155.889 94.0917 155.881 94.0482C155.877 94.0265 155.874 94.0099 155.872 93.9987C155.871 93.9931 155.87 93.9888 155.87 93.986C155.87 93.9845 155.869 93.9835 155.869 93.9827C155.869 93.9823 155.869 93.9821 155.869 93.9819C155.869 93.9818 155.869 93.9817 155.869 93.9816C155.869 93.9816 155.869 93.9816 154.003 94.3182Z" fill="#82E0E0" mask="url(#path-10-inside-5_313_1884)"/>
<path d="M110.767 45.6561C108.254 45.7336 105.74 45.8198 103.227 45.8973C100.928 46.9913 98.6299 48.0939 96.3315 49.1879C95.9097 49.9373 95.4965 50.6867 95.0747 51.4275C95.5826 55.0109 95.1866 57.7847 93.9299 58.2498C93.5769 58.379 92.7247 58.5513 92.7075 58.1206C92.6387 56.3461 92.3288 54.5716 91.752 52.8661C91.5971 52.3923 91.468 51.9444 90.7363 50.4283C89.9185 48.7486 88.6015 46.1643 86.6044 42.779C83.3076 41.8918 80.0107 40.9959 76.7138 40.1087C75.2418 40.8581 73.7698 41.5989 72.3065 42.3483C71.3166 44.588 70.3266 46.8362 69.3367 49.0759C69.9565 51.7721 70.5849 54.4769 71.2047 57.1731C71.7814 57.8019 72.3667 58.4307 72.9435 59.0595C76.5158 59.6711 79.0121 60.9116 79.0724 62.2553C79.0896 62.6344 78.9175 63.1081 78.5731 63.3838C77.5918 64.1849 75.9132 62.798 73.107 62.6688C72.0224 62.6171 71.153 62.7722 70.6451 62.8842C68.2263 63.6422 65.7988 64.4002 63.38 65.1583C61.0902 67.7855 58.8005 70.4128 56.5107 73.0401C56.769 74.6682 57.0186 76.2962 57.2682 77.9243C59.2653 79.3197 61.2624 80.7152 63.2594 82.1107C65.8419 82.5931 68.4329 83.0754 71.0153 83.5492C71.6006 83.3769 72.4528 83.0582 73.3481 82.4725C76.292 80.5343 76.972 77.4333 78.2805 77.6314C78.84 77.7175 79.1413 78.3463 79.1929 78.4497C79.7696 79.6298 78.8916 81.5249 76.9032 83.1702C76.688 84.0574 76.4728 84.9533 76.2576 85.8405C75.9907 87.6064 75.6894 91.1726 77.127 95.2815C78.3579 98.8046 80.3206 101.165 81.5257 102.414C83.1612 102.681 84.7881 102.948 86.4237 103.215C88.1625 101.63 89.9099 100.045 91.6487 98.4601C93.1035 96.2635 94.5669 94.0669 96.0216 91.8704C95.9183 91.0176 95.8236 90.1734 95.7203 89.3206C93.1896 86.7278 91.8898 84.2556 92.6387 83.1271C92.8453 82.8084 93.2584 82.5328 93.6974 82.5069C94.9456 82.438 95.4879 84.514 97.6399 86.2626C98.5007 86.9604 99.3185 87.3652 99.8178 87.5806C102.392 88.485 104.965 89.3895 107.548 90.3026C110.767 89.4326 113.978 88.5626 117.197 87.6926C117.955 86.2196 118.721 84.7466 119.479 83.2736C118.506 80.7841 117.542 78.2947 116.569 75.8052C114.933 74.0824 113.298 72.3596 111.662 70.6368C110.819 70.4731 109.984 70.3008 109.14 70.1372C105.886 71.7222 103.132 72.2132 102.297 71.1536C102.056 70.8521 101.927 70.3697 102.047 69.9477C102.374 68.7589 104.432 68.8795 106.704 67.4496C107.677 66.838 108.357 66.1489 108.753 65.6923C110.845 63.0737 112.936 60.4464 115.028 57.8277C114.761 54.942 114.494 52.0477 114.219 49.162C113.057 47.9905 111.895 46.8276 110.733 45.6561" fill="#82E0E0"/>
<g style="mix-blend-mode:multiply">
<path d="M94.4378 70.1803C94.0762 71.1623 93.7233 72.1443 93.3618 73.1263C92.1825 73.6776 91.0032 74.2375 89.8239 74.7888C88.7909 74.2634 87.7579 73.7465 86.725 73.2211C86.2171 72.2046 85.7178 71.1881 85.21 70.1717C85.5715 69.1725 85.9416 68.1818 86.3032 67.1826C87.4739 66.6399 88.6446 66.0973 89.8153 65.5546C90.8138 65.925 91.8123 66.304 92.8109 66.6744C93.3532 67.8373 93.8869 69.0088 94.4292 70.1717L94.4378 70.1803Z" fill="#82E0E0"/>
</g>
<path opacity="0.2" d="M6.75763 40.249C9.63271 38.8966 12.4992 37.5442 15.3743 36.1918C17.6984 35.4251 20.0226 34.6585 22.3382 33.8832C24.6623 33.4267 26.9865 32.9701 29.3107 32.5136L37.5486 31.3679C40.4581 32.5567 43.3762 33.7454 46.2857 34.9255C47.9729 36.2779 49.6687 37.6217 51.3559 38.9741C45.7348 37.9577 40.1138 36.9412 34.5013 35.9334C30.6966 36.3555 26.9004 36.7775 23.0957 37.1996C17.6468 38.2161 12.1979 39.2325 6.74902 40.2404L6.75763 40.249Z" fill="white"/>
<path opacity="0.8" d="M74.3389 95.2497C72.3763 96.2747 70.405 97.2998 68.4424 98.3249C68.5801 100.349 68.7264 102.373 68.8642 104.398C68.9416 106.034 69.0191 107.671 69.0966 109.316C69.2429 111.737 69.3807 114.157 69.527 116.578C70.0435 118.783 70.5686 120.98 71.085 123.185C71.9717 125.476 72.8497 127.759 73.7363 130.05C76.1121 131.489 78.488 132.936 80.8552 134.375C80.8896 132.988 80.9326 131.609 80.9671 130.223C79.6328 129.111 78.2986 128.009 76.9643 126.898C76.1208 124.141 75.2858 121.385 74.4422 118.628C73.8224 117.147 73.2112 115.338 72.8153 113.227C72.0147 109.015 72.3935 105.397 72.8755 102.942C73.3662 100.375 73.8568 97.808 74.3475 95.2497H74.3389Z" fill="white"/>
<path opacity="0.8" d="M58.7061 64.0508C56.9458 62.7075 55.1819 61.3565 53.4217 60.0133C51.6465 60.996 49.8751 61.9865 48.0999 62.9692C46.6504 63.733 45.2008 64.4968 43.7434 65.2642C41.613 66.4227 39.479 67.5733 37.3486 68.7317C35.5702 70.1341 33.8032 71.5406 32.0247 72.943C30.3251 74.7172 28.6297 76.4799 26.9301 78.2541C26.634 81.0156 26.3302 83.7809 26.0305 86.5346C27.3012 85.978 28.5678 85.4329 29.8385 84.8763C30.2795 83.1969 30.7127 81.5211 31.1537 79.8417C33.2929 77.9093 35.4357 75.9848 37.5748 74.0525C38.6541 72.8632 40.0336 71.543 41.7773 70.2899C45.2532 67.7796 48.6906 66.5893 51.1186 65.9854C53.6515 65.3419 56.1845 64.6984 58.7097 64.0586L58.7061 64.0508Z" fill="white"/>
<path opacity="0.8" d="M88.5092 41.2957C89.3724 39.2567 90.2422 37.2122 91.1054 35.1732C89.7121 33.6983 88.3122 32.2288 86.9189 30.7538C85.8185 29.5398 84.7182 28.3257 83.6124 27.105C81.9605 25.3297 80.3153 23.5489 78.6634 21.7736C76.8628 20.3998 75.0609 19.0382 73.2603 17.6644C71.1191 16.4595 68.9901 15.2557 66.849 14.0508C64.1006 14.4509 61.3467 14.8443 58.6049 15.239C59.46 16.3313 60.3031 17.4225 61.1582 18.5149C62.8946 18.5244 64.6254 18.5272 66.3618 18.5366C68.7654 20.1279 71.1624 21.7248 73.5661 23.3161C74.9864 24.0657 76.6083 25.0734 78.2557 26.4506C81.5516 29.193 83.5594 32.2264 84.7481 34.4278C86.0014 36.7212 87.2547 39.0145 88.5025 41.3012L88.5092 41.2957Z" fill="white"/>
<path opacity="0.8" d="M121.53 58.5412C123.703 58.9668 125.883 59.3978 128.056 59.8234C129.213 58.1566 130.363 56.4845 131.52 54.8178C132.482 53.4914 133.444 52.1649 134.411 50.8318C135.809 48.8503 137.214 46.8741 138.612 44.8926C139.586 42.848 140.548 40.8047 141.522 38.7601C142.261 36.417 143.002 34.086 143.741 31.7429C142.784 29.1354 141.833 26.5212 140.883 23.9191C139.99 24.9806 139.095 26.0299 138.202 27.0914C138.55 28.7926 138.903 30.4871 139.251 32.1883C138.187 34.8677 137.117 37.5418 136.054 40.2212C135.613 41.7653 134.96 43.5596 133.951 45.455C131.944 49.2443 129.389 51.8328 127.478 53.4487C125.492 55.1466 123.505 56.8446 121.524 58.5358L121.53 58.5412Z" fill="white"/>
<path opacity="0.8" d="M110.365 96.7728C110.856 98.9319 111.344 101.099 111.835 103.258C113.827 103.641 115.822 104.016 117.815 104.399C119.417 104.742 121.019 105.084 122.63 105.429C125.008 105.904 127.383 106.388 129.761 106.864C132.025 106.927 134.283 106.979 136.547 107.042C138.989 106.769 141.42 106.502 143.861 106.229C145.858 104.299 147.863 102.371 149.858 100.448C148.526 100.062 147.204 99.6685 145.872 99.2816C144.457 100.288 143.051 101.297 141.636 102.304C138.756 102.417 135.877 102.521 132.997 102.634C131.406 102.856 129.501 102.985 127.36 102.83C123.082 102.53 119.681 101.241 117.43 100.149C115.073 99.0202 112.716 97.8912 110.367 96.7644L110.365 96.7728Z" fill="white"/>
<path opacity="0.2" d="M76.1973 46.1647L76.4469 43.0637L85.1927 46.6213L90.2628 56.2948L89.0232 59.749L85.8727 54.8821L83.0062 48.4991L76.1973 46.1647Z" fill="white"/>
<path opacity="0.2" d="M62.4768 74.5906L59.6104 73.3933L65.7048 66.1747L76.4735 64.3571L79.3658 66.614L73.762 68.087L66.8067 68.8451L62.4768 74.5906Z" fill="white"/>
<path opacity="0.2" d="M84.9265 97.4091L82.6454 99.5196L78.5996 90.9831L81.4058 80.4223L84.6597 78.7167L83.6783 84.4364L81.4833 91.0778L84.9265 97.4091Z" fill="white"/>
<path opacity="0.2" d="M114.323 82.4554L115.605 85.2894L106.24 86.4351L97.1067 80.4397L96.5127 76.8218L101.626 79.5525L107.238 83.7303L114.323 82.4554Z" fill="white"/>
<path opacity="0.2" d="M109.468 50.5751L112.523 49.9893L111.422 59.37L103.451 66.847L99.8008 66.5627L103.649 62.2385L109.029 57.7592L109.468 50.5751Z" fill="white"/>
</svg>
