<svg width="20" height="21" viewBox="0 0 20 21" fill="none" xmlns="http://www.w3.org/2000/svg">
<path d="M7.70833 18.8333L7.375 16.1667C7.19444 16.0972 7.02431 16.0139 6.86458 15.9167C6.70486 15.8194 6.54861 15.7153 6.39583 15.6042L3.91667 16.6458L1.625 12.6875L3.77083 11.0625C3.75694 10.9653 3.75 10.8715 3.75 10.7812V10.2187C3.75 10.1285 3.75694 10.0347 3.77083 9.93749L1.625 8.31249L3.91667 4.35416L6.39583 5.39582C6.54861 5.28471 6.70833 5.18055 6.875 5.08332C7.04167 4.9861 7.20833 4.90277 7.375 4.83332L7.70833 2.16666H12.2917L12.625 4.83332C12.8056 4.90277 12.9757 4.9861 13.1354 5.08332C13.2951 5.18055 13.4514 5.28471 13.6042 5.39582L16.0833 4.35416L18.375 8.31249L16.2292 9.93749C16.2431 10.0347 16.25 10.1285 16.25 10.2187V10.7812C16.25 10.8715 16.2361 10.9653 16.2083 11.0625L18.3542 12.6875L16.0625 16.6458L13.6042 15.6042C13.4514 15.7153 13.2917 15.8194 13.125 15.9167C12.9583 16.0139 12.7917 16.0972 12.625 16.1667L12.2917 18.8333H7.70833ZM10.0417 13.4167C10.8472 13.4167 11.5347 13.1319 12.1042 12.5625C12.6736 11.993 12.9583 11.3055 12.9583 10.5C12.9583 9.69443 12.6736 9.00693 12.1042 8.43749C11.5347 7.86805 10.8472 7.58332 10.0417 7.58332C9.22222 7.58332 8.53125 7.86805 7.96875 8.43749C7.40625 9.00693 7.125 9.69443 7.125 10.5C7.125 11.3055 7.40625 11.993 7.96875 12.5625C8.53125 13.1319 9.22222 13.4167 10.0417 13.4167Z" fill="#B0670B"/>
</svg>
