<svg width="222" height="188" viewBox="0 0 222 188" fill="none" xmlns="http://www.w3.org/2000/svg">
<g clip-path="url(#clip0_267_1724)">
<path d="M9.01199 4.65823C10.5932 3.79341 12.7289 3.50319 14.7677 3.5413C21.5707 3.66736 27.4673 7.21455 30.0635 11.4301C32.6597 15.6457 32.4837 20.3978 31.4804 24.9095C30.4771 29.4212 28.6906 33.8566 28.1831 38.4064C28.0628 39.4735 28.0276 40.5933 28.7023 41.5637C29.377 42.534 30.9641 43.3021 32.5248 43.0705C35.0183 42.7041 35.4173 40.4761 35.4378 38.764C35.5141 32.8364 37.7525 27.0055 38.1573 21.0809C38.5621 15.1591 36.7492 8.72137 30.263 4.69047C27.2267 2.80255 23.372 1.58301 19.3823 0.841328C15.6126 0.140684 10.9511 -0.501328 7.37505 0.568693C3.80192 1.63871 1.64573 4.75204 2.74583 7.27025C3.03919 7.94451 3.62884 8.59825 4.56466 8.91779C7.9295 10.0611 7.00541 5.75756 9.01493 4.65823H9.01199Z" fill="#F6C71F"/>
<path d="M18.6664 53.0174C17.1234 52.0499 16.299 50.6721 15.7504 49.306C13.6998 44.2051 14.8205 38.8139 15.0757 33.5342C15.3309 28.2544 14.4655 22.5525 9.31705 18.551C7.68303 17.2816 5.68232 16.2379 4.04537 14.9686C1.30539 12.8432 -0.343291 10.0113 0.0615454 7.21459C0.463448 4.41788 3.09489 1.72963 6.97604 0.668406C7.91185 0.41336 9.02662 0.257987 9.90377 0.598048C11.1799 1.09055 11.2474 2.35112 10.6401 3.25111C10.0328 4.1511 8.95328 4.88106 8.36069 5.78399C7.41608 7.22925 7.85612 8.93542 8.87701 10.3572C9.90083 11.779 11.4527 12.9898 12.8432 14.265C17.6455 18.6653 20.5938 23.9656 21.2627 29.4007C21.5619 31.828 21.4152 34.2788 21.9051 36.6915C22.395 39.1042 23.6007 41.552 26.1647 43.2758C27.2384 43.9999 28.5292 44.5803 29.4943 45.3689C31.2193 46.7819 31.7063 48.6786 32.0407 50.4874C32.4837 52.8737 31.7033 54.2369 28.0627 54.4743C24.8328 54.6825 21.1658 54.5857 18.6606 53.0174H18.6664Z" fill="#F6C71F"/>
<path d="M214.437 11.0139C213.361 9.85007 211.483 9.11132 209.535 8.70383C203.04 7.34358 195.741 9.41034 191.244 12.8344C186.747 16.2555 184.605 20.7907 183.367 25.273C182.129 29.7583 181.669 34.3433 179.944 38.7553C179.539 39.7901 179.029 40.8572 177.923 41.6282C176.814 42.3992 174.942 42.7803 173.575 42.2204C171.395 41.3292 172.1 39.1364 172.906 37.5152C175.708 31.8925 176.418 25.8887 178.908 20.2014C181.399 14.5113 186.231 8.82109 194.322 6.41721C198.109 5.29442 202.345 4.97781 206.478 5.14491C210.386 5.30321 215.109 5.71363 217.969 7.50189C220.832 9.29308 221.358 12.7054 219.099 14.8484C218.494 15.423 217.62 15.9125 216.582 16.0093C212.844 16.3581 215.807 12.4885 214.44 11.0139H214.437Z" fill="#F6C71F"/>
<path d="M181.86 54.6443C183.79 54.0639 185.233 52.944 186.418 51.7684C190.83 47.3916 192.385 42.0503 194.703 36.9992C197.02 31.9511 200.605 26.7446 207.414 24.0827C209.576 23.2355 211.973 22.6873 214.138 21.843C217.761 20.43 220.692 18.1082 221.668 15.376C222.645 12.6438 221.46 9.52753 218.301 7.67771C217.538 7.23211 216.558 6.84515 215.567 6.97414C214.12 7.16176 213.449 8.34025 213.583 9.32232C213.721 10.3044 214.39 11.2308 214.51 12.2128C214.704 13.7842 213.46 15.3056 211.803 16.4255C210.145 17.5454 208.089 18.3545 206.156 19.2574C199.479 22.3736 194.122 26.7446 190.854 31.7371C189.396 33.968 188.346 36.3162 186.712 38.4943C185.081 40.6695 182.751 42.7216 179.489 43.7946C178.122 44.2461 176.62 44.5128 175.323 45.0493C173.009 46.0079 171.627 47.6965 170.433 49.3352C168.858 51.4958 168.934 52.9557 172.261 53.9701C175.212 54.87 178.729 55.5766 181.86 54.6385V54.6443Z" fill="#F6C71F"/>
<path d="M186.442 39.1598H22.9877C22.9877 39.1598 20.0571 143.441 34.904 165.548C40.4192 173.76 46.8731 184.219 65.1582 186.219C76.6021 187.471 132.83 187.471 144.274 186.219C162.559 184.219 169.013 173.76 174.529 165.548C189.375 143.441 186.445 39.1598 186.445 39.1598H186.442Z" fill="#F6C71F"/>
<path d="M186.442 39.1598H22.9877C22.9877 39.1598 22.9789 39.4383 22.9672 39.9718C25.6162 40.0744 28.3562 40.4497 30.5329 40.5963C37.2186 41.0506 43.9248 41.4318 50.6457 41.7366C76.7107 42.9268 102.987 43.0119 129.081 41.9887C143.963 41.4054 158.787 40.4614 173.481 39.1598C171.692 40.7546 167.687 41.3409 164.067 41.7366C122.786 46.2718 79.9201 45.3571 37.688 44.1757C32.7566 44.0379 27.7988 43.9089 22.8968 43.5982C22.8763 44.8118 22.8528 46.2542 22.8322 47.8959C25.1762 48.0366 27.5319 48.3444 29.4475 48.4734C36.1332 48.9278 42.8394 49.3089 49.5603 49.6137C75.6253 50.804 101.902 50.889 127.996 49.8659C142.878 49.2825 157.701 48.3385 172.396 47.0369C170.606 48.6317 166.602 49.218 162.982 49.6137C121.7 54.1489 78.8346 53.2342 36.6026 52.0528C32.0027 51.9238 27.3764 51.8036 22.7941 51.5339C22.7794 53.1052 22.7706 54.7997 22.7648 56.6026C25.1322 56.7404 27.5143 57.0541 29.4504 57.186C36.1361 57.6404 42.8423 58.0215 49.5632 58.3264C75.6282 59.5166 101.904 59.6016 127.999 58.5785C142.881 57.9951 157.704 57.0511 172.399 55.7495C170.609 57.3443 166.605 57.9306 162.985 58.3264C121.703 62.8615 78.8376 61.9468 36.6055 60.7654C31.9939 60.6364 27.3559 60.5162 22.7618 60.2465C22.7618 61.3312 22.7618 62.4481 22.7677 63.5914C24.5073 63.7439 26.1883 63.9403 27.6228 64.037C34.3085 64.4914 41.0147 64.8725 47.7326 65.1774C73.7976 66.3676 100.074 66.4527 126.168 65.4295C141.05 64.8462 155.874 63.9022 170.568 62.6006C168.779 64.1953 164.774 64.7817 161.154 65.1774C119.873 69.7126 77.007 68.7979 34.7749 67.6165C30.7823 67.5051 26.7721 67.3995 22.7853 67.1973C22.7912 68.0474 22.8 68.9093 22.8088 69.7829C23.7211 69.8738 24.5924 69.9588 25.3845 70.0116C32.0701 70.466 38.7764 70.8471 45.4972 71.152C71.5622 72.3422 97.8385 72.4272 123.933 71.4041C138.815 70.8207 153.638 69.8767 168.333 68.5751C166.543 70.1699 162.539 70.7562 158.919 71.152C117.637 75.6871 74.7716 74.7724 32.5395 73.591C29.3155 73.5001 26.0768 73.4151 22.8498 73.2773C22.8587 73.9956 22.8704 74.7226 22.8821 75.4555C24.9914 75.6079 27.0742 75.8688 28.8021 75.9861C35.4878 76.4405 42.194 76.8216 48.9149 77.1265C74.9799 78.3167 101.256 78.4017 127.35 77.3786C142.233 76.7952 157.056 75.8512 171.75 74.5496C169.961 76.1444 165.957 76.7307 162.337 77.1265C121.055 81.6616 78.1892 80.747 35.9572 79.5655C31.6242 79.4454 27.2708 79.331 22.9496 79.0936C22.9731 80.2105 22.9965 81.3362 23.0229 82.4737C24.4369 82.6085 25.7893 82.758 26.9745 82.8372C33.6602 83.2916 40.3664 83.6727 47.0872 83.9775C73.1522 85.1678 99.4285 85.2528 125.523 84.2297C140.405 83.6463 155.228 82.7023 169.923 81.4007C168.133 82.9955 164.129 83.5818 160.509 83.9775C119.227 88.5127 76.3616 87.598 34.1295 86.4166C30.4625 86.314 26.7809 86.2173 23.1168 86.0472C23.1403 86.9208 23.1667 87.8003 23.196 88.6856C23.7329 88.7355 24.2492 88.7794 24.7391 88.8146C31.4248 89.269 38.131 89.6501 44.8518 89.955C70.9168 91.1452 97.1931 91.2302 123.287 90.2071C138.17 89.6237 152.993 88.6798 167.687 87.3782C165.898 88.9729 161.894 89.5592 158.274 89.955C116.992 94.4901 74.1262 93.5755 31.8941 92.3941C29.0397 92.3149 26.1736 92.2387 23.3163 92.1273C23.3544 93.1446 23.3926 94.1677 23.4336 95.1937C25.2818 95.3491 27.0801 95.5631 28.6026 95.6657C35.2883 96.1201 41.9945 96.5012 48.7124 96.8061C74.7775 97.9963 101.054 98.0813 127.148 97.0582C142.03 96.4748 156.854 95.5308 171.548 94.2292C169.759 95.824 165.754 96.4103 162.134 96.8061C120.853 101.341 77.9868 100.427 35.7547 99.2451C31.7034 99.1308 27.6345 99.0223 23.592 98.8171C23.6449 99.9575 23.7006 101.101 23.7593 102.244C24.833 102.35 25.8539 102.455 26.775 102.517C33.4607 102.971 40.1669 103.352 46.8877 103.657C72.9528 104.847 99.229 104.932 125.323 103.909C140.205 103.326 155.029 102.382 169.723 101.08C167.934 102.675 163.93 103.261 160.309 103.657C119.028 108.192 76.1621 107.278 33.93 106.096C30.6092 106.002 27.2737 105.914 23.9529 105.771C24.0028 106.668 24.0585 107.565 24.1142 108.462C24.258 108.474 24.4017 108.482 24.5425 108.494C31.2282 108.949 37.9344 109.33 44.6523 109.635C70.7174 110.825 96.9936 110.91 123.088 109.887C137.97 109.303 152.794 108.359 167.488 107.058C165.698 108.653 161.694 109.239 158.074 109.635C116.792 114.17 73.9267 113.255 31.6946 112.074C29.2451 112.006 26.7897 111.939 24.3372 111.851C24.3988 112.763 24.4633 113.671 24.5308 114.58C28.0365 113.586 33.1409 114.53 36.6671 114.785C42.9069 115.24 49.1672 115.621 55.4392 115.929C79.7704 117.122 104.295 117.204 128.653 116.184C142.544 115.6 156.381 114.659 170.096 113.358C168.424 114.952 164.686 115.539 161.31 115.935C122.777 120.47 82.7656 119.549 43.344 118.371C37.8523 118.206 32.3254 118.057 26.8894 117.591C26.1384 117.526 25.4138 117.468 24.7508 117.4C24.8506 118.626 24.9532 119.842 25.0618 121.053C28.2829 120.786 32.1318 121.434 34.9627 121.642C41.2024 122.097 47.4627 122.478 53.7348 122.786C78.066 123.979 102.591 124.061 126.949 123.041C140.839 122.457 154.677 121.516 168.391 120.215C166.719 121.809 162.982 122.396 159.605 122.791C121.073 127.327 81.0612 126.406 41.6395 125.228C36.2153 125.066 30.753 124.917 25.3845 124.465C25.4696 125.313 25.5546 126.157 25.6426 126.992C28.1685 127.083 30.797 127.473 32.8769 127.626C39.1166 128.08 45.3769 128.461 51.649 128.769C75.9802 129.962 100.505 130.044 124.86 129.024C138.75 128.441 152.588 127.5 166.303 126.198C164.631 127.793 160.893 128.379 157.517 128.775C118.984 133.31 78.9725 132.389 39.5508 131.211C35.0507 131.076 30.5271 130.95 26.0504 130.651C26.1795 131.747 26.3144 132.832 26.4523 133.905C29.6998 133.612 33.6103 134.274 36.4793 134.483C42.7191 134.937 48.9794 135.318 55.2514 135.626C79.5827 136.819 104.108 136.901 128.465 135.881C142.356 135.298 156.194 134.356 169.908 133.055C168.236 134.65 164.499 135.236 161.122 135.632C122.589 140.167 82.5779 139.249 43.1562 138.068C37.7379 137.907 32.2843 137.757 26.9188 137.306C27.086 138.458 27.259 139.589 27.438 140.703C29.9932 140.788 32.6657 141.187 34.772 141.339C41.0118 141.794 47.2721 142.175 53.5441 142.483C77.8753 143.676 102.397 143.758 126.758 142.738C140.648 142.154 154.486 141.213 168.201 139.912C166.529 141.507 162.791 142.093 159.415 142.489C120.882 147.024 80.8705 146.103 41.4489 144.925C36.9898 144.79 32.5073 144.664 28.0687 144.374C28.2271 145.236 28.3885 146.083 28.5557 146.912C30.0342 147.059 31.4541 147.229 32.6833 147.32C38.923 147.774 45.1833 148.155 51.4554 148.463C75.7866 149.656 100.311 149.738 124.669 148.718C138.56 148.135 152.398 147.194 166.112 145.892C164.44 147.487 160.703 148.073 157.326 148.469C118.793 153.004 78.7818 152.084 39.3601 150.905C36.0246 150.805 32.6774 150.709 29.3448 150.548C29.5942 151.618 29.8523 152.649 30.1193 153.649C33.0236 153.242 36.6378 153.96 39.2545 154.177C44.6934 154.631 50.147 155.012 55.6152 155.32C76.8192 156.513 98.1905 156.595 119.418 155.575C131.525 154.992 143.582 154.051 155.534 152.749C154.078 154.344 150.819 154.93 147.877 155.326C114.296 159.861 79.4272 158.944 45.0748 157.762C40.4133 157.601 35.7225 157.454 31.105 157.017C31.4952 158.237 31.9059 159.386 32.3312 160.453C34.2557 160.591 36.1919 160.905 37.7672 161.037C43.2061 161.491 48.6596 161.872 54.1249 162.18C75.329 163.373 96.7002 163.455 117.928 162.435C130.035 161.852 142.092 160.911 154.043 159.609C152.588 161.204 149.329 161.79 146.387 162.186C112.806 166.721 77.9369 165.8 43.5845 164.622C40.428 164.513 37.2567 164.411 34.1061 164.22C34.373 164.692 34.6429 165.135 34.9216 165.551C35.2443 166.032 35.5699 166.522 35.9014 167.017C35.9161 167.017 35.9308 167.017 35.9425 167.02C41.3814 167.474 46.8349 167.855 52.3032 168.163C73.5072 169.356 94.8785 169.439 116.106 168.418C128.213 167.835 140.27 166.894 152.222 165.592C150.766 167.187 147.507 167.773 144.565 168.169C110.984 172.704 76.1152 171.784 41.7628 170.605C40.6098 170.564 39.454 170.526 38.2982 170.485C38.5182 170.79 38.7441 171.095 38.9729 171.403C40.3605 171.558 41.7099 171.781 42.8482 171.886C47.7502 172.341 52.6669 172.722 57.5954 173.03C76.7078 174.223 95.9727 174.305 115.106 173.285C126.019 172.701 136.888 171.76 147.66 170.459C146.348 172.053 143.412 172.64 140.757 173.036C110.488 177.571 79.0605 176.65 48.0935 175.472C46.1103 175.395 44.1184 175.322 42.1324 175.22C46.9728 180.449 53.7758 184.985 65.1758 186.231C76.6198 187.482 132.848 187.482 144.292 186.231C162.577 184.231 169.031 173.771 174.546 165.56C189.393 143.453 186.462 39.1715 186.462 39.1715L186.442 39.1598Z" fill="#FBF023"/>
<path d="M186.442 39.1598H162.794C163.134 63.4038 163.173 139.583 150.734 158.102C145.219 166.313 138.765 176.773 120.48 178.773C110.242 179.892 64.1548 180.01 46.3684 179.127C50.8333 182.587 56.7416 185.301 65.1581 186.222C76.6021 187.473 132.83 187.473 144.274 186.222C162.559 184.222 169.013 173.763 174.528 165.551C189.375 143.444 186.445 39.1627 186.445 39.1627L186.442 39.1598Z" fill="#F6C71F"/>
<path opacity="0.16" d="M31.5361 51.0092C29.8816 64.5765 34.5578 78.091 36.3531 91.6495C37.9901 104.021 37.2273 116.483 38.3333 128.88C39.4422 141.278 42.5547 153.863 51.3233 164.807C53.8432 167.952 57.0937 171.098 62.0016 172.487C68.9513 174.457 77.3765 172.141 82.0644 168.178C86.7523 164.215 88.3629 158.999 88.8792 153.954C89.8971 143.99 87.207 134.049 85.9045 124.099C83.4696 105.489 85.9338 86.5984 93.1476 68.5547C94.4647 65.2566 95.9492 61.9528 96.2396 58.5434C96.53 55.134 95.4944 51.5399 92.2675 48.8985C88.9437 46.178 83.7777 44.809 78.7348 43.8357C64.457 41.083 33.3198 36.4071 31.5391 51.0092H31.5361Z" fill="white"/>
<path opacity="0.21" d="M45.4678 55.8111C45.1275 61.0586 47.1517 66.2328 47.8499 71.4627C48.5627 76.7953 47.8968 82.16 47.7267 87.5101C47.1928 104.255 51.5169 120.912 51.9423 137.657C52.0596 142.275 52.2121 147.455 57.1641 150.665C58.0383 151.234 59.1618 151.738 60.3734 151.664C62.4269 151.538 63.4302 149.926 63.7382 148.56C64.9088 143.345 62.4093 138.118 60.6169 132.982C53.2125 111.778 57.6892 89.4098 66.8068 68.5077C68.0477 65.6641 69.3825 62.8 69.6025 59.8391C69.8225 56.8782 68.7928 53.7532 65.8299 51.5545C63.0899 49.52 55.5506 45.8673 51.7369 46.8229C47.1781 47.9663 45.6497 53.0379 45.4707 55.8082L45.4678 55.8111Z" fill="white"/>
</g>
<defs>
<clipPath id="clip0_267_1724">
<rect width="222" height="187.157" fill="white"/>
</clipPath>
</defs>
</svg>
