<svg width="104" height="56" viewBox="0 0 104 56" fill="none" xmlns="http://www.w3.org/2000/svg">
<g clip-path="url(#clip0_350_2142)">
<path d="M59.487 33.2929C59.3604 32.9032 59.4676 32.8058 59.8573 32.796C60.4808 34.3938 60.6756 36.6832 59.9449 37.2288C59.9449 37.2288 60.0424 36.5079 59.7111 36.0207C59.7501 35.9818 59.7988 35.9038 59.8085 35.7382C59.8962 34.5886 59.7403 34.0625 59.487 33.2929Z" fill="#302D2D"/>
<path d="M53.8461 33.8677C53.583 34.6276 53.7584 35.5336 53.9143 36.1182C53.963 36.2935 54.0019 36.4397 54.0312 36.5468C54.1189 36.8976 54.2065 37.0242 54.265 37.0632C54.2163 37.599 54.4111 38.0861 54.4111 38.0861C53.2031 37.8523 52.9108 35.2511 53.3979 33.439C53.8753 33.2539 54.0312 33.3026 53.8461 33.8677Z" fill="#302D2D"/>
<path d="M56.7007 33.4682C56.6325 33.1662 56.4181 33.0883 56.35 33.6923C56.2818 34.2866 55.4244 34.1794 55.5511 33.6241C55.668 33.0786 55.3757 30.945 55.9408 30.7696C56.574 30.5748 56.7494 31.247 57.217 32.2699C57.6944 33.2929 57.7139 33.7215 57.4411 33.8872C57.1683 34.0528 56.7689 33.78 56.7007 33.4682Z" fill="#302D2D"/>
<path d="M54.4891 30.2533C54.5963 30.9255 54.4404 31.2762 53.4759 32.192C52.5114 33.1175 51.4203 33.1955 50.6604 32.3771C49.8907 31.5587 50.144 30.4578 51.1377 29.581C52.6478 28.2561 54.2845 28.8698 54.4891 30.2533Z" fill="#302D2D"/>
<path d="M57.2268 28.4022C55.7849 27.2916 54.6061 26.4635 54.2553 26.2491C51.6541 24.7196 49.3062 23.911 48.0007 24.3396C48.0689 24.0376 48.1469 23.7259 48.2443 23.4336C49.7836 22.586 52.6576 23.8817 55.5024 25.7815C56.0674 26.1517 56.8761 26.746 57.8016 27.4669C59.5844 26.0153 63.5593 29.1621 62.1954 31.3054C62.4097 31.5198 62.6728 31.8413 62.8774 32.0653C62.7215 32.3966 62.4584 32.6401 62.0395 32.7278C61.8349 32.5038 61.6303 32.2797 61.4063 32.0556C59.3311 33.2831 56.915 30.1266 57.2268 28.4022Z" fill="#302D2D"/>
<path fill-rule="evenodd" clip-rule="evenodd" d="M86.0907 18.9408C84.103 18.3437 82.1854 17.7678 80.4428 17.3641C73.7888 15.8345 61.9712 13.3697 49.5302 15.4643C37.0892 17.5492 27.2689 22.7808 21.8229 28.0515C20.0204 29.7927 18.5114 32.2714 16.9712 34.8012C13.858 39.9149 10.6177 45.2375 4.56909 45.1007C11.681 50.6051 21.5696 55.8465 25.7296 55.6419L25.7765 55.6396C30.7459 55.3936 45.9791 54.6397 65.9754 48.871C85.6993 43.1904 86.2742 42.615 90.8446 38.0407C90.9224 37.9628 91.0013 37.8838 91.0815 37.8036C94.7836 34.1015 99.6548 26.2978 102.198 21.1149C97.8278 22.4661 91.6817 20.6201 86.0907 18.9408ZM54.0897 19.2151C60.7047 18.2896 62.8578 22.0989 62.9747 27.4474H62.9845L64.2997 26.1712C64.3305 26.1416 64.3718 26.1054 64.4202 26.063C64.7853 25.7433 65.5532 25.0709 65.2349 24.1935C64.8842 23.1998 65.0693 22.4691 66.3456 22.1184C67.6218 21.7774 68.2551 22.4106 68.5571 23.9597C69.4631 23.6577 70.5933 24.1253 70.7004 25.6548C70.8563 27.8274 68.8883 27.8859 68.1382 27.6423C67.4462 27.4176 67.1604 27.7732 66.2793 28.8695C66.2051 28.9618 66.1267 29.0593 66.0436 29.1621C64.7186 30.7891 61.3088 33.8092 61.3088 33.8092C61.4605 34.2005 61.6318 34.5574 61.7886 34.884C62.0144 35.3543 62.21 35.7617 62.2733 36.1182C63.4326 36.8391 65.8 38.1543 66.6671 38.3297C67.5341 38.5051 68.3038 38.1933 68.9663 37.8133C69.6288 37.4237 70.6907 38.5635 70.7102 39.5378C70.7297 40.2392 70.0282 40.9114 69.2488 41.0576C69.2488 41.0576 69.4924 42.6748 68.1382 43.2301C67.1323 43.6426 66.7607 43.0069 66.3645 42.3291C66.2274 42.0945 66.0873 41.8548 65.9169 41.6519C65.2544 40.8627 61.981 38.9532 61.0067 38.6122C60.5391 39.3721 60.091 40.1028 59.9253 40.4048C59.6038 40.9796 58.6296 41.5349 57.9769 40.9504C57.6651 41.2719 57.0806 41.72 56.4571 41.3498C56.2118 41.2053 55.8525 41.0077 55.4479 40.7852C54.9524 40.5127 54.3892 40.203 53.8851 39.908C53.8851 39.908 51.8002 41.9539 50.105 43.7465H50.1148C50.446 44.1069 51.4397 46.8738 48.858 47.0686C46.286 47.2537 46.4614 45.1007 46.4614 45.1007C45.1949 45.8508 43.4023 44.4966 44.2109 42.6261C45.0097 40.7556 46.666 40.7458 47.835 41.2622C49.8809 39.2552 52.1996 37.3067 52.1996 37.3067C52.1704 36.3422 51.9471 35.075 51.7425 33.9936C50.7098 33.4286 45.0682 30.4773 44.3278 31.0619C43.5776 31.6367 42.6034 32.2894 41.7168 31.8315C40.8303 31.3639 39.9242 30.8475 40.3919 29.7174C40.8595 28.5873 42.2234 28.0515 42.2234 28.0515C41.8045 27.048 41.9604 26.1907 43.1782 25.7133C44.396 25.2359 45.1267 27.1844 45.1267 27.1844C45.4655 27.7133 46.3721 28.137 47.4481 28.64C47.6406 28.7299 47.8386 28.8224 48.0396 28.9185C47.8156 27.4085 47.7181 25.8107 48.0007 24.3396C48.0689 24.0376 48.1468 23.7259 48.2442 23.4336C48.9359 21.3585 50.6019 19.7022 54.0897 19.2151Z" fill="#302D2D"/>
<path d="M23.0803 15.1488C23.6364 18.3443 15.5875 20.7739 8.17383 26.0056C12.027 18.426 14.7388 10.0768 16.1435 5.22506C17.1873 8.71283 19.3905 6.40265 23.0803 15.1488Z" fill="#352E2F"/>
<path d="M20.313 0.870211L33.6979 3.75156C29.5184 5.42725 25.3568 8.17111 21.9957 10.558L17.0378 2.43827L17.2538 1.0748L20.313 0.870211Z" fill="#403B3B"/>
<path d="M102.95 18.1249L87.6656 20.2337L69.6455 5.78972L88.5972 10.6243C91.6995 11.8029 97.0581 14.752 97.0581 14.752L102.95 18.1249Z" fill="#403B3B"/>
<path d="M83.8844 16.6596C75.3501 14.2872 65.2837 10.5239 56.7494 11.1947C38.0342 12.6629 18.3566 23.0044 14.9078 31.1131C11.6636 38.7357 3.71003 44.82 3.71003 44.82L0.556546 43.0014C0.312986 42.7584 -0.720629 38.897 -0.720629 38.897C-0.76179 38.913 3.19777 32.9507 3.19777 32.9507C3.19777 32.9507 7.48212 29.697 9.96643 27.908C17.1076 22.7453 29.1687 18.8173 23.255 11.9337C22.7484 11.3503 22.2711 10.7669 21.8132 10.1933L29.2062 3.91977L36.3635 1.80357L52.5345 -0.427578L68.4611 2.11559C68.4611 2.11559 79.4004 11.3503 83.7163 15.4436L83.8844 16.6596Z" fill="#1C1B1B"/>
<path d="M1.71338 43.5266C5.65798 47.3651 15.3689 28.8363 15.3689 28.8363L21.9046 22.986L29.8048 17.7845L52.1988 10.2284L67.9139 10.9465L84.0246 16.7509L102.95 18.1249C102.95 18.1249 102.368 20.9828 101.627 22.5221L89.732 21.6073L79.3069 20.355C74.718 19.2868 60.4434 16.0698 60.4434 16.0698L47.5366 17.873L35.2004 22.2281L20.6533 31.6259L15.226 39.2401C15.226 39.2401 8.69218 46.5875 5.21542 46.5078C5.21542 46.5078 2.76207 44.5106 1.71338 43.5266Z" fill="#F9503A"/>
<path d="M8.29235 25.767L21.6825 16.4703L16.0754 5.27987L17.3204 2.85081L21.6518 9.70253L24.0122 12.0857L25.5534 15.076L23.4396 19.3883L9.19383 29.0287L3.19775 33.0164C3.19775 33.0164 8.29364 25.767 8.29235 25.767Z" fill="#F9503A"/>
</g>
<defs>
<clipPath id="clip0_350_2142">
<rect width="104" height="55.1517" fill="white" transform="translate(0 0.5)"/>
</clipPath>
</defs>
</svg>
