<svg width="260" height="195" viewBox="0 0 260 195" fill="none" xmlns="http://www.w3.org/2000/svg">
<path d="M0.25 60.4L52.74 177.55L141.31 160.52L197.09 194.14L259.42 94.2999L169.2 0.339966L48.01 14.4399L0.25 60.4Z" fill="#9A583D"/>
<path d="M0.25 60.3999L52.74 177.55L141.31 160.52L197.09 194.14L259.42 94.2999L196.82 169.9L141.31 127.27L57.66 153.29L0.25 60.3999Z" fill="#7A583D"/>
<path d="M18.8799 42.4799L37.3799 68.8099H67.0999L91.7099 79.8599L62.5799 61.1699H38.6099L22.3199 39.1699L18.8799 42.4799Z" fill="#7A583D"/>
<path d="M221.61 54.9199L158.44 41.6299L101.16 50.9699L72.5303 39.1699L101.16 43.33L166.12 34.83L214.58 47.5999L221.61 54.9199Z" fill="#7A583D"/>
<path d="M253.93 88.59L209.22 108.74L170.84 101.94L147.07 91.89L181.54 97.2399L214.1 98.6599L248.52 82.95L253.93 88.59Z" fill="#7A583D"/>
<path d="M168.18 53.9L155.07 25L122.01 26.86L108.9 49.59L122.79 72.25L158.11 64.05L138.41 101.51L106.25 112.46L87 83.7" stroke="#FFFF00" stroke-width="20" stroke-miterlimit="10"/>
</svg>
