<svg width="260" height="195" viewBox="0 0 260 195" fill="none" xmlns="http://www.w3.org/2000/svg">
<path d="M0.140625 60.9099L52.6306 178.06L141.211 161.03L196.981 194.65L259.311 94.8099L169.091 0.849854L47.9106 14.9498L0.140625 60.9099Z" fill="#9A583D"/>
<path d="M0.140625 60.9099L52.6306 178.06L141.211 161.03L196.981 194.65L259.311 94.8099L196.721 170.41L141.211 127.78L57.5506 153.8L0.140625 60.9099Z" fill="#7A583D"/>
<path d="M18.7705 42.9899L37.2805 69.3198H67.0005L91.6105 80.3699L62.4805 61.6799H38.5005L22.2105 39.6799L18.7705 42.9899Z" fill="#7A583D"/>
<path d="M221.501 55.4299L158.331 42.1399L101.051 51.4799L72.4307 39.6799L101.051 43.8398L166.011 35.3398L214.471 48.1099L221.501 55.4299Z" fill="#7A583D"/>
<path d="M253.831 89.1L209.121 109.25L170.741 102.45L146.961 92.4L181.431 97.75L214.001 99.1699L248.421 83.46L253.831 89.1Z" fill="#7A583D"/>
<path d="M103.35 58.3L117.64 44.79L157.66 43L161.77 70.75L98 92.37L158.91 106.95" stroke="#FFFF00" stroke-width="20" stroke-miterlimit="10"/>
</svg>
