<svg width="261" height="195" viewBox="0 0 261 195" fill="none" xmlns="http://www.w3.org/2000/svg">
<path d="M0.910156 60.4099L53.4001 177.56L141.98 160.53L197.75 194.15L260.08 94.3099L169.86 0.349854L48.6801 14.4498L0.910156 60.4099Z" fill="#9A583D"/>
<path d="M0.910156 60.4099L53.4001 177.56L141.98 160.53L197.75 194.15L260.08 94.3099L197.49 169.91L141.98 127.28L58.3202 153.3L0.910156 60.4099Z" fill="#7A583D"/>
<path d="M19.54 42.4899L38.05 68.8198H67.77L92.3801 79.8599L63.25 61.1799H39.2701L22.98 39.1799L19.54 42.4899Z" fill="#7A583D"/>
<path d="M222.27 54.9299L159.1 41.6399L101.82 50.9799L73.2002 39.1799L101.82 43.3398L166.78 34.8398L215.24 47.6099L222.27 54.9299Z" fill="#7A583D"/>
<path d="M254.6 88.59L209.89 108.75L171.51 101.95L147.73 91.9L182.2 97.25L214.77 98.67L249.19 82.96L254.6 88.59Z" fill="#7A583D"/>
<path d="M177.84 55.52L164.58 37.4199L135.45 25L106.58 44.6L98.61 61.6L87 86.33L105.04 110.63L147.19 106.94L154.08 82.97L109.3 54.89" stroke="#FFFF00" stroke-width="20" stroke-miterlimit="10"/>
</svg>
