<svg width="260" height="195" viewBox="0 0 260 195" fill="none" xmlns="http://www.w3.org/2000/svg">
<path d="M0.5 60.4799L52.99 177.63L141.57 160.59L197.34 194.22L259.67 94.3699L169.45 0.419922L48.27 14.52L0.5 60.4799Z" fill="#9A583D"/>
<path d="M0.5 60.48L52.99 177.63L141.57 160.59L197.34 194.22L259.67 94.37L197.08 169.98L141.57 127.35L57.91 153.37L0.5 60.48Z" fill="#7A583D"/>
<path d="M19.1299 42.56L37.6399 68.89H67.3599L91.9698 79.93L62.8399 61.25H38.8599L22.5699 39.25L19.1299 42.56Z" fill="#7A583D"/>
<path d="M221.86 54.9999L158.69 41.71L101.41 51.0499L72.79 39.2499L101.41 43.4L166.37 34.9099L214.83 47.6799L221.86 54.9999Z" fill="#7A583D"/>
<path d="M254.19 88.66L209.48 108.82L171.1 102.02L147.32 91.97L181.79 97.3199L214.36 98.74L248.78 83.03L254.19 88.66Z" fill="#7A583D"/>
<path d="M127.04 59.69L120.51 29.54L153.39 22L169.16 54.8L136.19 64.53L153.46 99.17C153.46 99.17 105.79 114.82 106.25 112.72C106.71 110.62 90 69.72 90 69.72L127.04 59.71V59.69Z" stroke="#FFFF00" stroke-width="20" stroke-miterlimit="10"/>
</svg>
