<svg width="100" height="77" viewBox="0 0 100 77" fill="none" xmlns="http://www.w3.org/2000/svg">
<path d="M65.1123 4.25977L95.1855 35.2891L96.5527 36.7002L95.5049 38.3623L74.7285 71.333L73.4268 73.3975L71.3311 72.1465L53.5566 61.5312L24.9648 66.9775L23.0303 67.3457L22.2188 65.5518L4.72168 26.8643L3.99121 25.248L5.27539 24.0244L21.1982 8.84668L21.8047 8.26855L22.6367 8.17285L63.0303 3.5166L64.2539 3.375L65.1123 4.25977Z" fill="#9A583D" stroke="#FBF023" stroke-width="5"/>
<path d="M7 25.834L24.4967 64.5213L54.0233 58.8974L72.6133 69.9999L93.39 37.029L72.5267 61.995L54.0233 47.917L26.1367 56.5097L7 25.834Z" fill="#7A583D"/>
<path d="M13.21 19.9163L19.38 28.6115H29.2866L37.49 32.2606L27.78 26.0885H19.7866L14.3566 18.8232L13.21 19.9163Z" fill="#7A583D"/>
<path d="M80.7872 24.0244L59.7305 19.6355L40.6372 22.7199L31.0972 18.8231L40.6372 20.1969L62.2905 17.3899L78.4438 21.607L80.7872 24.0244Z" fill="#7A583D"/>
<path d="M91.5638 35.1433L76.6604 41.7976L63.8671 39.552L55.9404 36.2331L67.4304 37.9999L78.2871 38.4688L89.7604 33.2808L91.5638 35.1433Z" fill="#7A583D"/>
<path d="M30.4032 27.9973L43.3765 20.8674L34.9332 39.2782L27.1665 37.4817L43.3765 41.4511" stroke="#FDE546" stroke-width="6.66667" stroke-miterlimit="10"/>
<path d="M50.7367 29.9787L63.71 22.8489L55.2667 41.2596L47.5 39.4631L63.71 43.4326" stroke="#FDE546" stroke-width="6.66667" stroke-miterlimit="10"/>
</svg>
