<svg width="100" height="77" viewBox="0 0 100 77" fill="none" xmlns="http://www.w3.org/2000/svg">
<path d="M64.8923 4.25977L94.9656 35.2891L96.3328 36.7002L95.2849 38.3623L74.5085 71.333L73.2068 73.3975L71.1121 72.1465L53.3337 61.5312L24.7449 66.9775L22.8103 67.3457L21.9988 65.5518L4.50171 26.8643L3.77124 25.248L5.05542 24.0244L20.9753 8.84668L21.5818 8.26855L22.4138 8.17285L62.8103 3.5166L64.0339 3.375L64.8923 4.25977Z" fill="#9A583D" stroke="#FBF023" stroke-width="5"/>
<path d="M6.78003 25.834L24.2767 64.5213L53.8 58.8974L72.3934 69.9999L93.17 37.029L72.3034 61.995L53.8 47.917L25.9167 56.5097L6.78003 25.834Z" fill="#7A583D"/>
<path d="M12.99 19.9163L19.1567 28.6115H29.0633L37.2667 32.2606L27.5567 26.0885H19.5667L14.1367 18.8232L12.99 19.9163Z" fill="#7A583D"/>
<path d="M80.5671 24.0246L59.5104 19.6357L40.4171 22.7202L30.8738 18.8234L40.4171 20.1972L62.0704 17.3901L78.2238 21.6073L80.5671 24.0246Z" fill="#7A583D"/>
<path d="M91.34 35.1433L76.4366 41.7976L63.6433 39.552L55.72 36.2331L67.21 37.9998L78.0633 38.4688L89.5366 33.2808L91.34 35.1433Z" fill="#7A583D"/>
<path d="M62.8234 23.9452L58.4534 14.4014L47.4334 15.0156L43.0634 22.5219L47.6934 30.0051L59.4668 27.2971L52.9001 39.6678L42.1801 43.2839L35.7634 33.7863" stroke="#FDE546" stroke-width="6.66667" stroke-miterlimit="10"/>
</svg>
