<svg width="100" height="77" viewBox="0 0 100 77" fill="none" xmlns="http://www.w3.org/2000/svg">
<path d="M64.5023 4.25977L94.5756 35.2891L95.9427 36.7002L94.8949 38.3623L74.1185 71.333L72.8168 73.3984L70.7211 72.1465L52.9437 61.5273L24.3549 66.9775L22.4203 67.3457L21.6088 65.5518L4.11169 26.8643L3.38123 25.248L4.66541 24.0244L20.5853 8.84668L21.1918 8.26855L22.0238 8.17285L62.4203 3.5166L63.6439 3.375L64.5023 4.25977Z" fill="#9A583D" stroke="#FBF023" stroke-width="5"/>
<path d="M6.39001 25.8337L23.8867 64.5211L53.41 58.8938L72.0033 69.9997L92.78 37.0288L71.9133 61.9947L53.41 47.9167L25.5267 56.5095L6.39001 25.8337Z" fill="#7A583D"/>
<path d="M12.6 19.9163L18.7666 28.6115H28.6733L36.8766 32.2573L27.1666 26.0885H19.1766L13.7466 18.8232L12.6 19.9163Z" fill="#7A583D"/>
<path d="M80.1766 24.0244L59.1199 19.6355L40.0266 22.7199L30.4833 18.8231L40.0266 20.1969L61.68 17.3899L77.8333 21.607L80.1766 24.0244Z" fill="#7A583D"/>
<path d="M90.95 35.14L76.0466 41.7976L63.2533 39.552L55.33 36.2331L66.82 37.9998L77.6733 38.4688L89.1466 33.2808L90.95 35.14Z" fill="#7A583D"/>
<path d="M29.1999 25.1506L42.1733 18.0208L33.7299 36.4315L25.9633 34.635L42.1733 38.6045" stroke="#FDE546" stroke-width="6.66667" stroke-miterlimit="10"/>
<path d="M48.87 34.8066L52.6633 42.6068L63.1567 37.2767L67.4633 26.4218L65.25 17.9744L54.1533 20.0086L48.87 34.8066Z" stroke="#FDE546" stroke-width="6.66667" stroke-miterlimit="10"/>
</svg>
