<svg width="260" height="195" viewBox="0 0 260 195" fill="none" xmlns="http://www.w3.org/2000/svg">
<path d="M0.370117 60.59L52.8601 177.73L141.44 160.7L197.21 194.32L259.54 94.48L169.32 0.530029L48.1401 14.63L0.370117 60.59Z" fill="#9A583D"/>
<path d="M0.370117 60.5898L52.8601 177.73L141.44 160.7L197.21 194.32L259.54 94.4799L196.95 170.09L141.44 127.46L57.7802 153.48L0.370117 60.5898Z" fill="#7A583D"/>
<path d="M19 42.6702L37.51 69.0001H67.23L91.84 80.0402L62.71 61.3501H38.73L22.44 39.3501L19 42.6702Z" fill="#7A583D"/>
<path d="M221.73 55.11L158.56 41.8101L101.28 51.16L72.6602 39.35L101.28 43.51L166.24 35.02L214.7 47.79L221.73 55.11Z" fill="#7A583D"/>
<path d="M254.06 88.7699L209.35 108.92L170.97 102.13L147.19 92.0798L181.66 97.4299L214.23 98.8499L248.65 83.1299L254.06 88.7699Z" fill="#7A583D"/>
<path d="M115.36 28.97L104 60.62L145.38 71.1801L156.32 26L134.61 120.21" stroke="#FFFF00" stroke-width="20" stroke-miterlimit="10"/>
</svg>
