<svg width="100" height="77" viewBox="0 0 100 77" fill="none" xmlns="http://www.w3.org/2000/svg">
<path d="M65.1123 4.25977L95.1855 35.2891L96.5527 36.7002L95.5049 38.3623L74.7285 71.333L73.4268 73.3975L71.332 72.1465L53.5537 61.5312L24.9648 66.9775L23.0303 67.3457L22.2188 65.5518L4.72168 26.8643L3.99121 25.248L5.27539 24.0244L21.1953 8.84961L21.8018 8.27246L22.6338 8.17578L63.0303 3.5166L64.2539 3.375L65.1123 4.25977Z" fill="#9A583D" stroke="#FBF023" stroke-width="5"/>
<path d="M7 25.8342L24.4967 64.5215L54.02 58.8976L72.6133 70.0002L93.39 37.0292L72.5233 61.9952L54.02 47.9172L26.1367 56.5099L7 25.8342Z" fill="#7A583D"/>
<path d="M13.21 19.9163L19.3766 28.6115H29.2833L37.4866 32.2606L27.7766 26.0885H19.7866L14.3566 18.8232L13.21 19.9163Z" fill="#7A583D"/>
<path d="M80.7861 24.0246L59.7294 19.6358L40.6361 22.7202L31.0928 18.8234L40.6361 20.1972L62.2894 17.3901L78.4428 21.6073L80.7861 24.0246Z" fill="#7A583D"/>
<path d="M91.56 35.1435L76.6566 41.7978L63.8633 39.5522L55.9399 36.2333L67.43 38.0001L78.2833 38.469L89.7566 33.281L91.56 35.1435Z" fill="#7A583D"/>
<path d="M40.8527 14.8208L64.5394 24.4307L35.0127 46.6689" stroke="#FDE546" stroke-width="6.66667" stroke-miterlimit="10"/>
<path d="M41.313 30.5137L59.7863 39.364" stroke="#FDE546" stroke-width="6.66667" stroke-miterlimit="10"/>
</svg>
