<svg width="100" height="77" viewBox="0 0 100 77" fill="none" xmlns="http://www.w3.org/2000/svg">
<path d="M64.5013 4.25977L94.5756 35.2861L95.9427 36.6963L94.8949 38.3584L74.1185 71.333L72.8168 73.3984L70.7211 72.1465L52.9467 61.5273L24.3549 66.9775L22.4203 67.3457L21.6088 65.5518L4.11169 26.8643L3.38123 25.248L4.66541 24.0244L20.5883 8.84668L21.1947 8.26855L22.0267 8.17285L62.4203 3.5166L63.6439 3.375L64.5013 4.25977Z" fill="#9A583D" stroke="#FBF023" stroke-width="5"/>
<path d="M6.39001 25.834L23.8867 64.5212L53.4134 58.894L72.0034 69.9999L92.78 37.0257L71.9167 61.9949L53.4134 47.9169L25.5267 56.5097L6.39001 25.834Z" fill="#7A583D"/>
<path d="M12.6005 19.9163L18.7705 28.6115H28.6771L36.8805 32.2573L27.1705 26.0885H19.1771L13.7471 18.8232L12.6005 19.9163Z" fill="#7A583D"/>
<path d="M80.1767 24.0244L59.12 19.6355L40.0267 22.7199L30.4867 18.8231L40.0267 20.1936L61.68 17.3899L77.8334 21.607L80.1767 24.0244Z" fill="#7A583D"/>
<path d="M90.9533 35.1402L76.0499 41.7978L63.2566 39.5522L55.33 36.2333L66.8199 38.0001L77.6766 38.469L89.15 33.281L90.9533 35.1402Z" fill="#7A583D"/>
<path d="M49.0233 25.3026L46.8466 15.3459L57.8066 12.856L63.0633 23.6877L52.0733 26.9009L57.83 38.3403C57.83 38.3403 41.94 43.5086 42.0933 42.8151C42.2466 42.1216 36.6766 28.6149 36.6766 28.6149L49.0233 25.3092V25.3026Z" stroke="#FDE546" stroke-width="6.66667" stroke-miterlimit="10"/>
</svg>
