<svg width="260" height="195" viewBox="0 0 260 195" fill="none" xmlns="http://www.w3.org/2000/svg">
<path d="M0.719727 60.6799L53.2097 177.83L141.78 160.8L197.56 194.42L259.89 94.5798L169.67 0.619873L48.4797 14.7299L0.719727 60.6799Z" fill="#9A583D"/>
<path d="M0.719727 60.6799L53.2097 177.83L141.78 160.8L197.56 194.42L259.89 94.5798L197.29 170.18L141.78 127.55L58.1297 153.57L0.719727 60.6799Z" fill="#7A583D"/>
<path d="M19.3496 42.7599L37.8496 69.0898H67.5696L92.1796 80.1399L63.0496 61.4498H39.0796L22.7896 39.4498L19.3496 42.7599Z" fill="#7A583D"/>
<path d="M222.08 55.1998L158.91 41.9099L101.63 51.2499L73 39.4498L101.63 43.6099L166.59 35.1099L215.05 47.8799L222.08 55.1998Z" fill="#7A583D"/>
<path d="M254.4 88.8699L209.69 109.02L171.31 102.22L147.54 92.1699L182.01 97.5199L214.57 98.9398L248.99 83.2299L254.4 88.8699Z" fill="#7A583D"/>
<path d="M103.52 27L174.58 56.1001L86 123.44" stroke="#FFFF00" stroke-width="20" stroke-miterlimit="10"/>
<path d="M104.9 74.52L160.32 101.32" stroke="#FFFF00" stroke-width="20" stroke-miterlimit="10"/>
</svg>
