<svg width="100" height="77" viewBox="0 0 100 77" fill="none" xmlns="http://www.w3.org/2000/svg">
<path d="M64.5023 4.26025L94.5756 35.2896L95.9427 36.7007L94.8949 38.3628L74.1185 71.3335L72.8168 73.3979L70.7211 72.147L52.9467 61.5317L24.3549 66.978L22.4203 67.3462L21.6088 65.5522L4.11169 26.8647L3.38123 25.2485L4.66541 24.0249L20.5883 8.84717L21.1947 8.26904L22.0267 8.17334L62.4203 3.51709L63.6439 3.37549L64.5023 4.26025Z" fill="#9A583D" stroke="#FBF023" stroke-width="5"/>
<path d="M6.39001 25.8342L23.8867 64.5216L53.4133 58.8976L72.0033 70.0001L92.78 37.0293L71.9167 61.9952L53.4133 47.9172L25.5267 56.51L6.39001 25.8342Z" fill="#7A583D"/>
<path d="M12.5995 19.9166L18.7695 28.6117H28.6761L36.8795 32.2608L27.1695 26.0887H19.1761L13.7462 18.8235L12.5995 19.9166Z" fill="#7A583D"/>
<path d="M80.1762 24.0246L59.1195 19.6358L40.0262 22.7202L30.4862 18.8234L40.0262 20.1972L61.6795 17.3901L77.8329 21.6073L80.1762 24.0246Z" fill="#7A583D"/>
<path d="M90.9533 35.1436L76.0499 41.7978L63.2566 39.5522L55.33 36.2334L66.8199 38.0001L77.6766 38.469L89.1499 33.281L90.9533 35.1436Z" fill="#7A583D"/>
<path d="M40.6626 24.8832L45.4259 20.4217L58.766 19.8306L60.1359 28.9947L38.8793 36.1344L59.1826 40.9492" stroke="#FDE546" stroke-width="6.66667" stroke-miterlimit="10"/>
</svg>
