<svg width="260" height="195" viewBox="0 0 260 195" fill="none" xmlns="http://www.w3.org/2000/svg">
<path d="M0.759766 60.9598L53.2498 178.1L141.83 161.07L197.6 194.69L259.93 94.8499L169.71 0.899902L48.5298 14.9999L0.759766 60.9598Z" fill="#9A583D"/>
<path d="M0.759766 60.96L53.2498 178.1L141.83 161.07L197.6 194.69L259.93 94.85L197.34 170.46L141.83 127.82L58.1698 153.84L0.759766 60.96Z" fill="#7A583D"/>
<path d="M19.3896 43.0298L37.8996 69.3698H67.6196L92.2296 80.4098L63.0996 61.7197H39.1196L22.8296 39.7197L19.3896 43.0298Z" fill="#7A583D"/>
<path d="M222.12 55.4799L158.95 42.1799L101.67 51.5299L73.0498 39.7198L101.67 43.8799L166.63 35.3899L215.09 48.1499L222.12 55.4799Z" fill="#7A583D"/>
<path d="M254.45 89.14L209.74 109.29L171.36 102.5L147.58 92.4399L182.05 97.79L214.62 99.22L249.04 83.5L254.45 89.14Z" fill="#7A583D"/>
<path d="M182.45 45.85L128.25 35L110 58L141 69L142 95L119.87 109L82.72 100.1L77 78.9399" stroke="#FFFF00" stroke-width="20" stroke-miterlimit="10"/>
</svg>
