<svg width="87" height="64" viewBox="0 0 87 64" fill="none" xmlns="http://www.w3.org/2000/svg">
<path d="M0 19.8341L17.4967 58.5214L47.0233 52.8974L65.6133 64L86.39 31.0291L56.3167 0L15.9233 4.65635L0 19.8341Z" fill="#9A583D"/>
<path d="M0 19.834L17.4967 58.5213L47.0233 52.8974L65.6133 63.9999L86.39 31.029L65.5267 55.995L47.0233 41.917L19.1367 50.5097L0 19.834Z" fill="#7A583D"/>
<path d="M6.20996 13.9163L12.38 22.6115H22.2866L30.49 26.2606L20.78 20.0885H12.7866L7.35663 12.8232L6.20996 13.9163Z" fill="#7A583D"/>
<path d="M73.7872 18.0244L52.7305 13.6355L33.6372 16.7199L24.0972 12.8231L33.6372 14.1969L55.2905 11.3899L71.4438 15.607L73.7872 18.0244Z" fill="#7A583D"/>
<path d="M84.5638 29.1433L69.6604 35.7976L56.8671 33.552L48.9404 30.2331L60.4304 31.9999L71.2871 32.4688L82.7604 27.2808L84.5638 29.1433Z" fill="#7A583D"/>
<path d="M23.4032 21.9973L36.3765 14.8674L27.9332 33.2782L20.1665 31.4817L36.3765 35.4511" stroke="#FDE546" stroke-width="6.66667" stroke-miterlimit="10"/>
<path d="M43.7367 23.9787L56.71 16.8489L48.2667 35.2596L40.5 33.4631L56.71 37.4326" stroke="#FDE546" stroke-width="6.66667" stroke-miterlimit="10"/>
</svg>
