<svg width="87" height="64" viewBox="0 0 87 64" fill="none" xmlns="http://www.w3.org/2000/svg">
<path d="M0.390015 19.8341L17.8867 58.5214L47.41 52.8941L66.0033 64L86.78 31.0291L56.7067 0L16.31 4.65636L0.390015 19.8341Z" fill="#9A583D"/>
<path d="M0.390015 19.8337L17.8867 58.5211L47.41 52.8938L66.0033 63.9997L86.78 31.0288L65.9133 55.9947L47.41 41.9167L19.5267 50.5095L0.390015 19.8337Z" fill="#7A583D"/>
<path d="M6.59998 13.9163L12.7666 22.6115H22.6733L30.8766 26.2573L21.1666 20.0885H13.1766L7.74664 12.8232L6.59998 13.9163Z" fill="#7A583D"/>
<path d="M74.1766 18.0244L53.1199 13.6355L34.0266 16.7199L24.4833 12.8231L34.0266 14.1969L55.68 11.3899L71.8333 15.607L74.1766 18.0244Z" fill="#7A583D"/>
<path d="M84.95 29.14L70.0466 35.7976L57.2533 33.552L49.33 30.2331L60.82 31.9998L71.6733 32.4688L83.1466 27.2808L84.95 29.14Z" fill="#7A583D"/>
<path d="M23.1999 19.1506L36.1733 12.0208L27.7299 30.4315L19.9633 28.635L36.1733 32.6045" stroke="#FDE546" stroke-width="6.66667" stroke-miterlimit="10"/>
<path d="M42.87 28.8066L46.6633 36.6068L57.1567 31.2767L61.4633 20.4218L59.25 11.9744L48.1533 14.0086L42.87 28.8066Z" stroke="#FDE546" stroke-width="6.66667" stroke-miterlimit="10"/>
</svg>
