<svg width="100" height="77" viewBox="0 0 100 77" fill="none" xmlns="http://www.w3.org/2000/svg">
<path d="M64.5023 4.26025L94.5756 35.2876L95.9427 36.6987L94.8949 38.3608L74.1185 71.3335L72.8168 73.3989L70.7211 72.147L52.9467 61.5308L24.3549 66.9771L22.4203 67.3462L21.6088 65.5522L4.11169 26.8657L3.38123 25.2495L4.66541 24.0259L20.5883 8.84717L21.1947 8.26904L22.0267 8.17334L62.4203 3.51709L63.6439 3.37549L64.5023 4.26025Z" fill="#9A583D" stroke="#FBF023" stroke-width="5"/>
<path d="M6.39001 25.8357L23.8867 64.5217L53.4133 58.8975L72.0033 70.0006L92.78 37.028L71.9167 61.9986L53.4133 47.9198L25.5267 56.513L6.39001 25.8357Z" fill="#7A583D"/>
<path d="M12.6 19.9173L18.77 28.6129H28.6766L36.88 32.2589L27.17 26.0864H19.1766L13.7466 18.8208L12.6 19.9173Z" fill="#7A583D"/>
<path d="M80.1767 24.0259L59.12 19.6336L40.0267 22.7214L30.4867 18.8211L40.0267 20.195L61.68 17.3911L77.8334 21.6085L80.1767 24.0259Z" fill="#7A583D"/>
<path d="M90.9533 35.1419L76.0499 41.7966L63.2566 39.5541L55.33 36.2351L66.8199 38.002L77.6766 38.4709L89.15 33.2793L90.9533 35.1419Z" fill="#7A583D"/>
<path d="M44.5736 15.2675L40.787 25.72L54.5803 29.2075L58.227 14.2866L50.9903 45.3999" stroke="#FDE546" stroke-width="6.66667" stroke-miterlimit="10"/>
</svg>
