<svg width="87" height="64" viewBox="0 0 87 64" fill="none" xmlns="http://www.w3.org/2000/svg">
<path d="M0.390015 19.8341L17.8867 58.5214L47.41 52.8974L66.0033 64L86.78 31.0291L56.7067 0L16.31 4.65635L0.390015 19.8341Z" fill="#9A583D"/>
<path d="M0.390015 19.834L17.8867 58.5213L47.41 52.8973L66.0033 63.9999L86.78 31.029L65.9133 55.995L47.41 41.9169L19.5267 50.5097L0.390015 19.834Z" fill="#7A583D"/>
<path d="M6.59998 13.9163L12.7666 22.6115H22.6733L30.8766 26.2573L21.1666 20.0885H13.1766L7.74664 12.8232L6.59998 13.9163Z" fill="#7A583D"/>
<path d="M74.1766 18.0246L53.1199 13.6358L34.0266 16.7202L24.4833 12.8234L34.0266 14.1972L55.6799 11.3901L71.8333 15.6073L74.1766 18.0246Z" fill="#7A583D"/>
<path d="M84.95 29.1433L70.0466 35.7976L57.2533 33.552L49.33 30.2331L60.82 31.9999L71.6733 32.4688L83.1466 27.2808L84.95 29.1433Z" fill="#7A583D"/>
<path d="M48.6902 20.7062L52.2869 15.3002L62.5069 14.4878L63.6669 25.5078L47.4569 34.269L63.0802 39.9095" stroke="#FDE546" stroke-width="6.66667" stroke-miterlimit="10"/>
<path d="M23.4035 21.7065L36.3769 14.5767L27.9335 32.9874L20.1669 31.1909L36.3769 35.1603" stroke="#FDE546" stroke-width="6.66667" stroke-miterlimit="10"/>
</svg>
