<svg width="100" height="77" viewBox="0 0 100 77" fill="none" xmlns="http://www.w3.org/2000/svg">
<path d="M64.5023 4.25977L94.5756 35.2891L95.9427 36.7002L94.8949 38.3623L74.1185 71.333L72.8168 73.3975L70.722 72.1465L52.9437 61.5312L24.3549 66.9775L22.4203 67.3457L21.6088 65.5518L4.11169 26.8643L3.38123 25.248L4.66541 24.0244L20.5853 8.84668L21.1918 8.26855L22.0238 8.17285L62.4203 3.5166L63.6439 3.375L64.5023 4.25977Z" fill="#9A583D" stroke="#FBF023" stroke-width="5"/>
<path d="M6.39001 25.834L23.8867 64.5213L53.41 58.8973L72.0033 69.9999L92.78 37.029L71.9133 61.995L53.41 47.9169L25.5267 56.5097L6.39001 25.834Z" fill="#7A583D"/>
<path d="M12.6 19.9163L18.7666 28.6115H28.6733L36.8766 32.2573L27.1666 26.0885H19.1766L13.7466 18.8232L12.6 19.9163Z" fill="#7A583D"/>
<path d="M80.1766 24.0246L59.1199 19.6358L40.0266 22.7202L30.4833 18.8234L40.0266 20.1972L61.6799 17.3901L77.8333 21.6073L80.1766 24.0246Z" fill="#7A583D"/>
<path d="M90.95 35.1433L76.0466 41.7976L63.2533 39.552L55.33 36.2331L66.82 37.9999L77.6733 38.4688L89.1466 33.2808L90.95 35.1433Z" fill="#7A583D"/>
<path d="M54.6902 26.7062L58.2869 21.3002L68.5069 20.4878L69.6669 31.5078L53.4569 40.269L69.0802 45.9095" stroke="#FDE546" stroke-width="6.66667" stroke-miterlimit="10"/>
<path d="M29.4035 27.7065L42.3769 20.5767L33.9335 38.9874L26.1669 37.1909L42.3769 41.1603" stroke="#FDE546" stroke-width="6.66667" stroke-miterlimit="10"/>
</svg>
