<svg width="260" height="195" viewBox="0 0 260 195" fill="none" xmlns="http://www.w3.org/2000/svg">
<path d="M0.160156 60.95L52.6501 178.09L141.23 161.06L197 194.68L259.33 94.8401L169.11 0.889893L47.9301 14.99L0.160156 60.95Z" fill="#9A583D"/>
<path d="M0.160156 60.95L52.6501 178.09L141.23 161.06L197 194.68L259.33 94.8401L196.74 170.45L141.23 127.81L57.5702 153.83L0.160156 60.95Z" fill="#7A583D"/>
<path d="M18.79 43.02L37.3 69.3601H67.02L91.63 80.3999L62.5 61.71H38.52L22.23 39.71L18.79 43.02Z" fill="#7A583D"/>
<path d="M221.52 55.47L158.35 42.1699L101.07 51.52L72.4502 39.71L101.07 43.8701L166.03 35.3799L214.49 48.1399L221.52 55.47Z" fill="#7A583D"/>
<path d="M253.85 89.1299L209.14 109.28L170.76 102.49L146.98 92.4299L181.45 97.78L214.02 99.21L248.44 83.49L253.85 89.1299Z" fill="#7A583D"/>
<path d="M90.28 64.24L135.5 40L106.07 102.59L79 96.49L135.5 109.98" stroke="#FFFF00" stroke-width="20" stroke-miterlimit="10"/>
</svg>
