<svg width="99" height="78" viewBox="0 0 99 78" fill="none" xmlns="http://www.w3.org/2000/svg">
<path d="M64.1201 4.26904L94.1934 35.5854L95.542 36.9897L94.5107 38.6411L73.7344 71.9214L72.4307 74.0093L70.3223 72.7378L52.5527 62.0259L23.9688 67.522L22.0244 67.896L21.2148 66.0894L3.71875 27.0425L3 25.438L4.2666 24.2192L20.1904 8.89893L20.7969 8.31494L21.6348 8.21729L62.0273 3.51709L63.2607 3.37354L64.1201 4.26904Z" fill="#9A583D" stroke="#FBF023" stroke-width="5"/>
<path d="M5.99988 26.0205L23.4965 65.0672L53.0232 59.3905L71.6132 70.5972L92.3899 37.3172L71.5265 62.5205L53.0232 48.3072L25.1365 56.9806L5.99988 26.0205Z" fill="#7A583D"/>
<path d="M12.2098 20.044L18.3798 28.8241H28.2865L36.4898 32.504L26.7798 26.274H18.7865L13.3565 18.9407L12.2098 20.044Z" fill="#7A583D"/>
<path d="M79.7868 24.194L58.7301 19.7607L39.6368 22.8774L30.0968 18.9407L39.6368 20.3274L61.2901 17.4973L77.4435 21.7507L79.7868 24.194Z" fill="#7A583D"/>
<path d="M90.563 35.4139L75.6597 42.1306L62.8664 39.8673L54.9397 36.5139L66.4297 38.2973L77.2864 38.7739L88.7597 33.5339L90.563 35.4139Z" fill="#7A583D"/>
<path d="M36.3332 27.0107L51.4066 18.9307L41.5966 39.794L32.5732 37.7607L51.4066 42.2573" stroke="#FDE546" stroke-width="6.66667" stroke-miterlimit="10"/>
</svg>
