<svg width="100" height="77" viewBox="0 0 100 77" fill="none" xmlns="http://www.w3.org/2000/svg">
<path d="M64.8914 4.26025L94.9656 35.2876L96.3328 36.6987L95.2849 38.3608L74.5085 71.3335L73.2068 73.3989L71.1111 72.147L53.3367 61.5308L24.7449 66.9771L22.8103 67.3462L21.9988 65.5522L4.50171 26.8657L3.77124 25.2495L5.05542 24.0259L20.9783 8.84717L21.5847 8.26904L22.4167 8.17334L62.8103 3.51709L64.0339 3.37549L64.8914 4.26025Z" fill="#9A583D" stroke="#FBF023" stroke-width="5"/>
<path d="M6.78003 25.8354L24.2767 64.5215L53.8034 58.8972L72.3934 70.0004L93.17 37.0278L72.3067 61.9983L53.8034 47.9163L25.9167 56.5095L6.78003 25.8354Z" fill="#7A583D"/>
<path d="M12.99 19.914L19.16 28.6129H29.0666L37.27 32.2589L27.56 26.0864H19.5666L14.1367 18.8208L12.99 19.914Z" fill="#7A583D"/>
<path d="M80.5662 24.0257L59.5096 19.6333L40.4162 22.7212L30.8762 18.8209L40.4162 20.1947L62.0696 17.3909L78.2229 21.6049L80.5662 24.0257Z" fill="#7A583D"/>
<path d="M91.3428 35.1419L76.4395 41.7966L63.6461 39.5541L55.7195 36.2318L67.2095 37.9986L78.0661 38.4709L89.5395 33.2793L91.3428 35.1419Z" fill="#7A583D"/>
<path d="M43.8959 17.4274L51.0792 15.6638L58.6093 21.1163L57.3292 29.0788L47.8326 28.5305L52.5026 38.0419L48.6559 42.8636L38.5259 42.4672L36.3059 32.7049" stroke="#FDE546" stroke-width="6.66667" stroke-miterlimit="10"/>
</svg>
