<svg width="260" height="195" viewBox="0 0 260 195" fill="none" xmlns="http://www.w3.org/2000/svg">
<path d="M0.209961 60.7198L52.7 177.86L141.28 160.83L197.05 194.45L259.38 94.6099L169.16 0.659912L47.9799 14.7599L0.209961 60.7198Z" fill="#9A583D"/>
<path d="M0.209961 60.7197L52.7 177.86L141.28 160.83L197.05 194.45L259.38 94.6097L196.79 170.22L141.28 127.58L57.6199 153.6L0.209961 60.7197Z" fill="#7A583D"/>
<path d="M18.8398 42.79L37.3498 69.13H67.0698L91.6798 80.17L62.5498 61.48H38.5698L22.2798 39.48L18.8398 42.79Z" fill="#7A583D"/>
<path d="M221.57 55.2399L158.4 41.9398L101.12 51.2899L72.5 39.4799L101.12 43.6399L166.08 35.1499L214.54 47.9099L221.57 55.2399Z" fill="#7A583D"/>
<path d="M253.9 88.8998L209.19 109.05L170.81 102.26L147.03 92.1997L181.5 97.5498L214.07 98.9797L248.49 83.2598L253.9 88.8998Z" fill="#7A583D"/>
<path d="M111.77 35.34L133.32 30L155.91 46.51L152.07 70.62L123.58 68.96L137.59 97.76L126.05 112.36L95.66 111.16L89 81.6" stroke="#FFFF00" stroke-width="20" stroke-miterlimit="10"/>
</svg>
