<svg width="100" height="77" viewBox="0 0 100 77" fill="none" xmlns="http://www.w3.org/2000/svg">
<path d="M65.1123 4.26001L95.1855 35.2874L96.5527 36.6985L95.5049 38.3606L74.7285 71.3333L73.4268 73.3987L71.3311 72.1467L53.5566 61.5305L24.9648 66.9768L23.0303 67.3459L22.2188 65.552L4.72168 26.8655L3.99121 25.2493L5.27539 24.0256L21.1982 8.84692L21.8047 8.2688L22.6367 8.1731L63.0303 3.51685L64.2539 3.37524L65.1123 4.26001Z" fill="#9A583D" stroke="#FBF023" stroke-width="5"/>
<path d="M7 25.8357L24.4967 64.5217L54.0233 58.8975L72.6133 70.0006L93.39 37.028L72.5267 61.9986L54.0233 47.9165L26.1367 56.5097L7 25.8357Z" fill="#7A583D"/>
<path d="M13.21 19.9137L19.38 28.6126H29.2866L37.49 32.2586L27.78 26.0862H19.7866L14.3566 18.8206L13.21 19.9137Z" fill="#7A583D"/>
<path d="M80.7867 24.0257L59.73 19.6333L40.6367 22.7212L31.0967 18.8209L40.6367 20.1947L62.29 17.3909L78.4434 21.6049L80.7867 24.0257Z" fill="#7A583D"/>
<path d="M91.5633 35.1419L76.6599 41.7966L63.8666 39.5541L55.9399 36.2318L67.4299 37.9986L78.2866 38.4709L89.7599 33.2793L91.5633 35.1419Z" fill="#7A583D"/>
<path d="M67.69 21.0698L49.6234 17.4866L43.54 25.0824L53.8734 28.7152L54.2067 37.3018L46.83 41.9254L34.4467 38.9861L32.54 31.9979" stroke="#FDE546" stroke-width="6.66667" stroke-miterlimit="10"/>
</svg>
