<svg width="100" height="77" viewBox="0 0 100 77" fill="none" xmlns="http://www.w3.org/2000/svg">
<path d="M64.5023 4.26001L94.5756 35.2893L95.9427 36.7004L94.8949 38.3625L74.1185 71.3333L72.8168 73.3977L70.7211 72.1467L52.9467 61.5315L24.3549 66.9778L22.4203 67.3459L21.6088 65.552L4.11169 26.8645L3.38123 25.2483L4.66541 24.0247L20.5883 8.84692L21.1947 8.2688L22.0267 8.1731L62.4203 3.51685L63.6439 3.37524L64.5023 4.26001Z" fill="#9A583D" stroke="#FBF023" stroke-width="5"/>
<path d="M6.39001 25.834L23.8867 64.5213L53.4133 58.8973L72.0033 69.9999L92.78 37.029L71.9167 61.995L53.4133 47.9169L25.5267 56.5097L6.39001 25.834Z" fill="#7A583D"/>
<path d="M12.6 19.9163L18.77 28.6114H28.6766L36.88 32.2573L27.17 26.0885H19.1766L13.7466 18.8232L12.6 19.9163Z" fill="#7A583D"/>
<path d="M80.1772 24.0244L59.1205 19.6355L40.0272 22.7199L30.4872 18.8232L40.0272 20.1969L61.6805 17.3899L77.8338 21.607L80.1772 24.0244Z" fill="#7A583D"/>
<path d="M90.9538 35.1402L76.0504 41.7978L63.2571 39.5522L55.3304 36.2333L66.8204 38.0001L77.6771 38.4691L89.1504 33.281L90.9538 35.1402Z" fill="#7A583D"/>
<path d="M65.3336 24.0676L60.9136 18.0903L51.2036 13.9888L41.5803 20.4614L38.9236 26.0754L35.0536 34.2422L41.0669 42.267L55.1169 41.0484L57.4136 33.1326L42.4869 23.8596" stroke="#FDE546" stroke-width="6.66667" stroke-miterlimit="10"/>
</svg>
