<svg width="295" height="394" viewBox="0 0 295 394" fill="none" xmlns="http://www.w3.org/2000/svg">
<g clip-path="url(#clip0_401_3598)">
<path d="M17.0527 324.486L36.4359 342.12L60.4167 327.081L13.3845 318.121L17.0527 324.486Z" fill="#412E16"/>
<path d="M7.44214 91.4703L14.3843 95.1705L283.559 96.5205L288.318 43.7451L285.594 13.5978L281.383 7.74316L7.44214 91.4703Z" fill="#412E16"/>
<path d="M30.4864 38.1003L2.87265 28.9722L2.40796 15.885L69.7245 28.0769L30.4864 38.1003Z" fill="#412E16"/>
<path d="M3.47809 1.41293L203.527 4.45565L280.074 9.02321L282.115 40.9612L281.616 46.9907L278.039 90.1413H8.57559L6.12541 73.8855L5.51991 69.8635L3.94278 45.7806L3.47809 38.6739L50.1723 30.7559L4.09768 27.5523L1.43628 9.18409L3.47809 1.41293Z" fill="#D88E3B" stroke="#91561C" stroke-width="2.68264" stroke-miterlimit="10"/>
<path d="M280.679 33.6237C280.679 33.6237 214.651 17.0602 212.271 17.7387C209.892 18.4172 134.358 35.988 134.358 35.988L46.9265 2.67899L74.2305 2.84686L137.766 19.0327L213.947 5.07818L255.086 7.53334L280.876 21.4669L280.686 33.6237H280.679Z" fill="#91561C" stroke="#91561C" stroke-width="2.68264" stroke-miterlimit="10"/>
<path d="M200.879 49.3969L280.749 57.5108L280.524 60.2037L200.767 53.6776L56.7975 60.5255L60.1559 72.9901C60.1559 72.9901 197.479 78.0193 198.612 78.2432C199.746 78.467 279.461 73.0531 279.461 73.0531L279.257 75.5362L197.936 82.0763L58.8393 74.9766L54.812 58.8677L200.879 49.4038V49.3969Z" fill="#91561C" stroke="#91561C" stroke-width="2.68264" stroke-miterlimit="10"/>
<path d="M227.514 36.8483L178.56 39.7721L187.171 36.8483L229.211 34.6519L281.798 42.8848L281.665 43.7031L227.514 36.8483Z" fill="#91561C" stroke="#91561C" stroke-width="2.68264" stroke-miterlimit="10"/>
<path d="M24.7694 76.7043L90.7129 89.9314H71.886L17.623 78.397L7.25201 81.3348L6.12549 73.8854L24.7694 76.7043Z" fill="#91561C" stroke="#91561C" stroke-width="2.68264" stroke-miterlimit="10"/>
<path d="M237.181 65.7296L198.394 63.2954L166.07 65.7296C166.07 65.7296 198.049 69.5487 199.415 69.3739C200.781 69.199 237.181 65.7296 237.181 65.7296Z" fill="#91561C" stroke="#91561C" stroke-width="2.68264" stroke-miterlimit="10"/>
<path d="M65.4226 37.0441H100.584L107.836 40.8772L65.4226 37.0441L4.2597 50.6139L3.94287 45.7806L65.4226 37.0441Z" fill="#91561C"/>
<path d="M65.4226 37.0441H100.584L107.836 40.8772L65.4226 37.0441ZM65.4226 37.0441L4.2597 50.6139L3.94287 45.7806L65.4226 37.0441Z" stroke="#91561C" stroke-width="2.68264" stroke-miterlimit="10"/>
<path d="M3.94275 9.4149L39.4281 17.7526L201.527 5.88955L4.49897 2.87482L2.87256 9.31698L3.94275 9.4149Z" fill="#FAAD50"/>
<path d="M75.533 15.1086L48.0037 3.53934L92.0294 4.21783L116.376 12.1219L75.533 15.1086Z" fill="#BC863E"/>
<path d="M255.255 264.024L292.015 256.483L290.409 220.23L286.565 202.428L282.066 199.49L82.433 211.983L7.85742 290.31L15.2995 294.57L84.2495 291.905L289.959 296.171L293.74 282.609L291.874 266.549L286.565 262.044L255.255 264.024Z" fill="#412E16"/>
<path d="M285.96 289.603L85.9112 286.561L9.21643 288.904L7.31543 250.055L8.16032 207.478L12.4059 198.833L280.855 200.875L283.312 217.131L283.918 221.16L285.495 245.243L285.96 252.349L239.266 260.26L285.34 263.464L288.002 281.832L285.96 289.603Z" fill="#D88E3B" stroke="#91561C" stroke-width="2.68264" stroke-miterlimit="10"/>
<path d="M8.75861 257.4C8.75861 257.4 74.7867 273.963 77.1664 273.285C79.5462 272.606 155.079 255.035 155.079 255.035L242.518 288.344L233.555 288.813L153.108 266.57L75.9906 277.838L27.9024 265.667L8.63892 264.772L8.75157 257.4H8.75861Z" fill="#91561C" stroke="#91561C" stroke-width="2.68264" stroke-miterlimit="10"/>
<path d="M88.5584 241.626L8.68823 233.513L8.91354 230.82L88.6711 237.346L232.64 230.498L229.282 218.033C229.282 218.033 91.9591 213.004 90.8255 212.78C89.692 212.556 9.74434 205.478 9.74434 205.478L12.1241 201.085L91.5014 208.947L283.911 221.153L284.699 233.254L88.5514 241.619L88.5584 241.626Z" fill="#91561C" stroke="#91561C" stroke-width="2.68264" stroke-miterlimit="10"/>
<path d="M61.9233 254.168L110.871 251.244L102.267 254.168L60.2194 256.371L7.63916 248.139L7.77293 247.32L61.9233 254.168Z" fill="#91561C" stroke="#91561C" stroke-width="2.68264" stroke-miterlimit="10"/>
<path d="M196.5 200.239L217.545 201.085L283.312 217.131L196.5 200.239Z" fill="#91561C" stroke="#91561C" stroke-width="2.68264" stroke-miterlimit="10"/>
<path d="M52.2563 225.287L91.0438 227.721L123.368 225.287C123.368 225.287 91.3888 221.468 90.0229 221.642C88.657 221.817 52.2563 225.287 52.2563 225.287Z" fill="#91561C" stroke="#91561C" stroke-width="2.68264" stroke-miterlimit="10"/>
<path d="M224.008 253.972H188.854L181.595 250.146L224.008 253.972L285.178 240.409L285.495 245.243L224.008 253.972Z" fill="#91561C"/>
<path d="M224.008 253.972H188.854L181.595 250.146L224.008 253.972ZM224.008 253.972L285.178 240.409L285.495 245.243L224.008 253.972Z" stroke="#91561C" stroke-width="2.68264" stroke-miterlimit="10"/>
<path d="M284.713 270.312L250.01 273.271L87.9106 285.127L284.939 288.142L286.565 281.706L284.713 270.312Z" fill="#875522"/>
<path d="M213.905 275.915L241.434 287.477L216.749 287.099L188.438 277.775L213.905 275.915Z" fill="#432E16"/>
<path d="M10.7019 190.789L17.6441 194.482L287.635 196.615L286.91 175.099L281.721 171.21L248.2 165.719L285.875 162.341L290.353 106.25L286.276 102.781L10.7019 190.789Z" fill="#412E16"/>
<path d="M33.7462 137.419L6.13945 128.521L5.66772 115.203L72.9843 127.388L33.7462 137.419Z" fill="#412E16"/>
<path d="M6.7381 100.731L206.787 103.774L285.059 104.047L279.834 156.396L233.225 162.635L280.419 172.358L281.292 189.46H11.8356L9.59665 174.603L9.92052 171.742L10.0825 170.336L10.864 163.481L7.20279 145.099L6.7381 137.992L27.5646 130.123L17.7005 125.052L7.35769 126.871L4.69629 108.502L6.7381 100.731Z" fill="#D88E3B" stroke="#91561C" stroke-width="2.68264" stroke-miterlimit="10"/>
<path d="M282.376 120.582L228.782 127.199C226.402 127.878 141.744 120.498 141.744 120.498L50.1934 101.997L77.4974 102.165L141.033 118.351L216.313 120.107L230.26 123.597L283.15 115.861L282.383 120.589L282.376 120.582Z" fill="#91561C" stroke="#91561C" stroke-width="2.68264" stroke-miterlimit="10"/>
<path d="M10.1808 178.485C22.9879 178.667 209.441 164.901 210.532 165.118C211.623 165.335 280.447 181.996 280.447 181.996V183.346L209.624 168.384L10.0752 177.778L10.1808 178.492V178.485Z" fill="#91561C" stroke="#91561C" stroke-width="2.68264" stroke-miterlimit="10"/>
<path d="M229.282 146.071L177.145 141.175L190.424 136.167L232.471 133.97L279.602 137.643L279.461 138.496L229.282 146.071Z" stroke="#91561C" stroke-width="2.68264" stroke-miterlimit="10"/>
<path d="M68.6826 136.363H103.844L113.039 140.021L69.4078 138.853L8.92076 152.269L8.37158 149.925L68.6826 136.363Z" fill="#91561C" stroke="#91561C" stroke-width="2.68264" stroke-miterlimit="10"/>
<path d="M6.07617 108.719L8.10391 121.855L42.7373 111.594L283.143 110.013L283.629 105.355L7.75891 102.193L6.07617 108.719Z" fill="#875522"/>
<path d="M89.2202 111.286L56.0442 102.935L91.262 103.473L118.242 111.098L89.2202 111.286Z" fill="#432E16"/>
<path d="M128.719 171.518L120.995 171.973L9.94849 171.539L10.554 166.174L10.4625 167.02" fill="#D88E3B"/>
<path d="M128.719 171.518L120.995 171.973L9.94849 171.539L10.554 166.174L10.4625 167.02" stroke="#91561C" stroke-width="2.68264" stroke-miterlimit="10"/>
<path d="M229.965 141.511L214.398 140.021L230.556 138.048L240.336 139.23L229.965 141.511Z" fill="#91561C" stroke="#91561C" stroke-width="2.68264" stroke-miterlimit="10"/>
<path d="M9.54028 207.821L13.6239 200.127L279.658 202.274L281.7 215.319L161.423 210.934L141.801 210.535L9.54028 207.821Z" fill="#FAAD50"/>
<path d="M11.0117 174.568L13.0254 188.215L65.0635 188.075L28.7966 179.01L12.2509 163.418L11.0117 174.568Z" fill="#FAAD50"/>
<path d="M28.7966 179.01C28.4587 179.01 11.9622 180.968 11.9622 180.968L11.3145 176.575L25.2481 175.652L28.8037 179.003L28.7966 179.01Z" fill="#BC863E"/>
<path d="M22.3614 172.952H11.1877L11.5257 169.944L19.4536 170.21L22.3614 172.952Z" fill="#BC863E"/>
<path d="M8.646 387.075L12.0467 389.607L291.937 394L295 381.325L291.191 362.398L289.001 361.209L242.941 377.094L249.714 365.965L291.191 356.221L288.185 326.536L290.339 314.596L287.987 300.893L284.566 298.85L8.646 387.075Z" fill="#412E16"/>
<path d="M288.452 388.978L88.3964 385.935L10.1245 385.662L15.3558 333.313L40.5335 335.951L14.7644 317.351L13.8913 300.249H283.348L285.586 315.106L285.263 317.967L285.101 319.373L284.319 326.228L286.565 353.346L242.511 362.803L236.245 371.903L287.825 362.838L290.494 381.206L288.452 388.978Z" fill="#D88E3B" stroke="#91561C" stroke-width="2.68264" stroke-miterlimit="10"/>
<path d="M12.8143 369.127L66.4084 362.51C68.7882 361.831 153.446 369.211 153.446 369.211L244.997 387.712L217.693 387.544L154.157 371.358L78.8775 369.602L64.9298 366.112L12.0398 373.848L12.8072 369.12L12.8143 369.127Z" fill="#91561C" stroke="#91561C" stroke-width="2.68264" stroke-miterlimit="10"/>
<path d="M285.002 311.224C272.195 311.042 85.7422 324.808 84.6509 324.591C83.5596 324.374 14.7363 307.713 14.7363 307.713V306.363L85.5591 321.325L285.115 311.938L285.009 311.224H285.002Z" fill="#91561C" stroke="#91561C" stroke-width="2.68264" stroke-miterlimit="10"/>
<path d="M131.106 331.39L183.249 336.286L169.963 341.295L127.916 343.491L84.3621 345.394L80.9614 341.253L131.106 331.39Z" stroke="#91561C" stroke-width="2.68264" stroke-miterlimit="10"/>
<path d="M226.501 353.347H164.092L182.144 349.688L225.776 350.856L285.108 337.699L285.467 340.085L226.501 353.347Z" fill="#91561C" stroke="#91561C" stroke-width="2.68264" stroke-miterlimit="10"/>
<path d="M289.107 380.99L287.079 367.854L252.453 378.115L12.0466 379.696L11.5608 384.354L287.431 387.516L289.107 380.99Z" fill="#875522"/>
<path d="M205.97 378.423L239.139 386.774L203.928 386.236L176.941 378.612L205.97 378.423Z" fill="#432E16"/>
<path d="M166.464 318.191L174.188 317.736L285.241 318.17L284.629 323.535L284.727 322.689" fill="#D88E3B"/>
<path d="M166.464 318.191L174.188 317.736L285.241 318.17L284.629 323.535L284.727 322.689" stroke="#91561C" stroke-width="2.68264" stroke-miterlimit="10"/>
<path d="M130.43 335.951L145.99 337.441L118.468 340.085L106.111 340.154L130.43 335.951Z" fill="#91561C" stroke="#91561C" stroke-width="2.68264" stroke-miterlimit="10"/>
<path d="M24.4102 208.129L10.7371 205.568L13.0675 201.176L138.956 210.472L24.4102 208.129Z" fill="#BC863E"/>
<path d="M263.563 214.655L197.894 201.617L227.043 201.847L281.7 215.319L263.563 214.655Z" fill="#BC863E"/>
<path d="M35.7106 330.649L203.294 301.648L15.3276 301.627L16.0599 316.533L35.7106 330.649Z" fill="#FAAD50"/>
<path d="M75.4978 323.766L65.4859 320.366L15.6797 308.762L15.3276 301.627L24.2623 301.634L75.9343 319.128L102.288 319.156L75.4978 323.766Z" fill="#BC863E"/>
<path d="M278.137 368.952L87.8684 368.518L28.2333 354.571L33.4013 285.805L47.4335 279.489L35.5909 273.585L43.1386 269.284L30.5075 266.255L33.2886 158.466L25.6494 77.145L32.3592 74.8717L28.684 68.7164L35.2037 61.9734L24.9031 60.1408L26.0085 38.646L54.2489 30.1893L243.912 22.0055L272.962 39.3035L267.126 101.249L265.88 197.483L256.515 201.358L265.619 204.806L270.012 214.053L271.118 332.922L263.887 338.965L276.103 353.563L278.137 368.952Z" fill="#E6CCAB"/>
<path d="M28.2756 354.445C28.2756 354.445 77.9129 334.153 78.4761 334.195C79.0394 334.237 87.9037 368.392 87.9037 368.392L28.2756 354.445Z" fill="#A08A72"/>
<path d="M28.2756 354.445L69.0697 342.12L87.9107 368.392L28.2756 354.445Z" fill="#C5AC90"/>
<path d="M69.0696 342.12L87.9106 368.392L62.8667 343.995L69.0696 342.12Z" fill="#FFE7CC"/>
</g>
<defs>
<clipPath id="clip0_401_3598">
<rect width="295" height="394" fill="white"/>
</clipPath>
</defs>
</svg>
