<svg width="86" height="237" viewBox="0 0 86 237" fill="none" xmlns="http://www.w3.org/2000/svg">
<path d="M80.0434 2.51931C79.7031 1.18119 78.3425 0.372292 77.0044 0.712586L55.1985 6.25798C53.8604 6.59828 53.0515 7.9589 53.3918 9.29702C53.732 10.6351 55.0927 11.444 56.4308 11.1037L75.8138 6.1745L80.7431 25.5576C81.0834 26.8957 82.444 27.7046 83.7821 27.3643C85.1202 27.024 85.9291 25.6634 85.5888 24.3252L80.0434 2.51931ZM18.5001 139.5L16.1176 138.743C16.0811 138.857 16.053 138.974 16.0335 139.093L18.5001 139.5ZM43.7162 60.1648L41.5673 58.8873C41.4699 59.0512 41.3915 59.2258 41.3337 59.4076L43.7162 60.1648ZM6.87156 225.359C7.09627 223.997 6.17407 222.71 4.81176 222.486C3.44946 222.261 2.16293 223.183 1.93822 224.545L6.87156 225.359ZM6.1287 199.141C5.90399 200.503 6.82619 201.79 8.18849 202.014C9.5508 202.239 10.8373 201.317 11.062 199.954L6.1287 199.141ZM14.8716 176.859C15.0963 175.497 14.1741 174.21 12.8118 173.986C11.4495 173.761 10.1629 174.683 9.93822 176.045L14.8716 176.859ZM14.1287 150.641C13.904 152.003 14.8262 153.29 16.1885 153.514C17.5508 153.739 18.8373 152.817 19.062 151.454L14.1287 150.641ZM23.8846 130.813C24.3028 129.497 23.5752 128.091 22.2593 127.673C20.9435 127.255 19.5377 127.982 19.1195 129.298L23.8846 130.813ZM25.7237 108.52C25.3055 109.836 26.0331 111.241 27.349 111.66C28.6648 112.078 30.0706 111.35 30.4888 110.034L25.7237 108.52ZM36.4927 91.145C36.9109 89.8292 36.1832 88.4234 34.8674 88.0052C33.5515 87.587 32.1458 88.3146 31.7276 89.6305L36.4927 91.145ZM38.3318 68.8522C37.9136 70.1681 38.6412 71.5738 39.9571 71.992C41.2729 72.4103 42.6786 71.6826 43.0969 70.3668L38.3318 68.8522ZM49.9014 54.6532C50.607 53.4664 50.2168 51.9323 49.03 51.2267C47.8432 50.5211 46.3091 50.9113 45.6036 52.0981L49.9014 54.6532ZM54.4833 37.1618C53.7777 38.3486 54.1678 39.8827 55.3546 40.5883C56.5414 41.2939 58.0755 40.9037 58.7811 39.7169L54.4833 37.1618ZM66.8536 26.1385C67.5591 24.9517 67.169 23.4176 65.9822 22.712C64.7954 22.0064 63.2613 22.3966 62.5557 23.5834L66.8536 26.1385ZM71.4354 8.64713C70.7298 9.83395 71.12 11.368 72.3068 12.0736C73.4936 12.7792 75.0277 12.389 75.7333 11.2022L71.4354 8.64713ZM2.50013 236.5L4.9668 236.907L6.87156 225.359L4.40489 224.952L1.93822 224.545L0.0334594 236.093L2.50013 236.5ZM8.59537 199.548L11.062 199.954L14.8716 176.859L12.4049 176.452L9.93822 176.045L6.1287 199.141L8.59537 199.548ZM16.5954 151.048L19.062 151.454L20.9668 139.907L18.5001 139.5L16.0335 139.093L14.1287 150.641L16.5954 151.048ZM18.5001 139.5L20.8827 140.257L23.8846 130.813L21.502 130.055L19.1195 129.298L16.1176 138.743L18.5001 139.5ZM28.1063 109.277L30.4888 110.034L36.4927 91.145L34.1101 90.3877L31.7276 89.6305L25.7237 108.52L28.1063 109.277ZM40.7143 69.6095L43.0969 70.3668L46.0988 60.9221L43.7162 60.1648L41.3337 59.4076L38.3318 68.8522L40.7143 69.6095ZM43.7162 60.1648L45.8652 61.4424L49.9014 54.6532L47.7525 53.3756L45.6036 52.0981L41.5673 58.8873L43.7162 60.1648ZM56.6322 38.4394L58.7811 39.7169L66.8536 26.1385L64.7046 24.8609L62.5557 23.5834L54.4833 37.1618L56.6322 38.4394ZM73.5843 9.92468L75.7333 11.2022L79.7695 4.41301L77.6206 3.13547L75.4716 1.85792L71.4354 8.64713L73.5843 9.92468Z" fill="#EDB266"/>
</svg>
