<svg width="341" height="147" viewBox="0 0 341 147" fill="none" xmlns="http://www.w3.org/2000/svg">
<path d="M339.789 14.7608C340.46 13.554 340.026 12.0319 338.819 11.3611L319.152 0.430275C317.945 -0.240495 316.423 0.194063 315.753 1.40088C315.082 2.60771 315.516 4.12981 316.723 4.80058L334.204 14.5169L324.488 31.9981C323.817 33.205 324.252 34.727 325.459 35.3978C326.666 36.0686 328.188 35.634 328.858 34.4272L339.789 14.7608ZM106.062 106.279L106.907 108.632C107.001 108.598 107.092 108.559 107.182 108.515L106.062 106.279ZM229.662 44.3638L228.976 41.9599C228.826 42.0025 228.681 42.059 228.542 42.1286L229.662 44.3638ZM10.1834 143.379C11.4828 142.912 12.1578 141.481 11.691 140.181C11.2242 138.882 9.79236 138.207 8.49295 138.674L10.1834 143.379ZM26.8371 132.084C25.5377 132.55 24.8627 133.982 25.3295 135.282C25.7963 136.581 27.2281 137.256 28.5275 136.789L26.8371 132.084ZM45.204 130.798C46.5034 130.332 47.1784 128.9 46.7116 127.6C46.2448 126.301 44.813 125.626 43.5136 126.093L45.204 130.798ZM61.8577 119.503C60.5583 119.97 59.8834 121.401 60.3502 122.701C60.817 124 62.2488 124.675 63.5482 124.208L61.8577 119.503ZM80.2247 118.218C81.5241 117.751 82.1991 116.319 81.7323 115.02C81.2655 113.72 79.8337 113.045 78.5342 113.512L80.2247 118.218ZM96.8784 106.922C95.579 107.389 94.904 108.821 95.3708 110.12C95.8376 111.419 97.2694 112.094 98.5688 111.628L96.8784 106.922ZM116.991 103.601C118.226 102.982 118.725 101.48 118.107 100.246C117.488 99.0112 115.986 98.5118 114.752 99.1302L116.991 103.601ZM136.333 88.3195C135.098 88.9379 134.599 90.44 135.217 91.6745C135.835 92.909 137.338 93.4084 138.572 92.79L136.333 88.3195ZM158.191 82.9622C159.426 82.3438 159.925 80.8417 159.307 79.6072C158.688 78.3727 157.186 77.8733 155.952 78.4917L158.191 82.9622ZM177.533 67.681C176.298 68.2994 175.799 69.8015 176.417 71.036C177.036 72.2705 178.538 72.7699 179.772 72.1515L177.533 67.681ZM199.391 62.3236C200.626 61.7052 201.125 60.2032 200.507 58.9687C199.888 57.7342 198.386 57.2348 197.152 57.8532L199.391 62.3236ZM218.733 47.0425C217.498 47.6609 216.999 49.163 217.617 50.3975C218.236 51.632 219.738 52.1314 220.972 51.513L218.733 47.0425ZM238.915 44.3219C240.243 43.9429 241.012 42.5593 240.633 41.2317C240.254 39.904 238.87 39.135 237.542 39.514L238.915 44.3219ZM256.389 34.1332C255.062 34.5123 254.293 35.8958 254.672 37.2235C255.051 38.5511 256.434 39.3201 257.762 38.9411L256.389 34.1332ZM274.896 34.0494C276.223 33.6704 276.992 32.2868 276.613 30.9591C276.234 29.6315 274.851 28.8625 273.523 29.2415L274.896 34.0494ZM292.37 23.8607C291.043 24.2397 290.274 25.6233 290.653 26.951C291.032 28.2786 292.415 29.0476 293.743 28.6686L292.37 23.8607ZM310.877 23.7769C312.204 23.3979 312.973 22.0143 312.594 20.6866C312.215 19.359 310.832 18.59 309.504 18.969L310.877 23.7769ZM328.351 13.5882C327.023 13.9672 326.254 15.3508 326.633 16.6784C327.012 18.0061 328.396 18.7751 329.724 18.3961L328.351 13.5882ZM1.84513 146.375L10.1834 143.379L8.49295 138.674L0.154703 141.669L1.84513 146.375ZM28.5275 136.789L45.204 130.798L43.5136 126.093L26.8371 132.084L28.5275 136.789ZM63.5482 124.208L80.2247 118.218L78.5342 113.512L61.8577 119.503L63.5482 124.208ZM98.5688 111.628L106.907 108.632L105.217 103.927L96.8784 106.922L98.5688 111.628ZM107.182 108.515L116.991 103.601L114.752 99.1302L104.942 104.044L107.182 108.515ZM138.572 92.79L158.191 82.9622L155.952 78.4917L136.333 88.3195L138.572 92.79ZM179.772 72.1515L199.391 62.3236L197.152 57.8532L177.533 67.681L179.772 72.1515ZM220.972 51.513L230.782 46.5991L228.542 42.1286L218.733 47.0425L220.972 51.513ZM230.348 46.7678L238.915 44.3219L237.542 39.514L228.976 41.9599L230.348 46.7678ZM257.762 38.9411L274.896 34.0494L273.523 29.2415L256.389 34.1332L257.762 38.9411ZM293.743 28.6686L310.877 23.7769L309.504 18.969L292.37 23.8607L293.743 28.6686ZM329.724 18.3961L338.29 15.9502L336.918 11.1423L328.351 13.5882L329.724 18.3961Z" fill="#EDB266"/>
</svg>
