<svg width="43" height="43" viewBox="0 0 43 43" fill="none" xmlns="http://www.w3.org/2000/svg">
<g filter="url(#filter0_d_409_2584)">
<path d="M14.8114 29.8458L21.1317 23.5255L27.452 29.8458L29.9099 27.3879L23.5896 21.0676L29.9099 14.7473L27.452 12.2894L21.1317 18.6097L14.8114 12.2894L12.3536 14.7473L18.6738 21.0676L12.3536 27.3879L14.8114 29.8458ZM21.1317 38.624C18.7031 38.624 16.4208 38.1631 14.2847 37.2414C12.1487 36.3197 10.2907 35.0688 8.71061 33.4887C7.13054 31.9087 5.87965 30.0506 4.95794 27.9146C4.03623 25.7786 3.57538 23.4963 3.57538 21.0676C3.57538 18.639 4.03623 16.3567 4.95794 14.2206C5.87965 12.0846 7.13054 10.2266 8.71061 8.64651C10.2907 7.06644 12.1487 5.81555 14.2847 4.89384C16.4208 3.97213 18.7031 3.51128 21.1317 3.51128C23.5604 3.51128 25.8427 3.97213 27.9787 4.89384C30.1147 5.81555 31.9728 7.06644 33.5528 8.64651C35.1329 10.2266 36.3838 12.0846 37.3055 14.2206C38.2272 16.3567 38.6881 18.639 38.6881 21.0676C38.6881 23.4963 38.2272 25.7786 37.3055 27.9146C36.3838 30.0506 35.1329 31.9087 33.5528 33.4887C31.9728 35.0688 30.1147 36.3197 27.9787 37.2414C25.8427 38.1631 23.5604 38.624 21.1317 38.624ZM21.1317 35.1127C25.0526 35.1127 28.3737 33.7521 31.095 31.0308C33.8162 28.3096 35.1768 24.9885 35.1768 21.0676C35.1768 17.1467 33.8162 13.8256 31.095 11.1044C28.3737 8.38316 25.0526 7.02255 21.1317 7.02255C17.2108 7.02255 13.8897 8.38316 11.1685 11.1044C8.44726 13.8256 7.08665 17.1467 7.08665 21.0676C7.08665 24.9885 8.44726 28.3096 11.1685 31.0308C13.8897 33.7521 17.2108 35.1127 21.1317 35.1127Z" fill="white"/>
<path d="M14.6347 30.0226L14.8114 30.1994L14.9882 30.0226L21.1317 23.8791L27.2752 30.0226L27.452 30.1994L27.6288 30.0226L30.0867 27.5647L30.2635 27.3879L30.0867 27.2111L23.9432 21.0676L30.0867 14.9241L30.2635 14.7473L30.0867 14.5706L27.6288 12.1127L27.452 11.9359L27.2752 12.1127L21.1317 18.2562L14.9882 12.1127L14.8114 11.9359L14.6347 12.1127L12.1768 14.5706L12 14.7473L12.1768 14.9241L18.3203 21.0676L12.1768 27.2111L12 27.3879L12.1768 27.5647L14.6347 30.0226ZM14.1857 37.471C16.3544 38.4067 18.6706 38.874 21.1317 38.874C23.5929 38.874 25.9091 38.4067 28.0777 37.471C30.2416 36.5372 32.1263 35.2688 33.7296 33.6655C35.3329 32.0622 36.6013 30.1775 37.5351 28.0136C38.4708 25.845 38.9381 23.5288 38.9381 21.0676C38.9381 18.6065 38.4708 16.2903 37.5351 14.1216C36.6013 11.9578 35.3329 10.0731 33.7296 8.46973C32.1263 6.8664 30.2416 5.598 28.0777 4.6643C25.9091 3.7285 23.5929 3.26128 21.1317 3.26128C18.6706 3.26128 16.3544 3.7285 14.1857 4.6643C12.0219 5.598 10.1372 6.8664 8.53383 8.46973C6.9305 10.0731 5.6621 11.9578 4.7284 14.1216C3.7926 16.2903 3.32538 18.6065 3.32538 21.0676C3.32538 23.5288 3.7926 25.845 4.7284 28.0136C5.6621 30.1775 6.9305 32.0622 8.53383 33.6655C10.1372 35.2688 12.0219 36.5372 14.1857 37.471ZM30.9182 30.8541C28.2448 33.5274 24.9877 34.8627 21.1317 34.8627C17.2757 34.8627 14.0186 33.5274 11.3453 30.8541C8.67191 28.1807 7.33665 24.9236 7.33665 21.0676C7.33665 17.2116 8.67191 13.9545 11.3453 11.2812C14.0186 8.6078 17.2757 7.27255 21.1317 7.27255C24.9877 7.27255 28.2448 8.6078 30.9182 11.2812C33.5915 13.9545 34.9268 17.2116 34.9268 21.0676C34.9268 24.9236 33.5915 28.1807 30.9182 30.8541Z" stroke="white" stroke-width="0.5"/>
</g>
<defs>
<filter id="filter0_d_409_2584" x="2.07538" y="3.01128" width="37.1127" height="37.1127" filterUnits="userSpaceOnUse" color-interpolation-filters="sRGB">
<feFlood flood-opacity="0" result="BackgroundImageFix"/>
<feColorMatrix in="SourceAlpha" type="matrix" values="0 0 0 0 0 0 0 0 0 0 0 0 0 0 0 0 0 0 127 0" result="hardAlpha"/>
<feOffset dx="-1" dy="1"/>
<feComposite in2="hardAlpha" operator="out"/>
<feColorMatrix type="matrix" values="0 0 0 0 0 0 0 0 0 0 0 0 0 0 0 0 0 0 0.81 0"/>
<feBlend mode="normal" in2="BackgroundImageFix" result="effect1_dropShadow_409_2584"/>
<feBlend mode="normal" in="SourceGraphic" in2="effect1_dropShadow_409_2584" result="shape"/>
</filter>
</defs>
</svg>
