<svg width="39" height="40" viewBox="0 0 39 40" fill="none" xmlns="http://www.w3.org/2000/svg">
<path d="M6.82213 27.1533L8.84178 30.4747L12.7931 33.3971L20.4446 33.282L29.1495 27.7279L32.4829 15.5024L28.6065 7.24874L22.6299 5.26351L19.3386 8.69289L6.82213 27.1533Z" fill="#CD8129" stroke="#B96E29" stroke-width="0.832902" stroke-miterlimit="10"/>
<path d="M25.5506 25.4734C25.4045 25.9738 18.6608 29.7015 18.6608 29.7015L11.9397 30.6873L6.82063 27.1552L6.27496 20.7507L8.23629 14.0172L13.718 7.3644L20.6287 4.61024L26.7618 6.68281L29.1335 14.1471L25.5491 25.4758L25.5506 25.4734Z" fill="url(#paint0_linear_379_2770)" stroke="#B96E29" stroke-width="0.832902" stroke-miterlimit="10" stroke-linejoin="round"/>
<path d="M29.4992 14.1608L32.1489 15.5524L28.8644 27.5303L25.8549 25.6567L29.4992 14.1608Z" fill="#FDC06E"/>
<path d="M18.7811 30.0112L20.3367 32.9801L12.8981 33.0701L9.07295 30.3L7.90574 28.2968L11.8674 31.0279" fill="#A76127"/>
<path d="M22.8797 21.9207L24.528 14.5265L22.4965 9.90773L19.339 8.69252L13.8652 10.8703L10.1763 15.8615L9.12764 23.505L12.2966 26.8483L17.2443 26.4171L22.8797 21.9207Z" fill="url(#paint1_linear_379_2770)" stroke="#B96E29" stroke-width="0.832902" stroke-miterlimit="10"/>
<path d="M15.8717 13.1953L17.7155 12.6645L19.3055 13.3059L19.7657 14.8389L18.7671 17.1256L17.5911 17.8074L15.5128 17.6226L14.85 19.1132L16.4566 19.3729L17.3938 19.3533L18.1223 19.0462L18.8669 20.0023L18.5913 21.7339L17.6123 22.3943L15.897 22.1507L13.4137 20.6884L13.219 18.8818L13.9408 17.351L17.8606 15.8341L17.7149 14.6645L16.0766 14.4721L14.3084 15.69L14.8029 14.1583L15.8717 13.1953Z" fill="#A76127"/>
<path d="M14.1863 23.1194L17.0421 11.7156L16.2111 12.1164L13.599 22.7738L14.1863 23.1194Z" fill="#A76127"/>
<path d="M15.6989 23.6826L18.4845 11.441L17.2807 11.747L14.6423 23.2057L15.6989 23.6826Z" fill="#A76127"/>
<defs>
<linearGradient id="paint0_linear_379_2770" x1="14.479" y1="6.65005" x2="17.6532" y2="30.785" gradientUnits="userSpaceOnUse">
<stop stop-color="#FCD939"/>
<stop offset="1" stop-color="#F8980C"/>
</linearGradient>
<linearGradient id="paint1_linear_379_2770" x1="15.9994" y1="11.4735" x2="17.0088" y2="27.0471" gradientUnits="userSpaceOnUse">
<stop stop-color="#FDE546"/>
<stop offset="1" stop-color="#FC9C0D"/>
</linearGradient>
</defs>
</svg>
