<svg width="107" height="46" viewBox="0 0 107 46" fill="none" xmlns="http://www.w3.org/2000/svg">
<path d="M84 9.5C87.5991 9.5 89.1987 9.51619 90.3926 9.8457L90.627 9.91602C93.1338 10.7306 95.1162 12.6603 96.002 15.1328L96.084 15.373C96.4815 16.5965 96.5 18.1607 96.5 22C96.5 25.5991 96.4838 27.1987 96.1543 28.3926L96.084 28.627C95.2694 31.1338 93.3397 33.1162 90.8672 34.002L90.627 34.084C89.4035 34.4815 87.8393 34.5 84 34.5H24.5V9.5H84Z" fill="url(#paint0_linear_398_3127)"/>
<path d="M84 9.5C87.5991 9.5 89.1987 9.51619 90.3926 9.8457L90.627 9.91602C93.1338 10.7306 95.1162 12.6603 96.002 15.1328L96.084 15.373C96.4815 16.5965 96.5 18.1607 96.5 22C96.5 25.5991 96.4838 27.1987 96.1543 28.3926L96.084 28.627C95.2694 31.1338 93.3397 33.1162 90.8672 34.002L90.627 34.084C89.4035 34.4815 87.8393 34.5 84 34.5H24.5V9.5H84Z" stroke="#FCD536" stroke-width="3"/>
<path d="M1.49446 32.3893L4.34983 37.0851L9.93621 41.2167L20.7538 41.0541L33.0607 33.2017L37.7735 15.9173L32.293 4.2484L23.8433 1.4417L19.1902 6.29013L1.49446 32.3893Z" fill="#CD8129" stroke="#B96E29" stroke-width="1.03282" stroke-miterlimit="10"/>
<path d="M27.9726 30.0144C27.7662 30.7217 18.2318 35.992 18.2318 35.992L8.72957 37.3857L1.49234 32.392L0.720867 23.3374L3.49379 13.8176L11.2437 4.41194L21.0141 0.518119L29.685 3.44831L33.0381 14.0013L27.9705 30.0178L27.9726 30.0144Z" fill="url(#paint1_linear_398_3127)" stroke="#B96E29" stroke-width="1.03282" stroke-miterlimit="10" stroke-linejoin="round"/>
<path d="M33.5548 14.0206L37.3011 15.9881L32.6573 32.9223L28.4026 30.2734L33.5548 14.0206Z" fill="#FDC06E"/>
<path d="M18.4019 36.4299L20.6012 40.6273L10.0845 40.7546L4.67653 36.8382L3.02635 34.006L8.62726 37.8672" fill="#A76127"/>
<path d="M24.1965 24.9915L26.5269 14.5378L23.6548 8.00773L19.1907 6.28968L11.4518 9.36855L6.23649 16.4251L4.75394 27.2314L9.23422 31.9582L16.2292 31.3485L24.1965 24.9915Z" fill="url(#paint2_linear_398_3127)" stroke="#B96E29" stroke-width="1.03282" stroke-miterlimit="10"/>
<path d="M11.906 26.6862L15.9434 10.5636L14.7686 11.1302L11.0755 26.1976L11.906 26.6862Z" fill="#A76127"/>
<path d="M14.0442 27.4825L17.9826 10.1755L16.2806 10.6081L12.5505 26.8083L14.0442 27.4825Z" fill="#A76127"/>
<path d="M18.4541 14.7759L17.0683 12.5871L14.9899 11.9253L13.3055 13.2362L12.4495 16.651L13.0575 18.4299L15.249 20.0238L14.7026 22.26L12.9146 21.1582L12.0092 20.3245L11.5399 19.3512L10.0396 19.7725L8.91885 21.9422L9.35053 23.5265L11.2324 24.7405L14.8486 25.2606L16.4919 23.4146L17.0125 21.0823L14.3783 15.9959L15.4616 14.8178L17.2266 16.0223L17.986 18.9118L18.7308 16.7755L18.4541 14.7759Z" fill="#A76127"/>
<defs>
<linearGradient id="paint0_linear_398_3127" x1="60.6119" y1="8" x2="60.6119" y2="36" gradientUnits="userSpaceOnUse">
<stop stop-color="#C0560A"/>
<stop offset="1" stop-color="#813001"/>
</linearGradient>
<linearGradient id="paint1_linear_398_3127" x1="12.3196" y1="3.40199" x2="16.8073" y2="37.5238" gradientUnits="userSpaceOnUse">
<stop stop-color="#FCD939"/>
<stop offset="1" stop-color="#F8980C"/>
</linearGradient>
<linearGradient id="paint2_linear_398_3127" x1="14.4692" y1="10.2214" x2="15.8962" y2="32.2393" gradientUnits="userSpaceOnUse">
<stop stop-color="#FDE546"/>
<stop offset="1" stop-color="#FC9C0D"/>
</linearGradient>
</defs>
</svg>
