<svg width="375" height="712" viewBox="0 0 375 712" fill="none" xmlns="http://www.w3.org/2000/svg">
<path d="M375 0H0V712H375V0Z" fill="url(#paint0_linear_267_1385)"/>
<path d="M347.345 105.152C344.284 107.644 347.117 108.669 349.238 110.691C352.171 113.468 352.826 117.583 355.645 120.189C357.481 121.884 360.258 121.969 362.749 121.756C364.629 121.599 366.935 120.93 367.277 119.064C367.533 117.597 366.38 116.302 365.312 115.276C362.094 112.172 353.296 100.296 347.345 105.152Z" fill="#F9BB9D"/>
<path d="M75.7317 136.851C71.1473 148.129 89.4422 146.036 93.5568 140.753C99.1663 133.562 79.59 127.325 75.7317 136.851Z" fill="#F9BB9D"/>
<path d="M8.43798 580.448C4.15256 578.099 -1.31451 578.796 -5.57146 581.189C-8.67519 582.926 -11.3091 585.504 -13.103 588.579L-14 588.622C-12.4339 591.812 -10.6685 595.201 -7.52205 596.867C-5.38646 597.992 -2.86643 598.163 -0.460325 598.163C4.48001 598.177 10.1749 597.195 12.6237 592.908C15.0441 588.665 12.7092 582.784 8.42373 580.434L8.43798 580.448Z" fill="#F9BB9D"/>
<path d="M-4.49976 159.5C-4.49976 159.5 23.5002 176 39.5002 146.5C52.1155 123.241 59.8405 116.575 124.253 104.477C178.892 94.2154 235.069 155.953 299.5 117C363.931 78.047 440.272 -63.6289 664.113 -14.6861C827.125 20.9474 816.309 116.328 876.363 123.696C944.539 132.067 993.808 112.89 1015.81 177.377C1024.22 202.061 1032.46 281.352 1059.31 282.874L1067.7 -44.6681L0.252686 -72.0001L-4.49976 159.5Z" fill="#F9BB9D"/>
<path d="M-51.4999 126.5C-51.4999 126.5 4.90724 156.515 30.9999 130C50.9766 109.703 49.8031 103.401 114.879 93.4652C170.068 85.0368 252.09 131.627 318.784 92.4075C385.478 53.1879 494.003 -54.1182 655.626 -10.3935C817.249 33.3311 827.09 125.551 886.643 136.621C954.232 149.194 983.484 146.053 1001.57 217.482C1008.49 244.823 1015.59 269.664 1042.32 272.681L1064.42 -8.24678L-0.0921293 -91.9863L-51.4999 126.5Z" fill="#60C2DE"/>
<path d="M1002.08 165.143C1016.73 174.552 1034.22 179.041 1048.97 188.115L1050.03 174.614C1048.65 174.877 1047.35 175.16 1046.3 175.249C1034.39 176.14 1022.67 171.862 1011.71 167.715C1007.3 166.04 1002.85 164.347 998.901 161.765C993.047 157.933 988.599 152.384 983.878 147.227C970.935 133.125 954.119 121.232 935.103 119.508C935.086 119.178 935.041 118.846 935.054 118.504C935.163 115.656 936.429 112.998 937.783 110.491C938.319 109.49 938.869 108.491 939.432 107.507C939.464 107.824 939.511 108.127 939.544 108.444C939.753 107.775 939.878 107.099 940.045 106.427C943.199 100.832 946.381 95.2406 947.701 88.9881C948.594 84.716 949.106 70.0295 945.381 62.5659C974.248 76.8495 1003.11 91.1474 1031.98 105.431C1039.43 109.117 1046.94 112.807 1054.67 115.801L1056.33 94.6911C1029.94 89.6721 1004.41 81.2503 979.257 71.2586C979.453 70.9455 979.691 70.65 979.953 70.3992C981.035 69.3559 982.493 68.7992 983.939 68.3845C987.739 67.2835 991.707 66.9529 995.557 66.1131C1002.94 64.5083 1009.91 61.0144 1015.63 56.0647C1019.52 52.6999 1022.82 48.6886 1026.82 45.4605C1033.95 39.7083 1043.25 36.8257 1052.4 37.2455L1060.54 41.3573L1060.97 35.8918C1036.24 30.8898 1013.89 16.3039 991.66 3.64257C978.483 -3.86462 964.974 -10.7695 951.207 -17.1233L930.967 -18.7155C933.017 -18.2685 935.062 -17.7648 937.089 -17.2054C939.227 -16.6087 941.346 -15.9563 943.449 -15.2767C941.439 -13.3208 938.757 -12.0891 936.143 -10.9948C933.632 -9.93539 931.121 -8.87594 928.596 -7.81761C929.443 -8.06516 930.292 -8.32692 931.138 -8.54608C938.656 -10.4401 946.425 -10.9859 954.191 -11.3035C964.127 -7.26513 973.771 -2.42123 983.345 2.41709C988.784 5.159 994.223 7.91512 999.677 10.6582C1004.44 13.8183 1008.72 17.5401 1011.38 22.5205C1013.01 25.577 1013.95 28.9643 1014.53 32.3816C1015.43 37.537 1015.54 43.0308 1013.41 47.8195C1011.62 51.8356 1008.37 55.0649 1004.7 57.4909C993.869 64.6947 980.089 65.2248 967.085 65.5159C966.47 65.5247 965.841 65.5324 965.212 65.54C937.991 54.1141 911.113 41.2296 883.949 29.2653C882.583 27.5581 883.005 24.5631 884.611 22.8468C886.513 20.811 889.359 20.035 891.964 19.0543C895.379 17.766 898.636 15.9367 901.237 13.3703C903.685 10.9346 905.466 7.90362 907.647 5.23266C910.538 1.70341 914.132 -1.14205 918.094 -3.40148C913.663 -1.53603 909.247 0.316338 904.816 2.18178C904.107 2.48309 903.327 2.77881 902.601 2.5646C901.931 2.36904 901.448 1.78828 901.036 1.2131C897.239 -4.2564 896.617 -11.9615 891.337 -16.0051C890.381 -16.7373 889.294 -17.2656 888.183 -17.6673C893.576 -19.4142 899.136 -20.3767 904.766 -20.7766L883.064 -22.4837C880.08 -21.2187 877.13 -19.8509 874.235 -18.4503C860.543 -11.7854 846.957 -4.09808 831.889 -1.89813C817.023 0.260662 801.98 -3.12246 787.335 -6.48852C785.54 -6.90116 783.595 -7.41126 782.513 -8.91047C780.799 -11.2736 782.246 -14.6022 783.988 -16.9506C787.933 -22.2539 793.155 -26.1854 799.026 -29.1089L787.061 -30.0501C782.187 -25.1056 776.959 -20.546 771.01 -17.0002C766.335 -14.2112 761.128 -12.1068 755.791 -11.0697C728.435 -15.3357 700.709 -17.4311 673.063 -19.463C609.18 -24.1455 543.868 -28.6405 481.657 -14.6366C472.734 -15.9385 463.947 -18.0724 455.425 -21.0282C441.898 -25.7062 429.156 -32.3935 416.469 -39.0338C402.012 -46.613 387.543 -54.2076 373.087 -61.7869C372.469 -62.1069 371.838 -62.428 371.221 -62.7621L360.236 -63.6263C371.857 -57.9556 382.673 -50.7626 393.726 -44.0367C402.586 -38.6546 411.612 -33.5737 420.82 -28.807C433.472 -22.2552 446.552 -16.2554 460.504 -13.3296C463.679 -12.6655 466.884 -12.1992 470.095 -11.8037C468.286 -11.3176 466.453 -10.8904 464.641 -10.3758C418.726 2.71023 370.946 11.5358 323.285 9.60062C318.595 7.67473 314.028 5.45854 309.611 2.96848C305.837 0.843218 302.139 -1.53312 299.219 -4.71958C296.955 -7.16881 295.225 -10.0474 293.508 -12.9107C286.332 -24.8025 279.604 -36.9446 274.242 -49.7507C278.783 -53.7358 283.468 -57.5667 288.4 -61.0782C290.972 -62.9043 293.595 -64.6691 296.431 -66.0458C298.228 -66.9186 300.096 -67.6002 301.988 -68.237L292.876 -68.9538C290.554 -67.3938 288.269 -65.7595 286.037 -64.0781C281.347 -60.5618 276.763 -56.9229 272.28 -53.1332C257.426 -40.589 243.729 -26.4112 226.935 -16.6193C218.148 -11.4827 208.183 -7.71003 198.107 -6.34575C188.563 -7.92502 179.032 -9.48897 169.494 -10.9677C163.597 -11.8887 157.696 -12.7671 151.771 -13.5047C137.163 -19.8818 122.555 -26.2588 107.947 -32.6359C100.836 -35.7378 93.5627 -38.9525 88.0502 -44.3998C84.9881 -47.4118 82.5725 -51.0157 80.1972 -54.5879C73.3739 -64.7949 66.403 -75.4849 62.8001 -87.0527L55.4904 -87.6277C57.8594 -79.7994 61.6465 -72.3881 66.3596 -65.6752C73.1413 -56.0285 81.761 -47.7799 91.0123 -40.4816C97.5878 -35.2934 104.988 -29.8833 107.063 -21.7639C107.489 -20.102 107.661 -18.2887 106.966 -16.715C106.602 -15.9009 106.079 -15.2421 105.423 -14.7081C88.2872 -13.8277 71.1702 -12.8174 54.6486 -17.0167C34.1083 -22.2321 15.8779 -35.2076 -4.06219 -41.5185L-4.99467 -29.6647C16.1319 -19.3753 39.1183 -12.939 62.3472 -9.04057C91.5244 -4.14565 121.191 -3.11178 150.763 -2.32817C153.542 -2.25241 156.46 -2.13709 158.847 -0.706626C161.218 0.73691 162.747 3.99962 161.331 6.38792C160.178 8.33982 157.688 8.94388 155.47 9.36928C104.627 19.1824 53.3387 29.0461 1.5764 28.0453C-2.10226 27.9702 -5.80707 27.8644 -9.50662 27.8734L-10.3844 39.0315C26.1144 43.2597 63.2828 41.6984 99.3136 34.4482C126.439 36.7392 153.116 45.8226 175.313 61.3814C158.506 58.4594 141.554 56.4546 124.532 55.3583C117.285 54.8882 110.04 54.5897 102.782 54.6187C63.485 54.7413 24.9192 64.2631 -13.158 74.1091L-13.7834 82.0589C34.9296 63.3651 88.0971 56.306 139.988 61.845C150.963 63.0226 161.868 64.7374 172.758 66.4512C187.174 68.7279 201.592 70.9905 215.994 73.2662C245.265 77.8828 274.926 82.6158 301.996 94.6869C304.218 95.6758 306.463 96.7238 308.754 97.5611C312.13 96.0269 315.476 94.3474 318.77 92.4069C320.223 91.5498 321.707 90.6525 323.193 89.7409C310.576 86.92 297.96 84.0849 285.343 81.2641C273.962 78.7118 262.566 76.1584 251.023 74.579C240.822 73.1767 230.521 72.5091 220.399 70.6416C182.801 63.6845 149.207 40.33 112.539 31.5319C139.282 25.0653 165.406 15.7646 192.628 11.7495C222.089 7.41074 251.779 9.41778 281.517 12.4428C283.285 13.2103 284.936 14.183 286.405 15.4841C290.529 19.151 292.457 24.602 294.599 29.6842C303.34 50.3694 318.154 68.4755 336.654 81.101C339.457 79.236 342.309 77.3034 345.236 75.3054C343.991 74.0648 342.685 72.8765 341.315 71.783C334.997 66.7723 327.459 63.4654 321.282 58.2943C316.271 54.1006 312.238 48.7268 309.625 42.7362C307.181 37.1303 305.974 31.0504 303.913 25.289C302.474 21.2619 300.486 17.306 297.663 14.1557C328.505 17.4961 359.399 20.8977 390.155 18.4319C412.518 16.6344 434.494 11.764 456.556 7.62873C457.933 7.00856 459.324 6.38951 460.715 5.77046C461.07 5.61271 461.441 5.44187 461.796 5.28412C463.038 4.73908 464.278 4.22244 465.52 3.6916C466.052 3.46206 466.569 3.24561 467.101 3.01608C468.253 2.53532 469.418 2.06988 470.584 1.59024C471.219 1.32594 471.852 1.07582 472.487 0.811521C473.593 0.369999 474.698 -0.0573193 475.802 -0.484642C476.509 -0.757559 477.217 -1.04467 477.939 -1.31647C479.013 -1.71763 480.087 -2.1188 481.174 -2.50465C481.939 -2.78729 482.69 -3.07106 483.467 -3.33839C484.525 -3.71228 485.597 -4.08505 486.669 -4.45782C487.462 -4.73823 488.255 -5.01865 489.047 -5.28488C490.104 -5.64456 491.159 -5.99006 492.215 -6.33555C493.051 -6.61262 493.871 -6.8766 494.706 -7.13946C495.746 -7.47188 496.799 -7.78898 497.852 -8.10608C498.716 -8.36672 499.564 -8.62848 500.428 -8.88911C501.465 -9.19313 502.517 -9.49604 503.57 -9.79895C504.461 -10.0573 505.337 -10.3027 506.228 -10.5469C507.264 -10.8367 508.3 -11.1123 509.35 -11.3868C510.269 -11.6288 511.187 -11.8708 512.105 -12.0986C513.139 -12.36 514.188 -12.6203 515.236 -12.8664C516.168 -13.0931 517.1 -13.3198 518.044 -13.5311C519.092 -13.7772 520.139 -14.0092 521.185 -14.2411C522.144 -14.4513 523.089 -14.6627 524.047 -14.8587C525.092 -15.0764 526.152 -15.293 527.196 -15.4966C528.168 -15.6915 529.154 -15.8711 530.126 -16.066C531.169 -16.2554 532.226 -16.4436 533.284 -16.6318C534.283 -16.8103 535.281 -16.9746 536.294 -17.1378C537.35 -17.3118 538.405 -17.4716 539.46 -17.6314C540.472 -17.7804 541.497 -17.9283 542.523 -18.0762C543.577 -18.2218 544.631 -18.3674 545.698 -18.4977C546.737 -18.6303 547.775 -18.7628 548.827 -18.8801C549.879 -18.9973 550.946 -19.1276 552.011 -19.2296C553.077 -19.3457 554.142 -19.4476 555.205 -19.5354C556.27 -19.6373 557.334 -19.725 558.398 -19.8127C559.476 -19.8993 560.552 -19.9718 561.629 -20.0442C562.706 -20.1166 563.783 -20.189 564.858 -20.2472C565.948 -20.3043 567.052 -20.3603 568.141 -20.4033C569.216 -20.4473 570.306 -20.5044 571.393 -20.5331C572.51 -20.5738 573.625 -20.5861 574.741 -20.6125C575.828 -20.6271 576.901 -20.6569 577.988 -20.6714C579.131 -20.6815 580.273 -20.6773 581.415 -20.6732C582.501 -20.6735 583.585 -20.6596 584.683 -20.6446C585.839 -20.6252 586.993 -20.5915 588.147 -20.5578C589.244 -20.5287 590.342 -20.4995 591.438 -20.4561C592.619 -20.406 593.8 -20.3417 594.98 -20.2774C596.075 -20.2199 597.17 -20.1623 598.264 -20.0905C599.472 -20.0098 600.677 -19.9007 601.884 -19.8058C602.976 -19.7198 604.069 -19.6338 605.176 -19.5468C606.396 -19.4365 607.627 -19.2968 608.86 -19.1713C609.951 -19.0569 611.042 -18.9567 612.146 -18.8271C613.406 -18.6851 614.678 -18.5136 615.95 -18.3422C617.038 -18.1994 618.113 -18.072 619.201 -17.915C620.5 -17.7271 621.812 -17.5239 623.11 -17.3218C624.182 -17.1518 625.255 -16.996 626.326 -16.8117C627.68 -16.591 629.03 -16.3276 630.396 -16.0774C631.437 -15.8812 632.481 -15.7134 633.535 -15.5019C634.971 -15.2318 636.417 -14.9181 637.864 -14.6185C638.848 -14.4126 639.818 -14.222 640.802 -14.0161C642.43 -13.6594 644.056 -13.2744 645.697 -12.8882C646.51 -12.6957 647.324 -12.5173 648.152 -12.3237C650.617 -11.7155 653.095 -11.0778 655.585 -10.4106C655.585 -10.4106 655.599 -10.4095 655.613 -10.4083C658.339 -9.66537 661.008 -8.91266 663.647 -8.14799C663.745 -8.12598 663.828 -8.09089 663.926 -8.06887C666.51 -7.32286 669.034 -6.55292 671.53 -5.78522C716.56 -3.07144 761.378 3.05388 805.451 12.663C822.875 16.462 840.094 20.3305 856.967 25.1431C857.17 25.8304 857.787 26.336 858.413 26.7281C864.531 30.6518 872.158 31.1946 879.046 33.4934C890.443 37.3039 899.541 45.8187 908.259 54.0892C915.847 61.2996 923.5 68.5723 929.434 77.1953C935.548 86.0752 937.758 94.6481 939.053 104.692C935.782 113.419 930.457 121.385 923.577 127.686C929.369 125.77 935.848 126.008 941.477 128.351C940.258 127.869 939.175 127.113 938.246 126.211C943.376 127.086 948.476 128.144 953.346 129.97C972.186 137.009 985.11 154.266 1002.04 165.125L1002.08 165.143ZM1020.32 21.0527C1028.36 25.113 1036.4 29.159 1044.42 33.2181C1043.6 33.2255 1042.78 33.3038 1041.98 33.5263C1039.5 34.1741 1037.43 35.7967 1035.31 37.2009C1032.34 39.1671 1029.13 40.7715 1025.78 41.9649C1024.5 42.4214 1022.83 42.7189 1021.99 41.6384C1021.41 40.8925 1021.54 39.8465 1021.63 38.9107C1021.99 35.4677 1021.47 31.9555 1020.13 28.7652C1019.52 27.2887 1018.71 25.8249 1018.66 24.2215C1018.62 22.9611 1019.27 21.6123 1020.32 21.0385L1020.32 21.0527ZM285.547 0.432683C284.768 2.69976 283.344 4.83029 281.279 6.02485C281.234 6.04989 281.191 6.06074 281.132 6.08466C266.71 4.42167 252.334 2.3623 237.971 0.132566C236.993 -0.687138 236.198 -1.6638 235.739 -2.89982C234.717 -5.70842 235.849 -8.84753 237.394 -11.4114C239.415 -14.7806 242.141 -17.6657 244.837 -20.5247C251.568 -27.6657 258.33 -34.8329 265.393 -41.6478C268.509 -42.0455 271.942 -40.847 274.344 -38.7011C277.787 -35.6306 279.593 -31.1748 281.12 -26.8123C282.448 -22.994 283.658 -19.1278 284.722 -15.2303C286.119 -10.1068 287.27 -4.58829 285.547 0.432683ZM317.251 9.32595C312.532 9.04044 307.819 8.68396 303.109 8.28488C308.365 8.28407 313.609 8.61089 318.774 9.38863C318.263 9.34844 317.749 9.35084 317.237 9.32484L317.251 9.32595ZM865.607 21.3375C856.33 17.451 846.981 13.7446 837.572 10.2761C837.826 10.1247 838.094 9.98865 838.349 9.83728C846.491 4.90706 854.647 -0.00785133 862.79 -4.93807C868.562 -8.42635 874.379 -11.9255 880.51 -14.7141C884.204 -14.2808 887.747 -12.845 890.127 -10.0581C891.487 -8.46563 892.407 -6.55058 893.122 -4.56599C894.531 -0.684225 895.175 3.46599 895.022 7.59627C894.964 9.23441 894.762 10.904 894.006 12.3443C892.932 14.3739 890.885 15.6984 888.821 16.7073C881.675 20.2304 873.637 21.0979 865.591 21.3506L865.607 21.3375ZM918.724 57.5835C910.622 49.29 901.002 42.6768 891.082 36.6256C897.505 39.2021 903.869 42.0024 910.151 45.1106C919.224 49.5953 928.295 54.0942 937.368 58.5788C940.536 71.3265 944.462 81.8627 941.754 95.4194C941.471 96.8398 941.131 98.2558 940.75 99.64C940.505 84.0654 928.547 67.598 918.74 57.5563L918.724 57.5835Z" fill="#81D0E5"/>
<path d="M318.784 92.4079C321.51 90.794 324.331 89.0733 327.201 87.2565C324.244 87.8095 317.701 91.1086 316.074 91.6377C297.823 97.4439 278.567 99.6858 259.462 99.6399C232.905 99.5648 206.562 95.1357 180.455 90.2395C161.442 86.6726 139.127 79.7382 119.835 81.3488C100.557 82.9605 88.5001 80.5 71.5001 96.5C70.8116 97.4457 68.5258 102.441 67.9998 103.5C84.0001 97.5 95.2762 96.4802 114.878 93.4798C170.067 85.0514 252.089 131.642 318.783 92.4221L318.784 92.4079Z" fill="#81D0E5"/>
<defs>
<linearGradient id="paint0_linear_267_1385" x1="186.116" y1="673.979" x2="187" y2="134.5" gradientUnits="userSpaceOnUse">
<stop stop-color="#FDE7C8"/>
<stop offset="1" stop-color="#FDE4BA"/>
</linearGradient>
</defs>
</svg>
