<svg width="40" height="40" viewBox="0 0 40 40" fill="none" xmlns="http://www.w3.org/2000/svg">
<path fill-rule="evenodd" clip-rule="evenodd" d="M19.9999 0C23.9555 0 27.8223 1.17298 31.1113 3.3706C34.4002 5.56822 36.9637 8.69178 38.4774 12.3463C39.9912 16.0008 40.3873 20.0221 39.6156 23.9018C38.8439 27.7814 36.9391 31.345 34.1421 34.1421C31.345 36.9391 27.7814 38.844 23.9018 39.6157C20.0222 40.3874 16.0009 39.9914 12.3464 38.4776C8.69186 36.9639 5.56829 34.4005 3.37066 31.1115C1.17302 27.8225 2.48984e-05 23.9557 0 20.0001C-1.05157e-10 14.6958 2.10714 9.60869 5.85785 5.85794C9.60856 2.1072 14.6956 3.33877e-05 19.9999 0Z" fill="url(#paint0_linear_267_1467)"/>
<path fill-rule="evenodd" clip-rule="evenodd" d="M5.20487 20.0001C5.20487 16.0762 6.76364 12.313 9.53825 9.53839C12.3129 6.76377 16.076 5.20501 19.9999 5.20501C23.9238 5.20501 27.687 6.76377 30.4616 9.53839C33.2362 12.313 34.795 16.0762 34.795 20.0001C34.9898 19.4664 35.3439 19.0056 35.8095 18.6799C36.275 18.3543 36.8294 18.1796 37.3975 18.1796C37.9656 18.1796 38.52 18.3543 38.9855 18.6799C39.451 19.0056 39.8052 19.4664 40 20.0001C40 14.6958 37.8928 9.60868 34.1421 5.85794C30.3914 2.1072 25.3043 6.10352e-05 20 6.10352e-05C14.6957 6.10352e-05 9.60859 2.1072 5.85787 5.85794C2.10714 9.60868 0 14.6958 0 20.0001C0.194782 19.4664 0.548938 19.0056 1.01445 18.6799C1.47996 18.3543 2.03432 18.1796 2.60243 18.1796C3.17053 18.1796 3.72491 18.3543 4.19042 18.6799C4.65593 19.0056 5.01009 19.4664 5.20487 20.0001Z" fill="url(#paint1_linear_267_1467)"/>
<g style="mix-blend-mode:screen">
<path fill-rule="evenodd" clip-rule="evenodd" d="M19.621 4.81677C22.549 4.81678 25.4112 5.68504 27.8457 7.31175C30.2802 8.93845 32.1777 11.2505 33.2982 13.9556C34.4186 16.6607 34.7118 19.6374 34.1406 22.5091C33.5693 25.3808 32.1594 28.0186 30.089 30.089C28.0186 32.1594 25.3807 33.5693 22.509 34.1406C19.6373 34.7118 16.6607 34.4186 13.9556 33.2981C11.2505 32.1776 8.93847 30.2801 7.31179 27.8456C5.68511 25.411 4.81688 22.5488 4.81689 19.6208C4.81691 15.6945 6.37665 11.9291 9.15296 9.15276C11.9293 6.37646 15.6947 4.81676 19.621 4.81677Z" fill="#F7E984"/>
</g>
<path fill-rule="evenodd" clip-rule="evenodd" d="M20 5.2049C22.9261 5.2049 25.7866 6.07261 28.2196 7.69831C30.6527 9.32401 32.549 11.6347 33.6688 14.3381C34.7886 17.0416 35.0816 20.0164 34.5107 22.8863C33.9399 25.7563 32.5308 28.3925 30.4617 30.4617C28.3926 32.5308 25.7563 33.9399 22.8864 34.5108C20.0164 35.0817 17.0417 34.7887 14.3382 33.6689C11.6348 32.5492 9.32409 30.6528 7.69837 28.2198C6.07265 25.7868 5.20492 22.9263 5.2049 20.0001C5.20488 16.0762 6.76362 12.313 9.53823 9.53835C12.3128 6.7637 16.076 5.20492 20 5.2049Z" fill="url(#paint2_radial_267_1467)"/>
<path style="mix-blend-mode:screen" fill-rule="evenodd" clip-rule="evenodd" d="M7.83105 28.4172L28.4174 7.83094C26.6632 6.62003 24.6686 5.80139 22.5695 5.4308C20.4704 5.06021 18.3161 5.14637 16.2533 5.6834L5.6834 16.2533C5.14636 18.3161 5.06021 20.4704 5.43082 22.5694C5.80143 24.6685 6.6201 26.6631 7.83105 28.4172Z" fill="url(#paint3_radial_267_1467)"/>
<path style="mix-blend-mode:screen" fill-rule="evenodd" clip-rule="evenodd" d="M33.5646 14.6356L14.6355 33.5648L14.4722 33.7278C16.0512 34.3639 17.7286 34.7214 19.4297 34.7843L19.7899 34.4243L34.4241 19.7902L34.7842 19.4299C34.7212 17.7287 34.3637 16.0514 33.7278 14.4724L33.5646 14.6356Z" fill="url(#paint4_radial_267_1467)"/>
<path fill-rule="evenodd" clip-rule="evenodd" d="M19.9999 0.520551C23.8526 0.520539 27.6188 1.66298 30.8221 3.80341C34.0255 5.94383 36.5223 8.9861 37.9966 12.5455C39.471 16.1049 39.8568 20.0216 39.1052 23.8003C38.3535 27.5789 36.4983 31.0498 33.7741 33.7741C31.0498 36.4984 27.5789 38.3536 23.8003 39.1053C20.0217 39.8569 16.105 39.4711 12.5456 37.9968C8.98618 36.5225 5.94389 34.0257 3.80346 30.8223C1.66302 27.619 0.520559 23.8528 0.520547 20.0001C0.52054 14.8338 2.57282 9.87915 6.22591 6.22602C9.879 2.5729 14.8337 0.520578 19.9999 0.520551ZM19.9999 0C23.9555 0 27.8223 1.17298 31.1113 3.3706C34.4002 5.56822 36.9637 8.69178 38.4774 12.3463C39.9912 16.0008 40.3873 20.0221 39.6156 23.9018C38.8439 27.7814 36.9391 31.345 34.1421 34.1421C31.345 36.9391 27.7814 38.844 23.9018 39.6157C20.0222 40.3874 16.0009 39.9914 12.3464 38.4776C8.69186 36.9639 5.56829 34.4005 3.37066 31.1115C1.17302 27.8225 2.48984e-05 23.9557 0 20.0001C-1.05157e-10 14.6958 2.10714 9.60869 5.85785 5.85794C9.60856 2.1072 14.6956 3.33877e-05 19.9999 0Z" fill="url(#paint5_linear_267_1467)"/>
<g style="mix-blend-mode:screen">
<path fill-rule="evenodd" clip-rule="evenodd" d="M0.994019 15.7114C2.15291 11.5619 4.638 7.90558 8.06982 5.30087C11.5016 2.69617 15.6916 1.28616 19.9999 1.28616C24.3083 1.28616 28.4982 2.69617 31.93 5.30087C35.3619 7.90558 37.8469 11.5619 39.0058 15.7114C38.0314 11.3986 35.6192 7.54544 32.1653 4.78487C28.7115 2.02431 24.4214 0.520508 19.9999 0.520508C15.5784 0.520508 11.2884 2.02431 7.83454 4.78487C4.3807 7.54544 1.96843 11.3986 0.994019 15.7114Z" fill="#F7E984"/>
</g>
<path fill-rule="evenodd" clip-rule="evenodd" d="M20 11.8C16.5943 11.8 13.8 14.6878 13.8 18.3455C13.8 20.2403 14.4 21.3942 15.137 22.3354C15.4425 22.7254 15.7636 23.07 16.104 23.4353C16.1982 23.5364 16.2939 23.6391 16.3912 23.7447C16.7389 24.1226 17.1017 24.5342 17.4124 25H19.1V22.9458L17.3545 21.6159C16.9592 21.3147 16.8828 20.7499 17.1841 20.3546C17.4853 19.9592 18.05 19.8829 18.4454 20.1841L20 21.3685L21.5545 20.1841C21.9499 19.8829 22.5146 19.9592 22.8159 20.3545C23.1171 20.7499 23.0408 21.3146 22.6454 21.6159L20.9 22.9457V25H22.5876C22.8983 24.5342 23.2611 24.1226 23.6088 23.7447C23.7061 23.6391 23.8018 23.5364 23.896 23.4353C24.2364 23.07 24.5575 22.7254 24.863 22.3354C25.6 21.3942 26.2 20.2403 26.2 18.3455C26.2 14.6654 23.4076 11.8 20 11.8ZM21.9898 26.8H18.0102L18.1572 27.4165C18.223 27.6926 18.2618 27.8529 18.2991 27.9708C18.322 28.0429 18.3363 28.072 18.3405 28.0795C18.3719 28.1216 18.4138 28.1546 18.462 28.1754C18.4703 28.1778 18.5019 28.185 18.5774 28.1905C18.7006 28.1994 18.8657 28.2 19.1494 28.2H20.8506C21.1343 28.2 21.2994 28.1994 21.4226 28.1905C21.4981 28.185 21.5297 28.1778 21.538 28.1754C21.5862 28.1546 21.6281 28.1216 21.6595 28.0795C21.6637 28.072 21.678 28.0429 21.7009 27.9708C21.7382 27.8529 21.777 27.6926 21.8428 27.4165L21.9898 26.8ZM21.5404 28.1747C21.5404 28.1747 21.5393 28.175 21.538 28.1754L21.5404 28.1747ZM18.4596 28.1747C18.4596 28.1746 18.4608 28.175 18.462 28.1754L18.4596 28.1747ZM16.0006 26.1323C15.7645 25.7481 15.4511 25.3814 15.0667 24.9636C14.9858 24.8758 14.9011 24.785 14.8138 24.6913C14.467 24.3195 14.078 23.9024 13.7199 23.4452C12.7806 22.2458 12 20.7111 12 18.3455C12 13.7791 15.5168 10 20 10C24.4813 10 28 13.7528 28 18.3455C28 20.7111 27.2194 22.2458 26.2801 23.4452C25.922 23.9024 25.533 24.3195 25.1862 24.6913C25.0989 24.785 25.0142 24.8758 24.9333 24.9636C24.5489 25.3814 24.2355 25.7481 23.9994 26.1323L23.5875 27.86C23.5301 28.101 23.4764 28.3263 23.4169 28.5142C23.3518 28.7197 23.2632 28.9375 23.1097 29.1458C22.8863 29.4489 22.5855 29.6864 22.2389 29.8334C22.0007 29.9344 21.7683 29.9701 21.5533 29.9857C21.3567 30 21.1251 30 20.8774 30H19.1226C18.8749 30 18.6433 30 18.4467 29.9857C18.2317 29.9701 17.9993 29.9344 17.7611 29.8334C17.4145 29.6864 17.1137 29.4489 16.8903 29.1458C16.7368 28.9375 16.6482 28.7197 16.5831 28.5142C16.5236 28.3263 16.4699 28.101 16.4125 27.86L16.0006 26.1323Z" fill="#B0670B"/>
<defs>
<linearGradient id="paint0_linear_267_1467" x1="20" y1="40" x2="20" y2="0" gradientUnits="userSpaceOnUse">
<stop stop-color="#DE8B00"/>
<stop offset="1" stop-color="#FFC75E"/>
</linearGradient>
<linearGradient id="paint1_linear_267_1467" x1="20" y1="20.0001" x2="20" y2="-2.14615e-06" gradientUnits="userSpaceOnUse">
<stop stop-color="#FFB805"/>
<stop offset="1" stop-color="#FFE89C"/>
</linearGradient>
<radialGradient id="paint2_radial_267_1467" cx="0" cy="0" r="1" gradientUnits="userSpaceOnUse" gradientTransform="translate(13.0207 7.1319) scale(32.8385 32.8386)">
<stop stop-color="#FFEEB8"/>
<stop offset="1" stop-color="#FFBF00"/>
</radialGradient>
<radialGradient id="paint3_radial_267_1467" cx="0" cy="0" r="1" gradientUnits="userSpaceOnUse" gradientTransform="translate(14.6301 -1.50961) scale(33.1369 33.137)">
<stop stop-color="#FFFD9E"/>
<stop offset="1"/>
</radialGradient>
<radialGradient id="paint4_radial_267_1467" cx="0" cy="0" r="1" gradientUnits="userSpaceOnUse" gradientTransform="translate(26.8092 9.57918) scale(28.132 28.1321)">
<stop stop-color="#FFFD9E"/>
<stop offset="1"/>
</radialGradient>
<linearGradient id="paint5_linear_267_1467" x1="20" y1="40" x2="20" y2="0" gradientUnits="userSpaceOnUse">
<stop stop-color="#CF8000"/>
<stop offset="1" stop-color="#F5B133"/>
</linearGradient>
</defs>
</svg>
