<svg width="40" height="41" viewBox="0 0 40 41" fill="none" xmlns="http://www.w3.org/2000/svg">
<path fill-rule="evenodd" clip-rule="evenodd" d="M19.9999 0.5C23.9555 0.5 27.8223 1.67298 31.1113 3.8706C34.4002 6.06822 36.9637 9.19178 38.4774 12.8463C39.9912 16.5008 40.3873 20.5221 39.6156 24.4018C38.8439 28.2814 36.9391 31.845 34.1421 34.6421C31.345 37.4391 27.7814 39.344 23.9018 40.1157C20.0222 40.8874 16.0009 40.4914 12.3464 38.9776C8.69186 37.4639 5.56829 34.9005 3.37066 31.6115C1.17302 28.3225 2.48984e-05 24.4557 0 20.5001C-1.05157e-10 15.1958 2.10714 10.1087 5.85785 6.35794C9.60856 2.6072 14.6956 0.500033 19.9999 0.5Z" fill="url(#paint0_linear_121_3526)"/>
<path fill-rule="evenodd" clip-rule="evenodd" d="M5.20487 20.5001C5.20487 16.5762 6.76364 12.813 9.53825 10.0384C12.3129 7.26377 16.076 5.70501 19.9999 5.70501C23.9238 5.70501 27.687 7.26377 30.4616 10.0384C33.2362 12.813 34.795 16.5762 34.795 20.5001C34.9898 19.9664 35.3439 19.5056 35.8095 19.1799C36.275 18.8543 36.8294 18.6796 37.3975 18.6796C37.9656 18.6796 38.52 18.8543 38.9855 19.1799C39.451 19.5056 39.8052 19.9664 40 20.5001C40 15.1958 37.8928 10.1087 34.1421 6.35794C30.3914 2.6072 25.3043 0.500061 20 0.500061C14.6957 0.500061 9.60859 2.6072 5.85787 6.35794C2.10714 10.1087 0 15.1958 0 20.5001C0.194782 19.9664 0.548938 19.5056 1.01445 19.1799C1.47996 18.8543 2.03432 18.6796 2.60243 18.6796C3.17053 18.6796 3.72491 18.8543 4.19042 19.1799C4.65593 19.5056 5.01009 19.9664 5.20487 20.5001Z" fill="url(#paint1_linear_121_3526)"/>
<g style="mix-blend-mode:screen">
<path fill-rule="evenodd" clip-rule="evenodd" d="M19.621 5.31677C22.549 5.31678 25.4112 6.18504 27.8457 7.81175C30.2802 9.43845 32.1777 11.7505 33.2982 14.4556C34.4186 17.1607 34.7118 20.1374 34.1406 23.0091C33.5693 25.8808 32.1594 28.5186 30.089 30.589C28.0186 32.6594 25.3807 34.0693 22.509 34.6406C19.6373 35.2118 16.6607 34.9186 13.9556 33.7981C11.2505 32.6776 8.93847 30.7801 7.31179 28.3456C5.68511 25.911 4.81688 23.0488 4.81689 20.1208C4.81691 16.1945 6.37665 12.4291 9.15296 9.65276C11.9293 6.87646 15.6947 5.31676 19.621 5.31677Z" fill="#F7E984"/>
</g>
<path fill-rule="evenodd" clip-rule="evenodd" d="M19.9999 5.7049C22.9261 5.7049 25.7865 6.57261 28.2196 8.19831C30.6526 9.82401 32.5489 12.1347 33.6687 14.8381C34.7885 17.5416 35.0815 20.5164 34.5107 23.3863C33.9398 26.2563 32.5307 28.8925 30.4616 30.9617C28.3925 33.0308 25.7563 34.4399 22.8863 35.0108C20.0164 35.5817 17.0416 35.2887 14.3382 34.1689C11.6347 33.0492 9.32402 31.1528 7.69831 28.7198C6.07259 26.2868 5.20486 23.4263 5.20483 20.5001C5.20482 16.5762 6.76356 12.813 9.53817 10.0383C12.3128 7.2637 16.076 5.70492 19.9999 5.7049Z" fill="url(#paint2_radial_121_3526)"/>
<path style="mix-blend-mode:screen" fill-rule="evenodd" clip-rule="evenodd" d="M7.83099 28.9172L28.4173 8.33094C26.6631 7.12003 24.6685 6.30139 22.5694 5.9308C20.4703 5.56021 18.316 5.64637 16.2532 6.1834L5.68334 16.7533C5.1463 18.8161 5.06015 20.9704 5.43076 23.0694C5.80137 25.1685 6.62003 27.1631 7.83099 28.9172Z" fill="url(#paint3_radial_121_3526)"/>
<path style="mix-blend-mode:screen" fill-rule="evenodd" clip-rule="evenodd" d="M33.5647 15.1356L14.6356 34.0648L14.4723 34.2278C16.0513 34.8639 17.7286 35.2214 19.4298 35.2843L19.7899 34.9243L34.4241 20.2902L34.7843 19.9299C34.7212 18.2287 34.3638 16.5514 33.7278 14.9724L33.5647 15.1356Z" fill="url(#paint4_radial_121_3526)"/>
<path fill-rule="evenodd" clip-rule="evenodd" d="M19.9999 1.02055C23.8526 1.02054 27.6188 2.16298 30.8221 4.30341C34.0255 6.44383 36.5223 9.4861 37.9966 13.0455C39.471 16.6049 39.8568 20.5216 39.1052 24.3003C38.3535 28.0789 36.4983 31.5498 33.7741 34.2741C31.0498 36.9984 27.5789 38.8536 23.8003 39.6053C20.0217 40.3569 16.105 39.9711 12.5456 38.4968C8.98618 37.0225 5.94389 34.5257 3.80346 31.3223C1.66302 28.119 0.520559 24.3528 0.520547 20.5001C0.52054 15.3338 2.57282 10.3791 6.22591 6.72602C9.879 3.0729 14.8337 1.02058 19.9999 1.02055ZM19.9999 0.5C23.9555 0.5 27.8223 1.67298 31.1113 3.8706C34.4002 6.06822 36.9637 9.19178 38.4774 12.8463C39.9912 16.5008 40.3873 20.5221 39.6156 24.4018C38.8439 28.2814 36.9391 31.845 34.1421 34.6421C31.345 37.4391 27.7814 39.344 23.9018 40.1157C20.0222 40.8874 16.0009 40.4914 12.3464 38.9776C8.69186 37.4639 5.56829 34.9005 3.37066 31.6115C1.17302 28.3225 2.48984e-05 24.4557 0 20.5001C-1.05157e-10 15.1958 2.10714 10.1087 5.85785 6.35794C9.60856 2.6072 14.6956 0.500033 19.9999 0.5Z" fill="url(#paint5_linear_121_3526)"/>
<g style="mix-blend-mode:screen">
<path fill-rule="evenodd" clip-rule="evenodd" d="M0.994019 16.2115C2.15291 12.0619 4.638 8.40561 8.06982 5.8009C11.5016 3.1962 15.6916 1.78619 19.9999 1.78619C24.3083 1.78619 28.4982 3.1962 31.93 5.8009C35.3619 8.40561 37.8469 12.0619 39.0058 16.2115C38.0314 11.8986 35.6192 8.04547 32.1653 5.2849C28.7115 2.52434 24.4214 1.02054 19.9999 1.02054C15.5784 1.02054 11.2884 2.52434 7.83454 5.2849C4.3807 8.04547 1.96843 11.8986 0.994019 16.2115Z" fill="#F7E984"/>
</g>
<path d="M17.7083 28.8333L17.375 26.1667C17.1944 26.0972 17.0243 26.0139 16.8646 25.9167C16.7049 25.8194 16.5486 25.7153 16.3958 25.6042L13.9167 26.6458L11.625 22.6875L13.7708 21.0625C13.7569 20.9653 13.75 20.8715 13.75 20.7812V20.2187C13.75 20.1285 13.7569 20.0347 13.7708 19.9375L11.625 18.3125L13.9167 14.3542L16.3958 15.3958C16.5486 15.2847 16.7083 15.1805 16.875 15.0833C17.0417 14.9861 17.2083 14.9028 17.375 14.8333L17.7083 12.1667H22.2917L22.625 14.8333C22.8056 14.9028 22.9757 14.9861 23.1354 15.0833C23.2951 15.1805 23.4514 15.2847 23.6042 15.3958L26.0833 14.3542L28.375 18.3125L26.2292 19.9375C26.2431 20.0347 26.25 20.1285 26.25 20.2187V20.7812C26.25 20.8715 26.2361 20.9653 26.2083 21.0625L28.3542 22.6875L26.0625 26.6458L23.6042 25.6042C23.4514 25.7153 23.2917 25.8194 23.125 25.9167C22.9583 26.0139 22.7917 26.0972 22.625 26.1667L22.2917 28.8333H17.7083ZM20.0417 23.4167C20.8472 23.4167 21.5347 23.1319 22.1042 22.5625C22.6736 21.993 22.9583 21.3055 22.9583 20.5C22.9583 19.6944 22.6736 19.0069 22.1042 18.4375C21.5347 17.868 20.8472 17.5833 20.0417 17.5833C19.2222 17.5833 18.5312 17.868 17.9688 18.4375C17.4062 19.0069 17.125 19.6944 17.125 20.5C17.125 21.3055 17.4062 21.993 17.9688 22.5625C18.5312 23.1319 19.2222 23.4167 20.0417 23.4167Z" fill="#B0670B"/>
<defs>
<linearGradient id="paint0_linear_121_3526" x1="20" y1="40.5" x2="20" y2="0.5" gradientUnits="userSpaceOnUse">
<stop stop-color="#DE8B00"/>
<stop offset="1" stop-color="#FFC75E"/>
</linearGradient>
<linearGradient id="paint1_linear_121_3526" x1="20" y1="20.5001" x2="20" y2="0.499998" gradientUnits="userSpaceOnUse">
<stop stop-color="#FFB805"/>
<stop offset="1" stop-color="#FFE89C"/>
</linearGradient>
<radialGradient id="paint2_radial_121_3526" cx="0" cy="0" r="1" gradientUnits="userSpaceOnUse" gradientTransform="translate(13.0206 7.6319) scale(32.8385 32.8386)">
<stop stop-color="#FFEEB8"/>
<stop offset="1" stop-color="#FFBF00"/>
</radialGradient>
<radialGradient id="paint3_radial_121_3526" cx="0" cy="0" r="1" gradientUnits="userSpaceOnUse" gradientTransform="translate(14.6301 -1.00961) scale(33.1369 33.137)">
<stop stop-color="#FFFD9E"/>
<stop offset="1"/>
</radialGradient>
<radialGradient id="paint4_radial_121_3526" cx="0" cy="0" r="1" gradientUnits="userSpaceOnUse" gradientTransform="translate(26.8093 10.0792) scale(28.132 28.1321)">
<stop stop-color="#FFFD9E"/>
<stop offset="1"/>
</radialGradient>
<linearGradient id="paint5_linear_121_3526" x1="20" y1="40.5" x2="20" y2="0.5" gradientUnits="userSpaceOnUse">
<stop stop-color="#CF8000"/>
<stop offset="1" stop-color="#F5B133"/>
</linearGradient>
</defs>
</svg>
