<svg width="295" height="290" viewBox="0 0 295 290" fill="none" xmlns="http://www.w3.org/2000/svg">
<g clip-path="url(#clip0_379_2664)">
<path d="M17.0527 238.835L36.4358 251.814L60.4166 240.745L13.3845 234.15L17.0527 238.835Z" fill="#412E16"/>
<path d="M7.44208 67.3258L14.3842 70.0493L283.559 71.043L288.318 32.1982L285.594 10.0085L281.383 5.69928L7.44208 67.3258Z" fill="#412E16"/>
<path d="M30.4864 28.0434L2.87265 21.3247L2.40796 11.692L69.7245 20.6657L30.4864 28.0434Z" fill="#412E16"/>
<path d="M3.47816 1.03998L203.527 3.27954L280.074 6.64146L282.115 30.1491L281.616 34.5871L278.039 66.3476H8.57565L6.12547 54.3827L5.51997 51.4224L3.94284 33.6964L3.47816 28.4656L50.1723 22.6376L4.09774 20.2796L1.43634 6.75987L3.47816 1.03998Z" fill="#D88E3B" stroke="#91561C" stroke-width="2.68264" stroke-miterlimit="10"/>
<path d="M280.679 24.7484C280.679 24.7484 214.651 12.557 212.271 13.0564C209.892 13.5558 134.358 26.4886 134.358 26.4886L46.9265 1.97183L74.2305 2.09539L137.766 14.0088L213.947 3.73774L255.086 5.54483L280.876 15.8005L280.686 24.7484H280.679Z" fill="#91561C" stroke="#91561C" stroke-width="2.68264" stroke-miterlimit="10"/>
<path d="M200.879 36.3581L280.75 42.3303L280.524 44.3124L200.767 39.5089L56.7977 44.5492L60.1561 53.7237C60.1561 53.7237 197.479 57.4254 198.612 57.5902C199.746 57.7549 279.461 53.77 279.461 53.77L279.257 55.5977L197.936 60.4115L58.8395 55.1859L54.8122 43.329L200.879 36.3632V36.3581Z" fill="#91561C" stroke="#91561C" stroke-width="2.68264" stroke-miterlimit="10"/>
<path d="M227.514 27.1219L178.56 29.2739L187.171 27.1219L229.211 25.5052L281.799 31.5649L281.665 32.1673L227.514 27.1219Z" fill="#91561C" stroke="#91561C" stroke-width="2.68264" stroke-miterlimit="10"/>
<path d="M24.7693 56.4575L90.7129 66.1932H71.8859L17.623 57.7034L7.25195 59.8658L6.12543 54.3827L24.7693 56.4575Z" fill="#91561C" stroke="#91561C" stroke-width="2.68264" stroke-miterlimit="10"/>
<path d="M237.181 48.3797L198.394 46.588L166.07 48.3797C166.07 48.3797 198.049 51.1907 199.415 51.062C200.781 50.9333 237.181 48.3797 237.181 48.3797Z" fill="#91561C" stroke="#91561C" stroke-width="2.68264" stroke-miterlimit="10"/>
<path d="M65.4226 27.266H100.584L107.836 30.0873L65.4226 27.266L4.25964 37.2539L3.94281 33.6964L65.4226 27.266Z" fill="#91561C"/>
<path d="M65.4226 27.266H100.584L107.836 30.0873L65.4226 27.266ZM65.4226 27.266L4.25964 37.2539L3.94281 33.6964L65.4226 27.266Z" stroke="#91561C" stroke-width="2.68264" stroke-miterlimit="10"/>
<path d="M3.94281 6.92977L39.4281 13.0667L201.527 4.33496L4.49903 2.116L2.87262 6.85769L3.94281 6.92977Z" fill="#FAAD50"/>
<path d="M75.5331 11.1206L48.0038 2.6051L92.0295 3.1045L116.376 8.92221L75.5331 11.1206Z" fill="#BC863E"/>
<path d="M255.255 194.332L292.015 188.782L290.409 162.098L286.565 148.995L282.066 146.833L82.433 156.028L7.85748 213.68L15.2995 216.815L84.2495 214.854L289.959 217.994L293.74 208.011L291.874 196.191L286.565 192.875L255.255 194.332Z" fill="#412E16"/>
<path d="M285.96 213.16L85.9112 210.92L9.21637 212.645L7.31537 184.051L8.16026 152.712L12.4058 146.349L280.855 147.852L283.312 159.817L283.918 162.783L285.495 180.509L285.96 185.739L239.266 191.562L285.34 193.92L288.002 207.44L285.96 213.16Z" fill="#D88E3B" stroke="#91561C" stroke-width="2.68264" stroke-miterlimit="10"/>
<path d="M8.75867 189.457C8.75867 189.457 74.7867 201.648 77.1665 201.149C79.5463 200.649 155.079 187.716 155.079 187.716L242.518 212.233L233.555 212.578L153.108 196.206L75.9907 204.5L27.9024 195.542L8.63898 194.883L8.75163 189.457H8.75867Z" fill="#91561C" stroke="#91561C" stroke-width="2.68264" stroke-miterlimit="10"/>
<path d="M88.5585 177.847L8.68829 171.875L8.9136 169.893L88.6711 174.696L232.64 169.656L229.282 160.481C229.282 160.481 91.9591 156.78 90.8256 156.615C89.692 156.45 9.7444 151.24 9.7444 151.24L12.1242 148.007L91.5015 153.793L283.911 162.777L284.699 171.684L88.5514 177.842L88.5585 177.847Z" fill="#91561C" stroke="#91561C" stroke-width="2.68264" stroke-miterlimit="10"/>
<path d="M61.9233 187.078L110.871 184.926L102.267 187.078L60.2195 188.7L7.63922 182.64L7.77299 182.038L61.9233 187.078Z" fill="#91561C" stroke="#91561C" stroke-width="2.68264" stroke-miterlimit="10"/>
<path d="M196.5 147.384L217.545 148.007L283.312 159.817L196.5 147.384Z" fill="#91561C" stroke="#91561C" stroke-width="2.68264" stroke-miterlimit="10"/>
<path d="M52.2564 165.82L91.0438 167.612L123.368 165.82C123.368 165.82 91.3888 163.009 90.0229 163.138C88.657 163.267 52.2564 165.82 52.2564 165.82Z" fill="#91561C" stroke="#91561C" stroke-width="2.68264" stroke-miterlimit="10"/>
<path d="M224.008 186.934H188.854L181.595 184.118L224.008 186.934L285.178 176.951L285.495 180.509L224.008 186.934Z" fill="#91561C"/>
<path d="M224.008 186.934H188.854L181.595 184.118L224.008 186.934ZM224.008 186.934L285.178 176.951L285.495 180.509L224.008 186.934Z" stroke="#91561C" stroke-width="2.68264" stroke-miterlimit="10"/>
<path d="M284.714 198.961L250.01 201.138L87.9107 209.865L284.939 212.084L286.565 207.347L284.714 198.961Z" fill="#875522"/>
<path d="M213.905 203.084L241.434 211.595L216.749 211.317L188.438 204.454L213.905 203.084Z" fill="#432E16"/>
<path d="M10.702 140.428L17.6441 143.147L287.635 144.717L286.91 128.88L281.721 126.018L248.2 121.976L285.875 119.49L290.353 78.2044L286.277 75.6508L10.702 140.428Z" fill="#412E16"/>
<path d="M33.7462 101.146L6.13945 94.597L5.66772 84.7944L72.9843 93.763L33.7462 101.146Z" fill="#412E16"/>
<path d="M6.73804 74.1423L206.787 76.3819L285.059 76.5827L279.834 115.113L233.225 119.706L280.419 126.862L281.292 139.45H11.8355L9.59658 128.515L9.92046 126.409L10.0824 125.374L10.8639 120.329L7.20273 106.799L6.73804 101.568L27.5646 95.776L17.7005 92.0434L7.35763 93.382L4.69623 79.8622L6.73804 74.1423Z" fill="#D88E3B" stroke="#91561C" stroke-width="2.68264" stroke-miterlimit="10"/>
<path d="M282.376 88.7535L228.782 93.6239C226.402 94.1233 141.744 88.6917 141.744 88.6917L50.1935 75.0742L77.4975 75.1977L141.033 87.1112L216.313 88.4034L230.26 90.9725L283.15 85.2783L282.383 88.7587L282.376 88.7535Z" fill="#91561C" stroke="#91561C" stroke-width="2.68264" stroke-miterlimit="10"/>
<path d="M10.1809 131.372C22.988 131.506 209.441 121.374 210.532 121.533C211.624 121.693 280.447 133.957 280.447 133.957V134.95L209.624 123.938L10.0753 130.852L10.1809 131.377V131.372Z" fill="#91561C" stroke="#91561C" stroke-width="2.68264" stroke-miterlimit="10"/>
<path d="M229.282 107.514L177.145 103.91L190.424 100.224L232.471 98.6076L279.602 101.311L279.461 101.939L229.282 107.514Z" stroke="#91561C" stroke-width="2.68264" stroke-miterlimit="10"/>
<path d="M68.6825 100.368H103.844L113.039 103.061L69.4076 102.201L8.92064 112.076L8.37146 110.351L68.6825 100.368Z" fill="#91561C" stroke="#91561C" stroke-width="2.68264" stroke-miterlimit="10"/>
<path d="M6.07611 80.0218L8.10384 89.6906L42.7372 82.1378L283.143 80.9743L283.629 77.5454L7.75885 75.2184L6.07611 80.0218Z" fill="#875522"/>
<path d="M89.2202 81.9113L56.0443 75.7641L91.262 76.1606L118.242 81.7723L89.2202 81.9113Z" fill="#432E16"/>
<path d="M128.719 126.244L120.995 126.579L9.94861 126.26L10.5541 122.311L10.4626 122.934" fill="#D88E3B"/>
<path d="M128.719 126.244L120.995 126.579L9.94861 126.26L10.5541 122.311L10.4626 122.934" stroke="#91561C" stroke-width="2.68264" stroke-miterlimit="10"/>
<path d="M229.965 104.158L214.398 103.061L230.556 101.609L240.336 102.479L229.965 104.158Z" fill="#91561C" stroke="#91561C" stroke-width="2.68264" stroke-miterlimit="10"/>
<path d="M9.54022 152.965L13.6239 147.301L279.658 148.882L281.7 158.484L161.423 155.256L141.801 154.962L9.54022 152.965Z" fill="#FAAD50"/>
<path d="M11.0118 128.489L13.0254 138.534L65.0636 138.431L28.7967 131.758L12.2509 120.282L11.0118 128.489Z" fill="#FAAD50"/>
<path d="M28.7966 131.758C28.4587 131.758 11.9622 133.2 11.9622 133.2L11.3145 129.967L25.2481 129.287L28.8037 131.753L28.7966 131.758Z" fill="#BC863E"/>
<path d="M22.3614 127.3H11.1877L11.5257 125.086L19.4536 125.282L22.3614 127.3Z" fill="#BC863E"/>
<path d="M8.64606 284.903L12.0467 286.767L291.937 290L295 280.671L291.191 266.739L289.001 265.864L242.941 277.556L249.714 269.365L291.191 262.193L288.185 240.343L290.339 231.555L287.987 221.469L284.566 219.966L8.64606 284.903Z" fill="#412E16"/>
<path d="M288.452 286.303L88.3965 284.064L10.1246 283.863L15.3558 245.332L40.5335 247.273L14.7644 233.584L13.8914 220.996H283.348L285.587 231.931L285.263 234.037L285.101 235.071L284.319 240.117L286.565 260.077L242.511 267.038L236.245 273.736L287.825 267.064L290.494 280.583L288.452 286.303Z" fill="#D88E3B" stroke="#91561C" stroke-width="2.68264" stroke-miterlimit="10"/>
<path d="M12.8142 271.692L66.4083 266.822C68.788 266.322 153.446 271.754 153.446 271.754L244.997 285.372L217.693 285.248L154.157 273.335L78.8774 272.042L64.9297 269.473L12.0397 275.167L12.8071 271.687L12.8142 271.692Z" fill="#91561C" stroke="#91561C" stroke-width="2.68264" stroke-miterlimit="10"/>
<path d="M285.002 229.074C272.195 228.94 85.7421 239.072 84.6508 238.912C83.5595 238.753 14.7363 226.489 14.7363 226.489V225.496L85.5591 236.508L285.115 229.599L285.009 229.074H285.002Z" fill="#91561C" stroke="#91561C" stroke-width="2.68264" stroke-miterlimit="10"/>
<path d="M131.106 243.917L183.249 247.52L169.963 251.207L127.916 252.823L84.3622 254.224L80.9615 251.176L131.106 243.917Z" stroke="#91561C" stroke-width="2.68264" stroke-miterlimit="10"/>
<path d="M226.501 260.077H164.091L182.144 257.385L225.775 258.245L285.108 248.56L285.467 250.316L226.501 260.077Z" fill="#91561C" stroke="#91561C" stroke-width="2.68264" stroke-miterlimit="10"/>
<path d="M289.107 280.424L287.079 270.755L252.453 278.308L12.0467 279.471L11.5609 282.9L287.431 285.227L289.107 280.424Z" fill="#875522"/>
<path d="M205.97 278.534L239.139 284.682L203.928 284.285L176.941 278.673L205.97 278.534Z" fill="#432E16"/>
<path d="M166.464 234.201L174.188 233.867L285.241 234.186L284.629 238.135L284.728 237.512" fill="#D88E3B"/>
<path d="M166.464 234.201L174.188 233.867L285.241 234.186L284.629 238.135L284.728 237.512" stroke="#91561C" stroke-width="2.68264" stroke-miterlimit="10"/>
<path d="M130.43 247.273L145.99 248.37L118.468 250.316L106.111 250.368L130.43 247.273Z" fill="#91561C" stroke="#91561C" stroke-width="2.68264" stroke-miterlimit="10"/>
<path d="M24.4102 153.191L10.7371 151.307L13.0676 148.074L138.956 154.916L24.4102 153.191Z" fill="#BC863E"/>
<path d="M263.563 157.995L197.894 148.398L227.043 148.568L281.7 158.484L263.563 157.995Z" fill="#BC863E"/>
<path d="M35.7106 243.371L203.294 222.025L15.3277 222.01L16.0599 232.981L35.7106 243.371Z" fill="#FAAD50"/>
<path d="M75.4979 238.305L65.4859 235.803L15.6797 227.261L15.3277 222.01L24.2624 222.015L75.9344 234.891L102.288 234.912L75.4979 238.305Z" fill="#BC863E"/>
<path d="M278.137 271.563L87.8684 271.244L28.2333 260.978L33.4013 210.364L47.4335 205.715L35.5909 201.37L43.1386 198.204L30.5075 195.974L33.2886 116.637L25.6494 56.7819L32.3592 55.1086L28.684 50.578L35.2037 45.6149L24.9031 44.2661L26.0085 28.445L54.2489 22.2205L243.912 16.1969L272.962 28.9289L267.126 74.5233L265.88 145.355L256.515 148.207L265.619 150.746L270.012 157.552L271.118 245.044L263.887 249.492L276.103 260.237L278.137 271.563Z" fill="#E6CCAB"/>
<path d="M28.2756 260.886C28.2756 260.886 77.9129 245.95 78.4761 245.981C79.0394 246.012 87.9037 271.152 87.9037 271.152L28.2756 260.886Z" fill="#A08A72"/>
<path d="M28.2756 260.886L69.0697 251.814L87.9107 271.152L28.2756 260.886Z" fill="#C5AC90"/>
<path d="M69.0697 251.814L87.9107 271.152L62.8668 253.194L69.0697 251.814Z" fill="#FFE7CC"/>
</g>
<defs>
<clipPath id="clip0_379_2664">
<rect width="295" height="290" fill="white"/>
</clipPath>
</defs>
</svg>
