<svg width="296" height="392" viewBox="0 0 296 392" fill="none" xmlns="http://www.w3.org/2000/svg">
<g clip-path="url(#clip0_409_2172)">
<path d="M17.1105 322.839L36.5593 340.383L60.6214 325.421L13.4298 316.506L17.1105 322.839Z" fill="#412E16"/>
<path d="M7.46729 91.0059L14.433 94.6874L284.52 96.0305L289.296 43.5231L286.562 13.5287L282.337 7.70386L7.46729 91.0059Z" fill="#412E16"/>
<path d="M30.5897 37.907L2.88228 28.8252L2.41602 15.8044L69.9607 27.9344L30.5897 37.907Z" fill="#412E16"/>
<path d="M3.4899 1.40576L204.217 4.43303L281.023 8.97741L283.072 40.7533L282.57 46.7522L278.981 89.6837H8.60468L6.14619 73.5104L5.53864 69.5089L3.95616 45.5482L3.4899 38.4776L50.3424 30.5998L4.11158 27.4124L1.44116 9.13748L3.4899 1.40576Z" fill="#D88E3B" stroke="#91561C" stroke-width="2.68264" stroke-miterlimit="10"/>
<path d="M281.631 33.453C281.631 33.453 215.379 16.9735 212.991 17.6485C210.603 18.3236 134.814 35.8052 134.814 35.8052L47.0856 2.66528L74.4821 2.83231L138.233 18.936L214.672 5.0523L255.951 7.49499L281.828 21.3578L281.638 33.453H281.631Z" fill="#91561C" stroke="#91561C" stroke-width="2.68264" stroke-miterlimit="10"/>
<path d="M201.56 49.1462L281.701 57.219L281.475 59.8983L201.447 53.4053L56.9901 60.2184L60.36 72.6197C60.36 72.6197 198.148 77.6234 199.285 77.8461C200.423 78.0688 280.408 72.6824 280.408 72.6824L280.203 75.1529L198.607 81.6598L59.0389 74.5962L54.9979 58.569L201.56 49.1532V49.1462Z" fill="#91561C" stroke="#91561C" stroke-width="2.68264" stroke-miterlimit="10"/>
<path d="M228.286 36.6613L179.165 39.5702L187.805 36.6613L229.988 34.4761L282.754 42.6671L282.62 43.4813L228.286 36.6613Z" fill="#91561C" stroke="#91561C" stroke-width="2.68264" stroke-miterlimit="10"/>
<path d="M24.8532 76.3151L91.0203 89.475H72.1295L17.6826 77.9992L7.27646 80.9221L6.14612 73.5105L24.8532 76.3151Z" fill="#91561C" stroke="#91561C" stroke-width="2.68264" stroke-miterlimit="10"/>
<path d="M237.985 65.3959L199.066 62.9741L166.633 65.3959C166.633 65.3959 198.72 69.1957 200.091 69.0217C201.461 68.8477 237.985 65.3959 237.985 65.3959Z" fill="#91561C" stroke="#91561C" stroke-width="2.68264" stroke-miterlimit="10"/>
<path d="M65.6443 36.8562H100.925L108.202 40.6699L65.6443 36.8562L4.27408 50.3571L3.95618 45.5483L65.6443 36.8562Z" fill="#91561C"/>
<path d="M65.6443 36.8562H100.925L108.202 40.6699L65.6443 36.8562ZM65.6443 36.8562L4.27408 50.3571L3.95618 45.5483L65.6443 36.8562Z" stroke="#91561C" stroke-width="2.68264" stroke-miterlimit="10"/>
<path d="M3.95614 9.36724L39.5618 17.6627L202.21 5.85978L4.51425 2.86035L2.88232 9.26981L3.95614 9.36724Z" fill="#FAAD50"/>
<path d="M75.7891 15.0321L48.1665 3.52148L92.3415 4.19653L116.771 12.0605L75.7891 15.0321Z" fill="#BC863E"/>
<path d="M256.12 262.683L293.005 255.181L291.394 219.112L287.537 201.4L283.022 198.478L82.7125 210.907L7.88416 288.836L15.3514 293.074L84.5351 290.423L290.942 294.668L294.736 281.174L292.863 265.196L287.537 260.714L256.12 262.683Z" fill="#412E16"/>
<path d="M286.929 288.133L86.2023 285.106L9.24753 287.437L7.34009 248.786L8.18784 206.425L12.4478 197.823L281.807 199.855L284.273 216.029L284.88 220.037L286.463 243.998L286.929 251.068L240.077 258.939L286.307 262.127L288.978 280.402L286.929 288.133Z" fill="#D88E3B" stroke="#91561C" stroke-width="2.68264" stroke-miterlimit="10"/>
<path d="M8.78843 256.093C8.78843 256.093 75.0403 272.572 77.4282 271.897C79.816 271.222 155.605 253.741 155.605 253.741L243.34 286.881L234.347 287.347L153.627 265.217L76.2484 276.428L27.9971 264.319L8.66833 263.428L8.78137 256.093H8.78843Z" fill="#91561C" stroke="#91561C" stroke-width="2.68264" stroke-miterlimit="10"/>
<path d="M88.8587 240.4L8.71777 232.327L8.94384 229.648L88.9717 236.141L233.429 229.328L230.059 216.926C230.059 216.926 92.2709 211.923 91.1335 211.7C89.9961 211.477 9.77746 204.435 9.77746 204.435L12.1653 200.064L91.8117 207.886L284.873 220.03L285.665 232.07L88.8516 240.393L88.8587 240.4Z" fill="#91561C" stroke="#91561C" stroke-width="2.68264" stroke-miterlimit="10"/>
<path d="M62.1333 252.878L111.246 249.969L102.613 252.878L60.4237 255.07L7.66516 246.879L7.79939 246.065L62.1333 252.878Z" fill="#91561C" stroke="#91561C" stroke-width="2.68264" stroke-miterlimit="10"/>
<path d="M197.166 199.222L218.282 200.064L284.273 216.029L197.166 199.222Z" fill="#91561C" stroke="#91561C" stroke-width="2.68264" stroke-miterlimit="10"/>
<path d="M52.4336 224.143L91.3525 226.565L123.786 224.143C123.786 224.143 91.6987 220.343 90.3281 220.517C88.9576 220.691 52.4336 224.143 52.4336 224.143Z" fill="#91561C" stroke="#91561C" stroke-width="2.68264" stroke-miterlimit="10"/>
<path d="M224.768 252.683H189.494L182.21 248.876L224.768 252.683L286.145 239.189L286.463 243.998L224.768 252.683Z" fill="#91561C"/>
<path d="M224.768 252.683H189.494L182.21 248.876L224.768 252.683ZM224.768 252.683L286.145 239.189L286.463 243.998L224.768 252.683Z" stroke="#91561C" stroke-width="2.68264" stroke-miterlimit="10"/>
<path d="M285.679 268.94L250.857 271.884L88.2087 283.68L285.905 286.679L287.537 280.277L285.679 268.94Z" fill="#875522"/>
<path d="M214.63 274.514L242.252 286.018L217.484 285.642L189.077 276.365L214.63 274.514Z" fill="#432E16"/>
<path d="M10.7383 189.82L17.704 193.495L288.61 195.617L287.883 174.211L282.676 170.341L249.042 164.878L286.844 161.517L291.337 105.711L287.247 102.259L10.7383 189.82Z" fill="#412E16"/>
<path d="M33.8607 136.721L6.16034 127.869L5.68701 114.619L73.2317 126.742L33.8607 136.721Z" fill="#412E16"/>
<path d="M6.76089 100.22L207.488 103.247L286.025 103.519L280.783 155.602L234.015 161.809L281.369 171.483L282.245 188.498H11.8757L9.62913 173.716L9.9541 170.87L10.1166 169.471L10.9008 162.651L7.22716 144.362L6.76089 137.292L27.658 129.463L17.7605 124.417L7.38258 126.227L4.71216 107.952L6.76089 100.22Z" fill="#D88E3B" stroke="#91561C" stroke-width="2.68264" stroke-miterlimit="10"/>
<path d="M283.333 119.97L229.557 126.554C227.17 127.229 142.225 119.887 142.225 119.887L50.3636 101.479L77.7602 101.647L141.511 117.75L217.046 119.497L231.041 122.97L284.11 115.273L283.34 119.977L283.333 119.97Z" fill="#91561C" stroke="#91561C" stroke-width="2.68264" stroke-miterlimit="10"/>
<path d="M10.2153 177.579C23.0659 177.76 210.151 164.064 211.246 164.28C212.341 164.496 281.397 181.073 281.397 181.073V182.416L210.335 167.53L10.1094 176.876L10.2153 177.586V177.579Z" fill="#91561C" stroke="#91561C" stroke-width="2.68264" stroke-miterlimit="10"/>
<path d="M230.059 145.33L177.746 140.458L191.069 135.475L233.259 133.29L280.55 136.944L280.408 137.793L230.059 145.33Z" stroke="#91561C" stroke-width="2.68264" stroke-miterlimit="10"/>
<path d="M68.9152 135.67H104.196L113.422 139.31L69.6429 138.148L8.95082 151.496L8.39978 149.164L68.9152 135.67Z" fill="#91561C" stroke="#91561C" stroke-width="2.68264" stroke-miterlimit="10"/>
<path d="M6.09668 108.168L8.13129 121.237L42.8821 111.028L284.103 109.455L284.591 104.82L7.78512 101.675L6.09668 108.168Z" fill="#875522"/>
<path d="M89.5227 110.721L56.2343 102.412L91.5714 102.948L118.643 110.534L89.5227 110.721Z" fill="#432E16"/>
<path d="M129.155 170.647L121.405 171.1L9.9823 170.668L10.5899 165.331L10.498 166.173" fill="#D88E3B"/>
<path d="M129.155 170.647L121.405 171.1L9.9823 170.668L10.5899 165.331L10.498 166.173" stroke="#91561C" stroke-width="2.68264" stroke-miterlimit="10"/>
<path d="M230.744 140.792L215.124 139.31L231.338 137.347L241.15 138.524L230.744 140.792Z" fill="#91561C" stroke="#91561C" stroke-width="2.68264" stroke-miterlimit="10"/>
<path d="M9.57251 206.766L13.67 199.111L280.606 201.247L282.655 214.226L161.97 209.863L142.281 209.466L9.57251 206.766Z" fill="#FAAD50"/>
<path d="M11.0491 173.682L13.0696 187.259L65.2841 187.12L28.8943 178.101L12.2924 162.589L11.0491 173.682Z" fill="#FAAD50"/>
<path d="M28.8942 178.101C28.5551 178.101 12.0027 180.05 12.0027 180.05L11.3528 175.679L25.3336 174.76L28.9013 178.094L28.8942 178.101Z" fill="#BC863E"/>
<path d="M22.4372 172.074H11.2257L11.5648 169.082L19.5196 169.346L22.4372 172.074Z" fill="#BC863E"/>
<path d="M8.67529 385.11L12.0875 387.63L292.927 392L296 379.39L292.178 360.558L289.981 359.375L243.764 375.18L250.56 364.107L292.178 354.413L289.161 324.878L291.323 312.999L288.964 299.366L285.53 297.333L8.67529 385.11Z" fill="#412E16"/>
<path d="M289.43 387.003L88.6962 383.976L10.1589 383.704L15.4079 331.621L40.671 334.245L14.8145 315.74L13.9385 298.725H284.308L286.555 313.507L286.23 316.353L286.067 317.752L285.283 324.572L287.537 351.553L243.333 360.962L237.046 370.016L288.801 360.996L291.479 379.271L289.43 387.003Z" fill="#D88E3B" stroke="#91561C" stroke-width="2.68264" stroke-miterlimit="10"/>
<path d="M12.8577 367.253L66.6335 360.67C69.0213 359.995 153.966 367.337 153.966 367.337L245.827 385.744L218.431 385.577L154.68 369.473L79.1449 367.726L65.1499 364.254L12.0806 371.95L12.8506 367.246L12.8577 367.253Z" fill="#91561C" stroke="#91561C" stroke-width="2.68264" stroke-miterlimit="10"/>
<path d="M285.968 309.644C273.118 309.463 86.0328 323.159 84.9378 322.943C83.8428 322.728 14.7863 306.151 14.7863 306.151V304.808L85.8491 319.693L286.081 310.354L285.975 309.644H285.968Z" fill="#91561C" stroke="#91561C" stroke-width="2.68264" stroke-miterlimit="10"/>
<path d="M131.55 329.708L183.871 334.579L170.54 339.562L128.35 341.747L84.6482 343.64L81.236 339.52L131.55 329.708Z" stroke="#91561C" stroke-width="2.68264" stroke-miterlimit="10"/>
<path d="M227.268 351.553H164.648L182.761 347.913L226.541 349.075L286.074 335.985L286.435 338.358L227.268 351.553Z" fill="#91561C" stroke="#91561C" stroke-width="2.68264" stroke-miterlimit="10"/>
<path d="M290.087 379.056L288.052 365.986L253.309 376.196L12.0876 377.768L11.6001 382.403L288.406 385.549L290.087 379.056Z" fill="#875522"/>
<path d="M206.668 376.502L239.949 384.811L204.619 384.275L177.541 376.69L206.668 376.502Z" fill="#432E16"/>
<path d="M167.028 316.576L174.778 316.124L286.208 316.555L285.594 321.893L285.693 321.051" fill="#D88E3B"/>
<path d="M167.028 316.576L174.778 316.124L286.208 316.555L285.594 321.893L285.693 321.051" stroke="#91561C" stroke-width="2.68264" stroke-miterlimit="10"/>
<path d="M130.872 334.245L146.485 335.728L118.869 338.358L106.471 338.428L130.872 334.245Z" fill="#91561C" stroke="#91561C" stroke-width="2.68264" stroke-miterlimit="10"/>
<path d="M24.493 207.072L10.7736 204.525L13.1119 200.155L139.427 209.403L24.493 207.072Z" fill="#BC863E"/>
<path d="M264.457 213.565L198.565 200.593L227.812 200.823L282.655 214.226L264.457 213.565Z" fill="#BC863E"/>
<path d="M35.8317 328.97L203.983 300.117L15.3796 300.096L16.1144 314.926L35.8317 328.97Z" fill="#FAAD50"/>
<path d="M75.7538 322.122L65.7079 318.74L15.7329 307.195L15.3796 300.096L24.3446 300.103L76.1918 317.508L102.635 317.536L75.7538 322.122Z" fill="#BC863E"/>
<path d="M279.08 367.079L88.1664 366.647L28.3291 352.771L33.5145 284.354L47.5943 278.07L35.7116 272.197L43.2849 267.917L30.611 264.903L33.4015 157.661L25.7364 76.7533L32.469 74.4916L28.7812 68.3674L35.3231 61.6587L24.9875 59.8354L26.0967 38.4497L54.4328 30.036L239.644 22.8286L275.986 37.356L268.031 100.735L266.781 196.48L257.385 200.335L266.519 203.766L270.928 212.966L272.037 331.232L264.782 337.245L277.039 351.769L279.08 367.079Z" fill="#E6CCAB"/>
<path d="M28.3715 352.646C28.3715 352.646 78.1769 332.457 78.7421 332.499C79.3073 332.54 88.2016 366.522 88.2016 366.522L28.3715 352.646Z" fill="#A08A72"/>
<path d="M28.3715 352.645L69.3038 340.383L88.2087 366.522L28.3715 352.645Z" fill="#C5AC90"/>
<path d="M69.3039 340.383L88.2088 366.522L63.08 342.248L69.3039 340.383Z" fill="#FFE7CC"/>
</g>
<defs>
<clipPath id="clip0_409_2172">
<rect width="296" height="392" fill="white"/>
</clipPath>
</defs>
</svg>
