<svg width="311" height="237" viewBox="0 0 311 237" fill="none" xmlns="http://www.w3.org/2000/svg">
<g clip-path="url(#clip0_547_5237)">
<path d="M151.721 178.27L118.522 185.803L89.6382 145.896L102.091 105.14L134.297 86.6708L125.453 73.5835L109.002 9.6845L145.079 1.9335L146.436 43.1089L146.091 67.3329L153.568 82.4669L164.728 66.5148L167.205 45.0538C167.205 45.0538 172.996 0 174.503 0C176.01 0 209.393 7.751 209.393 7.751L183.345 75.0754L173.239 87.4946L200.463 107.382L209.396 149.596L186.009 185.803L151.721 178.27Z" fill="#FFFF00"/>
<path d="M119.984 18.4065L139.367 13.8035L140.56 66.2657L152.139 87.9277L168.754 68.7597L179.084 9.93079L197.299 13.0787L178.677 71.6415L153.57 97.9038L132.106 72.6833L119.984 18.4065Z" fill="#FCD939"/>
<path d="M134.583 22.766L125.936 23.9776L134.583 70.1015L152.733 93.3177L173.81 73.5863L191.251 16.7107L183.345 14.9867L168.48 72.0321L154.534 86.8491L140.56 66.2656L134.583 22.766Z" fill="#F6C341"/>
<path d="M151.249 160.186L84.5765 152.376L5.30459 169.381L0 117.805L82.0374 122.213L150.061 150.533L217.746 128.075L311 120.387L306.798 169.987L222.855 156.181L151.249 160.186Z" fill="#FFFF00"/>
<path d="M151.427 159.849L85.767 148.854L11.5083 159.459L9.91357 127.991L82.5916 128.695L150.239 150.196L220.624 132.469L303.719 127.968L300.244 162.641L223.22 151.459L151.427 159.849Z" fill="#FCD939"/>
<path d="M18.5376 138.003V151.631L82.6479 140.829L150.27 157.964L219.349 144.628L285.402 151.903L287.042 138.003H219.309L151.424 153.576C151.424 153.576 86.2955 132.064 82.6479 132.814C79.0032 133.565 18.5376 138.003 18.5376 138.003Z" fill="#F6C341"/>
<path d="M151.721 178.27L93.2829 191.53L24.8859 224.224L5.30469 183.139L87.4947 165.333L152.083 168.099L219.773 166.525L307.794 185.656L296.042 237L215.599 192.306L151.721 178.27Z" fill="#FFFF00"/>
<path d="M152.295 174.222L91.3289 187.482L29.113 217.452L18.043 183.453L88.9848 171.657L151.941 170.046L219.176 171.657L296.042 187.785L290.316 225.3L216.507 187.957L152.295 174.222Z" fill="#FCD939"/>
<path d="M32.4297 192.439L37.6919 208.784L87.5708 183.139L151.463 171.852L217.231 183.139L283.759 217.339L285.684 195.539L218.138 176.15L151.449 171.346L86.6632 175.909L32.4297 192.439Z" fill="#F6C341"/>
<path d="M150.48 145.896L84.4777 116.432L5.30469 102.147L28.132 58.4241L86.3128 96.5789L151.345 131.872L212.95 99.2881L285.467 61.64L305.775 104.525L218.031 119.702L150.48 145.896Z" fill="#FFFF00"/>
<path d="M149.843 143.442L82.8517 113.527L18.043 97.7961L30.0122 71.3215L83.8018 100.149L150.508 133.366L215.52 104.61L282.45 72.9833L294.097 100.551L217.697 118.725L149.843 143.442Z" fill="#FCD939"/>
<path d="M35.235 80.5305L27.5835 95.1012L79.7755 111.387L150.107 141.522L211.856 115.999L282.45 97.9575L275.324 84.5532L210.162 110.453L150.273 136.676L80.1374 105.21L35.235 80.5305Z" fill="#F6C341"/>
<path d="M150.858 125.276L100.674 92.777L49.3896 36.4138L80.3519 20.9147L115.355 83.8371L150.858 114.037L186.792 85.4422L239.77 20.9147L275.324 39.5448L198.014 98.1586L150.858 125.276Z" fill="#FFFF00"/>
<path d="M150.799 123.269L103.227 91.0558L58.8848 41.6821L79.5659 31.873L112.114 85.4421L150.799 116.942L186.956 90.6935L235.752 34.7492L254.968 47.7601L190.827 98.9993L150.799 123.269Z" fill="#FCD939"/>
<path d="M79.8431 42.8513L70.0454 45.7672L105.243 87.1662L150.508 121.148C150.508 121.148 188.884 96.126 189.336 96.194C189.789 96.2619 244.037 50.6703 244.037 50.6703L234.42 42.8485L185.977 93.1423L150.796 116.939L108.145 84.2561L79.8402 42.8513H79.8431Z" fill="#F6C341"/>
<g clip-path="url(#clip1_547_5237)">
<path d="M78.9825 203.859L68.7197 147.283L68.8319 144.784L190.047 132.655L261.596 138.927L257.231 207.046L144.006 222.944L79.0692 204.581L78.9825 203.859Z" fill="#BF8C45" stroke="#694B1E" stroke-width="4.541" stroke-miterlimit="10"/>
<path d="M190.043 132.67V76.8405L68.9336 78.4698L68.1528 145.176L190.043 132.67Z" fill="#845C25" stroke="#694B1E" stroke-width="3.24387" stroke-miterlimit="10"/>
<path d="M85.4386 159.105L84.061 158.894L87.7641 175.081L91.7824 192.774L127.385 203.049V164.319L85.4365 159.105H85.4386Z" fill="#845C25" stroke="#694B1E" stroke-width="3.24387" stroke-miterlimit="10"/>
<path d="M70.0931 79.1829L67.9496 79.13L51.3007 88.0216L43.3232 110.456L47.0051 137.602L68.6627 144.89L70.0931 79.1829Z" fill="#BF8C45" stroke="#694B1E" stroke-width="4.541" stroke-miterlimit="10"/>
<path d="M190.043 76.8405L186.66 76.8955L173.075 82.7167L162.528 102.538L166.187 125.31L190.553 132.382L190.043 76.8405Z" fill="#755021" stroke="#694B1E" stroke-width="3.24387" stroke-miterlimit="10"/>
<path d="M77.3005 84.3376L76.7905 121.529L86.2619 115.126L97.5107 116.323L107.786 112.671L116.208 107.61H132.745L142.997 105.811L155.676 83.5695L77.3005 84.3376Z" fill="#A87331"/>
<path d="M114.879 77.5725V71.4868L120.962 67.6526L134.323 68.5392L139.556 73.6515V77.2403L114.879 77.5725Z" fill="#D49E29" stroke="#6A4B1F" stroke-width="3.24387" stroke-miterlimit="10"/>
<path d="M116.515 74.6145V72.2974L121.426 69.189L133.591 70.0311L135.481 71.8996L130.973 72.2636L122.215 72.9449L116.515 74.6145Z" fill="#FFE298"/>
<mask id="mask0_547_5237" style="mask-type:luminance" maskUnits="userSpaceOnUse" x="89" y="121" width="66" height="31">
<path d="M154.123 121.404H89.5244V151.985H154.123V121.404Z" fill="white"/>
</mask>
<g mask="url(#mask0_547_5237)">
<path d="M89.9204 132.723L90.1976 144.562L97.1932 149.046H119.896L131.124 144.403L131.729 133.514L89.9225 132.723H89.9204Z" fill="#CD8129" stroke="#BA6E29" stroke-width="0.945866" stroke-miterlimit="10"/>
<path d="M98.1075 143.377L90.0729 139.293L89.9185 132.509L101.176 126.009L123.111 126.449L131.695 133.254L131.433 138.77L119.507 143.377H98.1054H98.1075Z" fill="#F9A020" stroke="#BA6E29" stroke-width="0.945866" stroke-miterlimit="10"/>
<path d="M101.815 138.768L97.2717 136.589L96.6221 131.878L102.06 128.736L120.051 128.986L125.351 130.171L122.26 137.376L115.385 138.768H101.815Z" fill="#FEC971" stroke="#BA6E29" stroke-width="0.945866" stroke-miterlimit="10"/>
<path d="M97.9932 143.745L97.3267 148.652H119.814L119.581 143.76L97.9953 143.745H97.9932Z" fill="#FEC971"/>
<path d="M119.579 143.76L119.812 148.652L130.76 144.143L131.016 139.339L119.577 143.76H119.579Z" fill="#A86228"/>
<path d="M103.662 131.866L102.526 133.791L102.795 135.755L104.403 136.692L107.291 136.199L108.404 135.065L108.794 132.682L110.679 132.35L111.676 133.753L111.381 134.801L110.823 135.535L111.299 136.601L113.743 136.8L115.302 136.263L114.994 133.889L111.999 131.227L110.651 130.748L108.14 130.886L106.083 134.826L104.796 134.341L105.055 132.448L106.635 131.07L105.065 130.93L103.664 131.864L103.662 131.866Z" fill="#A86228"/>
<path d="M115.878 132.515L101.832 132.583L102.526 131.762H115.227L115.878 132.515Z" fill="#A86228"/>
<path d="M117.186 134.426L100.911 134.316L101.605 133.049H116.098L117.183 134.426H117.186Z" fill="#A86228"/>
<path d="M153.698 137.456V141.959L151.523 147.203L143.803 151.6L131.723 151.2L120.952 140.982L119.808 130.467L124.577 124.963L129.954 126.44L153.694 137.458L153.698 137.456Z" fill="#CD8129" stroke="#BA6E29" stroke-width="0.945866" stroke-miterlimit="10"/>
<path d="M133.949 146.828C134.4 146.962 143.41 146.978 143.41 146.978L150.729 143.997L153.7 137.458L150.352 130.751L144.296 125.196L134.768 121.8L126.181 123.131L121.308 128.812L123.477 137.651L133.949 146.828Z" fill="#F9A020" stroke="#BA6E29" stroke-width="0.945866" stroke-miterlimit="10"/>
<path d="M123.123 137.882L121.32 140.831L131.887 150.834L133.758 147.19L123.123 137.882Z" fill="#FEC971"/>
<path d="M143.479 147.355L143.729 151.236L151.222 146.934L153.363 141.919L153.312 139.232L151.01 144.291" fill="#A86228"/>
<path d="M134.461 141.712L128.316 135.313L127.539 129.513L129.958 126.438L136.754 125.38L143.477 128.18L149.173 135.179L148.037 140.379L142.83 142.867L134.458 141.712H134.461Z" fill="#FEC971" stroke="#BA6E29" stroke-width="0.945866" stroke-miterlimit="10"/>
<path d="M136.164 128.884L133.997 129.443L132.795 131.019L133.267 132.82L135.658 134.509L137.248 134.494L139.211 133.082L140.781 134.178L139.332 135.385L138.382 135.916L137.468 136.041L137.305 137.433L138.634 138.997L140.011 139.077L141.579 137.822L143.172 134.902L142.271 132.987L140.616 131.887L135.775 132.685L135.21 131.434L136.731 130.276L139.239 130.446L137.815 129.21L136.162 128.88L136.164 128.884Z" fill="#A86228"/>
<path d="M143.883 137.778L134.094 128.095L135.167 128.006L144.26 137.086L143.881 137.776L143.883 137.778Z" fill="#A86228"/>
<path d="M142.716 139.234L132.485 128.675L133.875 128.271L143.48 138.133L142.716 139.236V139.234Z" fill="#A86228"/>
</g>
<mask id="mask1_547_5237" style="mask-type:luminance" maskUnits="userSpaceOnUse" x="76" y="118" width="66" height="31">
<path d="M141.535 118.389H76.9365V148.97H141.535V118.389Z" fill="white"/>
</mask>
<g mask="url(#mask1_547_5237)">
<path d="M77.3306 129.707L77.6078 141.547L84.6034 146.03H107.306L118.534 141.388L119.139 130.499L77.3327 129.707H77.3306Z" fill="#CD8129" stroke="#BA6E29" stroke-width="0.945866" stroke-miterlimit="10"/>
<path d="M85.5172 140.362L77.4826 136.278L77.3281 129.494L88.5854 122.993L110.52 123.433L119.105 130.239L118.843 135.755L106.917 140.362H85.515H85.5172Z" fill="#F9A020" stroke="#BA6E29" stroke-width="0.945866" stroke-miterlimit="10"/>
<path d="M89.2245 135.755L84.6814 133.575L84.0317 128.865L89.4699 125.723L107.46 125.972L112.761 127.157L109.67 134.363L102.795 135.755H89.2245Z" fill="#FEC971" stroke="#BA6E29" stroke-width="0.945866" stroke-miterlimit="10"/>
<path d="M85.4034 140.73L84.7368 145.637H107.224L106.991 140.745L85.4055 140.73H85.4034Z" fill="#FEC971"/>
<path d="M106.989 140.744L107.222 145.637L118.17 141.127L118.426 136.324L106.987 140.744H106.989Z" fill="#A86228"/>
<path d="M91.0714 128.85L89.9351 130.776L90.2038 132.74L91.812 133.677L94.7004 133.184L95.8134 132.05L96.2027 129.667L98.0881 129.335L99.0848 130.738L98.7906 131.785L98.232 132.519L98.7081 133.586L101.152 133.785L102.712 133.247L102.403 130.873L99.4085 128.211L98.0606 127.733L95.5489 127.871L93.4921 131.811L92.2056 131.326L92.4637 129.432L94.0444 128.055L92.4743 127.915L91.0735 128.848L91.0714 128.85Z" fill="#A86228"/>
<path d="M103.287 129.5L89.2412 129.568L89.9353 128.747H102.636L103.287 129.5Z" fill="#A86228"/>
<path d="M104.596 131.413L88.3213 131.303L89.0153 130.035H103.508L104.594 131.413H104.596Z" fill="#A86228"/>
<path d="M141.107 134.441V138.944L138.932 144.187L131.213 148.584L119.132 148.185L108.362 137.966L107.217 127.452L111.986 121.948L117.363 123.425L141.103 134.443L141.107 134.441Z" fill="#CD8129" stroke="#BA6E29" stroke-width="0.945866" stroke-miterlimit="10"/>
<path d="M121.358 143.815C121.809 143.948 130.819 143.965 130.819 143.965L138.138 140.984L141.109 134.445L137.761 127.737L131.705 122.183L122.177 118.786L113.59 120.117L108.717 125.799L110.886 134.638L121.358 143.815Z" fill="#F9A020" stroke="#BA6E29" stroke-width="0.945866" stroke-miterlimit="10"/>
<path d="M110.533 134.868L108.73 137.818L119.297 147.821L121.168 144.177L110.533 134.868Z" fill="#FEC971"/>
<path d="M130.889 144.342L131.139 148.223L138.632 143.921L140.773 138.906L140.722 136.218L138.42 141.278" fill="#A86228"/>
<path d="M121.87 138.698L115.725 132.299L114.949 126.499L117.367 123.425L124.164 122.367L130.887 125.166L136.583 132.166L135.447 137.365L130.239 139.854L121.868 138.698H121.87Z" fill="#FEC971" stroke="#BA6E29" stroke-width="0.945866" stroke-miterlimit="10"/>
<path d="M123.574 125.869L121.407 126.427L120.205 128.004L120.677 129.805L123.068 131.493L124.657 131.478L126.621 130.067L128.191 131.163L126.741 132.369L125.791 132.9L124.877 133.025L124.714 134.418L126.043 135.981L127.421 136.062L128.989 134.807L130.582 131.887L129.681 129.972L128.026 128.872L123.184 129.669L122.619 128.419L124.141 127.261L126.648 127.43L125.224 126.195L123.572 125.865L123.574 125.869Z" fill="#A86228"/>
<path d="M131.293 134.765L121.504 125.082L122.577 124.993L131.67 134.073L131.291 134.763L131.293 134.765Z" fill="#A86228"/>
<path d="M130.125 136.22L119.894 125.661L121.284 125.257L130.889 135.12L130.125 136.223V136.22Z" fill="#A86228"/>
</g>
<mask id="mask2_547_5237" style="mask-type:luminance" maskUnits="userSpaceOnUse" x="103" y="108" width="66" height="31">
<path d="M168.157 108.378H103.559V138.959H168.157V108.378Z" fill="white"/>
</mask>
<g mask="url(#mask2_547_5237)">
<path d="M103.954 119.696L104.231 131.536L111.226 136.019H133.929L145.157 131.377L145.762 120.488L103.956 119.696H103.954Z" fill="#CD8129" stroke="#BA6E29" stroke-width="0.945866" stroke-miterlimit="10"/>
<path d="M112.141 130.348L104.107 126.265L103.952 119.481L115.209 112.98L137.144 113.42L145.729 120.225L145.467 125.742L133.541 130.348H112.139H112.141Z" fill="#F9A020" stroke="#BA6E29" stroke-width="0.945866" stroke-miterlimit="10"/>
<path d="M115.846 125.742L111.303 123.562L110.653 118.852L116.092 115.71L134.082 115.96L139.383 117.145L136.291 124.35L129.416 125.742H115.846Z" fill="#FEC971" stroke="#BA6E29" stroke-width="0.945866" stroke-miterlimit="10"/>
<path d="M112.026 130.719L111.36 135.626H133.847L133.614 130.734L112.029 130.719H112.026Z" fill="#FEC971"/>
<path d="M133.612 130.734L133.845 135.626L144.793 131.117L145.049 126.313L133.61 130.734H133.612Z" fill="#A86228"/>
<path d="M117.696 118.839L116.56 120.765L116.828 122.729L118.436 123.666L121.325 123.173L122.438 122.039L122.827 119.656L124.713 119.324L125.709 120.727L125.415 121.774L124.857 122.509L125.333 123.575L127.777 123.774L129.336 123.237L129.027 120.862L126.033 118.2L124.685 117.722L122.173 117.86L120.117 121.8L118.83 121.315L119.088 119.421L120.669 118.044L119.099 117.904L117.698 118.837L117.696 118.839Z" fill="#A86228"/>
<path d="M129.911 119.489L115.865 119.557L116.559 118.736H129.26L129.911 119.489Z" fill="#A86228"/>
<path d="M131.219 121.4L114.945 121.29L115.639 120.022H130.132L131.217 121.4H131.219Z" fill="#A86228"/>
<path d="M167.731 124.43V128.933L165.556 134.176L157.837 138.573L145.756 138.174L134.986 127.955L133.841 117.441L138.61 111.937L143.987 113.414L167.727 124.432L167.731 124.43Z" fill="#CD8129" stroke="#BA6E29" stroke-width="0.945866" stroke-miterlimit="10"/>
<path d="M147.982 133.802C148.433 133.935 157.443 133.952 157.443 133.952L164.762 130.971L167.733 124.432L164.385 117.724L158.329 112.17L148.801 108.773L140.214 110.104L135.341 115.786L137.51 124.625L147.982 133.802Z" fill="#F9A020" stroke="#BA6E29" stroke-width="0.945866" stroke-miterlimit="10"/>
<path d="M137.157 124.855L135.354 127.805L145.921 137.807L147.792 134.164L137.157 124.855Z" fill="#FEC971"/>
<path d="M157.513 134.329L157.763 138.21L165.256 133.908L167.397 128.893L167.346 126.205L165.044 131.265" fill="#A86228"/>
<path d="M148.494 128.685L142.349 122.287L141.573 116.486L143.991 113.412L150.788 112.354L157.511 115.153L163.207 122.153L162.071 127.352L156.863 129.841L148.492 128.685H148.494Z" fill="#FEC971" stroke="#BA6E29" stroke-width="0.945866" stroke-miterlimit="10"/>
<path d="M150.198 115.858L148.031 116.417L146.829 117.993L147.301 119.794L149.692 121.482L151.281 121.468L153.245 120.056L154.815 121.152L153.366 122.358L152.415 122.89L151.501 123.014L151.338 124.407L152.667 125.971L154.045 126.051L155.613 124.796L157.206 121.876L156.305 119.961L154.65 118.861L149.808 119.658L149.243 118.408L150.765 117.25L153.272 117.42L151.848 116.184L150.196 115.854L150.198 115.858Z" fill="#A86228"/>
<path d="M157.917 124.752L148.128 115.069L149.201 114.98L158.294 124.06L157.915 124.75L157.917 124.752Z" fill="#A86228"/>
<path d="M156.747 126.208L146.516 115.649L147.906 115.244L157.511 125.107L156.747 126.21V126.208Z" fill="#A86228"/>
</g>
<mask id="mask3_547_5237" style="mask-type:luminance" maskUnits="userSpaceOnUse" x="132" y="102" width="72" height="50">
<path d="M194.313 102.413L132.745 121.967L142.002 151.113L203.57 131.559L194.313 102.413Z" fill="white"/>
</mask>
<g mask="url(#mask3_547_5237)">
<path d="M136.547 132.638L140.394 143.838L148.418 145.995L170.057 139.124L179.353 131.301L176.631 120.74L136.547 132.64V132.638Z" fill="#CD8129" stroke="#BA6E29" stroke-width="0.945866" stroke-miterlimit="10"/>
<path d="M147.576 140.313L138.683 138.853L136.482 132.435L145.244 122.832L166.284 116.611L176.526 120.498L177.946 125.835L167.973 133.836L147.576 140.313Z" fill="#F9A020" stroke="#BA6E29" stroke-width="0.945866" stroke-miterlimit="10"/>
<path d="M149.713 134.801L144.724 134.098L142.68 129.805L146.912 125.164L164.134 119.957L169.545 119.483L168.779 127.284L162.649 130.693L149.715 134.801H149.713Z" fill="#FEC971" stroke="#BA6E29" stroke-width="0.945866" stroke-miterlimit="10"/>
<path d="M147.578 140.7L148.427 145.578L169.858 138.772L168.155 134.181L147.576 140.7H147.578Z" fill="#FEC971"/>
<path d="M168.154 134.181L169.858 138.772L178.929 131.161L177.721 126.506L168.156 134.183L168.154 134.181Z" fill="#A86228"/>
<path d="M149.385 127.661L148.886 129.841L149.736 131.631L151.552 132.037L154.155 130.691L154.872 129.273L154.523 126.884L156.22 125.998L157.595 127.033L157.631 128.12L157.32 128.99L158.097 129.862L160.486 129.312L161.81 128.328L160.797 126.159L157.138 124.529L155.71 124.483L153.357 125.376L152.589 129.754L151.215 129.682L150.888 127.799L151.977 126.008L150.439 126.351L149.387 127.665L149.385 127.661Z" fill="#A86228"/>
<path d="M161.224 124.582L147.857 128.899L148.27 127.905L160.376 124.06L161.224 124.58V124.582Z" fill="#A86228"/>
<path d="M163.05 126.009L147.506 130.829L147.785 129.411L161.599 125.025L163.05 126.009Z" fill="#A86228"/>
<path d="M198.767 117.845L200.13 122.136L199.645 127.792L193.619 134.32L181.985 137.596L168.629 131.117L164.356 121.442L167.236 114.753L172.808 114.533L198.769 117.849L198.767 117.845Z" fill="#CD8129" stroke="#BA6E29" stroke-width="0.945866" stroke-miterlimit="10"/>
<path d="M182.781 132.754C183.25 132.744 191.841 130.033 191.841 130.033L197.914 124.976L198.767 117.845L193.545 112.466L186.092 109.004L175.984 108.653L168.203 112.521L165.279 119.413L170.021 127.181L182.778 132.757L182.781 132.754Z" fill="#F9A020" stroke="#BA6E29" stroke-width="0.945866" stroke-miterlimit="10"/>
<path d="M169.754 127.505L168.929 130.863L182.029 137.196L182.708 133.157L169.754 127.505Z" fill="#FEC971"/>
<path d="M192.023 130.374L193.437 133.997L199.275 127.627L199.798 122.2L198.937 119.654L198.274 125.173" fill="#A86228"/>
<path d="M181.72 127.725L173.927 123.484L171.432 118.192L172.805 114.529L178.963 111.463L186.219 112.096L193.767 117.043L194.258 122.344L190.047 126.292L181.72 127.725Z" fill="#FEC971" stroke="#BA6E29" stroke-width="0.945866" stroke-miterlimit="10"/>
<path d="M179.46 114.982L177.564 116.171L176.896 118.038L177.89 119.61L180.681 120.494L182.192 119.999L183.637 118.061L185.465 118.63L184.45 120.217L183.705 121.011L182.871 121.406L183.138 122.782L184.877 123.871L186.215 123.531L187.33 121.861L187.964 118.596L186.526 117.043L184.615 116.495L180.241 118.721L179.325 117.701L180.425 116.137L182.867 115.541L181.136 114.796L179.46 114.982Z" fill="#A86228"/>
<path d="M189.509 121.123L177.249 114.857L178.246 114.447L189.662 120.348L189.509 121.12V121.123Z" fill="#A86228"/>
<path d="M188.837 122.864L175.891 115.896L177.093 115.09L189.232 121.582L188.837 122.864Z" fill="#A86228"/>
</g>
<mask id="mask4_547_5237" style="mask-type:luminance" maskUnits="userSpaceOnUse" x="157" y="100" width="72" height="49">
<path d="M218.891 100.024L157.324 119.578L166.581 148.724L228.148 129.17L218.891 100.024Z" fill="white"/>
</mask>
<g mask="url(#mask4_547_5237)">
<path d="M161.125 130.249L164.972 141.449L172.996 143.605L194.634 136.735L203.93 128.912L201.209 118.351L161.125 130.251V130.249Z" fill="#CD8129" stroke="#BA6E29" stroke-width="0.945866" stroke-miterlimit="10"/>
<path d="M172.154 137.926L163.26 136.466L161.06 130.048L169.822 120.445L190.862 114.224L201.103 118.111L202.523 123.448L192.55 131.449L172.154 137.926Z" fill="#F9A020" stroke="#BA6E29" stroke-width="0.945866" stroke-miterlimit="10"/>
<path d="M174.293 132.412L169.303 131.709L167.259 127.416L171.491 122.775L188.714 117.568L194.124 117.094L193.358 124.896L187.228 128.304L174.295 132.412H174.293Z" fill="#FEC971" stroke="#BA6E29" stroke-width="0.945866" stroke-miterlimit="10"/>
<path d="M172.155 138.311L173.004 143.189L194.435 136.384L192.732 131.792L172.153 138.311H172.155Z" fill="#FEC971"/>
<path d="M192.734 131.792L194.438 136.383L203.509 128.772L202.301 124.117L192.736 131.794L192.734 131.792Z" fill="#A86228"/>
<path d="M173.963 125.274L173.464 127.454L174.315 129.244L176.13 129.65L178.733 128.304L179.45 126.887L179.101 124.498L180.798 123.611L182.173 124.646L182.209 125.733L181.898 126.603L182.675 127.475L185.064 126.925L186.389 125.941L185.375 123.772L181.716 122.143L180.288 122.096L177.935 122.989L177.167 127.367L175.794 127.295L175.466 125.412L176.555 123.622L175.017 123.964L173.965 125.278L173.963 125.274Z" fill="#A86228"/>
<path d="M185.802 122.196L172.435 126.512L172.848 125.518L184.953 121.673L185.802 122.193V122.196Z" fill="#A86228"/>
<path d="M187.628 123.62L172.084 128.44L172.363 127.022L186.177 122.636L187.628 123.62Z" fill="#A86228"/>
<path d="M223.344 115.456L224.707 119.747L224.223 125.403L218.196 131.931L206.562 135.207L193.206 128.728L188.934 119.053L191.814 112.364L197.385 112.144L223.347 115.46L223.344 115.456Z" fill="#CD8129" stroke="#BA6E29" stroke-width="0.945866" stroke-miterlimit="10"/>
<path d="M207.361 130.368C207.83 130.357 216.421 127.646 216.421 127.646L222.494 122.589L223.347 115.458L218.125 110.079L210.672 106.617L200.564 106.266L192.783 110.134L189.859 117.026L194.601 124.794L207.358 130.37L207.361 130.368Z" fill="#F9A020" stroke="#BA6E29" stroke-width="0.945866" stroke-miterlimit="10"/>
<path d="M194.334 125.116L193.509 128.474L206.609 134.807L207.288 130.768L194.334 125.116Z" fill="#FEC971"/>
<path d="M216.601 127.985L218.015 131.607L223.853 125.238L224.375 119.811L223.514 117.265L222.852 122.784" fill="#A86228"/>
<path d="M206.298 125.336L198.505 121.095L196.01 115.803L197.383 112.14L203.541 109.074L210.797 109.707L218.344 114.654L218.835 119.955L214.624 123.903L206.298 125.336Z" fill="#FEC971" stroke="#BA6E29" stroke-width="0.945866" stroke-miterlimit="10"/>
<path d="M204.038 112.593L202.142 113.782L201.474 115.648L202.468 117.221L205.259 118.105L206.77 117.61L208.215 115.672L210.044 116.241L209.028 117.828L208.283 118.621L207.449 119.017L207.716 120.393L209.455 121.482L210.793 121.142L211.908 119.472L212.543 116.207L211.104 114.654L209.193 114.106L204.819 116.332L203.903 115.312L205.003 113.748L207.445 113.151L205.714 112.407L204.038 112.593Z" fill="#A86228"/>
<path d="M214.089 118.734L201.829 112.468L202.825 112.057L214.241 117.959L214.089 118.731V118.734Z" fill="#A86228"/>
<path d="M213.414 120.475L200.468 113.507L201.67 112.701L213.81 119.193L213.414 120.475Z" fill="#A86228"/>
</g>
<mask id="mask5_547_5237" style="mask-type:luminance" maskUnits="userSpaceOnUse" x="182" y="118" width="67" height="36">
<path d="M184.335 118.713L182.388 149.232L246.855 153.344L248.802 122.825L184.335 118.713Z" fill="white"/>
</mask>
<g mask="url(#mask5_547_5237)">
<path d="M247.182 142.023L247.66 130.19L240.965 125.27L218.309 123.825L206.808 127.744L205.511 138.571L247.182 142.023Z" fill="#CD8129" stroke="#BA6E29" stroke-width="0.945866" stroke-miterlimit="10"/>
<path d="M239.689 130.869L247.446 135.455L247.167 142.234L235.518 148.005L213.656 146.17L205.521 138.834L206.135 133.345L218.33 129.506L239.687 130.869H239.689Z" fill="#F9A020" stroke="#BA6E29" stroke-width="0.945866" stroke-miterlimit="10"/>
<path d="M235.698 135.23L240.093 137.695L240.44 142.437L234.812 145.226L216.874 143.832L211.66 142.313L215.205 135.319L222.154 134.367L235.696 135.23H235.698Z" fill="#FEC971" stroke="#BA6E29" stroke-width="0.945866" stroke-miterlimit="10"/>
<path d="M239.827 130.509L240.804 125.655L218.364 124.223L218.286 129.119L239.827 130.509Z" fill="#FEC971"/>
<path d="M218.288 129.119L218.366 124.223L207.153 128.025L206.59 132.803L218.288 129.119Z" fill="#A86228"/>
<path d="M233.412 142.004L234.669 140.154L234.525 138.178L232.981 137.139L230.067 137.448L228.884 138.508L228.342 140.861L226.438 141.073L225.532 139.61L225.894 138.584L226.499 137.888L226.093 136.794L223.666 136.438L222.075 136.874L222.231 139.263L225.05 142.109L226.364 142.672L228.88 142.693L231.182 138.893L232.435 139.458L232.058 141.331L230.393 142.605L231.95 142.844L233.408 142.002L233.412 142.004Z" fill="#A86228"/>
<path d="M221.265 140.578L235.288 141.403L234.543 142.179L221.868 141.371L221.265 140.578Z" fill="#A86228"/>
<path d="M220.08 138.586L236.314 139.733L235.539 140.954L221.076 140.032L220.08 138.588V138.586Z" fill="#A86228"/>
<path d="M183.834 133.239L184.12 128.747L186.623 123.653L194.607 119.756L206.636 120.924L216.734 131.807L217.206 142.372L212.096 147.56L206.823 145.745L183.832 133.239H183.834Z" fill="#CD8129" stroke="#BA6E29" stroke-width="0.945866" stroke-miterlimit="10"/>
<path d="M204.14 125.143C203.699 124.982 194.708 124.392 194.708 124.392L187.213 126.901L183.832 133.239L186.746 140.146L192.436 146.075L201.729 150.07L210.382 149.287L215.606 143.927L214.005 134.968L204.137 125.143H204.14Z" fill="#F9A020" stroke="#BA6E29" stroke-width="0.945866" stroke-miterlimit="10"/>
<path d="M214.375 134.761L216.362 131.931L206.453 121.277L204.354 124.794L214.375 134.761Z" fill="#FEC971"/>
<path d="M194.664 124.009V120.12L186.911 123.937L184.455 128.804L184.334 131.487L186.954 126.584" fill="#A86228"/>
<path d="M203.304 130.215L209.028 136.993L209.434 142.831L206.825 145.745L199.973 146.367L193.441 143.144L188.202 135.795L189.668 130.679L195.024 128.527L203.304 130.213V130.215Z" fill="#FEC971" stroke="#BA6E29" stroke-width="0.945866" stroke-miterlimit="10"/>
<path d="M200.788 142.909L202.986 142.488L204.286 140.992L203.928 139.166L201.649 137.329L200.062 137.243L198.012 138.525L196.514 137.329L198.035 136.218L199.017 135.749L199.937 135.683L200.187 134.306L198.962 132.659L197.591 132.49L195.944 133.641L194.169 136.455L194.948 138.425L196.53 139.627L201.414 139.139L201.899 140.423L200.305 141.481L197.815 141.151L199.159 142.473L200.788 142.907V142.909Z" fill="#A86228"/>
<path d="M193.65 133.542L202.802 143.828L201.725 143.849L193.229 134.208L193.65 133.544V133.542Z" fill="#A86228"/>
<path d="M194.909 132.164L204.446 143.354L203.033 143.669L194.076 133.216L194.909 132.164Z" fill="#A86228"/>
</g>
<mask id="mask6_547_5237" style="mask-type:luminance" maskUnits="userSpaceOnUse" x="133" y="116" width="71" height="46">
<path d="M196.031 116.321L133.344 131.915L140.726 161.592L203.414 145.997L196.031 116.321Z" fill="white"/>
</mask>
<g mask="url(#mask6_547_5237)">
<path d="M200.301 135.112L197.174 123.689L189.304 121.027L167.272 126.508L157.498 133.724L159.54 144.437L200.301 135.114V135.112Z" fill="#CD8129" stroke="#BA6E29" stroke-width="0.945866" stroke-miterlimit="10"/>
<path d="M189.784 126.749L198.566 128.772L200.352 135.317L190.997 144.342L169.604 149.211L159.631 144.68L158.554 139.263L169.015 131.914L189.784 126.749Z" fill="#F9A020" stroke="#BA6E29" stroke-width="0.945866" stroke-miterlimit="10"/>
<path d="M187.298 132.113L192.235 133.131L194.001 137.547L189.482 141.908L171.963 146.009L166.533 146.138L167.794 138.4L174.13 135.389L187.298 132.113Z" fill="#FEC971" stroke="#BA6E29" stroke-width="0.945866" stroke-miterlimit="10"/>
<path d="M189.806 126.364L189.268 121.442L167.448 126.87L168.855 131.561L189.806 126.366V126.364Z" fill="#FEC971"/>
<path d="M168.855 131.559L167.448 126.868L157.911 133.887L158.821 138.61L168.855 131.559Z" fill="#A86228"/>
<path d="M187.171 139.259L187.81 137.116L187.076 135.275L185.29 134.752L182.607 135.929L181.801 137.298L181.998 139.706L180.248 140.482L178.942 139.363L178.976 138.275L179.342 137.429L178.622 136.508L176.202 136.904L174.818 137.801L175.69 140.029L179.236 141.889L180.66 142.027L183.064 141.286L184.109 136.968L185.474 137.126L185.682 139.026L184.482 140.745L186.039 140.501L187.173 139.257L187.171 139.259Z" fill="#A86228"/>
<path d="M175.16 141.578L188.775 138.121L188.299 139.086L175.973 142.152L175.158 141.578H175.16Z" fill="#A86228"/>
<path d="M173.43 140.04L189.249 136.219L188.881 137.615L174.816 141.113L173.43 140.038V140.04Z" fill="#A86228"/>
<path d="M137.264 145.912L136.177 141.542L137.021 135.929L143.45 129.798L155.27 127.272L168.188 134.587L171.836 144.513L168.537 151.005L162.964 150.87L137.267 145.908L137.264 145.912Z" fill="#CD8129" stroke="#BA6E29" stroke-width="0.945866" stroke-miterlimit="10"/>
<path d="M154.168 132.05C153.698 132.031 144.952 134.189 144.952 134.189L138.568 138.851L137.265 145.914L142.134 151.615L149.351 155.544L159.417 156.539L167.429 153.174L170.785 146.483L166.546 138.43L154.17 132.052L154.168 132.05Z" fill="#F9A020" stroke="#BA6E29" stroke-width="0.945866" stroke-miterlimit="10"/>
<path d="M166.834 138.119L167.873 134.82L155.202 127.665L154.267 131.652L166.834 138.116V138.119Z" fill="#FEC971"/>
<path d="M144.794 133.84L143.613 130.135L137.381 136.119L136.514 141.502L137.21 144.096L138.221 138.631" fill="#A86228"/>
<path d="M154.906 137.139L162.414 141.866L164.568 147.306L162.964 150.874L156.622 153.542L149.421 152.448L142.204 147.031L142.051 141.712L146.506 138.04L154.908 137.141L154.906 137.139Z" fill="#FEC971" stroke="#BA6E29" stroke-width="0.945866" stroke-miterlimit="10"/>
<path d="M156.351 150L158.319 148.934L159.106 147.114L158.213 145.48L155.483 144.418L153.945 144.816L152.379 146.659L150.591 145.973L151.706 144.454L152.5 143.709L153.357 143.369L153.179 141.978L151.511 140.781L150.155 141.035L148.936 142.63L148.096 145.849L149.434 147.491L151.306 148.157L155.811 146.215L156.662 147.292L155.464 148.781L152.991 149.221L154.671 150.076L156.355 149.996L156.351 150Z" fill="#A86228"/>
<path d="M146.713 143.231L158.55 150.265L157.53 150.61L146.514 143.993L146.715 143.231H146.713Z" fill="#A86228"/>
<path d="M147.496 141.536L159.972 149.315L158.722 150.042L147.02 142.791L147.496 141.536Z" fill="#A86228"/>
</g>
<path d="M145.312 222.394L142.939 151.445L261.554 139.547L257.228 207.059L145.314 222.394H145.312Z" fill="#E5B784" stroke="#694B1E" stroke-width="4.44366" stroke-miterlimit="10"/>
<path d="M155.676 164.23L156.84 203.802L244.281 192.115L246.287 155.267L155.676 164.23Z" fill="#A4752A" stroke="#694B1E" stroke-width="3.24387" stroke-miterlimit="10"/>
<path d="M66.9385 145.825L142.94 151.447L260.737 138.959" stroke="#694B1E" stroke-width="4.44366" stroke-miterlimit="10"/>
<path d="M190.043 76.8405L186.659 76.8955L173.074 82.7167" fill="#755021"/>
<path d="M190.043 76.8405L186.659 76.8955L173.074 82.7167" stroke="#694B1E" stroke-width="3.24387" stroke-miterlimit="10"/>
</g>
</g>
<defs>
<clipPath id="clip0_547_5237">
<rect width="311" height="237" fill="white"/>
</clipPath>
<clipPath id="clip1_547_5237">
<rect width="223" height="159.274" fill="white" transform="translate(41 66)"/>
</clipPath>
</defs>
</svg>
