<svg width="183" height="205" viewBox="0 0 183 205" fill="none" xmlns="http://www.w3.org/2000/svg">
<path d="M31.2066 29.4158L28.282 27.021L24.3192 24.7085L16.0646 24.0496L8.63281 25.3674L6.32227 24.0496L8.46824 31.3165L13.9186 34.4589L18.7613 35.6183H26.136L29.9975 35.1178" fill="#38464A"/>
<path d="M31.2066 29.4158L28.282 27.021L24.3192 24.7085L16.0646 24.0496L8.63281 25.3674L6.32227 24.0496L8.46824 31.3165L13.9186 34.4589L18.7613 35.6183H26.136L29.9975 35.1178" stroke="#21222B" stroke-width="2.67819" stroke-miterlimit="10"/>
<path d="M26.6296 27.3437L23.0783 25.272L15.6845 24.6828L9.02507 25.8675L6.95508 24.6828L8.87949 31.1957L13.7601 34.0087L18.1027 35.0477C16.5961 33.3625 15.0958 31.6836 13.5892 29.9983C17.0582 30.22 20.5272 30.4418 23.9899 30.6572" fill="#4F6165"/>
<path d="M30.3647 15.0971C31.9726 29.9095 44.1394 141.852 44.1394 141.852L39.8474 150.069L42.0757 157.754C43.5886 160.054 45.1016 162.36 46.6145 164.66C46.8487 166.833 47.0893 169.006 47.3235 171.179C47.7919 175.474 48.4819 181.829 49.3745 190.078C49.9569 191.37 50.533 192.656 51.1153 193.949H53.9007H56.686L36.0746 12.981L34.5933 12.1067H32.7639L30.7255 12.7339L29.9912 13.6272L30.3647 15.0971L32.7702 15.5152C33.9286 15.1794 35.0934 14.8436 36.2518 14.5079" fill="#805128"/>
<path d="M30.3647 15.0971C31.9726 29.9095 44.1394 141.852 44.1394 141.852L39.8474 150.069L42.0757 157.754C43.5886 160.054 45.1016 162.36 46.6145 164.66C46.8487 166.833 47.0893 169.006 47.3235 171.179C47.7919 175.474 48.4819 181.829 49.3745 190.078C49.9569 191.37 50.533 192.656 51.1153 193.949H53.9007H56.686L36.0746 12.981L34.5933 12.1067H32.7639L30.7255 12.7339L29.9912 13.6272L30.3647 15.0971ZM30.3647 15.0971L32.7702 15.5152C33.9286 15.1794 35.0934 14.8436 36.2518 14.5079" stroke="#2B211C" stroke-width="2.67819" stroke-miterlimit="10"/>
<path d="M46.2851 149.074C46.9434 151.969 47.6081 154.858 48.2665 157.754C46.8612 157.754 45.4622 157.754 44.0568 157.754C42.8541 154.738 42.1957 153.249 42.0755 153.293C41.9299 153.344 42.5946 155.656 44.0568 160.237C45.2153 161.314 46.3674 162.385 47.5258 163.462C47.7727 167.263 48.0196 171.064 48.2665 174.866C49.0071 180.074 49.7541 185.275 50.4947 190.483C50.5011 191.268 50.5011 192.06 50.5074 192.846H53.2168H55.9261C51.0455 149.999 46.1648 107.152 41.2842 64.3047" fill="#703A24"/>
<path d="M40.8092 33.3628L45.8165 40.5726L49.4184 52.8065L51.5517 64.7046L53.052 82.8875V98.0927L51.5517 115.807L63.6235 110.453L79.1454 104.701L94.6672 104.371L112.17 107.343L123.4 112.962L132.978 115.807L145.86 113.627L165.016 105.695L174.922 101.729L164.686 85.8588L159.73 70.3242L156.761 52.8065L156.432 38.7163L157.419 29.8339L157.09 24.0496L137.605 26.362L129.68 28.0156H115.804L101.934 24.0496L86.4125 19.4183L69.5677 17.7648L51.5517 22.396L40.2332 29.8339L40.1572 35.6182" fill="#38464A"/>
<path d="M40.8092 33.3628L45.8165 40.5726L49.4184 52.8065L51.5517 64.7046L53.052 82.8875V98.0927L51.5517 115.807L63.6235 110.453L79.1454 104.701L94.6672 104.371L112.17 107.343L123.4 112.962L132.978 115.807L145.86 113.627L165.016 105.695L174.922 101.729L164.686 85.8589L159.73 70.3242L156.761 52.8065L156.432 38.7163L157.419 29.8339L157.09 24.0496L137.605 26.362L129.68 28.0156H115.804L101.934 24.0496L86.4125 19.4183L69.5677 17.7648L51.5517 22.396L40.2332 29.8339L40.1572 35.6182" stroke="#21222B" stroke-width="2.67819" stroke-miterlimit="10"/>
<path d="M46.8545 40.5028L50.3425 52.3566L52.4062 63.8872C53.3367 68.151 54.2672 72.4212 55.1978 76.685C57.3438 81.0628 59.4897 85.447 61.6357 89.8248C61.9649 81.3986 62.294 72.966 62.6295 64.5398C66.6493 60.295 70.669 56.0565 74.6824 51.8117C74.6254 47.624 74.5748 43.4362 74.5178 39.2484C77.8222 36.4925 81.1203 33.7365 84.4247 30.9869C85.0134 27.325 85.6021 23.6631 86.1908 20.0011L69.8651 18.3983L52.4062 22.8838C50.5577 28.7568 48.7093 34.6298 46.8545 40.5028Z" fill="#4F6165"/>
<path d="M150.487 94.4563C146.962 96.547 143.442 98.6441 139.916 100.735C139.473 103.377 139.036 106.025 138.593 108.667C136.649 110.624 134.706 112.582 132.763 114.54L145.164 112.443L163.61 104.802L173.15 100.982L163.294 85.7069L158.521 70.7488L155.659 53.8773C153.494 57.9257 151.323 61.9804 149.158 66.0288C149.709 70.8755 150.26 75.7222 150.81 80.5752" fill="#4F6165"/>
<path d="M41.9866 29.0041C41.4929 29.1688 39.5431 28.0094 39.5431 28.0094H35.7133L31.8329 28.5163L29.9971 31.1518V35.1178L32.947 38.7164L37.2009 37.6014L40.0369 37.9498L41.993 38.7228L43.2147 35.2952V31.3292L41.9866 29.0041Z" fill="#38464A" stroke="#21222B" stroke-width="2.67819" stroke-miterlimit="10"/>
<path d="M39.8286 113.19L36.3787 111.644L31.9475 110.453L23.8067 111.986L16.9827 115.211L14.4062 114.546L18.3817 121.002L24.4651 122.598L29.447 122.44L36.5622 120.501L40.1578 119.013" fill="#38464A"/>
<path d="M39.8286 113.19L36.3787 111.644L31.9475 110.453L23.8067 111.986L16.9827 115.211L14.4062 114.546L18.3817 121.002L24.4651 122.598L29.447 122.44L36.5622 120.501L40.1578 119.013" stroke="#21222B" stroke-width="2.67819" stroke-miterlimit="10"/>
<path d="M50.3303 111.448C49.8366 111.613 47.8869 110.453 47.8869 110.453H44.0571L40.1766 110.96L38.3408 113.596V117.562L41.2907 121.16L45.5447 120.045L48.3806 120.394L50.3367 121.167L51.5584 117.739V113.773L50.3303 111.448Z" fill="#38464A" stroke="#21222B" stroke-width="2.67819" stroke-miterlimit="10"/>
<path d="M119.412 36.5243C115.741 35.9857 112.076 35.4536 108.404 34.915C104.34 34.915 100.282 34.915 96.2183 34.915L89.1411 37.4873L85.21 43.601V52.6101L90.3185 58.7239L97.3957 60.01L96.6108 65.1608L101.719 67.733H107.22L109.183 62.5822L111.145 67.733L116.254 66.4469L115.076 58.084L124.116 55.1887C124.508 50.5764 124.901 45.9642 125.293 41.3519C123.344 39.7427 121.375 38.1335 119.412 36.5243Z" fill="#CDD2CA" stroke="#21222B" stroke-width="2.67819" stroke-miterlimit="10"/>
<path d="M99.6177 51.945C98.4403 52.6609 97.2629 53.3831 96.0791 54.0991C94.5219 53.5732 92.9646 53.041 91.401 52.5152C91.3061 52.4391 91.1288 52.2934 90.9326 52.097C89.6159 50.7982 89.1475 49.1383 89.1475 49.1383C89.1475 49.1383 89.6222 48.017 90.3629 46.2683C90.7617 45.9136 91.2871 45.0393 92.3316 45.0393C92.3316 45.0393 93.5027 44.8175 95.6866 44.412C96.9147 45.0456 98.1491 45.6728 99.3772 46.3064C99.8393 47.0603 100.282 48.0676 100.403 49.2714C100.428 49.5121 100.434 49.7402 100.434 49.9619C100.428 49.9619 100.156 50.6208 99.6177 51.945Z" fill="#21222B"/>
<path d="M118.995 44.7289C120.059 45.5588 121.116 46.3951 122.18 47.2251C121.8 48.5682 121.42 49.9177 121.046 51.2608C120.97 51.3495 120.825 51.5142 120.616 51.7106C119.268 52.9904 117.35 53.6429 117.35 53.6429C117.35 53.6429 115.919 53.4465 113.691 53.1361C113.197 52.8763 112.057 52.5976 111.88 51.755C111.88 51.755 111.418 50.849 110.563 49.151C111.121 48.055 111.678 46.9526 112.228 45.8566C113.064 45.3624 114.197 44.8366 115.634 44.5388C115.919 44.4818 116.197 44.4311 116.463 44.3994C116.47 44.4057 117.312 44.5135 118.995 44.7289Z" fill="#21222B"/>
<path d="M102.201 55.7208C102.15 55.3977 102.131 54.9859 102.201 54.5171C102.327 53.6935 102.682 53.0599 102.96 52.6735L104.631 50.7601L107.145 51.5521L109.392 55.271L108.778 56.139L105.91 56.5888C105.518 56.4241 105.062 56.2594 104.543 56.1136C103.65 55.8666 102.846 55.7652 102.201 55.7208Z" fill="#21222B"/>
<path d="M112.323 77.2491L101.366 81.0124L88.6733 85.5169L83.6028 83.4009L79.8299 82.4062L76.209 82.5899L76.4685 86.1188L78.184 87.9688L82.3177 89.2675L80.6212 93.0055L82.1721 95.7234L86.5273 95.508L89.2114 92.7964L90.3888 89.7237L117.21 80.0113L131.251 75.019L135.91 79.7326L141.196 79.6819L143.88 76.9703L142.303 73.3971L137.246 71.7118L136.935 67.5367L134.827 65.1736L130.453 64.312L128.484 67.9549L128.649 70.204L112.323 77.2491Z" fill="#CDD2CA" stroke="#21222B" stroke-width="2.67819" stroke-miterlimit="10"/>
<path d="M102.612 77.5276L113.627 81.1768L126.395 85.5483L131.428 83.3816L135.181 82.3489L138.809 82.4883L138.6 86.0235L136.916 87.8925L132.801 89.2356L134.561 92.9545L133.048 95.6852L128.687 95.5141L125.964 92.8278L124.736 89.7741L97.7694 80.3405L83.6529 75.4939L79.0698 80.2518L73.784 80.2582L71.0557 77.5719L72.5749 73.986L77.6075 72.2501L77.848 68.0687L79.9244 65.6802L84.2796 64.7805L86.3116 68.4044L86.1787 70.6535L102.612 77.5276Z" fill="#CDD2CA" stroke="#21222B" stroke-width="2.67819" stroke-miterlimit="10"/>
<path d="M43.8477 31.3163L52.1846 28.0092L59.5468 26.3556L64.9971 28.8328C62.0092 29.9352 59.015 31.0375 56.0271 32.1399C56.3563 34.332 56.6855 36.5178 57.021 38.7098C55.4131 38.7098 53.7988 38.7098 52.191 38.7098L43.854 35.2823V31.3163H43.8477Z" fill="#38464A"/>
<path d="M50.875 111.676L54.6795 105.904C55.3505 104.789 56.0215 103.674 56.6862 102.553C57.4015 104.314 58.1168 106.082 58.8322 107.843C61.3073 106.234 63.7888 104.625 66.2639 103.009L64.618 106.899L59.0094 111.359L52.4766 113.697L50.875 111.676Z" fill="#4F6165"/>
<path d="M35.6693 112.772L31.7445 111.866L24.3191 113.114L17.9825 115.68L15.6973 115.173L18.9004 120.197L24.2875 121.407L28.782 121.255C26.9588 120.197 25.1357 119.139 23.3126 118.075C26.7816 117.441 30.2506 116.808 33.7196 116.174" fill="#4F6165"/>
<path d="M147.512 46.1163C145.936 47.0222 144.36 47.9282 142.79 48.8342L140.732 54.1687C141.619 58.6162 142.499 63.0701 143.385 67.5176C144.347 63.748 145.316 59.9847 146.278 56.2151L151.412 49.9492C152.285 46.3823 153.159 42.8218 154.032 39.2549" fill="#4F6165"/>
<path d="M121.628 40.0659C120.565 39.426 119.533 38.7544 118.533 38.0512L118.925 38.2096C115.26 38.6087 111.595 38.7481 107.917 38.7671C104.252 38.7798 100.593 38.6594 96.9339 38.3996L97.3897 38.3426C95.1045 38.9065 92.8003 39.4133 90.477 39.8441L90.9581 39.521C90.2048 40.2939 89.4262 41.0479 88.6413 41.7955C87.85 42.5494 87.0397 43.278 86.2041 43.9749C87.1853 42.0299 88.3121 40.1672 89.4705 38.3299L89.5781 38.1589C91.9393 37.1895 94.3259 36.3026 96.7314 35.4853C100.492 35.4346 104.252 35.536 108.006 35.7704C111.772 36.0238 115.532 36.3913 119.261 37.0438C120.084 38.0195 120.875 39.0205 121.628 40.0659Z" fill="#EEF2EB"/>
<path d="M118.45 84.2052C113.601 83.2422 108.745 81.6267 104.086 79.9731C99.402 78.2372 94.7745 76.3682 90.375 73.9607C95.2936 74.9554 100.035 76.5012 104.738 78.1928C109.366 79.9288 114.114 81.8167 118.45 84.2052Z" fill="#EEF2EB"/>
<path d="M129.87 71.1539C124.857 74.7398 119.096 77.236 113.051 78.4144C118.052 74.8285 123.825 72.3449 129.87 71.1539Z" fill="#EEF2EB"/>
<path d="M83.9569 65.3633C82.8364 65.6294 81.7159 65.8892 80.5955 66.1553C80.0258 66.7508 79.456 67.3527 78.8863 67.9482C78.8357 69.1646 78.785 70.3874 78.7344 71.6038C80.1524 71.1983 81.5703 70.7929 82.982 70.3937L85.2292 68.5881L83.9569 65.3633Z" fill="#EEF2EB"/>
<path d="M130.795 64.7805C131.915 65.0466 133.036 65.3064 134.156 65.5725C134.726 66.168 135.296 66.7699 135.865 67.3654C135.916 68.5818 135.967 69.8046 136.017 71.021C134.599 70.6155 133.181 70.2101 131.77 69.8109L129.522 68.0053L130.795 64.7805Z" fill="#EEF2EB"/>
<path d="M138.074 84.7692V82.9952H135.719L132.377 83.8822L128.414 85.7385H134.232L138.074 84.7692Z" fill="#EEF2EB"/>
</svg>
