<svg width="94" height="120" viewBox="0 0 94 120" fill="none" xmlns="http://www.w3.org/2000/svg">
<g clip-path="url(#clip0_537_4958)">
<path d="M14.6742 110.353L3.38623 92.9837L9.68204 68.6654L22.165 50.4268L30.512 54.3022H40.7162C40.7162 54.3022 59.6398 49.8292 59.8571 48.3753C60.0744 46.9213 66.0081 40.4537 66.0081 40.4537L80.3741 48.6236L89.1246 68.8103L93.0459 99.4978L72.8574 119.04L14.6768 110.356L14.6742 110.353Z" fill="#EDB266" stroke="#EDB266" stroke-width="2.30142" stroke-miterlimit="10"/>
<path d="M14.3845 91.4754C14.4932 91.8013 21.9038 104.612 22.2297 104.721C22.5556 104.83 61.0987 106.863 61.0987 106.863L71.0054 92.7534L68.9465 71.8449C68.9465 71.8449 54.1847 47.0222 54.076 47.9613C53.9674 48.9004 37.5476 55.161 37.0044 55.3758C36.6889 55.5025 26.6347 54.9204 26.6347 54.9204L18.58 66.068L14.3845 91.4754Z" fill="#EDB266"/>
<path d="M75.1207 24.4501L69.919 31.699L70.4234 42.9655L61.1219 50.6335L43.8615 56.6588L25.3 55.6809L18.0083 53.8001L13.5852 51.7822L15.3519 42.8155L19.6017 36.4643L53.7941 31.9059L75.1207 24.4501Z" fill="#EDB266" stroke="#EDB266" stroke-width="0.963307" stroke-miterlimit="10"/>
<path d="M71.582 32.4006L70.7439 32.2997L70.8422 34.3202L71.3905 35.2567L71.582 32.4006Z" fill="#EDB266" stroke="#EDB266" stroke-width="1.08495" stroke-miterlimit="10"/>
<path d="M71.3907 33.5619L64.1275 40.7435C64.1275 40.7435 51.1014 46.6549 48.4966 46.9628C45.8919 47.2706 31.9682 48.4296 31.9682 48.4296L28.2564 51.9687L20.031 54.3229L25.3025 55.6811L45.0513 58.0094L63.2145 52.437L71.3907 41.6076V33.5619Z" fill="#EDB266" stroke="#EDB266" stroke-width="1.64387" stroke-miterlimit="10"/>
<path d="M11.0579 56.6591L28.3882 52.1447L36.0394 44.7639L49.5545 40.4538L63.7187 37.1631L75.9845 23.4854L73.2168 13.6469L59.7043 1.59387L40.5453 0.910889L25.1317 7.09392L17.046 20.7147L0.975342 33.148L3.31364 48.4012L11.0579 56.6591Z" fill="#EDB266" stroke="#EDB266" stroke-width="2.30142" stroke-miterlimit="10"/>
<path d="M59.6679 30.8586L66.8484 23.4027L66.3414 15.5795L55.6509 6.05144L42.4618 5.61682L29.3296 10.6124L20.3903 24.2513L6.93213 35.1945L7.56585 45.1882L11.7975 51.0505L24.2805 46.1558L33.6156 36.2862L59.6679 30.8586Z" fill="#EDB266" stroke="#EDB266" stroke-width="0.963307" stroke-miterlimit="10"/>
<path d="M52.5833 16.6791L58.1859 21.3383L57.6763 26.4219L49.0111 37.347L42.4877 40.974L37.0093 37.0986L52.5833 16.6791Z" fill="#EDB266" stroke="#EDB266" stroke-width="0.601656" stroke-miterlimit="10"/>
<path d="M54.5934 24.6939L55.6927 19.2663L52.4827 16.5964L45.0514 19.5301L36.8906 30.2534L36.8958 36.9849L39.6531 38.9692L46.4275 34.9903L54.5934 24.6939Z" fill="#EDB266" stroke="#EDB266" stroke-width="0.601656" stroke-miterlimit="10"/>
<path d="M50.9592 24.7144L51.642 21.6953L49.6193 19.5791L46.0291 20.9968L39.2832 29.7488L39.4669 34.2218L42.4854 34.02L45.7808 31.2441L50.9592 24.7144Z" fill="#EDB266" stroke="#EDB266" stroke-width="0.601656" stroke-miterlimit="10"/>
<path d="M54.8158 24.7793L57.436 26.3341L48.8537 37.1557L46.5852 35.1714L54.8158 24.7793Z" fill="#EDB266"/>
<path d="M46.9266 22.9631L48.2871 23.1546L49.133 24.0342L48.97 25.1673L47.6302 26.3677L46.6602 26.4686L45.3617 25.7468L44.4822 26.5255L44.7771 27.5422L45.3953 27.8009L45.9618 27.8113L46.2929 28.4477L45.4574 29.6998L44.6038 30.2457L43.5769 29.1901L43.4373 26.7325L43.7192 25.902L44.7461 24.7456L47.431 25.2604L47.6871 24.4584L46.6757 23.8557L45.4083 24.0911L45.9411 23.2813L46.9266 22.9631Z" fill="#EDB266"/>
<path d="M42.5788 29.0892L47.9719 22.3577L47.3097 22.3784L42.4624 28.489L42.5788 29.0892Z" fill="#EDB266"/>
<path d="M43.0004 30.4526L49.1565 22.5777L48.2823 22.4276L42.7495 29.4023L43.0004 30.4526Z" fill="#EDB266"/>
<path d="M19.7671 21.8115L21.138 29.3191L26.0344 31.4663L40.4548 29.1742L47.1153 25.0866L46.3988 18.0939L19.7671 21.8115Z" fill="#EDB266" stroke="#EDB266" stroke-width="0.627958" stroke-miterlimit="10"/>
<path d="M26.0446 27.7643L20.5274 25.9767L19.7437 21.677L26.2386 16.402L40.2141 14.4669L46.3547 17.931L46.7453 21.47L39.6347 25.6041L26.0446 27.7643Z" fill="#EDB266" stroke="#EDB266" stroke-width="0.627958" stroke-miterlimit="10"/>
<path d="M27.9307 24.4582L24.8268 23.5321L23.937 20.5984L27.0746 18.0501L38.5255 16.3918L42.5115 18.8599L40.7758 21.509L36.5519 23.0897L27.9307 24.4582Z" fill="#EDB266" stroke="#EDB266" stroke-width="0.627958" stroke-miterlimit="10"/>
<path d="M26.009 28.0127L26.0815 31.2025L40.3621 28.9311L39.7206 25.8422L26.009 28.0127Z" fill="#EDB266"/>
<path d="M28.4062 19.8791L27.8811 21.2192L28.2484 22.4429L29.3658 22.8775L31.1506 22.2721L31.7429 21.4365L31.7481 19.8817L32.9146 19.4781L33.688 20.2723L33.6079 20.9682L33.3259 21.4908L33.7346 22.1221L35.3073 22.0005L36.2436 21.5012L35.8091 20.0214L33.6389 18.6321L32.7336 18.464L31.1532 18.8055L30.2453 21.5193L29.3788 21.3408L29.3503 20.1093L30.2142 19.0745L29.2029 19.1444L28.4062 19.8791Z" fill="#EDB266"/>
<path d="M36.2313 19.0586L27.3179 20.5203L27.6748 19.9252L35.7425 18.6447L36.2313 19.0586Z" fill="#EDB266"/>
<path d="M37.2551 20.1428L26.9087 21.7158L27.2217 20.8388L36.4274 19.3771L37.2551 20.1428Z" fill="#EDB266"/>
<path d="M35.8971 29.2002L37.4904 32.3098L37.8474 36.7L34.0813 42.4665L25.6101 46.4584L14.5705 43.2039L10.062 36.3456L11.4019 30.8585L15.631 29.9789L35.8971 29.2002Z" fill="#EDB266" stroke="#EDB266" stroke-width="0.759467" stroke-miterlimit="10"/>
<path d="M25.5994 42.6524C25.9564 42.5852 32.1746 39.4135 32.1746 39.4135L36.1657 34.7671L35.8993 29.1998L31.2175 25.7513L25.0769 24.0542L17.3067 25.0735L11.8593 29.0265L10.5117 34.674L15.134 40.0137L25.602 42.6524H25.5994Z" fill="#EDB266" stroke="#EDB266" stroke-width="0.759467" stroke-miterlimit="10"/>
<path d="M14.9689 40.2986L14.7698 42.9736L25.5947 46.1479V42.971L14.9689 40.2986Z" fill="#EDB266"/>
<path d="M32.3557 39.652L33.8999 42.2416L37.5445 36.6251L37.2444 32.4031L36.2589 30.5663L36.4632 34.8737" fill="#EDB266"/>
<path d="M24.1406 38.9379L17.6405 36.6898L15.0513 32.9567L15.6307 29.979L19.9425 26.8461L25.5684 26.4037L31.9729 29.2262L33.0308 33.2205L30.32 36.7803L24.1406 38.9379Z" fill="#EDB266" stroke="#EDB266" stroke-width="0.759467" stroke-miterlimit="10"/>
<path d="M20.7727 29.4741L19.4768 30.6253L19.2078 32.1387L20.17 33.2149L22.4152 33.5383L23.5067 32.9666L24.3629 31.2979L25.8321 31.4997L25.2604 32.845L24.7948 33.5487L24.2077 33.9574L24.5879 34.9767L26.0571 35.5873L27.0374 35.1552L27.6737 33.7349L27.7384 31.1531L26.4373 30.1493L24.9087 29.9734L21.8539 32.237L21.021 31.5722L21.6599 30.2347L23.4498 29.4663L22.0298 29.1171L20.7727 29.4741Z" fill="#EDB266"/>
<path d="M29.2441 32.892L19.0684 29.6633L19.7771 29.2209L29.2596 32.2814L29.2441 32.892Z" fill="#EDB266"/>
<path d="M28.9516 34.3093L18.1628 30.6306L18.9776 29.8596L29.0913 33.2797L28.9516 34.3093Z" fill="#EDB266"/>
<path d="M23.3364 46.5281L33.6182 36.2885L56.7503 31.4689C56.7503 31.4689 56.176 38.8601 56.0829 38.9403C55.9898 39.0205 36.0419 44.7663 36.0419 44.7663L28.5795 51.966L23.339 46.5306L23.3364 46.5281Z" fill="#EDB266" stroke="#EDB266" stroke-width="0.963307" stroke-miterlimit="10"/>
<path d="M23.0364 47.0664L26.9603 51.5757L28.4553 51.5731L30.8867 49.1826L25.0255 45.4004L23.5951 46.7974L23.0364 47.0664Z" fill="#EDB266"/>
<path d="M55.3691 38.7594L63.2454 36.356L60.6743 36.0844L58.1653 31.5674L55.6925 32.0822L55.3691 38.7594Z" fill="#EDB266"/>
<path d="M3.76074 40.2987L4.15391 47.9926L11.1972 56.2479L17.8733 54.5119L24.3372 52.2845L26.96 51.5757L34.8621 41.2689L33.7939 36.6639L23.5949 46.7974L11.668 51.5265L9.27022 48.2151L7.19835 45.3279L7.03539 43.0565L3.76074 40.2987Z" fill="#EDB266"/>
<path d="M21.2669 81.549L20.1831 89.9414L25.5943 99.353L48.2142 100.657L56.7474 94.36L58.1856 85.6753L55.0066 76.6647L37.8471 71.3457L26.96 73.0273L21.2669 81.549Z" fill="#EDB266"/>
<path d="M26.1328 55.3423L31.0034 55.9813L34.9506 52.3335L33.7892 48.9238L32.9537 48.9989L31.9682 49.9483L30.5404 52.8328L26.1328 55.3423Z" fill="#EDB266"/>
<path d="M50.7852 46.7741L54.8746 48.0547L54.1995 54.7603L58.9744 53.2779L59.2641 49.0792L55.6842 44.8778L50.7852 46.7741Z" fill="#EDB266"/>
<path d="M62.2288 42.0605L66.3053 43.2816L65.7931 48.347L69.36 43.5869L68.5246 39.5459L66.551 38.969L64.3627 41.0852L62.2288 42.0605Z" fill="#EDB266"/>
<path d="M38.5873 46.9319L35.1135 58.3666L38.5873 89.9415L48.2147 87.6623L39.3116 59.4894L42.7311 46.6603L38.5873 46.9319Z" fill="#EDB266" stroke="#EDB266" stroke-width="1.64387" stroke-miterlimit="10"/>
<path d="M38.4421 84.5837C38.4421 84.5837 41.7038 82.377 41.665 82.4494C41.6262 82.5218 46.639 84.0585 46.639 84.0585L45.6716 81.0188L41.6676 80.566L38.1912 82.5581L38.4447 84.5837H38.4421Z" fill="#EDB266"/>
<path d="M36.6964 69.0019C36.6964 69.0019 38.5923 67.4315 38.5535 67.504C38.5147 67.5764 41.8903 69.1131 41.8903 69.1131L40.8039 65.6206H38.5535L36.4429 66.6839L36.6964 68.9993V69.0019Z" fill="#EDB266"/>
<path d="M37.6272 51.6119L39.3602 49.7389L40.8475 52.0646L41.7709 48.5359L40.4854 49.5138L38.5144 48.6264L37.6272 51.6119Z" fill="#EDB266"/>
<path d="M42.7308 46.6602L39.3113 59.4894L45.4312 78.856L51.4321 76.5147L53.116 67.3954L48.0049 62.1618L47.1254 46.1558L42.7308 46.6602Z" fill="#EDB266" stroke="#EDB266" stroke-width="1.64387" stroke-miterlimit="10"/>
<path d="M40.2993 57.4196L44.1637 55.2206L47.4021 59.1296L47.1124 53.865L43.3877 52.8328L41.1969 54.0823L40.2993 57.4196Z" fill="#EDB266"/>
<path d="M44.4486 74.4011L48.0983 68.8829L52.6378 67.5583L49.671 64.5186L45.2582 65.6775L43.7373 72.1089L44.4486 74.4011Z" fill="#EDB266"/>
</g>
<defs>
<clipPath id="clip0_537_4958">
<rect width="94" height="120" fill="white"/>
</clipPath>
</defs>
</svg>
