<svg width="159" height="204" viewBox="0 0 159 204" fill="none" xmlns="http://www.w3.org/2000/svg">
<g clip-path="url(#clip0_313_1690)">
<path d="M25.3374 186.777L6.31738 157.497L16.9257 116.503L37.9593 85.7581L52.0238 92.2909H69.2176C69.2176 92.2909 101.104 84.7507 101.47 82.2998C101.836 79.8489 111.834 68.9464 111.834 68.9464L136.04 82.7185L150.785 116.748L157.392 168.478L123.375 201.421L25.3417 186.781L25.3374 186.777Z" fill="#A4742A" stroke="#684A1D" stroke-width="4.1525" stroke-miterlimit="10"/>
<path d="M24.8491 154.954C25.0322 155.504 37.519 177.1 38.0681 177.283C38.6173 177.466 103.562 180.894 103.562 180.894L120.254 157.109L116.785 121.863C116.785 121.863 91.9116 80.019 91.7286 81.602C91.5455 83.1851 63.8785 93.7388 62.9632 94.1007C62.4315 94.3144 45.4904 93.3332 45.4904 93.3332L31.9184 112.125L24.8491 154.954Z" fill="#C49048"/>
<path d="M127.188 41.9686L118.424 54.1882L119.274 73.1805L103.601 86.1065L74.5174 96.2633L43.2416 94.6149L30.9553 91.4444L23.5024 88.0428L26.4792 72.9275L33.6401 62.2212L91.2536 54.5371L127.188 41.9686Z" fill="#7C5321" stroke="#684A1D" stroke-width="1.73812" stroke-miterlimit="10"/>
<path d="M121.227 55.3709L119.814 55.2008L119.98 58.6067L120.904 60.1854L121.227 55.3709Z" fill="#F99F1E" stroke="#B96E29" stroke-width="1.95761" stroke-miterlimit="10"/>
<path d="M120.904 57.3286L108.666 69.4348C108.666 69.4348 86.7167 79.3997 82.3278 79.9186C77.9389 80.4376 54.4777 82.3913 54.4777 82.3913L48.2234 88.3572L34.3638 92.3258L43.2462 94.6153L76.5224 98.5402L107.127 89.1466L120.904 70.8913V57.3286Z" fill="#F99F1E" stroke="#B96E29" stroke-width="2.96607" stroke-miterlimit="10"/>
<path d="M19.2439 96.264L48.4451 88.654L61.3372 76.212L84.1098 68.9466L107.976 63.3993L128.644 40.3426L123.98 23.7576L101.212 3.43964L68.9295 2.28833L42.9579 12.7112L29.3335 35.672L2.25488 56.631L6.19487 82.3436L19.2439 96.264Z" fill="#C49048" stroke="#684A1D" stroke-width="4.1525" stroke-miterlimit="10"/>
<path d="M101.151 52.7717L113.25 40.2032L112.396 27.0155L94.3827 10.9538L72.1593 10.2212L50.0318 18.6423L34.9692 41.6336L12.2925 60.0807L13.3603 76.9274L20.4906 86.8094L41.5242 78.5584L57.2536 61.9211L101.151 52.7717Z" fill="#7C5321" stroke="#684A1D" stroke-width="1.73812" stroke-miterlimit="10"/>
<path d="M89.2135 28.869L98.6538 36.7232L97.7952 45.2926L83.1946 63.7092L72.2027 69.8234L62.9717 63.2906L89.2135 28.869Z" fill="#CD8129" stroke="#B96E29" stroke-width="1.08558" stroke-miterlimit="10"/>
<path d="M92.6003 42.3796L94.4526 33.2302L89.0438 28.7296L76.5222 33.675L62.7715 51.7515L62.7802 63.0988L67.4262 66.4437L78.8409 59.7365L92.6003 42.3796Z" fill="#F99F1E" stroke="#B96E29" stroke-width="1.08558" stroke-miterlimit="10"/>
<path d="M86.4765 42.4143L87.6271 37.3249L84.2189 33.7576L78.1694 36.1475L66.8027 50.9008L67.1122 58.441L72.1984 58.1009L77.751 53.4215L86.4765 42.4143Z" fill="#FDC06E" stroke="#B96E29" stroke-width="1.08558" stroke-miterlimit="10"/>
<path d="M92.9748 42.5238L97.3899 45.1448L82.9287 63.387L79.1064 60.0421L92.9748 42.5238Z" fill="#FDC06E"/>
<path d="M79.6822 39.462L81.9747 39.7847L83.3999 41.2674L83.1253 43.1776L80.8677 45.2011L79.2333 45.3712L77.0454 44.1544L75.5635 45.4671L76.0604 47.181L77.102 47.6171L78.0565 47.6345L78.6144 48.7073L77.2066 50.8181L75.7684 51.7383L74.0381 49.959L73.8027 45.816L74.2778 44.4161L76.0081 42.4667L80.5321 43.3346L80.9636 41.9826L79.2594 40.9665L77.1238 41.3634L78.0217 39.9984L79.6822 39.462Z" fill="#A76127"/>
<path d="M72.3563 49.7889L81.4435 38.4415L80.3278 38.4764L72.1602 48.7772L72.3563 49.7889Z" fill="#A76127"/>
<path d="M73.0663 52.0872L83.4393 38.8123L81.9661 38.5593L72.6436 50.3166L73.0663 52.0872Z" fill="#A76127"/>
<path d="M33.9189 37.5207L36.2289 50.1764L44.4793 53.796L68.7773 49.9322L80.0002 43.0417L78.7929 31.2539L33.9189 37.5207Z" fill="#CD8129" stroke="#B96E29" stroke-width="1.13304" stroke-miterlimit="10"/>
<path d="M44.4964 47.5557L35.2 44.5422L33.8794 37.2942L44.8233 28.4021L68.3717 25.14L78.7185 30.9794L79.3766 36.9453L67.3954 43.9142L44.4964 47.5557Z" fill="#F99F1E" stroke="#B96E29" stroke-width="1.13304" stroke-miterlimit="10"/>
<path d="M47.6742 41.9824L42.4441 40.4211L40.9448 35.4757L46.2315 31.1801L65.5261 28.3847L72.2424 32.5451L69.3179 37.0108L62.2007 39.6754L47.6742 41.9824Z" fill="#FDC06E" stroke="#B96E29" stroke-width="1.13304" stroke-miterlimit="10"/>
<path d="M44.4355 47.9742L44.5576 53.3513L68.6202 49.5224L67.5394 44.3153L44.4355 47.9742Z" fill="#FDC06E"/>
<path d="M48.4756 34.2632L47.5908 36.5222L48.2097 38.585L50.0925 39.3176L53.0998 38.2971L54.0979 36.8885L54.1066 34.2676L56.0722 33.5872L57.3754 34.9261L57.2403 36.0992L56.7652 36.9801L57.4539 38.0442L60.1038 37.8392L61.6815 36.9976L60.9493 34.5031L57.2926 32.1612L55.7672 31.8777L53.1042 32.4534L51.5744 37.0281L50.1143 36.7272L50.0664 34.6513L51.5221 32.9069L49.818 33.0247L48.4756 34.2632Z" fill="#A76127"/>
<path d="M61.6601 32.8801L46.6411 35.3441L47.2426 34.341L60.8364 32.1823L61.6601 32.8801Z" fill="#A76127"/>
<path d="M63.3857 34.7078L45.9521 37.3593L46.4795 35.8809L61.991 33.417L63.3857 34.7078Z" fill="#A76127"/>
<path d="M61.098 49.976L63.7828 55.2179L64.3842 62.6186L58.0384 72.3393L43.7647 79.0683L25.1631 73.5822L17.5664 62.0211L19.8241 52.7714L26.95 51.2886L61.098 49.976Z" fill="#CD8129" stroke="#B96E29" stroke-width="1.37032" stroke-miterlimit="10"/>
<path d="M43.7467 72.6529C44.3482 72.5395 54.8257 67.1929 54.8257 67.1929L61.5507 59.3605L61.1018 49.9756L53.2131 44.1623L42.8663 41.3015L29.7737 43.0197L20.5949 49.6834L18.3242 59.2035L26.1127 68.2046L43.7511 72.6529H43.7467Z" fill="#F99F1E" stroke="#B96E29" stroke-width="1.37032" stroke-miterlimit="10"/>
<path d="M25.8341 68.6848L25.4985 73.194L43.7384 78.545V73.1897L25.8341 68.6848Z" fill="#FDC06E"/>
<path d="M55.1309 67.5947L57.7328 71.9601L63.8738 62.4923L63.3682 55.3751L61.7077 52.2788L62.052 59.5399" fill="#A76127"/>
<path d="M41.2885 66.3911L30.3359 62.6013L25.9731 56.3084L26.9494 51.2888L34.2149 46.0076L43.6943 45.2619L54.4857 50.0198L56.2683 56.7532L51.7007 62.754L41.2885 66.3911Z" fill="#FDC06E" stroke="#B96E29" stroke-width="1.37032" stroke-miterlimit="10"/>
<path d="M35.6139 50.4377L33.4303 52.3784L32.9771 54.9296L34.5984 56.7438L38.3815 57.2889L40.2207 56.3251L41.6633 53.5122L44.1389 53.8524L43.1757 56.1201L42.3912 57.3063L41.4018 57.9954L42.0425 59.7136L44.5181 60.7428L46.1699 60.0145L47.2421 57.6203L47.351 53.268L45.1587 51.576L42.5829 51.2794L37.4357 55.0953L36.0323 53.9745L37.1088 51.7199L40.1248 50.4246L37.732 49.8359L35.6139 50.4377Z" fill="#A76127"/>
<path d="M49.8876 56.1993L32.7417 50.7567L33.9359 50.011L49.9137 55.1701L49.8876 56.1993Z" fill="#A76127"/>
<path d="M49.3951 58.5886L31.2163 52.3872L32.5892 51.0876L49.6305 56.8529L49.3951 58.5886Z" fill="#A76127"/>
<path d="M39.9331 79.1858L57.2577 61.9249L96.2348 53.8003C96.2348 53.8003 95.2672 66.2597 95.1103 66.3949C94.9534 66.5301 61.3415 76.2159 61.3415 76.2159L48.7676 88.3527L39.9375 79.1902L39.9331 79.1858Z" fill="#C49048" stroke="#684A1D" stroke-width="1.73812" stroke-miterlimit="10"/>
<path d="M39.4277 80.0935L46.0394 87.6947L48.5586 87.6904L52.6554 83.6608L42.7793 77.285L40.3691 79.6399L39.4277 80.0935Z" fill="#C49048"/>
<path d="M93.9072 66.0901L107.179 62.0387L102.846 61.5808L98.6186 53.9664L94.452 54.8343L93.9072 66.0901Z" fill="#C49048"/>
<path d="M6.94873 68.6848L7.61121 81.6545L19.4791 95.5705L30.7281 92.6443L41.6197 88.8894L46.0391 87.6945L59.354 70.3202L57.554 62.5576L40.3689 79.6397L20.2723 87.6116L16.2321 82.0295L12.741 77.1626L12.4664 73.3336L6.94873 68.6848Z" fill="#E5B67F"/>
<path d="M36.4463 138.221L34.6201 152.369L43.7379 168.234L81.852 170.432L96.2303 159.817L98.6536 145.177L93.2971 129.988L64.3836 121.022L46.0391 123.856L36.4463 138.221Z" fill="#E5B67F"/>
<path d="M44.645 94.0439L52.8519 95.1211L59.5028 88.9721L57.5459 83.2242L56.1381 83.3507L54.4775 84.9512L52.0717 89.8137L44.645 94.0439Z" fill="#A96527"/>
<path d="M86.1836 79.6007L93.0742 81.7594L91.9367 93.0632L99.9823 90.5643L100.47 83.4864L94.4384 76.4041L86.1836 79.6007Z" fill="#A96527"/>
<path d="M105.466 71.6548L112.335 73.7132L111.472 82.2521L117.482 74.2278L116.074 67.4159L112.749 66.4434L109.061 70.0107L105.466 71.6548Z" fill="#A96527"/>
<path d="M65.6302 79.8666L59.7769 99.1423L65.6302 152.369L81.8521 148.527L66.8505 101.035L72.6123 79.4087L65.6302 79.8666Z" fill="#F99F1E" stroke="#B96E29" stroke-width="2.96607" stroke-miterlimit="10"/>
<path d="M65.3861 143.337C65.3861 143.337 70.8821 139.617 70.8167 139.739C70.7513 139.861 79.1979 142.452 79.1979 142.452L77.5678 137.327L70.8211 136.564L64.9634 139.922L65.3905 143.337H65.3861Z" fill="#A96527"/>
<path d="M62.4442 117.07C62.4442 117.07 65.6389 114.423 65.5735 114.545C65.5082 114.667 71.1959 117.258 71.1959 117.258L69.3653 111.37H65.5735L62.0171 113.163L62.4442 117.066V117.07Z" fill="#A96527"/>
<path d="M64.0132 87.7558L66.9333 84.5984L69.4394 88.5189L70.9953 82.5705L68.8292 84.219L65.5081 82.7231L64.0132 87.7558Z" fill="#A96527"/>
<path d="M72.6124 79.4086L66.8506 101.035L77.1625 133.682L87.274 129.735L90.1113 114.362L81.4991 105.54L80.0173 78.5582L72.6124 79.4086Z" fill="#F99F1E" stroke="#B96E29" stroke-width="2.96607" stroke-miterlimit="10"/>
<path d="M68.5156 97.5459L75.0271 93.8391L80.4838 100.429L79.9956 91.5539L73.7195 89.8138L70.028 91.9202L68.5156 97.5459Z" fill="#A96527"/>
<path d="M75.5072 126.172L81.6568 116.87L89.3058 114.637L84.3067 109.513L76.8713 111.466L74.3086 122.308L75.5072 126.172Z" fill="#A96527"/>
</g>
<defs>
<clipPath id="clip0_313_1690">
<rect width="158.388" height="202.286" fill="white" transform="translate(0.611816 0.75293)"/>
</clipPath>
</defs>
</svg>
