<svg width="104" height="66" viewBox="0 0 104 66" fill="none" xmlns="http://www.w3.org/2000/svg">
<g clip-path="url(#clip0_350_2094)">
<path d="M69.1001 42.8828C70.1852 44.6339 71.2705 46.3834 72.3556 48.1344C74.3095 49.5269 76.265 50.9194 78.2189 52.3118C79.3916 53.6003 80.5643 54.8889 81.7385 56.1775C82.6556 58.9683 83.5743 61.7576 84.4914 64.5485C85.2447 61.2557 85.9997 57.9613 86.753 54.6685L84.9968 44.6893C83.1745 43.3209 81.3522 41.9509 79.5298 40.5824C77.2777 39.953 75.0273 39.3221 72.7752 38.6928C71.1441 38.3139 69.5145 37.9367 67.8834 37.5579L75.0097 37.1865C79.1889 37.9609 83.3681 38.7338 87.5488 39.5083C89.055 40.1989 90.5628 40.8895 92.069 41.5784C95.4109 42.6364 98.7528 43.6959 102.095 44.7539C100.069 42.2555 98.043 39.7571 96.0171 37.2571C94.4106 35.8347 92.8041 34.4139 91.196 32.9915C89.1454 32.1359 87.0932 31.2819 85.0427 30.4264C82.2732 29.9351 79.5036 29.4454 76.7358 28.9541L67.1877 31.1889C66.1292 31.9299 65.6117 33.2237 65.8717 34.4654C66.1154 35.6319 67.0091 36.5714 68.1764 36.8932L69.1001 42.8828Z" fill="#B24930"/>
<path d="M68.4743 38.7039L68.4331 38.4384C68.3049 38.4527 68.1768 38.4654 68.0469 38.4812C68.1859 38.5627 68.3284 38.6364 68.4727 38.7038L68.4743 38.7039Z" fill="#8C3429"/>
<path d="M72.5174 49.0577C74.4713 50.4502 76.4268 51.8427 78.3807 53.2351C79.7684 54.8751 81.1562 56.5134 82.544 58.1534C83.2311 60.349 83.9184 62.5431 84.6056 64.7387C84.7188 64.0149 84.8335 63.2926 84.9467 62.5688C84.4417 60.5802 83.9367 58.5917 83.4317 56.6032C81.4975 53.6551 79.5634 50.7071 77.6294 47.7575C77.474 46.9616 77.3202 46.1641 77.1648 45.3682C78.277 45.4988 79.3875 45.6309 80.4997 45.7614C80.5635 45.3362 80.6288 44.9126 80.6925 44.4873C80.3397 44.1927 79.9868 43.8982 79.6324 43.6036L76.8272 42.1873C76.4664 41.5077 76.1072 40.8282 75.7465 40.147L72.9371 39.6129C71.4484 39.3093 69.9598 39.0042 68.4727 38.7006L69.2604 43.8029C70.3455 45.554 71.4307 47.305 72.5159 49.0545L72.5174 49.0577Z" fill="#8C3429"/>
<path d="M96.996 42.624C95.3376 41.3094 93.6793 39.9932 92.0225 38.6786C86.1537 36.5693 80.2866 34.46 74.4179 32.3523C72.4389 32.7855 70.4582 33.2203 68.4792 33.6535C67.7786 34.5971 67.0779 35.539 66.3773 36.4826C66.7839 37.2179 67.5035 37.7742 68.3365 37.818L68.433 38.4384C69.555 38.3484 70.677 38.2583 71.7974 38.1682C72.9232 38.1483 74.0473 38.1298 75.1731 38.1099C76.1222 38.1199 77.0697 38.1314 78.0188 38.1414C81.2505 38.9043 84.4806 39.6672 87.7123 40.4301C89.2184 41.1207 90.7262 41.8113 92.2324 42.5002C95.4858 43.194 98.7409 43.8878 101.994 44.58C100.329 43.9281 98.6616 43.2744 96.9961 42.6224L96.996 42.624Z" fill="#8C3429"/>
<path d="M21.8511 35.049C28.0433 34.266 34.2922 33.927 40.534 34.0361C46.1284 34.1337 51.7023 34.822 57.1301 36.1756C63.154 37.6755 66.6169 41.1766 69.215 46.3862C69.7774 44.8731 70.3622 42.8458 70.6208 40.4073C70.8372 38.3725 70.7698 36.5879 70.6171 35.1642C70.6325 34.8357 70.6496 34.5073 70.665 34.1788C70.7234 33.3416 70.7818 32.5044 70.8402 31.6672C70.6379 28.4515 69.7415 21.6871 64.9507 15.1557C58.9118 6.92112 50.5466 4.36088 47.3431 3.39712C42.9152 2.06332 37.664 1.49207 31.5198 2.40248C24.2651 3.47809 16.8689 6.24943 11.3299 10.7816C0.0987943 19.969 1.97602 27.603 1.53136 31.2205C1.75954 31.5629 1.98613 31.9052 2.21425 32.2492C2.05022 32.6675 1.88613 33.0874 1.72051 33.5057C1.5906 35.3608 1.46228 37.216 1.33237 39.0711C1.5494 40.0967 1.76643 41.1222 1.98341 42.1493C3.82491 40.7826 6.54438 38.8524 10.2473 37.5504C13.9891 36.2355 17.9245 35.5447 21.8495 35.049L21.8511 35.049Z" fill="#B24930"/>
<path d="M69.3194 46.2851C69.7997 44.7451 70.2786 43.2034 70.759 41.6634C70.9646 39.6601 71.1686 37.6583 71.3743 35.655C71.3169 34.6719 71.0548 33.2696 70.9446 31.5644C70.7416 28.4108 69.8522 21.6291 65.0551 15.0529C57.1686 4.24556 44.9394 2.51396 42.6471 2.23283C49.702 5.48336 55.6195 11.4146 62.5633 15.2015C63.6628 15.8006 64.8439 16.3931 65.526 17.4424C60.0723 16.0147 54.531 14.9239 48.9433 14.1763C41.4201 13.1689 33.3143 12.8932 26.7301 16.6535C29.6016 17.0198 32.4731 17.3862 35.3431 17.7509C38.0519 18.3719 40.759 18.9944 43.4678 19.6154C42.1091 19.3771 40.7488 19.1387 39.3901 18.9004C38.0684 19.2961 36.7466 19.6935 35.4265 20.0893C43.5187 21.7126 51.611 23.3358 59.7033 24.9574C60.5597 25.8256 61.4161 26.6938 62.2726 27.562C58.4824 27.4809 54.6939 27.3998 50.9037 27.3187C44.4864 27.5512 38.0707 27.7822 31.6534 28.0147C41.8121 28.4847 51.9346 29.7545 61.8937 31.8099C61.947 31.9645 61.9348 32.0769 61.9079 32.1554C61.7699 32.562 60.9963 32.7668 59.9765 32.6413L19.5366 32.3744C15.5331 33.3473 11.5297 34.3201 7.52626 35.293L1.31595 40.366C1.51275 40.9505 1.76768 41.5164 2.08608 42.0497L10.3516 37.4508C14.219 36.6176 18.0864 35.7827 21.9538 34.9494C28.182 34.6113 34.4085 34.2746 40.6367 33.9365C46.1682 34.6486 51.7013 35.3623 57.2328 36.0744C59.2808 36.9966 61.3288 37.9204 63.3769 38.8426C65.3572 41.3234 67.3375 43.8042 69.3178 46.285L69.3194 46.2851Z" fill="#9B3E2C"/>
<path opacity="0.21" d="M16.496 10.383C13.7009 13.439 10.9043 16.495 8.10936 19.5494C7.95437 19.9395 7.79938 20.3295 7.64432 20.7212C7.84228 21.0608 8.04019 21.402 8.23815 21.7417C8.54931 21.6992 8.86048 21.6568 9.17159 21.616C11.6601 20.9999 14.1486 20.3822 16.6355 19.766C16.0501 20.1448 15.4631 20.5219 14.8777 20.9006C12.0705 21.9325 9.2632 22.9659 6.45599 23.9977C6.2837 24.039 6.11136 24.0818 5.93907 24.1231C5.62023 23.8155 5.30292 23.5095 4.98408 23.202C5.06377 22.7344 5.14353 22.2652 5.22322 21.7976C7.80411 18.4506 10.3833 15.1052 12.9642 11.7582L21.6702 7.41581C20.9964 7.80875 20.3243 8.20334 19.6505 8.59628C18.6006 9.19138 17.5491 9.78642 16.4992 10.3831L16.496 10.383Z" fill="white"/>
<path opacity="0.21" d="M27.7833 26.9545C27.3915 26.7221 27.0012 26.4913 26.6093 26.2589C26.1683 26.1471 25.7272 26.0352 25.2861 25.9249L33.9972 24.3092C36.977 24.2519 39.9569 24.1947 42.9367 24.139C40.2201 23.7705 37.505 23.4036 34.7884 23.0351C30.8402 23.3821 26.8905 23.7274 22.9424 24.0744C22.43 24.2922 21.9192 24.51 21.4068 24.7261L20.9932 25.4181C20.7374 25.5596 20.4816 25.701 20.2274 25.8426C16.7091 27.0688 13.1909 28.2967 9.67427 29.523C7.58406 30.8407 5.49391 32.1569 3.4037 33.4746L3.60653 34.3677L8.32291 32.1655C11.3149 31.0134 14.307 29.8597 17.299 28.7076L22.495 27.5519L27.7848 26.9578L27.7833 26.9545Z" fill="white"/>
</g>
<defs>
<clipPath id="clip0_350_2094">
<rect width="101" height="61" fill="white" transform="translate(2.67334 0.636871) rotate(2.13844)"/>
</clipPath>
</defs>
</svg>
