<svg width="104" height="59" viewBox="0 0 104 59" fill="none" xmlns="http://www.w3.org/2000/svg">
<g clip-path="url(#clip0_350_2186)">
<path d="M94.4355 33.2486C87.1277 28.3722 77.5699 33.6914 74.714 29.6446C71.8597 25.5978 81.5665 16.5474 76.8249 10.4516C70.618 2.4737 51.9991 2.70504 51.9991 2.70504C51.9991 2.70504 33.7527 2.4737 27.5458 10.4516C22.8025 16.5474 32.1385 25.5978 29.2842 29.6446C26.43 33.6914 16.8722 28.3722 9.56269 33.2486C1.30454 38.7594 0.23999 42.7104 0.23999 42.7104L17.1205 58.8976C17.1205 58.8976 25.6849 54.0411 35.2427 51.7293C44.8005 49.4176 59.1993 49.4176 68.7571 51.7293C78.3149 54.0411 86.8793 58.8976 86.8793 58.8976L103.76 42.7104C103.76 42.7104 102.695 38.7611 94.4355 33.2502V33.2486Z" fill="#353535"/>
<path d="M81.05 48.2212C79.9308 49.13 78.8116 50.0389 77.6908 50.9461C76.5253 51.802 75.3597 52.6596 74.1942 53.5156C81.209 55.9347 86.6145 59 86.6145 59L103.495 42.8128C102.089 40.4664 99.2269 36.4394 94.1707 33.3526C85.641 28.1442 76.9391 29.3207 74.4491 29.7487C75.5302 28.0054 77.0931 24.9765 77.6544 20.9313C77.8862 19.264 78.5534 14.4489 76.56 10.5557C73.7869 5.13576 66.234 2.22914 57.8335 3.14458C58.3666 3.45359 58.9063 3.79729 59.4477 4.18396C62.9741 6.69896 65.0751 9.9245 66.3284 12.4973C67.2241 16.7457 68.1198 20.9941 69.0154 25.2425C67.8102 27.7294 66.6049 30.2163 65.4013 32.7016C66.9559 33.1362 68.7605 33.5179 70.7836 33.7311C75.0716 34.1838 78.7355 33.7145 81.4043 33.1296C83.7039 34.1293 86.0019 35.1274 88.3015 36.1271C88.2254 37.2292 88.1492 38.3298 88.0747 39.4319L81.0484 48.2212H81.05Z" fill="#161616"/>
<path d="M13.3607 36.246C21.5426 32.2686 29.0988 32.1116 32.9663 32.3083C28.3869 21.7526 29.2776 16.2219 31.5094 13.1153C36.4199 6.28582 52.0008 5.36872 52.0008 5.36872C52.0008 5.36872 55.9014 5.31089 60.4526 6.25112C63.8085 6.94349 69.7588 8.60583 72.8051 13.1153C76.1626 18.0891 75.2686 25.7068 71.0369 32.3083C74.0087 31.958 81.8397 31.4424 90.0217 35.8908C95.707 38.9808 99.0994 43.13 100.793 45.5558L104.002 42.398C102.457 40.0433 99.4669 36.2031 94.4372 33.2485C85.934 28.2549 77.4341 29.2215 74.7156 29.6446C76.4226 26.8635 78.5517 22.3193 78.4325 16.706C78.3927 14.8404 78.3232 12.6659 77.1361 10.326C76.4805 9.03381 74.7007 6.14702 68.1528 3.34284C59.0934 -0.537061 50.8286 -0.0132403 49.7541 0.0677287C42.9231 0.57833 31.266 1.44916 26.9498 10.0682C22.7297 18.4956 28.516 28.3738 29.2842 29.6446C26.531 29.2215 18.0593 28.2846 9.56271 33.2485C4.56279 36.17 1.56449 39.9607 -0.00170898 42.3121C0.691989 43.0342 1.38734 43.7547 2.08104 44.4768C4.39226 42.0675 8.08757 38.8089 13.359 36.246H13.3607Z" fill="#4924CE"/>
<path d="M86.4707 58.6712C86.7373 58.8166 86.8796 58.8959 86.8796 58.8959L87.9839 57.8367L86.4707 58.6695V58.6712Z" fill="#B24930"/>
<path d="M16.8127 58.6001L17.1207 58.8959C17.1207 58.8959 17.167 58.8695 17.2564 58.8199L16.8127 58.6001Z" fill="#B24930"/>
<path opacity="0.18" d="M32.3786 17.0663C32.6551 18.4362 32.9332 19.806 33.2097 21.1759L35.2941 24.1387C35.6252 24.1734 35.958 24.2064 36.2891 24.2412C36.5739 23.5223 36.8587 22.8019 37.1434 22.0831C36.5789 20.4604 36.016 18.8394 35.4514 17.2167C36.0193 15.898 36.5872 14.5777 37.155 13.2591C37.8984 12.7369 38.6418 12.2148 39.3835 11.6943C39.5076 11.4993 39.6301 11.3059 39.7543 11.1109C39.6517 10.8879 39.549 10.6648 39.4464 10.4417C38.4067 10.559 37.3669 10.6747 36.3289 10.792C35.1551 12.0677 33.9812 13.3434 32.8074 14.6174C32.6634 15.4337 32.5193 16.25 32.377 17.0663H32.3786Z" fill="white"/>
<path d="M64.6065 33.8748C64.6628 33.5856 64.5602 33.2337 64.2969 33.0833C64.1082 32.9759 63.8814 32.9924 63.6827 33.0519C63.2175 33.1907 62.845 33.5311 62.5619 33.9227C62.2092 34.4135 62.1132 34.8597 61.5536 35.0943C61.2639 35.2166 60.9162 35.2794 60.6132 35.3785C56.5587 36.6955 54.7723 37.2755 52.3816 38.0505C52.2922 38.0802 52.2028 38.1083 52.115 38.1364C51.9279 38.1976 51.7458 38.2554 51.5687 38.3132C51.4809 38.3413 51.3932 38.3711 51.3021 38.3992C48.9114 39.1758 47.125 39.7558 43.0705 41.0711C42.7675 41.1703 42.4529 41.3207 42.145 41.3934C41.5506 41.5322 41.1781 41.2397 40.5738 41.0596C40.0904 40.9158 39.5722 40.8646 39.1152 41.0265C38.9215 41.0943 38.7311 41.2132 38.655 41.4066C38.549 41.6776 38.7046 42.013 38.9414 42.2064C39.1781 42.3997 39.4745 42.4856 39.7626 42.5649C39.5672 43.0392 39.4877 43.5944 39.6798 44.0984C39.8718 44.6024 40.3834 45.0171 40.895 44.9676C41.2493 44.9329 41.539 44.6916 41.7543 44.4157C41.9678 44.138 42.1268 43.8175 42.342 43.5415C42.4728 43.373 42.6234 43.2226 42.7758 43.0722L51.9362 40.0979L53.0157 39.7475L62.1761 36.7732C62.3947 36.8029 62.6148 36.8327 62.8301 36.8888C63.1827 36.9814 63.5205 37.14 63.8731 37.2342C64.2257 37.3284 64.6148 37.3466 64.9145 37.1697C65.3499 36.9136 65.4741 36.2907 65.287 35.785C65.1016 35.2794 64.6678 34.8894 64.1993 34.6316C64.3714 34.4019 64.5469 34.1623 64.6032 33.8748H64.6065Z" fill="white"/>
<path d="M39.294 34.0896C39.2327 33.8021 39.3271 33.4468 39.587 33.2915C39.7741 33.1808 40.0009 33.194 40.1996 33.2502C40.6665 33.3807 41.0472 33.7145 41.337 34.1012C41.6996 34.5854 41.8039 35.0299 42.3684 35.2546C42.6615 35.3719 43.0091 35.4281 43.3138 35.5223C47.3932 36.7682 49.1912 37.3152 51.5968 38.0505C51.6878 38.0786 51.7772 38.105 51.865 38.1315C52.052 38.1893 52.2358 38.2455 52.4146 38.3C52.5024 38.3265 52.5918 38.3546 52.6828 38.3827C55.0884 39.1163 56.8864 39.6649 60.9658 40.9109C61.2721 41.0034 61.5883 41.1505 61.8979 41.2166C62.4956 41.3455 62.8615 41.0447 63.4625 40.8547C63.9426 40.7027 64.4608 40.6432 64.921 40.7952C65.1164 40.8596 65.3085 40.9753 65.3879 41.167C65.4988 41.4347 65.3498 41.7734 65.1181 41.9717C64.8863 42.17 64.5899 42.2609 64.3035 42.3452C64.5088 42.8161 64.5982 43.3697 64.4177 43.877C64.2373 44.3843 63.7323 44.809 63.2191 44.766C62.8648 44.7362 62.5684 44.5016 62.3499 44.2289C62.1297 43.9563 61.9658 43.6374 61.7456 43.3647C61.6115 43.1978 61.4575 43.0508 61.3019 42.9037L52.0835 40.0896L50.9974 39.7575L41.7774 36.9434C41.5588 36.9764 41.3403 37.0111 41.1267 37.0706C40.7757 37.1681 40.4413 37.335 40.0903 37.4342C39.7393 37.5333 39.3519 37.5597 39.0473 37.3879C38.6069 37.1384 38.4711 36.5187 38.6466 36.0098C38.8221 35.5008 39.2476 35.1042 39.7112 34.8382C39.534 34.6118 39.3536 34.3755 39.2923 34.088L39.294 34.0896Z" fill="white"/>
</g>
<defs>
<clipPath id="clip0_350_2186">
<rect width="104" height="59" fill="white"/>
</clipPath>
</defs>
</svg>
