<svg width="160" height="228" viewBox="0 0 160 228" fill="none" xmlns="http://www.w3.org/2000/svg">
<g clip-path="url(#clip0_313_1752)">
<path d="M77.865 142.615L82.132 153.604L87.6188 162.762L95.5402 171.307H103.462L121.474 159.164L124.184 154.28L121.204 151.295L110.911 155.367L101.027 158.893L97.3726 152.382L102.652 149.532L126.618 142.615L136.912 139.9L140.701 133.929L135.012 124.433L127.428 121.718L120.384 129.587L110.905 135.287C108.232 135.838 105.559 136.384 102.891 136.935C97.6737 139.848 92.1868 139.427 89.6485 136.509C89.1501 135.937 88.1483 134.559 88.0237 132.031C94.1179 130.585 100.212 129.134 106.306 127.688L118.225 121.718L130.143 114.12L140.707 104.893C140.707 104.893 147.476 99.1934 147.476 98.3821C147.476 97.5708 145.581 85.7546 145.581 85.7546L140.437 81.4276L133.668 80.2574L124.459 91.5951L114.155 101.373L104.676 108.7C103.674 109.897 102.081 111.613 99.8331 113.314C98.1979 114.546 93.1316 118.379 91.268 116.975C90.9722 116.751 89.9184 115.768 91.1331 111.446L106.841 98.9282C106.841 98.9282 126.613 79.108 127.153 78.0263C127.693 76.9497 137.987 61.9247 138.526 59.938C139.066 57.9513 138.796 50.5558 139.066 48.9643C139.336 47.3729 133.652 36.3212 133.652 36.3212L123.358 35.6399C123.358 35.6399 111.17 56.5991 111.44 57.4156C111.71 58.2321 106.026 71.5253 105.751 72.8827C105.481 74.2401 95.7323 85.7598 95.7323 85.7598L89.2332 91.3298C88.5636 89.7072 87.6863 87.0184 87.6084 83.5963C87.5306 80.0598 88.3404 77.2565 88.9633 75.5923C92.1661 72.9711 95.3741 70.3447 98.5769 67.7235L112.66 45.4382C112.66 45.4382 120.514 35.1615 120.919 33.9393C121.324 32.7171 121.734 19.3719 121.734 19.3719L110.765 10.3902C110.765 10.3902 101.017 14.9045 101.826 16.8912C102.641 18.8779 98.172 35.6295 98.5769 36.8205C98.9818 38.0115 93.2977 50.1293 93.2977 50.1293L86.3938 61.5086L85.1739 55.3769L89.6433 43.0406L95.3326 25.8833L99.8019 5.93312L95.3326 0.477511C95.3326 0.477511 83.1442 2.01694 81.9244 0.477511C80.7045 -1.06192 65.6767 8.4659 65.6767 8.4659L62.8321 25.8885L68.9263 44.7309L70.9559 55.3821L72.9856 66.0333L68.1113 59.9432L66.4865 48.9695L62.8321 35.6399L58.7676 16.8964L56.7379 12.4705L51.0487 16.8964L43.3297 25.8885V36.8257C43.3297 36.8257 46.9841 50.1605 46.9841 52.428C46.9841 54.7008 56.3278 67.7235 56.3278 67.7235L66.4865 72.8775C67.0471 73.1635 69.8243 74.6405 70.9559 78.0263C72.2225 81.8228 70.4212 84.9953 70.1409 85.4634C67.1613 82.9826 64.1817 80.507 61.2021 78.0263L46.9841 58.877L41.2949 45.4382L37.2304 36.8205L31.5411 37.7567L25.8518 55.3769L27.8815 69.2317L44.9441 88.8907L56.3175 92.552L66.4761 93.7742C67.2755 95.6777 68.0749 97.5812 68.8795 99.4899C67.9452 101.929 67.0056 104.363 66.0712 106.802C63.6315 106.396 61.1969 105.986 58.7572 105.58L44.5392 96.2186L33.1659 81.438L25.8518 75.4623L20.9775 93.3685L30.7261 113.314L43.3193 119.419C43.3193 119.419 57.9422 120.236 59.567 119.825C61.3838 119.367 64.7683 117.557 67.6908 119.008C68.049 119.185 69.518 119.918 70.1306 121.453C71.2518 124.266 68.9107 128.37 68.9107 128.37L59.567 129.186L41.6946 124.708L30.7261 116.652H24.632L20.9775 130.814V140.581L36.4154 147.498L55.5077 145.054L66.881 138.542L69.7256 140.987L66.0712 145.059L49.8236 151.976L38.8551 151.16C38.8551 151.16 31.9512 154.01 32.761 156.449C33.5759 158.893 43.3245 171.307 43.3245 171.307L56.7327 167.443L68.9211 153.604L72.5755 145.87L71.7605 157.265L67.2911 175.988L60.3871 194.711L53.4832 203.256L49.8288 206.106L50.2337 210.584L52.6734 213.839H55.1132L65.2718 199.189L72.5859 180.466L77.4602 157.671L77.865 142.615Z" fill="#448249" stroke="#31473A" stroke-width="1.72655" stroke-miterlimit="10"/>
<path d="M77.6675 142.802L77.2678 157.677L72.3935 180.472L65.0795 199.194L54.926 213.845H52.4862L50.0517 210.589L49.6416 206.111L53.3012 203.267L60.2052 194.717L67.1143 175.994L71.5785 157.271L72.3935 145.876C72.9801 144.883 73.4784 143.853 73.8833 142.802H77.6675Z" fill="#8BA52C" stroke="#31473A" stroke-width="1.72655" stroke-miterlimit="10"/>
<path d="M75.7519 104.67L79.2558 59.5692C79.5258 59.5848 79.4064 63.4022 79.7541 75.9724C80.1279 89.3332 80.756 102.626 80.756 102.626L80.7456 102.725C78.6121 123.461 75.4405 153.386 75.4405 153.391C75.4405 153.391 74.2881 156.298 73.7534 156.22C73.0475 156.116 72.7879 150.754 73.7482 123.539C73.7534 123.461 73.7534 123.419 73.7534 123.419C73.7482 123.414 75.7519 104.67 75.7519 104.67Z" fill="#8BA52B"/>
<path d="M78.9084 137.591L82.4746 146.776L87.0582 154.426L93.6766 161.567C95.535 163.116 97.3985 164.666 99.2569 166.221C104.313 164.593 109.369 162.966 114.425 161.338C115.868 158.893 117.316 156.454 118.759 154.01C117.134 154.374 115.51 154.733 113.885 155.097C111.087 155.913 108.289 156.725 105.491 157.541C103.233 157.453 100.975 157.359 98.7222 157.271C97.549 153.433 96.3811 149.594 95.2079 145.756C101.676 144.883 108.144 144.014 114.612 143.14C111.289 142.958 110.433 142.501 110.365 142.074C110.225 141.164 113.584 140.035 119.652 137.591C123.774 135.932 127.174 134.46 129.598 133.389C128.965 131.579 128.337 129.769 127.703 127.964C125.175 128.781 122.647 129.592 120.119 130.409C115.572 133.014 111.03 135.62 106.483 138.226C105.247 138.512 104.017 138.803 102.782 139.089C98.8104 138.725 94.8394 138.366 90.8631 138.002C88.8335 137.841 87.053 136.587 86.2587 134.746C85.3867 132.734 85.8383 130.357 87.3956 128.75C92.4879 127.538 97.5802 126.331 102.672 125.12L112.629 120.132C115.847 118.946 119.06 117.755 122.279 116.57C124.988 114.578 127.693 112.591 130.402 110.599C136.336 104.982 140.151 101.373 140.151 101.373C140.151 101.373 137.82 99.4642 134.192 96.4893C132.749 95.9485 131.301 95.4024 129.857 94.8615C127.963 95.5844 126.068 96.3073 124.168 97.0302C121.91 98.6581 119.652 100.286 117.399 101.914C114.508 103.812 111.622 105.71 108.73 107.614C106.566 109.06 104.396 110.511 102.231 111.956C94.8498 114.52 90.1052 116.164 90.1052 116.164C90.1052 116.164 90.0585 114.354 89.991 111.546L103.119 101.087C103.119 101.087 119.642 84.5224 120.093 83.6226C120.545 82.7229 129.146 70.1682 129.598 68.5092C130.896 63.7453 130.21 60.1827 130.05 59.3402C129.484 56.3342 128.311 54.0562 127.438 52.6416C124.272 52.4232 121.106 52.2099 117.939 51.9915C116.382 59.1738 113.797 64.1925 111.71 67.4586C109.379 71.1096 107.495 72.8518 102.211 79.3216C98.5353 83.8255 95.6699 87.6064 93.8375 90.082L88.4078 94.7367C87.8783 92.776 87.406 90.6177 87.0478 88.2721C86.3055 83.3886 86.2691 79.0147 86.5131 75.3846C90.37 72.4826 94.2217 69.5753 98.0785 66.6733C102.574 59.1218 104.982 55.0756 104.982 55.0756C104.982 55.0756 109.291 44.3048 112.52 36.2488C110.173 35.1618 107.827 34.08 105.476 32.9931C104.209 36.1292 102.891 38.5007 101.956 40.0505C98.8572 45.1629 94.6265 49.9892 94.6265 49.9892C94.6265 49.9892 92.7059 53.5517 89.1397 60.1671C87.7641 61.6754 86.3833 63.1888 85.0077 64.697C84.6963 61.7274 84.39 58.7577 84.0786 55.7933C85.5216 51.8147 86.9699 47.8361 88.413 43.8523C90.0377 38.6983 91.6625 33.5392 93.2873 28.3852C92.2958 26.0345 91.2992 23.6837 90.3077 21.3278C82.4849 23.1064 78.3893 24.0426 78.3893 24.0426C81.5298 23.148 71.2673 23.4601 68.7082 25.4936C66.9796 26.8666 65.7442 30.1847 67.8257 38.6983C69.6322 44.4868 71.4386 50.2753 73.2399 56.0637C73.8732 58.9606 74.5013 61.8522 75.1346 64.749C74.8958 67.0061 74.657 69.2581 74.4182 71.5152C73.1932 70.5167 71.9681 69.5129 70.743 68.5144C69.3207 66.2624 67.8932 64.0157 66.4709 61.7638C65.931 58.5081 65.386 55.2524 64.8461 51.9967C63.7612 49.0999 62.6815 46.2083 61.5966 43.3114C60.7816 40.3262 59.9718 37.3409 59.1569 34.3557C57.5632 34.5637 55.9748 34.777 54.3812 34.985C52.9329 36.6752 51.4795 38.3603 50.0312 40.0505V49.1935C53.4416 57.1767 55.6322 62.3047 55.6322 62.3047C55.6322 62.3047 58.6741 65.3523 64.3011 70.9899C67.3689 72.3473 70.442 73.7048 73.5098 75.0622C73.4838 77.7614 73.3645 80.627 73.1153 83.6278C72.97 85.3961 72.7883 87.1071 72.5754 88.7506C70.0371 87.0447 67.5039 85.3337 64.9655 83.6278C59.6863 79.5972 54.4071 75.5666 49.128 71.5308C47.3215 68.2751 45.5151 65.0195 43.7138 61.7638C42.8988 59.9539 42.089 58.144 41.2741 56.3394C39.3586 57.1507 37.4432 57.9568 35.5277 58.7681C35.4966 60.7444 35.4602 62.7259 35.4291 64.7022L37.1265 76.2791C41.5803 80.4866 46.029 84.694 50.4828 88.9014C53.5506 89.6243 56.6237 90.3472 59.6915 91.0701C63.1227 91.3406 66.5539 91.611 69.9851 91.8866C70.4523 95.1111 70.9195 98.3356 71.3867 101.565C70.6029 103.604 69.8242 105.637 69.0404 107.676C67.0056 107.338 64.9655 106.995 62.9307 106.657C58.3315 104.899 53.7323 103.146 49.1332 101.388C46.1536 98.2212 43.174 95.0591 40.1944 91.8919C38.118 90.2224 36.0416 88.553 33.9652 86.8835C33.0983 90.0716 32.2263 93.2649 31.3594 96.4529L39.5091 113.121L50.0312 118.223C56.2032 118.551 60.5065 118.031 63.4861 117.402C64.8461 117.116 67.8153 116.408 70.4004 117.885C70.9611 118.203 71.9785 118.775 72.4353 119.924C73.3748 122.275 71.4179 125.707 71.4179 125.707C69.1338 127.372 66.8498 129.036 64.571 130.695C59.214 129.722 53.8569 128.755 48.4947 127.782C45.5462 126.675 42.5978 125.562 39.6545 124.454C38.118 123.731 36.5867 123.008 35.0501 122.285C33.8199 124.73 32.5896 127.169 31.3594 129.613C32.6519 132.291 33.9497 134.975 35.2422 137.653C38.3048 139.968 41.3675 142.282 44.4302 144.602C49.6886 142.953 54.9522 141.304 60.2106 139.656L69.7152 134.216L72.0927 136.254L69.0352 139.656C68.3552 141.736 67.6804 143.816 67.0004 145.897C61.4045 148.341 55.8035 150.78 50.2077 153.225C48.1157 152.897 41.9281 152.049 41.2689 153.765C40.4383 155.934 48.8736 160.922 50.0208 161.593L61.2228 158.363L71.4075 146.796L74.4649 140.332C75.9651 139.406 77.4393 138.501 78.9084 137.591Z" fill="#8BA52B"/>
<path d="M97.684 53.6509C112.779 24.0689 113.008 24.1729 113.008 24.1729C113.293 24.3081 108.845 34.3456 101.022 51.4406C96.6769 59.1741 94.6369 62.8043 94.6369 62.8043C94.6369 62.8043 91.2576 65.8779 84.9766 71.5884C90.7852 64.6297 93.8323 60.9788 93.8271 60.9736C93.8271 60.9736 84.9818 71.5936 84.9766 71.5884C84.9714 71.5884 87.6811 68.2651 89.8042 65.6543C93.2665 61.3949 95.1975 58.9869 96.9573 55.2787C97.3051 54.5506 97.5023 54.0045 97.684 53.6509Z" fill="#DEE2AF"/>
<path d="M111.175 112.7L126.613 102.73L138.599 93.9773L130.678 103.744L115.069 113.792L95.9399 123.486L83.3467 126.134L98.7845 119.825L111.175 112.7Z" fill="#DEE2AF"/>
<path d="M50.7786 113.585L40.2203 106.257L29.2051 90.8627L50.6333 110.563L71.6358 112.768L50.7786 113.585Z" fill="#DEE2AF"/>
<path d="M27.9381 99.7812L27.0349 97.5709L25.4102 96.8948L25.9552 99.7812L27.9381 101.778V99.7812Z" fill="#DEE2AF"/>
<path d="M33.1758 105.372C32.636 104.353 32.0909 103.339 31.5511 102.32C30.7049 102.543 29.8588 102.772 29.0127 102.996L29.6356 106.324L31.9248 108.628C32.3401 107.546 32.7606 106.459 33.1758 105.372Z" fill="#DEE2AF"/>
<path d="M113.163 67.4379L110.49 68.9045L109.39 73.6788L112.053 74.3133L114.414 71.8585L116.615 68.6809L115.302 66.2677L113.163 67.4379Z" fill="#DEE2AF"/>
<path d="M107.723 75.0516L106.706 76.8823L107.723 79.1238L109.348 77.0851V75.0516H107.723Z" fill="#DEE2AF"/>
<path d="M48.5621 87.0505C41.0819 81.9017 34.5517 75.5568 28.4108 68.8998C27.9021 65.6233 27.5024 62.326 27.3 59.0131C27.1235 55.1073 26.9626 55.0241 28.3537 58.7999C29.4179 61.8163 30.3055 64.89 31.0893 67.9896L30.7052 67.2771C37.2406 73.3048 43.4801 79.7122 48.5621 87.0505Z" fill="#8BA52B"/>
<path d="M119.579 83.6177C121.012 81.4177 122.621 79.3374 124.261 77.2987C126.146 73.4345 129.644 67.8385 132.473 63.6415C133.475 62.1541 134.513 60.6926 135.572 59.2416L135.375 59.7773C135.894 57.0521 136.522 54.3321 137.254 51.6537C138.194 48.4708 138.095 48.2732 138.183 51.7733C138.209 54.6233 138.116 57.4838 137.914 60.3234C136.974 61.998 136.014 63.6571 135.012 65.2849C132.167 69.9344 129.11 74.4331 125.762 78.7497C123.773 80.4504 121.739 82.1198 119.579 83.6177Z" fill="#8BA52B"/>
<path d="M69.741 133.67C65.5363 137.242 61.0461 140.462 56.4885 143.561C53.4103 144.31 50.3113 144.986 47.2071 145.616C44.051 146.25 40.8845 146.828 37.7025 147.353C34.9928 146.198 32.3039 144.986 29.6358 143.712C27.0766 142.474 24.5383 141.205 22.0674 139.78C27.6061 141.023 33.0203 142.74 38.3773 144.581L37.5935 144.513C43.5683 143.109 49.5897 141.902 55.6476 140.93L55.1908 141.112C59.9301 138.423 64.7421 135.843 69.741 133.67Z" fill="#8BA52B"/>
<path d="M92.6904 143.432C96.1736 143.785 99.6307 144.321 103.077 144.914H102.626C107.993 143.297 113.407 141.866 118.853 140.566C124.298 139.266 129.769 138.096 135.277 137.092L134.509 137.654C135.609 135.995 136.725 134.346 137.867 132.713L137.841 133.54C136.746 130.924 135.682 128.297 134.742 125.614C136.445 128.058 138.028 130.57 139.57 133.113C138.542 135.194 137.473 137.258 136.383 139.302L135.827 139.464C125.046 142.496 114.124 144.987 103.072 146.838L102.782 146.885L102.621 146.833C99.2829 145.793 95.9555 144.696 92.6904 143.432Z" fill="#8BA52B"/>
</g>
<defs>
<clipPath id="clip0_313_1752">
<rect width="158.843" height="226.754" fill="white" transform="translate(0.369141 0.425781)"/>
</clipPath>
</defs>
</svg>
