<svg width="119" height="237" viewBox="0 0 119 237" fill="none" xmlns="http://www.w3.org/2000/svg">
<path d="M11.5002 150.1L18.6002 126.8L21.2002 129.9L35.5002 110L37.0002 113L45.9002 106.9L56.9002 113L60.9002 112L63.6002 114.1L84.0002 105.1L88.1002 112.3L89.9002 109.7L101.6 130.4L103.1 127.7L109.3 153.1H112.8V174.1L116.6 175.3L111.3 197.8L114.1 200.1L101.1 217.7L102.9 220.8L60.9002 235.1L59.7002 232.3L28.8002 227.2L30.9002 224.9L12.5002 207.5L14.5002 205.2L9.90019 178.9L12.2002 181.2L8.7002 147.5L11.5002 150.1Z" fill="#FFAC15"/>
<path d="M8.7002 147.5L11.5002 150.1L18.6002 126.8L21.2002 129.9L35.5002 110L37.0002 113L45.9002 106.9L56.9002 113L60.9002 112L63.6002 114.1L84.0002 105.1L88.1002 112.3L89.9002 109.7L101.6 130.4L103.1 127.7L109.3 153.1H112.8V174.1L116.6 175.3L111.3 197.8L114.1 200.1L101.1 217.7L102.9 220.8L60.9002 235.1L59.7002 232.3L28.8002 227.2L30.9002 224.9L12.5002 207.5L14.5002 205.2L9.90019 178.9L12.2002 181.2L8.7002 147.5Z" stroke="#956815" stroke-width="3" stroke-miterlimit="10"/>
<path d="M45.9 106.9L36.4 89.7L7 72L35.2 75.3L28.9 58.2L17.2 44.4L42 59.8L36.4 40.4L50.7 55L49.1 9L63.8 46.5L75.7 25.7L74.7 43.6L94.3 20.3L84.9 58.7L110.3 45.3L92.1 74.6L110.3 70L91.2 87.2L81.7 105.1L60.9 119.6L45.9 106.9Z" fill="#009E00"/>
<path d="M45.9 106.9L36.4 89.7L7 72L35.2 75.3L28.9 58.2L17.2 44.4L42 59.8L36.4 40.4L50.7 55L49.1 9L63.8 46.5L75.7 25.7L74.7 43.6L94.3 20.3L84.9 58.7L110.3 45.3L92.1 74.6L110.3 70L91.2 87.2L81.7 105.1L60.9 119.6" stroke="#006C00" stroke-width="3" stroke-miterlimit="10"/>
<path d="M35.2002 75.3L63.8002 95.7L58.6002 117.6L73.2002 87.7L92.1002 74.6" stroke="#006C00" stroke-width="3" stroke-miterlimit="10"/>
<path d="M84.9 58.7L63.6 88.9V83.1L42 59.8" stroke="#006C00" stroke-width="3" stroke-miterlimit="10"/>
<path d="M50.7002 55V69.1" stroke="#006C00" stroke-width="3" stroke-miterlimit="10"/>
<path d="M63.7996 46.5L65.9996 58.7L60.0996 78.2L74.6996 43.6" stroke="#006400" stroke-width="3" stroke-miterlimit="10"/>
<path d="M30.9004 224.9L44.9004 212.6L63.8004 226.9L59.7004 232.3" stroke="#956815" stroke-width="3" stroke-miterlimit="10"/>
<path d="M63.7998 226.9L81.9998 209.7L101.1 217.7" stroke="#956815" stroke-width="3" stroke-miterlimit="10"/>
<path d="M111.3 197.8L101.1 192.5L85.7998 211.3" stroke="#956815" stroke-width="3" stroke-miterlimit="10"/>
<path d="M103.3 193.7L116.6 175.3" stroke="#956815" stroke-width="3" stroke-miterlimit="10"/>
<path d="M112.8 153.1L102.1 169L112.8 174.1" stroke="#956815" stroke-width="3" stroke-miterlimit="10"/>
<path d="M100.2 193.7L81.2 181.3L65.5 201.9L79.8 211.8" stroke="#956815" stroke-width="3" stroke-miterlimit="10"/>
<path d="M46.7002 213.9L62.6002 199.7L65.5002 201.9" stroke="#956815" stroke-width="3" stroke-miterlimit="10"/>
<path d="M60.8996 201.2L43.5996 184.5L28.0996 201.9" stroke="#956815" stroke-width="3" stroke-miterlimit="10"/>
<path d="M42 215.2L26 199.7L14.5 205.2" stroke="#956815" stroke-width="3" stroke-miterlimit="10"/>
<path d="M102.1 169L99.2002 167L83.7002 182.9" stroke="#956815" stroke-width="3" stroke-miterlimit="10"/>
<path d="M97.7 168.9L79.2 156L64 170.3L79.4 184" stroke="#956815" stroke-width="3" stroke-miterlimit="10"/>
<path d="M63.8002 170.1L62.6002 168L46.7002 186.2" stroke="#956815" stroke-width="3" stroke-miterlimit="10"/>
<path d="M41.9996 185.6L24.1996 165.3L11.5996 175" stroke="#956815" stroke-width="3" stroke-miterlimit="10"/>
<path d="M22.6 166.5L11.5 150.1L28.3 136.9L41.2 155.8L26.3 167.8" stroke="#956815" stroke-width="3" stroke-miterlimit="10"/>
<path d="M12.2002 181.2L24.0002 200.6" stroke="#956815" stroke-width="3" stroke-miterlimit="10"/>
<path d="M41.2002 155.8L44.5002 152.3L60.2002 170.7" stroke="#956815" stroke-width="3" stroke-miterlimit="10"/>
<path d="M21.2002 129.9L25.0002 139.5" stroke="#956815" stroke-width="3" stroke-miterlimit="10"/>
<path d="M36.9996 113L41.1996 124.4L31.5996 139.5" stroke="#956815" stroke-width="3" stroke-miterlimit="10"/>
<path d="M41.2002 124.4L45.4002 122.9L57.0002 142.3L47.3002 155.7" stroke="#956815" stroke-width="3" stroke-miterlimit="10"/>
<path d="M57 142.3L60.9 139.3L76.9 157.8" stroke="#956815" stroke-width="3" stroke-miterlimit="10"/>
<path d="M63.7998 141.6L76.8998 125.5L92.0998 139.5L80.6998 157" stroke="#956815" stroke-width="3" stroke-miterlimit="10"/>
<path d="M92.0996 139.5L94.2996 136.9L109.3 153.1" stroke="#956815" stroke-width="3" stroke-miterlimit="10"/>
<path d="M101.6 130.4L97.5 139.5" stroke="#956815" stroke-width="3" stroke-miterlimit="10"/>
<path d="M79.7002 128L88.1002 112.3" stroke="#956815" stroke-width="3" stroke-miterlimit="10"/>
<path d="M64.2998 113.7L75.6998 128" stroke="#956815" stroke-width="3" stroke-miterlimit="10"/>
<path d="M47.2998 126.1L56.8998 113" stroke="#956815" stroke-width="3" stroke-miterlimit="10"/>
</svg>
