<svg width="77" height="154" viewBox="0 0 77 154" fill="none" xmlns="http://www.w3.org/2000/svg">
<path d="M6.93269 96.9558L11.5598 81.7711L13.2542 83.7914L22.5737 70.8224L23.5512 72.7775L29.3514 68.8021L36.5202 72.7775L39.127 72.1258L40.8866 73.4944L54.1815 67.629L56.8535 72.3213L58.0265 70.6269L65.6515 84.1172L66.6291 82.3576L70.6697 98.911H72.9506V112.597L75.4271 113.379L71.9731 128.042L73.7978 129.541L65.3256 141.011L66.4987 143.032L39.127 152.351L38.345 150.526L18.2072 147.202L19.5758 145.704L7.5844 134.364L8.88781 132.865L5.88996 115.725L7.38889 117.224L5.10791 95.2614L6.93269 96.9558Z" fill="#EDB266"/>
<path d="M5.10791 95.2614L6.93269 96.9558L11.5598 81.7711L13.2542 83.7914L22.5737 70.8224L23.5512 72.7775L29.3514 68.8021L36.5202 72.7775L39.127 72.1258L40.8866 73.4944L54.1815 67.629L56.8535 72.3213L58.0265 70.6269L65.6515 84.1172L66.6291 82.3576L70.6697 98.911H72.9506V112.597L75.4271 113.379L71.9731 128.042L73.7978 129.541L65.3256 141.011L66.4987 143.032L39.127 152.351L38.345 150.526L18.2072 147.202L19.5758 145.704L7.5844 134.364L8.88781 132.865L5.88996 115.725L7.38889 117.224L5.10791 95.2614Z" stroke="#EDB266" stroke-width="1.70877" stroke-miterlimit="10"/>
<path d="M29.3514 68.8021L23.1602 57.5928L4 46.0576L22.3781 48.2082L18.2724 37.064L10.6474 28.0704L26.8098 38.1067L23.1602 25.4636L32.4796 34.9785L31.4369 5L41.017 29.439L48.7723 15.8835L48.1206 27.5491L60.894 12.3643L54.768 37.3898L71.3214 28.657L59.4603 47.752L71.3214 44.7541L58.8737 55.9635L52.6825 67.6291L39.127 77.0788L29.3514 68.8021Z" fill="#EDB266"/>
<path d="M29.3514 68.8021L23.1602 57.5928L4 46.0576L22.3781 48.2082L18.2724 37.064L10.6474 28.0704L26.8098 38.1067L23.1602 25.4636L32.4796 34.9785L31.4369 5L41.017 29.439L48.7723 15.8835L48.1206 27.5491L60.894 12.3643L54.768 37.3898L71.3214 28.657L59.4603 47.752L71.3214 44.7541L58.8737 55.9635L52.6825 67.6291L39.127 77.0788" stroke="#EDB266" stroke-width="1.70877" stroke-miterlimit="10"/>
<path d="M22.3782 48.2081L41.017 61.503L37.6281 75.7754L47.143 56.2893L59.4603 47.752" stroke="#EDB266" stroke-width="1.70877" stroke-miterlimit="10"/>
<path d="M54.768 37.3898L40.8867 57.0713V53.2914L26.8098 38.1066" stroke="#EDB266" stroke-width="1.70877" stroke-miterlimit="10"/>
<path d="M32.4795 34.9785V44.1676" stroke="#EDB266" stroke-width="1.70877" stroke-miterlimit="10"/>
<path d="M41.017 29.4389L42.4508 37.3897L38.6057 50.098L48.1206 27.549" stroke="#EDB266" stroke-width="1.70877" stroke-miterlimit="10"/>
<path d="M19.5759 145.704L28.6998 137.688L41.0171 147.007L38.3451 150.526" stroke="#EDB266" stroke-width="1.70877" stroke-miterlimit="10"/>
<path d="M41.0171 147.007L52.8782 135.797L65.3258 141.011" stroke="#EDB266" stroke-width="1.70877" stroke-miterlimit="10"/>
<path d="M71.9733 128.042L65.3258 124.588L55.3547 136.84" stroke="#EDB266" stroke-width="1.70877" stroke-miterlimit="10"/>
<path d="M66.7598 125.37L75.4275 113.379" stroke="#EDB266" stroke-width="1.70877" stroke-miterlimit="10"/>
<path d="M72.9506 98.911L65.9773 109.273L72.9506 112.597" stroke="#EDB266" stroke-width="1.70877" stroke-miterlimit="10"/>
<path d="M64.7392 125.37L52.3568 117.289L42.125 130.714L51.4444 137.166" stroke="#EDB266" stroke-width="1.70877" stroke-miterlimit="10"/>
<path d="M29.873 138.535L40.2352 129.281L42.1251 130.714" stroke="#EDB266" stroke-width="1.70877" stroke-miterlimit="10"/>
<path d="M39.127 130.258L27.8524 119.374L17.751 130.714" stroke="#EDB266" stroke-width="1.70877" stroke-miterlimit="10"/>
<path d="M26.8099 139.382L16.3826 129.281L8.88794 132.865" stroke="#EDB266" stroke-width="1.70877" stroke-miterlimit="10"/>
<path d="M65.9775 109.273L64.0875 107.97L53.9861 118.332" stroke="#EDB266" stroke-width="1.70877" stroke-miterlimit="10"/>
<path d="M62.9796 109.078L50.923 100.671L41.0171 109.99L51.0534 118.918" stroke="#EDB266" stroke-width="1.70877" stroke-miterlimit="10"/>
<path d="M41.0172 109.99L40.2352 108.621L29.873 120.482" stroke="#EDB266" stroke-width="1.70877" stroke-miterlimit="10"/>
<path d="M26.8099 120.091L15.2096 106.862L6.99805 113.183" stroke="#EDB266" stroke-width="1.70877" stroke-miterlimit="10"/>
<path d="M14.1668 107.644L6.93286 96.9558L17.8815 88.3533L26.2886 100.671L16.5781 108.491" stroke="#EDB266" stroke-width="1.70877" stroke-miterlimit="10"/>
<path d="M7.38916 117.224L15.0793 129.867" stroke="#EDB266" stroke-width="1.70877" stroke-miterlimit="10"/>
<path d="M26.2886 100.671L28.4392 98.3895L38.671 110.381" stroke="#EDB266" stroke-width="1.70877" stroke-miterlimit="10"/>
<path d="M13.2544 83.7913L15.7309 90.0476" stroke="#EDB266" stroke-width="1.70877" stroke-miterlimit="10"/>
<path d="M23.5514 72.7773L26.2886 80.2068L20.0322 90.0476" stroke="#EDB266" stroke-width="1.70877" stroke-miterlimit="10"/>
<path d="M26.2886 80.2069L29.0257 79.2294L36.5855 91.8725L30.264 100.605" stroke="#EDB266" stroke-width="1.70877" stroke-miterlimit="10"/>
<path d="M36.5857 91.8725L39.1273 89.9174L49.5547 101.974" stroke="#EDB266" stroke-width="1.70877" stroke-miterlimit="10"/>
<path d="M41.0171 91.4163L49.5544 80.9238L59.4604 90.0477L52.0309 101.453" stroke="#EDB266" stroke-width="1.70877" stroke-miterlimit="10"/>
<path d="M59.4604 90.0477L60.8942 88.3533L70.6698 98.9109" stroke="#EDB266" stroke-width="1.70877" stroke-miterlimit="10"/>
<path d="M65.6517 84.1171L62.9797 90.0476" stroke="#EDB266" stroke-width="1.70877" stroke-miterlimit="10"/>
<path d="M51.3792 82.553L56.8535 72.3212" stroke="#EDB266" stroke-width="1.70877" stroke-miterlimit="10"/>
<path d="M41.343 73.2336L48.7725 82.553" stroke="#EDB266" stroke-width="1.70877" stroke-miterlimit="10"/>
<path d="M30.2639 81.3147L36.5203 72.7773" stroke="#EDB266" stroke-width="1.70877" stroke-miterlimit="10"/>
</svg>
