<svg width="147" height="139" viewBox="0 0 147 139" fill="none" xmlns="http://www.w3.org/2000/svg">
<mask id="path-1-inside-1_317_3447" fill="white">
<path d="M93.3142 102.724C93.3057 102.733 89.5548 114.173 89.5548 114.173L84.2269 124.41L73.0583 134.338C73.0583 134.338 67.8239 136.779 64.882 138.061C63.8229 136.97 59.0976 132.477 59.0976 132.477L53.8235 122.239L50.1006 108.898L51.0313 94.0069L52.5825 82.8383C52.5825 82.8383 64.7992 68.6039 73.2578 63.0996C77.3147 60.4608 82.8085 61.5434 85.5638 65.527C91.8446 74.617 94.1546 91.8353 94.1546 91.8353C94.1546 91.8353 93.3142 102.724 93.3057 102.733"/>
</mask>
<path d="M93.3142 102.724C93.3057 102.733 89.5548 114.173 89.5548 114.173L84.2269 124.41L73.0583 134.338C73.0583 134.338 67.8239 136.779 64.882 138.061C63.8229 136.97 59.0976 132.477 59.0976 132.477L53.8235 122.239L50.1006 108.898L51.0313 94.0069L52.5825 82.8383C52.5825 82.8383 64.7992 68.6039 73.2578 63.0996C77.3147 60.4608 82.8085 61.5434 85.5638 65.527C91.8446 74.617 94.1546 91.8353 94.1546 91.8353C94.1546 91.8353 93.3142 102.724 93.3057 102.733" fill="#FFA9CE"/>
<path d="M51.0271 108.987L53.509 82.9266L51.656 82.7501L49.1741 108.81L51.0271 108.987ZM93.243 91.6475L88.6432 113.985L90.4664 114.36L95.0662 92.023L93.243 91.6475ZM64.882 138.061L63.5461 139.357L64.4438 140.282L65.6255 139.767L64.882 138.061ZM51.0313 94.0069L49.1876 93.7509L49.1779 93.8206L49.1735 93.8908L51.0313 94.0069ZM73.2578 63.0996L72.2429 61.5392L72.2426 61.5394L73.2578 63.0996ZM85.5638 65.527L87.0952 64.4689L87.0947 64.4681L85.5638 65.527ZM59.0976 132.477L57.4428 133.329L57.5869 133.609L57.815 133.826L59.0976 132.477ZM53.8235 122.239L52.0306 122.739L52.0817 122.922L52.1688 123.091L53.8235 122.239ZM50.1006 108.898L48.2428 108.782L48.2232 109.096L48.3077 109.399L50.1006 108.898ZM52.5825 82.8383L51.17 81.626L50.814 82.0408L50.7388 82.5822L52.5825 82.8383ZM94.1546 91.8353L96.0105 91.9785L96.0256 91.7825L95.9995 91.5877L94.1546 91.8353ZM89.5548 114.173L91.2061 115.032L91.2762 114.897L91.3236 114.752L89.5548 114.173ZM84.2269 124.41L85.4636 125.802L85.7199 125.574L85.8782 125.27L84.2269 124.41ZM73.0583 134.338L73.8451 136.025L74.0916 135.91L74.295 135.729L73.0583 134.338ZM74.2728 64.66C77.4846 62.5709 81.8502 63.4303 84.0329 66.5859L87.0947 64.4681C83.7667 59.6565 77.1449 58.3507 72.2429 61.5392L74.2728 64.66ZM66.2179 136.765C65.6591 136.189 64.1828 134.764 62.8809 133.516C62.2225 132.885 61.5975 132.288 61.1371 131.849C60.9069 131.629 60.7178 131.449 60.5862 131.324C60.5204 131.261 60.469 131.212 60.434 131.179C60.4165 131.162 60.4031 131.149 60.394 131.141C60.3895 131.136 60.3861 131.133 60.3838 131.131C60.3826 131.13 60.3817 131.129 60.3811 131.129C60.3809 131.128 60.3806 131.128 60.3805 131.128C60.3804 131.128 60.3803 131.128 60.3803 131.128C60.3803 131.128 60.3802 131.128 59.0976 132.477C57.815 133.826 57.815 133.826 57.815 133.826C57.815 133.826 57.8151 133.826 57.8151 133.826C57.8153 133.826 57.8155 133.826 57.8158 133.826C57.8163 133.827 57.8172 133.828 57.8183 133.829C57.8205 133.831 57.8239 133.834 57.8283 133.838C57.8372 133.847 57.8505 133.859 57.8679 133.876C57.9026 133.909 57.9537 133.958 58.0192 134.02C58.1501 134.145 58.3385 134.324 58.5678 134.543C59.0266 134.98 59.6491 135.575 60.3044 136.203C61.63 137.474 63.0459 138.842 63.5461 139.357L66.2179 136.765ZM60.7524 131.624L55.4783 121.386L52.1688 123.091L57.4428 133.329L60.7524 131.624ZM55.6165 121.738L51.8935 108.398L48.3077 109.399L52.0306 122.739L55.6165 121.738ZM51.9584 109.015L52.8891 94.1231L49.1735 93.8908L48.2428 108.782L51.9584 109.015ZM52.875 94.263L54.4262 83.0944L50.7388 82.5822L49.1876 93.7509L52.875 94.263ZM52.5825 82.8383C53.995 84.0506 53.995 84.0507 53.995 84.0507C53.9951 84.0506 53.9951 84.0505 53.9952 84.0504C53.9955 84.0501 53.9959 84.0496 53.9965 84.0489C53.9978 84.0474 53.9998 84.0451 54.0025 84.042C54.0079 84.0357 54.0162 84.026 54.0274 84.013C54.0498 83.9871 54.0836 83.948 54.1283 83.8964C54.2177 83.7932 54.3509 83.6402 54.5238 83.4429C54.8697 83.0482 55.3747 82.4766 56.0076 81.7729C57.2739 80.3648 59.0494 78.4309 61.0855 76.3279C65.1944 72.0839 70.2365 67.2866 74.2731 64.6598L72.2426 61.5394C67.8205 64.417 62.525 69.4889 58.4108 73.7383C56.3354 75.8819 54.5281 77.8506 53.2395 79.2835C52.5949 80.0002 52.0793 80.5837 51.7241 80.989C51.5465 81.1916 51.4089 81.3498 51.3152 81.4578C51.2684 81.5118 51.2326 81.5533 51.2082 81.5816C51.196 81.5957 51.1867 81.6066 51.1803 81.614C51.1771 81.6177 51.1746 81.6206 51.1729 81.6226C51.1721 81.6236 51.1714 81.6244 51.1709 81.6249C51.1706 81.6252 51.1704 81.6255 51.1703 81.6256C51.1701 81.6258 51.17 81.626 52.5825 82.8383ZM84.0324 66.5852C86.9723 70.8401 89.0563 77.1416 90.4088 82.5421C91.0775 85.2123 91.5541 87.606 91.8633 89.3312C92.0177 90.1931 92.13 90.8864 92.2034 91.3617C92.2401 91.5993 92.2671 91.7823 92.2846 91.9046C92.2934 91.9657 92.2999 92.0117 92.304 92.0416C92.3061 92.0566 92.3076 92.0676 92.3086 92.0745C92.309 92.0779 92.3094 92.0803 92.3095 92.0817C92.3096 92.0824 92.3097 92.0829 92.3097 92.083C92.3097 92.0831 92.3097 92.0831 92.3097 92.0831C92.3097 92.083 92.3097 92.0828 94.1546 91.8353C95.9995 91.5877 95.9995 91.5874 95.9994 91.587C95.9994 91.5868 95.9993 91.5863 95.9993 91.5859C95.9991 91.585 95.999 91.5839 95.9988 91.5825C95.9984 91.5797 95.9979 91.5759 95.9972 91.571C95.9959 91.5613 95.994 91.5474 95.9915 91.5296C95.9866 91.4938 95.9793 91.4419 95.9696 91.3747C95.9503 91.2403 95.9215 91.0446 95.8827 90.7936C95.8052 90.2918 95.688 89.5689 95.5278 88.6745C95.2075 86.8873 94.714 84.4083 94.0202 81.6376C92.6474 76.1564 90.436 69.3039 87.0952 64.4689L84.0324 66.5852ZM94.1546 91.8353C92.2987 91.692 92.2987 91.6921 92.2987 91.6921C92.2987 91.6922 92.2986 91.6924 92.2986 91.6925C92.2986 91.6928 92.2986 91.6933 92.2985 91.694C92.2984 91.6953 92.2983 91.6973 92.2981 91.6999C92.2977 91.7051 92.2971 91.7129 92.2963 91.7232C92.2947 91.7438 92.2923 91.7744 92.2892 91.8143C92.2831 91.894 92.2741 92.011 92.2626 92.1598C92.2396 92.4576 92.2067 92.8829 92.1672 93.3934C92.0883 94.4142 91.983 95.7755 91.8775 97.137C91.7719 98.4985 91.6661 99.8599 91.5862 100.881C91.5462 101.392 91.5128 101.817 91.4891 102.114C91.4772 102.263 91.4679 102.378 91.4615 102.456C91.4583 102.495 91.456 102.522 91.4547 102.537C91.4539 102.546 91.4539 102.546 91.4544 102.541C91.4545 102.54 91.4558 102.526 91.458 102.508C91.4588 102.502 91.4621 102.474 91.4679 102.438C91.4715 102.416 91.4831 102.355 91.4917 102.316C91.5151 102.224 91.7248 101.75 91.9891 101.417L94.6223 104.049C94.8867 103.715 95.0965 103.241 95.1199 103.15C95.1285 103.11 95.1402 103.049 95.1438 103.027C95.1497 102.99 95.1532 102.961 95.1541 102.953C95.1567 102.932 95.1585 102.914 95.1591 102.908C95.1607 102.892 95.1621 102.876 95.1632 102.864C95.1655 102.838 95.1684 102.803 95.1718 102.762C95.1786 102.679 95.1883 102.56 95.2002 102.41C95.2241 102.11 95.2577 101.683 95.2977 101.172C95.3777 100.149 95.4836 98.7865 95.5892 97.4247C95.6948 96.0629 95.8001 94.7013 95.8791 93.6803C95.9185 93.1697 95.9514 92.7443 95.9744 92.4465C95.9859 92.2976 95.9949 92.1806 96.0011 92.1008C96.0041 92.0609 96.0065 92.0304 96.0081 92.0098C96.0089 91.9994 96.0095 91.9916 96.0099 91.9864C96.0101 91.9838 96.0103 91.9818 96.0104 91.9805C96.0104 91.9798 96.0104 91.9793 96.0105 91.979C96.0105 91.9788 96.0105 91.9787 96.0105 91.9786C96.0105 91.9785 96.0105 91.9785 94.1546 91.8353ZM91.9976 101.408C91.8092 101.629 91.6313 101.929 91.6069 101.983C91.597 102.006 91.5823 102.042 91.5772 102.055C91.5688 102.077 91.5625 102.094 91.5608 102.099C91.556 102.113 91.5521 102.124 91.5504 102.129C91.5464 102.141 91.5419 102.154 91.5379 102.166C91.5295 102.191 91.5179 102.226 91.5037 102.268C91.4753 102.354 91.4341 102.479 91.3824 102.636C91.2787 102.95 91.1313 103.399 90.9548 103.936C90.6019 105.01 90.1321 106.441 89.6627 107.871C89.1933 109.302 88.7241 110.732 88.3723 111.805C88.1964 112.341 88.0498 112.788 87.9473 113.101C87.896 113.257 87.8557 113.38 87.8282 113.464C87.8144 113.506 87.8039 113.538 87.7968 113.56C87.7933 113.571 87.7906 113.579 87.7888 113.584C87.7879 113.587 87.7872 113.589 87.7867 113.59C87.7865 113.591 87.7863 113.592 87.7862 113.592C87.7862 113.592 87.7861 113.592 87.7861 113.592C87.7861 113.593 87.786 113.593 89.5548 114.173C91.3236 114.752 91.3236 114.752 91.3237 114.752C91.3237 114.752 91.3237 114.752 91.3238 114.752C91.3239 114.752 91.3241 114.751 91.3243 114.75C91.3248 114.749 91.3254 114.747 91.3263 114.744C91.3281 114.739 91.3308 114.73 91.3344 114.72C91.3415 114.698 91.352 114.666 91.3657 114.624C91.3932 114.54 91.4335 114.417 91.4848 114.261C91.5874 113.948 91.7339 113.501 91.9098 112.965C92.2615 111.892 92.7306 110.462 93.2 109.032C93.6694 107.602 94.1389 106.171 94.4916 105.098C94.668 104.561 94.815 104.114 94.9181 103.801C94.9697 103.645 95.01 103.523 95.0374 103.44C95.0512 103.399 95.0612 103.369 95.0674 103.35C95.0708 103.34 95.0719 103.337 95.0717 103.337C95.0716 103.338 95.0711 103.339 95.0703 103.341C95.0696 103.343 95.068 103.348 95.0658 103.354C95.0646 103.357 95.0588 103.374 95.0506 103.395C95.0457 103.408 95.0311 103.443 95.0213 103.466C94.997 103.52 94.8192 103.82 94.6308 104.04L91.9976 101.408ZM87.9036 113.313L82.5757 123.551L85.8782 125.27L91.2061 115.032L87.9036 113.313ZM82.9903 123.019L71.8216 132.947L74.295 135.729L85.4636 125.802L82.9903 123.019ZM73.0583 134.338C72.2716 132.651 72.2715 132.651 72.2715 132.651C72.2715 132.651 72.2714 132.651 72.2714 132.651C72.2712 132.651 72.271 132.651 72.2707 132.651C72.2701 132.652 72.2692 132.652 72.2679 132.653C72.2655 132.654 72.2618 132.656 72.2568 132.658C72.247 132.663 72.2322 132.669 72.2128 132.678C72.174 132.697 72.1167 132.723 72.0425 132.758C71.8943 132.827 71.679 132.927 71.4114 133.051C70.8761 133.299 70.1318 133.643 69.296 134.028C67.6203 134.798 65.5909 135.722 64.1385 136.354L65.6255 139.767C67.115 139.118 69.1738 138.181 70.8508 137.41C71.6913 137.024 72.4395 136.678 72.9776 136.428C73.2467 136.303 73.4633 136.203 73.6128 136.133C73.6875 136.098 73.7454 136.071 73.7848 136.053C73.8044 136.044 73.8195 136.037 73.8296 136.032C73.8346 136.03 73.8385 136.028 73.8411 136.027C73.8424 136.026 73.8433 136.026 73.844 136.026C73.8443 136.025 73.8446 136.025 73.8448 136.025C73.8449 136.025 73.8449 136.025 73.845 136.025C73.845 136.025 73.8451 136.025 73.0583 134.338Z" fill="#FF64AC" mask="url(#path-1-inside-1_317_3447)"/>
<mask id="path-3-inside-2_317_3447" fill="white">
<path d="M50.3204 97.1422C50.3092 97.1381 38.358 98.5891 38.358 98.5891L26.827 98.1023L13.1016 92.1939C13.1016 92.1939 8.6721 88.4874 6.26434 86.366C6.80401 84.9442 8.87079 78.7601 8.87079 78.7601L15.9085 69.6441L26.4136 60.6182L40.296 55.15L51.0694 51.8215C51.0694 51.8215 69.1398 56.854 77.7102 62.1826C81.8197 64.7387 83.1675 70.1735 80.7271 74.3574C75.1558 83.8987 60.5394 93.2884 60.5394 93.2884C60.5394 93.2884 50.3204 97.1422 50.3092 97.1381"/>
</mask>
<path d="M50.3204 97.1422C50.3092 97.1381 38.358 98.5891 38.358 98.5891L26.827 98.1023L13.1016 92.1939C13.1016 92.1939 8.6721 88.4874 6.26434 86.366C6.80401 84.9442 8.87079 78.7601 8.87079 78.7601L15.9085 69.6441L26.4136 60.6182L40.296 55.15L51.0694 51.8215C51.0694 51.8215 69.1398 56.854 77.7102 62.1826C81.8197 64.7387 83.1675 70.1735 80.7271 74.3574C75.1558 83.8987 60.5394 93.2884 60.5394 93.2884C60.5394 93.2884 50.3204 97.1422 50.3092 97.1381" fill="#FFA9CE"/>
<path d="M26.7264 61.4948L51.3822 52.6981L50.7567 50.9449L26.1009 59.7416L26.7264 61.4948ZM60.323 92.3832L38.1417 97.6838L38.5743 99.4943L60.7557 94.1936L60.323 92.3832ZM6.26434 86.366L4.52405 85.7054L4.06662 86.9105L5.03377 87.7627L6.26434 86.366ZM40.296 55.15L39.7466 53.3715L39.6793 53.3922L39.6138 53.418L40.296 55.15ZM77.7102 62.1826L78.6934 60.602L78.6931 60.6018L77.7102 62.1826ZM80.7271 74.3574L82.3346 75.2961L82.335 75.2953L80.7271 74.3574ZM8.87079 78.7601L7.39735 77.6225L7.20507 77.8716L7.10534 78.17L8.87079 78.7601ZM15.9085 69.6441L14.6954 68.2322L14.5513 68.3561L14.4351 68.5066L15.9085 69.6441ZM26.4136 60.6182L25.7314 58.8863L25.439 59.0015L25.2006 59.2063L26.4136 60.6182ZM51.0694 51.8215L51.5688 50.0283L51.0422 49.8817L50.5199 50.043L51.0694 51.8215ZM60.5394 93.2884L61.1962 95.0301L61.3801 94.9608L61.5454 94.8545L60.5394 93.2884ZM38.358 98.5891L38.2795 100.449L38.4314 100.455L38.5823 100.437L38.358 98.5891ZM26.827 98.1023L26.091 99.8121L26.4059 99.9476L26.7485 99.9621L26.827 98.1023ZM13.1016 92.1939L11.907 93.6214L12.1157 93.796L12.3656 93.9036L13.1016 92.1939ZM76.7271 63.7632C79.9805 65.7869 81.0523 70.1053 79.1192 73.4196L82.335 75.2953C85.2827 70.2417 83.6589 63.6906 78.6934 60.602L76.7271 63.7632ZM8.00463 87.0266C8.28938 86.2764 8.95403 84.3354 9.5329 82.6273C9.82567 81.7633 10.1014 80.9442 10.304 80.3412C10.4053 80.0397 10.4883 79.7921 10.546 79.6198C10.5748 79.5336 10.5974 79.4663 10.6127 79.4204C10.6204 79.3975 10.6263 79.38 10.6302 79.3681C10.6322 79.3622 10.6337 79.3577 10.6347 79.3547C10.6352 79.3532 10.6356 79.352 10.6358 79.3513C10.636 79.3509 10.6361 79.3506 10.6361 79.3504C10.6362 79.3503 10.6362 79.3502 10.6362 79.3502C10.6362 79.3501 10.6362 79.3501 8.87079 78.7601C7.10534 78.17 7.10533 78.1701 7.10532 78.1701C7.1053 78.1701 7.10528 78.1702 7.10525 78.1703C7.10519 78.1705 7.1051 78.1707 7.10499 78.1711C7.10474 78.1718 7.10437 78.1729 7.10388 78.1744C7.1029 78.1773 7.10143 78.1817 7.09948 78.1876C7.09558 78.1992 7.08978 78.2166 7.08218 78.2393C7.06698 78.2847 7.04457 78.3517 7.01587 78.4374C6.95844 78.6088 6.87577 78.8554 6.77486 79.1559C6.57301 79.7568 6.29836 80.5726 6.00698 81.4324C5.41754 83.1718 4.77896 85.0338 4.52405 85.7054L8.00463 87.0266ZM10.3442 79.8976L17.3819 70.7816L14.4351 68.5066L7.39735 77.6225L10.3442 79.8976ZM17.1216 71.056L27.6267 62.0301L25.2006 59.2063L14.6954 68.2322L17.1216 71.056ZM27.0958 62.3501L40.9782 56.8819L39.6138 53.418L25.7314 58.8863L27.0958 62.3501ZM40.8455 56.9284L51.6189 53.6L50.5199 50.043L39.7466 53.3715L40.8455 56.9284ZM51.0694 51.8215C50.57 53.6147 50.5699 53.6147 50.57 53.6147C50.57 53.6147 50.5701 53.6147 50.5703 53.6148C50.5707 53.6149 50.5713 53.6151 50.5722 53.6153C50.5741 53.6158 50.577 53.6167 50.581 53.6178C50.589 53.62 50.6013 53.6235 50.6178 53.6281C50.6508 53.6374 50.7005 53.6514 50.7662 53.67C50.8975 53.7073 51.0926 53.763 51.3446 53.8361C51.8487 53.9821 52.5804 54.1972 53.486 54.4722C55.2981 55.0224 57.8022 55.811 60.5699 56.7639C66.1553 58.6868 72.6374 61.2205 76.7274 63.7634L78.6931 60.6018C74.2126 57.8161 67.3743 55.1692 61.7819 53.2438C58.9607 52.2725 56.4116 51.4698 54.5676 50.9099C53.6453 50.6299 52.8983 50.4102 52.3806 50.2602C52.1218 50.1853 51.9202 50.1277 51.7827 50.0886C51.7139 50.0691 51.6612 50.0542 51.6252 50.0441C51.6073 50.0391 51.5935 50.0352 51.5841 50.0326C51.5793 50.0313 51.5757 50.0302 51.5732 50.0295C51.5719 50.0292 51.5709 50.0289 51.5702 50.0287C51.5698 50.0286 51.5694 50.0285 51.5693 50.0284C51.569 50.0284 51.5688 50.0283 51.0694 51.8215ZM79.1196 73.4188C76.5117 77.885 71.6873 82.4433 67.3691 85.9571C65.234 87.6944 63.2679 89.1406 61.8363 90.1518C61.1211 90.657 60.5408 91.0525 60.1414 91.3204C59.9417 91.4544 59.7873 91.5563 59.684 91.6241C59.6324 91.6579 59.5935 91.6833 59.5682 91.6997C59.5555 91.7079 59.5462 91.714 59.5403 91.7177C59.5374 91.7196 59.5353 91.721 59.5342 91.7217C59.5336 91.7221 59.5332 91.7223 59.5331 91.7224C59.533 91.7225 59.533 91.7224 59.533 91.7225C59.5331 91.7224 59.5333 91.7223 60.5394 93.2884C61.5454 94.8545 61.5457 94.8543 61.5461 94.8541C61.5462 94.854 61.5466 94.8538 61.547 94.8535C61.5477 94.853 61.5487 94.8524 61.5499 94.8517C61.5523 94.8501 61.5555 94.848 61.5596 94.8454C61.5679 94.8401 61.5796 94.8325 61.5948 94.8226C61.625 94.803 61.6689 94.7744 61.7257 94.7372C61.8392 94.6627 62.0043 94.5536 62.2152 94.4122C62.6369 94.1293 63.242 93.7168 63.9841 93.1926C65.4672 92.145 67.5034 90.6474 69.7188 88.8447C74.1017 85.2784 79.3711 80.3711 82.3346 75.2961L79.1196 73.4188ZM60.5394 93.2884C59.8825 91.5467 59.8825 91.5467 59.8824 91.5467C59.8823 91.5468 59.8822 91.5468 59.8821 91.5469C59.8818 91.547 59.8813 91.5472 59.8807 91.5474C59.8794 91.5479 59.8776 91.5486 59.8751 91.5495C59.8702 91.5513 59.8629 91.5541 59.8532 91.5578C59.8339 91.565 59.8052 91.5759 59.7678 91.59C59.693 91.6182 59.5832 91.6596 59.4435 91.7123C59.1641 91.8176 58.7649 91.9681 58.2859 92.1487C57.3277 92.5099 56.0502 92.9914 54.7723 93.4728C53.4943 93.9543 52.2164 94.4354 51.2574 94.7959C50.7778 94.9762 50.3787 95.126 50.0995 95.2305C49.9596 95.2829 49.8513 95.3233 49.7784 95.3504C49.7414 95.3641 49.7163 95.3733 49.7017 95.3787C49.6934 95.3817 49.6937 95.3816 49.6985 95.3799C49.6991 95.3797 49.712 95.3751 49.7298 95.3692C49.7357 95.3673 49.7626 95.3584 49.7977 95.3484C49.8189 95.3424 49.8792 95.327 49.9183 95.3182C50.0107 95.3008 50.5292 95.2897 50.943 95.3879L49.6753 98.8883C50.0893 98.9865 50.6079 98.9754 50.7004 98.958C50.7398 98.9491 50.8004 98.9336 50.8219 98.9276C50.8577 98.9173 50.8856 98.9081 50.8928 98.9058C50.9132 98.8991 50.9301 98.8931 50.9357 98.8911C50.9507 98.8858 50.966 98.8803 50.9773 98.8762C51.0021 98.8672 51.035 98.855 51.0735 98.8407C51.1515 98.8118 51.2639 98.7698 51.4045 98.7172C51.6863 98.6117 52.0874 98.4611 52.5674 98.2807C53.5276 97.9197 54.8065 97.4382 56.0847 96.9567C57.363 96.4752 58.6408 95.9935 59.5991 95.6323C60.0782 95.4516 60.4775 95.3011 60.757 95.1957C60.8967 95.143 61.0065 95.1016 61.0814 95.0734C61.1188 95.0593 61.1475 95.0485 61.1669 95.0412C61.1765 95.0375 61.1839 95.0348 61.1888 95.0329C61.1912 95.032 61.1931 95.0313 61.1943 95.0308C61.1949 95.0306 61.1954 95.0304 61.1957 95.0303C61.1959 95.0302 61.196 95.0302 61.1961 95.0301C61.1962 95.0301 61.1962 95.0301 60.5394 93.2884ZM50.9543 95.392C50.6748 95.3148 50.3277 95.2807 50.2687 95.2814C50.2435 95.2823 50.2045 95.2843 50.1905 95.2852C50.1671 95.2869 50.1486 95.2886 50.1435 95.2891C50.1294 95.2904 50.1173 95.2917 50.1123 95.2923C50.0998 95.2936 50.0859 95.2952 50.0735 95.2966C50.0472 95.2996 50.0106 95.3039 49.9661 95.3091C49.8762 95.3197 49.7459 95.3353 49.5817 95.355C49.253 95.3943 48.7846 95.4508 48.2235 95.5185C47.101 95.654 45.6057 95.835 44.1111 96.0162C42.6163 96.1973 41.122 96.3786 40.0013 96.5145C39.441 96.5825 38.9741 96.6392 38.6473 96.6788C38.4838 96.6987 38.3554 96.7143 38.2679 96.7249C38.2241 96.7302 38.1906 96.7343 38.1679 96.737C38.1566 96.7384 38.1481 96.7394 38.1423 96.7401C38.1394 96.7405 38.1373 96.7408 38.1358 96.7409C38.1351 96.741 38.1346 96.7411 38.1342 96.7411C38.134 96.7411 38.1339 96.7412 38.1338 96.7412C38.1337 96.7412 38.1336 96.7412 38.358 98.5891C38.5823 100.437 38.5824 100.437 38.5825 100.437C38.5826 100.437 38.5827 100.437 38.5829 100.437C38.5832 100.437 38.5838 100.437 38.5845 100.437C38.586 100.436 38.5881 100.436 38.591 100.436C38.5967 100.435 38.6053 100.434 38.6166 100.433C38.6392 100.43 38.6728 100.426 38.7165 100.421C38.8041 100.41 38.9324 100.394 39.0958 100.375C39.4226 100.335 39.8895 100.278 40.4497 100.21C41.5703 100.074 43.0644 99.8931 44.5589 99.712C46.0535 99.5309 47.5481 99.35 48.6697 99.2145C49.2305 99.1468 49.6976 99.0906 50.0246 99.0514C50.1883 99.0318 50.316 99.0166 50.4024 99.0064C50.446 99.0012 50.4772 98.9976 50.4968 98.9953C50.5073 98.9941 50.5108 98.9937 50.5102 98.9938C50.5097 98.9939 50.5081 98.994 50.5058 98.9943C50.5038 98.9945 50.499 98.995 50.4925 98.9956C50.4889 98.9959 50.4716 98.9976 50.449 98.9991C50.4354 99 50.3967 99.002 50.3717 99.0029C50.313 99.0036 49.9661 98.9696 49.6866 98.8924L50.9543 95.392ZM38.4365 96.7293L26.9055 96.2425L26.7485 99.9621L38.2795 100.449L38.4365 96.7293ZM27.563 96.3926L13.8376 90.4841L12.3656 93.9036L26.091 99.8121L27.563 96.3926ZM13.1016 92.1939C14.2961 90.7663 14.2961 90.7663 14.2961 90.7663C14.2961 90.7662 14.296 90.7662 14.296 90.7661C14.2958 90.766 14.2957 90.7659 14.2954 90.7657C14.2949 90.7652 14.2941 90.7646 14.2931 90.7637C14.291 90.762 14.2878 90.7593 14.2837 90.7559C14.2753 90.7489 14.2629 90.7384 14.2465 90.7247C14.2137 90.6972 14.1651 90.6566 14.1025 90.604C13.9772 90.499 13.7953 90.3464 13.5695 90.1566C13.1178 89.777 12.4905 89.2487 11.7883 88.6545C10.3805 87.4632 8.68362 86.0167 7.4949 84.9693L5.03377 87.7627C6.25283 88.8367 7.97453 90.3041 9.38341 91.4964C10.0896 92.094 10.7201 92.625 11.1742 93.0066C11.4013 93.1974 11.5843 93.351 11.7106 93.4569C11.7738 93.5098 11.8228 93.5509 11.856 93.5787C11.8727 93.5927 11.8853 93.6033 11.8939 93.6105C11.8982 93.6141 11.9014 93.6168 11.9036 93.6186C11.9047 93.6195 11.9056 93.6202 11.9061 93.6207C11.9064 93.6209 11.9066 93.6211 11.9068 93.6212C11.9068 93.6213 11.9069 93.6213 11.9069 93.6214C11.907 93.6214 11.907 93.6214 13.1016 92.1939Z" fill="#FF64AC" mask="url(#path-3-inside-2_317_3447)"/>
<mask id="path-5-inside-3_317_3447" fill="white">
<path d="M41.9981 54.7494C41.9992 54.7375 37.6214 43.5227 37.6214 43.5227L35.2249 32.2329L37.534 17.4693C37.534 17.4693 40.0223 12.2572 41.4782 9.39746C42.9895 9.56654 49.4934 10.0303 49.4934 10.0303L60.0733 14.5796L71.4283 22.5097L80.1775 34.5958L86.0809 44.2028C86.0809 44.2028 85.701 62.957 82.6714 72.5835C81.2177 77.1996 76.2889 79.8567 71.6294 78.5336C61.0023 75.5104 48.2724 63.6887 48.2724 63.6887C48.2724 63.6887 41.9981 54.7494 41.9992 54.7375"/>
</mask>
<path d="M41.9981 54.7494C41.9992 54.7375 37.6214 43.5227 37.6214 43.5227L35.2249 32.2329L37.534 17.4693C37.534 17.4693 40.0223 12.2572 41.4782 9.39746C42.9895 9.56654 49.4934 10.0303 49.4934 10.0303L60.0733 14.5796L71.4283 22.5097L80.1775 34.5958L86.0809 44.2028C86.0809 44.2028 85.701 62.957 82.6714 72.5835C81.2177 77.1996 76.2889 79.8567 71.6294 78.5336C61.0023 75.5104 48.2724 63.6887 48.2724 63.6887C48.2724 63.6887 41.9981 54.7494 41.9992 54.7375" fill="#FFA9CE"/>
<path d="M70.6571 23.0307L85.3096 44.7238L86.8522 43.6819L72.1996 21.9888L70.6571 23.0307ZM49.0953 63.254L38.4444 43.088L36.7984 43.9573L47.4494 64.1233L49.0953 63.254ZM41.4782 9.39746L41.6852 7.54756L40.4042 7.40424L39.8194 8.55293L41.4782 9.39746ZM80.1775 34.5958L81.7635 33.6213L81.7266 33.5613L81.6854 33.5043L80.1775 34.5958ZM82.6714 72.5835L84.4469 73.1426L84.447 73.1423L82.6714 72.5835ZM71.6294 78.5336L71.1201 80.324L71.121 80.3243L71.6294 78.5336ZM49.4934 10.0303L50.2287 8.32024L49.9396 8.19594L49.6258 8.17357L49.4934 10.0303ZM60.0733 14.5796L61.1391 13.0535L60.9832 12.9446L60.8086 12.8695L60.0733 14.5796ZM71.4283 22.5097L72.9362 21.4182L72.7518 21.1636L72.4941 20.9836L71.4283 22.5097ZM86.0809 44.2028L87.9419 44.2405L87.953 43.694L87.6668 43.2283L86.0809 44.2028ZM48.2724 63.6887L46.7487 64.7581L46.8617 64.9189L47.0057 65.0527L48.2724 63.6887ZM37.6214 43.5227L35.8005 43.9092L35.8321 44.0579L35.8874 44.1996L37.6214 43.5227ZM35.2249 32.2329L33.3858 31.9453L33.3329 32.2841L33.4041 32.6195L35.2249 32.2329ZM37.534 17.4693L35.8542 16.6674L35.7369 16.9129L35.6949 17.1817L37.534 17.4693ZM80.8959 72.0243C79.745 75.6789 75.8289 77.7911 72.1379 76.743L71.121 80.3243C76.7489 81.9224 82.6903 78.7203 84.4469 73.1426L80.8959 72.0243ZM41.2712 11.2473C42.0687 11.3366 44.1139 11.4976 45.9124 11.6334C46.822 11.7021 47.6839 11.7655 48.3184 11.8117C48.6356 11.8348 48.8961 11.8536 49.0774 11.8667C49.168 11.8732 49.2388 11.8783 49.287 11.8817C49.3111 11.8834 49.3296 11.8848 49.342 11.8857C49.3482 11.8861 49.353 11.8864 49.3561 11.8867C49.3577 11.8868 49.3589 11.8869 49.3597 11.8869C49.3601 11.8869 49.3605 11.887 49.3607 11.887C49.3608 11.887 49.3609 11.887 49.3609 11.887C49.361 11.887 49.361 11.887 49.4934 10.0303C49.6258 8.17357 49.6258 8.17356 49.6257 8.17356C49.6257 8.17356 49.6256 8.17355 49.6255 8.17355C49.6253 8.17353 49.625 8.17351 49.6247 8.17349C49.6239 8.17343 49.6227 8.17335 49.6212 8.17324C49.6181 8.17301 49.6135 8.17269 49.6074 8.17225C49.5951 8.17137 49.5768 8.17007 49.5529 8.16835C49.5051 8.16494 49.4348 8.15988 49.3446 8.1534C49.1642 8.14042 48.9048 8.12168 48.5887 8.09867C47.9564 8.05263 47.098 7.9895 46.1927 7.92113C44.3614 7.78282 42.399 7.62743 41.6852 7.54756L41.2712 11.2473ZM48.7581 11.7403L59.338 16.2896L60.8086 12.8695L50.2287 8.32024L48.7581 11.7403ZM59.0075 16.1057L70.3625 24.0358L72.4941 20.9836L61.1391 13.0535L59.0075 16.1057ZM69.9205 23.6012L78.6697 35.6873L81.6854 33.5043L72.9362 21.4182L69.9205 23.6012ZM78.5916 35.5704L84.4949 45.1774L87.6668 43.2283L81.7635 33.6213L78.5916 35.5704ZM86.0809 44.2028C84.2198 44.1651 84.2198 44.1651 84.2198 44.1651C84.2198 44.1652 84.2198 44.1652 84.2198 44.1654C84.2198 44.1658 84.2198 44.1665 84.2198 44.1675C84.2197 44.1694 84.2197 44.1724 84.2196 44.1765C84.2194 44.1848 84.2191 44.1976 84.2188 44.2147C84.218 44.249 84.2168 44.3006 84.215 44.3689C84.2116 44.5054 84.2061 44.7082 84.1981 44.9704C84.182 45.495 84.1556 46.2572 84.1145 47.2028C84.0323 49.0948 83.8914 51.7163 83.6568 54.6341C83.1834 60.5222 82.3416 67.4308 80.8958 72.0247L84.447 73.1423C86.0308 68.1097 86.8937 60.828 87.3677 54.9324C87.6068 51.9583 87.7502 49.2896 87.8339 47.3644C87.8757 46.4014 87.9027 45.6232 87.9192 45.0846C87.9275 44.8152 87.9331 44.6056 87.9367 44.4627C87.9385 44.3913 87.9398 44.3364 87.9407 44.2991C87.9411 44.2805 87.9414 44.2662 87.9416 44.2564C87.9417 44.2515 87.9418 44.2477 87.9419 44.2451C87.9419 44.2437 87.9419 44.2427 87.9419 44.2419C87.9419 44.2416 87.9419 44.2412 87.9419 44.241C87.9419 44.2407 87.9419 44.2405 86.0809 44.2028ZM72.1388 76.7432C67.1643 75.3281 61.5494 71.789 57.072 68.4804C54.8582 66.8445 52.9685 65.2999 51.633 64.1647C50.9658 63.5976 50.4383 63.134 50.0795 62.8137C49.9001 62.6536 49.763 62.5295 49.6716 62.4463C49.626 62.4047 49.5918 62.3733 49.5696 62.3529C49.5584 62.3426 49.5503 62.3351 49.5452 62.3304C49.5426 62.328 49.5408 62.3264 49.5398 62.3254C49.5393 62.3249 49.539 62.3246 49.5388 62.3245C49.5388 62.3245 49.5388 62.3245 49.5388 62.3245C49.5389 62.3246 49.539 62.3247 48.2724 63.6887C47.0057 65.0527 47.0059 65.0529 47.0062 65.0532C47.0064 65.0533 47.0067 65.0536 47.007 65.0539C47.0077 65.0545 47.0085 65.0553 47.0095 65.0563C47.0116 65.0582 47.0145 65.0608 47.0181 65.0641C47.0253 65.0708 47.0355 65.0803 47.0488 65.0925C47.0754 65.1169 47.114 65.1523 47.1642 65.1981C47.2645 65.2895 47.4113 65.4223 47.6007 65.5914C47.9795 65.9295 48.5296 66.413 49.2219 67.0014C50.6054 68.1773 52.5624 69.7771 54.8595 71.4745C59.4038 74.8326 65.4675 78.716 71.1201 80.324L72.1388 76.7432ZM48.2724 63.6887C49.796 62.6193 49.7959 62.6193 49.7959 62.6192C49.7958 62.6191 49.7958 62.619 49.7957 62.6189C49.7955 62.6186 49.7952 62.6182 49.7948 62.6177C49.7941 62.6166 49.7929 62.615 49.7914 62.6128C49.7884 62.6085 49.7839 62.6021 49.778 62.5937C49.7661 62.5768 49.7485 62.5517 49.7255 62.5189C49.6796 62.4535 49.6122 62.3575 49.5264 62.2352C49.3549 61.9908 49.1098 61.6416 48.8157 61.2225C48.2276 60.3843 47.4434 59.2667 46.6593 58.1487C45.8752 57.0306 45.0913 55.9125 44.5037 55.0734C44.2097 54.6536 43.9654 54.3044 43.7947 54.0599C43.7092 53.9374 43.6431 53.8426 43.5987 53.7787C43.5763 53.7463 43.5611 53.7243 43.5523 53.7115C43.5473 53.7042 43.5475 53.7044 43.5503 53.7087C43.5507 53.7092 43.5583 53.7206 43.5684 53.7364C43.5718 53.7415 43.587 53.7654 43.6055 53.7969C43.6165 53.8159 43.6464 53.8705 43.6647 53.9062C43.7046 53.9913 43.8442 54.4908 43.8521 54.9161L40.1464 54.5588C40.1542 54.9842 40.2939 55.4837 40.3338 55.569C40.3522 55.6049 40.3823 55.6598 40.3935 55.6791C40.4123 55.7112 40.4282 55.736 40.4322 55.7424C40.4438 55.7605 40.4538 55.7753 40.4571 55.7803C40.466 55.7935 40.4751 55.8069 40.4819 55.8169C40.4968 55.8386 40.5168 55.8675 40.5402 55.9012C40.5877 55.9696 40.6562 56.068 40.7422 56.1911C40.9144 56.4378 41.16 56.7888 41.4542 57.2089C42.0426 58.0492 42.8271 59.1681 43.6114 60.2864C44.3957 61.4047 45.18 62.5226 45.7683 63.3609C46.0624 63.7801 46.3075 64.1294 46.4791 64.3738C46.5649 64.4961 46.6323 64.5921 46.6783 64.6576C46.7012 64.6904 46.7189 64.7155 46.7307 64.7324C46.7367 64.7409 46.7412 64.7473 46.7442 64.7516C46.7457 64.7537 46.7468 64.7553 46.7476 64.7564C46.748 64.757 46.7483 64.7574 46.7485 64.7576C46.7486 64.7578 46.7486 64.7579 46.7487 64.758C46.7487 64.758 46.7487 64.7581 48.2724 63.6887ZM43.8509 54.928C43.8562 54.638 43.8028 54.2934 43.7875 54.2365C43.7804 54.2123 43.7687 54.175 43.7643 54.1617C43.7569 54.1394 43.7506 54.1219 43.7489 54.1171C43.7441 54.1038 43.7399 54.0924 43.7381 54.0877C43.7337 54.0759 43.7287 54.0629 43.7242 54.0511C43.7148 54.0264 43.7015 53.9921 43.6854 53.9502C43.6527 53.8658 43.6053 53.7435 43.5454 53.5894C43.4255 53.2808 43.2543 52.8411 43.0492 52.3144C42.6387 51.261 42.0915 49.8577 41.5443 48.4551C40.9971 47.0523 40.4499 45.65 40.0395 44.5984C39.8343 44.0726 39.6633 43.6345 39.5435 43.3278C39.4837 43.1744 39.4367 43.0539 39.4046 42.9718C39.3886 42.9307 39.3763 42.8992 39.368 42.878C39.3638 42.8674 39.3607 42.8593 39.3586 42.8539C39.3575 42.8512 39.3567 42.8492 39.3562 42.8478C39.3559 42.8472 39.3557 42.8466 39.3556 42.8463C39.3555 42.8461 39.3555 42.846 39.3555 42.8459C39.3554 42.8458 39.3554 42.8458 37.6214 43.5227C35.8874 44.1996 35.8874 44.1996 35.8875 44.1997C35.8875 44.1998 35.8875 44.1999 35.8876 44.2001C35.8877 44.2004 35.8879 44.2009 35.8882 44.2016C35.8887 44.203 35.8895 44.205 35.8906 44.2077C35.8927 44.2131 35.8958 44.2211 35.9 44.2317C35.9082 44.2529 35.9205 44.2844 35.9366 44.3255C35.9686 44.4076 36.0156 44.5281 36.0755 44.6814C36.1952 44.9881 36.3662 45.4262 36.5714 45.9519C36.9818 47.0035 37.5289 48.4056 38.076 49.8081C38.6231 51.2106 39.1701 52.6132 39.5802 53.6659C39.7853 54.1923 39.956 54.6307 40.0753 54.9377C40.135 55.0914 40.1815 55.2112 40.2129 55.2924C40.2287 55.3333 40.24 55.3627 40.247 55.3811C40.2508 55.3909 40.252 55.3943 40.2518 55.3937C40.2517 55.3932 40.2511 55.3918 40.2503 55.3895C40.2496 55.3876 40.2479 55.3831 40.2457 55.377C40.2445 55.3736 40.2386 55.3572 40.2314 55.3358C40.2272 55.3228 40.2156 55.2858 40.2086 55.2618C40.1933 55.2051 40.14 54.8606 40.1452 54.5707L43.8509 54.928ZM39.4423 43.1362L37.0458 31.8464L33.4041 32.6195L35.8005 43.9092L39.4423 43.1362ZM37.064 32.5206L39.3731 17.757L35.6949 17.1817L33.3858 31.9453L37.064 32.5206ZM37.534 17.4693C39.2138 18.2713 39.2138 18.2713 39.2138 18.2712C39.2138 18.2712 39.2139 18.2712 39.2139 18.2711C39.214 18.2709 39.2141 18.2707 39.2142 18.2704C39.2145 18.2698 39.2149 18.2689 39.2155 18.2677C39.2167 18.2652 39.2185 18.2615 39.2208 18.2566C39.2255 18.2468 39.2325 18.2321 39.2417 18.2128C39.2602 18.1742 39.2875 18.1171 39.3228 18.0434C39.3934 17.8959 39.496 17.6818 39.6236 17.4158C39.879 16.8839 40.2346 16.145 40.6355 15.317C41.4392 13.6572 42.4182 11.6538 43.137 10.242L39.8194 8.55293C39.0822 10.0008 38.0891 12.0334 37.2848 13.6945C36.8816 14.5271 36.5241 15.2699 36.2674 15.8047C36.1391 16.072 36.0359 16.2875 35.9647 16.4362C35.9291 16.5105 35.9015 16.5682 35.8828 16.6073C35.8735 16.6269 35.8663 16.6419 35.8615 16.6519C35.8591 16.657 35.8573 16.6608 35.8561 16.6634C35.8554 16.6647 35.855 16.6656 35.8547 16.6663C35.8545 16.6667 35.8544 16.6669 35.8543 16.6671C35.8543 16.6672 35.8542 16.6672 35.8542 16.6673C35.8542 16.6673 35.8542 16.6674 37.534 17.4693Z" fill="#FF64AC" mask="url(#path-5-inside-3_317_3447)"/>
<mask id="path-7-inside-4_317_3447" fill="white">
<path d="M85.718 29.3596C85.7299 29.3583 95.8053 22.7686 95.8053 22.7686L106.361 18.1025L121.284 17.3273C121.284 17.3273 126.897 18.6911 129.994 19.528C130.14 21.0418 131.023 27.5021 131.023 27.5021L128.746 38.7912L123.319 51.5339L113.29 62.5808L105.101 70.333C105.101 70.333 86.6695 73.8164 76.6259 72.8304C71.8095 72.3566 68.1959 68.0793 68.533 63.2474C69.307 52.2258 78.2594 37.3375 78.2594 37.3375C78.2594 37.3375 85.718 29.3596 85.7299 29.3583"/>
</mask>
<path d="M85.718 29.3596C85.7299 29.3583 95.8053 22.7686 95.8053 22.7686L106.361 18.1025L121.284 17.3273C121.284 17.3273 126.897 18.6911 129.994 19.528C130.14 21.0418 131.023 27.5021 131.023 27.5021L128.746 38.7912L123.319 51.5339L113.29 62.5808L105.101 70.333C105.101 70.333 86.6695 73.8164 76.6259 72.8304C71.8095 72.3566 68.1959 68.0793 68.533 63.2474C69.307 52.2258 78.2594 37.3375 78.2594 37.3375C78.2594 37.3375 85.718 29.3596 85.7299 29.3583" fill="#FFA9CE"/>
<path d="M122.651 50.8862L104.433 69.6853L105.77 70.9807L123.987 52.1816L122.651 50.8862ZM78.854 38.0536L96.3998 23.4847L95.2107 22.0526L77.6649 36.6215L78.854 38.0536ZM129.994 19.528L131.847 19.3503L131.724 18.0672L130.48 17.731L129.994 19.528ZM113.29 62.5808L114.569 63.9325L114.62 63.8841L114.668 63.832L113.29 62.5808ZM76.6259 72.8304L76.4437 74.6829L76.444 74.6829L76.6259 72.8304ZM68.533 63.2474L66.6761 63.117L66.676 63.1179L68.533 63.2474ZM131.023 27.5021L132.848 27.8702L132.91 27.5617L132.867 27.25L131.023 27.5021ZM128.746 38.7912L130.458 39.5206L130.533 39.3457L130.57 39.1593L128.746 38.7912ZM123.319 51.5339L124.697 52.7852L124.908 52.5525L125.032 52.2633L123.319 51.5339ZM105.101 70.333L105.447 72.162L105.984 72.0605L106.381 71.6847L105.101 70.333ZM78.2594 37.3375L76.8997 36.0663L76.7654 36.2099L76.6642 36.3783L78.2594 37.3375ZM95.8053 22.7686L95.0527 21.0661L94.9136 21.1276L94.7864 21.2108L95.8053 22.7686ZM106.361 18.1025L106.265 16.2436L105.922 16.2614L105.609 16.4L106.361 18.1025ZM121.284 17.3273L121.724 15.5185L121.459 15.4543L121.188 15.4684L121.284 17.3273ZM76.8081 70.9779C72.995 70.6028 70.1229 67.2045 70.3899 63.377L66.676 63.1179C66.269 68.9541 70.624 74.1104 76.4437 74.6829L76.8081 70.9779ZM128.142 19.7057C128.218 20.5045 128.481 22.5392 128.718 24.3271C128.838 25.2314 128.953 26.088 129.038 26.7184C129.081 27.0336 129.116 27.2924 129.14 27.4725C129.152 27.5625 129.162 27.6328 129.169 27.6807C129.172 27.7047 129.174 27.723 129.176 27.7354C129.177 27.7416 129.177 27.7462 129.178 27.7494C129.178 27.751 129.178 27.7522 129.178 27.753C129.178 27.7534 129.178 27.7537 129.179 27.7539C129.179 27.754 129.179 27.7541 129.179 27.7541C129.179 27.7542 129.179 27.7542 131.023 27.5021C132.867 27.25 132.867 27.25 132.867 27.2499C132.867 27.2499 132.867 27.2498 132.867 27.2497C132.867 27.2495 132.867 27.2493 132.867 27.2489C132.867 27.2481 132.867 27.247 132.866 27.2454C132.866 27.2424 132.865 27.2378 132.865 27.2317C132.863 27.2195 132.86 27.2014 132.857 27.1776C132.851 27.1302 132.841 27.0602 132.829 26.9707C132.805 26.7915 132.77 26.5338 132.727 26.2197C132.642 25.5915 132.528 24.7384 132.408 23.8384C132.167 22.0177 131.916 20.0653 131.847 19.3503L128.142 19.7057ZM129.198 27.134L126.921 38.4232L130.57 39.1593L132.848 27.8702L129.198 27.134ZM127.033 38.0619L121.606 50.8046L125.032 52.2633L130.458 39.5206L127.033 38.0619ZM121.941 50.2827L111.911 61.3296L114.668 63.832L124.697 52.7852L121.941 50.2827ZM112.01 61.2291L103.822 68.9812L106.381 71.6847L114.569 63.9325L112.01 61.2291ZM105.101 70.333C104.756 68.5039 104.756 68.5039 104.756 68.5039C104.756 68.5039 104.755 68.5039 104.755 68.504C104.755 68.504 104.754 68.5042 104.753 68.5043C104.751 68.5047 104.748 68.5052 104.744 68.506C104.736 68.5075 104.724 68.5099 104.707 68.513C104.673 68.5193 104.622 68.5288 104.555 68.5411C104.421 68.5658 104.221 68.6021 103.963 68.6482C103.446 68.7402 102.695 68.8711 101.761 69.0253C99.8927 69.3337 97.2981 69.7347 94.3945 70.1049C88.5349 70.8521 81.6007 71.4484 76.8078 70.9779L76.444 74.6829C81.6947 75.1984 88.9982 74.546 94.8654 73.7979C97.8251 73.4205 100.466 73.0123 102.368 72.6984C103.319 72.5414 104.086 72.4078 104.616 72.3133C104.882 72.266 105.088 72.2284 105.228 72.2026C105.299 72.1897 105.353 72.1797 105.389 72.1728C105.408 72.1694 105.422 72.1668 105.431 72.165C105.436 72.1641 105.44 72.1634 105.443 72.1629C105.444 72.1626 105.445 72.1624 105.446 72.1623C105.446 72.1622 105.446 72.1621 105.446 72.1621C105.447 72.1621 105.447 72.162 105.101 70.333ZM70.3898 63.3778C70.7521 58.2187 73.0614 51.9962 75.3789 46.9343C76.5248 44.4315 77.648 42.2646 78.4844 40.7243C78.9022 39.9548 79.2475 39.3432 79.4872 38.9262C79.607 38.7178 79.7003 38.558 79.7629 38.4516C79.7943 38.3983 79.8179 38.3584 79.8334 38.3324C79.8411 38.3195 79.8468 38.3099 79.8504 38.304C79.8521 38.301 79.8534 38.2989 79.8541 38.2977C79.8545 38.2971 79.8547 38.2967 79.8548 38.2966C79.8548 38.2965 79.8548 38.2965 79.8548 38.2965C79.8548 38.2966 79.8547 38.2968 78.2594 37.3375C76.6642 36.3783 76.664 36.3786 76.6638 36.3789C76.6637 36.3791 76.6634 36.3795 76.6632 36.3799C76.6628 36.3806 76.6622 36.3816 76.6615 36.3828C76.66 36.3853 76.658 36.3886 76.6555 36.3928C76.6505 36.4012 76.6433 36.4132 76.6341 36.4287C76.6156 36.4598 76.5889 36.5048 76.5544 36.5633C76.4856 36.6803 76.3858 36.8512 76.2593 37.0714C76.0063 37.5116 75.6462 38.1494 75.2127 38.9478C74.3462 40.5435 73.183 42.7875 71.994 45.3845C69.6418 50.5221 67.0878 57.2545 66.6761 63.117L70.3898 63.3778ZM78.2594 37.3375C79.6192 38.6088 79.6192 38.6088 79.6192 38.6087C79.6193 38.6086 79.6194 38.6085 79.6195 38.6084C79.6197 38.6082 79.6201 38.6078 79.6205 38.6073C79.6214 38.6064 79.6228 38.6049 79.6246 38.603C79.6281 38.5992 79.6335 38.5935 79.6405 38.5859C79.6546 38.5708 79.6756 38.5484 79.7029 38.5192C79.7575 38.4608 79.8376 38.3751 79.9396 38.266C80.1436 38.0479 80.4349 37.7363 80.7846 37.3624C81.484 36.6145 82.4166 35.6173 83.3495 34.6201C84.2825 33.6229 85.2156 32.6259 85.916 31.8783C86.2664 31.5044 86.5579 31.1934 86.7621 30.9762C86.8644 30.8673 86.9436 30.7831 86.997 30.7266C87.0241 30.6979 87.0425 30.6785 87.0533 30.6673C87.0594 30.6609 87.0592 30.6611 87.0556 30.6648C87.0552 30.6653 87.0456 30.6751 87.0322 30.6882C87.0278 30.6925 87.0076 30.7124 86.9806 30.7369C86.9642 30.7516 86.917 30.7921 86.8858 30.8174C86.8107 30.8739 86.3506 31.1132 85.936 31.2083L85.5239 27.5083C85.1092 27.6034 84.649 27.8428 84.5738 27.8994C84.5424 27.9248 84.4949 27.9655 84.4783 27.9805C84.4507 28.0055 84.4297 28.0261 84.4244 28.0314C84.409 28.0465 84.3965 28.0592 84.3923 28.0635C84.3812 28.0749 84.37 28.0866 84.3616 28.0953C84.3435 28.1144 84.3193 28.1399 84.2911 28.1697C84.2339 28.2302 84.1517 28.3175 84.0489 28.4269C83.8429 28.6462 83.5498 28.9587 83.1993 29.3329C82.4979 30.0816 81.5641 31.0793 80.6309 32.0767C79.6977 33.0742 78.7649 34.0716 78.0654 34.8196C77.7157 35.1936 77.4242 35.5053 77.2202 35.7234C77.1182 35.8325 77.0381 35.9182 76.9835 35.9767C76.9561 36.0059 76.9352 36.0283 76.9211 36.0434C76.914 36.051 76.9087 36.0567 76.9051 36.0605C76.9033 36.0624 76.9019 36.0639 76.901 36.0649C76.9006 36.0653 76.9002 36.0657 76.9 36.0659C76.8999 36.0661 76.8998 36.0662 76.8998 36.0662C76.8997 36.0663 76.8997 36.0663 78.2594 37.3375ZM85.9241 31.2096C86.2089 31.1552 86.5352 31.0321 86.5878 31.0054C86.61 30.9935 86.6441 30.9744 86.6563 30.9674C86.6765 30.9556 86.6924 30.9458 86.6967 30.9431C86.7087 30.9357 86.719 30.9292 86.7233 30.9265C86.7339 30.9197 86.7456 30.9122 86.7562 30.9054C86.7785 30.891 86.8093 30.8711 86.847 30.8466C86.9228 30.7973 87.0328 30.7258 87.1713 30.6355C87.4487 30.4547 87.8438 30.1968 88.317 29.8877C89.2636 29.2695 90.5244 28.4455 91.7846 27.6217C93.0449 26.7978 94.3048 25.974 95.2496 25.3562C95.722 25.0473 96.1156 24.7898 96.3911 24.6096C96.5289 24.5195 96.6372 24.4487 96.711 24.4005C96.7479 24.3763 96.7762 24.3578 96.7952 24.3453C96.8048 24.3391 96.812 24.3344 96.8168 24.3312C96.8193 24.3296 96.8211 24.3284 96.8223 24.3276C96.8229 24.3272 96.8234 24.3269 96.8237 24.3267C96.8238 24.3266 96.8239 24.3266 96.824 24.3265C96.8241 24.3265 96.8241 24.3264 95.8053 22.7686C94.7864 21.2108 94.7863 21.2108 94.7863 21.2109C94.7862 21.2109 94.7861 21.211 94.7859 21.2111C94.7856 21.2113 94.7851 21.2116 94.7845 21.212C94.7833 21.2128 94.7815 21.214 94.7791 21.2156C94.7742 21.2187 94.767 21.2234 94.7575 21.2297C94.7384 21.2421 94.7101 21.2606 94.6732 21.2848C94.5994 21.333 94.4912 21.4038 94.3535 21.4939C94.078 21.6741 93.6844 21.9315 93.212 22.2404C92.2673 22.8581 91.0076 23.6818 89.7476 24.5056C88.4875 25.3293 87.2272 26.153 86.2813 26.7707C85.8083 27.0796 85.4144 27.3368 85.1384 27.5166C85.0003 27.6067 84.8926 27.6768 84.8196 27.7242C84.7828 27.7481 84.7564 27.7652 84.7398 27.7758C84.731 27.7815 84.7279 27.7835 84.7285 27.7831C84.7289 27.7829 84.7302 27.782 84.7322 27.7808C84.7339 27.7797 84.7381 27.7771 84.7436 27.7737C84.7466 27.7718 84.7615 27.7627 84.781 27.7513C84.7928 27.7445 84.8266 27.7255 84.8486 27.7137C84.901 27.6871 85.2272 27.5641 85.512 27.5096L85.9241 31.2096ZM96.5578 24.4711L107.114 19.805L105.609 16.4L95.0527 21.0661L96.5578 24.4711ZM106.458 19.9614L121.381 19.1863L121.188 15.4684L106.265 16.2436L106.458 19.9614ZM121.284 17.3273C120.845 19.1362 120.845 19.1362 120.845 19.1362C120.845 19.1362 120.845 19.1362 120.845 19.1362C120.845 19.1362 120.845 19.1363 120.846 19.1364C120.846 19.1365 120.847 19.1368 120.849 19.1371C120.851 19.1377 120.855 19.1387 120.86 19.14C120.871 19.1426 120.887 19.1464 120.908 19.1515C120.949 19.1616 121.011 19.1766 121.09 19.196C121.249 19.2347 121.48 19.2911 121.766 19.3614C122.339 19.5019 123.135 19.698 124.028 19.9202C125.818 20.3655 127.98 20.9118 129.509 21.325L130.48 17.731C128.911 17.3073 126.718 16.7532 124.927 16.3075C124.029 16.0841 123.229 15.8869 122.653 15.7457C122.365 15.675 122.133 15.6183 121.973 15.5792C121.893 15.5597 121.831 15.5445 121.788 15.5343C121.767 15.5291 121.751 15.5252 121.74 15.5226C121.735 15.5213 121.731 15.5203 121.728 15.5196C121.727 15.5192 121.726 15.519 121.725 15.5188C121.724 15.5187 121.724 15.5187 121.724 15.5186C121.724 15.5186 121.724 15.5186 121.724 15.5186C121.724 15.5185 121.724 15.5185 121.284 17.3273Z" fill="#FF64AC" mask="url(#path-7-inside-4_317_3447)"/>
<mask id="path-9-inside-5_317_3447" fill="white">
<path d="M112.617 64.9598C112.623 64.9701 122.728 71.5141 122.728 71.5141L131.269 79.2765L138.021 92.6074C138.021 92.6074 139.047 98.2912 139.536 101.463C138.21 102.208 132.661 105.632 132.661 105.632L121.417 108.121L107.568 108.319L93.4062 103.622L83.0023 99.2742C83.0023 99.2742 72.3537 83.8317 69.1882 74.2491C67.6711 69.6534 70.1188 64.6174 74.6733 62.9689C85.0643 59.2137 102.302 61.3705 102.302 61.3705C102.302 61.3705 112.617 64.9598 112.623 64.9701"/>
</mask>
<path d="M112.617 64.9598C112.623 64.9701 122.728 71.5141 122.728 71.5141L131.269 79.2765L138.021 92.6074C138.021 92.6074 139.047 98.2912 139.536 101.463C138.21 102.208 132.661 105.632 132.661 105.632L121.417 108.121L107.568 108.319L93.4062 103.622L83.0023 99.2742C83.0023 99.2742 72.3537 83.8317 69.1882 74.2491C67.6711 69.6534 70.1188 64.6174 74.6733 62.9689C85.0643 59.2137 102.302 61.3705 102.302 61.3705C102.302 61.3705 112.617 64.9598 112.623 64.9701" fill="#FFA9CE"/>
<path d="M107.89 107.446L83.3239 98.4008L82.6807 100.148L107.247 109.193L107.89 107.446ZM101.889 62.2041L122.314 72.3477L123.142 70.6805L102.716 60.5369L101.889 62.2041ZM139.536 101.463L140.449 103.085L141.572 102.453L141.375 101.179L139.536 101.463ZM93.4062 103.622L92.6884 105.34L92.7534 105.367L92.8202 105.389L93.4062 103.622ZM69.1882 74.2491L67.4206 74.8326L67.4207 74.833L69.1882 74.2491ZM74.6733 62.9689L74.0406 61.2183L74.0398 61.2186L74.6733 62.9689ZM132.661 105.632L133.063 107.449L133.371 107.381L133.638 107.216L132.661 105.632ZM121.417 108.121L121.443 109.982L121.633 109.98L121.819 109.938L121.417 108.121ZM107.568 108.319L106.982 110.086L107.28 110.185L107.595 110.18L107.568 108.319ZM83.0023 99.2742L81.4699 100.331L81.7802 100.781L82.2846 100.992L83.0023 99.2742ZM102.302 61.3705L102.914 59.6125L102.729 59.5479L102.534 59.5235L102.302 61.3705ZM122.728 71.5141L123.98 70.1366L123.868 70.0343L123.74 69.9517L122.728 71.5141ZM131.269 79.2765L132.93 78.4354L132.775 78.1296L132.521 77.899L131.269 79.2765ZM138.021 92.6074L139.853 92.2768L139.804 92.0091L139.681 91.7663L138.021 92.6074ZM70.9558 73.6656C69.7547 70.0272 71.6989 66.025 75.3068 64.7192L74.0398 61.2186C68.5386 63.2097 65.5875 69.2796 67.4206 74.8326L70.9558 73.6656ZM138.623 99.8404C137.924 100.234 136.17 101.298 134.631 102.239C133.852 102.714 133.116 103.167 132.574 103.5C132.303 103.666 132.081 103.803 131.926 103.899C131.848 103.946 131.788 103.983 131.747 104.009C131.726 104.021 131.711 104.031 131.7 104.038C131.695 104.041 131.691 104.043 131.688 104.045C131.687 104.046 131.685 104.047 131.685 104.047C131.684 104.047 131.684 104.047 131.684 104.048C131.684 104.048 131.684 104.048 131.684 104.048C131.684 104.048 131.684 104.048 132.661 105.632C133.638 107.216 133.638 107.216 133.638 107.216C133.638 107.216 133.639 107.216 133.639 107.216C133.639 107.216 133.639 107.216 133.639 107.216C133.64 107.215 133.641 107.215 133.642 107.214C133.645 107.212 133.649 107.21 133.654 107.206C133.665 107.2 133.68 107.19 133.701 107.178C133.741 107.153 133.801 107.116 133.878 107.068C134.032 106.973 134.254 106.837 134.524 106.671C135.064 106.339 135.797 105.889 136.572 105.415C138.139 104.458 139.823 103.437 140.449 103.085L138.623 99.8404ZM132.259 103.814L121.014 106.304L121.819 109.938L133.063 107.449L132.259 103.814ZM121.39 106.26L107.541 106.458L107.595 110.18L121.443 109.982L121.39 106.26ZM108.154 106.552L93.9922 101.855L92.8202 105.389L106.982 110.086L108.154 106.552ZM94.124 101.905L83.7201 97.5567L82.2846 100.992L92.6884 105.34L94.124 101.905ZM83.0023 99.2742C84.5347 98.2175 84.5348 98.2176 84.5348 98.2175C84.5347 98.2175 84.5347 98.2174 84.5346 98.2172C84.5344 98.2169 84.534 98.2164 84.5334 98.2156C84.5323 98.214 84.5306 98.2115 84.5283 98.2081C84.5236 98.2013 84.5163 98.1907 84.5067 98.1766C84.4873 98.1484 84.4581 98.1057 84.4196 98.0493C84.3426 97.9365 84.2286 97.7688 84.0819 97.5512C83.7885 97.1161 83.3646 96.4821 82.8455 95.6907C81.8069 94.1071 80.3896 91.8972 78.8753 89.3922C75.8194 84.337 72.4663 78.2382 70.9557 73.6652L67.4207 74.833C69.0756 79.8426 72.6295 86.2564 75.6893 91.3181C77.2329 93.8715 78.6756 96.1211 79.7325 97.7325C80.2612 98.5386 80.6939 99.1858 80.9952 99.6327C81.1459 99.8561 81.2638 100.029 81.3443 100.148C81.3846 100.207 81.4156 100.252 81.4367 100.283C81.4473 100.298 81.4554 100.31 81.4609 100.318C81.4637 100.322 81.4658 100.325 81.4673 100.327C81.4681 100.328 81.4687 100.329 81.4691 100.33C81.4693 100.33 81.4695 100.33 81.4696 100.331C81.4698 100.331 81.4699 100.331 83.0023 99.2742ZM75.306 64.7195C80.1699 62.9617 86.7946 62.5535 92.3613 62.6228C95.1138 62.6571 97.5499 62.8066 99.2969 62.9476C100.17 63.018 100.869 63.0862 101.347 63.1364C101.586 63.1616 101.77 63.1822 101.893 63.1964C101.954 63.2035 102 63.2089 102.03 63.2125C102.045 63.2144 102.056 63.2157 102.063 63.2165C102.066 63.217 102.069 63.2173 102.07 63.2174C102.071 63.2175 102.071 63.2176 102.072 63.2176C102.072 63.2176 102.072 63.2176 102.072 63.2176C102.072 63.2176 102.071 63.2176 102.302 61.3705C102.534 59.5235 102.533 59.5235 102.533 59.5234C102.533 59.5234 102.532 59.5233 102.532 59.5233C102.531 59.5232 102.53 59.523 102.528 59.5229C102.526 59.5225 102.522 59.522 102.517 59.5214C102.507 59.5202 102.493 59.5185 102.475 59.5164C102.439 59.5121 102.387 59.5059 102.32 59.4981C102.185 59.4825 101.988 59.4605 101.736 59.4339C101.231 59.3809 100.502 59.3099 99.5964 59.2368C97.7866 59.0907 95.2637 58.9358 92.4077 58.9002C86.7576 58.8299 79.5677 59.2208 74.0406 61.2183L75.306 64.7195ZM102.302 61.3705C101.691 63.1286 101.691 63.1286 101.691 63.1286C101.691 63.1286 101.691 63.1287 101.691 63.1287C101.692 63.1289 101.692 63.129 101.693 63.1292C101.694 63.1297 101.696 63.1303 101.698 63.1312C101.703 63.1329 101.711 63.1355 101.72 63.1389C101.74 63.1457 101.769 63.1557 101.807 63.1689C101.882 63.1952 101.993 63.2337 102.134 63.2828C102.416 63.3809 102.819 63.5212 103.302 63.6895C104.269 64.0261 105.559 64.475 106.848 64.9243C108.138 65.3736 109.427 65.823 110.395 66.1607C110.878 66.3296 111.281 66.4703 111.562 66.569C111.703 66.6184 111.812 66.6568 111.885 66.6828C111.923 66.6959 111.948 66.7049 111.962 66.7102C111.971 66.7132 111.97 66.7131 111.966 66.7113C111.965 66.7111 111.952 66.7063 111.935 66.6994C111.929 66.6971 111.903 66.6867 111.869 66.6719C111.849 66.6629 111.793 66.6361 111.757 66.6178C111.675 66.572 111.27 66.2482 111.015 65.9077L114.231 64.0326C113.977 63.692 113.571 63.3681 113.489 63.3222C113.453 63.3039 113.397 63.2769 113.376 63.2678C113.342 63.2527 113.315 63.2419 113.308 63.2391C113.288 63.2311 113.271 63.2249 113.266 63.2228C113.251 63.2172 113.235 63.2117 113.224 63.2076C113.199 63.1987 113.166 63.1869 113.127 63.1732C113.049 63.1455 112.936 63.1057 112.794 63.056C112.51 62.9564 112.106 62.815 111.622 62.6459C110.653 62.3078 109.363 61.858 108.073 61.4086C106.783 60.9593 105.493 60.5102 104.526 60.1735C104.043 60.0052 103.64 59.8649 103.358 59.7668C103.216 59.7177 103.106 59.6791 103.03 59.6528C102.992 59.6397 102.963 59.6296 102.944 59.6228C102.934 59.6194 102.927 59.6168 102.922 59.6151C102.919 59.6142 102.917 59.6136 102.916 59.6132C102.915 59.6129 102.915 59.6128 102.915 59.6127C102.915 59.6126 102.914 59.6126 102.914 59.6125C102.914 59.6125 102.914 59.6125 102.302 61.3705ZM111.009 65.8973C111.174 66.1357 111.419 66.3842 111.465 66.4215C111.485 66.437 111.516 66.4604 111.527 66.4687C111.546 66.4824 111.562 66.4929 111.566 66.4958C111.577 66.5038 111.587 66.5106 111.592 66.5134C111.602 66.5204 111.614 66.5281 111.624 66.535C111.646 66.5495 111.677 66.5696 111.715 66.5941C111.791 66.6436 111.901 66.7151 112.039 66.8052C112.317 66.9856 112.713 67.2425 113.187 67.55C114.135 68.1652 115.399 68.9843 116.663 69.803C117.927 70.6217 119.19 71.4401 120.137 72.0538C120.611 72.3606 121.006 72.6163 121.282 72.7953C121.42 72.8848 121.529 72.9551 121.603 73.003C121.64 73.027 121.668 73.0454 121.688 73.0577C121.697 73.0639 121.704 73.0686 121.709 73.0718C121.712 73.0734 121.714 73.0745 121.715 73.0753C121.715 73.0757 121.716 73.076 121.716 73.0762C121.716 73.0763 121.716 73.0764 121.716 73.0764C121.717 73.0765 121.717 73.0765 122.728 71.5141C123.74 69.9517 123.74 69.9516 123.74 69.9516C123.74 69.9515 123.74 69.9515 123.74 69.9514C123.739 69.9512 123.739 69.9509 123.738 69.9505C123.737 69.9497 123.735 69.9485 123.733 69.9469C123.728 69.9438 123.721 69.9391 123.711 69.9329C123.692 69.9205 123.664 69.9022 123.627 69.8782C123.553 69.8303 123.444 69.76 123.306 69.6705C123.03 69.4916 122.635 69.2359 122.161 68.9291C121.214 68.3155 119.951 67.4972 118.687 66.6786C117.424 65.86 116.16 65.0412 115.213 64.4265C114.739 64.1191 114.344 63.863 114.068 63.6835C113.929 63.5937 113.822 63.5236 113.749 63.4761C113.712 63.4521 113.686 63.4349 113.669 63.4241C113.661 63.4183 113.658 63.4163 113.658 63.4166C113.658 63.4169 113.66 63.4178 113.662 63.4191C113.663 63.4202 113.667 63.4229 113.673 63.4266C113.676 63.4286 113.69 63.4385 113.708 63.4517C113.719 63.4598 113.75 63.483 113.77 63.4984C113.816 63.5355 114.06 63.7839 114.225 64.0223L111.009 65.8973ZM121.476 72.8916L130.017 80.654L132.521 77.899L123.98 70.1366L121.476 72.8916ZM129.609 80.1175L136.36 93.4484L139.681 91.7663L132.93 78.4354L129.609 80.1175ZM138.021 92.6074C136.189 92.9379 136.189 92.938 136.189 92.938C136.189 92.938 136.189 92.9381 136.189 92.9382C136.189 92.9383 136.189 92.9386 136.189 92.9389C136.189 92.9395 136.189 92.9405 136.19 92.9419C136.19 92.9446 136.191 92.9486 136.192 92.9539C136.194 92.9646 136.197 92.9807 136.2 93.0017C136.208 93.0438 136.219 93.1061 136.234 93.1866C136.263 93.3476 136.304 93.5812 136.356 93.8716C136.46 94.4525 136.603 95.26 136.761 96.1661C137.079 97.9828 137.455 100.181 137.696 101.746L141.375 101.179C141.128 99.5732 140.746 97.3434 140.428 95.5253C140.269 94.6141 140.125 93.8023 140.021 93.2184C139.969 92.9264 139.927 92.6913 139.898 92.529C139.883 92.4479 139.872 92.385 139.864 92.3423C139.861 92.3209 139.858 92.3046 139.856 92.2936C139.855 92.2881 139.854 92.284 139.853 92.2811C139.853 92.2797 139.853 92.2787 139.853 92.2779C139.853 92.2776 139.853 92.2773 139.853 92.2771C139.853 92.277 139.853 92.2769 139.853 92.2769C139.853 92.2768 139.853 92.2768 138.021 92.6074Z" fill="#FF64AC" mask="url(#path-9-inside-5_317_3447)"/>
<path d="M95.5692 44.8282C93.1012 44.9043 90.6333 44.9889 88.1653 45.065C85.9087 46.1391 83.652 47.2217 81.3954 48.2958C80.9812 49.0317 80.5755 49.7675 80.1614 50.4949C80.66 54.0133 80.2713 56.7367 79.0373 57.1934C78.6908 57.3203 77.854 57.4895 77.8371 57.0666C77.7695 55.3243 77.4652 53.582 76.899 51.9073C76.7468 51.4421 76.62 51.0023 75.9016 49.5138C75.0987 47.8645 73.8056 45.3272 71.8447 42.0033C68.6076 41.1321 65.3706 40.2525 62.1335 39.3813C60.6882 40.1172 59.2429 40.8445 57.8061 41.5804C56.8341 43.7794 55.8622 45.9869 54.8902 48.1859C55.4987 50.8332 56.1157 53.4889 56.7243 56.1362C57.2905 56.7536 57.8653 57.371 58.4316 57.9885C61.9391 58.589 64.3901 59.8069 64.4493 61.1263C64.4662 61.4984 64.2972 61.9636 63.9591 62.2343C62.9956 63.0208 61.3475 61.6591 58.5921 61.5323C57.5272 61.4815 56.6736 61.6338 56.1749 61.7437C53.7999 62.488 51.4165 63.2323 49.0415 63.9766C46.7933 66.5562 44.5451 69.1358 42.2969 71.7154C42.5504 73.314 42.7955 74.9125 43.0406 76.511C45.0015 77.8812 46.9623 79.2513 48.9232 80.6215C51.4587 81.0951 54.0028 81.5688 56.5383 82.0339C57.1131 81.8648 57.9498 81.5518 58.8288 80.9767C61.7193 79.0737 62.387 76.0289 63.6717 76.2234C64.2211 76.308 64.5169 76.9254 64.5676 77.0269C65.1339 78.1856 64.2718 80.0464 62.3194 81.6618C62.1081 82.533 61.8968 83.4126 61.6855 84.2837C61.4235 86.0176 61.1277 89.5191 62.5392 93.5534C63.7478 97.0127 65.6748 99.3301 66.8581 100.556C68.464 100.819 70.0614 101.081 71.6672 101.343C73.3745 99.7868 75.0902 98.2306 76.7975 96.6744C78.2259 94.5176 79.6627 92.3609 81.0911 90.2042C80.9897 89.3668 80.8967 88.538 80.7953 87.7007C78.3104 85.1549 77.0342 82.7275 77.7695 81.6195C77.9723 81.3066 78.378 81.0359 78.8091 81.0105C80.0346 80.9429 80.5671 82.9812 82.68 84.6981C83.5252 85.3832 84.3282 85.7807 84.8184 85.9922C87.3455 86.8802 89.8726 87.7683 92.4082 88.6648C95.5692 87.8106 98.7218 86.9564 101.883 86.1021C102.627 84.6559 103.379 83.2096 104.123 81.7633C103.167 79.319 102.221 76.8747 101.266 74.4304C99.6599 72.7388 98.0541 71.0473 96.4482 69.3557C95.6199 69.195 94.8001 69.0259 93.9718 68.8652C90.777 70.4214 88.0724 70.9035 87.2525 69.8632C87.0159 69.5672 86.8891 69.0935 87.0074 68.6791C87.3286 67.5119 89.3486 67.6303 91.5799 66.2263C92.535 65.6258 93.2027 64.9492 93.5914 64.501C95.6453 61.9298 97.6991 59.3502 99.7529 56.779C99.4909 53.9457 99.2289 51.1038 98.9584 48.2705C97.8174 47.1202 96.6764 45.9784 95.5354 44.8282" fill="#FF64AC"/>
<g style="mix-blend-mode:multiply">
<path d="M79.536 68.9079C79.181 69.872 78.8345 70.8362 78.4795 71.8004C77.3216 72.3417 76.1637 72.8915 75.0058 73.4328C73.9916 72.9168 72.9773 72.4094 71.9631 71.8935C71.4645 70.8954 70.9742 69.8974 70.4756 68.8994C70.8306 67.9183 71.194 66.9457 71.549 65.9645C72.6984 65.4317 73.8479 64.8989 74.9974 64.366C75.9778 64.7297 76.9582 65.1019 77.9386 65.4655C78.4711 66.6073 78.9951 67.7576 79.5276 68.8994L79.536 68.9079Z" fill="#FF64AC"/>
</g>
<path opacity="0.8" d="M59.8022 93.5221C57.8752 94.5286 55.9397 95.535 54.0127 96.5415C54.1479 98.5291 54.2916 100.517 54.4268 102.504C54.5029 104.111 54.579 105.718 54.655 107.334C54.7987 109.71 54.9339 112.087 55.0776 114.464C55.5847 116.629 56.1003 118.785 56.6074 120.951C57.478 123.2 58.3401 125.442 59.2106 127.692C61.5433 129.104 63.8761 130.525 66.2003 131.937C66.2341 130.576 66.2764 129.222 66.3102 127.861C65.0002 126.77 63.6901 125.687 62.3801 124.596C61.5518 121.889 60.732 119.183 59.9037 116.477C59.2951 115.022 58.695 113.246 58.3063 111.173C57.5202 107.038 57.8921 103.485 58.3654 101.075C58.8472 98.5545 59.3289 96.0341 59.8107 93.5221H59.8022Z" fill="#FFE2EF"/>
<path opacity="0.8" d="M44.4527 62.8894C42.7244 61.5706 40.9925 60.2441 39.2642 58.9253C37.5212 59.8901 35.7819 60.8626 34.039 61.8275C32.6157 62.5774 31.1924 63.3274 29.7615 64.0809C27.6697 65.2183 25.5744 66.3481 23.4827 67.4855C21.7365 68.8624 20.0015 70.2435 18.2553 71.6204C16.5865 73.3624 14.9219 75.0932 13.2531 76.8351C12.9624 79.5466 12.6641 82.2617 12.3698 84.9655C13.6175 84.419 14.8611 83.8838 16.1088 83.3373C16.5418 81.6883 16.9671 80.0429 17.4001 78.3939C19.5005 76.4967 21.6044 74.607 23.7048 72.7098C24.7645 71.542 26.1189 70.2458 27.831 69.0154C31.2439 66.5506 34.619 65.3819 37.0028 64.789C39.4899 64.1572 41.9769 63.5254 44.4563 62.8971L44.4527 62.8894Z" fill="#FFE2EF"/>
<path opacity="0.8" d="M73.7148 40.547C74.5623 38.545 75.4164 36.5376 76.2639 34.5355C74.8959 33.0873 73.5213 31.6445 72.1533 30.1963C71.0729 29.0043 69.9925 27.8123 68.9068 26.6137C67.2849 24.8706 65.6695 23.1221 64.0476 21.379C62.2796 20.0301 60.5104 18.6932 58.7425 17.3443C56.6402 16.1612 54.5498 14.9793 52.4475 13.7962C49.7489 14.1891 47.0449 14.5754 44.3529 14.9629C45.1925 16.0354 46.0203 17.1068 46.8599 18.1794C48.5648 18.1887 50.2642 18.1914 51.9691 18.2007C54.3291 19.7632 56.6827 21.331 59.0427 22.8935C60.4373 23.6295 62.0297 24.6189 63.6472 25.9712C66.8834 28.6638 68.8548 31.6422 70.022 33.8037C71.2525 36.0554 72.4831 38.3071 73.7082 40.5524L73.7148 40.547Z" fill="#FFE2EF"/>
<path opacity="0.8" d="M106.136 57.4797C108.27 57.8976 110.41 58.3208 112.543 58.7387C113.679 57.1022 114.809 55.4604 115.945 53.8239C116.889 52.5215 117.834 51.2191 118.784 49.9102C120.156 47.9646 121.535 46.0243 122.908 44.0787C123.864 42.0712 124.809 40.065 125.766 38.0575C126.491 35.7569 127.218 33.4681 127.944 31.1675C127.005 28.6074 126.071 26.0406 125.138 23.4857C124.261 24.5279 123.383 25.5582 122.506 26.6004C122.847 28.2707 123.194 29.9344 123.535 31.6048C122.491 34.2356 121.441 36.8612 120.397 39.492C119.963 41.0081 119.322 42.7699 118.331 44.6309C116.361 48.3515 113.852 50.893 111.977 52.4796C110.026 54.1467 108.075 55.8139 106.13 57.4744L106.136 57.4797Z" fill="#FFE2EF"/>
<path opacity="0.8" d="M95.1745 95.0176C95.6564 97.1376 96.136 99.2657 96.6179 101.386C98.5742 101.762 100.533 102.13 102.489 102.506C104.062 102.842 105.636 103.178 107.217 103.517C109.552 103.984 111.884 104.459 114.219 104.926C116.442 104.988 118.659 105.039 120.882 105.101C123.279 104.833 125.666 104.571 128.064 104.303C130.024 102.407 131.993 100.514 133.951 98.6267C132.643 98.2468 131.346 97.8608 130.037 97.4809C128.648 98.4694 127.268 99.4601 125.879 100.449C123.05 100.559 120.224 100.662 117.396 100.773C115.834 100.99 113.964 101.118 111.861 100.965C107.661 100.671 104.321 99.4052 102.111 98.3329C99.797 97.2243 97.4828 96.1158 95.1767 95.0094L95.1745 95.0176Z" fill="#FFE2EF"/>
<path opacity="0.2" d="M61.627 45.3278L61.8721 42.283L70.4592 45.7761L75.4374 55.2742L74.2203 58.6657L71.1269 53.8871L68.3124 47.6199L61.627 45.3278Z" fill="#FFA9CE"/>
<path opacity="0.2" d="M48.1553 73.2382L45.3408 72.0626L51.3248 64.975L61.8981 63.1904L64.7379 65.4063L59.2357 66.8526L52.4066 67.5969L48.1553 73.2382Z" fill="#FFA9CE"/>
<path opacity="0.2" d="M70.1975 95.6423L67.9577 97.7145L63.9854 89.3328L66.7407 78.9636L69.9355 77.2889L68.972 82.9049L66.8167 89.4259L70.1975 95.6423Z" fill="#FFA9CE"/>
<path opacity="0.2" d="M99.0602 80.9606L100.32 83.7432L91.1239 84.8681L82.1564 78.9815L81.5732 75.4292L86.5937 78.1103L92.1043 82.2123L99.0602 80.9606Z" fill="#FFA9CE"/>
<path opacity="0.2" d="M94.2932 49.658L97.2937 49.0828L96.2118 58.2933L88.3854 65.6347L84.8018 65.3556L88.5798 61.1098L93.8622 56.7117L94.2932 49.658Z" fill="#FFA9CE"/>
</svg>
