<svg width="216" height="183" viewBox="0 0 216 183" fill="none" xmlns="http://www.w3.org/2000/svg">
<path d="M8.76756 4.53569C10.306 3.69367 12.384 3.41109 14.3677 3.4482C20.9868 3.57094 26.7239 7.02464 29.25 11.1291C31.7761 15.2336 31.6048 19.8604 30.6286 24.2532C29.6525 28.6459 27.9142 32.9645 27.4204 37.3944C27.3034 38.4333 27.2691 39.5237 27.9256 40.4685C28.5821 41.4132 30.1263 42.161 31.6448 41.9356C34.0709 41.5788 34.4591 39.4095 34.4791 37.7426C34.5533 31.9712 36.7311 26.294 37.125 20.5255C37.5189 14.7598 35.7549 8.49175 29.4441 4.56709C26.4899 2.72892 22.7393 1.54153 18.8575 0.819391C15.1897 0.137214 10.6542 -0.487877 7.17486 0.553942C3.69832 1.59576 1.60041 4.62703 2.67077 7.07887C2.9562 7.73536 3.52992 8.37187 4.44044 8.68298C7.71432 9.79616 6.81522 5.60605 8.77041 4.53569H8.76756Z" fill="#E73D70"/>
<path d="M18.1611 51.6202C16.6598 50.6783 15.8577 49.3368 15.324 48.0067C13.3288 43.0402 14.4191 37.7911 14.6675 32.6506C14.9158 27.51 14.0738 21.9584 9.06448 18.0622C7.47464 16.8263 5.528 15.8102 3.93531 14.5743C1.26939 12.5049 -0.334724 9.74767 0.0591692 7.02467C0.450208 4.30167 3.01051 1.68427 6.78675 0.651017C7.69727 0.402693 8.7819 0.251416 9.63534 0.582514C10.877 1.06204 10.9426 2.28938 10.3518 3.16565C9.76093 4.04192 8.71055 4.75264 8.13398 5.63177C7.2149 7.03894 7.64304 8.70014 8.63634 10.0845C9.63249 11.4688 11.1424 12.6476 12.4953 13.8893C17.1678 18.1736 20.0364 23.3341 20.6872 28.626C20.9783 30.9894 20.8356 33.3755 21.3123 35.7246C21.7889 38.0737 22.9621 40.4571 25.4567 42.1354C26.5014 42.8404 27.7573 43.4056 28.6963 44.1734C30.3747 45.5491 30.8485 47.3959 31.1739 49.157C31.6049 51.4804 30.8456 52.8076 27.3034 53.0388C24.1609 53.2415 20.593 53.1473 18.1554 51.6202H18.1611Z" fill="#E73D70"/>
<path d="M208.64 10.7238C207.592 9.59068 205.766 8.8714 203.87 8.47465C197.551 7.15026 190.449 9.16254 186.074 12.4964C181.698 15.8273 179.614 20.2429 178.41 24.6071C177.205 28.9742 176.757 33.4383 175.079 37.7341C174.685 38.7416 174.188 39.7806 173.112 40.5313C172.033 41.282 170.212 41.653 168.882 41.1078C166.762 40.2401 167.447 38.1051 168.232 36.5267C170.957 31.0522 171.648 25.2066 174.071 19.6692C176.495 14.129 181.196 8.58882 189.068 6.2483C192.753 5.1551 196.874 4.84684 200.896 5.00953C204.698 5.16366 209.293 5.56327 212.076 7.30439C214.862 9.04837 215.373 12.3708 213.175 14.4573C212.587 15.0167 211.737 15.4934 210.726 15.5876C207.09 15.9272 209.973 12.1596 208.643 10.7238H208.64Z" fill="#E73D70"/>
<path d="M176.943 53.2044C178.821 52.6392 180.225 51.5489 181.379 50.4043C185.671 46.1428 187.184 40.9423 189.439 36.0243C191.694 31.1092 195.182 26.04 201.807 23.4483C203.91 22.6234 206.242 22.0897 208.349 21.2676C211.874 19.8918 214.725 17.6312 215.676 14.971C216.626 12.3108 215.473 9.27671 212.399 7.47564C211.657 7.04179 210.704 6.66502 209.739 6.79061C208.332 6.97329 207.678 8.12072 207.809 9.07691C207.943 10.0331 208.594 10.9351 208.711 11.8912C208.9 13.4211 207.689 14.9025 206.077 15.9929C204.464 17.0832 202.463 17.871 200.582 18.7501C194.086 21.7842 188.874 26.04 185.694 30.9009C184.276 33.073 183.254 35.3593 181.664 37.48C180.077 39.5979 177.811 41.5959 174.637 42.6406C173.307 43.0802 171.845 43.3399 170.584 43.8622C168.332 44.7956 166.987 46.4397 165.825 48.0352C164.293 50.1388 164.367 51.5603 167.604 52.5479C170.475 53.4241 173.897 54.112 176.943 53.1987V53.2044Z" fill="#E73D70"/>
<path d="M181.401 38.1279H22.3656C22.3656 38.1279 19.5142 139.661 33.9598 161.185C39.3259 169.18 45.6053 179.364 63.3962 181.311C74.5308 182.53 129.239 182.53 140.374 181.311C158.165 179.364 164.444 169.18 169.81 161.185C184.256 139.661 181.404 38.1279 181.404 38.1279H181.401Z" fill="#E73D70"/>
<path d="M181.401 38.1279H22.3655C22.3655 38.1279 22.357 38.3991 22.3456 38.9186C24.923 39.0185 27.5889 39.3838 29.7068 39.5265C36.2117 39.969 42.7367 40.34 49.2759 40.6369C74.6363 41.7957 100.202 41.8785 125.591 40.8823C140.071 40.3143 154.494 39.3952 168.791 38.1279C167.05 39.6807 163.154 40.2515 159.632 40.6369C119.466 45.0525 77.7589 44.1619 36.6684 43.0116C31.8703 42.8775 27.0466 42.7519 22.2771 42.4493C22.2571 43.631 22.2342 45.0353 22.2143 46.6337C24.4948 46.7707 26.7868 47.0704 28.6507 47.196C35.1556 47.6385 41.6806 48.0095 48.2198 48.3064C73.5802 49.4652 99.1462 49.548 124.535 48.5518C139.015 47.9838 153.438 47.0647 167.735 45.7974C165.994 47.3502 162.098 47.921 158.576 48.3064C118.41 52.722 76.7028 51.8314 35.6123 50.6811C31.1368 50.5555 26.6356 50.4385 22.1771 50.1759C22.1629 51.7058 22.1543 53.3556 22.1486 55.111C24.452 55.2452 26.7697 55.5506 28.6536 55.679C35.1585 56.1214 41.6834 56.4925 48.2226 56.7893C73.5831 57.9482 99.149 58.031 124.538 57.0348C139.018 56.4668 153.441 55.5477 167.738 54.2804C165.997 55.8331 162.101 56.404 158.578 56.7893C118.413 61.2049 76.7057 60.3144 35.6152 59.1641C31.1282 59.0385 26.6156 58.9215 22.1458 58.6589C22.1458 59.715 22.1458 60.8025 22.1515 61.9157C23.8441 62.0641 25.4796 62.2553 26.8753 62.3495C33.3803 62.7919 39.9052 63.163 46.4415 63.4598C71.802 64.6187 97.3679 64.7014 122.757 63.7053C137.237 63.1373 151.66 62.2182 165.957 60.9509C164.216 62.5036 160.319 63.0745 156.797 63.4598C116.632 67.8754 74.9246 66.9849 33.8341 65.8346C29.9494 65.7261 26.0476 65.6234 22.1686 65.4264C22.1743 66.2542 22.1829 67.0933 22.1914 67.9439C23.0791 68.0324 23.9268 68.1152 24.6975 68.1666C31.2024 68.609 37.7274 68.98 44.2666 69.2769C69.627 70.4357 95.193 70.5185 120.582 69.5224C135.062 68.9544 149.485 68.0353 163.782 66.768C162.041 68.3207 158.145 68.8916 154.622 69.2769C114.457 73.6925 72.7496 72.8019 31.6591 71.6517C28.5223 71.5632 25.3711 71.4804 22.2314 71.3463C22.2399 72.0456 22.2514 72.7534 22.2628 73.467C24.315 73.6154 26.3416 73.8695 28.0228 73.9836C34.5277 74.426 41.0526 74.7971 47.5918 75.0939C72.9523 76.2528 98.5182 76.3356 123.907 75.3394C138.387 74.7714 152.81 73.8523 167.107 72.585C165.366 74.1378 161.47 74.7086 157.948 75.0939C117.782 79.5095 76.0749 78.619 34.9844 77.4687C30.7686 77.3517 26.5328 77.2404 22.3284 77.0092C22.3513 78.0967 22.3741 79.1927 22.3998 80.3002C23.7756 80.4315 25.0914 80.5771 26.2445 80.6541C32.7495 81.0965 39.2744 81.4676 45.8136 81.7644C71.174 82.9233 96.74 83.0061 122.129 82.0099C136.609 81.4419 151.032 80.5228 165.329 79.2555C163.588 80.8083 159.692 81.3791 156.169 81.7644C116.004 86.18 74.2966 85.2895 33.2062 84.1392C29.6383 84.0393 26.0561 83.9451 22.4911 83.7796C22.514 84.6302 22.5396 85.4864 22.5682 86.3484C23.0905 86.397 23.5929 86.4398 24.0696 86.474C30.5745 86.9164 37.0994 87.2875 43.6386 87.5844C68.9991 88.7432 94.565 88.826 119.954 87.8298C134.434 87.2618 148.857 86.3427 163.154 85.0754C161.413 86.6282 157.517 87.199 153.994 87.5844C113.829 92 72.1217 91.1094 31.0312 89.9591C28.254 89.8821 25.4653 89.8079 22.6852 89.6994C22.7223 90.6898 22.7594 91.686 22.7994 92.685C24.5976 92.8363 26.3473 93.0446 27.8287 93.1445C34.3336 93.5869 40.8585 93.958 47.3949 94.2549C72.7553 95.4137 98.3213 95.4965 123.71 94.5003C138.19 93.9323 152.613 93.0132 166.91 91.7459C165.169 93.2987 161.273 93.8695 157.751 94.2549C117.585 98.6705 75.8779 97.7799 34.7874 96.6296C30.8457 96.5183 26.8867 96.4127 22.9535 96.2129C23.0049 97.3232 23.0591 98.4364 23.1162 99.5496C24.1609 99.6523 25.1542 99.7551 26.0504 99.815C32.5554 100.257 39.0803 100.628 45.6195 100.925C70.9799 102.084 96.5459 102.167 121.935 101.171C136.415 100.603 150.837 99.6837 165.135 98.4164C163.394 99.9692 159.497 100.54 155.975 100.925C115.81 105.341 74.1026 104.45 33.0121 103.3C29.781 103.209 26.5357 103.123 23.3046 102.983C23.3531 103.857 23.4074 104.73 23.4616 105.604C23.6014 105.615 23.7413 105.624 23.8783 105.635C30.3833 106.077 36.9082 106.448 43.4445 106.745C68.805 107.904 94.3709 107.987 119.76 106.991C134.24 106.423 148.663 105.504 162.96 104.236C161.219 105.789 157.322 106.36 153.8 106.745C113.635 111.161 71.9276 110.27 30.8371 109.12C28.4538 109.054 26.0647 108.989 23.6785 108.903C23.7385 109.791 23.8012 110.676 23.8669 111.56C27.2778 110.593 32.2443 111.512 35.6751 111.76C41.7462 112.203 47.8373 112.574 53.9398 112.873C77.6133 114.035 101.475 114.115 125.174 113.122C138.69 112.554 152.153 111.638 165.497 110.37C163.87 111.923 160.234 112.494 156.949 112.879C119.457 117.295 80.5276 116.399 42.1715 115.251C36.8283 115.091 31.4508 114.946 26.1618 114.492C25.4311 114.429 24.726 114.372 24.081 114.306C24.178 115.499 24.2779 116.684 24.3835 117.863C27.5175 117.603 31.2624 118.234 34.0168 118.436C40.0879 118.879 46.1789 119.25 52.2814 119.55C75.955 120.711 99.8169 120.791 123.516 119.798C137.031 119.23 150.495 118.314 163.839 117.046C162.212 118.599 158.576 119.17 155.29 119.555C117.799 123.971 78.8692 123.075 40.5132 121.927C35.2356 121.77 29.9209 121.625 24.6975 121.185C24.7803 122.01 24.863 122.832 24.9487 123.646C27.4062 123.734 29.9637 124.114 31.9874 124.262C38.0585 124.705 44.1495 125.076 50.252 125.375C73.9256 126.537 97.7875 126.617 121.484 125.624C134.999 125.056 148.463 124.139 161.807 122.872C160.18 124.425 156.543 124.996 153.258 125.381C115.767 129.797 76.837 128.9 38.4809 127.753C34.1024 127.622 29.7011 127.499 25.3454 127.208C25.471 128.275 25.6023 129.331 25.7365 130.376C28.8962 130.091 32.7009 130.736 35.4925 130.938C41.5635 131.381 47.6546 131.752 53.7571 132.051C77.4307 133.213 101.293 133.293 124.992 132.3C138.507 131.732 151.971 130.816 165.314 129.548C163.688 131.101 160.051 131.672 156.766 132.057C119.275 136.473 80.3449 135.579 41.9888 134.429C36.7169 134.272 31.4108 134.127 26.1903 133.687C26.353 134.809 26.5214 135.91 26.6955 136.995C29.1816 137.078 31.7819 137.466 33.8313 137.614C39.9023 138.057 45.9934 138.428 52.0959 138.728C75.7695 139.889 99.6285 139.969 123.331 138.976C136.846 138.408 150.309 137.492 163.653 136.224C162.026 137.777 158.39 138.348 155.105 138.733C117.613 143.149 78.6837 142.253 40.3276 141.105C35.9891 140.974 31.6277 140.851 27.3092 140.569C27.4633 141.408 27.6203 142.233 27.783 143.041C29.2216 143.183 30.603 143.349 31.799 143.437C37.8701 143.88 43.9612 144.251 50.0636 144.55C73.7372 145.712 97.5991 145.792 121.298 144.799C134.813 144.231 148.277 143.315 161.621 142.047C159.994 143.6 156.358 144.171 153.072 144.556C115.581 148.972 76.6514 148.076 38.2954 146.928C35.05 146.831 31.7933 146.737 28.5508 146.58C28.7934 147.622 29.0446 148.626 29.3043 149.6C32.1301 149.203 35.6466 149.902 38.1926 150.113C43.4845 150.556 48.7906 150.927 54.111 151.227C74.7419 152.388 95.5355 152.468 116.189 151.475C127.969 150.907 139.7 149.991 151.328 148.723C149.913 150.276 146.742 150.847 143.879 151.232C111.206 155.648 77.2794 154.755 43.8555 153.604C39.3201 153.447 34.756 153.305 30.2634 152.879C30.643 154.067 31.0426 155.186 31.4565 156.225C33.3289 156.359 35.2127 156.664 36.7455 156.793C42.0374 157.235 47.3435 157.606 52.6611 157.906C73.2919 159.067 94.0855 159.147 114.739 158.154C126.519 157.586 138.25 156.67 149.878 155.402C148.463 156.955 145.292 157.526 142.429 157.911C109.756 162.327 75.8294 161.431 42.4056 160.283C39.3343 160.178 36.2488 160.078 33.1833 159.892C33.4431 160.352 33.7057 160.783 33.9768 161.188C34.2908 161.656 34.6076 162.133 34.9302 162.615C34.9444 162.615 34.9587 162.615 34.9701 162.618C40.262 163.061 45.5681 163.432 50.8885 163.731C71.5194 164.893 92.313 164.973 112.967 163.98C124.746 163.412 136.478 162.495 148.106 161.228C146.69 162.781 143.519 163.352 140.656 163.737C107.983 168.153 74.0569 167.256 40.633 166.109C39.5113 166.069 38.3867 166.032 37.2621 165.992C37.4762 166.289 37.696 166.586 37.9186 166.885C39.2687 167.037 40.5817 167.254 41.6891 167.356C46.4587 167.799 51.2425 168.17 56.0377 168.469C74.6334 169.631 93.3776 169.711 111.993 168.718C122.611 168.15 133.187 167.234 143.668 165.966C142.392 167.519 139.534 168.09 136.951 168.475C107.501 172.891 76.9226 171.995 46.7926 170.847C44.8631 170.773 42.925 170.702 40.9927 170.602C45.7023 175.694 52.3214 180.109 63.4132 181.322C74.5478 182.541 129.256 182.541 140.391 181.322C158.182 179.376 164.461 169.192 169.827 161.197C184.273 139.672 181.421 38.1393 181.421 38.1393L181.401 38.1279Z" fill="#FF64AC"/>
<path d="M181.401 38.1279H158.393C158.724 61.733 158.761 135.905 146.659 153.935C141.293 161.93 135.013 172.114 117.223 174.061C107.261 175.151 62.42 175.266 45.1144 174.406C49.4586 177.774 55.2072 180.418 63.3962 181.314C74.5308 182.533 129.239 182.533 140.374 181.314C158.165 179.367 164.444 169.183 169.81 161.188C184.256 139.664 181.404 38.1308 181.404 38.1308L181.401 38.1279Z" fill="#E73D70"/>
<path opacity="0.06" d="M30.6829 49.665C29.073 62.8747 33.6228 76.033 35.3696 89.2341C36.9623 101.279 36.2202 113.413 37.2963 125.484C38.3752 137.555 41.4036 149.808 49.9351 160.463C52.3869 163.526 55.5495 166.588 60.3247 167.941C67.0866 169.859 75.2841 167.605 79.8453 163.746C84.4065 159.887 85.9735 154.809 86.4758 149.897C87.4663 140.195 84.8489 130.516 83.5816 120.828C81.2125 102.709 83.6101 84.3162 90.6288 66.748C91.9104 63.5369 93.3547 60.3201 93.6373 57.0005C93.9198 53.681 92.9123 50.1816 89.7725 47.6099C86.5386 44.9611 81.5122 43.6281 76.6057 42.6805C62.7138 40.0003 32.4183 35.4477 30.6857 49.665H30.6829Z" fill="white"/>
<path opacity="0.06" d="M44.238 54.3404C43.9069 59.4496 45.8764 64.4874 46.5557 69.5795C47.2493 74.7714 46.6014 79.9948 46.4358 85.2039C45.9163 101.508 50.1236 117.726 50.5374 134.03C50.6516 138.525 50.8 143.569 55.6181 146.694C56.4687 147.248 57.5619 147.739 58.7407 147.667C60.7387 147.545 61.7149 145.975 62.0146 144.645C63.1534 139.567 60.7216 134.478 58.9776 129.477C51.7734 108.832 56.129 87.0535 65.0002 66.7023C66.2075 63.9337 67.5063 61.145 67.7203 58.2622C67.9344 55.3793 66.9325 52.3366 64.0497 50.1959C61.3838 48.215 54.0482 44.6586 50.3376 45.5891C45.9021 46.7023 44.415 51.6402 44.2409 54.3375L44.238 54.3404Z" fill="white"/>
</svg>
