<svg width="190" height="193" viewBox="0 0 190 193" fill="none" xmlns="http://www.w3.org/2000/svg">
<path d="M2 141.818L95.573 50.3499L113.778 45.5058L124.378 49.4822L154.864 24.7415L152.213 20.7651L161.048 12.8123L172.538 18.9966L179.604 28.7179L171.651 37.11L168.118 35.7845L141.609 65.3877L146.911 75.5483L148.236 89.6853L51.042 191.299L32.9249 187.326L7.74488 162.582L2 141.818Z" fill="#1C6E24"/>
<path d="M51.0422 191.299L44.4149 174.95L34.2543 160.37L17.4664 147.116L2.00391 141.814L7.74878 162.578C7.74878 162.578 32.4895 186.876 32.9325 187.319C33.3755 187.762 51.0459 191.295 51.0459 191.295L51.0422 191.299Z" fill="#1C4C24"/>
<path d="M152.213 20.7651L154.864 24.7415L168.118 35.7845L171.652 37.11L179.604 28.7179L172.538 18.9966L161.048 12.8123L152.213 20.7651Z" fill="#1C4C24"/>
<path d="M156.632 38.4354L159.283 41.0863L138.519 65.3876L143.82 77.3168L145.146 88.3598L85.5002 151.539L83.7354 147.119L139.844 87.4774L138.519 77.7562L133.352 65.2009L156.632 38.4354Z" fill="#1C4C24"/>
<path d="M119.962 50.3646L116.869 52.5724L112.892 52.133L99.1982 55.6664L19.6706 133.865L15.2549 132.539L96.5473 53.118L113.335 48.5997L119.962 50.3646Z" fill="#1CBC10"/>
<path d="M43.5285 187.766H47.0655L42.6461 176.28L32.4854 162.582L16.1369 149.331L5.5332 145.794L9.50958 160.817L32.4854 186.001L31.5993 182.464L11.7211 159.049L8.62716 150.656L14.372 152.864L28.9484 166.558L38.6697 178.487L43.5285 187.766Z" fill="#1C6E24"/>
<path d="M158.704 16.8839L160.912 14.6723L171.073 20.4172L177.7 28.8094L169.945 21.7427L158.704 16.8839Z" fill="#1CBC10"/>
<path d="M42.6465 146.68L59.8775 119.288L70.4811 104.265L84.6181 78.6423L97.8727 62.2937L103.614 74.2228L108.476 81.2932L113.778 83.9441L98.2023 97.9932L89.4769 111.775L81.0848 133.865L74.8969 155.515L74.0145 148.888L63.4108 143.586L47.9483 145.355L42.6465 146.68Z" fill="#BCB002"/>
<path d="M50.4961 145.062L48.8301 151.982L54.575 150.656L62.0114 151.982L64.7356 154.633L65.3471 144.553L63.4101 143.586L50.4961 145.062Z" fill="#BCB002"/>
<path d="M48.8301 151.982L50.1665 154.633L54.1319 155.072L54.575 150.656L48.8301 151.982Z" fill="#BCB002"/>
<path d="M100.015 66.7424L104.057 63.1761L114.661 74.6659L113.778 83.9441L108.476 81.2932L103.614 74.2228L100.015 66.7424Z" fill="#BCB002"/>
<path d="M114.66 74.6659L119.962 79.9677L120.405 86.152L124.378 92.7793L111.566 94.5441L101.405 99.846L93.0205 106.177L98.2015 97.9932L113.777 83.9441L114.66 74.6659Z" fill="#B49202"/>
<path d="M50.4965 145.062L47.9481 145.355L42.6463 146.68L40.043 150.656L43.0893 155.955L51.7048 158.587H63.3923L64.7361 154.633L62.0119 151.982L54.5754 150.656L50.156 154.633L48.8305 151.982L50.4965 145.062Z" fill="#B49202"/>
<path d="M165.91 15.0203L176.953 23.8554L188 14.5809L173.863 2L165.91 15.0203Z" fill="#BCB002"/>
<path d="M165.91 15.0202L158.917 23.8554L167.675 33.1336L176.953 23.8554L165.91 15.0202Z" fill="#B49202"/>
<path d="M165.91 15.0202L158.917 23.8554L167.675 33.1336L176.953 23.8554" stroke="#7C5E02" stroke-width="1.4646" stroke-miterlimit="10"/>
<path d="M165.91 15.0203L173.863 2L188 14.5809L176.953 23.8554" stroke="#8A7E02" stroke-width="1.4646" stroke-miterlimit="10"/>
<path d="M114.66 74.6659L119.962 79.9677L120.405 86.152L124.378 92.7793L111.567 94.5441L101.882 99.6006L93.585 105.686" stroke="#7C5E02" stroke-width="1.4646" stroke-miterlimit="10"/>
<path d="M42.6463 146.68L40.043 150.656L43.0893 155.955L51.7048 158.587H63.3923L64.7361 154.633" stroke="#7C5E02" stroke-width="1.4646" stroke-miterlimit="10"/>
<path d="M74.8969 155.515L81.0848 133.865L89.4769 111.775L98.2023 97.9932L113.778 83.9441L108.476 81.2932L103.614 74.2228L100.015 66.7424L97.8727 62.2937L84.6181 78.6423L70.4811 104.265L59.8775 119.288L42.6465 146.68L47.9483 145.355L50.4967 145.062L63.4108 143.586L65.3477 144.553L74.0145 148.888L74.8969 155.515Z" stroke="#8A7E02" stroke-width="1.4646" stroke-miterlimit="10"/>
<path d="M161.048 12.8123L165.911 15.0202L176.954 23.8554L179.604 28.7179L171.652 37.11L168.118 35.7845L154.864 24.7415L152.213 20.7651L161.048 12.8123Z" stroke="#1C3224" stroke-width="1.83074" stroke-miterlimit="10"/>
<path d="M168.118 35.7846L141.609 65.3877L146.911 75.5483L148.236 89.6854L51.042 191.299L32.9249 187.326L7.74488 162.582L2 141.818L95.573 50.35L113.778 45.5058L124.378 49.4822L154.864 24.7415" stroke="#1C3224" stroke-width="1.83074" stroke-miterlimit="10"/>
<path d="M2 141.818L17.4625 147.119L34.2504 160.374L44.4147 174.954L51.042 191.299" stroke="#1C3224" stroke-width="1.83074" stroke-miterlimit="10"/>
<path d="M100.015 66.7424L104.057 63.1761L114.661 74.6659L113.778 83.9441" stroke="#8A7E02" stroke-width="1.4646" stroke-miterlimit="10"/>
<path d="M103.613 74.2228L105.825 71.5719L110.241 75.1053L109.358 76.8738" stroke="#8A7E02" stroke-width="1.4646" stroke-miterlimit="10"/>
<path d="M50.4961 145.062L48.8301 151.982L54.575 150.656L62.0114 151.982L64.7356 154.633L65.3471 144.553" stroke="#8A7E02" stroke-width="1.4646" stroke-miterlimit="10"/>
<path d="M48.8301 151.982L50.1665 154.633L54.575 150.656" stroke="#8A7E02" stroke-width="1.4646" stroke-miterlimit="10"/>
</svg>
