<svg width="132" height="134" viewBox="0 0 132 134" fill="none" xmlns="http://www.w3.org/2000/svg">
<path d="M1.23779 98.6268L66.3324 34.9968L78.9968 31.6269L86.3708 34.3931L107.578 17.1821L105.734 14.4159L111.88 8.88354L119.873 13.1856L124.789 19.9483L119.257 25.7863L116.799 24.8643L98.3576 45.4579L102.046 52.5262L102.968 62.3607L35.3541 133.049L22.7509 130.285L5.23425 113.072L1.23779 98.6268Z" fill="#EDB266"/>
<path d="M35.3535 133.049L30.7432 121.676L23.6749 111.533L11.9963 102.313L1.23975 98.6245L5.2362 113.069C5.2362 113.069 22.4472 129.972 22.7554 130.28C23.0636 130.589 35.3561 133.047 35.3561 133.047L35.3535 133.049Z" fill="#EDB266"/>
<path d="M105.734 14.4159L107.578 17.1821L116.799 24.8643L119.257 25.7863L124.79 19.9483L119.874 13.1856L111.881 8.88354L105.734 14.4159Z" fill="#EDB266"/>
<path d="M108.808 26.7084L110.652 28.5525L96.2074 45.4578L99.8957 53.7564L100.818 61.4386L59.3249 105.389L58.0972 102.315L97.1295 60.8247L96.2074 54.0621L92.6134 45.3279L108.808 26.7084Z" fill="#EDB266"/>
<path d="M83.2995 35.007L81.1471 36.5429L78.3809 36.2373L68.8546 38.6953L13.5308 93.0945L10.459 92.1724L67.0105 36.9225L78.6891 33.7793L83.2995 35.007Z" fill="#EDB266"/>
<path d="M30.1279 130.591H32.5885L29.5141 122.601L22.4458 113.072L11.0728 103.854L3.69629 101.393L6.46248 111.844L22.4458 129.363L21.8294 126.903L8.00095 110.614L5.84862 104.776L9.84508 106.312L19.9852 115.838L26.7479 124.137L30.1279 130.591Z" fill="#EDB266"/>
<path d="M110.25 11.716L111.786 10.1775L118.855 14.1739L123.465 20.012L118.07 15.096L110.25 11.716Z" fill="#EDB266"/>
<path d="M29.5132 102.01L41.5 82.9544L48.8765 72.5035L58.711 54.6786L67.9316 43.3057L71.9256 51.6042L75.3082 56.5228L78.9964 58.3669L68.1609 68.1402L62.0911 77.7277L56.253 93.0946L51.9484 108.156L51.3345 103.545L43.958 99.8572L33.2014 101.087L29.5132 102.01Z" fill="#EDB266"/>
<path d="M34.9744 100.884L33.8154 105.698L37.8119 104.776L42.9851 105.698L44.8802 107.542L45.3056 100.53L43.9581 99.8572L34.9744 100.884Z" fill="#EDB266"/>
<path d="M33.8154 105.698L34.7451 107.542L37.5037 107.847L37.8119 104.776L33.8154 105.698Z" fill="#EDB266"/>
<path d="M69.4219 46.4005L72.2339 43.9196L79.6104 51.9125L78.9966 58.3669L75.3083 56.5228L71.9257 51.6043L69.4219 46.4005Z" fill="#EDB266"/>
<path d="M79.6107 51.9124L83.299 55.6006L83.6072 59.9027L86.3708 64.513L77.4584 65.7408L70.3901 69.429L64.5571 73.833L68.1613 68.1402L78.9968 58.3668L79.6107 51.9124Z" fill="#EDB266"/>
<path d="M34.9752 100.884L33.2024 101.088L29.5141 102.01L27.7031 104.776L29.8223 108.462L35.8158 110.293H43.9462L44.881 107.542L42.9859 105.698L37.8127 104.776L34.7383 107.542L33.8163 105.698L34.9752 100.884Z" fill="#EDB266"/>
<path d="M115.263 10.4196L122.945 16.5658L130.63 10.1139L120.795 1.36194L115.263 10.4196Z" fill="#EDB266"/>
<path d="M115.263 10.4197L110.398 16.5659L116.491 23.0204L122.946 16.5659L115.263 10.4197Z" fill="#EDB266"/>
<path d="M115.263 10.4197L110.398 16.5659L116.491 23.0204L122.946 16.5659" stroke="#EDB266" stroke-width="1.01885" stroke-miterlimit="10"/>
<path d="M115.263 10.4196L120.796 1.36194L130.63 10.1139L122.945 16.5658" stroke="#EDB266" stroke-width="1.01885" stroke-miterlimit="10"/>
<path d="M79.6105 51.9124L83.2988 55.6006L83.607 59.9027L86.3706 64.513L77.4582 65.7408L70.721 69.2583L64.9492 73.4917" stroke="#EDB266" stroke-width="1.01885" stroke-miterlimit="10"/>
<path d="M29.5141 102.009L27.7031 104.775L29.8223 108.461L35.8158 110.293H43.9462L44.881 107.542" stroke="#EDB266" stroke-width="1.01885" stroke-miterlimit="10"/>
<path d="M51.9484 108.156L56.253 93.0946L62.0911 77.7277L68.1609 68.1402L78.9964 58.3669L75.3082 56.5228L71.9256 51.6042L69.4217 46.4004L67.9316 43.3057L58.711 54.6786L48.8765 72.5035L41.5 82.9544L29.5132 102.01L33.2014 101.087L34.9742 100.884L43.958 99.8572L45.3054 100.53L51.3345 103.545L51.9484 108.156Z" stroke="#EDB266" stroke-width="1.01885" stroke-miterlimit="10"/>
<path d="M111.881 8.88354L115.263 10.4195L122.945 16.5657L124.79 19.9483L119.257 25.7863L116.799 24.8643L107.578 17.1821L105.734 14.4159L111.881 8.88354Z" stroke="#EDB266" stroke-width="1.27357" stroke-miterlimit="10"/>
<path d="M116.799 24.8644L98.3576 45.458L102.046 52.5263L102.968 62.3608L35.3541 133.049L22.7509 130.285L5.23425 113.072L1.23779 98.627L66.3324 34.9969L78.9968 31.6271L86.3708 34.3933L107.578 17.1823" stroke="#EDB266" stroke-width="1.27357" stroke-miterlimit="10"/>
<path d="M1.23779 98.6268L11.9944 102.315L23.673 111.536L30.7438 121.678L35.3541 133.049" stroke="#EDB266" stroke-width="1.27357" stroke-miterlimit="10"/>
<path d="M69.4224 46.4005L72.2344 43.9196L79.6109 51.9125L78.9971 58.3669" stroke="#EDB266" stroke-width="1.01885" stroke-miterlimit="10"/>
<path d="M71.9253 51.6041L73.4638 49.76L76.5356 52.218L75.9218 53.4483" stroke="#EDB266" stroke-width="1.01885" stroke-miterlimit="10"/>
<path d="M34.9744 100.884L33.8154 105.698L37.8119 104.776L42.9851 105.698L44.8802 107.542L45.3056 100.53" stroke="#EDB266" stroke-width="1.01885" stroke-miterlimit="10"/>
<path d="M33.8154 105.698L34.7451 107.542L37.8119 104.776" stroke="#EDB266" stroke-width="1.01885" stroke-miterlimit="10"/>
</svg>
