<svg width="111" height="87" viewBox="0 0 111 87" fill="none" xmlns="http://www.w3.org/2000/svg">
<path d="M61.1025 78.9918C61.54 78.9918 61.9756 78.9344 62.3982 78.821L76.7879 74.9599C77.0718 74.8837 77.3485 74.7826 77.6146 74.6578L93.7306 67.1019C94.0863 66.9351 94.4211 66.727 94.7281 66.4819L102.063 60.6245C102.543 60.2412 102.948 59.7727 103.259 59.2426L105.856 54.803C106.12 54.3527 106.311 53.8638 106.424 53.3543C106.735 51.9468 107.047 50.5392 107.358 49.1302C107.647 47.8269 107.398 46.4593 106.673 45.3384C105.176 43.0219 104.377 41.786 103.953 41.1308C103.642 40.6509 103.417 40.1247 103.286 39.5686C102.971 38.2422 102.288 35.3613 101.273 31.0724C100.887 29.4416 99.7094 28.1108 98.1368 27.5315C97.4735 27.2872 96.8102 27.0429 96.147 26.7986C94.8401 26.3171 93.7936 25.312 93.259 24.0259C92.4615 22.1072 91.6637 20.1896 90.8644 18.271C90.3567 17.0522 89.385 16.0831 88.1657 15.5765C84.7013 14.1369 82.4249 13.1897 81.4196 12.7712C81.027 12.6078 80.6584 12.396 80.3198 12.1388C79.4671 11.4911 77.5569 10.04 74.7009 7.86941C73.9349 7.28727 73.0144 6.93739 72.0552 6.8637C68.4343 6.58554 66.0231 6.39984 64.9393 6.3163C64.5024 6.28263 64.0759 6.19247 63.6628 6.04645C62.6967 5.70493 60.6024 4.96432 57.3811 3.82351C55.9076 3.30169 54.2729 3.49803 52.9659 4.35548C50.9716 5.66383 48.9784 6.97109 46.9839 8.27968C46.0236 8.90973 44.8737 9.18993 43.7311 9.07319C41.9157 8.8877 40.481 8.74067 39.4211 8.63183C37.9806 8.48392 36.5482 8.96666 35.4909 9.95609C34.3949 10.9816 32.7686 12.503 30.6447 14.4892C30.0281 15.0658 29.2748 15.4777 28.4563 15.6844C26.8527 16.0895 25.2479 16.4933 23.644 16.898C22.4598 17.1969 21.4257 17.9212 20.7381 18.9306C18.6743 21.9604 17.1589 24.1865 16.4468 25.2328C16.1455 25.6754 15.7779 26.0637 15.3524 26.3888C14.6453 26.9292 13.3593 27.9118 11.5266 29.3114C10.5637 30.0468 9.89862 31.1102 9.65857 32.2978C8.75156 36.7849 8.14433 39.7986 7.85164 41.2527C7.71747 41.9192 7.45047 42.5478 7.06395 43.1072C6.58823 43.7957 5.82792 44.8962 4.80362 46.3793C3.87722 47.7207 3.66252 49.4303 4.22926 50.9588C5.52032 54.4408 6.81138 57.921 8.10245 61.4035C8.34986 62.0709 8.73686 62.6778 9.23763 63.1836L13.5082 67.4969C14.0554 68.0496 14.724 68.4671 15.4609 68.716L30.0564 73.6472L46.0406 77.5102L54.973 78.9298C55.2326 78.9711 55.495 78.9918 55.7578 78.9918H61.1025Z" fill="#EDB266" stroke="#EDB266" stroke-width="3" stroke-miterlimit="10" stroke-linejoin="round"/>
<path d="M49.5291 62.1721C48.0964 61.4327 46.3951 61.4295 44.9596 62.1636L37.6881 65.882C37.3403 66.0599 37.0146 66.2779 36.7175 66.5316L31.2074 71.2372C30.6263 71.7335 30.1667 72.3563 29.8639 73.0578L28.2518 76.7923C27.956 77.4776 27.8174 78.2203 27.8461 78.9662C27.8538 79.1676 27.8616 79.369 27.8693 79.5704C27.9785 82.4168 30.4362 84.6013 33.2752 84.3695C34.7355 84.2503 36.1958 84.1311 37.6561 84.0131C40.061 84.1236 42.466 84.2299 44.871 84.3398C45.2521 84.3572 45.634 84.331 46.0092 84.2617L55.4683 82.5135C56.2186 82.3749 56.9272 82.0663 57.5399 81.6115L60.3786 79.5042C62.0177 78.2874 62.7525 76.1964 62.2349 74.2217L61.1346 70.0241C60.7752 68.6529 59.8507 67.4987 58.591 66.8487L49.5291 62.1721Z" fill="#EDB266" stroke="#EDB266" stroke-width="3" stroke-miterlimit="10" stroke-linejoin="round"/>
<path d="M61.3551 62.5103C62.7878 61.771 64.4891 61.7678 65.9246 62.5019L73.1961 66.2203C73.5439 66.3982 73.8696 66.6162 74.1667 66.8698L79.6768 71.5755C80.2578 72.0717 80.7174 72.6945 81.0203 73.3961L82.6323 77.1306C82.9282 77.8158 83.0668 78.5586 83.0381 79.3045C83.0304 79.5059 83.0226 79.7073 83.0149 79.9087C82.9056 82.7551 80.4479 84.9396 77.6089 84.7078C76.1487 84.5886 74.6884 84.4694 73.2281 84.3513C70.8231 84.4619 68.4181 84.5681 66.0132 84.6781C65.632 84.6955 65.2501 84.6693 64.8749 84.6L55.4159 82.8518C54.6656 82.7132 53.957 82.4046 53.3443 81.9498L50.5056 79.8425C48.8664 78.6257 48.1316 76.5347 48.6492 74.56L49.7496 70.3624C50.109 68.9912 51.0335 67.837 52.2931 67.187L61.3551 62.5103Z" fill="#EDB266" stroke="#EDB266" stroke-width="3" stroke-miterlimit="10" stroke-linejoin="round"/>
<path d="M55.8193 81.1071C56.2345 81.6763 56.9823 81.8926 57.6373 81.6328L72.5584 75.7153L91.6301 65.0013L105.128 56.0369C105.691 55.6632 106.179 55.1837 106.52 54.6005C107.03 53.7276 107.538 52.709 107.997 51.533C108.386 50.5333 108.688 49.5515 108.922 48.6191C109.173 47.6236 108.925 46.5763 108.32 45.7468C107.596 44.7527 106.427 44.1798 105.198 44.2234C104.672 44.242 104.146 44.2621 103.618 44.2842C102.534 44.326 101.459 44.3727 100.392 44.4242C99.4979 44.4674 98.6333 44.7542 97.8878 45.2492C93.1693 48.3822 88.4512 51.5116 83.7374 54.6452L67.3462 69.0383L56.0437 79.0393C55.4468 79.5675 55.3496 80.4631 55.8193 81.1071Z" fill="#EDB266" stroke="#EDB266" stroke-width="3" stroke-miterlimit="10" stroke-linejoin="round"/>
<path d="M54.7979 82.2089C54.473 82.4781 54.0322 82.5558 53.634 82.4163C48.6643 80.6755 43.6945 78.9387 38.7248 77.1978C38.4496 77.1014 38.1834 76.9811 37.9291 76.8382L19.2395 66.3389L5.74123 57.3744C5.17856 57.0008 4.69038 56.5212 4.34954 55.9381C3.83931 55.0651 3.33178 54.0466 2.87308 52.8705C2.48388 51.8709 2.182 50.8891 1.94737 49.9566C1.69687 48.9611 1.94462 47.9139 2.54934 47.0844C3.27404 46.0903 4.44221 45.5174 5.67166 45.5609C6.19724 45.5795 6.72381 45.5997 7.25135 45.6218C8.33602 45.6636 9.41094 45.7102 10.4778 45.7618C11.3717 45.8049 12.2363 46.0918 12.9818 46.5868C17.7003 49.7198 22.4187 52.8492 27.1372 55.9828L43.5284 70.3759L54.8287 80.375C55.383 80.8655 55.3676 81.7366 54.7979 82.2089Z" fill="#EDB266" stroke="#EDB266" stroke-width="3" stroke-miterlimit="10" stroke-linejoin="round"/>
<path d="M57.3044 80.74C57.8694 81.1701 58.6551 81.1585 59.2072 80.7121L72.8014 69.7194L89.2621 52.577L100.648 38.9478C101.056 38.4596 101.373 37.9 101.544 37.2875C101.847 36.2096 102.108 34.9746 102.273 33.5801C102.407 32.4281 102.454 31.3273 102.445 30.3C102.436 29.2527 101.903 28.2897 101.07 27.6556C100.09 26.9103 98.7985 26.7131 97.644 27.1401C97.0796 27.3489 96.5141 27.5599 95.9486 27.7732C94.8096 28.201 93.6841 28.6287 92.568 29.0585C91.7796 29.3621 91.0828 29.8633 90.5412 30.5118C86.5523 35.2876 82.5637 40.0597 78.5795 44.8361L65.7922 64.7726L56.9377 78.6861C56.5076 79.362 56.667 80.2547 57.3044 80.74Z" fill="#EDB266" stroke="#EDB266" stroke-width="3" stroke-miterlimit="10" stroke-linejoin="round"/>
<path d="M53.5652 82.0776C53.0002 82.5076 52.2145 82.4961 51.6624 82.0497L38.0682 71.057L21.6075 53.9146L10.2218 40.2854C9.81404 39.7972 9.49696 39.2376 9.32524 38.6251C9.02303 37.5472 8.76131 36.3122 8.59684 34.9177C8.46301 33.7657 8.41508 32.6649 8.42417 31.6376C8.43343 30.5903 8.9665 29.6273 9.79998 28.9932C10.7796 28.2479 12.0711 28.0507 13.2256 28.4777C13.79 28.6865 14.3555 28.8975 14.921 29.1108C16.06 29.5386 17.1855 29.9663 18.3016 30.3961C19.09 30.6997 19.7868 31.2009 20.3284 31.8494C24.3172 36.6252 28.3058 41.3973 32.2901 46.1737L45.0774 66.1102L53.9319 80.0237C54.362 80.6995 54.2026 81.5923 53.5652 82.0776Z" fill="#EDB266" stroke="#EDB266" stroke-width="3" stroke-miterlimit="10" stroke-linejoin="round"/>
<path d="M57.6374 80.9724C58.2983 81.2648 59.0737 81.0596 59.5035 80.4785L70.6422 65.4191L83.2507 43.2851L91.6399 26.0345C91.9025 25.4945 92.0708 24.9121 92.106 24.3127C92.178 23.089 92.1735 21.7045 92.0271 20.1716C91.9067 18.9233 91.7074 17.7518 91.4669 16.677C91.237 15.6497 90.5013 14.8198 89.5391 14.3927C88.4068 13.8901 87.0934 14.02 86.085 14.7398C85.5486 15.1227 85.0121 15.5081 84.4769 15.8959C83.4063 16.6662 82.3471 17.4393 81.2994 18.2087C80.6472 18.6876 80.1221 19.3188 79.7682 20.0464C76.826 26.0956 73.8877 32.1448 70.945 38.194L62.5955 62.2123L56.8019 79.0581C56.5411 79.8163 56.9041 80.648 57.6374 80.9724Z" fill="#EDB266" stroke="#EDB266" stroke-width="3" stroke-miterlimit="10" stroke-linejoin="round"/>
<path d="M52.8497 82.3099C52.1887 82.6023 51.4133 82.3971 50.9835 81.816L39.8449 66.7565L27.2363 44.6225L18.8471 27.372C18.5845 26.832 18.4163 26.2496 18.381 25.6501C18.3091 24.4265 18.3136 23.0419 18.4599 21.5091C18.5803 20.2607 18.7797 19.0893 19.0202 18.0144C19.2501 16.9871 19.9858 16.1573 20.9479 15.7302C22.0803 15.2276 23.3937 15.3575 24.4021 16.0773C24.9385 16.4602 25.475 16.8456 26.0102 17.2334C27.0808 18.0036 28.14 18.7767 29.1877 19.5461C29.8398 20.0251 30.3649 20.6562 30.7188 21.3839C33.6611 27.4331 36.5994 33.4823 39.5421 39.5315L47.8916 63.5498L53.6852 80.3956C53.9459 81.1538 53.583 81.9855 52.8497 82.3099Z" fill="#EDB266" stroke="#EDB266" stroke-width="3" stroke-miterlimit="10" stroke-linejoin="round"/>
<path d="M58.5446 81.5692C58.7287 81.3647 58.846 81.1114 58.9517 80.8573L66.7452 62.1229L74.0374 36.6529L78.3237 17.0702C78.447 16.5071 78.4763 15.9262 78.384 15.3573C78.1764 14.0772 77.8525 12.6443 77.3484 11.0934C76.936 9.82414 76.4634 8.65759 75.9724 7.6027C75.5322 6.65698 74.6449 6.00865 73.6221 5.80379C72.392 5.55742 71.1243 5.99572 70.3118 6.95157C69.8705 7.47081 69.4291 7.99253 68.989 8.51801C68.1038 9.57347 67.2274 10.623 66.3645 11.6689C65.8631 12.2766 65.5157 12.996 65.3473 13.7656C63.8442 20.634 62.3409 27.5025 60.8331 34.3709L58.1377 60.7557L56.1669 80.7121C56.0528 81.259 56.1669 81.8158 56.5194 82.0694C56.9816 82.4056 57.9033 82.2816 58.5446 81.5692Z" fill="#EDB266" stroke="#EDB266" stroke-width="3" stroke-miterlimit="10" stroke-linejoin="round"/>
<path d="M53.7738 82.7952C53.0597 83.0506 52.4279 82.4125 52.1231 81.7179C49.4539 75.6337 46.7886 69.5492 44.1189 63.4603L36.8267 37.9902L32.5404 18.4075C32.4171 17.8444 32.3878 17.2636 32.4801 16.6946C32.6877 15.4145 33.0116 13.9817 33.5157 12.4307C33.9281 11.1615 34.4007 9.99494 34.8917 8.94004C35.3319 7.99432 36.2192 7.34599 37.242 7.14113C38.4721 6.89476 39.7398 7.33306 40.5523 8.28892C40.9936 8.80815 41.435 9.32988 41.8751 9.85535C42.7603 10.9108 43.6367 11.9604 44.4996 13.0062C45.001 13.614 45.3484 14.3333 45.5168 15.103C47.0199 21.9714 48.5232 28.8398 50.031 35.7082L52.7264 62.093L54.5783 80.8454C54.6554 81.6269 54.5141 82.5331 53.7738 82.7952Z" fill="#EDB266" stroke="#EDB266" stroke-width="3" stroke-miterlimit="10" stroke-linejoin="round"/>
<path d="M56.6851 81.1799C56.8132 80.8053 56.7979 80.3958 56.8672 80.006L60.4511 59.8409L62.129 32.8495V12.3132C62.129 11.7525 62.0385 11.1946 61.8382 10.671C61.3587 9.4175 60.7275 8.03032 59.8952 6.55916C59.2078 5.34846 58.4811 4.25573 57.7609 3.28257C57.149 2.45572 56.1661 2.00012 55.1374 2.00012C53.8682 2.00012 52.7017 2.70076 52.111 3.82423C51.7927 4.42972 51.475 5.03768 51.1585 5.64935C50.516 6.88631 49.8824 8.12029 49.2577 9.34665C48.9011 10.0468 48.7162 10.8217 48.7162 11.6075C48.7162 18.8054 48.7162 25.9992 48.7162 33.1975L51.7343 60.1889L54.0223 80.0709C54.0622 80.4178 54.0359 80.7755 54.1212 81.1142C54.2679 81.6968 54.7448 82.1244 55.2489 82.1787C55.8242 82.241 56.4634 81.8277 56.6851 81.1799Z" fill="#EDB266" stroke="#EDB266" stroke-width="3" stroke-miterlimit="10" stroke-linejoin="round"/>
</svg>
