<svg width="51" height="50" viewBox="0 0 51 50" fill="none" xmlns="http://www.w3.org/2000/svg">
<path fill-rule="evenodd" clip-rule="evenodd" d="M25.4999 0C30.4444 0 35.2779 1.46622 39.3891 4.21325C43.5003 6.96028 46.7046 10.8647 48.5968 15.4329C50.489 20.001 50.9841 25.0277 50.0195 29.8772C49.0549 34.7267 46.6739 39.1813 43.1776 42.6776C39.6813 46.1739 35.2267 48.555 30.3772 49.5196C25.5278 50.4843 20.5011 49.9892 15.933 48.097C11.3648 46.2049 7.46036 43.0006 4.71332 38.8894C1.96628 34.7782 0.500031 29.9447 0.5 25.0002C0.5 18.3697 3.13392 12.0109 7.82231 7.32243C12.5107 2.634 18.8695 4.17347e-05 25.4999 0Z" fill="url(#paint0_linear_379_2567)"/>
<path fill-rule="evenodd" clip-rule="evenodd" d="M7.00609 25.0001C7.00609 20.0952 8.95455 15.3912 12.4228 11.923C15.8911 8.45469 20.5951 6.50623 25.4999 6.50623C30.4048 6.50623 35.1088 8.45469 38.577 11.923C42.0453 15.3912 43.9937 20.0952 43.9937 25.0001C44.2372 24.333 44.6799 23.7569 45.2618 23.3499C45.8437 22.9428 46.5367 22.7245 47.2468 22.7245C47.957 22.7245 48.65 22.9428 49.2319 23.3499C49.8138 23.7569 50.2565 24.333 50.5 25.0001C50.5 18.3697 47.8661 12.0108 43.1776 7.3224C38.4892 2.63398 32.1304 4.57764e-05 25.5 4.57764e-05C18.8696 4.57764e-05 12.5107 2.63398 7.82233 7.3224C3.13393 12.0108 0.5 18.3697 0.5 25.0001C0.743478 24.333 1.18617 23.7569 1.76806 23.3499C2.34995 22.9428 3.0429 22.7245 3.75303 22.7245C4.46317 22.7245 5.15614 22.9428 5.73803 23.3499C6.31992 23.7569 6.76261 24.333 7.00609 25.0001Z" fill="url(#paint1_linear_379_2567)"/>
<g style="mix-blend-mode:screen">
<path fill-rule="evenodd" clip-rule="evenodd" d="M25.0261 6.02098C28.6861 6.02099 32.2639 7.10631 35.307 9.1397C38.3501 11.1731 40.722 14.0632 42.1226 17.4446C43.5232 20.826 43.8896 24.5467 43.1756 28.1364C42.4615 31.726 40.6991 35.0233 38.1111 37.6113C35.5231 40.1993 32.2258 41.9617 28.6362 42.6757C25.0465 43.3897 21.3258 43.0232 17.9444 41.6226C14.5631 40.222 11.673 37.8501 9.63961 34.807C7.60626 31.7638 6.52098 28.186 6.521 24.526C6.52102 19.6182 8.47069 14.9113 11.9411 11.441C15.4115 7.97059 20.1183 6.02097 25.0261 6.02098Z" fill="#F7E984"/>
</g>
<path fill-rule="evenodd" clip-rule="evenodd" d="M25.4999 6.50607C29.1577 6.50607 32.7332 7.59072 35.7745 9.62284C38.8158 11.655 41.1862 14.5433 42.586 17.9226C43.9857 21.3019 44.352 25.0204 43.6384 28.6079C42.9248 32.1953 41.1635 35.4906 38.5771 38.0771C35.9907 40.6635 32.6954 42.4249 29.108 43.1385C25.5205 43.8521 21.8021 43.4859 18.4228 42.0861C15.0434 40.6864 12.1551 38.316 10.1229 35.2747C8.0908 32.2334 7.00613 28.6579 7.0061 25.0001C7.00609 20.0952 8.95451 15.3912 12.4228 11.9229C15.891 8.45458 20.595 6.5061 25.4999 6.50607Z" fill="url(#paint2_radial_379_2567)"/>
<path style="mix-blend-mode:screen" fill-rule="evenodd" clip-rule="evenodd" d="M10.2888 35.5215L36.0217 9.78863C33.8289 8.27499 31.3357 7.2517 28.7118 6.78846C26.088 6.32522 23.3951 6.43291 20.8166 7.10421L7.60424 20.3166C6.93293 22.8951 6.82525 25.5879 7.28851 28.2118C7.75178 30.8356 8.7751 33.3288 10.2888 35.5215Z" fill="url(#paint3_radial_379_2567)"/>
<path style="mix-blend-mode:screen" fill-rule="evenodd" clip-rule="evenodd" d="M42.4558 18.2946L18.7944 41.9561L18.5903 42.1598C20.5641 42.955 22.6607 43.4018 24.7872 43.4804L25.2374 43.0304L43.5301 24.7377L43.9803 24.2874C43.9015 22.161 43.4547 20.0643 42.6598 18.0905L42.4558 18.2946Z" fill="url(#paint4_radial_379_2567)"/>
<path fill-rule="evenodd" clip-rule="evenodd" d="M25.4999 0.650689C30.3158 0.650673 35.0234 2.07872 39.0277 4.75426C43.0319 7.42979 46.1528 11.2326 47.9958 15.6819C49.8387 20.1312 50.3209 25.027 49.3814 29.7503C48.4419 34.4736 46.1229 38.8123 42.7176 42.2176C39.3123 45.623 34.9737 47.942 30.2504 48.8816C25.5271 49.8211 20.6312 49.3389 16.182 47.496C11.7327 45.6531 7.92987 42.5322 5.25432 38.5279C2.57877 34.5237 1.1507 29.816 1.15068 25.0002C1.15068 18.5423 3.71603 12.3489 8.28239 7.78253C12.8488 3.21612 19.0421 0.650722 25.4999 0.650689ZM25.4999 0C30.4444 0 35.2779 1.46622 39.3891 4.21325C43.5003 6.96028 46.7046 10.8647 48.5968 15.4329C50.489 20.001 50.9841 25.0277 50.0195 29.8772C49.0549 34.7267 46.6739 39.1813 43.1776 42.6776C39.6813 46.1739 35.2267 48.555 30.3772 49.5196C25.5278 50.4843 20.5011 49.9892 15.933 48.097C11.3648 46.2049 7.46036 43.0006 4.71332 38.8894C1.96628 34.7782 0.500031 29.9447 0.5 25.0002C0.5 18.3697 3.13392 12.0109 7.82231 7.32243C12.5107 2.634 18.8695 4.17347e-05 25.4999 0Z" fill="url(#paint5_linear_379_2567)"/>
<g style="mix-blend-mode:screen">
<path fill-rule="evenodd" clip-rule="evenodd" d="M1.74268 19.6393C3.19129 14.4523 6.29765 9.88198 10.5874 6.62609C14.8772 3.37021 20.1147 1.6077 25.5001 1.6077C30.8855 1.6077 36.1229 3.37021 40.4127 6.62609C44.7025 9.88198 47.8088 14.4523 49.2575 19.6393C48.0394 14.2483 45.0241 9.4318 40.7068 5.98109C36.3895 2.53038 31.027 0.650635 25.5001 0.650635C19.9732 0.650635 14.6106 2.53038 10.2933 5.98109C5.97603 9.4318 2.96069 14.2483 1.74268 19.6393Z" fill="#F7E984"/>
</g>
<path d="M32.7222 27.2061C32.7222 31.0633 31.349 31.8945 29.0769 32.2C27.8965 32.3587 26.0556 31.7397 26.0556 29.4974C26.0556 28.402 26.9678 27.3139 28.1065 27.0901C29.1625 26.8825 27.764 27.1539 30.1531 26.6989C30.5379 26.6257 30.5054 26.3516 30.5054 26.0546C30.5054 25.8124 30.5042 23.5889 30.5034 22.2386L30.5 22.2589L30.5054 19.3966C30.5054 19.1337 30.4243 19.0099 30.1222 19.0854L22.0161 20.5626C21.6776 20.6473 21.6111 20.7878 21.6111 21.1111V29.4283C21.6111 33.2855 20.2379 34.1167 17.9658 34.4222C16.7854 34.5809 14.9445 33.9619 14.9445 31.7196C14.9445 30.6243 15.8567 29.5361 16.9954 29.3123C18.0514 29.1047 16.6529 29.3761 19.042 28.9212C19.4268 28.8479 19.3943 28.5738 19.3943 28.2768C19.3943 28.014 19.3929 25.4181 19.3921 24.1366L19.3917 23.4284L19.3922 23.4278L19.3889 20.6107C19.3889 20.6107 19.3844 18.8622 19.3889 17.9879C19.3943 16.9423 19.9559 16.558 21.6111 16.2176L30.5 14.5758C30.5 14.5758 32.7222 13.881 32.7222 15.6874V27.2061Z" fill="#954B25"/>
<defs>
<linearGradient id="paint0_linear_379_2567" x1="25.5" y1="50" x2="25.5" y2="0" gradientUnits="userSpaceOnUse">
<stop stop-color="#DE8B00"/>
<stop offset="1" stop-color="#FFC75E"/>
</linearGradient>
<linearGradient id="paint1_linear_379_2567" x1="25.5" y1="25.0001" x2="25.5" y2="-3.32003e-05" gradientUnits="userSpaceOnUse">
<stop stop-color="#FFB805"/>
<stop offset="1" stop-color="#FFE89C"/>
</linearGradient>
<radialGradient id="paint2_radial_379_2567" cx="0" cy="0" r="1" gradientUnits="userSpaceOnUse" gradientTransform="translate(16.7758 8.91483) scale(41.0481 41.0482)">
<stop stop-color="#FFEEB8"/>
<stop offset="1" stop-color="#FFBF00"/>
</radialGradient>
<radialGradient id="paint3_radial_379_2567" cx="0" cy="0" r="1" gradientUnits="userSpaceOnUse" gradientTransform="translate(18.7876 -1.88706) scale(41.4211 41.4213)">
<stop stop-color="#FFFD9E"/>
<stop offset="1"/>
</radialGradient>
<radialGradient id="paint4_radial_379_2567" cx="0" cy="0" r="1" gradientUnits="userSpaceOnUse" gradientTransform="translate(34.0116 11.974) scale(35.165 35.1652)">
<stop stop-color="#FFFD9E"/>
<stop offset="1"/>
</radialGradient>
<linearGradient id="paint5_linear_379_2567" x1="25.5" y1="50" x2="25.5" y2="0" gradientUnits="userSpaceOnUse">
<stop stop-color="#CF8000"/>
<stop offset="1" stop-color="#F5B133"/>
</linearGradient>
</defs>
</svg>
