<svg width="46" height="46" viewBox="0 0 46 46" fill="none" xmlns="http://www.w3.org/2000/svg">
<path fill-rule="evenodd" clip-rule="evenodd" d="M22.9999 0.152222C27.45 0.152222 31.8001 1.47182 35.5002 3.94414C39.2003 6.41647 42.0841 9.93048 43.7871 14.0418C45.4901 18.1531 45.9357 22.6771 45.0675 27.0417C44.1994 31.4063 42.0565 35.4154 38.9098 38.5621C35.7632 41.7088 31.7541 43.8517 27.3895 44.7199C23.025 45.588 18.501 45.1425 14.3897 43.4395C10.2783 41.7366 6.76433 38.8527 4.29199 35.1526C1.81965 31.4526 0.500028 27.1024 0.5 22.6524C0.5 16.685 2.87053 10.962 7.09008 6.74241C11.3096 2.52282 17.0326 0.152259 22.9999 0.152222Z" fill="url(#paint0_linear_379_2793)"/>
<path fill-rule="evenodd" clip-rule="evenodd" d="M6.35548 22.6523C6.35548 18.2379 8.10909 14.0043 11.2305 10.8829C14.352 7.76144 18.5855 6.00783 22.9999 6.00783C27.4143 6.00783 31.6479 7.76144 34.7693 10.8829C37.8908 14.0043 39.6443 18.2379 39.6443 22.6523C39.8635 22.0519 40.2619 21.5334 40.7856 21.1671C41.3094 20.8007 41.933 20.6043 42.5722 20.6043C43.2113 20.6043 43.835 20.8007 44.3587 21.1671C44.8824 21.5334 45.2808 22.0519 45.5 22.6523C45.5 16.6849 43.1294 10.962 38.9099 6.74238C34.6903 2.5228 28.9674 0.152267 23 0.152267C17.0326 0.152267 11.3097 2.5228 7.0901 6.74238C2.87053 10.962 0.5 16.6849 0.5 22.6523C0.71913 22.0519 1.11756 21.5334 1.64126 21.1671C2.16496 20.8007 2.78861 20.6043 3.42773 20.6043C4.06685 20.6043 4.69052 20.8007 5.21422 21.1671C5.73793 21.5334 6.13635 22.0519 6.35548 22.6523Z" fill="url(#paint1_linear_379_2793)"/>
<g style="mix-blend-mode:screen">
<path fill-rule="evenodd" clip-rule="evenodd" d="M22.5736 5.57112C25.8676 5.57113 29.0876 6.54792 31.8264 8.37797C34.5652 10.208 36.6999 12.8091 37.9604 15.8524C39.221 18.8956 39.5508 22.2443 38.9081 25.475C38.2655 28.7056 36.6793 31.6732 34.3501 34.0024C32.0209 36.3316 29.0533 37.9178 25.8227 38.5604C22.592 39.203 19.2433 38.8732 16.2001 37.6126C13.1569 36.352 10.5558 34.2174 8.72576 31.4785C6.89575 28.7397 5.91899 25.5197 5.91901 22.2257C5.91903 17.8086 7.67373 13.5724 10.7971 10.4491C13.9204 7.32577 18.1566 5.57111 22.5736 5.57112Z" fill="#F7E984"/>
</g>
<path fill-rule="evenodd" clip-rule="evenodd" d="M22.9999 6.00772C26.2919 6.00772 29.5099 6.9839 32.2471 8.81281C34.9842 10.6417 37.1176 13.2412 38.3774 16.2826C39.6371 19.324 39.9667 22.6706 39.3245 25.8994C38.6823 29.1281 37.0971 32.0938 34.7694 34.4216C32.4416 36.7494 29.4758 38.3346 26.2472 38.9769C23.0185 39.6191 19.6718 39.2895 16.6305 38.0298C13.5891 36.77 10.9896 34.6367 9.16063 31.8995C7.33169 29.1624 6.3555 25.9443 6.35547 22.6524C6.35545 18.2379 8.10904 14.0043 11.2305 10.8829C14.3519 7.76138 18.5855 6.00774 22.9999 6.00772Z" fill="url(#paint2_radial_379_2793)"/>
<path style="mix-blend-mode:screen" fill-rule="evenodd" clip-rule="evenodd" d="M9.3099 32.1216L32.4695 8.96203C30.496 7.59974 28.2521 6.67878 25.8906 6.26187C23.5291 5.84495 21.1055 5.94188 18.7849 6.54604L6.89379 18.4372C6.28962 20.7578 6.1927 23.1814 6.60964 25.5428C7.02658 27.9043 7.94757 30.1482 9.3099 32.1216Z" fill="url(#paint3_radial_379_2793)"/>
<path style="mix-blend-mode:screen" fill-rule="evenodd" clip-rule="evenodd" d="M38.2602 16.6173L16.965 37.9126L16.7813 38.096C18.5577 38.8117 20.4447 39.2138 22.3585 39.2846L22.7637 38.8795L39.2271 22.4162L39.6323 22.0108C39.5614 20.097 39.1593 18.21 38.4438 16.4336L38.2602 16.6173Z" fill="url(#paint4_radial_379_2793)"/>
<path fill-rule="evenodd" clip-rule="evenodd" d="M22.9999 0.737842C27.3342 0.737828 31.5711 2.02307 35.1749 4.43105C38.7787 6.83903 41.5875 10.2616 43.2462 14.2659C44.9049 18.2703 45.3388 22.6765 44.4933 26.9275C43.6477 31.1785 41.5606 35.0833 38.4958 38.1481C35.4311 41.2129 31.5263 43.3001 27.2753 44.1456C23.0244 44.9912 18.6181 44.5573 14.6138 42.8986C10.6094 41.24 7.18688 38.4312 4.77889 34.8274C2.37089 31.2236 1.08563 26.9866 1.08562 22.6524C1.08561 16.8403 3.39443 11.2663 7.50415 7.1565C11.6139 3.04673 17.1879 0.737872 22.9999 0.737842ZM22.9999 0.152222C27.45 0.152222 31.8001 1.47182 35.5002 3.94414C39.2003 6.41647 42.0841 9.93048 43.7871 14.0418C45.4901 18.1531 45.9357 22.6771 45.0675 27.0417C44.1994 31.4063 42.0565 35.4154 38.9098 38.5621C35.7632 41.7088 31.7541 43.8517 27.3895 44.7199C23.025 45.588 18.501 45.1425 14.3897 43.4395C10.2783 41.7366 6.76433 38.8527 4.29199 35.1526C1.81965 31.4526 0.500028 27.1024 0.5 22.6524C0.5 16.685 2.87053 10.962 7.09008 6.74241C11.3096 2.52282 17.0326 0.152259 22.9999 0.152222Z" fill="url(#paint5_linear_379_2793)"/>
<g style="mix-blend-mode:screen">
<path fill-rule="evenodd" clip-rule="evenodd" d="M1.61829 17.8276C2.92204 13.1593 5.71777 9.046 9.57856 6.1157C13.4394 3.18541 18.1531 1.59916 22.9999 1.59916C27.8468 1.59916 32.5605 3.18541 36.4213 6.1157C40.2821 9.046 43.0778 13.1593 44.3816 17.8276C43.2854 12.9757 40.5716 8.64084 36.686 5.5352C32.8004 2.42957 27.9741 0.737793 22.9999 0.737793C18.0258 0.737793 13.1995 2.42957 9.31388 5.5352C5.4283 8.64084 2.7145 12.9757 1.61829 17.8276Z" fill="#F7E984"/>
</g>
<path d="M18.5 30.5272V14.7772L30.875 22.6522L18.5 30.5272Z" fill="#954B25"/>
<defs>
<linearGradient id="paint0_linear_379_2793" x1="23" y1="45.1522" x2="23" y2="0.152222" gradientUnits="userSpaceOnUse">
<stop stop-color="#DE8B00"/>
<stop offset="1" stop-color="#FFC75E"/>
</linearGradient>
<linearGradient id="paint1_linear_379_2793" x1="23" y1="22.6523" x2="23" y2="0.152196" gradientUnits="userSpaceOnUse">
<stop stop-color="#FFB805"/>
<stop offset="1" stop-color="#FFE89C"/>
</linearGradient>
<radialGradient id="paint2_radial_379_2793" cx="0" cy="0" r="1" gradientUnits="userSpaceOnUse" gradientTransform="translate(15.1482 8.17561) scale(36.9433 36.9434)">
<stop stop-color="#FFEEB8"/>
<stop offset="1" stop-color="#FFBF00"/>
</radialGradient>
<radialGradient id="paint3_radial_379_2793" cx="0" cy="0" r="1" gradientUnits="userSpaceOnUse" gradientTransform="translate(16.9588 -1.5461) scale(37.279 37.2792)">
<stop stop-color="#FFFD9E"/>
<stop offset="1"/>
</radialGradient>
<radialGradient id="paint4_radial_379_2793" cx="0" cy="0" r="1" gradientUnits="userSpaceOnUse" gradientTransform="translate(30.6604 10.9288) scale(31.6485 31.6486)">
<stop stop-color="#FFFD9E"/>
<stop offset="1"/>
</radialGradient>
<linearGradient id="paint5_linear_379_2793" x1="23" y1="45.1522" x2="23" y2="0.152222" gradientUnits="userSpaceOnUse">
<stop stop-color="#CF8000"/>
<stop offset="1" stop-color="#F5B133"/>
</linearGradient>
</defs>
</svg>
