<svg width="109" height="119" viewBox="0 0 109 119" fill="none" xmlns="http://www.w3.org/2000/svg">
<g clip-path="url(#clip0_537_4869)">
<path d="M0.447266 42.256L24.5444 65.0849L13.9947 112.703L49.9099 85.3772L89.0534 105.67L76.6589 66.699L108.885 42.256L65.3597 38.2782L59.8831 5.47607L36.0742 37.7017L0.447266 42.256Z" fill="#EDB266" stroke="#EDB266" stroke-width="2.30595" stroke-miterlimit="10"/>
<path d="M37.7466 65.7767L39.0149 62.3754L42.9926 61.5684L44.4338 64.4508L43.1656 68.3133L38.8996 68.6015L37.7466 65.7767Z" fill="#EDB266" stroke="#EDB266" stroke-width="1.15297" stroke-miterlimit="10"/>
<path d="M32.3848 72.9253L33.7683 70.1581L37.2273 69.8123L38.1496 72.4064L36.7661 75.5771L33.1342 75.4618L32.3848 72.9253Z" fill="#EDB266" stroke="#EDB266" stroke-width="1.15297" stroke-miterlimit="10"/>
<path d="M28.1768 79.8433L29.3874 77.4796L32.2698 77.1914L33.0769 79.3821L31.9239 82.0339L28.8109 81.9186L28.1768 79.8433Z" fill="#EDB266" stroke="#EDB266" stroke-width="1.15297" stroke-miterlimit="10"/>
<path d="M25.1221 85.089L26.1021 83.1289L28.6386 82.8407L29.3304 84.7431L28.2928 87.0491L25.6409 86.9338L25.1221 85.089Z" fill="#EDB266" stroke="#EDB266" stroke-width="1.15297" stroke-miterlimit="10"/>
<path d="M23.3345 89.4126L24.0839 87.9137L26.044 87.6831L26.5628 89.1243L25.7557 90.9114L23.738 90.8538L23.3345 89.4126Z" fill="#EDB266" stroke="#EDB266" stroke-width="1.15297" stroke-miterlimit="10"/>
<path d="M21.7783 93.0445L22.3548 91.9492L23.7384 91.7762L24.1419 92.8139L23.5654 94.1398L22.1242 94.0822L21.7783 93.0445Z" fill="#EDB266" stroke="#EDB266" stroke-width="1.15297" stroke-miterlimit="10"/>
<path d="M36.7083 49.5775L40.1672 49.7505L42.1272 53.267L39.8789 55.4577H35.9588L34.46 51.5376L36.7083 49.5775Z" fill="#EDB266" stroke="#EDB266" stroke-width="1.15297" stroke-miterlimit="10"/>
<path d="M28.5802 46.6949L31.5203 47.2138L32.8462 50.3268L30.7709 51.941L27.4273 51.5951L26.5049 48.1362L28.5802 46.6949Z" fill="#EDB266" stroke="#EDB266" stroke-width="1.15297" stroke-miterlimit="10"/>
<path d="M21.0283 44.7927L23.5072 45.1963L24.6025 47.8481L22.8731 49.2893L20.0483 49.0011L19.2412 46.061L21.0283 44.7927Z" fill="#EDB266" stroke="#EDB266" stroke-width="1.15297" stroke-miterlimit="10"/>
<path d="M15.2635 43.5243L17.3966 43.8702L18.3766 46.1185L16.8201 47.3291L14.3988 47.0985L13.707 44.562L15.2635 43.5243Z" fill="#EDB266" stroke="#EDB266" stroke-width="1.15297" stroke-miterlimit="10"/>
<path d="M10.7668 43.1207L12.3809 43.3513L13.1304 45.1384L11.9774 46.0608L10.1326 45.8879L9.55615 43.9278L10.7668 43.1207Z" fill="#EDB266" stroke="#EDB266" stroke-width="1.15297" stroke-miterlimit="10"/>
<path d="M6.96236 42.7749L8.17298 42.9479L8.69182 44.2161L7.88474 44.9079L6.50117 44.735L6.15527 43.3514L6.96236 42.7749Z" fill="#EDB266" stroke="#EDB266" stroke-width="1.15297" stroke-miterlimit="10"/>
<path d="M58.961 65.3155L57.1739 61.9719L52.8502 61.5684L51.6973 64.739L53.4267 68.6015L58.0386 68.3709L58.961 65.3155Z" fill="#EDB266" stroke="#EDB266" stroke-width="1.15297" stroke-miterlimit="10"/>
<path d="M65.4756 72.0605L63.6885 69.4087H59.9989L59.2495 72.1758L61.1519 75.3465L65.0144 74.77L65.4756 72.0605Z" fill="#EDB266" stroke="#EDB266" stroke-width="1.15297" stroke-miterlimit="10"/>
<path d="M70.7787 78.6901L69.2799 76.4418H66.1092L65.5327 78.8054L67.0892 81.4572L70.3752 80.996L70.7787 78.6901Z" fill="#EDB266" stroke="#EDB266" stroke-width="1.15297" stroke-miterlimit="10"/>
<path d="M74.6988 83.8206L73.3728 81.8606L70.721 81.9182L70.2021 83.936L71.5281 86.1843L74.3529 85.7807L74.6988 83.8206Z" fill="#EDB266" stroke="#EDB266" stroke-width="1.15297" stroke-miterlimit="10"/>
<path d="M77.1201 88.0868L76.14 86.5879H74.0647L73.6611 88.1444L74.6988 89.9315L76.8895 89.5856L77.1201 88.0868Z" fill="#EDB266" stroke="#EDB266" stroke-width="1.15297" stroke-miterlimit="10"/>
<path d="M79.1957 91.6611L78.4463 90.5658H76.9474L76.6592 91.7188L77.4086 92.9294L79.0228 92.7564L79.1957 91.6611Z" fill="#EDB266" stroke="#EDB266" stroke-width="1.15297" stroke-miterlimit="10"/>
<path d="M61.383 50.1538L57.8088 50.2115L55.6182 53.901L57.8088 56.3799L61.8442 56.5528L63.6313 52.3445L61.383 50.1538Z" fill="#EDB266" stroke="#EDB266" stroke-width="1.15297" stroke-miterlimit="10"/>
<path d="M69.9151 47.3291L66.8597 47.7326L65.3032 51.0763L67.3786 52.9787L70.8375 52.6904L71.9905 49.0009L69.9151 47.3291Z" fill="#EDB266" stroke="#EDB266" stroke-width="1.15297" stroke-miterlimit="10"/>
<path d="M77.8127 45.5996L75.2185 45.9455L73.8926 48.7126L75.6797 50.3268L78.5621 50.0962L79.5421 46.9832L77.8127 45.5996Z" fill="#EDB266" stroke="#EDB266" stroke-width="1.15297" stroke-miterlimit="10"/>
<path d="M83.8075 44.389L81.5592 44.6773L80.4639 47.0985L81.9627 48.4821L84.4416 48.2515L85.3064 45.5997L83.8075 44.389Z" fill="#EDB266" stroke="#EDB266" stroke-width="1.15297" stroke-miterlimit="10"/>
<path d="M88.477 44.1008L86.7475 44.3314L85.8828 46.1762L87.0358 47.2715L88.9382 47.0986L89.63 45.0232L88.477 44.1008Z" fill="#EDB266" stroke="#EDB266" stroke-width="1.15297" stroke-miterlimit="10"/>
<path d="M92.3389 43.8701L91.1283 44.0431L90.4941 45.369L91.3012 46.1184L92.6848 46.0608L93.2036 44.5619L92.3389 43.8701Z" fill="#EDB266" stroke="#EDB266" stroke-width="1.15297" stroke-miterlimit="10"/>
<path d="M48.1815 42.7748L46.5674 46.1185L48.8157 49.9233L51.9864 49.1162L54.0041 45.4843L51.1793 41.7948L48.1815 42.7748Z" fill="#EDB266" stroke="#EDB266" stroke-width="1.15297" stroke-miterlimit="10"/>
<path d="M49.7384 33.6086L48.6431 36.6064L50.8337 39.6041L53.4856 38.6241L54.8691 35.3957L52.1596 32.5133L49.7384 33.6086Z" fill="#EDB266" stroke="#EDB266" stroke-width="1.15297" stroke-miterlimit="10"/>
<path d="M51.8711 25.4801L50.9487 28.0167L52.8511 30.6109L55.0418 29.8038L56.1948 26.979L53.8888 24.5577L51.8711 25.4801Z" fill="#EDB266" stroke="#EDB266" stroke-width="1.15297" stroke-miterlimit="10"/>
<path d="M53.6 19.4272L52.8506 21.5602L54.4647 23.8085L56.3672 23.0591L57.3472 20.6955L55.3871 18.6201L53.6 19.4272Z" fill="#EDB266" stroke="#EDB266" stroke-width="1.15297" stroke-miterlimit="10"/>
<path d="M55.5604 14.988L54.9839 16.6598L56.1945 18.3893L57.6934 17.8704L58.4428 16.0257L56.9439 14.4115L55.5604 14.988Z" fill="#EDB266" stroke="#EDB266" stroke-width="1.15297" stroke-miterlimit="10"/>
<path d="M57.1745 11.3563L56.771 12.5093L57.6357 13.7776L58.7311 13.374L59.2499 12.0481L58.1546 10.8951L57.1745 11.3563Z" fill="#EDB266" stroke="#EDB266" stroke-width="1.15297" stroke-miterlimit="10"/>
</g>
<defs>
<clipPath id="clip0_537_4869">
<rect width="108.38" height="117.603" fill="white" transform="translate(0.620605 0.575928)"/>
</clipPath>
</defs>
</svg>
