<svg width="129" height="129" viewBox="0 0 129 129" fill="none" xmlns="http://www.w3.org/2000/svg">
<path d="M62.2794 8.95886H67.3413C66.9253 14.2844 66.7036 17.155 66.7036 17.155L67.3413 23.7125C67.3413 23.7125 68.6005 24.3909 68.6005 31.3035C68.6642 33.285 85.937 37.5954 86.0493 38.706C86.3985 42.1593 80.233 45.5798 80.233 45.5798C80.233 45.5798 75.0696 51.4742 74.4167 55.0974C74.4167 59.9465 67.3413 59.5194 67.3413 64.3715C65.653 64.3715 63.9647 64.3715 62.2794 64.3715C62.2794 54.7887 53.2666 51.9249 53.2666 51.9249L43.749 40.8211C43.749 40.8211 47.7881 40.3963 48.5078 34.476C48.5078 27.5877 62.2794 23.9583 62.2794 23.9583L62.8381 17.158C62.8381 17.155 62.6438 14.2844 62.2794 8.95886Z" fill="#EDB266" stroke="#EDB266" stroke-width="1.18761" stroke-miterlimit="10"/>
<path d="M67.2931 120.179H62.2312C62.6472 114.853 62.8689 111.983 62.8689 111.983L62.2312 105.425C62.2312 105.425 47.4507 97.0955 47.4507 90.1829C47.387 88.2014 43.8619 87.4045 43.7496 86.2939C43.4004 82.8406 56.4395 76.2475 56.4395 76.2475C56.4395 76.2475 56.8441 77.7557 57.497 74.1325C57.497 69.2834 62.2312 69.6183 62.2312 64.7661C63.9195 64.7661 65.6078 64.7661 67.2931 64.7661C67.2931 74.349 73.8884 72.5463 73.8884 72.5463L84.4634 83.6501C84.4634 83.6501 86.2406 86.1899 85.521 92.1101C85.521 98.9984 67.2931 105.179 67.2931 105.179L66.7344 111.98C66.7344 111.983 66.9287 114.853 67.2931 120.179Z" fill="#EDB266" stroke="#EDB266" stroke-width="1.18761" stroke-miterlimit="10"/>
<path d="M60.3394 123.382C60.473 122.827 60.6066 122.272 60.7402 121.719C61.141 121.231 61.5388 120.742 61.9396 120.254C62.3678 119.814 62.7959 119.374 63.2271 118.931C63.6431 118.815 64.0591 118.703 64.4751 118.588C65.0673 118.721 65.6564 118.855 66.2485 118.988C66.5886 119.477 66.9317 119.965 67.2718 120.451C67.6939 121.006 68.116 121.561 68.538 122.114C68.5836 122.423 68.6261 122.736 68.6717 123.045C68.6777 123.619 68.6838 124.195 68.6899 124.769C68.4439 125.233 68.1949 125.697 67.949 126.159C67.4692 126.553 66.9894 126.948 66.5127 127.342C65.8355 127.494 65.1584 127.646 64.4812 127.797C63.9893 127.715 63.4974 127.636 63.0024 127.555C62.4255 127.181 61.8485 126.811 61.2716 126.438C60.9831 126.034 60.6946 125.628 60.4031 125.224C60.3788 124.614 60.3576 123.998 60.3394 123.382Z" fill="#EDB266" stroke="#EDB266" stroke-width="1.18761" stroke-miterlimit="10"/>
<path d="M68.4013 44.1256C68.4013 44.1256 68.1797 45.2727 67.7728 47.415C65.9144 47.415 64.053 47.415 62.1946 47.415C62.0185 46.9902 61.8424 46.4743 61.7148 45.8826C61.5357 45.0602 61.4962 44.332 61.5084 43.7524C62.4436 43.9253 62.9507 44.0194 62.9507 44.0194L65.2889 40.9576C66.2515 37.0249 66.8709 34.5002 66.8709 34.5002C67.1169 37.3102 67.4084 39.498 67.6179 40.7058C67.8274 41.9044 68.0764 42.9149 68.0764 42.9149C68.2009 43.4247 68.3194 43.8404 68.4013 44.1256Z" fill="#EDB266"/>
<path d="M119.725 62.2385V67.297C114.396 66.8812 111.523 66.6597 111.523 66.6597L104.961 67.297C104.961 67.297 95.6104 87.3513 88.6931 87.3513C86.7103 87.4151 81.8732 78.2502 80.7618 78.3625C77.3062 78.7115 76.003 75.19 76.003 75.19C76.003 75.19 76.4562 71.6124 72.8305 70.96C67.9781 70.96 69.1299 67.297 64.2744 67.297C64.2744 65.6098 64.2744 63.9226 64.2744 62.2385C73.8638 62.2385 74.4168 56.1549 74.4168 56.1549L88.1644 43.9935C88.1644 43.9935 88.4666 46.4469 94.3909 47.1661C101.284 47.1661 104.715 62.2385 104.715 62.2385L111.52 62.7968C111.523 62.7968 114.399 62.6026 119.725 62.2385Z" fill="#EDB266" stroke="#EDB266" stroke-width="1.18761" stroke-miterlimit="10"/>
<path d="M123.66 69.1872C123.104 69.0537 122.548 68.9202 121.996 68.7867C121.507 68.3861 121.018 67.9886 120.529 67.5881C120.089 67.1602 119.648 66.7323 119.205 66.3014C119.09 65.8857 118.977 65.47 118.862 65.0543C118.995 64.4625 119.129 63.8739 119.263 63.2821C119.752 62.9423 120.24 62.5994 120.726 62.2595C121.282 61.8377 121.838 61.4159 122.39 60.9941C122.7 60.9486 123.013 60.9061 123.323 60.8606C123.896 60.8545 124.473 60.8485 125.047 60.8424C125.512 61.0882 125.976 61.337 126.438 61.5828C126.833 62.0623 127.228 62.5417 127.622 63.0181C127.774 63.6948 127.926 64.3715 128.078 65.0482C127.996 65.5398 127.917 66.0314 127.835 66.526C127.461 67.1025 127.091 67.6791 126.717 68.2556C126.314 68.5439 125.907 68.8322 125.503 69.1235C124.889 69.1478 124.273 69.169 123.66 69.1872Z" fill="#EDB266" stroke="#EDB266" stroke-width="1.18761" stroke-miterlimit="10"/>
<path d="M9.27295 67.549V62.4905C14.6021 62.9062 17.4747 63.1278 17.4747 63.1278L24.0367 62.4905C24.0367 62.4905 24.6702 58.27 31.5875 58.27C33.5704 58.2063 38.4074 44.6347 39.5188 44.5224C42.9744 44.1735 46.3926 51.925 46.3926 51.925C46.3926 51.925 50.1695 56.0313 53.7952 56.6837C58.6476 56.6837 59.868 62.4905 64.7234 62.4905C64.7234 64.1777 64.7234 65.8649 64.7234 67.549C55.134 67.549 57.4964 72.5463 57.4964 72.5463L50.6226 76.7763C50.6226 76.7763 45.4431 85.4268 39.5188 84.7076C32.6258 84.7076 24.2826 67.549 24.2826 67.549L17.4777 66.9907C17.4747 66.9907 14.5991 67.1849 9.27295 67.549Z" fill="#EDB266" stroke="#EDB266" stroke-width="1.18761" stroke-miterlimit="10"/>
<path d="M5.3381 60.6C5.89379 60.7335 6.44948 60.867 7.00213 61.0005C7.49102 61.4011 7.9799 61.7986 8.46879 62.1991C8.90909 62.627 9.34939 63.0579 9.79272 63.4858C9.90811 63.9015 10.0205 64.3172 10.1359 64.7329C10.0022 65.3247 9.86864 65.9134 9.73503 66.5051C9.24614 66.8449 8.75726 67.1878 8.27141 67.5277C7.71572 67.9495 7.16003 68.3713 6.60738 68.7931C6.29765 68.8386 5.98489 68.8811 5.67516 68.9266C5.10125 68.9327 4.52431 68.9387 3.9504 68.9448C3.48581 68.699 3.02122 68.4502 2.55966 68.2044C2.16491 67.7249 1.77016 67.2455 1.3754 66.7691C1.22358 66.0924 1.07175 65.4157 0.919922 64.739C1.00191 64.2474 1.08086 63.7558 1.16285 63.2612C1.53634 62.6847 1.9068 62.1081 2.2803 61.5316C2.68416 61.2433 3.09106 60.955 3.49492 60.6637C4.1083 60.6364 4.72472 60.6182 5.3381 60.6Z" fill="#EDB266" stroke="#EDB266" stroke-width="1.18761" stroke-miterlimit="10"/>
<path d="M101.825 23.3546L105.405 26.9323C101.342 30.4068 99.1524 32.276 99.1524 32.276C99.1524 32.276 94.965 37.3648 94.9619 37.3648C94.9619 37.3648 92.3809 39.9441 87.489 44.8327C86.1316 46.2801 85.2207 47.6092 84.5132 48.4771C82.3177 51.1656 81.1608 52.5828 81.1608 52.5828C81.1608 52.5828 79.518 53.7237 76.4936 55.8236C73.0623 59.2525 69.631 62.6815 66.1997 66.1105C65.0064 64.9179 63.813 63.7254 62.6196 62.5328C69.4002 55.7568 73.0016 52.1579 73.0016 52.1579L76.5179 47.0752C76.5179 47.0752 79.0413 45.0997 83.7419 41.425C88.6155 36.5546 91.2179 33.9541 91.2179 33.9541L96.4256 29.5389C96.4195 29.545 98.3143 27.3753 101.825 23.3546Z" fill="#EDB266" stroke="#EDB266" stroke-width="1.18761" stroke-miterlimit="10"/>
<path d="M109.912 25.1029C109.426 25.4002 108.937 25.7007 108.452 25.998C107.823 26.0618 107.194 26.1224 106.566 26.1862C105.949 26.1953 105.336 26.2044 104.72 26.2105C104.346 25.998 103.97 25.7826 103.596 25.5702C103.274 25.0573 102.949 24.5475 102.627 24.0347C102.731 23.4491 102.837 22.8634 102.94 22.2778C103.034 21.5859 103.128 20.8971 103.223 20.2052C103.411 19.9533 103.599 19.7045 103.787 19.4527C104.188 19.043 104.592 18.6333 104.993 18.2207C105.497 18.0689 105.998 17.9142 106.502 17.7625C107.122 17.8231 107.738 17.8808 108.357 17.9415C108.943 18.3147 109.53 18.6849 110.116 19.0582C110.407 19.4618 110.699 19.8684 110.99 20.272C111.136 20.9426 111.279 21.6132 111.424 22.2838C111.342 22.7754 111.26 23.264 111.178 23.7556C110.753 24.2047 110.331 24.6538 109.912 25.1029Z" fill="#EDB266" stroke="#EDB266" stroke-width="1.18761" stroke-miterlimit="10"/>
<path d="M27.48 105.158L23.8999 101.58C27.9628 98.1057 30.1522 96.2365 30.1522 96.2365C30.1522 96.2365 34.3396 91.1476 34.3426 91.1476C34.3426 91.1476 36.9237 88.5683 41.8156 83.6798C43.1729 82.2323 44.0839 80.9032 44.7914 80.0354C46.9868 77.3468 48.1437 75.9297 48.1437 75.9297C48.1437 75.9297 49.7865 74.7887 52.8109 72.6889C56.2422 69.2599 59.6735 65.8309 63.1048 62.402C64.2982 63.5945 65.4915 64.7871 66.6849 65.9796C59.9043 72.7556 56.3029 76.3545 56.3029 76.3545L52.7866 81.4373C52.7866 81.4373 50.2632 83.4127 45.5627 87.0875C40.689 91.9578 38.0867 94.5584 38.0867 94.5584L32.879 98.9736C32.882 98.9675 30.9902 101.137 27.48 105.158Z" fill="#EDB266" stroke="#EDB266" stroke-width="1.18761" stroke-miterlimit="10"/>
<path d="M19.3931 103.406C19.8789 103.109 20.3678 102.809 20.8536 102.511C21.4822 102.447 22.1108 102.387 22.7393 102.323C23.3558 102.314 23.9691 102.305 24.5856 102.299C24.9591 102.511 25.3356 102.727 25.7091 102.939C26.031 103.452 26.3559 103.962 26.6777 104.474C26.5745 105.06 26.4682 105.646 26.365 106.231C26.2709 106.923 26.1767 107.612 26.0826 108.304C25.8943 108.556 25.706 108.805 25.5178 109.057C25.117 109.466 24.7131 109.876 24.3123 110.289C23.8082 110.44 23.3072 110.595 22.8031 110.747C22.1836 110.686 21.5672 110.628 20.9478 110.568C20.3617 110.194 19.7757 109.824 19.1896 109.451C18.8981 109.047 18.6066 108.641 18.3151 108.237C18.1693 107.567 18.0266 106.896 17.8809 106.225C17.9628 105.734 18.0448 105.245 18.1268 104.754C18.5489 104.305 18.971 103.855 19.3931 103.406Z" fill="#EDB266" stroke="#EDB266" stroke-width="1.18761" stroke-miterlimit="10"/>
<path d="M105.548 101.857L101.968 105.434C98.4908 101.374 96.6202 99.1862 96.6202 99.1862C96.6202 99.1862 91.5279 95.0017 91.5279 94.9986C91.5279 94.9986 88.9469 92.4193 84.055 87.5308C82.6066 86.1743 81.2766 85.264 80.4081 84.557C77.7177 82.363 76.2996 81.2069 76.2996 81.2069C76.2996 81.2069 75.1579 79.5652 73.0566 76.5429C69.6253 73.1139 66.194 69.685 62.7627 66.256C63.9561 65.0635 65.1494 63.8709 66.3428 62.6783C73.1234 69.4543 76.7248 73.0532 76.7248 73.0532L81.811 76.5672C81.811 76.5672 83.7878 79.0888 87.465 83.7862C92.3387 88.6565 94.941 91.2571 94.941 91.2571L99.3592 96.4612C99.3531 96.4552 101.524 98.3487 105.548 101.857Z" fill="#EDB266" stroke="#EDB266" stroke-width="1.18761" stroke-miterlimit="10"/>
<path d="M103.8 109.934C103.502 109.448 103.202 108.96 102.904 108.474C102.84 107.846 102.779 107.218 102.716 106.59C102.707 105.974 102.697 105.361 102.691 104.745C102.904 104.371 103.12 103.995 103.332 103.622C103.845 103.3 104.355 102.976 104.869 102.654C105.455 102.757 106.041 102.863 106.627 102.966C107.319 103.061 108.008 103.155 108.701 103.249C108.953 103.437 109.202 103.625 109.454 103.813C109.864 104.214 110.274 104.617 110.687 105.018C110.838 105.522 110.993 106.022 111.145 106.526C111.084 107.145 111.027 107.761 110.966 108.38C110.593 108.966 110.222 109.551 109.849 110.137C109.445 110.428 109.038 110.72 108.634 111.011C107.963 111.157 107.292 111.299 106.621 111.445C106.129 111.363 105.64 111.281 105.148 111.199C104.699 110.777 104.249 110.355 103.8 109.934Z" fill="#EDB266" stroke="#EDB266" stroke-width="1.18761" stroke-miterlimit="10"/>
<path d="M23.6875 27.563L27.2676 23.9854C30.7444 28.0455 32.615 30.2333 32.615 30.2333C32.615 30.2333 37.7073 34.4179 37.7073 34.4209C37.7073 34.4209 40.2883 37.0002 45.1802 41.8888C46.6286 43.2452 47.9587 44.1556 48.8271 44.8626C51.5175 47.0565 52.9356 48.2127 52.9356 48.2127C52.9356 48.2127 54.0773 49.8543 56.1786 52.8767C59.6099 56.3056 63.0412 59.7346 66.4725 63.1635C65.2791 64.3561 64.0858 65.5487 62.8924 66.7412C56.1118 59.9652 52.5104 56.3663 52.5104 56.3663L47.4242 52.8524C47.4242 52.8524 45.4474 50.3307 41.7702 45.6333C36.8965 40.763 34.2942 38.1625 34.2942 38.1625L29.876 32.9583C29.8821 32.9613 27.7109 31.0709 23.6875 27.563Z" fill="#EDB266" stroke="#EDB266" stroke-width="1.18761" stroke-miterlimit="10"/>
<path d="M25.4392 19.483C25.7367 19.9685 26.0374 20.457 26.3349 20.9426C26.3987 21.5707 26.4594 22.1988 26.5232 22.827C26.5323 23.443 26.5414 24.0559 26.5475 24.6719C26.3349 25.0452 26.1194 25.4215 25.9068 25.7947C25.3936 26.1164 24.8835 26.441 24.3703 26.7627C23.7842 26.6595 23.1982 26.5533 22.6121 26.4501C21.9198 26.3561 21.2305 26.262 20.5382 26.1679C20.2861 25.9798 20.0371 25.7917 19.7851 25.6035C19.3752 25.203 18.9652 24.7994 18.5523 24.3988C18.4004 23.8951 18.2456 23.3944 18.0938 22.8907C18.1545 22.2717 18.2122 21.6557 18.2729 21.0366C18.6464 20.451 19.0169 19.8653 19.3904 19.2797C19.7942 18.9884 20.2011 18.697 20.605 18.4057C21.2761 18.2601 21.9471 18.1175 22.6182 17.9718C23.1101 18.0537 23.599 18.1357 24.0909 18.2176C24.5403 18.6394 24.9898 19.0612 25.4392 19.483Z" fill="#EDB266" stroke="#EDB266" stroke-width="1.18761" stroke-miterlimit="10"/>
<path d="M81.4039 52.252C81.4039 52.252 80.4382 52.9044 78.6315 54.1333C77.3167 52.8194 76.0018 51.5055 74.687 50.1915C74.8631 49.7667 75.103 49.2782 75.431 48.7684C75.8865 48.0613 76.3723 47.5182 76.7913 47.1176C77.3319 47.9005 77.6234 48.3253 77.6234 48.3253L81.4433 47.8125C84.905 45.7126 87.1308 44.3623 87.1308 44.3623C85.318 46.5229 83.9758 48.2737 83.2683 49.2782C82.5669 50.2735 82.0294 51.1656 82.0294 51.1656C81.7591 51.6117 81.5466 51.991 81.4039 52.252Z" fill="#EDB266"/>
<path d="M84.34 68.2555C84.34 68.2555 83.1921 68.034 81.0483 67.6274C81.0483 65.7703 81.0483 63.9101 81.0483 62.053C81.4735 61.877 81.9897 61.701 82.5818 61.5736C83.4047 61.3946 84.1335 61.3551 84.7135 61.3673C84.5404 62.3019 84.4462 62.8086 84.4462 62.8086L87.5101 65.1452C91.4455 66.1071 93.9719 66.7261 93.9719 66.7261C91.1601 66.9719 88.9707 67.2633 87.7621 67.4726C86.5627 67.682 85.5515 67.9308 85.5515 67.9308C85.0444 68.0522 84.6254 68.1706 84.34 68.2555Z" fill="#EDB266"/>
<path d="M52.9487 48.2766C52.9487 48.2766 53.6016 49.2416 54.8314 51.0471C53.5166 52.361 52.2017 53.675 50.8869 54.9889C50.4618 54.8129 49.9729 54.5732 49.4628 54.2455C48.7553 53.7903 48.2117 53.3048 47.8109 52.886C48.5943 52.3459 49.0194 52.0546 49.0194 52.0546L48.5063 48.2372C46.405 44.7779 45.0537 42.5536 45.0537 42.5536C47.2157 44.3652 48.9678 45.7064 49.9729 46.4135C50.9689 47.1144 51.8617 47.6515 51.8617 47.6515C52.308 47.9216 52.6846 48.131 52.9487 48.2766Z" fill="#EDB266"/>
<path d="M81.5494 76.2637C81.5494 76.2637 80.5837 75.6113 78.777 74.3823C77.4622 75.6963 76.1473 77.0102 74.8325 78.3241C75.0086 78.7489 75.2485 79.2375 75.5765 79.7473C76.032 80.4543 76.5178 80.9975 76.9368 81.398C77.4774 80.6151 77.7689 80.1903 77.7689 80.1903L81.5888 80.7032C85.0505 82.803 87.2763 84.1534 87.2763 84.1534C85.4635 81.9928 84.1213 80.2419 83.4138 79.2375C82.7124 78.2422 82.1749 77.35 82.1749 77.35C81.9046 76.904 81.6921 76.5277 81.5494 76.2637Z" fill="#EDB266"/>
<path d="M68.4072 85.2277C68.4072 85.2277 68.1855 84.0807 67.7786 81.9384C65.9203 81.9384 64.0588 81.9384 62.2005 81.9384C62.0244 82.3632 61.8482 82.879 61.7207 83.4708C61.5416 84.2931 61.5021 85.0214 61.5142 85.601C62.4495 85.428 62.9566 85.3339 62.9566 85.3339L65.2947 88.3957C66.2573 92.3284 66.8768 94.8531 66.8768 94.8531C67.1227 92.0432 67.4142 89.8553 67.6238 88.6476C67.8333 87.449 68.0823 86.4385 68.0823 86.4385C68.2068 85.9317 68.3222 85.516 68.4072 85.2277Z" fill="#EDB266"/>
<path d="M52.9487 81.0914C52.9487 81.0914 53.6016 80.1265 54.8314 78.3209C53.5166 77.007 52.2017 75.6931 50.8869 74.3792C50.4618 74.5552 49.9729 74.7949 49.4628 75.1226C48.7553 75.5778 48.2117 76.0633 47.8109 76.4821C48.5943 77.0222 49.0194 77.3135 49.0194 77.3135L48.5063 81.1309C46.405 84.5902 45.0537 86.8145 45.0537 86.8145C47.2157 85.0029 48.9678 83.6616 49.9729 82.9546C50.9689 82.2536 51.8617 81.7165 51.8617 81.7165C52.308 81.4434 52.6846 81.2341 52.9487 81.0914Z" fill="#EDB266"/>
<path d="M44.2643 68.8107C44.2643 68.8107 45.4121 68.5892 47.5559 68.1826C47.5559 66.3255 47.5559 64.4653 47.5559 62.6082C47.1308 62.4322 46.6146 62.2562 46.0224 62.1288C45.1995 61.9497 44.4708 61.9103 43.8908 61.9224C44.0639 62.857 44.158 63.3638 44.158 63.3638L41.0941 65.7004C37.1587 66.6623 34.6323 67.2813 34.6323 67.2813C37.4442 67.5271 39.6335 67.8184 40.8421 68.0278C42.0415 68.2372 43.0527 68.486 43.0527 68.486C43.5598 68.6074 43.9788 68.7257 44.2643 68.8107Z" fill="#EDB266"/>
<path d="M101.536 46.2618L93.8112 35.7383L79.0414 26.3192L64.8151 23.2544L46.2861 27.709L33.7239 37.2343L25.674 50.762C25.674 50.762 25.0758 54.2668 24.4715 57.7686C23.8703 61.2704 23.269 64.7722 23.269 64.7722L26.2388 79.0009L35.1359 92.4922C35.1359 92.4922 38.382 94.9198 41.628 97.3443C44.8741 99.7719 48.1171 102.196 48.1202 102.2L64.8121 106.287C64.8121 106.287 68.6564 105.547 72.5037 104.803C76.3479 104.063 80.1922 103.319 80.1953 103.319C80.1953 103.319 83.7085 101.004 87.2218 98.6916C90.7351 96.3733 94.2545 94.061 94.2545 94.061L103.637 79.1132L106.355 64.7722L101.536 46.2618ZM94.7495 75.8268L87.5134 87.3518C87.5134 87.3518 84.8017 89.1361 82.0931 90.9203C79.3815 92.7076 76.6729 94.4889 76.6729 94.4889L64.8121 96.7769L51.9402 93.6271L41.9286 86.141L35.066 75.7388L32.7765 64.7692L34.6288 53.9694L40.8355 43.5369L50.5191 36.1934L64.806 32.7614L75.774 35.1223C75.774 35.1223 78.6254 36.9399 81.4706 38.7576C84.3159 40.5722 87.1642 42.3868 87.1642 42.3868L93.1188 50.498C93.1188 50.501 94.048 54.0665 94.9772 57.6321C95.9064 61.2006 96.8356 64.7661 96.8356 64.7661C96.8356 64.7661 94.7495 75.8238 94.7495 75.8268Z" fill="#EDB266" stroke="#EDB266" stroke-width="1.18761" stroke-miterlimit="10"/>
<path d="M78.1182 64.7691C77.6961 66.3592 77.271 67.9462 76.8489 69.5363C75.944 70.829 75.0391 72.1247 74.1312 73.4174C72.6433 74.522 71.1523 75.6265 69.6644 76.7341L64.812 78.0662C63.1055 77.6809 61.402 77.2955 59.6954 76.9101C58.2925 75.9027 56.8897 74.8952 55.4868 73.8847C54.5181 72.4646 53.5525 71.0414 52.5838 69.6213C52.2255 68.0039 51.8642 66.3865 51.5059 64.7661L52.6537 60.2113C53.3673 58.8731 54.0809 57.5349 54.7944 56.1967C56.1791 55.0588 57.5607 53.9209 58.9454 52.7799C60.9009 52.3429 62.8565 51.906 64.8151 51.469C66.2362 51.7026 67.6573 51.9333 69.0814 52.1669C70.7454 53.2411 72.4125 54.3153 74.0765 55.3895C74.9116 56.5578 75.7466 57.7261 76.5817 58.8913C77.0918 60.8547 77.605 62.8119 78.1182 64.7691Z" fill="#EDB266" stroke="#EDB266" stroke-width="1.18761" stroke-miterlimit="10"/>
<path d="M74.7634 64.769C74.4476 65.9585 74.1318 67.145 73.8129 68.3345C73.1358 69.3025 72.4586 70.2705 71.7815 71.2385C70.6671 72.0639 69.5557 72.8923 68.4413 73.7177L64.8126 74.713C63.5372 74.4247 62.2619 74.1364 60.9865 73.8482C59.9389 73.0956 58.8883 72.34 57.8407 71.5875C57.118 70.5254 56.3922 69.4633 55.6695 68.4013C55.3993 67.1905 55.1321 65.9828 54.8618 64.772L55.7181 61.3673C56.2525 60.366 56.784 59.3646 57.3184 58.3662C58.3538 57.5135 59.3863 56.6639 60.4217 55.8112C61.8854 55.4835 63.3459 55.1588 64.8096 54.8311C65.8723 55.004 66.9351 55.18 67.9979 55.353C69.2429 56.1571 70.4879 56.9613 71.7329 57.7624C72.3584 58.6363 72.9809 59.5072 73.6064 60.3811C73.9951 61.8407 74.3777 63.3033 74.7634 64.769Z" fill="#EDB266" stroke="#EDB266" stroke-width="1.18761" stroke-miterlimit="10"/>
<path d="M69.2363 5.03236C69.1026 5.58767 68.969 6.14298 68.8354 6.69526C68.4346 7.18381 68.0368 7.67236 67.636 8.16091C67.2078 8.60091 66.7797 9.04091 66.3485 9.48395C65.9325 9.59926 65.5165 9.71153 65.1005 9.82684C64.5083 9.69332 63.9193 9.55981 63.3271 9.42629C62.987 8.93774 62.6439 8.44919 62.3038 7.96367C61.8817 7.40836 61.4597 6.85305 61.0376 6.30077C60.992 5.99126 60.9495 5.67871 60.904 5.36919C60.8979 4.79567 60.8918 4.21912 60.8857 3.6456C61.1317 3.18132 61.3807 2.71705 61.6267 2.25581C62.1064 1.86132 62.5862 1.46684 63.0629 1.07236C63.7401 0.920636 64.4172 0.768912 65.0944 0.617188C65.5863 0.699119 66.0782 0.778016 66.5732 0.859947C67.1501 1.23319 67.7271 1.60339 68.304 1.97663C68.5925 2.38022 68.881 2.78684 69.1725 3.19043C69.1968 3.80036 69.215 4.41636 69.2363 5.03236Z" fill="#EDB266" stroke="#EDB266" stroke-width="1.18761" stroke-miterlimit="10"/>
<path d="M25.279 26.6472L28.5433 31.2293L24.3711 27.4544L25.279 26.6472Z" fill="#EDB266"/>
<path d="M9.82033 62.8331L15.3742 63.7647L9.75049 64.0439L9.82033 62.8331Z" fill="#EDB266"/>
<path d="M64.2473 9.52023L63.3121 15.0673L63.0327 9.45044L64.2473 9.52023Z" fill="#EDB266"/>
<path d="M102.69 25.045L98.105 28.3101L101.882 24.1407L102.69 25.045Z" fill="#EDB266"/>
<path d="M119.142 64.2019L113.591 63.2703L119.215 62.9911L119.142 64.2019Z" fill="#EDB266"/>
<path d="M24.4507 101.505L29.0359 98.2397L25.2554 102.412L24.4507 101.505Z" fill="#EDB266"/>
<path d="M62.9961 119.742L63.0234 114.116L64.2046 119.618L62.9961 119.742Z" fill="#EDB266"/>
<path d="M101.6 104.791L98.3354 100.209L102.508 103.984L101.6 104.791Z" fill="#EDB266"/>
<path d="M66.8169 13.5382L65.0618 17.2008L63.6528 19.8621H66.571V17.2676L66.8169 13.5382Z" fill="#EDB266"/>
<path d="M101.801 29.4204L97.9686 30.7707L95.0869 31.6568L97.1518 33.7203L98.9889 31.8814L101.801 29.4204Z" fill="#EDB266"/>
<path d="M115.416 66.7296L111.751 64.9756L109.088 63.5676V66.4838H111.684L115.416 66.7296Z" fill="#EDB266"/>
<path d="M29.8101 27.3901L31.1583 31.2197L32.048 34.0994L34.1098 32.0359L32.2727 30.2001L29.8101 27.3901Z" fill="#EDB266"/>
<path d="M66.6826 115.694L64.9275 112.031L63.5186 109.367H66.4367V111.964L66.6826 115.694Z" fill="#EDB266"/>
<path d="M102.031 99.2684L98.199 97.918L95.3203 97.032L97.3821 94.9685L99.2192 96.8044L102.031 99.2684Z" fill="#EDB266"/>
<path d="M30.1499 101.596L31.4981 97.7632L32.3878 94.8865L34.4497 96.9469L32.6125 98.7828L30.1499 101.596Z" fill="#EDB266"/>
<path d="M13.7827 66.7294L17.4448 64.9755L20.1109 63.5675V66.4836H17.5116L13.7827 66.7294Z" fill="#EDB266"/>
<path d="M28.5684 57.9355C29.0178 61.2522 29.2425 62.912 29.2425 62.912L28.1888 61.2886C28.1888 61.2886 27.375 57.8111 27.041 57.8596C26.8952 57.8808 26.9954 58.5697 26.7252 60.2356C26.6523 60.6817 26.4155 62.0199 26.4914 61.5738C26.4914 61.5738 25.8446 59.3799 25.1826 57.1283C25.9266 53.933 26.6675 50.7346 27.4114 47.5393L33.606 38.3357L41.6893 32.5763C41.4342 32.8706 41.0729 33.3167 40.6933 33.9024C40.3016 34.5093 40.001 34.9705 40.1194 35.104C40.2652 35.2679 40.8664 34.7429 42.1964 34.1906C43.3442 33.7142 44.6287 33.3895 44.6287 33.3895C44.6287 33.3895 41.0122 36.0993 41.2035 36.421C41.3097 36.597 42.5456 36.0326 43.6843 35.4682C41.164 37.2646 38.6406 39.061 36.1203 40.8574L30.6484 48.9837L28.5684 57.9355Z" fill="#EDB266"/>
<path d="M57.7801 104.627L47.9872 101.413C45.1693 99.3225 42.3514 97.2317 39.5335 95.141C38.4008 93.5024 37.8057 92.6436 37.8057 92.6436C37.8057 92.6436 39.4363 93.9636 39.658 93.8604C39.658 93.8604 39.7825 93.8028 38.252 91.6665C41.1125 93.9757 41.2461 93.912 41.2461 93.912C41.4404 93.818 39.9707 92.234 40.1468 92.152C40.2592 92.1004 40.9637 92.6679 41.9141 93.5024C44.5559 95.4626 47.2008 97.4229 49.8426 99.3862L58.9613 102.378C59.5109 102.536 59.9695 102.651 60.2974 102.73C60.9928 102.897 61.843 103.079 61.843 103.079C58.9917 102.94 58.937 103.231 58.937 103.231C58.8733 103.58 62.7965 104.56 62.7965 104.56C62.7965 104.56 61.2296 104.839 59.6931 104.815C59.2407 104.803 58.5878 104.766 57.7801 104.627Z" fill="#EDB266"/>
<path d="M95.3662 37.9172L101.266 46.3652C102.262 49.7274 103.258 53.0896 104.254 56.4519C104.175 58.4425 104.133 59.4863 104.133 59.4863C104.133 59.4863 103.623 57.4532 103.383 57.4017C103.383 57.4017 103.249 57.3743 103.188 59.9992C102.29 56.4337 102.147 56.4063 102.147 56.4063C101.934 56.3639 102.159 58.5123 101.968 58.4728C101.846 58.4485 101.625 57.5685 101.366 56.3305C100.431 53.1777 99.4989 50.0218 98.5637 46.869L93.0736 39.0036C92.7274 38.5484 92.4329 38.1782 92.2173 37.9203C91.7618 37.368 91.1909 36.7125 91.1909 36.7125C93.3863 38.5363 93.605 38.336 93.605 38.336C93.8661 38.0932 91.3185 34.9586 91.3185 34.9586C91.3185 34.9586 92.7396 35.6778 93.9511 36.6185C94.3064 36.8977 94.8075 37.3194 95.3662 37.9172Z" fill="#EDB266"/>
<path d="M100.534 77.6477C99.3952 80.7884 97.9407 83.8016 96.4042 86.7603C95.302 88.5203 94.1602 90.2529 92.9669 91.9523C90.6166 93.4786 88.2207 94.9291 85.7368 96.2339C84.9261 96.6648 84.1001 97.0775 83.2529 97.4598C83.921 96.8165 84.6103 96.2036 85.3117 95.6088C87.4039 93.8185 89.5993 92.1647 91.8433 90.5746L91.6034 90.8143C92.6753 89.1332 93.7898 87.4825 94.9437 85.859C96.4771 83.3131 98.5055 80.1663 100.534 77.6477Z" fill="#EDB266"/>
<path d="M95.5263 81.7471C93.7165 85.0547 91.597 88.1711 89.4016 91.2298C87.3884 92.7865 85.3387 94.2977 83.2495 95.7482C80.1492 97.6872 76.9942 99.5443 73.6753 101.098C74.814 100.045 76.0043 99.074 77.2038 98.1151C79.6026 96.2064 82.123 94.4767 84.5461 92.6075C85.7699 91.6911 87.0118 90.805 88.2629 89.928L88.0868 90.101C90.431 87.197 92.8481 84.3537 95.5263 81.7471Z" fill="#EDB266"/>
<path d="M65.2344 26.7927C69.1212 26.6834 72.9837 27.1629 76.8097 27.7819C79.2238 29.2627 81.5771 30.8528 83.8029 32.6159C84.5286 33.1985 85.2483 33.7902 85.9345 34.4396C85.0448 34.124 84.1885 33.7507 83.3413 33.3684C80.8149 32.2092 78.3796 30.868 76.0111 29.4236L76.339 29.545C72.5737 28.9077 68.8236 28.1248 65.2344 26.7927Z" fill="#EDB266"/>
<path d="M71.04 60.8941L67.9093 59.3313H63.561L59.2855 60.3145L57.3057 62.6753L57.834 65.6976L60.6641 67.4455C60.9738 67.6852 61.2835 67.925 61.5963 68.1647C61.3048 68.6411 61.0163 69.1145 60.7248 69.5909L61.906 70.8077H65.4375L68.547 69.9308C69.1087 69.7365 69.6705 69.5423 70.2323 69.3481C69.8163 68.6896 69.4002 68.0342 68.9873 67.3757C69.6705 66.9509 70.3568 66.5291 71.04 66.1043L72.3184 65.0665C71.8933 63.6767 71.4651 62.2839 71.04 60.8941Z" fill="#EDB266" stroke="#EDB266" stroke-width="1.18761" stroke-miterlimit="10"/>
<path d="M62.6066 64.6325C62.637 64.5233 62.8192 63.8102 62.3728 63.1426C62.0085 62.5964 61.4619 62.4356 61.3222 62.3992C60.9335 62.4963 60.5448 62.5934 60.1592 62.6905L59.6733 64.6325L60.7513 65.7371C60.8515 65.7614 61.3799 65.8797 61.9113 65.5641C62.4336 65.2485 62.5793 64.7327 62.6066 64.6325Z" fill="#EDB266"/>
<path d="M66.9135 63.9774C66.8831 63.8682 66.7009 63.1551 67.1473 62.4875C67.5117 61.9413 68.0583 61.7804 68.1979 61.744C68.5866 61.8411 68.9753 61.9382 69.3609 62.0353L69.8468 63.9774L68.7688 65.0819C68.6686 65.1062 68.1402 65.2246 67.6088 64.909C67.0866 64.5934 66.9408 64.0775 66.9135 63.9774Z" fill="#EDB266"/>
<path d="M65.8629 65.7796L65.207 64.7843L64.5117 64.3777L64.2778 65.4398V66.4017H65.0704L65.8629 65.7796Z" fill="#EDB266"/>
<path d="M66.8713 70.1857L66.4766 67.9888L67.7155 69.8459L66.8713 70.1857Z" fill="#EDB266"/>
<path d="M63.0938 70.8105L63.5492 68.656L64.0047 70.8105H63.0938Z" fill="#EDB266"/>
<path d="M59.4224 61.1887C60.6582 60.5636 62.0004 60.1873 63.3456 59.8899C64.7454 59.7928 66.1635 59.7807 67.5482 60.0447C66.3244 60.4847 64.5541 60.7305 63.5065 60.7851C62.1644 61.0582 60.7949 61.2585 59.4224 61.1887Z" fill="#EDB266"/>
<path d="M55.5573 58.2114C55.0532 59.1278 54.5491 60.0473 54.0481 60.9637C53.7809 62.3292 53.5137 63.6947 53.2495 65.0603C53.5198 66.3742 53.787 67.6881 54.0572 68.999" stroke="#EDB266" stroke-width="2.37521" stroke-miterlimit="10"/>
<path d="M73.499 71.272C74.1458 70.5286 74.7926 69.7851 75.4394 69.0417C75.7886 67.6943 76.1347 66.347 76.4839 65.0028C76.1681 63.7495 75.8554 62.4963 75.5396 61.243" stroke="#EDB266" stroke-width="2.77108" stroke-miterlimit="10"/>
<path d="M61.6908 2.89771L61.0562 5.06737L62.9813 8.14737L64.7091 7.08227L64.6636 4.55454L64.1534 1.73247L62.2009 1.16199L61.6908 2.89771Z" fill="#EDB266"/>
<path d="M18.4124 23.5702L19.4964 25.5548L23.0371 26.368L23.5047 24.3956L21.6858 22.6387L19.3294 21.0061L17.5439 21.9832L18.4124 23.5702Z" fill="#EDB266"/>
<path d="M125.229 61.7199L123.055 61.0857L119.976 63.0126L121.042 64.7392L123.571 64.6937L126.392 64.1839L126.966 62.2297L125.229 61.7199Z" fill="#EDB266"/>
<path d="M55.2867 56.828C54.9466 57.4804 54.6065 58.1298 54.2664 58.7822C54.1297 59.0462 54.1905 59.4134 54.4698 59.5621C54.731 59.7017 55.1014 59.641 55.2502 59.3588C55.5903 58.7064 55.9304 58.057 56.2705 57.4046C56.4072 57.1406 56.3464 56.7734 56.0671 56.6247C55.8029 56.4851 55.4324 56.5458 55.2867 56.828Z" fill="#EDB266"/>
<path d="M53.4707 60.8061C53.4008 61.0064 53.328 61.2066 53.2581 61.4099C53.2338 61.4858 53.2308 61.5617 53.249 61.6375C53.2521 61.7134 53.2763 61.7832 53.3158 61.85C53.3523 61.9167 53.4008 61.9683 53.4616 62.0108C53.5162 62.0624 53.58 62.0957 53.6559 62.114C53.7075 62.12 53.7561 62.1261 53.8077 62.1352C53.911 62.1352 54.0051 62.1079 54.0962 62.0563C54.1357 62.0259 54.1721 61.9956 54.2116 61.9683C54.2814 61.8985 54.33 61.8135 54.3574 61.7164C54.4272 61.5162 54.5001 61.3159 54.5699 61.1126C54.5942 61.0367 54.5972 60.9608 54.579 60.885C54.576 60.8091 54.5517 60.7393 54.5122 60.6726C54.4758 60.6058 54.4272 60.5542 54.3665 60.5117C54.3118 60.4602 54.248 60.4268 54.1721 60.4086C54.1205 60.4025 54.0719 60.3964 54.0203 60.3873C53.9171 60.3873 53.8229 60.4146 53.7318 60.4662C53.6924 60.4966 53.6559 60.5269 53.6164 60.5542C53.5466 60.627 53.498 60.709 53.4707 60.8061Z" fill="#EDB266"/>
</svg>
